<?xml version="1.0" encoding="UTF-8"?>
<svg width="411px" height="221px" viewBox="0 0 411 221" version="1.1" xmlns="http://www.w3.org/2000/svg" xmlns:xlink="http://www.w3.org/1999/xlink">
    <title>百分比堆积柱状图</title>
    <g id="页面-1" stroke="none" stroke-width="1" fill="none" fill-rule="evenodd">
        <g id="编组-33">
            <polygon id="路径" fill-opacity="0" fill="#FFFFFF" fill-rule="nonzero" points="12.5 0 410.5 0 410.5 211.273841 12.5 211.273841"></polygon>
            <g id="编组" transform="translate(49.000000, 178.000000)">
                <line x1="0.45428691" y1="0.355082086" x2="341.76927" y2="0.355082086" id="路径" stroke="#ECECEC"></line>
                <g transform="translate(0.000000, 6.456724)" fill="#E0E0E0" fill-rule="nonzero" font-family="Helvetica" font-size="12" font-weight="normal">
                    <text id="Northeast">
                        <tspan x="0" y="11">Northeast</tspan>
                    </text>
                    <text id="East">
                        <tspan x="58.7092833" y="11">East</tspan>
                    </text>
                    <text id="Central">
                        <tspan x="102.493567" y="11">Central</tspan>
                    </text>
                    <text id="North">
                        <tspan x="154.451064" y="11">North</tspan>
                    </text>
                    <text id="South">
                        <tspan x="202.499633" y="11">South</tspan>
                    </text>
                    <text id="West">
                        <tspan x="252.680345" y="11">West</tspan>
                    </text>
                    <text id="Southwest">
                        <tspan x="291.134271" y="11">Southwest</tspan>
                    </text>
                </g>
            </g>
            <text id="0" fill-rule="nonzero" font-family="Helvetica" font-size="12" font-weight="normal" fill="#DCDCDC">
                <tspan x="40.5" y="185">0</tspan>
            </text>
            <text id="8W" fill-rule="nonzero" font-family="Helvetica" font-size="12" font-weight="normal" fill="#DCDCDC">
                <tspan x="29.5" y="111">8W</tspan>
            </text>
            <text id="Area" fill-rule="nonzero" font-family="Helvetica" font-size="12" font-weight="normal" fill="#DCDCDC">
                <tspan x="210" y="218">Area</tspan>
            </text>
            <text id="4W" fill-rule="nonzero" font-family="Helvetica" font-size="12" font-weight="normal" fill="#DCDCDC">
                <tspan x="29.5" y="148">4W</tspan>
            </text>
            <text id="10W" fill-rule="nonzero" font-family="Helvetica" font-size="12" font-weight="normal" fill="#DCDCDC">
                <tspan x="22.5" y="74">10W</tspan>
            </text>
            <text id="14W" fill-rule="nonzero" font-family="Helvetica" font-size="12" font-weight="normal" fill="#DCDCDC">
                <tspan x="22.5" y="37">14W</tspan>
            </text>
            <g id="编组" transform="translate(49.500000, 31.000000)" fill="#FFFFFF" fill-opacity="0" fill-rule="nonzero">
                <polygon id="路径" points="0 0 341 0 341 148 0 148"></polygon>
            </g>
            <g id="编组-37" transform="translate(51.500000, 7.000000)" fill-rule="nonzero">
                <g id="编组-32" transform="translate(102.000000, 0.000000)">
                    <polygon id="路径" fill-opacity="0.85" fill="#ECECEC" points="0 4 5.68811115 4 5.68811115 9.94690265 0 9.94690265"></polygon>
                    <text id="Furniture-products" font-family="Helvetica" font-size="12" font-weight="normal" fill="#E0E0E0">
                        <tspan x="11" y="11">Furniture products</tspan>
                    </text>
                </g>
                <g id="编组-32备份">
                    <polygon id="路径" fill-opacity="0.85" fill="#ECECEC" points="0 4 5.68811115 4 5.68811115 9.94690265 0 9.94690265"></polygon>
                    <text id="Office-supplies" font-family="Helvetica" font-size="12" font-weight="normal" fill="#E0E0E0">
                        <tspan x="11" y="11">Office supplies</tspan>
                    </text>
                </g>
                <g id="编组-26" transform="translate(223.000000, 0.000000)">
                    <polygon id="路径" fill-opacity="0.85" fill="#C2C2C2" points="0 4 5.68811115 4 5.68811115 9.94690265 0 9.94690265"></polygon>
                    <text id="Technology-products" font-family="Helvetica" font-size="12" font-weight="normal" fill="#E0E0E0">
                        <tspan x="11" y="11">Technology products</tspan>
                    </text>
                </g>
            </g>
            <text id="The-order-number" fill-rule="nonzero" transform="translate(7.000000, 96.000000) scale(-1, -1) rotate(90.000000) translate(-7.000000, -96.000000) " font-family="Helvetica" font-size="12" font-weight="normal" fill="#E0E0E0">
                <tspan x="-41.5" y="100">The order number</tspan>
            </text>
            <g id="编组" transform="translate(53.500000, 40.000000)" fill-rule="nonzero">
                <polygon id="路径" fill-opacity="0" fill="#FFFFFF" points="0 0 269 0 269 138 0 138"></polygon>
                <g transform="translate(7.000000, 0.000000)" fill-opacity="0.85">
                    <g>
                        <g id="编组-31">
                            <polygon id="路径" fill="#F5F5F5" points="0 108.1 0 0 23 0 23 108.1"></polygon>
                            <polygon id="路径" fill="#E0E0E0" points="0 124.2 0 108.1 23 108.1 23 124.2"></polygon>
                            <polygon id="路径" fill="#C2C2C2" points="0 138 0 124.2 23 124.2 23 138"></polygon>
                        </g>
                        <g id="编组-30" transform="translate(49.000000, 0.000000)">
                            <polygon id="路径" fill="#F5F5F5" points="0 102.738971 0 0 23 0 23 102.738971"></polygon>
                            <polygon id="路径" fill="#E0E0E0" points="0 122.272059 0 102.738971 23 102.738971 23 122.272059"></polygon>
                            <polygon id="路径" fill="#C2C2C2" points="0 138 0 122.272059 23 122.272059 23 138"></polygon>
                        </g>
                        <g id="编组-29" transform="translate(99.000000, 0.000000)">
                            <polygon id="路径" fill="#F5F5F5" points="0 83.0330008 0 0 23 0 23 83.0330008"></polygon>
                            <polygon id="路径" fill="#E0E0E0" points="0 115.123561 0 83.0330008 23 83.0330008 23 115.123561"></polygon>
                            <polygon id="路径" fill="#C2C2C2" points="0 138 0 115.123561 23 115.123561 23 138"></polygon>
                        </g>
                        <g id="编组-28" transform="translate(148.000000, 0.000000)">
                            <polygon id="路径" fill="#F5F5F5" points="0 55.2274764 0 0 23 0 23 55.2274764"></polygon>
                            <polygon id="路径" fill="#E0E0E0" points="0 94.3125933 0 55.2274764 23 55.2274764 23 94.3125933"></polygon>
                            <polygon id="路径" fill="#C2C2C2" points="0 138 0 94.3125933 23 94.3125933 23 138"></polygon>
                        </g>
                        <g id="编组-27" transform="translate(197.000000, 0.000000)">
                            <polygon id="路径" fill="#F5F5F5" points="0 37.6937945 0 0 23 0 23 37.6937945"></polygon>
                            <polygon id="路径" fill="#E0E0E0" points="0 88.5839268 0 37.6937945 23 37.6937945 23 88.5839268"></polygon>
                            <polygon id="路径" fill="#C2C2C2" points="0 138 0 88.5839268 23 88.5839268 23 138"></polygon>
                        </g>
                        <g id="编组-25" transform="translate(247.000000, 0.000000)">
                            <polygon id="路径" fill="#F5F5F5" points="0 99.9768786 0 0 23 0 23 99.9768786"></polygon>
                            <polygon id="路径" fill="#E0E0E0" points="0 116.99422 0 99.9768786 23 99.9768786 23 116.99422"></polygon>
                            <polygon id="路径" fill="#C2C2C2" points="0 138 0 116.99422 23 116.99422 23 138"></polygon>
                        </g>
                        <g id="编组-24" transform="translate(296.000000, 0.000000)">
                            <polygon id="路径" fill="#F5F5F5" points="0 114.805085 0 0 23 0 23 114.805085"></polygon>
                            <polygon id="路径" fill="#E0E0E0" points="0 124.550847 0 114.805085 23 114.805085 23 124.550847"></polygon>
                            <polygon id="路径" fill="#C2C2C2" points="0 138 0 124.550847 23 124.550847 23 138"></polygon>
                        </g>
                    </g>
                </g>
            </g>
        </g>
    </g>
</svg>