<?xml version="1.0" encoding="UTF-8"?>
<svg width="419px" height="122px" viewBox="0 0 419 122" version="1.1" xmlns="http://www.w3.org/2000/svg" xmlns:xlink="http://www.w3.org/1999/xlink">
    <title>进度条</title>
    <g id="页面-1" stroke="none" stroke-width="1" fill="none" fill-rule="evenodd">
        <g id="编组-2" transform="translate(0.000000, -0.000000)">
            <g id="编组备份">
                <path d="M4,28 L361,28 C362.104569,28 363,28.8954305 363,30 L363,38 C363,39.1045695 362.104569,40 361,40 L4,40 L4,40 L4,28 Z" id="路径" fill="#ECECEC" fill-rule="nonzero"></path>
                <path d="M2,28 L119,28 L119,28 L119,40 L2,40 C0.8954305,40 6.35251969e-15,39.1045695 0,38 L0,30 C-1.3527075e-16,28.8954305 0.8954305,28 2,28 Z" id="路径" fill="#C2C2C2" fill-rule="nonzero"></path>
                <text id="45%" font-family="PingFangSC-Medium, PingFang SC" font-size="18" font-weight="400" fill="#C2C2C2">
                    <tspan x="379" y="40">45%</tspan>
                </text>
                <text id="The-order-number1" font-family="PingFangSC-Medium, PingFang SC" font-size="14" font-weight="400" fill="#DCDCDC">
                    <tspan x="0" y="15">The order number1</tspan>
                </text>
            </g>
            <g id="编组备份-2" transform="translate(0.000000, 76.000000)">
                <path d="M4,28 L361,28 C362.104569,28 363,28.8954305 363,30 L363,38 C363,39.1045695 362.104569,40 361,40 L4,40 L4,40 L4,28 Z" id="路径" fill="#ECECEC" fill-rule="nonzero"></path>
                <path d="M2,28 L267.168,28 L267.168,28 L267.168,40 L2,40 C0.8954305,40 1.1237501e-14,39.1045695 0,38 L0,30 C-1.3527075e-16,28.8954305 0.8954305,28 2,28 Z" id="路径" fill="#C2C2C2" fill-rule="nonzero"></path>
                <text id="76%" font-family="PingFangSC-Medium, PingFang SC" font-size="18" font-weight="400" fill="#C2C2C2">
                    <tspan x="379" y="40">76%</tspan>
                </text>
                <text id="The-order-number2" font-family="PingFangSC-Medium, PingFang SC" font-size="14" font-weight="400" fill="#DCDCDC">
                    <tspan x="0" y="15">The order number2</tspan>
                </text>
            </g>
        </g>
    </g>
</svg>