<?xml version="1.0" encoding="UTF-8"?>
<svg width="447px" height="205px" viewBox="0 0 447 205" version="1.1" xmlns="http://www.w3.org/2000/svg" xmlns:xlink="http://www.w3.org/1999/xlink">
    <title>线图</title>
    <defs>
        <rect id="path-1" x="0" y="0" width="8.00022186" height="16"></rect>
        <filter x="-87.5%" y="-31.2%" width="275.0%" height="187.5%" filterUnits="objectBoundingBox" id="filter-2">
            <feOffset dx="0" dy="2" in="SourceAlpha" result="shadowOffsetOuter1"></feOffset>
            <feGaussianBlur stdDeviation="2" in="shadowOffsetOuter1" result="shadowBlurOuter1"></feGaussianBlur>
            <feColorMatrix values="0 0 0 0 0.814113451   0 0 0 0 0.814113451   0 0 0 0 0.814113451  0 0 0 0.5 0" type="matrix" in="shadowBlurOuter1"></feColorMatrix>
        </filter>
        <rect id="path-3" x="0" y="0" width="8.00022186" height="16"></rect>
        <filter x="-87.5%" y="-31.2%" width="275.0%" height="187.5%" filterUnits="objectBoundingBox" id="filter-4">
            <feOffset dx="0" dy="2" in="SourceAlpha" result="shadowOffsetOuter1"></feOffset>
            <feGaussianBlur stdDeviation="2" in="shadowOffsetOuter1" result="shadowBlurOuter1"></feGaussianBlur>
            <feColorMatrix values="0 0 0 0 0.814113451   0 0 0 0 0.814113451   0 0 0 0 0.814113451  0 0 0 0.5 0" type="matrix" in="shadowBlurOuter1"></feColorMatrix>
        </filter>
    </defs>
    <g id="页面-1" stroke="none" stroke-width="1" fill="none" fill-rule="evenodd">
        <g id="编组-89">
            <g id="折线图">
                <line x1="53.4498321" y1="122.585562" x2="442.64545" y2="122.585562" id="路径-11" stroke="#E7E6E6"></line>
                <text id="0118" font-family="PingFangSC-Medium, PingFang SC" font-size="12" font-weight="400" fill="#E0E0E0">
                    <tspan x="47.9133742" y="142.714341">0118</tspan>
                </text>
                <text id="0" font-family="PingFangSC-Medium, PingFang SC" font-size="12" font-weight="400" line-spacing="12" fill="#E0E0E0">
                    <tspan x="38.9319369" y="128.748373">0</tspan>
                </text>
                <text id="25" font-family="PingFangSC-Medium, PingFang SC" font-size="12" font-weight="400" line-spacing="12" fill="#E0E0E0">
                    <tspan x="31.9463745" y="105.795811">25</tspan>
                </text>
                <text id="300" font-family="PingFangSC-Medium, PingFang SC" font-size="12" font-weight="400" line-spacing="12" fill="#E0E0E0">
                    <tspan x="24.9608122" y="81.8453112">300</tspan>
                </text>
                <text id="400" font-family="PingFangSC-Medium, PingFang SC" font-size="12" font-weight="400" line-spacing="12" fill="#E0E0E0">
                    <tspan x="24.9608122" y="57.8948116">400</tspan>
                </text>
                <text id="500" font-family="PingFangSC-Medium, PingFang SC" font-size="12" font-weight="400" line-spacing="12" fill="#E0E0E0">
                    <tspan x="24.9608122" y="33.944312">500</tspan>
                </text>
                <g id="编组-5" transform="translate(173.653497, 0.000000)">
                    <text id="Order-quantity" font-family="PingFangSC-Medium, PingFang SC" font-size="12" font-weight="400" line-spacing="12" fill="#E0E0E0">
                        <tspan x="11.9752498" y="13">Order quantity</tspan>
                    </text>
                    <rect id="矩形" fill="#C2C2C2" x="0" y="5" width="5.98762489" height="2"></rect>
                </g>
                <text id="Transport-date（day）" font-family="PingFangSC-Medium, PingFang SC" font-size="12" font-weight="400" line-spacing="12" fill="#E0E0E0">
                    <tspan x="184.812863" y="167.831681">Transport date（day）</tspan>
                </text>
                <text id="order-quantity" transform="translate(6.000000, 68.778265) rotate(-90.000000) translate(-6.000000, -68.778265) " font-family="PingFangSC-Medium, PingFang SC" font-size="12" font-weight="400" line-spacing="12" fill="#E0E0E0">
                    <tspan x="-34" y="75.7782651">order quantity</tspan>
                </text>
                <text id="0124" font-family="PingFangSC-Medium, PingFang SC" font-size="12" font-weight="400" fill="#E0E0E0">
                    <tspan x="109.757849" y="142.724599">0124</tspan>
                </text>
                <text id="0130" font-family="PingFangSC-Medium, PingFang SC" font-size="12" font-weight="400" fill="#E0E0E0">
                    <tspan x="171.501986" y="142.724599">0130</tspan>
                </text>
                <text id="0205" font-family="PingFangSC-Medium, PingFang SC" font-size="12" font-weight="400" fill="#E0E0E0">
                    <tspan x="233.246123" y="142.724599">0205</tspan>
                </text>
                <text id="0211" font-family="PingFangSC-Medium, PingFang SC" font-size="12" font-weight="400" fill="#E0E0E0">
                    <tspan x="293.990231" y="142.724599">0211</tspan>
                </text>
                <text id="0217" font-family="PingFangSC-Medium, PingFang SC" font-size="12" font-weight="400" fill="#E0E0E0">
                    <tspan x="355.734368" y="142.724599">0217</tspan>
                </text>
                <text id="0222" font-family="PingFangSC-Medium, PingFang SC" font-size="12" font-weight="400" fill="#E0E0E0">
                    <tspan x="417.478504" y="142.724599">0222</tspan>
                </text>
                <polyline id="路径-29" stroke="#C9C9C9" stroke-width="2" points="69.5143092 112.162632 130.145165 52.1831848 191.421029 86.5087721 252.696894 43.5114575 313.972758 41.3922566 375.248623 30.5038666 436.524487 60.4935902"></polyline>
                <ellipse id="椭圆形" stroke="#C9C9C9" fill="#FFFFFF" cx="69.0142953" cy="112.775305" rx="2.5000832" ry="2.49403464"></ellipse>
                <ellipse id="椭圆形备份" stroke="#C9C9C9" fill="#FFFFFF" cx="130.015987" cy="51.8966005" rx="2.5000832" ry="2.49403464"></ellipse>
                <ellipse id="椭圆形备份-2" stroke="#C9C9C9" fill="#FFFFFF" cx="192.017706" cy="85.8289931" rx="2.5000832" ry="2.49403464"></ellipse>
                <ellipse id="椭圆形备份-3" stroke="#C9C9C9" fill="#FFFFFF" cx="252.01937" cy="42.9144966" rx="2.5000832" ry="2.49403464"></ellipse>
                <ellipse id="椭圆形备份-4" stroke="#C9C9C9" fill="#FFFFFF" cx="375.022782" cy="30.938358" rx="2.5000832" ry="2.49403464"></ellipse>
                <ellipse id="椭圆形备份-5" stroke="#C9C9C9" fill="#FFFFFF" cx="310.020979" cy="41.916485" rx="2.5000832" ry="2.49403464"></ellipse>
                <ellipse id="椭圆形备份-6" stroke="#C9C9C9" fill="#FFFFFF" cx="435.024445" cy="59.8806929" rx="2.5000832" ry="2.49403464"></ellipse>
            </g>
            <g id="滑块" transform="translate(55.007046, 176.000000)">
                <rect id="矩形" fill="#F9F9F9" x="3.0000832" y="0" width="382.010594" height="28"></rect>
                <rect id="矩形" fill="#F4F4F4" x="3.0000832" y="0" width="164.004548" height="28"></rect>
                <path d="M4.00281347,19.6753845 C4.00281347,19.6753845 31.436631,21.631727 42.6133715,20.3746679 C53.790112,19.1176088 62.9347178,15.9230756 80.2078622,16.7178764 C97.4810066,17.5126773 105.609545,18.7626606 118.81842,17.0728246 C132.027295,15.3829885 134.106223,11.9644016 155.928274,11.9644016 C172.669988,11.9644017 180.798527,18.0527644 194.007402,18.0527644 C207.216277,18.0527644 215.892957,14.5669619 230.859896,14.5669615 C245.826835,14.5669612 252.939306,12.7285427 269.196383,12.7285426 C294.598066,12.7285427 291.549864,9.53400914 307.806941,9.17906109 C324.064018,8.82411304 334.224691,12.3735942 345.401432,12.3735943 C356.578172,12.3735944 359.626374,6.69442417 382.995923,8.82411299 C382.995925,20.3746685 382.995923,28.3462604 382.995923,28.3462604 L4.00145145,28.3462604 L4.00281347,19.6753845 Z" id="Shape" fill="#EFEFEF"></path>
                <path d="M4.00281347,19.6753845 C4.00281347,19.6753845 31.436631,21.631727 42.6133715,20.3746679 C53.790112,19.1176088 62.9347178,15.9230756 80.2078622,16.7178764 C97.4810066,17.5126773 105.609545,18.7626606 118.81842,17.0728246 C132.027295,15.3829885 134.106223,11.9644016 155.928274,11.9644016 C172.669988,11.9644017 180.798527,18.0527644 194.007402,18.0527644 C207.216277,18.0527644 215.892957,14.5669619 230.859896,14.5669615 C245.826835,14.5669612 252.939306,12.7285427 269.196383,12.7285426 C294.598066,12.7285427 291.549864,9.53400914 307.806941,9.17906109 C324.064018,8.82411304 334.224691,12.3735942 345.401432,12.3735943 C356.578172,12.3735944 360.642442,6.69442417 384.01199,8.82411299" id="Shape" stroke="#C9C9C9"></path>
                <rect id="矩形" fill="#ECEBEB" x="3.0000832" y="0" width="2.00005547" height="28"></rect>
                <rect id="矩形备份-4" fill="#ECEBEB" x="166.004604" y="0" width="2.00005547" height="28"></rect>
                <g id="块" transform="translate(0.000000, 6.000000)">
                    <g id="矩形">
                        <use fill="black" fill-opacity="1" filter="url(#filter-2)" xlink:href="#path-1"></use>
                        <use fill="#FFFFFF" fill-rule="evenodd" xlink:href="#path-1"></use>
                    </g>
                    <rect id="矩形" fill="#EAEAEA" x="2.00005547" y="5" width="1.00002773" height="6"></rect>
                    <rect id="矩形备份-3" fill="#EAEAEA" x="5.00013866" y="5" width="1.00002773" height="6"></rect>
                </g>
                <g id="块备份" transform="translate(163.004520, 6.000000)">
                    <g id="矩形">
                        <use fill="black" fill-opacity="1" filter="url(#filter-4)" xlink:href="#path-3"></use>
                        <use fill="#FFFFFF" fill-rule="evenodd" xlink:href="#path-3"></use>
                    </g>
                    <rect id="矩形" fill="#EAEAEA" x="2.00005547" y="5" width="1.00002773" height="6"></rect>
                    <rect id="矩形备份-3" fill="#EAEAEA" x="5.00013866" y="5" width="1.00002773" height="6"></rect>
                </g>
                <rect id="矩形备份-2" fill="#ECEBEB" x="383.010622" y="0" width="2.00005547" height="28"></rect>
            </g>
        </g>
    </g>
</svg>