<?xml version="1.0" encoding="UTF-8"?>
<svg width="421px" height="221px" viewBox="0 0 421 221" version="1.1" xmlns="http://www.w3.org/2000/svg" xmlns:xlink="http://www.w3.org/1999/xlink">
    <title>分面散点图</title>
    <g id="页面-1" stroke="none" stroke-width="1" fill="none" fill-rule="evenodd">
        <g id="编组-103">
            <polygon id="路径备份-3" fill-opacity="0" fill="#FFFFFF" fill-rule="nonzero" points="21.0455292 0 421 0 421 211.30158 21.0455292 211.30158"></polygon>
            <g id="编组备份-5" transform="translate(64.803286, 178.000000)">
                <line x1="0" y1="0.355128705" x2="342.991089" y2="0.355128705" id="路径" stroke="#ECECEC"></line>
                <g id="编组" transform="translate(6.577857, 6.457572)" fill="#E0E0E0" fill-rule="nonzero" font-family="Helvetica" font-size="12" font-weight="normal">
                    <text id="98.94w">
                        <tspan x="0" y="11.0093947">98.94w</tspan>
                    </text>
                    <text id="197w">
                        <tspan x="79.13672" y="11.0093947">197w</tspan>
                    </text>
                    <text id="295.5w">
                        <tspan x="148.224333" y="11.0093947">295.5w</tspan>
                    </text>
                    <text id="394w">
                        <tspan x="227.361053" y="11.0093947">394w</tspan>
                    </text>
                    <text id="492.5w">
                        <tspan x="296.448666" y="11.0093947">492.5w</tspan>
                    </text>
                </g>
            </g>
            <g id="编组-112" transform="translate(30.570335, 37.959089)" fill="#DCDCDC" fill-rule="nonzero" font-family="Helvetica" font-weight="normal">
                <text id="0" font-size="12">
                    <tspan x="22.4478944" y="139.089495">0</tspan>
                </text>
                <text id="2.739W" font-size="10">
                    <tspan x="0" y="86.5628479">2.739W</tspan>
                </text>
                <text id="1.369W" font-size="10">
                    <tspan x="0.339858342" y="112.08595">1.369W</tspan>
                </text>
                <text id="4.108W" font-size="10">
                    <tspan x="0" y="61.0397454">4.108W</tspan>
                </text>
                <text id="6.847W" font-size="10">
                    <tspan x="0" y="9.99354042">6.847W</tspan>
                </text>
                <text id="5.478W" font-size="10">
                    <tspan x="0" y="35.5166429">5.478W</tspan>
                </text>
            </g>
            <text id="Order-amount" fill-rule="nonzero" font-family="Helvetica" font-size="12" font-weight="normal" fill="#DCDCDC">
                <tspan x="198.438868" y="218">Order amount</tspan>
            </text>
            <text id="Order-amount" fill-rule="nonzero" transform="translate(7.033452, 109.000000) scale(-1, -1) rotate(90.000000) translate(-7.033452, -109.000000) " font-family="Helvetica" font-size="12" font-weight="normal" fill="#E0E0E0">
                <tspan x="-30.6507007" y="113">Order amount</tspan>
            </text>
            <g id="编组-37备份-2" transform="translate(120.531692, 7.000919)" fill-rule="nonzero">
                <g id="编组-54">
                    <g id="编组-32" transform="translate(63.309376, 0.000000)">
                        <path d="M2.85802197,4.00536842 C4.43646391,4.00536842 5.71604393,5.28494844 5.71604393,6.86339039 L5.71604393,7.10223047 C5.71604393,8.68067242 4.43646391,9.96025244 2.85802197,9.96025244 C1.27958002,9.96025244 6.37392598e-16,8.68067242 0,7.10223047 L0,6.86339039 C-1.93303388e-16,5.28494844 1.27958002,4.00536842 2.85802197,4.00536842 Z" id="路径" fill-opacity="0.85" fill="#ECECEC"></path>
                        <text id="lndex2" font-family="Helvetica" font-size="12" font-weight="normal" fill="#E0E0E0">
                            <tspan x="11.054018" y="11.0093947">lndex2</tspan>
                        </text>
                    </g>
                    <g id="编组-32备份">
                        <path d="M2.85802197,4.00536842 C4.43646391,4.00536842 5.71604393,5.28494844 5.71604393,6.86339039 L5.71604393,7.10223047 C5.71604393,8.68067242 4.43646391,9.96025244 2.85802197,9.96025244 C1.27958002,9.96025244 1.93303388e-16,8.68067242 0,7.10223047 L0,6.86339039 C-1.93303388e-16,5.28494844 1.27958002,4.00536842 2.85802197,4.00536842 Z" id="路径" fill-opacity="0.85" fill="#ECECEC"></path>
                        <text id="lndex1" font-family="Helvetica" font-size="12" font-weight="normal" fill="#E0E0E0">
                            <tspan x="11.054018" y="11.0093947">lndex1</tspan>
                        </text>
                    </g>
                    <g id="编组-26" transform="translate(126.618752, 0.000000)">
                        <path d="M2.85802197,4.00536842 C4.43646391,4.00536842 5.71604393,5.28494844 5.71604393,6.86339039 L5.71604393,7.10223047 C5.71604393,8.68067242 4.43646391,9.96025244 2.85802197,9.96025244 C1.27958002,9.96025244 -2.50785822e-16,8.68067242 0,7.10223047 L0,6.86339039 C-6.37392598e-16,5.28494844 1.27958002,4.00536842 2.85802197,4.00536842 Z" id="路径" fill-opacity="0.85" fill="#C2C2C2"></path>
                        <text id="lndex3" font-family="Helvetica" font-size="12" font-weight="normal" fill="#E0E0E0">
                            <tspan x="11.054018" y="11.0093947">lndex3</tspan>
                        </text>
                    </g>
                </g>
            </g>
            <path d="M253.930632,134.536902 C253.930632,136.974086 255.915251,138.949815 258.363402,138.949815 C260.811553,138.949815 262.796171,136.974086 262.796171,134.536902 C262.796171,132.099717 260.811553,130.123988 258.363402,130.123988 C255.915251,130.123988 253.930632,132.099717 253.930632,134.536902" id="路径备份-4" fill="#CBCBCB" fill-rule="nonzero" opacity="0.65"></path>
            <path d="M324.376054,62.4766013 C324.376054,64.9137861 326.360673,66.8895147 328.808823,66.8895147 C331.256974,66.8895147 333.241593,64.9137861 333.241593,62.4766013 C333.241593,60.0394166 331.256974,58.063688 328.808823,58.063688 C326.360673,58.063688 324.376054,60.0394166 324.376054,62.4766013" id="路径备份-5" fill="#EFEFEF" fill-rule="nonzero" opacity="0.65"></path>
            <path d="M286.260657,93.249133 C286.260657,95.6863178 288.245275,97.6620464 290.693426,97.6620464 C293.141577,97.6620464 295.126195,95.6863178 295.126195,93.249133 C295.126195,90.8119483 293.141577,88.8362197 290.693426,88.8362197 C288.245275,88.8362197 286.260657,90.8119483 286.260657,93.249133" id="路径备份-6" fill="#CBCBCB" fill-rule="nonzero" opacity="0.65"></path>
            <path d="M394.140844,66.9610406 C394.140844,69.3982254 396.125462,71.373954 398.573613,71.373954 C401.021764,71.373954 403.006382,69.3982254 403.006382,66.9610406 C403.006382,64.5238559 401.021764,62.5481273 398.573613,62.5481273 C396.125462,62.5481273 394.140844,64.5238559 394.140844,66.9610406" id="路径备份-7" fill="#EFEFEF" fill-rule="nonzero" opacity="0.65"></path>
            <path d="M87.1757694,156.804462 C87.1757694,159.241647 89.1603878,161.217376 91.6085386,161.217376 C94.0566895,161.217376 96.0413079,159.241647 96.0413079,156.804462 C96.0413079,154.367278 94.0566895,152.391549 91.6085386,152.391549 C89.1603878,152.391549 87.1757694,154.367278 87.1757694,156.804462" id="路径备份-8" fill="#CBCBCB" fill-rule="nonzero" opacity="0.65"></path>
            <path d="M266.48642,111.631622 C266.48642,114.068807 268.471038,116.044535 270.919189,116.044535 C273.36734,116.044535 275.351958,114.068807 275.351958,111.631622 C275.351958,109.194437 273.36734,107.218709 270.919189,107.218709 C268.471038,107.218709 266.48642,109.194437 266.48642,111.631622" id="路径备份-9" fill="#EFEFEF" fill-rule="nonzero" opacity="0.65"></path>
            <path d="M190.291532,130.052462 C190.291532,132.489647 192.27615,134.465376 194.724301,134.465376 C197.172452,134.465376 199.15707,132.489647 199.15707,130.052462 C199.15707,127.615278 197.172452,125.639549 194.724301,125.639549 C192.27615,125.639549 190.291532,127.615278 190.291532,130.052462" id="路径备份-10" fill="#EFEFEF" fill-rule="nonzero" opacity="0.65"></path>
            <path d="M131.076539,146.598497 C131.076539,149.035682 133.061158,151.01141 135.509309,151.01141 C137.95746,151.01141 139.942078,149.035682 139.942078,146.598497 C139.942078,144.161312 137.95746,142.185584 135.509309,142.185584 C133.061158,142.185584 131.076539,144.161312 131.076539,146.598497" id="路径备份-16" fill="#EFEFEF" fill-rule="nonzero" opacity="0.65"></path>
            <path d="M314.166573,106.857087 C314.166573,109.294272 316.151191,111.27 318.599342,111.27 C321.047493,111.27 323.032111,109.294272 323.032111,106.857087 C323.032111,104.419902 321.047493,102.444173 318.599342,102.444173 C316.151191,102.444173 314.166573,104.419902 314.166573,106.857087" id="路径备份-17" fill="#CBCBCB" fill-rule="nonzero" opacity="0.65"></path>
            <path d="M338.572845,37.4465514 C338.572845,39.8837361 340.557464,41.8594647 343.005615,41.8594647 C345.453766,41.8594647 347.438384,39.8837361 347.438384,37.4465514 C347.438384,35.0093666 345.453766,33.033638 343.005615,33.033638 C340.557464,33.033638 338.572845,35.0093666 338.572845,37.4465514" id="路径备份-18" fill="#CBCBCB" fill-rule="nonzero" opacity="0.65"></path>
            <path d="M294.736483,105.846952 C294.736483,108.284137 296.721102,110.259865 299.169253,110.259865 C301.617403,110.259865 303.602022,108.284137 303.602022,105.846952 C303.602022,103.409767 301.617403,101.434039 299.169253,101.434039 C296.721102,101.434039 294.736483,103.409767 294.736483,105.846952" id="路径备份-19" fill="#CBCBCB" fill-rule="nonzero" opacity="0.65"></path>
            <path d="M266.522326,114.588879 C266.522326,117.026063 268.506945,119.001792 270.955095,119.001792 C273.403246,119.001792 275.387865,117.026063 275.387865,114.588879 C275.387865,112.151694 273.403246,110.175965 270.955095,110.175965 C268.506945,110.175965 266.522326,112.151694 266.522326,114.588879" id="路径备份-20" fill="#DDDDDD" fill-rule="nonzero" opacity="0.65"></path>
            <path d="M318.930997,84.5895261 C318.930997,87.0267109 320.915616,89.0024395 323.363767,89.0024395 C325.811918,89.0024395 327.796536,87.0267109 327.796536,84.5895261 C327.796536,82.1523414 325.811918,80.1766128 323.363767,80.1766128 C320.915616,80.1766128 318.930997,82.1523414 318.930997,84.5895261" id="路径备份-21" fill="#EFEFEF" fill-rule="nonzero" opacity="0.65"></path>
            <path d="M314.166573,56.6004395 C314.166573,59.0376242 316.151191,61.0133528 318.599342,61.0133528 C321.047493,61.0133528 323.032111,59.0376242 323.032111,56.6004395 C323.032111,54.1632548 321.047493,52.1875262 318.599342,52.1875262 C316.151191,52.1875262 314.166573,54.1632548 314.166573,56.6004395" id="路径备份-22" fill="#CBCBCB" fill-rule="nonzero" opacity="0.65"></path>
            <path d="M157.579765,141.599565 C157.579765,144.03675 159.564384,146.012479 162.012535,146.012479 C164.460686,146.012479 166.445304,144.03675 166.445304,141.599565 C166.445304,139.162381 164.460686,137.186652 162.012535,137.186652 C159.564384,137.186652 157.579765,139.162381 157.579765,141.599565" id="路径备份-32" fill="#CBCBCB" fill-rule="nonzero" opacity="0.65"></path>
            <path d="M403.090265,99.5892024 C403.090265,102.026387 405.074883,104.002116 407.523034,104.002116 C409.971185,104.002116 411.955803,102.026387 411.955803,99.5892024 C411.955803,97.1520177 409.971185,95.1762891 407.523034,95.1762891 C405.074883,95.1762891 403.090265,97.1520177 403.090265,99.5892024" id="路径备份-50" fill="#CBCBCB" fill-rule="nonzero" opacity="0.65"></path>
            <path d="M329.480795,61.5487863 C329.480795,63.985971 331.465413,65.9616996 333.913564,65.9616996 C336.361715,65.9616996 338.346333,63.985971 338.346333,61.5487863 C338.346333,59.1116016 336.361715,57.135873 333.913564,57.135873 C331.465413,57.135873 329.480795,59.1116016 329.480795,61.5487863" id="路径备份-51" fill="#CBCBCB" fill-rule="nonzero" opacity="0.65"></path>
            <path d="M220.57966,139.79452 C220.57966,142.231705 222.564278,144.207434 225.012429,144.207434 C227.46058,144.207434 229.445198,142.231705 229.445198,139.79452 C229.445198,137.357335 227.46058,135.381607 225.012429,135.381607 C222.564278,135.381607 220.57966,137.357335 220.57966,139.79452" id="路径备份-52" fill="#EFEFEF" fill-rule="nonzero" opacity="0.65"></path>
            <path d="M69.819651,166.391884 C69.819651,168.829069 71.8042694,170.804798 74.2524202,170.804798 C76.7005711,170.804798 78.6851895,168.829069 78.6851895,166.391884 C78.6851895,163.9547 76.7005711,161.978971 74.2524202,161.978971 C71.8042694,161.978971 69.819651,163.9547 69.819651,166.391884" id="路径备份-53" fill="#CBCBCB" fill-rule="nonzero" opacity="0.65"></path>
            <path d="M112.018841,144.299915 C112.018841,146.7371 114.003459,148.712829 116.45161,148.712829 C118.899761,148.712829 120.884379,146.7371 120.884379,144.299915 C120.884379,141.862731 118.899761,139.887002 116.45161,139.887002 C114.003459,139.887002 112.018841,141.862731 112.018841,144.299915" id="路径备份-54" fill="#EFEFEF" fill-rule="nonzero" opacity="0.65"></path>
            <path d="M359.088291,57.3736187 C359.088291,59.8108034 361.072909,61.786532 363.52106,61.786532 C365.969211,61.786532 367.95383,59.8108034 367.95383,57.3736187 C367.95383,54.936434 365.969211,52.9607054 363.52106,52.9607054 C361.072909,52.9607054 359.088291,54.936434 359.088291,57.3736187" id="路径备份-55" fill="#F4F4F4" fill-rule="nonzero" opacity="0.65"></path>
        </g>
    </g>
</svg>