<?xml version="1.0" encoding="UTF-8"?>
<svg width="205px" height="234px" viewBox="0 0 205 234" version="1.1" xmlns="http://www.w3.org/2000/svg" xmlns:xlink="http://www.w3.org/1999/xlink">
    <title>仪表盘</title>
    <defs>
        <path d="M17.9714312,118.811384 C18.1166985,119.062787 18.0537894,119.377336 17.8361187,119.555398 L17.7575416,119.609632 L12.0160797,122.921732 C11.7363697,123.083089 11.3788191,122.987284 11.2172618,122.707689 C11.0719945,122.456287 11.1349037,122.141738 11.3525744,121.963676 L11.43079,121.909651 C11.4309104,121.909581 11.4310309,121.909512 11.4311515,121.909442 L14.6636271,120.044711 L17.1726134,118.597342 C17.4523233,118.435984 17.809874,118.53179 17.9714312,118.811384 Z M145.827387,117.597342 L151.568849,120.909442 C151.8483,121.070651 151.944155,121.427876 151.782947,121.707328 C151.621181,121.987284 151.26363,122.083089 150.98392,121.921732 L147.751445,120.057001 L145.242458,118.609632 C144.990952,118.464544 144.888159,118.160682 144.987636,117.897641 L145.028569,117.811384 C145.190126,117.53179 145.547677,117.435984 145.827387,117.597342 Z M13.671459,117.468107 C13.8078608,117.72443 13.7340073,118.036592 13.5102509,118.206946 L13.4301962,118.258208 C13.4300786,118.258271 13.429961,118.258333 13.4298434,118.258396 L10.3306011,119.904933 C10.045442,120.05643 9.69146291,119.948207 9.53977118,119.663152 C9.40336931,119.406829 9.47722289,119.094667 9.70097928,118.924312 L9.78138674,118.872863 L11.5522958,117.93203 L12.8806291,117.226326 C13.1657881,117.074829 13.5197672,117.183051 13.671459,117.468107 Z M150.119371,117.226326 L153.218613,118.872863 C153.50352,119.024226 153.611779,119.377892 153.460416,119.662799 C153.308537,119.948207 152.954558,120.05643 152.669399,119.904933 L150.89849,118.9641 L149.570157,118.258396 C149.31374,118.122169 149.200409,117.822077 149.29065,117.555723 L149.328541,117.468107 L149.328541,117.468107 C149.480233,117.183051 149.834212,117.074829 150.119371,117.226326 Z M12.4541253,115.080925 C12.5814955,115.341857 12.4967865,115.651254 12.2672159,115.813694 L12.185078,115.862296 L12.185078,115.862296 L9.03016389,117.399781 C8.73990343,117.541234 8.38992665,117.420727 8.24828523,117.130559 C8.10676282,116.840634 8.22706657,116.490877 8.51699118,116.349355 L8.51733257,116.349188 L10.320049,115.47067 L11.6722466,114.811703 C11.9625071,114.67025 12.3124839,114.790757 12.4541253,115.080925 Z M151.327753,114.811703 L154.482667,116.349188 C154.743682,116.476389 154.867414,116.772348 154.786518,117.04169 L154.751798,117.130388 C154.610073,117.420727 154.260097,117.541234 153.969836,117.399781 L152.16712,116.521263 L150.814922,115.862296 C150.524905,115.720962 150.404374,115.371283 150.545708,115.081267 L150.545875,115.080925 C150.687516,114.790757 151.037493,114.67025 151.327753,114.811703 Z M152.451062,112.356416 L155.657803,113.782971 C155.9231,113.900991 156.057082,114.19246 155.985629,114.464463 L155.9541,114.554146 C155.954052,114.554255 155.954003,114.554364 155.953955,114.554473 C155.822536,114.849401 155.476988,114.982044 155.181979,114.850807 L153.349652,114.035675 L151.975238,113.424251 C151.680464,113.293117 151.547807,112.947851 151.678941,112.653076 L151.679087,112.652749 C151.810505,112.357821 152.156054,112.225178 152.451062,112.356416 Z M11.3209134,112.652749 C11.4522279,112.947443 11.3197827,113.292791 11.0250888,113.424105 L11.0247616,113.424251 L7.81802052,114.850807 C7.52301239,114.982044 7.17746382,114.849401 7.0460452,114.554473 C6.91473072,114.259779 7.0471759,113.914431 7.34186979,113.783117 L7.34219703,113.782971 L9.17452402,112.967839 L10.5489381,112.356416 C10.8439462,112.225178 11.1894948,112.357821 11.3209134,112.652749 Z M153.487928,109.863455 L156.742588,111.177338 C157.011845,111.286035 157.155914,111.572658 157.093991,111.846994 L157.06561,111.937723 C157.065568,111.937827 157.065526,111.93793 157.065484,111.938034 C156.944448,112.237361 156.603748,112.38198 156.304352,112.261115 L154.444648,111.510366 L153.049692,110.947232 C152.780435,110.838535 152.636366,110.551912 152.698289,110.277576 L152.726796,110.186536 L152.726796,110.186536 C152.847832,109.887209 153.188532,109.74259 153.487928,109.863455 Z M10.2732039,110.186536 C10.3820555,110.455731 10.2759551,110.758471 10.0355987,110.904497 L9.95030771,110.947232 L9.95030771,110.947232 L6.69564802,112.261115 C6.3962516,112.38198 6.05555168,112.237361 5.93451585,111.938034 C5.8256643,111.668839 5.93176466,111.366099 6.17212106,111.220073 L6.25741208,111.177338 L6.25741208,111.177338 L8.11711648,110.426588 L9.51207177,109.863455 C9.81146819,109.74259 10.1521681,109.887209 10.2732039,110.186536 Z M9.31227333,107.685291 C9.41166031,107.958129 9.29504997,108.256986 9.04973505,108.394533 L8.96302516,108.434256 L8.96302516,108.434256 L5.66441406,109.633862 C5.36099394,109.744207 5.02555713,109.58779 4.91505141,109.284429 C4.81566443,109.011591 4.93227477,108.712733 5.17758969,108.575187 L5.26429958,108.535463 L5.26429958,108.535463 L7.14911469,107.850013 L8.56291068,107.335857 C8.8663308,107.225513 9.20176761,107.381929 9.31227333,107.685291 Z M154.437089,107.335857 L157.7357,108.535463 C158.008591,108.634706 158.162573,108.916136 158.110255,109.192471 L158.085055,109.284138 C158.085019,109.284235 158.084984,109.284332 158.084949,109.284429 C157.974443,109.58779 157.639006,109.744207 157.335586,109.633862 L155.450771,108.948411 L154.036975,108.434256 C153.764084,108.335014 153.610102,108.053584 153.66242,107.777248 L153.687727,107.685291 L153.687727,107.685291 C153.798232,107.381929 154.133669,107.225513 154.437089,107.335857 Z M8.43929236,105.152061 C8.52909309,105.428212 8.40211362,105.722822 8.15213801,105.851721 L8.06411655,105.888385 L8.06411655,105.888385 L4.72557525,106.972248 C4.41850078,107.071941 4.08873509,106.903917 3.98889392,106.596891 C3.89909319,106.32074 4.02607265,106.02613 4.27604827,105.89723 L4.36380025,105.860654 C4.36389007,105.860625 4.36397989,105.860596 4.36406972,105.860567 L6.271698,105.241252 L7.70261103,104.776703 C8.0096855,104.677011 8.33945118,104.845035 8.43929236,105.152061 Z M155.297389,104.776703 L158.63593,105.860567 C158.942812,105.960196 159.110823,106.289739 159.011194,106.596621 C158.911265,106.903917 158.581499,107.071941 158.274425,106.972248 L156.366796,106.352934 L154.935883,105.888385 C154.65969,105.798719 154.495981,105.522822 154.538632,105.244823 L154.560708,105.152061 L154.560708,105.152061 C154.660549,104.845035 154.990314,104.677011 155.297389,104.776703 Z M7.6553246,102.589933 C7.73542899,102.86906 7.59823385,103.159066 7.34390107,103.27916 L7.25467688,103.312721 L7.25467688,103.312721 L3.88027564,104.279517 C3.56992047,104.368436 3.24622699,104.18901 3.15717178,103.878694 C3.07706739,103.599567 3.21426253,103.309562 3.46859531,103.189467 L3.55781949,103.155906 L3.55781949,103.155906 L5.4859354,102.603484 L6.93222074,102.18911 C7.2425759,102.100191 7.56626939,102.279617 7.6553246,102.589933 Z M156.067779,102.18911 L159.442181,103.155906 C159.75236,103.244775 159.931768,103.568269 159.842899,103.878448 C159.753773,104.18901 159.43008,104.368436 159.119724,104.279517 L157.191608,103.727095 L155.745323,103.312721 C155.466161,103.232739 155.292925,102.962711 155.325855,102.683384 L155.344605,102.590179 C155.344628,102.590097 155.344652,102.590015 155.344675,102.589933 C155.433731,102.279617 155.757424,102.100191 156.067779,102.18911 Z M6.9613252,100.002029 C7.03163487,100.283793 6.88438992,100.56884 6.62600891,100.679983 L6.53569213,100.710401 L6.53569213,100.710401 L3.12954527,101.558948 C2.81628696,101.636988 2.4990593,101.446378 2.42089831,101.13315 C2.35058864,100.851386 2.49783358,100.566339 2.7562146,100.455196 L2.84653138,100.424778 L2.84653138,100.424778 L4.79278424,99.9399228 L6.25267824,99.5762305 C6.56593655,99.4981909 6.88316421,99.6888005 6.9613252,100.002029 Z M156.747322,99.5762305 L160.153469,100.424778 C160.46657,100.502778 160.657157,100.819829 160.579156,101.132931 L160.579129,101.133041 C160.500941,101.446378 160.183713,101.636988 159.870455,101.558948 L157.924202,101.074093 L156.464308,100.710401 C156.182517,100.6402 155.999962,100.376369 156.023131,100.096054 L156.038675,100.002029 L156.038675,100.002029 C156.116836,99.6888005 156.434063,99.4981909 156.747322,99.5762305 Z M6.3581397,97.3915 C6.41856812,97.6755589 6.26145147,97.9553008 5.99933614,98.0573556 L5.9080381,98.0845958 L5.9080381,98.0845958 L2.47429898,98.8138576 C2.15851846,98.8809234 1.84814238,98.6793629 1.78097054,98.3636049 C1.72054211,98.079546 1.87765877,97.7998041 2.1397741,97.6977493 L2.23088033,97.6705499 C2.23094427,97.6705363 2.2310082,97.6705227 2.23107214,97.6705091 L4.193089,97.2538135 L5.66481126,96.9412473 C5.98059178,96.8741815 6.29096786,97.075742 6.3581397,97.3915 Z M157.335189,96.9412473 L160.768928,97.6705091 C161.084571,97.7375459 161.286107,98.0477695 161.21907,98.3634131 C161.151858,98.6793629 160.841482,98.8809234 160.525701,98.8138576 L158.563684,98.397162 L157.091962,98.0845958 C156.807883,98.0242627 156.616231,97.7669482 156.629611,97.4859845 L156.64186,97.3915 L156.64186,97.3915 C156.709032,97.075742 157.019408,96.8741815 157.335189,96.9412473 Z M5.84650297,94.7615283 C5.89697559,95.0475366 5.73017737,95.321632 5.46464626,95.4144738 L5.37247932,95.4385043 L5.37247932,95.4385043 L1.91533523,96.0475893 C1.5974164,96.1036007 1.29426928,95.8913348 1.23816813,95.5734318 C1.18769551,95.2874235 1.35449373,95.0133281 1.62002485,94.9204863 L1.71219178,94.8964558 L1.71219178,94.8964558 L3.68758032,94.5484288 L5.16933588,94.2873708 C5.4872547,94.2313594 5.79040182,94.4436253 5.84650297,94.7615283 Z M157.830664,94.2873708 L161.287808,94.8964558 C161.605611,94.9524468 161.817852,95.2554666 161.761861,95.5732694 C161.705731,95.8913348 161.402584,96.1036007 161.084665,96.0475893 L159.109276,95.6995623 L157.627521,95.4385043 C157.341498,95.3881124 157.140981,95.1376272 157.144555,94.8563558 L157.153497,94.7615283 L157.153497,94.7615283 C157.209598,94.4436253 157.512745,94.2313594 157.830664,94.2873708 Z M5.42703838,92.1153175 C5.46749268,92.4029274 5.29121485,92.671042 5.02259075,92.7545569 L4.92966817,92.7753501 L4.92966817,92.7753501 L1.45333516,93.2635139 C1.13366444,93.3084036 0.838114837,93.085691 0.793152398,92.7660305 C0.748203178,92.446464 0.970824486,92.1509656 1.29039101,92.1060164 L1.29052261,92.1059979 L3.2768741,91.8270647 L4.76685562,91.6178341 C5.08652634,91.5729444 5.38207595,91.795657 5.42703838,92.1153175 Z M158.233144,91.6178341 L161.709477,92.1059979 C162.029054,92.1508744 162.251743,92.4463222 162.206866,92.7658989 L162.206848,92.7660305 C162.161885,93.085691 161.866336,93.3084036 161.546665,93.2635139 L159.560313,92.9845807 L158.070332,92.7753501 C157.782713,92.7349612 157.573573,92.4916097 157.567336,92.2103718 L157.572962,92.1153175 L157.572962,92.1153175 C157.617924,91.795657 157.913474,91.5729444 158.233144,91.6178341 Z M5.10025698,89.4560917 C5.13064261,89.7449532 4.9450987,90.0067601 4.67370827,90.0808453 L4.58014403,90.0983777 L4.58014403,90.0983777 L1.08886178,90.4650236 C0.767827597,90.4987379 0.480234824,90.2658498 0.446465527,89.9448214 C0.416079901,89.65596 0.601623807,89.394153 0.873014242,89.3200679 L0.966578481,89.3025354 L0.966578481,89.3025354 L2.9614707,89.0930367 L4.45786073,88.9358895 C4.77889491,88.9021753 5.06648768,89.1350633 5.10025698,89.4560917 Z M158.542139,88.9358895 L162.033422,89.3025354 C162.354385,89.3362421 162.587252,89.6237588 162.553545,89.9447217 C162.519765,90.2658498 162.232172,90.4987379 161.911138,90.4650236 L159.916246,90.255525 L158.419856,90.0983777 C158.130989,90.0680417 157.91348,89.8321196 157.897439,89.5512565 L157.899743,89.4560917 L157.899743,89.4560917 C157.933512,89.1350633 158.221105,88.9021753 158.542139,88.9358895 Z M4.24272759,86.2448042 C4.56473521,86.2223058 4.84402152,86.4650857 4.86655689,86.7870907 C4.88683572,87.0768522 4.69225061,87.332032 4.41842397,87.3965962 L4.32433265,87.4108484 L4.32433265,87.4108484 L0.822359213,87.6555282 C0.500351585,87.6780266 0.221065277,87.4352468 0.198529904,87.1132417 C0.178251079,86.8234802 0.372836191,86.5683004 0.646662828,86.5037363 L0.740754151,86.4894841 L0.740754151,86.4894841 L2.7417544,86.3496759 L4.24272759,86.2448042 Z M158.757272,86.2448042 L162.259246,86.4894841 C162.581206,86.5119791 162.82397,86.791215 162.801475,87.1131748 C162.778935,87.4352468 162.499648,87.6780266 162.177641,87.6555282 L160.176641,87.5157201 L158.675667,87.4108484 C158.385904,87.3906028 158.160288,87.1623972 158.134462,86.8822499 L158.133443,86.7870907 L158.133443,86.7870907 C158.155978,86.4650857 158.435265,86.2223058 158.757272,86.2448042 Z M158.878248,83.5478555 L162.386675,83.6702714 C162.70925,83.6815267 162.961625,83.9521498 162.95037,84.274725 C162.939104,84.5973287 162.668469,84.8497078 162.345881,84.8384521 L160.34118,84.7685041 L158.837454,84.7160362 C158.547137,84.7059064 158.313681,84.4856887 158.278099,84.2065891 L158.27376,84.1115658 L158.27376,84.1115658 C158.285025,83.7889788 158.555661,83.5365998 158.878248,83.5478555 Z M4.12175187,83.5478555 C4.44433909,83.5365998 4.71497469,83.7889788 4.72623967,84.1115658 C4.73637778,84.4018832 4.53297441,84.6501255 4.25703524,84.7050827 L4.16254563,84.7160362 L4.16254563,84.7160362 L0.654118587,84.8384521 C0.33153136,84.8497078 0.060895764,84.5973287 0.0496307811,84.2747418 C0.0394926736,83.9844244 0.242896047,83.7361821 0.518835209,83.6812249 L0.613324819,83.6702714 L0.613324819,83.6702714 L2.61799289,83.6003246 L4.12175187,83.5478555 Z M162.415554,80.8483325 C162.738335,80.8483325 163,81.1099978 163,81.4327783 C163,81.7555588 162.738335,82.017224 162.415554,82.017224 L158.90502,82.017224 C158.582239,82.017224 158.320574,81.7555588 158.320574,81.4327783 C158.320574,81.1099978 158.582239,80.8483325 158.90502,80.8483325 L162.415554,80.8483325 Z M4.09498006,80.8483325 C4.41776055,80.8483325 4.67942584,81.1099978 4.67942584,81.4327783 C4.67942584,81.7555588 4.41776055,82.017224 4.09498006,82.017224 L0.584445777,82.017224 C0.261665287,82.017224 -1.99727878e-14,81.7555588 -2.00913754e-14,81.4327783 C-2.0209963e-14,81.1099978 0.261665287,80.8483325 0.584445777,80.8483325 L4.09498006,80.8483325 Z M162.345881,78.0271045 C162.668469,78.0158487 162.939104,78.2682278 162.950369,78.5908147 C162.960507,78.8811321 162.757104,79.1293745 162.481165,79.1843316 L162.386675,79.1952851 L162.386675,79.1952851 L160.382007,79.2652319 L158.878248,79.317701 C158.555661,79.3289567 158.285025,79.0765777 158.27376,78.7539908 C158.263622,78.4636734 158.467026,78.215431 158.742965,78.1604739 L158.837454,78.1495204 L158.837454,78.1495204 L162.345881,78.0271045 Z M0.654118587,78.0271045 L2.65882029,78.0970524 L4.16254563,78.1495204 C4.45286334,78.1596501 4.6863186,78.3798678 4.72190137,78.6589674 L4.72623967,78.7539908 L4.72623967,78.7539908 C4.71497469,79.0765777 4.44433909,79.3289567 4.12175187,79.317701 L0.613324819,79.1952851 C0.29074959,79.1840298 0.0383749104,78.9134067 0.0496301946,78.5908315 C0.060895764,78.2682278 0.33153136,78.0158487 0.654118587,78.0271045 Z M162.177641,75.2100283 C162.499648,75.1875299 162.778935,75.4303098 162.80147,75.7523148 C162.821749,76.0420763 162.627164,76.2972561 162.353337,76.3618203 L162.259246,76.3760725 L162.259246,76.3760725 L160.258246,76.5158806 L158.757272,76.6207523 C158.435265,76.6432507 158.155978,76.4004709 158.133443,76.0784658 C158.113164,75.7887043 158.307749,75.5335245 158.581576,75.4689604 L158.675667,75.4547081 L158.675667,75.4547081 L162.177641,75.2100283 Z M0.822359213,75.2100283 L2.82335946,75.3498364 L4.32433265,75.4547081 C4.61409649,75.4749537 4.83971184,75.7031593 4.86553838,75.9833067 L4.86655689,76.0784658 L4.86655689,76.0784658 C4.84402152,76.4004709 4.56473521,76.6432507 4.24272759,76.6207523 L0.740754151,76.3760725 C0.418794328,76.3535774 0.176030168,76.0743416 0.198525223,75.7523818 C0.221065277,75.4303098 0.500351585,75.1875299 0.822359213,75.2100283 Z M162.553534,72.9207351 C162.58392,73.2095966 162.398376,73.4714035 162.126986,73.5454887 L162.033422,73.5630212 L162.033422,73.5630212 L160.038529,73.7725198 L158.542139,73.929667 C158.221105,73.9633813 157.933512,73.7304932 157.899743,73.4094648 C157.869357,73.1206034 158.054901,72.8587964 158.326292,72.7847113 L158.419856,72.7671788 L158.419856,72.7671788 L161.911138,72.4005329 C162.232172,72.3668187 162.519765,72.5997067 162.553534,72.9207351 Z M1.08886178,72.4005329 L3.08375399,72.6100316 L4.58014403,72.7671788 C4.86901071,72.7975149 5.08651981,73.0334369 5.10256074,73.3143 L5.10025698,73.4094648 L5.10025698,73.4094648 C5.06648768,73.7304932 4.77889491,73.9633813 4.45786073,73.929667 L0.966578481,73.5630212 C0.645615497,73.5293144 0.412748304,73.2417978 0.446455049,72.9208348 C0.480234824,72.5997067 0.767827597,72.3668187 1.08886178,72.4005329 Z M162.206848,70.099526 C162.247302,70.3871359 162.071024,70.6552506 161.8024,70.7387654 L161.709477,70.7595586 L161.709477,70.7595586 L159.723126,71.0384919 L158.233144,71.2477224 C157.913474,71.2926121 157.617924,71.0698996 157.572962,70.750239 C157.532507,70.4626292 157.708785,70.1945145 157.977409,70.1109997 L158.070332,70.0902064 L158.070332,70.0902064 L161.546665,69.6020426 C161.866336,69.5571529 162.161885,69.7798655 162.206848,70.099526 Z M1.45333516,69.6020426 L3.43968665,69.8809759 L4.92966817,70.0902064 C5.21728723,70.1305953 5.42642683,70.3739469 5.43266357,70.6551847 L5.42703838,70.750239 L5.42703838,70.750239 C5.38207595,71.0698996 5.08652634,71.2926121 4.76685562,71.2477224 L1.29052261,70.7595586 C0.970945877,70.7146821 0.748257365,70.4192343 0.793133902,70.0996576 C0.838114837,69.7798655 1.13366444,69.5571529 1.45333516,69.6020426 Z M1.91533523,66.8179673 L3.89072377,67.1659943 L5.37247932,67.4270523 C5.69028217,67.4830433 5.9025226,67.786063 5.84653161,68.1038659 L5.84650297,68.1040283 C5.79040182,68.4219313 5.4872547,68.6341972 5.16933588,68.5781857 L1.71219178,67.9691007 C1.39438894,67.9131097 1.1821485,67.61009 1.2381395,67.2922871 C1.29426928,66.9742217 1.5974164,66.7619558 1.91533523,66.8179673 Z M161.761832,67.2921247 C161.812304,67.578133 161.645506,67.8522284 161.379975,67.9450702 L161.287808,67.9691007 L161.287808,67.9691007 L159.31242,68.3171277 L157.830664,68.5781857 C157.512745,68.6341972 157.209598,68.4219313 157.153497,68.1040283 C157.103024,67.8180199 157.269823,67.5439246 157.535354,67.4510828 L157.627521,67.4270523 L157.627521,67.4270523 L161.084665,66.8179673 C161.402584,66.7619558 161.705731,66.9742217 161.761832,67.2921247 Z M2.47429898,64.051699 L4.43631583,64.4683945 L5.9080381,64.7809607 C6.19211727,64.8412938 6.38376903,65.0986083 6.37038879,65.379572 L6.35818047,65.4738647 C6.35816689,65.4739287 6.3581533,65.4739926 6.3581397,65.4740565 C6.29096786,65.7898145 5.98059178,65.9913751 5.66481126,65.9243092 L2.23107214,65.1950474 C1.94699296,65.1347143 1.7553412,64.8773999 1.76872145,64.5964362 L1.78092977,64.5021435 C1.78094335,64.5020795 1.78095694,64.5020156 1.78097054,64.5019517 C1.84814238,64.1861937 2.15851846,63.9846331 2.47429898,64.051699 Z M161.219029,64.5019517 C161.279458,64.7860106 161.122341,65.0657524 160.860226,65.1678072 L160.76912,65.1950067 C160.769056,65.1950203 160.768992,65.1950339 160.768928,65.1950474 L158.806911,65.611743 L157.335189,65.9243092 C157.019408,65.9913751 156.709032,65.7898145 156.64186,65.4740565 C156.574718,65.1584355 156.776149,64.8481442 157.09177,64.7810015 L157.091962,64.7809607 L160.525701,64.051699 C160.841482,63.9846331 161.151858,64.1861937 161.219029,64.5019517 Z M3.12954527,61.3066082 L5.07579813,61.7914633 L6.53569213,62.1551555 C6.81748345,62.2253561 7.000038,62.4891873 6.97686857,62.7695025 L6.9613252,62.863528 C6.88316421,63.1767561 6.56593655,63.3673657 6.25267824,63.289326 L2.84653138,62.4407787 C2.53342991,62.3627781 2.34284298,62.0457273 2.42084355,61.7326258 C2.4990593,61.4191781 2.81628696,61.2285686 3.12954527,61.3066082 Z M160.579102,61.7324062 C160.649411,62.0141703 160.502166,62.2992177 160.243785,62.4103603 L160.153469,62.4407787 L158.207216,62.9256338 L156.747322,63.289326 C156.434063,63.3673657 156.116836,63.1767561 156.038675,62.863528 C155.968365,62.5817639 156.11561,62.2967165 156.373991,62.1855739 L156.464308,62.1551555 L159.870455,61.3066082 C160.183713,61.2285686 160.500941,61.4191781 160.579102,61.7324062 Z M3.88150709,58.7268658 L7.46961746,59.7548913 L10.2546769,60.5528356 C10.5338387,60.6328179 10.707075,60.9028456 10.674145,61.1821723 L10.6553246,61.2756233 C10.5662694,61.5859396 10.2425759,61.7653657 9.93222074,61.6764462 L3.55905095,59.8504765 C3.24887118,59.7616073 3.06946357,59.4381141 3.15833282,59.1279343 C3.24745844,58.8173725 3.57115193,58.6379463 3.88150709,58.7268658 Z M159.841597,59.1276888 C159.921701,59.4068156 159.784506,59.6968212 159.530173,59.8169156 L159.441195,59.8504061 C159.441113,59.8504296 159.441031,59.8504531 159.440949,59.8504765 L155.852839,60.878502 L153.067779,61.6764462 C152.757424,61.7653657 152.433731,61.5859396 152.344675,61.2756233 C152.264571,60.9964965 152.401766,60.7064909 152.656099,60.5863964 L152.745323,60.5528356 L159.118493,58.7268658 C159.428848,58.6379463 159.752542,58.8173725 159.841597,59.1276888 Z M4.72557525,55.8933081 L6.63320353,56.5126228 L8.06411655,56.9771712 C8.34031035,57.066838 8.50401874,57.3427344 8.46136839,57.620734 L8.43929236,57.7134953 L8.43929236,57.7134953 C8.33945118,58.0205214 8.0096855,58.1885454 7.70261103,58.0888531 L4.36406972,57.00499 C4.05718773,56.9053602 3.8891766,56.5758174 3.98880636,56.2689354 C4.08873509,55.9616398 4.41850078,55.7936158 4.72557525,55.8933081 Z M159.011106,56.2686659 C159.100907,56.5448162 158.973927,56.8394269 158.723952,56.9683261 L158.6362,57.0049024 C158.63611,57.0049317 158.63602,57.0049608 158.63593,57.00499 L156.728302,57.6243048 L155.297389,58.0888531 C154.990314,58.1885454 154.660549,58.0205214 154.560708,57.7134953 C154.470907,57.437345 154.597886,57.1427343 154.847862,57.0138351 L154.935883,56.9771712 L154.935883,56.9771712 L158.274425,55.8933081 C158.581499,55.7936158 158.911265,55.9616398 159.011106,56.2686659 Z M5.66441406,53.2316943 L7.54922916,53.9171451 L8.96302516,54.4313003 C9.2662373,54.5415695 9.42264848,54.8767623 9.31237931,55.1799744 L9.31227333,55.1802656 C9.20176761,55.4836272 8.8663308,55.6400439 8.56291068,55.5296991 L5.26429958,54.3300931 C4.99140866,54.2308508 4.83742651,53.9494204 4.88974521,53.6730851 L4.91494543,53.5814189 C4.91498073,53.5813219 4.91501605,53.5812248 4.91505141,53.5811278 C5.02555713,53.2777662 5.36099394,53.1213495 5.66441406,53.2316943 Z M158.084949,53.5811278 C158.195379,53.8842814 158.039145,54.2195571 157.735992,54.3299871 L157.7357,54.3300931 L155.850885,55.0155438 L154.437089,55.5296991 C154.133669,55.6400439 153.798232,55.4836272 153.687727,55.1802656 C153.58834,54.9074274 153.70495,54.6085702 153.950265,54.4710237 L154.036975,54.4313003 L154.036975,54.4313003 L157.335586,53.2316943 C157.639006,53.1213495 157.974443,53.2777662 158.084949,53.5811278 Z M157.065484,50.9275226 C157.174336,51.1967174 157.068235,51.4994573 156.827879,51.6454831 L156.742588,51.6882186 L156.742588,51.6882186 L154.882884,52.4389682 L153.487928,53.0021019 C153.188532,53.1229661 152.847832,52.9783476 152.726796,52.6790205 C152.617945,52.4098257 152.724045,52.1070858 152.964401,51.96106 L153.049692,51.9183245 L153.049692,51.9183245 L156.304352,50.6044412 C156.603748,50.483577 156.944448,50.6281955 157.065484,50.9275226 Z M6.69564802,50.6044412 L8.55535243,51.3551909 L9.95030771,51.9183245 C10.2195649,52.0270218 10.3636342,52.3136448 10.3017107,52.5879808 L10.2733294,52.6787101 C10.2732876,52.6788136 10.2732458,52.6789171 10.2732039,52.6790205 C10.1521681,52.9783476 9.81146819,53.1229661 9.51207177,53.0021019 L6.25741208,51.6882186 C5.95823744,51.5674439 5.81361571,51.2270077 5.93439042,50.9278331 C6.05555168,50.6281955 6.3962516,50.483577 6.69564802,50.6044412 Z M7.81802052,48.0147499 L9.65034751,48.8298816 L11.0247616,49.4413054 C11.3195359,49.5724392 11.4521929,49.9177059 11.3210591,50.2124803 L11.3209134,50.2128075 C11.1894948,50.5077351 10.8439462,50.6403787 10.5489381,50.509141 L7.34219703,49.0825855 C7.07690011,48.9645651 6.94291831,48.673097 7.01437143,48.4010931 L7.0458995,48.3114106 C7.04594804,48.3113015 7.0459966,48.3111925 7.0460452,48.3110834 C7.17746382,48.0161558 7.52301239,47.8835122 7.81802052,48.0147499 Z M155.953955,48.3110834 C156.085269,48.6057773 155.952824,48.9511253 155.65813,49.0824398 L155.657803,49.0825855 L153.825476,49.8977171 L152.451062,50.509141 C152.156054,50.6403787 151.810505,50.5077351 151.679087,50.2128075 C151.547772,49.9181136 151.680217,49.5727656 151.974911,49.4414511 L151.975238,49.4413054 L155.181979,48.0147499 C155.476988,47.8835122 155.822536,48.0161558 155.953955,48.3110834 Z M9.03016389,45.4657755 L10.8328803,46.3442939 L12.185078,47.0032608 C12.4460929,47.1304612 12.5698246,47.426421 12.4889284,47.695763 L12.4541253,47.7846312 C12.3124839,48.0747996 11.9625071,48.1953063 11.6722466,48.0538535 L8.51733257,46.5163683 C8.25631766,46.3891678 8.13258594,46.0932081 8.21348213,45.8238661 L8.24820194,45.7351686 C8.38992665,45.4448295 8.73990343,45.3243228 9.03016389,45.4657755 Z M154.751715,45.7349979 C154.893237,46.0249225 154.772933,46.3746794 154.483009,46.5162018 L154.482667,46.5163683 L152.679951,47.3948866 L151.327753,48.0538535 C151.037493,48.1953063 150.687516,48.0747996 150.545875,47.7846312 C150.418505,47.5236991 150.503214,47.2143027 150.732784,47.051863 L150.814922,47.0032608 L153.969836,45.4657755 C154.260097,45.3243228 154.610073,45.4448295 154.751715,45.7349979 Z M10.3306011,42.9606237 L12.1015101,43.9014561 L13.4298434,44.6071609 C13.6862597,44.7433874 13.7995911,45.0434799 13.7093497,45.3098333 L13.671459,45.39745 C13.5197672,45.6825053 13.1657881,45.7907276 12.8806291,45.6392309 L9.78138674,43.9926937 C9.49647976,43.8413309 9.3882208,43.4876644 9.53958358,43.2027574 C9.69146291,42.9173493 10.045442,42.809127 10.3306011,42.9606237 Z M153.460229,43.2024046 C153.596631,43.4587276 153.522777,43.7708897 153.299021,43.9412444 L153.218613,43.9926937 L151.447704,44.9335261 L150.119371,45.6392309 C149.834212,45.7907276 149.480233,45.6825053 149.328541,45.39745 C149.192139,45.1411269 149.265993,44.8289649 149.489749,44.6586101 L149.569804,44.6073485 C149.569921,44.6072859 149.570039,44.6072234 149.570157,44.6071609 L152.669399,42.9606237 C152.954558,42.809127 153.308537,42.9173493 153.460229,43.2024046 Z M152.08107,40.7163891 C152.226338,40.9677919 152.163429,41.2823403 151.945758,41.4604025 L151.867181,41.5146364 L150.130237,42.5166342 L148.827387,43.2682148 C148.547677,43.4295722 148.190126,43.3337668 148.028569,43.0541722 C147.883301,42.8027695 147.946211,42.488221 148.163881,42.3101589 L148.242458,42.255925 L151.282253,40.5023466 C151.561963,40.3409892 151.919513,40.4367945 152.08107,40.7163891 Z M11.7177475,40.5023466 L13.4546913,41.5043445 L14.7575416,42.255925 C15.0090481,42.4010126 15.1118414,42.7048741 15.012364,42.9679158 L14.9714312,43.0541722 C14.809874,43.3337668 14.4523233,43.4295722 14.1726134,43.2682148 L11.1328192,41.5146364 C10.8533675,41.3534279 10.7575124,40.9962023 10.9187209,40.7167506 C11.0804869,40.4367945 11.4380375,40.3409892 11.7177475,40.5023466 Z M13.1899128,38.0939393 L14.8907752,39.1558795 L16.1665552,39.9524177 C16.4128467,40.1061908 16.5049768,40.4134529 16.3963837,40.6728637 L16.3524583,40.7576529 C16.1812324,41.0314458 15.8205455,41.1147169 15.5466257,40.943694 L12.5699833,39.0852155 C12.3236918,38.9314424 12.2315617,38.6241803 12.3401548,38.3647695 L12.3838506,38.2803477 C12.3839271,38.2802252 12.3840036,38.2801028 12.3840802,38.2799803 C12.5553061,38.0061875 12.915993,37.9229164 13.1899128,38.0939393 Z M150.61592,38.2799803 C150.769876,38.5261577 150.717987,38.8427102 150.506666,39.0282631 L150.430017,39.0852155 L148.729154,40.1471557 L147.453374,40.943694 C147.179455,41.1147169 146.818768,41.0314458 146.647542,40.7576529 C146.493586,40.5114755 146.545475,40.194923 146.756796,40.0093702 L146.833445,39.9524177 L149.810087,38.0939393 C150.084007,37.9229164 150.444694,38.0061875 150.61592,38.2799803 Z M149.066562,35.8961466 C149.227013,36.1338288 149.189189,36.4471275 148.991005,36.6405912 L148.909243,36.7071411 C148.909119,36.7072244 148.908996,36.7073077 148.908872,36.707391 L147.246163,37.8279774 L145.999008,38.6685006 C145.731212,38.8489818 145.367828,38.7783471 145.187142,38.51069 C145.026691,38.2730078 145.064515,37.9597091 145.2627,37.7662454 L145.344832,37.6994456 L148.254697,35.738336 C148.522492,35.5578548 148.885876,35.6284895 149.066562,35.8961466 Z M14.7453032,35.738336 L16.4080122,36.8589224 L17.6551678,37.6994456 C17.9226983,37.8797483 17.9934104,38.242789 17.8131076,38.5103195 L17.8128577,38.51069 C17.6321717,38.7783471 17.2687876,38.8489818 17.0009923,38.6685006 L14.0911277,36.707391 C13.8533228,36.5471218 13.7710288,36.2424673 13.8823095,35.9888496 L13.9334378,35.8961466 L13.9334378,35.8961466 C14.1141239,35.6284895 14.4775079,35.5578548 14.7453032,35.738336 Z M147.434885,33.5677921 C147.603537,33.79973 147.576673,34.1141604 147.385361,34.3144262 L147.305601,34.3840597 L145.683071,35.5619248 L144.466058,36.4454066 C144.204715,36.6351274 143.839076,36.5772159 143.64915,36.316021 C143.480498,36.0840832 143.507362,35.7696527 143.698674,35.569387 L143.778434,35.4997534 L146.617977,33.4384066 C146.87932,33.2486858 147.244959,33.3065972 147.434885,33.5677921 Z M16.3820234,33.4384066 L18.0045538,34.6162716 L19.2215659,35.4997534 C19.4826448,35.6892819 19.5406479,36.0545713 19.3511194,36.3156501 L19.35085,36.316021 C19.1609241,36.5772159 18.7952854,36.6351274 18.5339416,36.4454066 L15.694399,34.3840597 C15.4623289,34.21559 15.3907137,33.9082474 15.5107762,33.6586649 L15.5648455,33.568163 C15.5649353,33.5680394 15.5650251,33.5679157 15.565115,33.5677921 C15.7550408,33.3065972 16.1206795,33.2486858 16.3820234,33.4384066 Z M145.722876,31.2977539 C145.899524,31.5236658 145.883652,31.8388461 145.699446,32.0456704 L145.622156,32.1180523 L144.041781,33.3517587 L142.856394,34.2771205 C142.601821,34.4758509 142.234373,34.430734 142.035439,34.1763199 C141.858791,33.9504079 141.874663,33.6352276 142.058869,33.4284033 L142.13579,33.3563093 C142.135913,33.3562133 142.136036,33.3561173 142.136158,33.3560214 L144.901921,31.1969532 C145.156494,30.9982228 145.523942,31.0433397 145.722876,31.2977539 Z M18.0980791,31.1969532 L19.6784547,32.4306596 L20.8638415,33.3560214 C21.0898948,33.5324879 21.1507434,33.8421458 21.0220442,34.08739 L20.9648494,34.1759513 L20.9645615,34.1763199 C20.7656273,34.430734 20.3981793,34.4758509 20.143606,34.2771205 L17.3778435,32.1180523 C17.1517902,31.9415858 17.0909416,31.631928 17.2196408,31.3866837 L17.2768356,31.2981224 C17.2769316,31.2979995 17.2770276,31.2978767 17.2771236,31.2977539 C17.4760578,31.0433397 17.8435058,30.9982228 18.0980791,31.1969532 Z M143.932622,29.0887974 C144.11705,29.3084092 144.11219,29.6239566 143.935312,29.8370882 L143.86059,29.9121295 L142.324294,31.200172 L141.171975,32.1662842 C140.924484,32.3737831 140.555674,32.3415164 140.347974,32.0941934 C140.163546,31.8745815 140.168406,31.5590342 140.345284,31.3459026 L140.420006,31.2708613 L140.420006,31.2708613 L143.108621,29.0167066 C143.356112,28.8092077 143.724922,28.8414743 143.932622,29.0887974 Z M19.8913793,29.0167066 L22.5799938,31.2708613 C22.7997555,31.4551111 22.8497628,31.7667087 22.7125823,32.0073168 L22.652026,32.0941934 C22.4443261,32.3415164 22.0755163,32.3737831 21.8280246,32.1662842 L19.1394101,29.9121295 C18.8921782,29.7048484 18.8597917,29.3363929 19.0670728,29.089161 C19.2750779,28.8414743 19.6438876,28.8092077 19.8913793,29.0167066 Z M142.066303,26.943614 C142.258288,27.1566592 142.264444,27.4721904 142.09511,27.6913703 L142.023048,27.7689787 L140.532701,29.1097859 L139.414854,30.1154695 C139.174747,30.331485 138.805025,30.3121087 138.588812,30.0721784 C138.396827,29.8591332 138.390671,29.543602 138.560005,29.3244221 L138.631711,29.2471345 C138.63183,29.2470275 138.631949,29.2469206 138.632068,29.2468137 L141.240261,26.9003229 C141.480369,26.6843074 141.850091,26.7036837 142.066303,26.943614 Z M21.759739,26.9003229 L23.2500856,28.2411302 L24.3679323,29.2468137 C24.581135,29.438624 24.6202393,29.7517832 24.4747433,29.9874626 L24.4111878,30.0721784 C24.1949753,30.3121087 23.8252532,30.331485 23.5851455,30.1154695 L20.9769522,27.7689787 C20.7370992,27.5531921 20.7175894,27.1838233 20.9333759,26.9439702 C21.1499093,26.7036837 21.5196314,26.6843074 21.759739,26.9003229 Z M140.126194,24.8648172 C140.350416,25.0968147 140.344113,25.4666538 140.112116,25.6908761 L140.111769,25.6912108 L138.669187,27.0831474 L137.587172,28.1271751 C137.354742,28.3514449 136.984558,28.3449833 136.760096,28.1127384 C136.560788,27.9065185 136.543623,27.5913865 136.705208,27.3664247 L136.774521,27.2863449 L139.299118,24.8503806 C139.531548,24.6261107 139.901732,24.6325723 140.126194,24.8648172 Z M23.7008816,24.8503806 L25.143464,26.2423172 L26.2254788,27.2863449 C26.431863,27.4854834 26.4600158,27.7998243 26.3063799,28.0302884 L26.2402382,28.1123919 C26.2401267,28.1125074 26.2400151,28.112623 26.2399035,28.1127384 C26.0154421,28.3449833 25.6452581,28.3514449 25.4128282,28.1271751 L22.888231,25.6912108 C22.6560487,25.4671799 22.6494407,25.097346 22.8734716,24.8651638 C23.0982677,24.6325723 23.4684517,24.6261107 23.7008816,24.8503806 Z M138.114657,22.8549398 C138.321047,23.0540841 138.349201,23.3684341 138.195561,23.5989048 L138.129082,23.6813572 L138.129082,23.6813572 L136.73602,25.1227255 L135.691154,26.2038236 C135.466686,26.4360752 135.096491,26.442537 134.864055,26.2182607 C134.657665,26.0191164 134.629511,25.7047664 134.783151,25.4742957 L134.84963,25.3918433 L137.287558,22.8693769 C137.512026,22.6371253 137.882221,22.6306635 138.114657,22.8549398 Z M25.712442,22.8693769 L27.1055042,24.3107452 L28.1503703,25.3918433 C28.3496847,25.5980692 28.3668505,25.9132102 28.2052605,26.1381786 L28.1362917,26.217926 C28.1361762,26.2180376 28.1360607,26.2181492 28.1359451,26.2182607 C27.9035085,26.442537 27.5333139,26.4360752 27.308846,26.2038236 L24.8709176,23.6813572 C24.6466889,23.449353 24.6529921,23.0795032 24.8849963,22.8552745 L24.8851695,22.8551071 C25.1177794,22.6306635 25.487974,22.6371253 25.712442,22.8693769 Z M136.034144,20.9164305 C136.247366,21.1082573 136.286473,21.4214435 136.140965,21.6571432 L136.077404,21.7418663 L134.735557,23.2309088 L133.729111,24.3477586 C133.51288,24.5877095 133.143126,24.6070875 132.902997,24.3910533 C132.689776,24.1992265 132.650669,23.8860403 132.796177,23.6503406 L132.859738,23.5656174 L135.208031,20.9597252 C135.424262,20.7197743 135.794016,20.7003963 136.034144,20.9164305 Z M27.7919691,20.9597252 L29.1338157,22.4487677 L30.1402619,23.5656174 C30.3322636,23.778681 30.3384202,24.0942395 30.1690713,24.3134382 L30.0970026,24.3910533 C29.8568743,24.6070875 29.4871203,24.5877095 29.2708891,24.3477586 L26.9225963,21.7418663 C26.7065944,21.5021698 26.7258027,21.1327532 26.9654993,20.9167513 C27.2059839,20.7003963 27.5757379,20.7197743 27.7919691,20.9597252 Z M29.9369293,19.1237521 L31.2259273,20.658653 L32.1927293,21.8098924 C32.4002409,22.0569912 32.3681492,22.4255257 32.1210505,22.6330373 L32.1206868,22.6333425 C31.8731596,22.8408712 31.504297,22.8085999 31.2965672,22.5612414 L29.0407673,19.8751011 C28.8332557,19.6280023 28.8653474,19.2594678 29.1124461,19.0519562 C29.360337,18.8441223 29.7291996,18.8763936 29.9369293,19.1237521 Z M133.88719,19.051651 C134.106983,19.2359272 134.156998,19.5475694 134.019798,19.788212 L133.959233,19.8751011 L132.670235,21.410002 L131.703433,22.5612414 C131.495703,22.8085999 131.12684,22.8408712 130.879313,22.6333425 C130.632046,22.4260317 130.599655,22.0575234 130.806966,21.8102561 L130.807271,21.8098924 L133.063071,19.1237521 C133.2708,18.8763936 133.639663,18.8441223 133.88719,19.051651 Z M32.1447092,17.363694 L33.3792902,18.9425823 L34.305272,20.1268075 C34.4819548,20.3527645 34.4660797,20.6680078 34.2818367,20.8748734 L34.2049006,20.9469818 L34.204532,20.9472698 C33.9499078,21.1460399 33.5823865,21.1009139 33.3834126,20.846449 L31.2228497,18.0833355 C31.0240816,17.8291339 31.0690195,17.4619294 31.3232211,17.2631613 C31.5782139,17.0641032 31.9457353,17.1092291 32.1447092,17.363694 Z M131.67641,17.2628733 C131.902509,17.439375 131.963369,17.7490947 131.834645,17.994388 L131.777438,18.0829669 L131.77715,18.0833355 L130.542569,19.6622238 L129.616587,20.846449 C129.417614,21.1009139 129.050092,21.1460399 128.795468,20.9472698 C128.56937,20.770768 128.508509,20.4610483 128.637234,20.2157551 L128.694728,20.1268075 L130.855291,17.363694 C131.054265,17.1092291 131.421786,17.0641032 131.67641,17.2628733 Z M129.404498,15.5522768 C129.665644,15.7418535 129.723661,16.1072361 129.534085,16.3683815 L129.533815,16.3687525 L128.355153,17.9897035 L127.471117,19.2054707 C127.281143,19.4667323 126.915411,19.5246585 126.654001,19.3348893 C126.421871,19.1663766 126.350238,18.8589556 126.470331,18.6093095 L126.524684,18.5184135 L128.587381,15.6816953 C128.777356,15.4204338 129.143088,15.3625075 129.404498,15.5522768 Z M34.4126187,15.6816953 L35.5912807,17.3026463 L36.4753164,18.5184135 C36.6440113,18.7504105 36.6171404,19.0649212 36.4257802,19.265238 L36.3463704,19.3346198 C36.3462468,19.3347096 36.3461231,19.3347995 36.3459994,19.3348893 C36.0845889,19.5246585 35.718857,19.4667323 35.5288827,19.2054707 L33.4661849,16.3687525 C33.2764033,16.1077559 33.3341344,15.7423279 33.595131,15.5525463 C33.8569125,15.3625075 34.2226444,15.4204338 34.4126187,15.6816953 Z M127.074222,13.9219454 C127.3121,14.0822641 127.39442,14.3870129 127.283104,14.6407089 L127.23221,14.7330701 C127.232127,14.7331936 127.232044,14.7333172 127.23196,14.7334407 L126.110651,16.3944788 L125.269636,17.6403061 C125.088894,17.908046 124.725398,17.9787025 124.45752,17.7981655 C124.219641,17.6378468 124.137322,17.333098 124.248637,17.079402 L124.299781,16.9866703 L126.262105,14.0798048 C126.442847,13.812065 126.806344,13.7414085 127.074222,13.9219454 Z M36.7378947,14.0798048 L37.8592039,15.7408429 L38.7002187,16.9866703 C38.8607194,17.224426 38.8228838,17.5378216 38.624638,17.7313451 L38.5424801,17.7981655 C38.274602,17.9787025 37.9111057,17.908046 37.7303638,17.6403061 L35.7680397,14.7334407 C35.5874765,14.4659655 35.6579326,14.1027586 35.9254077,13.9221954 C36.1936564,13.7414085 36.5571528,13.812065 36.7378947,14.0798048 Z M39.1177041,12.5599741 L40.1802967,14.2590751 L40.9772683,15.5334442 C41.1312797,15.7797107 41.079372,16.0963777 40.8679746,16.2819977 L40.7912979,16.3389707 C40.517279,16.5100555 40.1564616,16.4267542 39.9851737,16.1528624 L38.1256096,13.1793922 C37.9544858,12.9057628 38.037583,12.5452191 38.3112124,12.3740954 C38.5855988,12.202781 38.9464162,12.2860822 39.1177041,12.5599741 Z M124.68842,12.3738657 C124.934801,12.5276944 125.026964,12.8350677 124.918332,13.0945723 L124.87439,13.1793922 L124.87439,13.1793922 L123.811798,14.8784932 L123.014826,16.1528624 C122.843538,16.4267542 122.482721,16.5100555 122.208702,16.3389707 C121.962322,16.185142 121.870158,15.8777688 121.978791,15.6182641 L122.022732,15.5334442 L123.882296,12.5599741 C124.053584,12.2860822 124.414401,12.202781 124.68842,12.3738657 Z M117.194605,8.43990127 C117.455753,8.56716638 117.579548,8.86327649 117.49861,9.13275537 L117.46379,9.22166874 L115.827787,12.573204 L114.558006,15.1744939 C114.416293,15.4648098 114.066138,15.5853777 113.77573,15.4438531 C113.514582,15.316588 113.390788,15.0204778 113.471725,14.750999 L113.506546,14.6620856 L113.506546,14.6620856 L116.412329,8.70926041 C116.554043,8.41894455 116.904198,8.29837668 117.194605,8.43990127 Z M46.858006,8.52701607 L48.4940083,11.8785513 L49.7637895,14.4798413 C49.8912244,14.740906 49.8064723,15.0504595 49.5767851,15.2129818 L49.4946055,15.2616087 C49.2041975,15.4031333 48.8540429,15.2825654 48.7123295,14.9922496 L45.806546,9.0394244 C45.6649516,8.74935247 45.7853165,8.39941784 46.0753884,8.25782352 C46.366138,8.11613233 46.7162926,8.23670021 46.858006,8.52701607 Z M122.25,10.9099236 C122.50161,11.055071 122.604446,11.3590579 122.504928,11.6222082 L122.464187,11.7081386 C122.464117,11.7082592 122.464048,11.7083797 122.463978,11.7085002 L121.461394,13.4435938 L120.709435,14.7449518 C120.547811,15.0246618 120.190112,15.1205067 119.910287,14.9590827 C119.658677,14.8139352 119.555841,14.5099484 119.655359,14.2467981 L119.696309,14.1605061 L121.450852,11.1240545 C121.612476,10.8443445 121.970175,10.7484996 122.25,10.9099236 Z M41.5491475,11.1240545 L42.5517312,12.859148 L43.3036908,14.1605061 C43.4651655,14.4399578 43.3695263,14.7973992 43.0900746,14.9588739 L43.0897129,14.9590827 C42.8098875,15.1205067 42.4521893,15.0246618 42.2905654,14.7449518 L40.5360221,11.7085002 C40.3745474,11.4290485 40.4701867,11.0716071 40.7496383,10.9101324 C41.0298254,10.7484996 41.3875236,10.8443445 41.5491475,11.1240545 Z M44.0292625,9.7737952 L44.9706181,11.5427674 L45.6766521,12.8695288 C45.8131169,13.1259702 45.7392292,13.4382763 45.5153696,13.6087096 L45.435278,13.659995 C45.4351603,13.6600576 45.4350427,13.6601201 45.434925,13.6601827 C45.1496343,13.8117493 44.7954919,13.7034771 44.6437301,13.4182902 L42.9963406,10.3225565 C42.8598757,10.0661152 42.9337634,9.75380905 43.1576231,9.58337572 L43.2377146,9.53209041 C43.2378323,9.5320278 43.2379499,9.53196524 43.2380676,9.53190272 C43.5233583,9.3803361 43.8775008,9.4886083 44.0292625,9.7737952 Z M119.761932,9.53190272 C120.018467,9.66819209 120.131851,9.96842311 120.041568,10.2348995 L120.003659,10.3225565 L119.062304,12.0915287 L118.35627,13.4182902 C118.204508,13.7034771 117.850366,13.8117493 117.565075,13.6601827 C117.30854,13.5238933 117.195157,13.2236623 117.28544,12.9571859 L117.323348,12.8695288 L118.970737,9.7737952 C119.122499,9.4886083 119.476642,9.3803361 119.761932,9.53190272 Z M49.1233653,7.33673072 L49.9389071,9.16695681 L50.5505729,10.5396477 C50.6688212,10.8050187 50.5733062,11.1114421 50.3380702,11.2658543 L50.2542575,11.3115759 C49.9590865,11.4428861 49.6133471,11.3101692 49.4818559,11.0150787 L48.0546482,7.81216175 C47.9232612,7.51730511 48.0557795,7.17176636 48.3506362,7.04037936 C48.6461346,6.90892335 48.9918741,7.04164024 49.1233653,7.33673072 Z M114.649036,7.04023358 C114.91448,7.15831913 115.048536,7.4499482 114.977043,7.72210234 L114.945352,7.81216175 L114.12981,9.64238784 L113.518144,11.0150787 C113.386653,11.3101692 113.040914,11.4428861 112.745742,11.3115759 C112.480299,11.1934903 112.346243,10.9018612 112.417736,10.6297071 L112.449427,10.5396477 L113.876635,7.33673072 C114.008126,7.04164024 114.353865,6.90892335 114.649036,7.04023358 Z M112.030437,5.92962103 C112.299854,6.0383828 112.444009,6.32517603 112.382049,6.59967486 L112.353525,6.69076869 L112.353525,6.69076869 L111.602416,8.54829592 L111.039078,9.94145735 C110.91797,10.2409622 110.577068,10.3856665 110.277494,10.2647305 C110.008077,10.1559688 109.863922,9.86917553 109.925882,9.5946767 L109.954406,9.50358286 L109.954406,9.50358286 L111.268853,6.25289421 C111.389961,5.9533894 111.730863,5.80868503 112.030437,5.92962103 Z M51.7311467,6.25289421 L52.4822559,8.11042143 L53.0455943,9.50358286 C53.1545105,9.77293752 53.0483472,10.0758572 52.8078481,10.2219697 L52.7225064,10.2647305 L52.7225064,10.2647305 C52.4229322,10.3856665 52.08203,10.2409622 51.9609223,9.94145735 L50.6464747,6.69076869 C50.5254567,6.39148574 50.669969,6.05076452 50.969252,5.92974654 C51.2691368,5.80868503 51.610039,5.9533894 51.7311467,6.25289421 Z M109.374642,4.91099744 C109.647705,5.01030244 109.801785,5.2919108 109.749433,5.56842084 L109.724111,5.66043631 L109.724111,5.66043631 L109.038347,7.54300251 L108.52402,8.9549381 C108.413445,9.25849147 108.077796,9.41500709 107.774184,9.30459251 C107.50112,9.20528751 107.347041,8.92367915 107.399393,8.64716911 L107.424715,8.55515364 L107.424715,8.55515364 L108.624805,5.26065185 C108.735381,4.95709849 109.07103,4.80058286 109.374642,4.91099744 Z M54.3751948,5.26065185 L55.0609585,7.14321805 L55.5752852,8.55515364 C55.685785,8.85849894 55.5294529,9.19398667 55.2261076,9.30448647 L55.2258162,9.30459251 C54.9222042,9.41500709 54.5865553,9.25849147 54.4759797,8.9549381 L53.2758893,5.66043631 C53.1764395,5.38742555 53.2931236,5.0883794 53.5385936,4.95074593 L53.625067,4.91110348 C53.6251641,4.91106811 53.6252612,4.91103276 53.6253583,4.91099744 C53.9289703,4.80058286 54.2646192,4.95709849 54.3751948,5.26065185 Z M57.0522882,4.36121232 L57.6718729,6.26652506 L58.1365634,7.69551575 C58.2264241,7.97185043 58.0993598,8.26665791 57.8492173,8.39564322 L57.7611371,8.43233157 L57.7611371,8.43233157 C57.4538575,8.5320904 57.1238716,8.36395422 57.0239638,8.05672311 L55.9396886,4.72241968 C55.8498279,4.446085 55.9768922,4.15127752 56.2270347,4.02229221 L56.3148453,3.98569147 C56.3149352,3.98566225 56.3150251,3.98563304 56.315115,3.98560386 C56.6223945,3.88584503 56.9523804,4.05398121 57.0522882,4.36121232 Z M106.684885,3.98560386 C106.961263,4.07533052 107.125081,4.35141117 107.082402,4.62959641 L107.060311,4.72241968 L107.060311,4.72241968 L106.440727,6.62773242 L105.976036,8.05672311 C105.876128,8.36395422 105.546142,8.5320904 105.238863,8.43233157 C104.962485,8.34260491 104.798667,8.06652426 104.841346,7.78833903 L104.863437,7.69551575 L104.863437,7.69551575 L105.947712,4.36121232 C106.04762,4.05398121 106.377606,3.88584503 106.684885,3.98560386 Z M103.964444,3.15456773 C104.243802,3.23460604 104.417159,3.50482275 104.384206,3.78434505 L104.365373,3.87786142 L104.365373,3.87786142 L103.81272,5.80360075 L103.39823,7.24790692 C103.309112,7.55844039 102.985192,7.73799219 102.67462,7.64901044 C102.395263,7.56897212 102.221905,7.29875541 102.254858,7.01923311 L102.273692,6.92571674 L102.273692,6.92571674 L103.240834,3.55567124 C103.329952,3.24513777 103.653872,3.06558597 103.964444,3.15456773 Z M59.7591655,3.55567124 L60.3118182,5.48141057 L60.7263082,6.92571674 C60.8064687,7.20503892 60.6691775,7.49524758 60.4146667,7.61542606 L60.3256258,7.64893997 C60.3255439,7.64896348 60.325462,7.64898697 60.3253801,7.64901044 C60.0148077,7.73799219 59.6908876,7.55844039 59.60177,7.24790692 L58.6346273,3.87786142 C58.5455601,3.56750344 58.7249518,3.24370537 59.0353098,3.15463819 C59.3461279,3.06558597 59.670048,3.24513777 59.7591655,3.55567124 Z M62.492529,2.84500985 L62.9775781,4.78883112 L63.3413644,6.24669468 C63.4117253,6.52866414 63.264373,6.81391927 63.0058037,6.92514294 L62.9154211,6.95558345 L62.9154211,6.95558345 C62.6019345,7.03367998 62.2844756,6.84293149 62.2062576,6.52947514 L61.3574222,3.12779031 C61.2792434,2.81449091 61.4698463,2.49713513 61.7831457,2.41895633 C62.0968521,2.34080501 62.414311,2.5315535 62.492529,2.84500985 Z M101.216634,2.41890154 C101.498631,2.48915322 101.681319,2.75317674 101.658132,3.03369626 L101.642578,3.12779031 L101.642578,3.12779031 L101.157529,5.07161158 L100.793742,6.52947514 C100.715524,6.84293149 100.398066,7.03367998 100.084579,6.95558345 C99.8025822,6.88533177 99.6198946,6.62130825 99.6430809,6.34078873 L99.6586356,6.24669468 L99.6586356,6.24669468 L100.507471,2.84500985 C100.585689,2.5315535 100.903148,2.34080501 101.216634,2.41890154 Z M65.2490485,2.2300938 L65.6659047,4.18963051 L65.9785456,5.65927702 C66.0390196,5.94355014 65.8817844,6.22350294 65.6194714,6.3256347 L65.5281045,6.35289546 L65.5281045,6.35289546 C65.2120859,6.42001189 64.9014758,6.21829934 64.8342533,5.90230324 L64.1047562,2.47312002 C64.0375628,2.157261 64.2391462,1.84673571 64.5550052,1.77954238 C64.8712158,1.71238515 65.181826,1.9140977 65.2490485,2.2300938 Z M98.4448028,1.77950158 C98.7606844,1.8465889 98.9623719,2.15704652 98.8952846,2.47292807 L98.8952438,2.47312002 L98.4783876,4.43265673 L98.1657467,5.90230324 C98.0985242,6.21829934 97.7879141,6.42001189 97.4718955,6.35289546 C97.1876021,6.29251687 96.9958058,6.03500835 97.0091961,5.75383277 L97.0214544,5.65927702 L97.0214544,5.65927702 L97.7509515,2.2300938 C97.818174,1.9140977 98.1287842,1.71238515 98.4448028,1.77950158 Z M68.0253659,1.71167213 L68.3735227,3.68453878 L68.6346386,5.1641796 C68.6851504,5.45040979 68.5182228,5.72471776 68.2524857,5.81763158 L68.1602473,5.84168074 L68.1602473,5.84168074 C67.8420819,5.89773562 67.5386996,5.68530509 67.4825549,5.36715549 L66.8732822,1.91464802 C66.817158,1.59661448 67.0294775,1.29329972 67.347511,1.23717554 C67.6658389,1.181092 67.9692212,1.39352253 68.0253659,1.71167213 Z M95.6523265,1.23714688 C95.9385709,1.28757787 96.1392435,1.53825737 96.1356664,1.81974695 L96.1267178,1.91464802 L96.1267178,1.91464802 L95.778561,3.88751467 L95.5174451,5.36715549 C95.4613004,5.68530509 95.1579181,5.89773562 94.8397527,5.84168074 C94.5535083,5.79124976 94.3528357,5.54057025 94.3564128,5.25908067 L94.3653614,5.1641796 L94.3653614,5.1641796 L94.9746341,1.71167213 C95.0307788,1.39352253 95.3341611,1.181092 95.6523265,1.23714688 Z M92.8426077,0.7924982 C93.162438,0.837410346 93.3853033,1.13309254 93.3403911,1.45292285 L93.3403726,1.45305456 L93.0613383,3.43684957 L92.8520641,4.92468403 C92.807066,5.24459818 92.5112819,5.46748748 92.1913575,5.42256213 C91.9035102,5.3821412 91.6942047,5.13859653 91.687963,4.8571355 L91.6935926,4.76200576 L91.6935926,4.76200576 L92.1819011,1.2903763 C92.2268992,0.97046215 92.5226833,0.747572846 92.8426077,0.7924982 Z M70.8180989,1.2903763 L71.0971332,3.27417131 L71.3064074,4.76200576 C71.3468938,5.04984385 71.170476,5.31817128 70.9016388,5.40175237 L70.8086425,5.42256213 L70.8086425,5.42256213 C70.4887181,5.46748748 70.192934,5.24459818 70.1479359,4.92468403 L69.6596274,1.45305456 C69.6146425,1.13323447 69.8374405,0.837501598 70.1572606,0.792516711 C70.4773167,0.747572846 70.7731008,0.97046215 70.8180989,1.2903763 Z M73.6238452,0.966719503 L73.8334181,2.95902806 L73.9905963,4.45324559 C74.0210065,4.74234031 73.8353128,5.00435867 73.5637032,5.07850363 L73.4700634,5.09605026 L73.4700634,5.09605026 C73.14877,5.1297917 72.8609451,4.89671564 72.8271485,4.57542803 L72.4603973,1.08890194 C72.4266083,0.76768559 72.6596141,0.479896836 72.9808305,0.446107767 C73.3022236,0.412355836 73.5900486,0.645431898 73.6238452,0.966719503 Z M90.0190698,0.44609728 C90.3081697,0.476457844 90.5258544,0.71257041 90.5419083,0.993660259 L90.5396027,1.08890194 L90.5396027,1.08890194 L90.3300297,3.08121049 L90.1728515,4.57542803 C90.1390549,4.89671564 89.85123,5.1297917 89.5299366,5.09605026 C89.2408366,5.06568969 89.0231519,4.82957713 89.007098,4.54848728 L89.0094037,4.45324559 L89.0094037,4.45324559 L89.3761548,0.966719503 C89.4099514,0.645431898 89.6977764,0.412355836 90.0190698,0.44609728 Z M87.1851526,0.198366155 C87.4751533,0.218628254 87.7009531,0.447020394 87.7268008,0.727396775 L87.7278201,0.82263372 L87.7278201,0.82263372 L87.5879632,2.82103073 L87.4830716,4.31981312 C87.4605178,4.64208138 87.1810032,4.88505971 86.8587324,4.86254293 C86.5687317,4.84228083 86.3429319,4.61388869 86.3170842,4.33351231 L86.3160649,4.23827536 L86.3160649,4.23827536 L86.5608134,0.741095967 C86.5833671,0.418827701 86.8628818,0.175849369 87.1851526,0.198366155 Z M75.8147804,0.19837084 C76.1371182,0.175849369 76.4166329,0.418827701 76.4391866,0.741095967 L76.5790435,2.73949298 L76.6839351,4.23827536 C76.7042305,4.52827374 76.5094864,4.78366211 76.2354359,4.84827907 L76.1412676,4.86254293 L76.1412676,4.86254293 C75.8189968,4.88505971 75.5394822,4.64208138 75.5169284,4.31981312 L75.2721799,0.82263372 C75.2496295,0.500413298 75.49256,0.220921287 75.8147804,0.19837084 Z M78.6556736,0.0495904194 C78.978543,0.038315572 79.2494087,0.29089466 79.2606923,0.613746883 L79.3306638,2.6158181 L79.383141,4.11732913 C79.3932959,4.40788531 79.1897322,4.65633792 78.9135674,4.71134829 L78.8190002,4.72231354 L78.8190002,4.72231354 C78.4961477,4.7335878 78.225282,4.48100871 78.2139984,4.15815649 L78.0915496,0.654574244 C78.0802665,0.331734038 78.3328334,0.0608735541 78.6556736,0.0495904194 Z M84.3443096,0.0495898314 C84.634866,0.0597362872 84.8685072,0.280142035 84.9041112,0.559472466 L84.9084504,0.654574244 L84.9084504,0.654574244 L84.8384794,2.65662728 L84.7860006,4.1581844 C84.7747171,4.48103662 84.5038513,4.73361571 84.1809988,4.72234145 C83.8904423,4.712195 83.6568012,4.49178925 83.6211971,4.21245882 L83.616858,4.11735704 L83.616858,4.11735704 L83.7393077,0.613746883 C83.7505913,0.29089466 84.021457,0.038315572 84.3443096,0.0495898314 Z M81.5,0 C81.8230469,-5.93427603e-17 82.0849282,0.261881289 82.0849282,0.58492823 L82.0849282,4.09063799 C82.0849282,4.41368493 81.8230469,4.67556622 81.5,4.67556622 C81.1769531,4.67556622 80.9150718,4.41368493 80.9150718,4.09063799 L80.9150718,0.58492823 C80.9150718,0.261881289 81.1769531,5.93427603e-17 81.5,0 Z" id="path-1"></path>
    </defs>
    <g id="页面-1" stroke="none" stroke-width="1" fill="none" fill-rule="evenodd">
        <g id="编组-137" transform="translate(0.000000, -0.000000)">
            <g id="编组-86" transform="translate(8.000000, 8.000000)">
                <g id="编组-9备份-3">
                    <g id="编组-8备份">
                        <polygon id="路径-4" fill="#C7C7C7" points="87 97.6394375 91.8837209 94.7317452 150 97.6394375 91.8837209 101.031745"></polygon>
                        <g id="编组-7" stroke-width="15">
                            <g id="编组-4">
                                <path d="M159.902161,162.8058 C177.835522,145.596626 189,121.380203 189,94.5546689 C189,42.3335672 146.690909,0 94.5,0 C42.3090911,0 0,42.3335672 0,94.5546689 C0,121.359262 11.1470533,145.558815 29.0558529,162.765485" id="形状" stroke="#C2C2C2"></path>
                                <path d="M160.207031,162.515837 C177.952498,145.384919 189,121.278617 189,94.5750673 C189,91.0729995 188.809991,87.6156026 188.439783,84.212752" id="形状" stroke="#ECECEC"></path>
                                <path d="M0.63048993,83.4740436 C0.214071267,87.0835817 0,90.7552847 0,94.477345 C0,121.214221 11.0461998,145.352638 28.7929688,162.515837" id="形状" stroke="#C2C2C2"></path>
                            </g>
                        </g>
                    </g>
                    <g id="编组-15备份" transform="translate(13.000000, 14.000000)" fill="#DCDCDC">
                        <text id="0" font-family="PingFangSC-Medium, PingFang SC" font-size="12" font-weight="400">
                            <tspan x="20" y="125">0</tspan>
                        </text>
                        <text id="20%" font-family="PingFangSC-Medium, PingFang SC" font-size="12" font-weight="400">
                            <tspan x="13" y="66">20%</tspan>
                        </text>
                        <text id="40%" font-family="PingFangSC-Medium, PingFang SC" font-size="12" font-weight="400">
                            <tspan x="42" y="27">40%</tspan>
                        </text>
                        <text id="60%" font-family="PingFangSC-Medium, PingFang SC" font-size="12" font-weight="400">
                            <tspan x="98" y="27">60%</tspan>
                        </text>
                        <text id="80%" font-family="PingFangSC-Medium, PingFang SC" font-size="12" font-weight="400">
                            <tspan x="123" y="66">80%</tspan>
                        </text>
                        <text id="100%" font-family="PingFangSC-Medium, PingFang SC" font-size="12" font-weight="400">
                            <tspan x="109" y="125">100%</tspan>
                        </text>
                        <g id="形状结合">
                            <use xlink:href="#path-1"></use>
                            <use xlink:href="#path-1"></use>
                        </g>
                    </g>
                </g>
                <text id="Proportion：88.5%备份-2" font-family="PingFangSC-Medium, PingFang SC" font-size="14" font-weight="400" fill="#DCDCDC">
                    <tspan x="32" y="221">Proportion：88.5%</tspan>
                </text>
                <text id="309.8W备份-2" font-family="PingFangSC-Medium, PingFang SC" font-size="22" font-weight="400" fill="#C2C2C2">
                    <tspan x="55" y="199">309.8W</tspan>
                </text>
                <text id="Amount-of-profit备份-2" font-family="PingFangSC-Medium, PingFang SC" font-size="14" font-weight="400" fill="#E0E0E0">
                    <tspan x="40" y="169">Amount of profit</tspan>
                </text>
            </g>
        </g>
    </g>
</svg>