<?xml version="1.0" encoding="UTF-8"?>
<svg width="271px" height="194px" viewBox="0 0 271 194" version="1.1" xmlns="http://www.w3.org/2000/svg" xmlns:xlink="http://www.w3.org/1999/xlink">
    <title>雷达图</title>
    <g id="页面-1" stroke="none" stroke-width="1" fill="none" fill-rule="evenodd">
        <g id="编组-97" transform="translate(0.000000, 0.270641)">
            <g id="编组">
                <g transform="translate(45.782749, 18.517338)" id="路径" stroke="#E9E9E9" stroke-dasharray="0,0">
                    <path d="M80.2746339,82.4490829 L80.2746339,70.6706425 L80.2746339,58.8922021 L80.2746339,47.1137617 L80.2746339,35.3353212 L80.2746339,23.5568808 L80.2746339,11.7784404 L80.2746339,0"></path>
                    <path d="M80.2746339,82.4490829 L89.4710993,75.1053454 L98.6675648,67.7616079 L107.86403,60.4178705 L117.060496,53.074133 L126.256961,45.7303955 L135.453427,38.386658 L144.649892,31.0429205"></path>
                    <path d="M80.2746339,82.4490829 L91.7424387,85.0700325 L103.210244,87.690982 L114.678048,90.3119316 L126.145853,92.9328812 L137.613658,95.5538307 L149.081463,98.1747803 L160.549268,100.79573"></path>
                    <path d="M80.2746339,82.4490829 L85.3782872,93.061091 L90.4819404,103.673099 L95.5855937,114.285107 L100.689247,124.897115 L105.7929,135.509124 L110.896554,146.121132 L116.000207,156.73314"></path>
                    <path d="M80.2746339,82.4490829 L75.1709806,93.061091 L70.0673273,103.673099 L64.963674,114.285107 L59.8600207,124.897115 L54.7563674,135.509124 L49.6527142,146.121132 L44.5490609,156.73314"></path>
                    <path d="M80.2746339,82.4490829 L68.806829,85.0700325 L57.3390242,87.690982 L45.8712194,90.3119316 L34.4034145,92.9328812 L22.9356097,95.5538307 L11.4678048,98.1747803 L0,100.79573"></path>
                    <path d="M80.2746339,82.4490829 L71.0781684,75.1053454 L61.881703,67.7616079 L52.6852375,60.4178705 L43.4887721,53.074133 L34.2923066,45.7303955 L25.0958412,38.386658 L15.8993757,31.0429205"></path>
                    <path d="M80.2746339,82.4490829 L80.2746339,70.6706425 L80.2746339,58.8922021 L80.2746339,47.1137617 L80.2746339,35.3353212 L80.2746339,23.5568808 L80.2746339,11.7784404 L80.2746339,0"></path>
                </g>
                <g fill="#C2C2C2" fill-rule="nonzero" font-family="Helvetica" font-weight="normal">
                    <text id="Northeast" font-size="12">
                        <tspan x="105.932947" y="11">Northeast</tspan>
                    </text>
                    <text id="Southwest" font-size="12">
                        <tspan x="207.626829" y="50.4907534">Southwest</tspan>
                    </text>
                    <text id="Northwest" font-size="12">
                        <tspan x="215.698653" y="124.682353">Northwest</tspan>
                    </text>
                    <text id="South" font-size="10">
                        <tspan x="153.800998" y="190.458717">South</tspan>
                    </text>
                    <text id="North" font-size="12">
                        <tspan x="72.3010087" y="190.458717">North</tspan>
                    </text>
                    <text id="Central" font-size="12">
                        <tspan x="0" y="124.682353">Central</tspan>
                    </text>
                    <text id="East" font-size="12">
                        <tspan x="27.1431803" y="46.0117238">East</tspan>
                    </text>
                </g>
            </g>
            <path d="M126.5,89.7293586 L135.722284,94.0867284 L138,103.877649 L131.617981,111.729359 L121.382019,111.729359 L115,103.877649 L117.277716,94.0867284 L126.5,89.7293586" id="路径" stroke="#E9E9E9" stroke-dasharray="0,0"></path>
            <path d="M126,76.7293586 L144.444568,85.6421604 L149,105.669044 L136.235963,121.729359 L115.764037,121.729359 L103,105.669044 L107.555432,85.6421604 L126,76.7293586" id="路径" stroke="#E9E9E9" stroke-dasharray="0,0"></path>
            <path d="M126.5,65.7293586 L154.166852,78.9995303 L161,108.817335 L141.853944,132.729359 L111.146056,132.729359 L92,108.817335 L98.8331481,78.9995303 L126.5,65.7293586" id="路径" stroke="#E9E9E9" stroke-dasharray="0,0"></path>
            <path d="M126,53.7293586 L162.889136,71.5549623 L172,111.60873 L146.471926,143.729359 L105.528074,143.729359 L80,111.60873 L89.1108642,71.5549623 L126,53.7293586" id="路径" stroke="#E9E9E9" stroke-dasharray="0,0"></path>
            <path d="M126,41.7293586 L172.512389,63.9123321 L184,113.757021 L151.812428,153.729359 L100.187572,153.729359 L68,113.757021 L79.4876113,63.9123321 L126,41.7293586" id="路径" stroke="#E9E9E9" stroke-dasharray="0,0"></path>
            <path d="M126,30.7293586 L181.333704,57.269702 L195,116.905312 L156.707889,164.729359 L95.2921111,164.729359 L57,116.905312 L70.6662962,57.269702 L126,30.7293586" id="路径" stroke="#E9E9E9" stroke-dasharray="0,0"></path>
            <path d="M126,18.7293586 L190.155019,49.825134 L206,119.696707 L161.603349,175.729359 L90.3966506,175.729359 L46,119.696707 L61.8449811,49.825134 L126,18.7293586" id="路径" stroke="#E9E9E9" stroke-dasharray="0,0"></path>
            <polygon id="路径" fill="#C2C2C2" fill-rule="nonzero" opacity="0.6" points="125.721519 48.7293586 168.386637 67.2290593 191 116.61588 143.923168 139.729359 118.014971 117.729749 92 109.345025 112.2916 90.7640574 125.721519 48.7293586 125.721519 101.575447 125.721519 101.575447 125.721519 101.575447 125.721519 101.575447 125.721519 101.575447 125.721519 101.575447 125.721519 101.575447 125.721519 101.575447"></polygon>
            <polygon id="路径" fill="#F1F1F1" fill-rule="nonzero" opacity="0.6" points="126.089989 29.7293586 145.59629 85.7249927 176 112.842451 151.621075 154.729359 107.656545 139.897937 74 113.343157 79.6245076 64.0900796 126.089989 29.7293586 126.089989 101.378923 126.089989 101.378923 126.089989 101.378923 126.089989 101.378923 126.089989 101.378923 126.089989 101.378923 126.089989 101.378923 126.089989 101.378923"></polygon>
            <polygon id="路径" stroke="#C2C2C2" stroke-width="1.2" points="125.721519 48.7293586 168.386637 67.2290593 191 116.61588 143.923168 139.729359 118.014971 117.729749 92 109.345025 112.2916 90.7640574"></polygon>
            <polygon id="路径" stroke="#D6D6D6" stroke-width="1.2" points="126.089989 29.7293586 145.59629 85.7249927 176 112.842451 151.621075 154.729359 107.656545 139.897937 74 113.343157 79.6245076 64.0900796"></polygon>
        </g>
    </g>
</svg>