<?xml version="1.0" encoding="UTF-8"?>
<svg width="402px" height="190px" viewBox="0 0 402 190" version="1.1" xmlns="http://www.w3.org/2000/svg" xmlns:xlink="http://www.w3.org/1999/xlink">
    <title>矩形树图</title>
    <g id="页面-1" stroke="none" stroke-width="1" fill="none" fill-rule="evenodd">
        <g id="编组-129" fill-rule="nonzero">
            <g id="编组-98" transform="translate(1.000000, 1.000000)">
                <g id="编组-54备份-2" transform="translate(0.000000, 0.000000)" stroke="#FFFFFF">
                    <polygon id="路径" fill="#F5F5F5" points="0 0 187.531172 0 187.531172 92.7680798 0 92.7680798"></polygon>
                    <polygon id="路径备份-2" fill="#EBEBEB" points="0 93.765586 187.531172 93.765586 187.531172 186.533666 0 186.533666"></polygon>
                    <polygon id="路径" fill="#E0E0E0" points="188.528678 0 344.139651 0 344.139651 116.708229 188.528678 116.708229"></polygon>
                    <polygon id="路径" fill="#D6D6D6" points="188.528678 117.705736 344.139651 117.705736 344.139651 187.531172 188.528678 187.531172"></polygon>
                    <polygon id="路径" fill="#EAEAEA" points="345.137157 0 400 0 400 84.7880299 345.137157 84.7880299"></polygon>
                    <polygon id="路径" fill="#E0E0E0" points="345.137157 85.7855362 400 85.7855362 400 131.670823 345.137157 131.670823"></polygon>
                    <polygon id="路径" fill="#D1D1D1" points="345.137157 133.665835 400 133.665835 400 148.628429 345.137157 148.628429"></polygon>
                    <polygon id="路径" fill="#C2C2C2" points="345.137157 149.625935 400 149.625935 400 187.531172 345.137157 187.531172"></polygon>
                </g>
                <text id="Northeast" font-family="Helvetica" font-size="12" font-weight="normal" fill="#C2C2C2">
                    <tspan x="69" y="62">Northeast</tspan>
                </text>
                <text id="Southwest" font-family="Helvetica" font-size="12" font-weight="normal" fill="#C2C2C2">
                    <tspan x="67" y="148">Southwest</tspan>
                </text>
                <text id="Northwest" font-family="Helvetica" font-size="12" font-weight="normal" fill="#C2C2C2">
                    <tspan x="235" y="163">Northwest</tspan>
                </text>
                <text id="South" font-family="Helvetica" font-size="12" font-weight="normal" fill="#C2C2C2">
                    <tspan x="357" y="115">South</tspan>
                </text>
                <text id="Central" font-family="Helvetica" font-size="10" font-weight="normal" fill="#C2C2C2">
                    <tspan x="356" y="47">Central</tspan>
                </text>
                <text id="East" font-family="Helvetica" font-size="12" font-weight="normal" fill="#C2C2C2">
                    <tspan x="250" y="60">East</tspan>
                </text>
                <text id="North备份" font-family="Helvetica" font-size="12" font-weight="normal" fill="#ADACAC">
                    <tspan x="359" y="173">North</tspan>
                </text>
                <text id="West" font-family="Helvetica" font-size="11" font-weight="normal" fill="#ADACAC">
                    <tspan x="361" y="145">West</tspan>
                </text>
            </g>
        </g>
    </g>
</svg>