<?xml version="1.0" encoding="UTF-8"?>
<svg width="416px" height="214px" viewBox="0 0 416 214" version="1.1" xmlns="http://www.w3.org/2000/svg" xmlns:xlink="http://www.w3.org/1999/xlink">
    <title>气泡图</title>
    <g id="页面-1" stroke="none" stroke-width="1" fill="none" fill-rule="evenodd">
        <g id="编组-102">
            <g id="编组" transform="translate(72.500000, 171.000000)">
                <line x1="0" y1="0.355082086" x2="341.314983" y2="0.355082086" id="路径" stroke="#ECECEC"></line>
                <g transform="translate(6.545713, 6.456724)" fill="#E0E0E0" fill-rule="nonzero" font-family="Helvetica" font-size="12" font-weight="normal">
                    <text id="2016">
                        <tspan x="0" y="11">2016</tspan>
                    </text>
                    <text id="2017">
                        <tspan x="51.1890452" y="11">2017</tspan>
                    </text>
                    <text id="2018">
                        <tspan x="102.37809" y="11">2018</tspan>
                    </text>
                    <text id="2019">
                        <tspan x="153.567136" y="11">2019</tspan>
                    </text>
                    <text id="2020">
                        <tspan x="204.756181" y="11">2020</tspan>
                    </text>
                    <text id="2021">
                        <tspan x="255.945226" y="11">2021</tspan>
                    </text>
                    <text id="2022">
                        <tspan x="307.134271" y="11">2022</tspan>
                    </text>
                </g>
            </g>
            <g id="编组-114" transform="translate(39.500000, 30.000000)" fill="#DCDCDC" fill-rule="nonzero" font-family="Helvetica" font-size="12" font-weight="normal">
                <text id="1.0W">
                    <tspan x="0" y="140.079008">1.0W</tspan>
                </text>
                <text id="2.5W">
                    <tspan x="0.161802455" y="75.5395039">2.5W</tspan>
                </text>
                <text id="1.5W">
                    <tspan x="0" y="107.809256">1.5W</tspan>
                </text>
                <text id="3W">
                    <tspan x="0.161802455" y="43.2697519">3W</tspan>
                </text>
                <text id="3.5W">
                    <tspan x="0.161802455" y="11">3.5W</tspan>
                </text>
            </g>
            <text id="Order-date(quarter)" fill-rule="nonzero" font-family="Helvetica" font-size="12" font-weight="normal" fill="#DCDCDC">
                <tspan x="191.5" y="211">Order date(quarter)</tspan>
            </text>
            <text id="Order-quantity" fill-rule="nonzero" transform="translate(7.000000, 102.000000) scale(-1, -1) rotate(90.000000) translate(-7.000000, -102.000000) " font-family="Helvetica" font-size="12" font-weight="normal" fill="#E0E0E0">
                <tspan x="-31.5" y="106">Order quantity</tspan>
            </text>
            <g id="编组-37备份" transform="translate(128.500000, 0.000000)" fill-rule="nonzero">
                <g id="编组-54">
                    <g id="编组-32" transform="translate(63.000000, 0.000000)">
                        <path d="M2.84405558,4 C4.4147841,4 5.68811115,5.27332705 5.68811115,6.84405558 L5.68811115,7.10284708 C5.68811115,8.6735756 4.4147841,9.94690265 2.84405558,9.94690265 C1.27332705,9.94690265 -2.51730444e-16,8.6735756 0,7.10284708 L0,6.84405558 C-6.36447976e-16,5.27332705 1.27332705,4 2.84405558,4 Z" id="路径" fill-opacity="0.85" fill="#ECECEC"></path>
                        <text id="lndex2" font-family="Helvetica" font-size="12" font-weight="normal" fill="#E0E0E0">
                            <tspan x="11" y="11">lndex2</tspan>
                        </text>
                    </g>
                    <g id="编组-32备份">
                        <path d="M2.84405558,4 C4.4147841,4 5.68811115,5.27332705 5.68811115,6.84405558 L5.68811115,7.10284708 C5.68811115,8.6735756 4.4147841,9.94690265 2.84405558,9.94690265 C1.27332705,9.94690265 -2.51730444e-16,8.6735756 0,7.10284708 L0,6.84405558 C-6.36447976e-16,5.27332705 1.27332705,4 2.84405558,4 Z" id="路径" fill-opacity="0.85" fill="#ECECEC"></path>
                        <text id="lndex1" font-family="Helvetica" font-size="12" font-weight="normal" fill="#E0E0E0">
                            <tspan x="11" y="11">lndex1</tspan>
                        </text>
                    </g>
                    <g id="编组-26" transform="translate(126.000000, 0.000000)">
                        <path d="M2.84405558,4 C4.4147841,4 5.68811115,5.27332705 5.68811115,6.84405558 L5.68811115,7.10284708 C5.68811115,8.6735756 4.4147841,9.94690265 2.84405558,9.94690265 C1.27332705,9.94690265 1.08053719e-15,8.6735756 0,7.10284708 L0,6.84405558 C2.51730444e-16,5.27332705 1.27332705,4 2.84405558,4 Z" id="路径" fill-opacity="0.85" fill="#C2C2C2"></path>
                        <text id="lndex3" font-family="Helvetica" font-size="12" font-weight="normal" fill="#E0E0E0">
                            <tspan x="11" y="11">lndex3</tspan>
                        </text>
                    </g>
                </g>
            </g>
            <g id="编组" transform="translate(72.500000, 28.000000)" fill-rule="nonzero">
                <polygon id="路径" fill-opacity="0" fill="#FFFFFF" points="0 0 289 0 289 144 0 144"></polygon>
                <g transform="translate(10.855518, 16.249829)">
                    <path d="M25.1353323,95.6857494 C25.1353323,102.672956 30.8205482,108.337205 37.8336175,108.337205 C44.8466868,108.337205 50.5319028,102.672956 50.5319028,95.6857494 C50.5319028,88.6985432 44.8466868,83.0342935 37.8336175,83.0342935 C30.8205482,83.0342935 25.1353323,88.6985432 25.1353323,95.6857494" id="路径" fill="#CBCBCB" opacity="0.6"></path>
                    <g id="编组-58" transform="translate(255.804041, 60.363039)" opacity="0.6">
                        <path d="M5.26620372,14.1878167 C5.26620372,19.2566353 7.98039547,23.9404169 12.3863697,26.4748263 C16.7923439,29.0092357 22.2207281,29.0092357 26.6267024,26.4748263 C31.0326766,23.9404169 33.7468684,19.2566353 33.7468684,14.1878167 C33.7468684,9.11899805 31.0326766,4.4352164 26.6267024,1.90080703 C22.2207281,-0.633602343 16.7923439,-0.633602343 12.3863697,1.90080703 C7.98039547,4.4352164 5.26620372,9.11899805 5.26620372,14.1878167" id="路径" fill="#E9E9E9"></path>
                        <path d="M26.5200276,12.6116365 C26.5200276,15.7718971 29.0914078,18.3337944 32.263366,18.3337944 C35.4353242,18.3337944 38.0067045,15.7718971 38.0067045,12.6116365 C38.0067045,9.45137601 35.4353242,6.88947867 32.263366,6.88947867 C29.0914078,6.88947867 26.5200276,9.45137601 26.5200276,12.6116365" id="路径" fill="#F4F4F4"></path>
                        <path d="M0,22.2120065 C0,23.6925669 1.20467402,24.8927983 2.69071473,24.8927983 C4.17675543,24.8927983 5.38142945,23.6925669 5.38142945,22.2120065 C5.38142945,20.7314461 4.17675543,19.5312147 2.69071473,19.5312147 C1.20467402,19.5312147 0,20.7314461 0,22.2120065" id="路径" fill="#F4F4F4"></path>
                    </g>
                    <path d="M166.132383,42.9553592 C166.132383,50.210971 172.03599,56.0928065 179.318459,56.0928065 C186.600927,56.0928065 192.504535,50.210971 192.504535,42.9553592 C192.504535,38.2618011 189.991283,33.9247745 185.911497,31.5779953 C181.831711,29.2312162 176.805207,29.2312162 172.725421,31.5779953 C168.645635,33.9247745 166.132383,38.2618011 166.132383,42.9553592" id="路径" fill="#F2F2F2" opacity="0.6"></path>
                    <path d="M74.6688358,111.447551 C74.6688358,115.906549 78.2969476,119.52128 82.7724504,119.52128 C87.2479531,119.52128 90.8760649,115.906549 90.8760649,111.447551 C90.8760649,108.563085 89.3315248,105.897729 86.8242577,104.455496 C84.3169906,103.013263 81.2279101,103.013263 78.720643,104.455496 C76.2133759,105.897729 74.6688358,108.563085 74.6688358,111.447551" id="路径" fill="#F2F2F2" opacity="0.6"></path>
                    <path d="M178.450996,7.36825807 C178.450996,11.4376346 181.762089,14.7365161 185.846528,14.7365161 C189.930968,14.7365161 193.24206,11.4376346 193.24206,7.36825807 C193.24206,3.29888151 189.930968,0 185.846528,0 C181.762089,0 178.450996,3.29888151 178.450996,7.36825807" id="路径" fill="#F2F2F2" opacity="0.6"></path>
                    <path d="M25.6637385,33.133759 C25.6637385,39.9564585 31.2151018,45.4873492 38.0630555,45.4873492 C44.9110091,45.4873492 50.4623724,39.9564585 50.4623724,33.133759 C50.4623724,26.3110596 44.9110091,20.7801689 38.0630555,20.7801689 C31.2151018,20.7801689 25.6637385,26.3110596 25.6637385,33.133759" id="路径备份-49" fill="#CBCBCB" opacity="0.6"></path>
                    <path d="M143.207307,46.9674541 C143.207307,55.9893485 150.548069,63.303039 159.603358,63.303039 C168.658647,63.303039 175.999409,55.9893485 175.999409,46.9674541 C175.999409,37.9455596 168.658647,30.6318692 159.603358,30.6318692 C150.548069,30.6318692 143.207307,37.9455596 143.207307,46.9674541" id="路径" fill="#CBCBCB" opacity="0.6"></path>
                    <path d="M14.0468776,46.3163566 C14.0468776,51.5545966 18.3090284,55.8010292 23.5666578,55.8010292 C28.8242872,55.8010292 33.086438,51.5545966 33.086438,46.3163566 C33.086438,41.0781165 28.8242872,36.831684 23.5666578,36.831684 C18.3090284,36.831684 14.0468776,41.0781165 14.0468776,46.3163566" id="路径备份-56" fill="#F4F4F4" opacity="0.6"></path>
                    <path d="M0,111.877418 C0,116.422998 3.69856058,120.107919 8.26096626,120.107919 C12.8233719,120.107919 16.5219325,116.422998 16.5219325,111.877418 C16.5219325,107.331838 12.8233719,103.646917 8.26096626,103.646917 C3.69856058,103.646917 0,107.331838 0,111.877418" id="路径" fill="#DDDDDD" opacity="0.6"></path>
                    <path d="M59.6046662,72.3386966 C59.6046662,74.4859421 61.3517957,76.2266285 63.5069893,76.2266285 C65.6621828,76.2266285 67.4093124,74.4859421 67.4093124,72.3386966 C67.4093124,70.1914511 65.6621828,68.4507647 63.5069893,68.4507647 C61.3517957,68.4507647 59.6046662,70.1914511 59.6046662,72.3386966" id="路径" fill="#DDDDDD" opacity="0.5"></path>
                    <path d="M234.330856,18.1633205 C234.330856,24.7907375 239.723326,30.1633205 246.375274,30.1633205 C253.027223,30.1633205 258.419693,24.7907375 258.419693,18.1633205 C258.419693,11.5359035 253.027223,6.16332048 246.375274,6.16332048 C239.723326,6.16332048 234.330856,11.5359035 234.330856,18.1633205" id="路径" fill="#CBCBCB" opacity="0.6"></path>
                    <path d="M88.3737838,50.4063926 C88.3737838,55.939013 92.8754604,60.4240881 98.4285599,60.4240881 C103.981659,60.4240881 108.483336,55.939013 108.483336,50.4063926 C108.483336,44.8737721 103.981659,40.388697 98.4285599,40.388697 C92.8754604,40.388697 88.3737838,44.8737721 88.3737838,50.4063926" id="路径" fill="#F2F2F2" opacity="0.6"></path>
                    <path d="M22.1387645,32.4173135 C22.1387645,34.7983317 24.0761058,36.7285283 26.4659373,36.7285283 C28.8557689,36.7285283 30.7931101,34.7983317 30.7931101,32.4173135 C30.7931101,30.0362953 28.8557689,28.1060987 26.4659373,28.1060987 C24.0761058,28.1060987 22.1387645,30.0362953 22.1387645,32.4173135" id="路径备份-57" fill="#F4F4F4" opacity="0.6"></path>
                    <path d="M56.7508689,84.6524884 C56.7508689,91.9513914 62.6897004,97.8683215 70.0156204,97.8683215 C77.3415404,97.8683215 83.2803719,91.9513914 83.2803719,84.6524884 C83.2803719,77.3535853 77.3415404,71.4366553 70.0156204,71.4366553 C62.6897004,71.4366553 56.7508689,77.3535853 56.7508689,84.6524884" id="路径" fill="#CBCBCB" opacity="0.6"></path>
                    <path d="M311.572154,90.2407634 C311.572154,95.8253334 316.1161,100.352522 321.721341,100.352522 C327.326582,100.352522 331.870528,95.8253334 331.870528,90.2407634 C331.870528,84.6561934 327.326582,80.129005 321.721341,80.129005 C316.1161,80.129005 311.572154,84.6561934 311.572154,90.2407634" id="路径" fill="#E9E9E9" opacity="0.6"></path>
                    <path d="M252.633386,15.4438512 C252.633386,18.3357061 254.986375,20.6800176 257.888934,20.6800176 C260.791493,20.6800176 263.144482,18.3357061 263.144482,15.4438512 C263.144482,12.5519964 260.791493,10.2076849 257.888934,10.2076849 C254.986375,10.2076849 252.633386,12.5519964 252.633386,15.4438512" id="路径" fill="#F4F4F4" opacity="0.6"></path>
                    <path d="M234.549027,102.133759 C234.549027,108.116608 239.417037,112.966666 245.422032,112.966666 C251.427027,112.966666 256.295038,108.116608 256.295038,102.133759 C256.295038,96.1509097 251.427027,91.300852 245.422032,91.300852 C239.417037,91.300852 234.549027,96.1509097 234.549027,102.133759" id="路径" fill="#E9E9E9" opacity="0.6"></path>
                    <path d="M189.468942,10.9504857 C189.468942,12.7860342 190.962456,14.2740404 192.804799,14.2740404 C194.647142,14.2740404 196.140656,12.7860342 196.140656,10.9504857 C196.140656,9.11493709 194.647142,7.62693096 192.804799,7.62693096 C190.962456,7.62693096 189.468942,9.11493709 189.468942,10.9504857" id="路径" fill="#EBEBEB" opacity="0.6"></path>
                </g>
            </g>
        </g>
    </g>
</svg>