<?xml version="1.0" encoding="UTF-8"?>
<svg width="845px" height="199px" viewBox="0 0 845 199" version="1.1" xmlns="http://www.w3.org/2000/svg" xmlns:xlink="http://www.w3.org/1999/xlink">
    <title>明细表</title>
    <defs>
        <polygon id="path-1" points="0 0 844 0 844 28 0 28"></polygon>
        <filter x="-0.1%" y="-1.8%" width="100.1%" height="103.6%" filterUnits="objectBoundingBox" id="filter-2">
            <feOffset dx="0" dy="1" in="SourceAlpha" result="shadowOffsetInner1"></feOffset>
            <feComposite in="shadowOffsetInner1" in2="SourceAlpha" operator="arithmetic" k2="-1" k3="1" result="shadowInnerInner1"></feComposite>
            <feColorMatrix values="0 0 0 0 0.866666667   0 0 0 0 0.866666667   0 0 0 0 0.866666667  0 0 0 1 0" type="matrix" in="shadowInnerInner1"></feColorMatrix>
        </filter>
        <polygon id="path-3" points="0 0 844 0 844 28 0 28"></polygon>
        <filter x="-0.1%" y="-1.8%" width="100.1%" height="103.6%" filterUnits="objectBoundingBox" id="filter-4">
            <feOffset dx="0" dy="1" in="SourceAlpha" result="shadowOffsetInner1"></feOffset>
            <feComposite in="shadowOffsetInner1" in2="SourceAlpha" operator="arithmetic" k2="-1" k3="1" result="shadowInnerInner1"></feComposite>
            <feColorMatrix values="0 0 0 0 0.866666667   0 0 0 0 0.866666667   0 0 0 0 0.866666667  0 0 0 1 0" type="matrix" in="shadowInnerInner1"></feColorMatrix>
        </filter>
        <polygon id="path-5" points="0 0 844 0 844 28 0 28"></polygon>
        <filter x="-0.1%" y="-1.8%" width="100.1%" height="103.6%" filterUnits="objectBoundingBox" id="filter-6">
            <feOffset dx="0" dy="1" in="SourceAlpha" result="shadowOffsetInner1"></feOffset>
            <feComposite in="shadowOffsetInner1" in2="SourceAlpha" operator="arithmetic" k2="-1" k3="1" result="shadowInnerInner1"></feComposite>
            <feColorMatrix values="0 0 0 0 0.866666667   0 0 0 0 0.866666667   0 0 0 0 0.866666667  0 0 0 1 0" type="matrix" in="shadowInnerInner1"></feColorMatrix>
        </filter>
        <polygon id="path-7" points="0 114 844 114 844 142 0 142"></polygon>
        <filter x="-0.1%" y="-1.8%" width="100.1%" height="103.6%" filterUnits="objectBoundingBox" id="filter-8">
            <feOffset dx="0" dy="1" in="SourceAlpha" result="shadowOffsetInner1"></feOffset>
            <feComposite in="shadowOffsetInner1" in2="SourceAlpha" operator="arithmetic" k2="-1" k3="1" result="shadowInnerInner1"></feComposite>
            <feColorMatrix values="0 0 0 0 0.866666667   0 0 0 0 0.866666667   0 0 0 0 0.866666667  0 0 0 1 0" type="matrix" in="shadowInnerInner1"></feColorMatrix>
        </filter>
        <polygon id="path-9" points="0 170 844 170 844 198 0 198"></polygon>
        <filter x="-0.1%" y="-1.8%" width="100.1%" height="103.6%" filterUnits="objectBoundingBox" id="filter-10">
            <feOffset dx="0" dy="1" in="SourceAlpha" result="shadowOffsetInner1"></feOffset>
            <feComposite in="shadowOffsetInner1" in2="SourceAlpha" operator="arithmetic" k2="-1" k3="1" result="shadowInnerInner1"></feComposite>
            <feColorMatrix values="0 0 0 0 0.866666667   0 0 0 0 0.866666667   0 0 0 0 0.866666667  0 0 0 1 0" type="matrix" in="shadowInnerInner1"></feColorMatrix>
        </filter>
        <polygon id="path-11" points="0 0 844 0 844 28 0 28"></polygon>
        <filter x="-0.1%" y="-1.8%" width="100.1%" height="103.6%" filterUnits="objectBoundingBox" id="filter-12">
            <feOffset dx="0" dy="1" in="SourceAlpha" result="shadowOffsetInner1"></feOffset>
            <feComposite in="shadowOffsetInner1" in2="SourceAlpha" operator="arithmetic" k2="-1" k3="1" result="shadowInnerInner1"></feComposite>
            <feColorMatrix values="0 0 0 0 0.866666667   0 0 0 0 0.866666667   0 0 0 0 0.866666667  0 0 0 1 0" type="matrix" in="shadowInnerInner1"></feColorMatrix>
        </filter>
    </defs>
    <g id="页面-1" stroke="none" stroke-width="1" fill="none" fill-rule="evenodd">
        <g id="编组-14备份" transform="translate(0.000000, -0.000000)">
            <polygon id="Rectangle-2" fill="#EBEBEB" points="0 0 844 0 844 32 0 32"></polygon>
            <g id="9" transform="translate(0.000000, 142.000000)">
                <use fill="#FFFFFF" fill-rule="evenodd" xlink:href="#path-1"></use>
                <use fill="black" fill-opacity="1" filter="url(#filter-2)" xlink:href="#path-1"></use>
            </g>
            <g id="9" transform="translate(0.000000, 86.000000)">
                <use fill="#FFFFFF" fill-rule="evenodd" xlink:href="#path-3"></use>
                <use fill="black" fill-opacity="1" filter="url(#filter-4)" xlink:href="#path-3"></use>
            </g>
            <g id="9" transform="translate(0.000000, 58.000000)">
                <use fill="#F5F5F5" fill-rule="evenodd" xlink:href="#path-5"></use>
                <use fill="black" fill-opacity="1" filter="url(#filter-6)" xlink:href="#path-5"></use>
            </g>
            <g id="9">
                <use fill="#F5F5F5" fill-rule="evenodd" xlink:href="#path-7"></use>
                <use fill="black" fill-opacity="1" filter="url(#filter-8)" xlink:href="#path-7"></use>
            </g>
            <g id="9备份">
                <use fill="#F5F5F5" fill-rule="evenodd" xlink:href="#path-9"></use>
                <use fill="black" fill-opacity="1" filter="url(#filter-10)" xlink:href="#path-9"></use>
            </g>
            <g id="9" transform="translate(0.000000, 30.000000)">
                <use fill="#FFFFFF" fill-rule="evenodd" xlink:href="#path-11"></use>
                <use fill="black" fill-opacity="1" filter="url(#filter-12)" xlink:href="#path-11"></use>
            </g>
            <text id="Type-of-shipping" font-family="PingFangSC-Medium, PingFang SC" font-size="12" font-weight="400" line-spacing="28" fill="#BABABA">
                <tspan x="57" y="15">Type of shipping</tspan>
            </text>
            <g id="编组-3" transform="translate(12.000000, 30.000000)" fill="#BABABA" font-family="PingFangSC-Medium, PingFang SC" font-size="12" font-weight="400" line-spacing="28">
                <text id="Big-card">
                    <tspan x="0" y="13">Big card</tspan>
                </text>
                <text id="Big-card备份-4">
                    <tspan x="0" y="125">Big card</tspan>
                </text>
                <text id="Big-card备份-2">
                    <tspan x="0" y="69">Big card</tspan>
                </text>
                <text id="Big-card备份">
                    <tspan x="0" y="41">Big card</tspan>
                </text>
                <text id="Big-card备份-6">
                    <tspan x="0" y="153">Big card</tspan>
                </text>
                <text id="Big-card备份-3">
                    <tspan x="0" y="97">Big card</tspan>
                </text>
            </g>
            <g id="编组-3备份" transform="translate(269.000000, 30.000000)" fill="#BABABA" font-family="PingFangSC-Medium, PingFang SC" font-size="12" font-weight="400" line-spacing="28">
                <text id="113,814,343,213,414,">
                    <tspan x="5" y="125">113,814,343,213,414,343</tspan>
                </text>
                <text id="213,914,343,213,414,">
                    <tspan x="3" y="69">213,914,343,213,414,343</tspan>
                </text>
                <text id="213,814,343,213,414,">
                    <tspan x="3" y="41">213,814,343,213,414,343</tspan>
                </text>
                <text id="213,814,343,213,414,备份">
                    <tspan x="3" y="13">213,814,343,213,414,343</tspan>
                </text>
                <text id="663,814,343,213,414,">
                    <tspan x="0" y="153">663,814,343,213,414,343</tspan>
                </text>
                <text id="513,814,343,213,414,">
                    <tspan x="3" y="97">513,814,343,213,414,343</tspan>
                </text>
            </g>
            <g id="编组-3备份-2" transform="translate(515.000000, 30.000000)" fill="#BABABA" font-family="PingFangSC-Medium, PingFang SC" font-size="12" font-weight="400" line-spacing="28">
                <text id="134,893,134,942.4">
                    <tspan x="2" y="69">134,893,134,942.4</tspan>
                </text>
                <text id="134,313,373.3">
                    <tspan x="28" y="41">134,313,373.3</tspan>
                </text>
                <text id="134,313,373.3备份">
                    <tspan x="28" y="154">134,313,373.3</tspan>
                </text>
                <text id="345,345,134,299.5">
                    <tspan x="0" y="13">345,345,134,299.5</tspan>
                </text>
                <text id="345,345,134,299.5备份">
                    <tspan x="0" y="126">345,345,134,299.5</tspan>
                </text>
                <text id="453,234,123,455.4">
                    <tspan x="0" y="97">453,234,123,455.4</tspan>
                </text>
            </g>
            <g id="编组-3备份-3" transform="translate(782.000000, 30.000000)" fill="#BABABA" font-family="PingFangSC-Medium, PingFang SC" font-size="12" font-weight="400" line-spacing="28">
                <text id="-523.4">
                    <tspan x="10" y="69">-523.4</tspan>
                </text>
                <text id="-433.3">
                    <tspan x="10" y="41">-433.3</tspan>
                </text>
                <text id="-323.5">
                    <tspan x="10" y="154">-323.5</tspan>
                </text>
                <text id="-123.3">
                    <tspan x="12" y="13">-123.3</tspan>
                </text>
                <text id="-377.9">
                    <tspan x="7" y="126">-377.9 </tspan>
                </text>
                <text id="-7,453.4">
                    <tspan x="0" y="97">-7,453.4</tspan>
                </text>
            </g>
            <text id="Order-quantity" font-family="PingFangSC-Medium, PingFang SC" font-size="12" font-weight="400" line-spacing="28" fill="#BABABA">
                <tspan x="271" y="15">Order quantity</tspan>
            </text>
            <text id="Order-amount" font-family="PingFangSC-Medium, PingFang SC" font-size="12" font-weight="400" line-spacing="28" fill="#BABABA">
                <tspan x="486" y="15">Order amount</tspan>
            </text>
            <text id="Profit-margin" font-family="PingFangSC-Medium, PingFang SC" font-size="12" font-weight="400" line-spacing="28" fill="#BABABA">
                <tspan x="700" y="15">Profit margin</tspan>
            </text>
            <polygon id="直线-6备份" fill="#E2E2E2" points="1 0 1 199 0 199 0 0"></polygon>
            <polygon id="直线-6备份-2" fill="#E2E2E2" points="212 0 212 199 211 199 211 0"></polygon>
            <polygon id="直线-6备份-3" fill="#E2E2E2" points="422 0 422 199 421 199 421 0"></polygon>
            <polygon id="直线-6备份-4" fill="#E2E2E2" points="633 0 633 199 632 199 632 0"></polygon>
            <polygon id="直线-6备份-5" fill="#E2E2E2" points="845 0 845 199 844 199 844 0"></polygon>
            <polygon id="直线-6备份-6" fill="#E2E2E2" transform="translate(422.500000, 198.500000) rotate(90.000000) translate(-422.500000, -198.500000) " points="423 -224 423 621 422 621 422 -224"></polygon>
            <polygon id="直线-6备份-7" fill="#E2E2E2" transform="translate(422.500000, 0.500000) rotate(90.000000) translate(-422.500000, -0.500000) " points="423 -422 423 423 422 423 422 -422"></polygon>
            <g id="上线备份" transform="translate(649.670941, 43.670737) scale(1, -1) translate(-649.670941, -43.670737) translate(645.000000, 39.000000)" fill="#C2C2C2" fill-rule="nonzero">
                <polygon id="路径" points="9.34182224 4.67073724 6.42249755 4.67073724 6.42249755 9.34147448 2.91932469 9.34147448 2.91932469 4.67073724 0 4.67073724 4.6709411 0 9.3418822 4.67073724"></polygon>
            </g>
            <g id="上线备份-2" transform="translate(649.670941, 71.670737) scale(1, -1) translate(-649.670941, -71.670737) translate(645.000000, 67.000000)" fill="#C2C2C2" fill-rule="nonzero">
                <polygon id="路径" points="9.34182224 4.67073724 6.42249755 4.67073724 6.42249755 9.34147448 2.91932469 9.34147448 2.91932469 4.67073724 0 4.67073724 4.6709411 0 9.3418822 4.67073724"></polygon>
            </g>
            <g id="上线备份-3" transform="translate(649.670941, 99.670737) scale(1, -1) translate(-649.670941, -99.670737) translate(645.000000, 95.000000)" fill="#C2C2C2" fill-rule="nonzero">
                <polygon id="路径" points="9.34182224 4.67073724 6.42249755 4.67073724 6.42249755 9.34147448 2.91932469 9.34147448 2.91932469 4.67073724 0 4.67073724 4.6709411 0 9.3418822 4.67073724"></polygon>
            </g>
            <g id="上线备份-4" transform="translate(649.670941, 127.670737) scale(1, -1) translate(-649.670941, -127.670737) translate(645.000000, 123.000000)" fill="#C2C2C2" fill-rule="nonzero">
                <polygon id="路径" points="9.34182224 4.67073724 6.42249755 4.67073724 6.42249755 9.34147448 2.91932469 9.34147448 2.91932469 4.67073724 0 4.67073724 4.6709411 0 9.3418822 4.67073724"></polygon>
            </g>
            <g id="上线备份-5" transform="translate(649.670941, 155.670737) scale(1, -1) translate(-649.670941, -155.670737) translate(645.000000, 151.000000)" fill="#C2C2C2" fill-rule="nonzero">
                <polygon id="路径" points="9.34182224 4.67073724 6.42249755 4.67073724 6.42249755 9.34147448 2.91932469 9.34147448 2.91932469 4.67073724 0 4.67073724 4.6709411 0 9.3418822 4.67073724"></polygon>
            </g>
            <g id="上线备份-6" transform="translate(649.670941, 183.670737) scale(1, -1) translate(-649.670941, -183.670737) translate(645.000000, 179.000000)" fill="#C2C2C2" fill-rule="nonzero">
                <polygon id="路径" points="9.34182224 4.67073724 6.42249755 4.67073724 6.42249755 9.34147448 2.91932469 9.34147448 2.91932469 4.67073724 0 4.67073724 4.6709411 0 9.3418822 4.67073724"></polygon>
            </g>
        </g>
    </g>
</svg>