<?xml version="1.0" encoding="UTF-8"?>
<svg width="422px" height="221px" viewBox="0 0 422 221" version="1.1" xmlns="http://www.w3.org/2000/svg" xmlns:xlink="http://www.w3.org/1999/xlink">
    <title>散点图</title>
    <g id="页面-1" stroke="none" stroke-width="1" fill="none" fill-rule="evenodd">
        <g id="编组-101" transform="translate(1.000000, 0.000000)">
            <polygon id="路径" fill-opacity="0" fill="#FFFFFF" fill-rule="nonzero" points="22.932968 0 421 0 421 211.309424 22.932968 211.309424"></polygon>
            <g id="编组" transform="translate(66.380925, 177.814967)">
                <line x1="0" y1="0.35514189" x2="341.372468" y2="0.35514189" id="路径" stroke="#ECECEC"></line>
                <g transform="translate(6.546816, 6.457811)" fill="#E0E0E0" fill-rule="nonzero" font-family="Helvetica" font-size="12" font-weight="normal">
                    <text id="2016">
                        <tspan x="0" y="11.009655">2016</tspan>
                    </text>
                    <text id="2017">
                        <tspan x="51.1976666" y="11.009655">2017</tspan>
                    </text>
                    <text id="2018">
                        <tspan x="102.395333" y="11.009655">2018</tspan>
                    </text>
                    <text id="2019">
                        <tspan x="153.593" y="11.009655">2019</tspan>
                    </text>
                    <text id="2020">
                        <tspan x="204.790666" y="11.009655">2020</tspan>
                    </text>
                    <text id="2021">
                        <tspan x="255.988333" y="11.009655">2021</tspan>
                    </text>
                    <text id="2022">
                        <tspan x="307.186" y="11.009655">2022</tspan>
                    </text>
                </g>
            </g>
            <g id="编组-41" transform="translate(32.412825, 36.937351)" fill="#DCDCDC" fill-rule="nonzero" font-family="Helvetica" font-size="12" font-weight="normal">
                <text id="1.0W">
                    <tspan x="0" y="140.091786">1.0W</tspan>
                </text>
                <text id="2.5W">
                    <tspan x="0.161829706" y="75.5414127">2.5W</tspan>
                </text>
                <text id="1.5W">
                    <tspan x="0" y="107.8166">1.5W</tspan>
                </text>
                <text id="3W">
                    <tspan x="0.161829706" y="43.2831573">3W</tspan>
                </text>
                <text id="3.5W">
                    <tspan x="0.161829706" y="10.9927234">3.5W</tspan>
                </text>
            </g>
            <text id="Order-date(quarter)" fill-rule="nonzero" font-family="Helvetica" font-size="12" font-weight="normal" fill="#DCDCDC">
                <tspan x="185.257223" y="217.777545">Order date(quarter)</tspan>
            </text>
            <text id="Order-quantity" fill-rule="nonzero" transform="translate(6.992723, 105.889812) scale(-1, -1) rotate(90.000000) translate(-6.992723, -105.889812) " font-family="Helvetica" font-size="12" font-weight="normal" fill="#E0E0E0">
                <tspan x="-31.5172034" y="109.889812">Order quantity</tspan>
            </text>
            <g id="编组-37备份" transform="translate(127.314072, 6.992723)" fill-rule="nonzero">
                <g id="编组-54">
                    <g id="编组-32" transform="translate(63.010611, 0.000000)">
                        <path d="M2.84453458,4.00551712 C4.41552765,4.00551712 5.68906916,5.27905863 5.68906916,6.8500517 L5.68906916,7.11608764 C5.68906916,8.6870807 4.41552765,9.96062222 2.84453458,9.96062222 C1.27354151,9.96062222 6.36480373e-16,8.6870807 0,7.11608764 L0,6.8500517 C-1.92391163e-16,5.27905863 1.27354151,4.00551712 2.84453458,4.00551712 Z" id="路径" fill-opacity="0.85" fill="#ECECEC"></path>
                        <text id="lndex2" font-family="Helvetica" font-size="12" font-weight="normal" fill="#E0E0E0">
                            <tspan x="11.0018526" y="11.009655">lndex2</tspan>
                        </text>
                    </g>
                    <g id="编组-32备份">
                        <path d="M2.84453458,4.00551712 C4.41552765,4.00551712 5.68906916,5.27905863 5.68906916,6.8500517 L5.68906916,7.11608764 C5.68906916,8.6870807 4.41552765,9.96062222 2.84453458,9.96062222 C1.27354151,9.96062222 1.92391163e-16,8.6870807 0,7.11608764 L0,6.8500517 C-1.92391163e-16,5.27905863 1.27354151,4.00551712 2.84453458,4.00551712 Z" id="路径" fill-opacity="0.85" fill="#ECECEC"></path>
                        <text id="lndex1" font-family="Helvetica" font-size="12" font-weight="normal" fill="#E0E0E0">
                            <tspan x="11.0018526" y="11.009655">lndex1</tspan>
                        </text>
                    </g>
                    <g id="编组-26" transform="translate(126.021221, 0.000000)">
                        <path d="M2.84453458,4.00551712 C4.41552765,4.00551712 5.68906916,5.27905863 5.68906916,6.8500517 L5.68906916,7.11608764 C5.68906916,8.6870807 4.41552765,9.96062222 2.84453458,9.96062222 C1.27354151,9.96062222 1.92391163e-16,8.6870807 0,7.11608764 L0,6.8500517 C-1.92391163e-16,5.27905863 1.27354151,4.00551712 2.84453458,4.00551712 Z" id="路径" fill-opacity="0.85" fill="#C2C2C2"></path>
                        <text id="lndex3" font-family="Helvetica" font-size="12" font-weight="normal" fill="#E0E0E0">
                            <tspan x="11.0018526" y="11.009655">lndex3</tspan>
                        </text>
                    </g>
                </g>
            </g>
            <path d="M254.719055,134.547056 C254.719055,136.984424 256.694308,138.960302 259.130906,138.960302 C261.567503,138.960302 263.542756,136.984424 263.542756,134.547056 C263.542756,132.109687 261.567503,130.133809 259.130906,130.133809 C256.694308,130.133809 254.719055,132.109687 254.719055,134.547056" id="路径" fill="#CBCBCB" fill-rule="nonzero" opacity="0.65"></path>
            <path d="M324.832036,62.4813166 C324.832036,64.9186853 326.807288,66.894563 329.243886,66.894563 C331.680484,66.894563 333.655736,64.9186853 333.655736,62.4813166 C333.655736,60.043948 331.680484,58.0680702 329.243886,58.0680702 C326.807288,58.0680702 324.832036,60.043948 324.832036,62.4813166" id="路径" fill="#EFEFEF" fill-rule="nonzero" opacity="0.65"></path>
            <path d="M286.89651,93.2561708 C286.89651,95.6935395 288.871763,97.6694172 291.30836,97.6694172 C293.744958,97.6694172 295.720211,95.6935395 295.720211,93.2561708 C295.720211,90.8188022 293.744958,88.8429244 291.30836,88.8429244 C288.871763,88.8429244 286.89651,90.8188022 286.89651,93.2561708" id="路径" fill="#CBCBCB" fill-rule="nonzero" opacity="0.65"></path>
            <path d="M394.267596,66.9660944 C394.267596,69.403463 396.242849,71.3793408 398.679446,71.3793408 C401.116044,71.3793408 403.091297,69.403463 403.091297,66.9660944 C403.091297,64.5287257 401.116044,62.552848 398.679446,62.552848 C396.242849,62.552848 394.267596,64.5287257 394.267596,66.9660944" id="路径" fill="#EFEFEF" fill-rule="nonzero" opacity="0.65"></path>
            <path d="M88.7511307,156.816297 C88.7511307,159.253666 90.7263834,161.229543 93.1629811,161.229543 C95.5995788,161.229543 97.5748315,159.253666 97.5748315,156.816297 C97.5748315,154.378928 95.5995788,152.40305 93.1629811,152.40305 C90.7263834,152.40305 88.7511307,154.378928 88.7511307,156.816297" id="路径" fill="#CBCBCB" fill-rule="nonzero" opacity="0.65"></path>
            <path d="M95.1866216,169.65204 C95.1866216,172.089409 97.1618744,174.065286 99.5984721,174.065286 C102.03507,174.065286 104.010322,172.089409 104.010322,169.65204 C104.010322,167.214671 102.03507,165.238794 99.5984721,165.238794 C97.1618744,165.238794 95.1866216,167.214671 95.1866216,169.65204" id="路径" fill="#EFEFEF" fill-rule="nonzero" opacity="0.65"></path>
            <path d="M191.380276,130.062278 C191.380276,132.499647 193.355529,134.475524 195.792126,134.475524 C198.228724,134.475524 200.203977,132.499647 200.203977,130.062278 C200.203977,127.624909 198.228724,125.649031 195.792126,125.649031 C193.355529,125.649031 191.380276,127.624909 191.380276,130.062278" id="路径" fill="#EFEFEF" fill-rule="nonzero" opacity="0.65"></path>
            <path d="M132.444727,146.609561 C132.444727,149.04693 134.41998,151.022808 136.856578,151.022808 C139.293175,151.022808 141.268428,149.04693 141.268428,146.609561 C141.268428,144.172193 139.293175,142.196315 136.856578,142.196315 C134.41998,142.196315 132.444727,144.172193 132.444727,146.609561" id="路径" fill="#EFEFEF" fill-rule="nonzero" opacity="0.65"></path>
            <path d="M314.670734,106.865152 C314.670734,109.30252 316.645987,111.278398 319.082585,111.278398 C321.519182,111.278398 323.494435,109.30252 323.494435,106.865152 C323.494435,104.427783 321.519182,102.451905 319.082585,102.451905 C316.645987,102.451905 314.670734,104.427783 314.670734,106.865152" id="路径" fill="#CBCBCB" fill-rule="nonzero" opacity="0.65"></path>
            <path d="M338.96183,37.4493776 C338.96183,39.8867462 340.937083,41.8626239 343.373681,41.8626239 C345.810278,41.8626239 347.785531,39.8867462 347.785531,37.4493776 C347.785531,35.0120089 345.810278,33.0361312 343.373681,33.0361312 C340.937083,33.0361312 338.96183,35.0120089 338.96183,37.4493776" id="路径" fill="#CBCBCB" fill-rule="nonzero" opacity="0.65"></path>
            <path d="M293.332001,104.854734 C293.332001,107.292103 295.307254,109.26798 297.743851,109.26798 C300.180449,109.26798 302.155702,107.292103 302.155702,104.854734 C302.155702,102.417365 300.180449,100.441488 297.743851,100.441488 C295.307254,100.441488 293.332001,102.417365 293.332001,104.854734" id="路径" fill="#CBCBCB" fill-rule="nonzero" opacity="0.65"></path>
            <path d="M267.251327,114.597527 C267.251327,117.034896 269.22658,119.010773 271.663178,119.010773 C274.099775,119.010773 276.075028,117.034896 276.075028,114.597527 C276.075028,112.160158 274.099775,110.184281 271.663178,110.184281 C269.22658,110.184281 267.251327,112.160158 267.251327,114.597527" id="路径" fill="#DDDDDD" fill-rule="nonzero" opacity="0.65"></path>
            <path d="M319.412675,84.5959103 C319.412675,87.033279 321.387928,89.0091567 323.824525,89.0091567 C326.261123,89.0091567 328.236376,87.033279 328.236376,84.5959103 C328.236376,82.1585417 326.261123,80.182664 323.824525,80.182664 C321.387928,80.182664 319.412675,82.1585417 319.412675,84.5959103" id="路径" fill="#EFEFEF" fill-rule="nonzero" opacity="0.65"></path>
            <path d="M314.670734,56.6047113 C314.670734,59.04208 316.645987,61.0179577 319.082585,61.0179577 C321.519182,61.0179577 323.494435,59.04208 323.494435,56.6047113 C323.494435,54.1673426 321.519182,52.1914649 319.082585,52.1914649 C316.645987,52.1914649 314.670734,54.1673426 314.670734,56.6047113" id="路径" fill="#CBCBCB" fill-rule="nonzero" opacity="0.65"></path>
            <path d="M158.822881,141.610252 C158.822881,144.047621 160.798134,146.023499 163.234731,146.023499 C165.671329,146.023499 167.646582,144.047621 167.646582,141.610252 C167.646582,139.172884 165.671329,137.197006 163.234731,137.197006 C160.798134,137.197006 158.822881,139.172884 158.822881,141.610252" id="路径" fill="#CBCBCB" fill-rule="nonzero" opacity="0.65"></path>
            <path d="M67.7511076,162.538255 C67.7511076,164.975623 69.7263603,166.951501 72.162958,166.951501 C74.5995557,166.951501 76.5748084,164.975623 76.5748084,162.538255 C76.5748084,160.100886 74.5995557,158.125008 72.162958,158.125008 C69.7263603,158.125008 67.7511076,160.100886 67.7511076,162.538255" id="路径" fill="#EFEFEF" fill-rule="nonzero" opacity="0.65"></path>
            <path d="M403.174783,99.5967187 C403.174783,102.034087 405.150036,104.009965 407.586634,104.009965 C410.023231,104.009965 411.998484,102.034087 411.998484,99.5967187 C411.998484,97.15935 410.023231,95.1834723 407.586634,95.1834723 C405.150036,95.1834723 403.174783,97.15935 403.174783,99.5967187" id="路径" fill="#CBCBCB" fill-rule="nonzero" opacity="0.65"></path>
            <path d="M329.912686,61.5534316 C329.912686,63.9908002 331.887939,65.966678 334.324537,65.966678 C336.761134,65.966678 338.736387,63.9908002 338.736387,61.5534316 C338.736387,59.1160629 336.761134,57.1401852 334.324537,57.1401852 C331.887939,57.1401852 329.912686,59.1160629 329.912686,61.5534316" id="路径" fill="#CBCBCB" fill-rule="nonzero" opacity="0.65"></path>
            <path d="M221.52547,139.805071 C221.52547,142.24244 223.500723,144.218317 225.937321,144.218317 C228.373918,144.218317 230.349171,142.24244 230.349171,139.805071 C230.349171,137.367702 228.373918,135.391825 225.937321,135.391825 C223.500723,135.391825 221.52547,137.367702 221.52547,139.805071" id="路径" fill="#EFEFEF" fill-rule="nonzero" opacity="0.65"></path>
            <path d="M71.4769181,166.404442 C71.4769181,168.841811 73.4521709,170.817689 75.8887686,170.817689 C78.3253663,170.817689 80.300619,168.841811 80.300619,166.404442 C80.300619,163.967074 78.3253663,161.991196 75.8887686,161.991196 C73.4521709,161.991196 71.4769181,163.967074 71.4769181,166.404442" id="路径" fill="#CBCBCB" fill-rule="nonzero" opacity="0.65"></path>
            <path d="M113.476964,144.310806 C113.476964,146.748175 115.452217,148.724052 117.888815,148.724052 C120.325412,148.724052 122.300665,146.748175 122.300665,144.310806 C122.300665,141.873437 120.325412,139.89756 117.888815,139.89756 C115.452217,139.89756 113.476964,141.873437 113.476964,144.310806" id="路径" fill="#EFEFEF" fill-rule="nonzero" opacity="0.65"></path>
            <path d="M359.380461,57.3779488 C359.380461,59.8153175 361.355713,61.7911952 363.792311,61.7911952 C366.228909,61.7911952 368.204162,59.8153175 368.204162,57.3779488 C368.204162,54.9405802 366.228909,52.9647025 363.792311,52.9647025 C361.355713,52.9647025 359.380461,54.9405802 359.380461,57.3779488" id="路径" fill="#F4F4F4" fill-rule="nonzero" opacity="0.65"></path>
        </g>
    </g>
</svg>