<?xml version="1.0" encoding="UTF-8"?>
<svg width="63px" height="63px" viewBox="0 0 63 63" version="1.1" xmlns="http://www.w3.org/2000/svg" xmlns:xlink="http://www.w3.org/1999/xlink">
    <title>fanhui-3</title>
    <g id="页面-1" stroke="none" stroke-width="1" fill="none" fill-rule="evenodd" opacity="0.400000006">
        <g id="5-确认反馈弹窗" transform="translate(-915.000000, -160.000000)" fill="#6A6A6A" fill-rule="nonzero">
            <g id="fanhui-3" transform="translate(915.134137, 160.500000)">
                <path d="M29.8868182,47.6836836 C29.6748032,47.6860894 29.4729572,47.5929297 29.3372727,47.43 L16.3736364,31.5777273 C16.1305407,31.2774991 16.1745398,30.837509 16.4722727,30.5913636 C16.7725009,30.348268 17.212491,30.392267 17.4586364,30.69 L30.4222727,46.5 C30.5435043,46.6450685 30.6013471,46.8327728 30.5827978,47.020916 C30.5642484,47.2090593 30.4708635,47.3818538 30.3236364,47.5004545 C30.202916,47.6091259 30.0489417,47.6736958 29.8868182,47.6836836 L29.8868182,47.6836836 Z" id="路径"></path>
                <path d="M16.9090909,31.6481818 C16.7445537,31.6556815 16.5833323,31.6002617 16.4581818,31.4931818 C16.3118242,31.3771291 16.2187301,31.2067304 16.2001443,31.0208719 C16.1815584,30.8350135 16.2390668,30.6495545 16.3595455,30.5068182 L29.3231818,14.6545455 C29.5693272,14.3568125 30.0093173,14.3128135 30.3095455,14.5559091 C30.4567726,14.6745098 30.5501575,14.8473044 30.5687069,15.0354476 C30.5872562,15.2235908 30.5294134,15.4112952 30.4081818,15.5563636 L17.4445455,31.3945455 C17.3132493,31.5552663 17.1166236,31.6484048 16.9090909,31.6481818 L16.9090909,31.6481818 Z" id="路径"></path>
                <path d="M49.5436364,31.8454545 L16.9090909,31.8454545 C16.5199812,31.8454545 16.2045455,31.5300188 16.2045455,31.1409091 C16.2045455,30.7517994 16.5199812,30.4363636 16.9090909,30.4363636 L49.5436364,30.4363636 C49.9327461,30.4363636 50.2481818,30.7517994 50.2481818,31.1409091 C50.2406853,31.526871 49.9295983,31.837958 49.5436364,31.8454545 L49.5436364,31.8454545 Z" id="路径"></path>
                <path d="M31,1.40909089 C47.3426078,1.40909089 60.5909091,14.6573922 60.5909091,31 C60.5909091,47.3426078 47.3426078,60.5909091 31,60.5909091 C14.6573922,60.5909091 1.40909089,47.3426078 1.40909089,31 C1.40909089,14.6573922 14.6573922,1.40909089 31,1.40909089 M31,0 C13.8791728,0 0,13.8791728 0,31 C0,48.1208272 13.8791728,62 31,62 C48.1208272,62 62,48.1208272 62,31 C62,13.8791728 48.1208272,0 31,0 L31,0 Z" id="形状"></path>
            </g>
        </g>
    </g>
</svg>