<?xml version="1.0" encoding="UTF-8"?>
<svg width="12px" height="14px" viewBox="0 0 12 14" version="1.1" xmlns="http://www.w3.org/2000/svg" xmlns:xlink="http://www.w3.org/1999/xlink">
    <g id="页面-1" stroke="none" stroke-width="1" fill="none" fill-rule="evenodd">
        <g id="数据集管理/创建表/弹窗" transform="translate(-206.000000, -340.000000)" fill-rule="nonzero">
            <g id="file-copy备份" transform="translate(204.000000, 339.000000)">
                <rect id="矩形" opacity="0" x="0" y="0" width="16" height="16"></rect>
                <path d="M13,1 L4.625,1 C4.55625,1 4.5,1.05625 4.5,1.125 L4.5,2 C4.5,2.06875 4.55625,2.125 4.625,2.125 L12.375,2.125 L12.375,12.875 C12.375,12.94375 12.43125,13 12.5,13 L13.375,13 C13.44375,13 13.5,12.94375 13.5,12.875 L13.5,1.5 C13.5,1.2234375 13.2765625,1 13,1 Z M11,3 L3,3 C2.7234375,3 2.5,3.2234375 2.5,3.5 L2.5,11.7921875 C2.5,11.925 2.553125,12.0515625 2.646875,12.1453125 L5.3546875,14.853125 C5.3890625,14.8875 5.428125,14.915625 5.4703125,14.9390625 L5.4703125,14.96875 L5.5359375,14.96875 C5.590625,14.9890625 5.6484375,15 5.7078125,15 L11,15 C11.2765625,15 11.5,14.7765625 11.5,14.5 L11.5,3.5 C11.5,3.2234375 11.2765625,3 11,3 Z M5.46875,13.378125 L4.1234375,12.03125 L5.46875,12.03125 L5.46875,13.378125 Z M10.375,13.875 L6.46875,13.875 L6.46875,11.65625 C6.46875,11.3109375 6.1890625,11.03125 5.84375,11.03125 L3.625,11.03125 L3.625,4.125 L10.375,4.125 L10.375,13.875 Z" id="形状" fill-opacity="0.45" fill="#000000"></path>
            </g>
        </g>
    </g>
</svg>