<svg t="1653560417259" class="icon" viewBox="0 0 1137 1024" version="1.1" xmlns="http://www.w3.org/2000/svg" p-id="2537" width="128" height="128"><path d="M1137.777778 0v1024H0V0h1137.777778zM314.254222 227.555556c-112.867556 0-175.217778 192.739556-194.104889 261.688888H56.888889l-6.030222 0.796445A22.755556 22.755556 0 0 0 56.888889 534.755556l60.984889 0.113777a31.061333 31.061333 0 0 0 19.342222 15.473778A28.785778 28.785778 0 0 0 170.666667 534.755556a22.755556 22.755556 0 0 0 22.755555-22.755556 21.617778 21.617778 0 0 0-9.898666-18.318222c23.893333-81.237333 74.865778-200.817778 130.730666-200.817778 70.087111 0 98.759111 67.128889 139.719111 176.696889l8.419556 22.186667c8.419556 22.300444 16.839111 45.966222 25.031111 70.428444 36.295111 108.771556 97.393778 242.119111 182.385778 259.982222 7.964444 1.592889 16.839111 2.730667 26.168889 2.730667 63.374222 0 155.875556-48.696889 213.333333-298.439111a32.768 32.768 0 0 0-22.755556-39.480889 29.127111 29.127111 0 0 0-23.893333 4.323555A22.755556 22.755556 0 0 0 853.333333 489.244444h-113.777777l-6.030223 0.796445A22.755556 22.755556 0 0 0 739.555556 534.755556h103.992888c-39.367111 155.648-97.848889 236.657778-161.564444 223.345777-42.325333-8.874667-94.435556-92.16-136.305778-217.656889a2148.124444 2148.124444 0 0 0-1.934222-5.688888H625.777778l6.030222-0.796445A22.755556 22.755556 0 0 0 648.533333 512l-0.796444-6.030222A22.755556 22.755556 0 0 0 625.777778 489.244444h-98.076445l-7.964444-21.731555-8.192-21.959111C471.381333 338.375111 429.852444 227.555556 314.254222 227.555556zM398.222222 489.244444h-113.777778l-6.030222 0.796445A22.755556 22.755556 0 0 0 284.444444 534.755556h113.777778l6.030222-0.796445A22.755556 22.755556 0 0 0 398.222222 489.244444z m682.666667 0h-113.777778l-6.030222 0.796445A22.755556 22.755556 0 0 0 967.111111 534.755556h113.777778l6.030222-0.796445A22.755556 22.755556 0 0 0 1080.888889 489.244444z" fill="#DEE1E7" p-id="2538"></path></svg>