<?xml version="1.0" standalone="no"?><!DOCTYPE svg PUBLIC "-//W3C//DTD SVG 1.1//EN" "http://www.w3.org/Graphics/SVG/1.1/DTD/svg11.dtd"><svg t="1653565754212" class="icon" viewBox="0 0 1110 1024" version="1.1" xmlns="http://www.w3.org/2000/svg" p-id="2256" xmlns:xlink="http://www.w3.org/1999/xlink" width="281.8359375" height="260"><defs><style type="text/css">@font-face { font-family: feedback-iconfont; src: url("//at.alicdn.com/t/font_1031158_u69w8yhxdu.woff2?t=1630033759944") format("woff2"), url("//at.alicdn.com/t/font_1031158_u69w8yhxdu.woff?t=1630033759944") format("woff"), url("//at.alicdn.com/t/font_1031158_u69w8yhxdu.ttf?t=1630033759944") format("truetype"); }
</style></defs><path d="M42.492459 835.770352h0.767936c0.853262 0 80.718607 1.109241 198.639447 1.36522 18.259812-61.690859 77.646863-106.913757 147.870344-106.913757 84.728939 0 153.587201 65.95717 153.587201 146.761103 0 81.059912-68.943588 146.931756-153.672527 146.931756-69.711524 0-128.671944-44.540288-147.358387-105.548538-119.030081-0.170652-199.663361-1.36522-200.516624-1.365219a41.468544 41.468544 0 0 1-41.809849-41.297892 41.639197 41.639197 0 0 1 42.492459-39.932673z m347.192401 106.913758c37.799517 0 68.516957-29.522873 68.516957-65.701192 0-36.007666-30.71744-65.530539-68.516957-65.530539-37.884843 0-68.602283 29.522873-68.602284 65.615865 0 36.092992 30.71744 65.615865 68.602284 65.615866z m255.210732-106.231148h421.852846c23.379385 0 42.492459 18.174485 42.492459 40.615282a41.639197 41.639197 0 0 1-42.492459 40.615282h-421.852846a41.639197 41.639197 0 0 1-42.492459-40.615282c0-22.440797 19.113074-40.615282 42.492459-40.615282z m423.644696-272.702608c-1.36522 0-31.570702 1.279893-140.95892 1.450546-18.686443 61.008249-77.646863 105.548538-147.358387 105.548538-84.728939 0-153.587201-65.95717-153.587201-146.761104 0-81.059912 69.028914-146.931756 153.587201-146.931755 70.223481 0 129.695859 45.222898 147.870345 106.913757 105.804516-0.255979 136.180652-1.36522 136.948587-1.36522h1.791851c22.611449 0 41.383218 17.065245 42.407133 38.908758a41.383218 41.383218 0 0 1-40.700609 42.23648z m-288.317307-105.548537c-37.799517 0-68.516957 29.522873-68.516957 65.615865 0 36.092992 30.802766 65.530539 68.516957 65.530539 37.799517 0 68.602283-29.437547 68.602284-65.530539 0-36.092992-30.71744-65.615865-68.602284-65.615865z m-252.650945 106.316473h-485.079577A41.639197 41.639197 0 0 1 0 523.903008c0-22.35547 19.027748-40.615282 42.492459-40.615282h485.079577c23.379385 0 42.492459 18.259812 42.492459 40.615282a41.639197 41.639197 0 0 1-42.492459 40.615282z m-137.887176-270.825431c-69.711524 0-128.671944-44.540288-147.358387-105.548538-119.030081-0.170652-199.663361-1.36522-200.516624-1.365219a41.468544 41.468544 0 0 1-41.809849-41.297892 41.639197 41.639197 0 0 1 42.492459-39.932672h0.767936c0.853262 0 80.718607 1.109241 198.639447 1.365219 18.259812-61.605533 77.646863-106.913757 147.870344-106.913757 84.728939 0 153.587201 65.95717 153.587201 146.846429-0.170652 80.889259-68.943588 146.846429-153.672527 146.84643z m0-212.462295c-37.884843 0-68.602283 29.522873-68.602284 65.701192 0 36.007666 30.802766 65.530539 68.602284 65.530539 37.71419 0 68.516957-29.522873 68.516957-65.615866 0-36.092992-30.71744-65.615865-68.516957-65.615865z m677.063578 106.231148h-421.852846a41.639197 41.639197 0 0 1-42.492459-40.615283c0-22.35547 19.113074-40.615282 42.492459-40.615282h421.852846c23.379385 0 42.492459 18.259812 42.492459 40.615282a41.553871 41.553871 0 0 1-42.492459 40.615283z" fill="#E9EAEA" p-id="2257"></path></svg>