<?xml version="1.0" encoding="UTF-8"?>
<svg width="12px" height="11px" viewBox="0 0 12 11" version="1.1" xmlns="http://www.w3.org/2000/svg" xmlns:xlink="http://www.w3.org/1999/xlink">
    <g id="页面-1" stroke="none" stroke-width="1" fill="none" fill-rule="evenodd">
        <g id="数据集管理/数据预览" transform="translate(-510.000000, -335.000000)" fill="#FFFFFF" fill-rule="nonzero">
            <g id="多维度营收分析" transform="translate(516.000000, 340.454545) scale(1, -1) translate(-516.000000, -340.454545) translate(510.000000, 335.000000)">
                <path d="M11.2,3.64979441 C11.0934095,3.64970743 10.9878764,3.67109756 10.8896,3.71270831 L5.5904,0.777532764 C5.57692425,0.334739035 5.20997683,-0.0132019846 4.7708,0.000384744508 C4.33162317,0.0139714736 3.98652425,0.383940934 4,0.826734662 C4,0.896101273 4.0224,0.958208588 4.0392,1.02192908 L1.2192,2.57622512 C1.09541767,2.49100188 0.949843388,2.44366473 0.8,2.43991166 C0.3581722,2.43991166 0,2.80103363 0,3.24650016 C0,3.62156381 0.2592,3.92322791 0.6032,4.01275924 C0.6048,4.01921194 0.6032,4.02647124 0.6048,4.03211736 L1.3496,6.83420581 C1.25614917,6.96391139 1.20397962,7.11917746 1.2,7.27944266 C1.2,7.72490919 1.5581722,8.08603116 2,8.08603116 C2.0336,8.08603116 2.0616,8.07070598 2.0936,8.06747962 L4.7808,10.3162484 C4.8016,10.3331867 4.8272,10.3412526 4.8496,10.354158 C4.95441666,10.6832639 5.25717159,10.907156 5.6,10.9090909 C5.81217319,10.9090909 6.01565632,10.8241113 6.16568542,10.6728466 C6.31571453,10.5215819 6.4,10.316423 6.4,10.1025024 C6.4,10.0355556 6.3776,9.97586801 6.3624,9.91295411 L10.8072,5.1444029 C10.9252379,5.21868177 11.0608973,5.2596312 11.2,5.26297141 C11.6418278,5.26297141 12,4.90184944 12,4.45638291 C12,4.01091638 11.6418278,3.64979441 11.2,3.64979441 Z M5.5056,6.23733032 C5.7768,6.03729637 5.9576,5.7267598 5.9888,5.37105427 L9.8192,5.02583439 L5.8848,9.2475186 L5.5056,6.23733032 L5.5056,6.23733032 Z M2.3208,6.54302736 C2.24581119,6.51348369 2.16674519,6.495799 2.0864,6.49059911 L1.4112,3.95145851 L3.648,4.94194919 C3.61767264,5.04627518 3.60152535,5.15426765 3.6,5.26297141 C3.6,5.37105427 3.6184,5.4742976 3.6456,5.57431457 L2.3208,6.54302736 Z M10.1808,4.18456259 L5.7888,4.57898436 C5.66125052,4.39181677 5.48412394,4.24453278 5.2776,4.15391222 L5.2448,1.48007135 L5.2672,1.46393958 L10.1808,4.18456259 Z M4.4776,4.10309715 C4.34916952,4.13763038 4.22745424,4.19380781 4.1176,4.26925438 L1.7328,3.21262344 L4.448,1.71720837 L4.4776,4.10309715 Z M2.7432,7.56255522 C2.77921931,7.47250275 2.79847405,7.37652988 2.8,7.27944266 C2.8,7.25121206 2.7864,7.227821 2.784,7.1995904 L4.0976,6.23975008 C4.2768,6.37122401 4.4928,6.45107627 4.728,6.46559486 L5.1088,9.48142926 C5.096,9.49191492 5.0808,9.49756103 5.0688,9.50885327 L2.7432,7.56255522 L2.7432,7.56255522 Z" id="形状"></path>
            </g>
        </g>
    </g>
</svg>