<svg t="1653372976946" class="icon" viewBox="0 0 1945 1024" version="1.1" xmlns="http://www.w3.org/2000/svg" p-id="2088" width="128" height="128"><path d="M383.2832 27.0336c-90.9312 0-165.888 19.6608-223.6416 58.9824-65.1264 41.7792-97.0752 101.9904-97.0752 178.176 0 73.728 33.1776 130.2528 100.7616 169.5744 28.2624 14.7456 95.8464 39.3216 201.5232 71.2704 98.304 28.2624 160.9728 49.152 185.5488 63.8976 57.7536 30.72 87.2448 73.728 87.2448 129.024 0 46.6944-22.1184 83.5584-66.3552 110.592-44.2368 27.0336-103.2192 40.5504-174.4896 40.5504-78.6432 0-137.6256-17.2032-178.176-49.152-44.2368-35.6352-71.2704-92.16-79.872-168.3456H39.2192C46.592 739.7376 84.6848 819.6096 153.6 872.448c58.9824 44.2368 140.0832 66.3552 243.3024 66.3552 104.448 0 186.7776-22.1184 248.2176-65.1264 61.44-44.2368 92.16-105.6768 92.16-181.8624 0-79.872-36.864-141.312-109.3632-185.5488-36.864-22.1184-113.0496-50.3808-228.5568-84.7872-84.7872-24.576-138.8544-43.008-160.9728-55.296-50.3808-27.0336-74.9568-62.6688-74.9568-106.9056 0-50.3808 20.8896-87.2448 62.6688-111.8208 36.864-22.1184 87.2448-31.9488 152.3712-31.9488 71.2704 0 126.5664 14.7456 165.888 46.6944 38.0928 30.72 62.6688 77.4144 73.728 141.312h99.5328c-8.6016-92.16-41.7792-162.2016-100.7616-208.896-56.5248-45.4656-135.168-67.584-233.472-67.584zM1022.2592 81.1008l-97.0752 40.5504v164.6592H797.3888V368.64h127.7952v404.2752c0 47.9232 9.8304 83.5584 30.72 108.1344 22.1184 27.0336 60.2112 40.5504 111.8208 40.5504h95.8464v-82.3296h-81.1008c-22.1184 0-38.0928-6.144-46.6944-15.9744-9.8304-9.8304-13.5168-27.0336-13.5168-50.3808V368.64h157.2864v-82.3296H1022.2592V81.1008zM1567.8464 269.1072c-44.2368 0-82.3296 13.5168-115.5072 40.5504-27.0336 20.8896-49.152 50.3808-66.3552 87.2448v-110.592h-97.0752V921.6h97.0752V584.9088c0-58.9824 15.9744-109.3632 50.3808-151.1424 33.1776-44.2368 74.9568-65.1264 124.1088-65.1264 30.72 0 62.6688 3.6864 94.6176 13.5168v-98.304c-23.3472-9.8304-52.8384-14.7456-87.2448-14.7456zM1823.4368 775.3728a67.7888 67.7888 0 0 0-52.8384 22.1184 72.2944 72.2944 0 0 0-22.1184 54.0672c0 20.8896 7.3728 38.0928 22.1184 52.8384 13.5168 14.7456 30.72 22.1184 52.8384 22.1184a73.4208 73.4208 0 0 0 52.8384-22.1184 71.4752 71.4752 0 0 0 22.1184-52.8384 72.2944 72.2944 0 0 0-22.1184-54.0672 73.4208 73.4208 0 0 0-52.8384-22.1184z" fill="#FFA700" p-id="2089"></path></svg>