<?xml version="1.0" encoding="UTF-8"?>
<svg width="32px" height="32px" viewBox="0 0 32 32" version="1.1" xmlns="http://www.w3.org/2000/svg" xmlns:xlink="http://www.w3.org/1999/xlink">
    <title>路径</title>
    <g id="页面-1" stroke="none" stroke-width="1" fill="none" fill-rule="evenodd">
        <g id="数据源/demo数据源" transform="translate(-270.000000, -251.000000)" fill-rule="nonzero">
            <g id="编组-2" transform="translate(270.000000, 251.000000)">
                <path d="M26.5365854,0 C29.5804878,0 32,2.41951219 32,5.46341463 L32,26.5365854 C32,29.5804878 29.5804878,32 26.5365854,32 L5.46341463,32 C2.41951219,32 0,29.5804878 0,26.5365854 L0,5.46341463 C0,2.41951219 2.41951219,0 5.46341463,0 L26.5365854,0 Z" id="路径" fill="#2F77F1"></path>
                <path d="M15.1365079,9.77777778 L21.3079365,9.77777778 C21.8107936,9.77777778 22.2222222,10.2700855 22.2222222,10.8717949 L22.2222222,12.2393162 C22.2222222,12.8410256 21.8107937,13.3333333 21.3079365,13.3333333 L15.1365079,13.3333333 C14.6336508,13.3333333 14.2222222,12.8410256 14.2222222,12.2393162 L14.2222222,10.8717949 C14.2222222,10.2700855 14.6336508,9.77777778 15.1365079,9.77777778 Z" id="路径" fill="#DBE9FF"></path>
                <path d="M23.1111111,23.1111111 L8.88888889,23.1111111 C7.9111111,23.1111111 7.11111111,22.3581699 7.11111111,21.4379085 L7.11111111,10.5620915 C7.11111111,9.64183006 7.91111112,8.88888889 8.88888889,8.88888889 L14,8.88888889 C15.2222222,9.20261437 14.9777778,9.78823529 15.7777778,10.5620915 L16.3333333,11.3986928 L23.1111111,11.3986928 C24.0888889,11.3986928 24.8888889,12.151634 24.8888889,13.0718954 L24.8888889,21.4379085 C24.8888889,22.3581699 24.0888889,23.1111111 23.1111111,23.1111111 Z" id="路径" fill="#FAFCFF"></path>
            </g>
        </g>
    </g>
</svg>