<?xml version="1.0" encoding="UTF-8"?>
<svg width="102px" height="119px" viewBox="0 0 102 119" version="1.1" xmlns="http://www.w3.org/2000/svg" xmlns:xlink="http://www.w3.org/1999/xlink">
    <title>编组 43</title>
    <g id="Cute-Design" stroke="none" stroke-width="1" fill="none" fill-rule="evenodd">
        <g id="编组-43" transform="translate(1.000000, 1.000000)" stroke="#000000" stroke-width="2">
            <rect id="矩形备份-54" x="0" y="17" width="100" height="100"></rect>
            <path d="M38.4649617,0.345905685 L61.7503142,17.6689157 C61.7946254,17.7018808 61.8038233,17.7645256 61.7708582,17.8088369 C61.7651426,17.8165196 61.7583533,17.8233416 61.7506981,17.8290938 L38.4700185,35.3226169 C38.4258658,35.3557941 38.3631775,35.3468966 38.3300004,35.3027439 C38.3044791,35.2687798 38.3032039,35.2223976 38.3268203,35.1870824 L49.8916376,17.8934876 C49.9141368,17.8598432 49.9141368,17.8159541 49.8916376,17.7823097 L38.3221474,0.481727233 C38.2914465,0.435818217 38.3037751,0.373713589 38.3496841,0.343012663 C38.384853,0.319494027 38.4310168,0.320652559 38.4649617,0.345905685 Z" id="路径-3备份-3" fill="#000000"></path>
        </g>
    </g>
</svg>