<?xml version="1.0" encoding="UTF-8"?>
<svg width="14px" height="14px" viewBox="0 0 14 14" version="1.1" xmlns="http://www.w3.org/2000/svg" xmlns:xlink="http://www.w3.org/1999/xlink">
    <g id="页面-1" stroke="none" stroke-width="1" fill="none" fill-rule="evenodd" fill-opacity="0.65">
        <g id="数据集管理/数据预览/刷新预览" transform="translate(-435.000000, -363.000000)" fill="#000000" fill-rule="nonzero">
            <path d="M448.077986,371.778906 L447.054549,370.903906 C447.102986,370.607031 447.127986,370.303906 447.127986,370.000781 C447.127986,369.697656 447.102986,369.394531 447.054549,369.097656 L448.077986,368.222656 C448.235799,368.088281 448.293611,367.869531 448.223299,367.672656 L448.209236,367.632031 C447.926424,366.842969 447.507674,366.117969 446.963924,365.477344 L446.935799,365.444531 C446.801424,365.286719 446.584236,365.227344 446.387361,365.296094 L445.117049,365.747656 C444.648299,365.363281 444.124861,365.060156 443.559236,364.847656 L443.313924,363.519531 C443.276424,363.314844 443.115486,363.155469 442.910799,363.117969 L442.868611,363.110156 C442.054549,362.963281 441.198299,362.963281 440.384236,363.110156 L440.342049,363.117969 C440.137361,363.155469 439.976424,363.314844 439.938924,363.519531 L439.692049,364.853906 C439.131111,365.066406 438.610799,365.367969 438.145174,365.750781 L436.865486,365.296094 C436.670174,365.227344 436.451424,365.285156 436.317049,365.444531 L436.288924,365.477344 C435.745174,366.119531 435.326424,366.844531 435.043611,367.632031 L435.029549,367.672656 C434.959236,367.867969 435.017049,368.086719 435.174861,368.222656 L436.210799,369.107031 C436.162361,369.400781 436.138924,369.700781 436.138924,369.999219 C436.138924,370.299219 436.162361,370.599219 436.210799,370.891406 L435.174861,371.775781 C435.017049,371.910156 434.959236,372.128906 435.029549,372.325781 L435.043611,372.366406 C435.326424,373.153906 435.745174,373.880469 436.288924,374.521094 L436.317049,374.553906 C436.451424,374.711719 436.668611,374.771094 436.865486,374.702344 L438.145174,374.247656 C438.610799,374.630469 439.131111,374.933594 439.692049,375.144531 L439.938924,376.478906 C439.976424,376.683594 440.137361,376.842969 440.342049,376.880469 L440.384236,376.888281 C440.792049,376.961719 441.209236,376.999219 441.626424,376.999219 C442.043611,376.999219 442.462361,376.961719 442.868611,376.888281 L442.910799,376.880469 C443.115486,376.842969 443.276424,376.683594 443.313924,376.478906 L443.559236,375.150781 C444.124861,374.938281 444.648299,374.636719 445.117049,374.250781 L446.387361,374.702344 C446.582674,374.771094 446.801424,374.713281 446.935799,374.553906 L446.963924,374.521094 C447.507674,373.878906 447.926424,373.153906 448.209236,372.366406 L448.223299,372.325781 C448.293611,372.133594 448.235799,371.914844 448.077986,371.778906 L448.077986,371.778906 Z M445.945174,369.282031 C445.984236,369.517969 446.004549,369.760156 446.004549,370.002344 C446.004549,370.244531 445.984236,370.486719 445.945174,370.722656 L445.842049,371.349219 L447.009236,372.347656 C446.832674,372.755469 446.609236,373.139844 446.343611,373.497656 L444.893611,372.983594 L444.402986,373.386719 C444.029549,373.692969 443.613924,373.933594 443.163924,374.102344 L442.568611,374.325781 L442.288924,375.841406 C441.849861,375.891406 441.401424,375.891406 440.960799,375.841406 L440.681111,374.322656 L440.090486,374.096094 C439.645174,373.927344 439.231111,373.686719 438.860799,373.382031 L438.370174,372.977344 L436.910799,373.496094 C436.645174,373.138281 436.423299,372.752344 436.245174,372.346094 L437.424861,371.338281 L437.323299,370.713281 C437.285799,370.480469 437.265486,370.239844 437.265486,370.002344 C437.265486,369.763281 437.284236,369.524219 437.323299,369.291406 L437.424861,368.666406 L436.245174,367.658594 C436.421736,367.250781 436.645174,366.866406 436.910799,366.508594 L438.370174,367.027344 L438.860799,366.622656 C439.231111,366.317969 439.645174,366.077344 440.090486,365.908594 L440.682674,365.685156 L440.962361,364.166406 C441.401424,364.116406 441.849861,364.116406 442.290486,364.166406 L442.570174,365.682031 L443.165486,365.905469 C443.613924,366.074219 444.031111,366.314844 444.404549,366.621094 L444.895174,367.024219 L446.345174,366.510156 C446.610799,366.867969 446.832674,367.253906 447.010799,367.660156 L445.843611,368.658594 L445.945174,369.282031 Z M441.627986,367.096094 C440.109236,367.096094 438.877986,368.327344 438.877986,369.846094 C438.877986,371.364844 440.109236,372.596094 441.627986,372.596094 C443.146736,372.596094 444.377986,371.364844 444.377986,369.846094 C444.377986,368.327344 443.146736,367.096094 441.627986,367.096094 Z M442.865486,371.083594 C442.534236,371.413281 442.095174,371.596094 441.627986,371.596094 C441.160799,371.596094 440.721736,371.413281 440.390486,371.083594 C440.060799,370.752344 439.877986,370.313281 439.877986,369.846094 C439.877986,369.378906 440.060799,368.939844 440.390486,368.608594 C440.721736,368.277344 441.160799,368.096094 441.627986,368.096094 C442.095174,368.096094 442.534236,368.277344 442.865486,368.608594 C443.195174,368.939844 443.377986,369.378906 443.377986,369.846094 C443.377986,370.313281 443.195174,370.752344 442.865486,371.083594 Z" id="形状"></path>
        </g>
    </g>
</svg>