<?xml version="1.0" encoding="UTF-8"?>
<svg width="14px" height="14px" viewBox="0 0 14 14" version="1.1" xmlns="http://www.w3.org/2000/svg" xmlns:xlink="http://www.w3.org/1999/xlink">
    <!-- Generator: Sketch 64 (93537) - https://sketch.com -->
    <title></title>
    <desc>Created with Sketch.</desc>
    <g id="新配色的墨子和流水线" stroke="none" stroke-width="1" fill="none" fill-rule="evenodd">
        <g id="运行结果-运行成功" transform="translate(-1317.000000, -25.000000)" fill="#FA8334" fill-rule="nonzero">
            <g id="编组-13">
                <g id="帮助" transform="translate(1316.000000, 24.000000)">
                    <rect id="矩形" fill-opacity="0.85" opacity="0" x="0" y="0" width="16" height="16"></rect>
                    <path d="M13.7411635,3.9815565 C12.1479877,1.7032292 9.43456336,0.663406203 6.85843798,1.08496039 C5.85519819,1.24928098 4.87224862,1.63514736 3.9849622,2.25543081 C0.819428422,4.46936977 0.0453772344,8.84603439 2.25883652,12.0116321 C2.41831239,12.2398454 2.73217959,12.2962072 2.96074462,12.1359158 C3.18846223,11.9765199 3.24426441,11.662253 3.0848205,11.4342795 C1.18964142,8.72395716 1.85224817,4.97680173 4.56277844,3.08135084 C7.27142197,1.18644359 11.0194568,1.84839478 12.9151635,4.55889308 C14.8103426,7.26923147 14.1477358,11.0163709 11.4372056,12.9118378 C9.58877881,14.2038578 7.20154936,14.3536922 5.20464725,13.3048833 C4.95847816,13.1746196 4.65401258,13.2702827 4.52424456,13.5163719 C4.3949882,13.762621 4.48969198,14.0672464 4.73622884,14.1966946 C7.06826372,15.4227913 9.85717284,15.2474063 12.0150378,13.7377418 C15.1805716,11.5238188 15.9546228,7.14715423 13.7411635,3.9815565 Z M9.27764575,8.45407614 C9.91206361,7.92768103 10.2251633,7.51084366 10.4183763,7.20350003 C10.6116053,6.89765939 10.7089313,6.57212011 10.7089313,6.22980819 C10.7074283,5.612099 10.5450105,5.06889928 10.0170324,4.60342288 C9.48913436,4.13785053 8.87941973,3.90354539 7.98780025,3.90354539 C7.13882386,3.90354539 6.55494772,4.13479661 6.0331575,4.59576406 C5.76196537,4.83534563 5.55568922,5.10202881 5.41453692,5.39538192 C5.21225806,5.81581686 5.44205427,6.22189355 5.88295533,6.35127783 L5.97401359,6.36859409 C6.2130995,6.40416997 6.39169841,6.29525181 6.57582956,5.95714506 C6.67350734,5.77777867 6.90602169,5.56010225 7.06578537,5.42499386 C7.33203686,5.19981853 7.66071002,5.08719089 8.05628181,5.08719089 C8.46554033,5.08719089 8.78959262,5.19521366 9.03155658,5.41124319 C9.27187364,5.62736866 9.39363109,5.88594534 9.39363109,6.18874805 C9.39363109,6.40628056 9.32364655,6.60558544 9.18821836,6.78663069 C9.0999582,6.90074531 8.82918178,7.14267728 8.37579319,7.51087566 C7.92240458,7.87904205 7.61961787,8.21224013 7.46903197,8.50589703 C7.31689512,8.80104092 7.27035067,8.99017669 7.26827208,9.44815419 C7.26628942,9.88385878 7.59943955,10.004529 7.91599292,10.004529 C8.35110592,10.004529 8.53549291,9.74609619 8.58542705,9.40837316 C8.60370266,9.28485691 8.63059642,9.18641164 8.66599642,9.11290948 C8.7451428,8.94705389 8.94751758,8.72798642 9.27764575,8.45407614 Z M8.02436748,10.5415248 L8.02436748,10.5415248 C7.59499459,10.5415248 7.24694258,10.8895929 7.24694258,11.3189657 C7.24694258,11.78473 7.57062712,12.0964706 8.02436748,12.0964706 C8.45372437,12.0964706 8.80179239,11.7484026 8.80179239,11.3190457 L8.80179239,11.3189657 C8.80180838,10.8895929 8.45374036,10.5415248 8.02436748,10.5415248 Z" id="形状" fill-opacity="0.65"></path>
                </g>
            </g>
        </g>
    </g>
</svg>