<?xml version="1.0" encoding="UTF-8"?>
<svg width="14px" height="14px" viewBox="0 0 14 14" version="1.1" xmlns="http://www.w3.org/2000/svg" xmlns:xlink="http://www.w3.org/1999/xlink">
    <title>度量</title>
    <g id="页面-1" stroke="none" stroke-width="1" fill="none" fill-rule="evenodd">
        <g id="数据集管理/数据预览" transform="translate(-973.000000, -333.000000)" fill="#FFFFFF" fill-rule="nonzero" stroke="#FFFFFF" stroke-width="0.1">
            <g id="度量" transform="translate(974.000000, 334.000000)">
                <path d="M3.4088626,6.27653164 C3.33921197,6.27653164 3.27224021,6.24974891 3.2186628,6.19886173 L0.180823753,3.1617007 C-0.0602745842,2.92065618 -0.0602745842,2.52962839 0.180823753,2.29126214 L2.29177364,0.180783395 C2.53287197,-0.0602611316 2.92398705,-0.0602611316 3.16240652,0.180783395 L6.19488782,3.21258788 C6.29936377,3.31704051 6.29936377,3.48577168 6.19488782,3.59022431 C6.09041188,3.69467693 5.92164304,3.69467693 5.81716709,3.59022431 L2.78468579,0.561098092 C2.75253935,0.528958822 2.70164081,0.528958822 2.67217323,0.561098092 L0.561223351,2.67157683 C0.542471258,2.69032474 0.537113517,2.71442919 0.537113517,2.72782056 C0.537113517,2.74121192 0.542471258,2.76531637 0.561223351,2.78406428 L3.5990624,5.82122531 C3.70353834,5.92567794 3.70353834,6.09440911 3.5990624,6.19886173 C3.54548499,6.24974891 3.47583436,6.27653164 3.4088626,6.27653164 Z M9.27558879,12 C9.11753544,12 8.95948209,11.941078 8.83893292,11.8205557 L5.81984596,8.79946435 C5.71537002,8.69501172 5.71537002,8.52628055 5.81984596,8.42182792 C5.92432191,8.31737529 6.09309075,8.31737529 6.19756669,8.42182792 L9.21665364,11.440241 C9.24880009,11.4723803 9.29969863,11.4723803 9.3291662,11.440241 L11.4401161,9.3297623 C11.4588682,9.3110144 11.4642259,9.28690994 11.4642259,9.27351858 C11.4642259,9.25744895 11.4588682,9.23602277 11.4401161,9.21727486 L8.41835026,6.19350519 C8.31387432,6.08905256 8.31387432,5.92032139 8.41835026,5.81586876 C8.52282621,5.71141614 8.69159504,5.71141614 8.79607099,5.81586876 L11.8205157,8.83963843 C11.9357071,8.95480415 12,9.11014396 12,9.27619685 C12,9.43957148 11.9357071,9.59491128 11.8205157,9.71275527 L9.7095658,11.823234 C9.5916955,11.9383997 9.43364215,12 9.27558879,12 L9.27558879,12 Z" id="形状"></path>
                <path d="M0.269310947,12 C0.199652864,12 0.129994781,11.973268 0.0790907979,11.9224772 C0.0201493433,11.8636667 -0.006642227,11.7834707 0.00139524409,11.7006015 L0.371118914,8.73602139 C0.379156385,8.67721096 0.405947956,8.62107374 0.446135311,8.58097572 L8.80510524,0.213856093 C8.94442141,0.0748496324 9.12660409,0 9.32218255,0 C9.51776101,0 9.69994369,0.0748496324 9.83925986,0.213856093 L11.787007,2.15727333 C12.0709977,2.44063266 12.0709977,2.90309646 11.787007,3.18912898 L3.42803708,11.5562486 C3.38517057,11.5990198 3.33158743,11.6257518 3.27264598,11.6337714 L0.301460831,11.9973268 C0.290744203,12 0.280027575,12 0.269310947,12 Z M0.893554535,8.89106705 L0.577414005,11.4252618 L3.11725487,11.109824 L11.411925,2.80686122 C11.4896206,2.72933838 11.4896206,2.60637113 11.411925,2.5315215 L9.46417787,0.588104255 C9.42666967,0.550679439 9.37844485,0.531967031 9.32486171,0.531967031 C9.27395772,0.531967031 9.22305374,0.55335264 9.18554554,0.588104255 L0.893554535,8.89106705 Z" id="形状"></path>
                <path d="M10.7402852,4.05709625 C10.6722491,4.05709625 10.6068298,4.03099511 10.5544943,3.98140294 L8.01099045,1.44437194 C7.90893628,1.34257749 7.90893628,1.17814029 8.01099045,1.07634584 C8.11304462,0.974551387 8.27790135,0.974551387 8.37995551,1.07634584 L10.9234594,3.61337684 C11.0255135,3.71517129 11.0255135,3.87960848 10.9234594,3.98140294 C10.8737407,4.03099511 10.8057046,4.05709625 10.7402852,4.05709625 Z M3.8058354,11 C3.73779929,11 3.67237996,10.9738989 3.62004449,10.9243067 L1.07654063,8.38727569 C0.974486458,8.28548124 0.974486458,8.12104405 1.07654063,8.01924959 C1.17859479,7.91745514 1.34345152,7.91745514 1.44550569,8.01924959 L3.98900955,10.5562806 C4.09106372,10.658075 4.09106372,10.8225122 3.98900955,10.9243067 C3.93929085,10.9738989 3.87125474,11 3.8058354,11 Z M8.72275285,10.3761827 C8.65471673,10.3761827 8.5892974,10.3500816 8.53696193,10.3004894 C8.43490776,10.1986949 8.43490776,10.0342577 8.53696193,9.9324633 L10.1698286,8.30375204 C10.2718828,8.20195759 10.4367395,8.20195759 10.5387937,8.30375204 C10.6408478,8.40554649 10.6408478,8.56998369 10.5387937,8.67177814 L8.90854377,10.3004894 C8.85882507,10.3526917 8.79078896,10.3761827 8.72275285,10.3761827 Z M7.66557634,9.32169657 C7.59754023,9.32169657 7.53212089,9.29559543 7.47978542,9.24600326 C7.37773126,9.14420881 7.37773126,8.97977162 7.47978542,8.87797716 L9.1126521,7.24926591 C9.21470627,7.14747145 9.379563,7.14747145 9.48161717,7.24926591 C9.58367133,7.35106036 9.58367133,7.51549755 9.48161717,7.61729201 L7.84875049,9.24600326 C7.79903179,9.29559543 7.73361246,9.32169657 7.66557634,9.32169657 Z M2.94230014,4.61044046 C2.87426403,4.61044046 2.80884469,4.58433931 2.75650922,4.53474715 C2.65445506,4.43295269 2.65445506,4.2685155 2.75650922,4.16672104 L4.3893759,2.53800979 C4.49143007,2.43621533 4.6562868,2.43621533 4.75834097,2.53800979 C4.86039513,2.63980424 4.86039513,2.80424144 4.75834097,2.90603589 L3.12547429,4.53474715 C3.07575559,4.58433931 3.01033626,4.61044046 2.94230014,4.61044046 Z M1.88512364,3.55595432 C1.81708753,3.55595432 1.75166819,3.52985318 1.69933272,3.48026101 C1.59727856,3.37846656 1.59727856,3.21402936 1.69933272,3.11223491 L3.33481617,1.47830343 C3.43687034,1.37650897 3.60172707,1.37650897 3.70378124,1.47830343 C3.8058354,1.58009788 3.8058354,1.74453507 3.70378124,1.84632953 L2.07091456,3.47504078 C2.01857909,3.52985318 1.95054298,3.55595432 1.88512364,3.55595432 Z" id="形状"></path>
            </g>
        </g>
    </g>
</svg>