<svg t="1653373034070" class="icon" viewBox="0 0 2150 1024" version="1.1" xmlns="http://www.w3.org/2000/svg" p-id="2238" width="128" height="128"><path d="M88.3712 44.2368V921.6h100.7616V200.2944h3.6864L691.712 921.6h103.2192V44.2368H694.272v713.9328h-3.6864L194.048 44.2368zM1355.264 27.0336c-132.7104 0-235.9296 44.2368-312.1152 132.7104-72.4992 83.5584-108.1344 191.6928-108.1344 324.4032 0 131.4816 35.6352 239.616 108.1344 323.1744 76.1856 87.2448 179.4048 131.4816 310.8864 131.4816s235.9296-44.2368 312.1152-131.4816c71.2704-83.5584 108.1344-190.464 108.1344-323.1744 0-133.9392-36.864-242.0736-108.1344-325.632C1589.9648 70.0416 1485.5168 27.0336 1355.264 27.0336z m0 89.7024c100.7616 0 179.4048 33.1776 235.9296 100.7616 54.0672 66.3552 82.3296 154.8288 82.3296 266.6496 0 110.592-28.2624 197.8368-82.3296 264.192-56.5248 66.3552-136.3968 100.7616-237.1584 100.7616-100.7616 0-180.6336-34.4064-237.1584-103.2192-54.0672-66.3552-81.1008-153.6-81.1008-261.7344 0-109.3632 27.0336-196.608 81.1008-262.9632 57.7536-70.0416 137.6256-104.448 238.3872-104.448zM1988.096 775.3728a67.7888 67.7888 0 0 0-52.8384 22.1184 72.2944 72.2944 0 0 0-22.1184 54.0672c0 20.8896 7.3728 38.0928 22.1184 52.8384 13.5168 14.7456 30.72 22.1184 52.8384 22.1184a73.4208 73.4208 0 0 0 52.8384-22.1184 71.4752 71.4752 0 0 0 22.1184-52.8384 72.2944 72.2944 0 0 0-22.1184-54.0672 73.4208 73.4208 0 0 0-52.8384-22.1184z" fill="#75D164" p-id="2239"></path></svg>