<?xml version="1.0" encoding="UTF-8"?>
<svg width="32px" height="32px" viewBox="0 0 32 32" version="1.1" xmlns="http://www.w3.org/2000/svg" xmlns:xlink="http://www.w3.org/1999/xlink">
    <title>路径@1x</title>
    <g id="页面-1" stroke="none" stroke-width="1" fill="none" fill-rule="evenodd">
        <g id="数据源/demo数据源" transform="translate(-270.000000, -322.000000)" fill-rule="nonzero">
            <g id="编组-10" transform="translate(270.000000, 322.000000)">
                <path d="M26.5365854,0 C29.5804878,0 32,2.41951219 32,5.46341463 L32,26.5365854 C32,29.5804878 29.5804878,32 26.5365854,32 L5.46341463,32 C2.41951219,32 0,29.5804878 0,26.5365854 L0,5.46341463 C0,2.41951219 2.41951219,0 5.46341463,0 C16,0 16,0 26.5365854,0 Z" id="路径" fill="#5CCD9C"></path>
                <g id="编组-9" transform="translate(3.000000, 12.000000)" fill="#F9F9F9">
                    <path d="M2.14039283,0.780197665 C1.85995201,0.431627626 1.61845913,0.0776114779 1.5691242,0.00408481255 C1.56392941,-0.00136160418 1.55613722,-0.00136160418 1.55094502,0.00408481255 C1.50160749,0.0776114779 1.26011722,0.431627626 0.979673796,0.780197665 C-1.42744715,3.99629183 1.35879228,6.16670039 1.35879228,6.16670039 L1.38216105,6.1830428 C1.40293242,6.51798054 1.45486735,7 1.45486735,7 L1.55873461,7 L1.66260187,7 C1.66260187,7 1.7145368,6.52070428 1.73531077,6.1830428 L1.75867954,6.16397665 C1.76127434,6.16670039 4.54752417,3.99629183 2.14039283,0.780197665 Z M1.55873461,6.11767315 C1.55873461,6.11767315 1.43409598,6.00602724 1.40033763,5.94885603 L1.40033763,5.94338132 L1.55094502,2.44135486 C1.55094502,2.43045992 1.5665268,2.43045992 1.5665268,2.44135486 L1.7171316,5.94338132 L1.7171316,5.94885603 C1.68337585,6.00602724 1.55873461,6.11767315 1.55873461,6.11767315 Z" id="形状"></path>
                    <path d="M7.83273711,6.12482857 L6.37228931,3.00860571 L6.36901887,3 L5.23273711,3 L5.23273711,3.20946857 L5.41611069,3.20946857 C5.47177358,3.20946857 5.52416604,3.22955429 5.56347673,3.26398857 C5.60275472,3.29842 5.62241006,3.34434286 5.62241006,3.39311429 L5.58967296,6.52942857 C5.58967296,6.62697143 5.49800252,6.70731429 5.38664403,6.7102 L5.2,6.71305714 L5.2,6.91965714 L6.30681509,6.91965714 L6.30681509,6.71305714 L6.19218616,6.7102 C6.08086038,6.70731429 5.98915723,6.62697143 5.98915723,6.52942857 L5.98915723,3.57388571 L7.58061887,6.91965714 C7.60351195,6.96842857 7.6559044,7 7.71487044,7 C7.77380377,7 7.82619623,6.96842857 7.84912201,6.91965714 L9.4045434,3.64848571 L9.42746918,6.52942857 C9.42746918,6.62985714 9.33576604,6.7102 9.22116981,6.71305714 L9.10327044,6.71305714 L9.10327044,6.91965714 L10.4,6.91965714 L10.4,6.71305714 L10.2231673,6.71305714 C10.1118415,6.71305714 10.0201384,6.62985714 10.0168679,6.53228571 L10.0070566,3.39597143 C10.0070566,3.29555143 10.098727,3.21520571 10.2100855,3.21233714 L10.4,3.20946857 L10.4,3 L9.29318491,3 L7.83273711,6.12482857 Z" id="路径"></path>
                    <path d="M17.43607,6.73138 C17.40292,6.6982 17.38486,6.65293 17.38486,6.5986 L17.38486,4.98088 C17.38486,4.67305 17.29453,4.43158 17.11381,4.25956 C16.93615,4.08751 16.68919,4 16.38202,4 C15.95134,4 15.61105,4.17505 15.37312,4.51912 C15.37012,4.52515 15.36109,4.52818 15.35206,4.52818 C15.343,4.52818 15.337,4.52212 15.337,4.51309 L15.22555,4.08148 L15.03883,4.08148 L14.56,4.35613 L14.56,4.50703 L14.68348,4.50703 C14.74069,4.50703 14.78887,4.52212 14.82202,4.55233 C14.85514,4.58251 14.8732,4.62778 14.8732,4.69114 L14.8732,6.59557 C14.8732,6.6499 14.85514,6.69517 14.82202,6.72838 C14.78887,6.76156 14.74372,6.77968 14.68951,6.77968 L14.56903,6.77968 L14.56903,7 L15.67126,7 L15.67126,6.77968 L15.55081,6.77968 C15.4966,6.77968 15.45142,6.76156 15.4183,6.72838 C15.38518,6.69517 15.36709,6.6499 15.36709,6.59557 L15.36709,5.33401 C15.36709,5.17405 15.40324,5.01409 15.46951,4.85713 C15.53875,4.70323 15.64114,4.57345 15.77668,4.47385 C15.91219,4.37425 16.07482,4.32595 16.26154,4.32595 C16.47235,4.32595 16.63198,4.39234 16.73134,4.52515 C16.83073,4.65796 16.88194,4.82998 16.88194,5.03521 L16.88194,6.59257 C16.88194,6.64687 16.86385,6.69214 16.83073,6.72535 C16.79761,6.75856 16.75243,6.77665 16.69822,6.77665 L16.57777,6.77665 L16.57777,6.99697 L17.68,6.99697 L17.68,6.77665 L17.55955,6.77665 C17.51437,6.78271 17.47219,6.76459 17.43607,6.73138 Z" id="路径"></path>
                    <path d="M13.7876919,4.18788235 C13.5507572,4.06458824 13.2861442,4 13,4 C12.7138558,4 12.4461537,4.06164706 12.2123081,4.18788235 C11.9753735,4.31114706 11.7876792,4.49020588 11.6492253,4.71623529 C11.5107715,4.94226471 11.44,5.20647059 11.44,5.5 C11.44,5.79352941 11.5107715,6.05773529 11.6492253,6.28376471 C11.7876792,6.50979412 11.9753735,6.68885294 12.2123081,6.81214706 C12.4492428,6.93541176 12.7138558,7 13,7 C13.2861442,7 13.5538463,6.93835294 13.7876919,6.81214706 C14.0246265,6.68885294 14.2123208,6.50979412 14.3507747,6.28376471 C14.4892285,6.05773529 14.56,5.79352941 14.56,5.5 C14.56,5.20647059 14.4892285,4.94226471 14.3507747,4.71623529 C14.2123208,4.49020588 14.0246265,4.31114706 13.7876919,4.18788235 Z M14.0153901,5.5 C14.0153901,5.86105882 13.9230875,6.15458824 13.7384515,6.36594118 C13.5569354,6.57729412 13.3077061,6.68591176 13,6.68591176 C12.6923248,6.68591176 12.4430646,6.57729412 12.2615485,6.36594118 C12.0769125,6.15458824 11.9846099,5.86105882 11.9846099,5.5 C11.9846099,5.13894118 12.0769125,4.84541176 12.2615485,4.63405882 C12.4430646,4.42270588 12.6923248,4.31408824 13,4.31408824 C13.3077061,4.31408824 13.5569354,4.42270588 13.7384515,4.63405882 C13.9230875,4.84541176 14.0153901,5.13894118 14.0153901,5.5 Z" id="形状"></path>
                    <path d="M24.1876919,4.18788235 C23.9507572,4.06458824 23.6861442,4 23.4,4 C23.1138558,4 22.8461537,4.06164706 22.6123081,4.18788235 C22.3753735,4.31114706 22.1876792,4.49020588 22.0492253,4.71623529 C21.9107715,4.94226471 21.84,5.20647059 21.84,5.5 C21.84,5.79352941 21.9107715,6.05773529 22.0492253,6.28376471 C22.1876792,6.50979412 22.3753735,6.68885294 22.6123081,6.81214706 C22.8492428,6.93541176 23.1138558,7 23.4,7 C23.6861442,7 23.9538463,6.93835294 24.1876919,6.81214706 C24.4246265,6.68885294 24.6123208,6.50979412 24.7507747,6.28376471 C24.8892285,6.05773529 24.96,5.79352941 24.96,5.5 C24.96,5.20647059 24.8892285,4.94226471 24.7507747,4.71623529 C24.6123208,4.49020588 24.4215374,4.31114706 24.1876919,4.18788235 Z M24.4153901,5.5 C24.4153901,5.86105882 24.3230566,6.15458824 24.1384515,6.36594118 C23.9569046,6.57729412 23.7076752,6.68591176 23.4,6.68591176 C23.0922939,6.68591176 22.8430646,6.57729412 22.6615485,6.36594118 C22.4769125,6.15458824 22.3846099,5.86105882 22.3846099,5.5 C22.3846099,5.136 22.4769125,4.84541176 22.6615485,4.63405882 C22.8430646,4.42270588 23.0922939,4.31408824 23.4,4.31408824 C23.7076752,4.31408824 23.9569046,4.42270588 24.1384515,4.63405882 C24.3199984,4.84541176 24.4153901,5.13894118 24.4153901,5.5 Z" id="形状"></path>
                    <path d="M19.1308,3 C18.869955,3 18.63199,3.05605263 18.4168075,3.16819079 C18.201625,3.28032895 18.032105,3.43207237 17.911465,3.62664474 C17.7908575,3.81792763 17.7289125,4.03233553 17.7289125,4.25990132 C17.7289125,4.464375 17.7745425,4.65236842 17.869085,4.82059211 C17.9603775,4.98220395 18.0842675,5.11740132 18.240755,5.22953947 L17.7745425,5.86940789 C17.7158475,5.94855263 17.7093475,6.05407895 17.7517275,6.13983553 C17.7973575,6.22888158 17.8821175,6.28167763 17.9799425,6.28167763 L18.113615,6.28167763 C17.9831925,6.37072368 17.8788675,6.47625 17.80714,6.60157895 C17.72238,6.74338816 17.68,6.89180921 17.68,7.04351974 C17.68,7.32717105 17.80389,7.56134868 18.0483875,7.73615132 C18.2896675,7.91095395 18.6287075,8 19.05579,8 C19.3524825,8 19.63611,7.95052632 19.8936725,7.85486842 C20.154485,7.75924342 20.366385,7.61740132 20.5228725,7.43273026 C20.6826425,7.24802632 20.7641525,7.02375 20.7641525,6.76648026 C20.7641525,6.49605263 20.6663275,6.30473684 20.4381125,6.12006579 C20.2425275,5.96503289 19.9360525,5.88259868 19.5546,5.88259868 L18.2505375,5.88259868 C18.2472875,5.88259868 18.244005,5.87927632 18.244005,5.87927632 C18.244005,5.87927632 18.240755,5.87269737 18.244005,5.86940789 L18.5830775,5.40766447 C18.67437,5.45052632 18.75913,5.47690789 18.8341075,5.49338816 C18.912335,5.50990132 19.0003775,5.51648026 19.09817,5.51648026 C19.3720475,5.51648026 19.6198275,5.46042763 19.8349775,5.34828947 C20.05016,5.23615132 20.2229625,5.08444079 20.3468525,4.88983553 C20.47071,4.69855263 20.532655,4.48417763 20.532655,4.25661184 C20.532655,4.01253289 20.4152975,3.56726974 20.09579,3.33970395 C20.09579,3.33641447 20.0990725,3.33641447 20.0990725,3.33641447 L20.8,3.41555921 L20.8,3.08904605 L19.67849,3.08904605 C19.5024375,3.03299342 19.319885,3 19.1308,3 Z M19.5220025,5.06463816 C19.3981125,5.13059211 19.26444,5.166875 19.1308,5.166875 C18.9123675,5.166875 18.72,5.08773026 18.55698,4.93273026 C18.3939925,4.77769737 18.3124825,4.55013158 18.3124825,4.25990132 C18.3124825,3.96967105 18.3939925,3.74207237 18.55698,3.58707237 C18.72,3.43207237 18.9123675,3.35289474 19.1308,3.35289474 C19.2677225,3.35289474 19.3981125,3.38588816 19.5220025,3.45513158 C19.6458925,3.52111842 19.7469675,3.62335526 19.8284775,3.75858553 C19.906705,3.89381579 19.949085,4.06200658 19.949085,4.25990132 C19.949085,4.46108553 19.909955,4.62927632 19.8284775,4.76121711 C19.7502175,4.89644737 19.6458925,4.99868421 19.5220025,5.06463816 Z M18.63849,6.27835526 L19.5220025,6.27835526 C19.7665325,6.27835526 19.92302,6.32782895 20.027345,6.43338816 C20.13167,6.53891447 20.1838325,6.68072368 20.1838325,6.84565789 C20.1838325,7.08641447 20.08929,7.28430921 19.900205,7.43273026 C19.7110875,7.58115132 19.4568075,7.65700658 19.1438325,7.65700658 C18.869955,7.65700658 18.64174,7.59434211 18.47547,7.47559211 C18.3092,7.356875 18.22444,7.17546053 18.22444,6.94460526 C18.22444,6.79947368 18.26357,6.66424342 18.34183,6.54552632 C18.4200575,6.42677632 18.5146,6.34101974 18.63849,6.27835526 Z" id="形状"></path>
                    <path d="M25.214,6.93308 C25.1348,6.88976 25.0752,6.82676 25.0276,6.75196 C24.984,6.67324 24.96,6.59056 24.96,6.5 C24.96,6.40944 24.984,6.32284 25.0276,6.24804 C25.0712,6.16928 25.1348,6.11024 25.214,6.06692 C25.2936,6.02364 25.3808,6 25.48,6 C25.5792,6 25.6664,6.02364 25.746,6.06692 C25.8252,6.11024 25.8848,6.17324 25.9324,6.24804 C25.976,6.32676 26,6.40944 26,6.5 C26,6.59056 25.976,6.67716 25.9324,6.75196 C25.8888,6.83072 25.8252,6.88976 25.746,6.93308 C25.6664,6.97636 25.5792,7 25.48,7 C25.3848,7 25.2936,6.98032 25.214,6.93308 Z M25.7024,6.87796 C25.7696,6.84252 25.8176,6.7874 25.8572,6.7244 C25.8928,6.65748 25.9128,6.58268 25.9128,6.5 C25.9128,6.41732 25.8928,6.34252 25.8572,6.2756 C25.8212,6.20868 25.7696,6.15748 25.7024,6.12204 C25.6348,6.0866 25.5632,6.06692 25.48,6.06692 C25.3968,6.06692 25.3252,6.0866 25.2576,6.12204 C25.1904,6.15748 25.1424,6.2126 25.1028,6.2756 C25.0672,6.34252 25.0472,6.41732 25.0472,6.5 C25.0472,6.58268 25.0672,6.65748 25.1028,6.7244 C25.1388,6.79132 25.1904,6.84252 25.2576,6.87796 C25.3252,6.9134 25.3968,6.93308 25.48,6.93308 C25.5632,6.93308 25.6388,6.9134 25.7024,6.87796 Z M25.2656,6.74016 L25.2656,6.70472 L25.2736,6.7008 L25.2976,6.7008 C25.3052,6.7008 25.3132,6.69684 25.3172,6.69292 C25.3252,6.68504 25.3252,6.68112 25.3252,6.67324 L25.3252,6.30708 C25.3252,6.2992 25.3212,6.29136 25.3172,6.2874 C25.3092,6.27952 25.3052,6.27952 25.2976,6.27952 L25.2736,6.27952 L25.2656,6.2756 L25.2656,6.24016 L25.2736,6.23624 L25.48,6.23624 C25.5396,6.23624 25.5832,6.24804 25.6188,6.2756 C25.6548,6.30316 25.6704,6.3386 25.6704,6.38584 C25.6704,6.42128 25.6588,6.45668 25.6308,6.48032 C25.6032,6.50788 25.5712,6.52364 25.5316,6.52756 L25.5792,6.54332 L25.6704,6.68896 C25.6784,6.7008 25.6864,6.70472 25.6984,6.70472 L25.722,6.70472 L25.726,6.70868 L25.726,6.74408 L25.722,6.74804 L25.5992,6.74804 L25.5912,6.74408 L25.464,6.53148 L25.4324,6.53148 L25.4324,6.67324 C25.4324,6.68112 25.4364,6.68896 25.4404,6.69292 C25.4484,6.7008 25.4524,6.7008 25.46,6.7008 L25.484,6.7008 L25.492,6.70472 L25.492,6.74016 L25.484,6.74408 L25.2736,6.74408 L25.2656,6.74016 Z M25.468,6.48032 C25.5,6.48032 25.5276,6.47244 25.5436,6.45276 C25.5592,6.437 25.5712,6.40944 25.5712,6.37796 C25.5712,6.34644 25.5632,6.32284 25.5476,6.30316 C25.5316,6.28348 25.5076,6.2756 25.48,6.2756 L25.464,6.2756 C25.456,6.2756 25.4484,6.27952 25.4444,6.28348 C25.4364,6.29132 25.4364,6.29528 25.4364,6.30316 L25.4364,6.48032 L25.468,6.48032 Z" id="形状"></path>
                </g>
            </g>
        </g>
    </g>
</svg>