<?xml version="1.0" encoding="UTF-8"?>
<svg width="32px" height="32px" viewBox="0 0 32 32" version="1.1" xmlns="http://www.w3.org/2000/svg" xmlns:xlink="http://www.w3.org/1999/xlink">
    <title>路径备份 3@1x</title>
    <g id="页面-1" stroke="none" stroke-width="1" fill="none" fill-rule="evenodd">
        <g id="数据源/demo数据源" transform="translate(-270.000000, -390.000000)">
            <g id="编组-14" transform="translate(270.000000, 390.000000)">
                <path d="M26.5365854,0 C29.5804878,0 32,2.41951219 32,5.46341463 L32,26.5365854 C32,29.5804878 29.5804878,32 26.5365854,32 L5.46341463,32 C2.41951219,32 0,29.5804878 0,26.5365854 L0,5.46341463 C0,2.41951219 2.41951219,0 5.46341463,0 C16,0 16,0 26.5365854,0 Z" id="路径备份-3" fill="#FF8B5D" fill-rule="nonzero"></path>
                <g id="编组-6备份" transform="translate(3.000000, 7.000000)" fill="#F9F9F9">
                    <path d="M5.87662055,10 C5.83711374,11.6950124 5.72760365,13.2888786 5.5486101,14.7819083 L5.53871538,14.7819083 L3.828296,10 L2.97295635,10 L1.27289885,14.7819083 L1.26288353,14.7819083 C1.13673899,13.3480483 1.05737883,11.7541822 1.02428322,10 L0,10 C0.0661912252,12.1333643 0.231842564,14.1332094 0.496954015,16 L1.88932629,16 L3.51005829,11.5913879 L3.52000379,11.5913879 L5.1506818,16 L6.48294482,16 C6.77467138,13.8136617 6.94694184,11.813197 6.99986017,10 L5.87662055,10 Z" id="路径" fill-rule="nonzero" transform="translate(3.499930, 13.000000) scale(-1, 1) rotate(-180.000000) translate(-3.499930, -13.000000) "></path>
                    <path d="M9.36021178,13.1626444 C8.83147624,12.387543 8.25225186,12 7.6215182,12 C7.45337907,12 7.24603888,12.0499706 7,12.1492611 L7,12.68416 C7.12019357,12.6667957 7.26123577,12.6575328 7.42344057,12.6575328 C7.71769189,12.6575328 7.95482929,12.7377707 8.13524524,12.8979212 C8.35129853,13.0930636 8.45941936,13.3124013 8.45941936,13.5554695 C8.45941936,13.7214908 8.37508291,14.0621612 8.20717927,14.5774962 L7.09014518,18 L8.09004706,18 L8.89176142,15.4402863 C9.07186338,14.8591189 8.67845551,13.0665913 9.11693597,14.2221568 C9.55541644,15.3777224 9.8617405,16.6370396 10.036018,18 L11,18 C10.5855237,15.7810651 10.0388125,14.1685616 9.36021178,13.1626444 Z" id="路径" fill-rule="nonzero" transform="translate(9.000000, 15.000000) scale(-1, 1) rotate(-180.000000) translate(-9.000000, -15.000000) "></path>
                    <path d="M14.4058787,10.5552356 C14.0099075,10.1854071 13.4779445,10 12.8117986,10 C12.1887359,10 11.5849126,10.2133978 11,10.6367077 L11.273628,11.222469 C11.7769784,10.9531075 12.2324769,10.818594 12.6414388,10.818594 C13.0250771,10.818594 13.3253443,10.9099949 13.5425694,11.0905785 C13.7593011,11.2724648 13.8892086,11.5261409 13.8892086,11.8478924 C13.8892086,12.2527884 13.6254471,12.5988864 13.1415005,12.889232 C12.6947174,13.1517102 11.8018088,13.6997105 11.8018088,13.6997105 C11.3180267,14.0775137 11.0754779,14.482885 11.0754779,15.1508049 C11.0754779,15.7032062 11.2563618,16.1497009 11.6176362,16.4894086 C11.9797328,16.8298029 12.4469065,17 13.0189928,17 C13.6103186,17 14.148037,16.8310528 14.6323124,16.494373 L14.3863104,15.9091574 C13.9719219,16.0972404 13.5632888,16.1916516 13.1604111,16.1916516 C12.8335046,16.1916516 12.5815827,16.1076269 12.4059609,15.9385916 C12.2293525,15.7710175 12.1201644,15.5553664 12.1201644,15.2925361 C12.1201644,14.8886788 12.3896814,14.5383733 12.8872765,14.242412 C13.3396506,13.9797929 14.2544296,13.4211949 14.2544296,13.4211949 C14.7520247,13.0440783 15,12.6420166 15,11.9797829 C15,11.4014682 14.8015211,10.9267013 14.4058787,10.5552356 Z" id="路径" fill-rule="nonzero" transform="translate(13.000000, 13.500000) scale(-1, 1) rotate(-180.000000) translate(-13.000000, -13.500000) "></path>
                    <path d="M16.3915655,12.0461988 C16.1461331,12.4425116 16.0231823,13.07848 16.0231823,13.9554067 C16.0231823,15.4863359 16.4871418,16.2522949 17.4145914,16.2522949 C17.899512,16.2522949 18.2553811,16.0690963 18.4829809,15.7030759 C18.7281004,15.3065746 18.8510512,14.6761154 18.8510512,13.811447 C18.8510512,12.2682595 18.3870917,11.4963519 17.4596421,11.4963519 C16.974878,11.4963519 16.6188525,11.6793621 16.3915655,12.046136 M18.886247,11.2343773 C18.9854227,11.3159785 19.0795895,11.4040149 19.1648417,11.5059262 C19.6377174,12.0637307 19.8743899,12.8893328 19.8743899,13.9823716 C19.8743899,15.9937577 19.0874108,17 17.5136091,17 C16.7416469,17 16.1400325,16.7449472 15.7092354,16.2341038 C15.2362032,15.6756243 15,14.8531299 15,13.7662909 C15,12.6975959 15.209298,11.913587 15.6282067,11.4155669 C16.0098861,10.9654182 16.587098,10.74003 17.3598423,10.74003 C17.6481354,10.74003 17.9126517,10.7756432 18.1530785,10.8468853 L19.6034601,10 L19.998905,10.683369 L18.886247,11.2343773 Z" id="形状" transform="translate(17.499453, 13.500000) scale(-1, 1) rotate(-180.000000) translate(-17.499453, -13.500000) "></path>
                    <polygon id="路径" fill-rule="nonzero" transform="translate(22.500000, 13.000000) scale(-1, 1) rotate(-180.000000) translate(-22.500000, -13.000000) " points="21 10 21 16 22.0095011 16 22.0095011 10.7380731 24 10.7380731 24 10.0000155"></polygon>
                    <path d="M24.2742899,16 L24.4760777,16 L24.4760777,16.8303871 L24.7401506,16.8303871 L24.7401506,17 L24,17 L24,16.8303871 L24.2742899,16.8303871 L24.2742899,16 Z M25.8098027,16 L26,16 L26,17 L25.7139211,17 L25.481089,16.3183667 L25.2276263,17 L24.9519609,17 L24.9519609,16 L25.1319372,16 L25.1319372,16.761067 L25.1421563,16.761067 L25.4076045,16 L25.5447475,16 L25.8098027,16.761067 L25.8098027,16" id="形状" fill-rule="nonzero" transform="translate(25.000000, 16.500000) scale(-1, 1) rotate(-180.000000) translate(-25.000000, -16.500000) "></path>
                    <path d="M23.6807311,2.27867667 C23.5685161,2.2329999 23.389164,2.2329999 23.3738184,2.08816951 C23.434082,2.02729971 23.4412769,1.92830894 23.4940259,1.84410409 C23.5835421,1.69168534 23.7403553,1.48622942 23.882782,1.37924318 C24.0399133,1.25724304 24.1970478,1.1357477 24.3618535,1.02907086 C24.6534206,0.845370432 24.9827123,0.739133257 25.2666065,0.556133047 C25.431732,0.449586475 25.5957384,0.3125073 25.7608639,0.197883837 C25.8428671,0.136948903 25.8948185,0.0377138714 26,0 L26,0.023074506 C25.9472478,0.091467537 25.9325431,0.190572296 25.8804319,0.267221343 C25.8057818,0.342844494 25.730812,0.411872604 25.6558422,0.4877563 C25.4387654,0.784940304 25.1690978,1.04382421 24.8780103,1.25724304 C24.6383946,1.42535962 24.1144051,1.6540366 24.0175358,1.93518081 C24.0175358,1.93518081 24.0097031,1.94325722 24.00235,1.95076417 C24.1669959,1.96623418 24.3618535,2.02729922 24.5188265,2.07352966 C24.7728288,2.14192269 25.0047716,2.12645284 25.2666065,2.19484587 C25.3864943,2.22555759 25.5062222,2.26392283 25.6264297,2.30139244 L25.6264297,2.3704694 C25.4910364,2.50735154 25.3941671,2.69054879 25.2520602,2.81999074 C24.870817,3.1552143 24.4513697,3.48268664 24.0175358,3.75748007 C23.7852732,3.90994768 23.4860334,4.00854763 23.2390645,4.13842925 C23.1497098,4.1842363 23.0002481,4.206806 22.9476573,4.28345505 C22.8129019,4.45106683 22.7377738,4.67179719 22.6407446,4.87026725 C22.4239876,5.28897916 22.214104,5.75372609 22.0273988,6.19648955 C21.8928064,6.49351071 21.8104819,6.79053187 21.645836,7.06508104 C20.8748777,8.36096614 20.0372618,9.14553191 18.7504664,9.91544203 C18.4736056,10.0756771 18.1444737,10.144233 17.7931226,10.2280959 C17.6057779,10.2360751 17.4189129,10.2508936 17.231888,10.2583842 C17.1120002,10.3119588 16.9921124,10.4568869 16.8875703,10.5254427 C16.4609297,10.7996662 15.3616387,11.3940342 15.0472131,10.6091428 C14.8451622,10.1134561 15.3464529,9.62591153 15.5186118,9.37432288 C15.6456912,9.19926929 15.8104985,9.00076666 15.8998549,8.80291539 C15.9522874,8.67329431 15.9673117,8.53585689 16.0199025,8.39890799 C16.1394706,8.06361929 16.2515257,7.69006307 16.4089783,7.37740922 C16.4909815,7.21733858 16.5806576,7.04944835 16.6853596,6.90533446 C16.7457814,6.82098468 16.8501653,6.78336689 16.8727042,6.64576662 C16.7683219,6.49351071 16.7601695,6.26488258 16.7003855,6.07419629 C16.4311975,5.21293262 16.5357396,4.14600134 16.9174623,3.51352864 C17.0368705,3.32302148 17.321564,2.90370707 17.7031268,3.06413758 C18.0397717,3.20108322 17.9649617,3.63552878 18.0621507,4.01636398 C18.0845282,4.10846985 18.0695022,4.16889346 18.1142619,4.2297828 L18.1142619,4.21437939 C18.2189623,4.00128624 18.3239856,3.79602573 18.4211746,3.58190669 C18.6534372,3.20883899 19.0570594,2.82005718 19.3940239,2.56117327 C19.5730564,2.42345902 19.7153232,2.18758448 19.9397531,2.10349362 L19.9397531,2.12651927 L19.9250468,2.12651927 C19.879969,2.19490905 19.8128335,2.22562403 19.752888,2.27873936 C19.6182924,2.41601232 19.4689938,2.583756 19.3638122,2.73609333 C19.0497063,3.16271929 18.7725257,3.63552683 18.5261963,4.12323428 C18.4061503,4.36005329 18.3016066,4.61893719 18.2042577,4.85505599 C18.159498,4.94608549 18.159498,5.08366784 18.0845282,5.12927948 C17.9719951,4.96179797 17.8078272,4.81677218 17.7256641,4.61162565 C17.5833973,4.28351823 17.5685328,3.87967366 17.5157806,3.46029411 C17.4860484,3.45233202 17.5010744,3.46029411 17.4860484,3.4451501 C17.2469123,3.50608341 17.1645893,3.75754342 17.0745936,3.97024574 C16.8501637,4.51208139 16.812439,5.38088458 17.0072982,6.00591546 C17.0594094,6.16566367 17.2844787,6.6686765 17.1943231,6.82109525 C17.1490871,6.96651024 16.9996254,7.04956055 16.9174623,7.16436313 C16.8204315,7.30912838 16.7150917,7.49167264 16.6484341,7.65207058 C16.4687623,8.07871282 16.3784469,8.55143894 16.1845484,8.97808118 C16.0947125,9.17658381 15.9372599,9.38241427 15.8104985,9.56495852 C15.6680719,9.77078898 15.5110988,9.91555423 15.398724,10.1591637 C15.3616371,10.2431894 15.3092062,10.380464 15.368832,10.4716547 C15.3835366,10.5327199 15.4139082,10.5556821 15.4738521,10.5709891 C15.5705631,10.6548503 15.8477421,10.5483542 15.9447712,10.502596 C16.2217919,10.3886077 16.4537348,10.2812957 16.685358,10.1215492 C16.7902182,10.0451786 16.9024348,9.90041169 17.0368689,9.86198132 L17.1943199,9.86198132 C17.4336159,9.80905814 17.7031236,9.84716283 17.9277134,9.77828127 C18.3239824,9.64882304 18.6830063,9.45829959 19.004945,9.25246914 C19.9846678,8.6198336 20.7927114,7.7203024 21.3386004,6.64588045 C21.4285962,6.47082686 21.4663208,6.31059176 21.5484839,6.1280475 C21.7056168,5.75383992 21.9003146,5.37279303 22.0571278,5.00732998 C22.2141024,4.64908077 22.3640405,4.28356887 22.5887901,3.98588006 C22.7006853,3.82610092 23.149705,3.74225432 23.3517559,3.65835886 C23.5010577,3.58998212 23.7333187,3.52891691 23.8680725,3.44520058 C24.1223945,3.28542144 24.3762368,3.10222582 24.6160124,2.92665114 C24.735419,2.8351836 25.1096303,2.64487185 25.1321692,2.49220883 C24.5333729,2.50735284 24.069647,2.44648386 23.6807311,2.27867667 Z" id="路径" transform="translate(20.500000, 5.500000) scale(-1, 1) rotate(-180.000000) translate(-20.500000, -5.500000) "></path>
                    <path d="M17.5122811,3 C17.3003238,3 17.150828,2.97863383 17,2.94770161 L17,2.92678715 L17.0242926,2.92678715 C17.1251979,2.76056626 17.3003211,2.64507946 17.4241869,2.49955274 C17.5248279,2.33288236 17.6123855,2.16688844 17.7122283,2 C17.7245054,2.0102336 17.7365183,2.02114143 17.7365183,2.02114143 C17.912704,2.12483256 18,2.29127819 18,2.54161085 C17.9244525,2.61504399 17.912704,2.68736232 17.849706,2.76057071 C17.7749594,2.86448436 17.6123855,2.91655578 17.5122785,3" id="路径" transform="translate(17.500000, 2.500000) scale(-1, 1) rotate(-180.000000) translate(-17.500000, -2.500000) "></path>
                </g>
            </g>
        </g>
    </g>
</svg>