<svg t="1648799339845" class="icon" viewBox="0 0 1170 1024" version="1.1" xmlns="http://www.w3.org/2000/svg" p-id="7794" width="200" height="200"><path d="M1098.386286 712.557714H442.148571c-31.890286 0-57.563429-27.794286-57.563428-61.732571 0-33.938286 25.673143-61.659429 57.563428-61.659429h656.237715c31.890286 0 57.636571 27.794286 57.636571 61.659429 0 34.011429-25.746286 61.732571-57.636571 61.732571z m0-287.963428H442.148571c-31.890286 0-57.563429-27.794286-57.563428-61.732572 0-33.938286 25.673143-61.732571 57.563428-61.732571h656.237715c31.890286 0 57.636571 27.794286 57.636571 61.732571 0 33.938286-25.746286 61.732571-57.636571 61.732572z m-4.096-277.723429H89.234286c-33.865143 0-63.707429-25.746286-64.731429-59.684571A61.732571 61.732571 0 0 1 86.308571 23.405714h1004.909715c33.938286 0 63.780571 25.746286 64.804571 59.684572a61.732571 61.732571 0 0 1-61.732571 63.780571zM311.515429 711.533714V302.153143L24.576 506.88l286.939429 204.653714c0 1.024 0 1.024 0 0z m-225.28 155.355429h1004.982857c33.938286 0 63.780571 25.673143 64.804571 59.611428a61.732571 61.732571 0 0 1-61.732571 63.780572H89.234286c-33.865143 0-63.707429-25.673143-64.731429-59.684572a61.732571 61.732571 0 0 1 61.732572-63.707428z" p-id="7795" fill="#B6B7BC"></path></svg>