<?xml version="1.0" encoding="UTF-8"?>
<svg width="14px" height="14px" viewBox="0 0 14 14" version="1.1" xmlns="http://www.w3.org/2000/svg" xmlns:xlink="http://www.w3.org/1999/xlink">
    <title>形状@1x</title>
    <g id="页面-1" stroke="none" stroke-width="1" fill="none" fill-rule="evenodd" fill-opacity="0.8">
        <g id="数据源/demo数据源" transform="translate(-586.000000, -330.000000)" fill="#000000" fill-rule="nonzero">
            <path d="M599.405897,342.994981 C599.681185,342.994981 599.90435,343.219962 599.90435,343.497491 C599.90435,343.744182 599.728022,343.949355 599.495494,343.991904 L599.405897,344 L586.498453,344 C586.223165,344 586,343.775019 586,343.497491 C586,343.250799 586.176328,343.045626 586.408855,343.003077 L586.498453,342.994981 L599.405897,342.994981 Z M597.053924,330.14643 C597.222685,329.977015 597.482097,329.954427 597.675022,330.079597 L597.753176,330.14229 L599.849087,332.197475 C600.026405,332.371347 600.04767,332.645393 599.911801,332.843263 L599.853482,332.913549 L593.373596,339.426787 L593.203529,339.538798 L589.759386,340.899475 C589.38425,341.04768 589.012104,340.712305 589.087777,340.335767 L589.111009,340.254612 L590.347283,336.942908 L590.462081,336.763825 L597.053924,330.14643 Z M595.726807,332.896464 L591.24221,337.3993 L590.438704,339.551045 L592.742553,338.640498 L597.082599,334.27736 L595.726807,332.896464 Z M597.409068,331.20738 L596.432616,332.186921 L597.788408,333.567816 L598.790779,332.56114 L597.409068,331.20738 Z" id="形状"></path>
        </g>
    </g>
</svg>