<?xml version="1.0" encoding="UTF-8"?>
<svg width="14px" height="14px" viewBox="0 0 14 14" version="1.1" xmlns="http://www.w3.org/2000/svg" xmlns:xlink="http://www.w3.org/1999/xlink">
    <title>编组 9@2x</title>
    <g id="页面-1" stroke="none" stroke-width="1" fill="none" fill-rule="evenodd">
        <g id="数据集管理/创建表/弹窗" transform="translate(-228.000000, -340.000000)" fill-rule="nonzero">
            <g id="info-circle" transform="translate(227.000000, 339.000000)">
                <rect id="矩形" opacity="0" x="0" y="0" width="16" height="16"></rect>
                <g id="编组-9" transform="translate(1.000000, 1.000000)" fill="#000000" fill-opacity="0.45">
                    <path d="M7,0 C3.134375,0 0,3.134375 0,7 C0,10.865625 3.134375,14 7,14 C10.865625,14 14,10.865625 14,7 C14,4.97357869 13.1386672,3.14810642 11.7621851,1.86976673 C10.5128738,0.709530668 8.83920369,0 7,0 Z M7,12.8125 C3.790625,12.8125 1.1875,10.209375 1.1875,7 C1.1875,3.790625 3.790625,1.1875 7,1.1875 C10.209375,1.1875 12.8125,3.790625 12.8125,7 C12.8125,10.209375 10.209375,12.8125 7,12.8125 Z" id="形状"></path>
                    <g id="编组" transform="translate(6.250000, 3.500000)">
                        <path d="M0,0.75 C0,1.16421356 0.335786438,1.5 0.75,1.5 C1.16421356,1.5 1.5,1.16421356 1.5,0.75 C1.5,0.335786438 1.16421356,0 0.75,0 C0.335786438,0 0,0.335786438 0,0.75 Z" id="路径"></path>
                        <path d="M1.125,2.5 L0.375,2.5 C0.30625,2.5 0.25,2.55625 0.25,2.625 L0.25,6.875 C0.25,6.94375 0.30625,7 0.375,7 L1.125,7 C1.19375,7 1.25,6.94375 1.25,6.875 L1.25,2.625 C1.25,2.55625 1.19375,2.5 1.125,2.5 Z" id="路径"></path>
                    </g>
                </g>
            </g>
        </g>
    </g>
</svg>