<?xml version="1.0" encoding="UTF-8"?>
<svg width="17px" height="16px" viewBox="0 0 17 16" version="1.1" xmlns="http://www.w3.org/2000/svg" xmlns:xlink="http://www.w3.org/1999/xlink">
    <title>shuaxin-3</title>
    <g id="页面-1" stroke="none" stroke-width="1" fill="none" fill-rule="evenodd">
        <g id="1-BI登录页" transform="translate(-1122.000000, -493.000000)" fill="#7A7A7A" fill-rule="nonzero">
            <g id="shuaxin-3" transform="translate(1122.372630, 493.000000)">
                <path d="M14.4105844,3.39073223 C14.4105844,3.7273799 14.1481892,4.00568366 13.8121214,4.02543366 L13.7748234,4.02649326 L11.2317793,4.02649326 C10.8876854,4.02682487 10.6057768,3.75333491 10.5956793,3.40938903 C10.5855818,3.06544315 10.8509605,2.77588604 11.1944813,2.7560308 L11.2317793,2.7549712 L12.2871426,2.7549712 C11.0859805,1.7925346 9.5921521,1.26917129 8.05297411,1.2715288 C4.30770589,1.2715288 1.27152313,4.30771155 1.27152313,8.05297978 C1.27152313,8.53509856 1.32174825,9.01001205 1.42029121,9.47326992 C1.47032755,9.69647793 1.39659578,9.92935885 1.22721529,10.0830979 C1.05783479,10.236837 0.818921078,10.2877303 0.60158965,10.2163685 C0.384258223,10.1450068 0.222017786,9.96239259 0.176742638,9.73817035 C0.0589487187,9.184184 -0.000290572642,8.61935085 0,8.05297978 C0,3.60540754 3.60540187,0 8.05297411,0 C9.90632024,-0.00239382777 11.7033838,0.636686885 13.1390623,1.80874687 L13.1390623,0.847688111 C13.1390436,0.511040437 13.4014576,0.23273668 13.7375254,0.212986683 L13.7748234,0.211927081 C14.1114711,0.211908328 14.3897748,0.474322289 14.4095248,0.810390131 L14.4105844,0.847688111 L14.4105844,3.39073223 Z" id="路径"></path>
                <path d="M16.1368884,7.94701961 C16.1368884,12.3945919 12.5312748,16 8.08391448,16 C6.21687128,16.0025184 4.40735765,15.3540581 2.96688588,14.1662459 L2.96688588,15.1523113 C2.96690463,15.488959 2.70449067,15.7672627 2.36842283,15.7870127 L2.33112485,15.7880723 C1.99447717,15.7880911 1.71617342,15.5256771 1.69642342,15.1896093 L1.69536382,15.1523113 L1.69536382,12.6092672 C1.69536382,12.2726195 1.95775902,11.9943157 2.29382687,11.9745657 L2.33112485,11.9735061 L4.87416897,11.9735061 C5.21826288,11.9731745 5.50017141,12.2466645 5.5102689,12.5906104 C5.5203664,12.9345562 5.25498769,13.2241133 4.91146695,13.2439686 L4.87416897,13.2450282 L3.84974603,13.2450282 C5.03459266,14.1940075 6.51570394,14.7284706 8.08391448,14.7284706 C11.8291827,14.7284706 14.8653655,11.6924998 14.8653655,7.94701961 C14.8655819,7.46981874 14.8156477,6.99391634 14.7163855,6.52715331 C14.6690656,6.3049769 14.7438699,6.07443256 14.9126203,5.92236411 C15.0813708,5.77029566 15.3184302,5.71980593 15.5345006,5.78991389 C15.750571,5.86002186 15.9128261,6.04007647 15.960146,6.26225288 C16.0779103,6.81610066 16.1371495,7.3807902 16.1368884,7.94701961 Z" id="路径"></path>
            </g>
        </g>
    </g>
</svg>