<?xml version="1.0" encoding="UTF-8"?>
<svg width="371px" height="200px" viewBox="0 0 371 200" version="1.1" xmlns="http://www.w3.org/2000/svg" xmlns:xlink="http://www.w3.org/1999/xlink">
    <defs>
        <linearGradient x1="-47.0190124%" y1="-185.963888%" x2="68.8688465%" y2="100%" id="linearGradient-1">
            <stop stop-color="#D2D2D2" offset="0%"></stop>
            <stop stop-color="#D2D2D2" stop-opacity="0" offset="100%"></stop>
        </linearGradient>
        <linearGradient x1="118.999979%" y1="-110.864112%" x2="54.5018665%" y2="55.5871768%" id="linearGradient-2">
            <stop stop-color="#D2D2D2" offset="0%"></stop>
            <stop stop-color="#D2D2D2" stop-opacity="0" offset="100%"></stop>
        </linearGradient>
        <linearGradient x1="50%" y1="-221.156912%" x2="50%" y2="100%" id="linearGradient-3">
            <stop stop-color="#D2D2D2" offset="0%"></stop>
            <stop stop-color="#D2D2D2" stop-opacity="0" offset="100%"></stop>
        </linearGradient>
        <linearGradient x1="100.080959%" y1="-97.780461%" x2="38.826306%" y2="104.736078%" id="linearGradient-4">
            <stop stop-color="#D2D2D2" offset="0%"></stop>
            <stop stop-color="#D2D2D2" stop-opacity="0" offset="100%"></stop>
        </linearGradient>
        <linearGradient x1="50%" y1="-230.116303%" x2="50%" y2="100%" id="linearGradient-5">
            <stop stop-color="#D2D2D2" offset="0%"></stop>
            <stop stop-color="#D2D2D2" stop-opacity="0" offset="100%"></stop>
        </linearGradient>
        <linearGradient x1="50%" y1="-169.203289%" x2="50%" y2="100%" id="linearGradient-6">
            <stop stop-color="#D2D2D2" offset="0%"></stop>
            <stop stop-color="#D2D2D2" stop-opacity="0" offset="100%"></stop>
        </linearGradient>
        <linearGradient x1="94.0198096%" y1="56.553877%" x2="26.1827733%" y2="46.8352954%" id="linearGradient-7">
            <stop stop-color="#C5C5C5" offset="0%"></stop>
            <stop stop-color="#F6F6F6" offset="100%"></stop>
        </linearGradient>
        <linearGradient x1="3.70975156%" y1="13.4261896%" x2="170.734705%" y2="137.712351%" id="linearGradient-8">
            <stop stop-color="#FFFFFF" offset="0%"></stop>
            <stop stop-color="#C5C5C5" offset="78.76%"></stop>
        </linearGradient>
    </defs>
    <g id="页面-1" stroke="none" stroke-width="1" fill="none" fill-rule="evenodd">
        <g id="数据集管理/数据预览" transform="translate(-733.000000, -581.000000)" fill-rule="nonzero">
            <g id="编组-15" transform="translate(733.000000, 581.000000)">
                <path d="M73.2592593,159.554082 C65.345679,155.973835 56.7654321,146.368897 59.1975309,137.331859 C60.4139859,137.020515 61.693852,137.516587 62.382716,138.566427 C62.382716,138.566427 76.1111111,160.010872 72.2592593,140.282477 C70.4444444,131.010872 67.3209877,122.047909 67.0740741,112.467662 C66.6666667,95.0602545 82.6419753,90.233094 87.2345679,109.467662 C87.8395062,112.010872 90.1604938,132.689884 95.4444444,130.319514 C96.1250336,129.961557 96.6773282,129.400632 97.0246914,128.714576 C99.7037037,124.319514 100.506173,117.862724 105.419753,116.368897 C109.728395,115.010872 113.975309,118.751613 116.296296,122.61581 C121,130.467662 127.296296,149.98618 117.666667,156.603464 C108.037037,163.220748 83.7407407,164.270131 73.345679,159.640501 L73.2592593,159.554082 Z" id="路径" fill="url(#linearGradient-1)"></path>
                <path d="M273.185185,180.430625 C269.703704,172.467662 269.790123,159.591119 277.691358,154.504699 C278.808047,155.104911 279.411159,156.355993 279.185185,157.603464 C279.185185,157.603464 274.975309,182.726921 285.358025,165.504699 C290.296296,157.393588 294,148.665193 300.17284,141.393588 C311.518519,128.134329 326.641975,135.331859 317.148148,152.677538 C315.91358,154.973835 303.740741,171.862724 309.246914,173.665193 C309.992355,173.848515 310.775891,173.801158 311.493827,173.52939 C316.432099,172.0726 321.37037,167.825687 326.037037,169.973835 C330.135802,171.862724 330.777778,177.467662 329.91358,181.899761 C328.135802,190.875069 319.421721,200.91212 307.841474,199.356564 C296.014314,197.751626 277.777778,190.924452 273.222222,180.517045 L273.185185,180.430625 Z" id="路径" fill="url(#linearGradient-2)"></path>
                <path d="M370.518519,199.356551 C323.962963,167.418279 258.17284,147.504699 185.259259,147.504699 C112.345679,147.504699 46.5555556,167.418279 0,199.356551 L370.518519,199.356551 Z" id="路径" fill="url(#linearGradient-3)"></path>
                <path d="M293.469136,103.060255 C290.518519,106.763958 288.62963,112.010872 290.395062,116.70223 C291.617284,119.936798 295.296296,119.961489 295.037037,124.455316 C294.783185,126.699169 294.014206,128.854 292.790123,130.751613 C290.704251,134.400024 288.14732,137.758071 285.185185,140.739267 C287.654305,142.665262 288.910389,145.760781 288.481481,148.862724 C287.997231,151.941616 286.539107,154.784309 284.320988,156.973835 C283.667879,157.772484 282.816415,158.385539 281.851852,158.751613 C280.917648,158.967389 279.94655,158.967389 279.012346,158.751613 C274.419062,157.972041 269.959209,156.546384 265.765432,154.517045 C263.148148,153.270131 260.481481,151.566427 259.592593,148.850378 C258.574074,145.733094 260.19348,144.742546 261.961179,143.765863 L262.41743,143.513691 C263.3302,143.004636 264.22575,142.451348 264.765432,141.566427 C266.061728,139.442971 266.098765,136.603464 266.555556,134.233094 C267.222222,130.739267 266.234568,124.368897 270.604938,122.998526 C272.296296,122.467662 274.135802,122.591119 275.82716,122.047909 C279.501372,120.878499 281.022443,117.422242 282.495104,113.927564 L282.762795,113.292245 C283.611763,111.282231 284.486968,109.304653 285.790123,107.78865 C287.641975,105.628156 292.234568,104.566427 293.469136,103.060255 Z M282.802469,123.78865 C282.802469,123.78865 269.506173,139.294822 269.938272,153.628156 L274.234568,153.628156 C274.234568,153.628156 275.790123,136.344205 282.802469,123.78865 Z" id="形状结合" fill="url(#linearGradient-4)"></path>
                <path d="M104.135802,22.0108718 L104.135802,22.0108718 C104.204481,17.2252075 100.786222,13.0986863 96.0713857,12.2755097 C91.3565496,11.4523331 86.7422233,14.1764226 85.1851852,18.7022298 C82.2145965,18.6439999 79.4492011,20.2121758 77.9742152,22.7913626 C76.4992294,25.3705494 76.5499916,28.54923 78.1065814,31.0800038 C79.6631712,33.6107776 82.4772299,35.0898519 85.4444444,34.9367977 L103.333333,34.9367977 C106.729866,34.891492 109.517593,32.2362321 109.72807,28.8459242 C109.938548,25.4556163 107.50065,22.4759385 104.135802,22.0108718 L104.135802,22.0108718 Z" id="路径" fill="url(#linearGradient-5)"></path>
                <path d="M178.074074,12.2084027 L178.074074,12.1466743 C178.066799,6.23154854 173.804253,1.17965438 167.974706,0.177082054 C162.14516,-0.825490268 156.439779,2.51210807 154.45679,8.08494589 C148.848713,8.17358419 144.374325,12.7916841 144.462963,18.3997607 C144.551601,24.0078373 149.169701,28.4822262 154.777778,28.3935879 L177,28.3935879 C181.281476,28.4012178 184.829217,25.075029 185.097306,20.8019475 C185.365395,16.528866 182.261202,12.7853409 178.012346,12.2577854 L178.074074,12.2084027 Z" id="路径" fill="url(#linearGradient-6)"></path>
                <g id="编组" transform="translate(120.000000, 64.000000)">
                    <path d="M120.393412,17.248 L0,17.248 L0,7.10211765 C0,3.17552941 3.17552941,0 7.10211765,0 L113.278118,0 C117.204706,0 120.380235,3.17552941 120.380235,7.10211765 L120.380235,17.248 L120.393412,17.248 Z" id="路径" fill="url(#linearGradient-7)"></path>
                    <path d="M108.653176,106.834824 L11.7402353,106.834824 C5.25741176,106.834824 0,101.577412 0,95.0814118 L0,17.248 L120.393412,17.248 L120.393412,95.0945882 C120.393412,101.577412 115.136,106.834824 108.653176,106.834824 Z" id="路径" fill="url(#linearGradient-8)"></path>
                    <circle id="椭圆形" fill="#FFFFFF" cx="9.59247059" cy="9.21035294" r="2.02917647"></circle>
                    <circle id="椭圆形" fill="#FFFFFF" cx="16.6550588" cy="9.21035294" r="2.02917647"></circle>
                    <circle id="椭圆形" fill="#FFFFFF" cx="23.7176471" cy="9.21035294" r="2.02917647"></circle>
                    <g id="路径" transform="translate(25.819219, 39.260879)" fill="#FFFFFF">
                        <path d="M19.2443108,34.1320629 L7.91254609,22.8002982 L19.2574873,11.455357 C20.7727814,9.94006291 20.7727814,8.43794526 19.2574873,6.92265115 C17.7421931,5.40735703 16.2400755,5.40735703 14.7247814,6.92265115 L1.13984021,20.5207688 C0.573251966,21.087357 0.217487256,21.6671217 0.0725460843,22.2337099 C-0.164630386,23.1824158 0.177957849,24.1311217 1.12666374,25.0798276 L14.7116049,38.6647688 C16.226899,40.1800629 17.7290167,40.1800629 19.2443108,38.6647688 C20.7596049,37.1494746 20.7596049,35.647357 19.2443108,34.1320629 Z"></path>
                        <path d="M67.6283108,20.4944158 L57.0607814,9.92688644 C55.5454873,8.41159232 54.0433696,8.41159232 52.5280755,9.92688644 C51.0127814,11.4421805 51.0127814,12.9442982 52.5280755,14.4595923 L60.8160755,22.7475923 L49.4447814,34.1188864 C47.9294873,35.6341805 47.9294873,37.1362982 49.4447814,38.6515923 C50.9600755,40.1668864 52.4621931,40.1668864 53.9774873,38.6515923 L67.4570167,25.1720629 C67.5097226,25.119357 67.5624284,25.0798276 67.6283108,25.0271217 C69.1304284,23.5118276 69.1304284,22.0097099 67.6283108,20.4944158 Z"></path>
                        <path d="M47.1916049,0.584768792 C45.346899,-0.482525326 43.8843108,-0.0872312086 42.8170167,1.75747468 L20.3906637,40.5885335 C19.3233696,42.4332393 19.7186637,43.8958276 21.5633696,44.9631217 L21.5633696,44.9631217 C23.4080755,46.0304158 24.8706637,45.6351217 25.9379579,43.7904158 L48.3643108,4.95935703 C49.4316049,3.11465115 49.0363108,1.65206291 47.1916049,0.584768792 Z"></path>
                    </g>
                </g>
                <g id="编组-44备份" transform="translate(212.000000, 123.000000)">
                    <path d="M26,52 C11.6402,52 0,40.3598 0,26 C0,11.6402 11.6402,0 26,0 C40.3598,0 52,11.6402 52,26 C52,40.3598 40.3598,52 26,52 Z" id="路径" fill="#FA914B"></path>
                    <path d="M38.532,39.1976 C45.0148355,33.052973 46.0804738,23.1119774 41.0473321,15.7328798 C36.0141904,8.35378221 26.3700039,5.71775385 18.2832,9.51080001 L20.8182,14.0738 C24.8372647,12.3270375 29.4659073,12.7227066 33.1301913,15.1262631 C36.7944752,17.5298196 39.0012057,21.6177564 39,26 L33.41,26 C32.94928,25.999981 32.5229641,26.2438157 32.2893932,26.6409397 C32.0558223,27.0380638 32.0498901,27.5291497 32.2738,27.9318 L38.532,39.1976 L38.532,39.1976 Z" id="路径" fill="#FFFFFF"></path>
                    <path d="M31.1818,37.9262 C27.1627353,39.6729625 22.5340927,39.2772934 18.8698087,36.8737369 C15.2055248,34.4701804 12.9987943,30.3822436 13,26 L18.59,26 C19.05072,26.000019 19.4770359,25.7561843 19.7106068,25.3590603 C19.9441777,24.9619362 19.9501099,24.4708503 19.7262,24.0682 L13.468,12.8024 C6.98516452,18.947027 5.91952616,28.8880226 10.9526679,36.2671202 C15.9858096,43.6462178 25.6299961,46.2822462 33.7168,42.4892 L31.1818,37.9262 L31.1818,37.9262 Z" id="路径" fill="#FFFFFF"></path>
                </g>
            </g>
        </g>
    </g>
</svg>