<?xml version="1.0" encoding="UTF-8"?>
<svg width="371px" height="200px" viewBox="0 0 371 200" version="1.1" xmlns="http://www.w3.org/2000/svg" xmlns:xlink="http://www.w3.org/1999/xlink">
    <defs>
        <linearGradient x1="-47.0190124%" y1="-185.963888%" x2="68.8688465%" y2="100%" id="linearGradient-1">
            <stop stop-color="#D2D2D2" offset="0%"></stop>
            <stop stop-color="#D2D2D2" stop-opacity="0" offset="100%"></stop>
        </linearGradient>
        <linearGradient x1="118.999979%" y1="-110.864112%" x2="54.5018665%" y2="55.5871768%" id="linearGradient-2">
            <stop stop-color="#D2D2D2" offset="0%"></stop>
            <stop stop-color="#D2D2D2" stop-opacity="0" offset="100%"></stop>
        </linearGradient>
        <linearGradient x1="50%" y1="-221.156912%" x2="50%" y2="100%" id="linearGradient-3">
            <stop stop-color="#D2D2D2" offset="0%"></stop>
            <stop stop-color="#D2D2D2" stop-opacity="0" offset="100%"></stop>
        </linearGradient>
        <linearGradient x1="100.080959%" y1="-97.780461%" x2="38.826306%" y2="104.736078%" id="linearGradient-4">
            <stop stop-color="#D2D2D2" offset="0%"></stop>
            <stop stop-color="#D2D2D2" stop-opacity="0" offset="100%"></stop>
        </linearGradient>
        <linearGradient x1="50%" y1="-230.116303%" x2="50%" y2="100%" id="linearGradient-5">
            <stop stop-color="#D2D2D2" offset="0%"></stop>
            <stop stop-color="#D2D2D2" stop-opacity="0" offset="100%"></stop>
        </linearGradient>
        <linearGradient x1="50%" y1="-169.203289%" x2="50%" y2="100%" id="linearGradient-6">
            <stop stop-color="#D2D2D2" offset="0%"></stop>
            <stop stop-color="#D2D2D2" stop-opacity="0" offset="100%"></stop>
        </linearGradient>
        <linearGradient x1="94.0198096%" y1="56.553877%" x2="26.1827733%" y2="46.8352954%" id="linearGradient-7">
            <stop stop-color="#C5C5C5" offset="0%"></stop>
            <stop stop-color="#F6F6F6" offset="100%"></stop>
        </linearGradient>
        <linearGradient x1="3.70975156%" y1="13.4261896%" x2="170.734705%" y2="137.712351%" id="linearGradient-8">
            <stop stop-color="#FFFFFF" offset="0%"></stop>
            <stop stop-color="#C5C5C5" offset="78.76%"></stop>
        </linearGradient>
        <linearGradient x1="-2.08286007%" y1="29.4273875%" x2="81.7089523%" y2="62.5125948%" id="linearGradient-9">
            <stop stop-color="#FEF5EE" offset="0%"></stop>
            <stop stop-color="#FA8334" offset="100%"></stop>
        </linearGradient>
    </defs>
    <g id="页面-1" stroke="none" stroke-width="1" fill="none" fill-rule="evenodd">
        <g id="数据集管理/运行失败" transform="translate(-661.000000, -480.000000)" fill-rule="nonzero">
            <g id="编组-9" transform="translate(661.000000, 480.000000)">
                <path d="M73.2592593,159.554082 C65.345679,155.973835 56.7654321,146.368897 59.1975309,137.331859 C60.4139859,137.020515 61.693852,137.516587 62.382716,138.566427 C62.382716,138.566427 76.1111111,160.010872 72.2592593,140.282477 C70.4444444,131.010872 67.3209877,122.047909 67.0740741,112.467662 C66.6666667,95.0602545 82.6419753,90.233094 87.2345679,109.467662 C87.8395062,112.010872 90.1604938,132.689884 95.4444444,130.319514 C96.1250336,129.961557 96.6773282,129.400632 97.0246914,128.714576 C99.7037037,124.319514 100.506173,117.862724 105.419753,116.368897 C109.728395,115.010872 113.975309,118.751613 116.296296,122.61581 C121,130.467662 127.296296,149.98618 117.666667,156.603464 C108.037037,163.220748 83.7407407,164.270131 73.345679,159.640501 L73.2592593,159.554082 Z" id="路径" fill="url(#linearGradient-1)"></path>
                <path d="M273.185185,180.430625 C269.703704,172.467662 269.790123,159.591119 277.691358,154.504699 C278.808047,155.104911 279.411159,156.355993 279.185185,157.603464 C279.185185,157.603464 274.975309,182.726921 285.358025,165.504699 C290.296296,157.393588 294,148.665193 300.17284,141.393588 C311.518519,128.134329 326.641975,135.331859 317.148148,152.677538 C315.91358,154.973835 303.740741,171.862724 309.246914,173.665193 C309.992355,173.848515 310.775891,173.801158 311.493827,173.52939 C316.432099,172.0726 321.37037,167.825687 326.037037,169.973835 C330.135802,171.862724 330.777778,177.467662 329.91358,181.899761 C328.135802,190.875069 319.421721,200.91212 307.841474,199.356564 C296.014314,197.751626 277.777778,190.924452 273.222222,180.517045 L273.185185,180.430625 Z" id="路径" fill="url(#linearGradient-2)"></path>
                <path d="M370.518519,199.356551 C323.962963,167.418279 258.17284,147.504699 185.259259,147.504699 C112.345679,147.504699 46.5555556,167.418279 0,199.356551 L370.518519,199.356551 Z" id="路径" fill="url(#linearGradient-3)"></path>
                <path d="M293.469136,103.060255 C290.518519,106.763958 288.62963,112.010872 290.395062,116.70223 C291.617284,119.936798 295.296296,119.961489 295.037037,124.455316 C294.783185,126.699169 294.014206,128.854 292.790123,130.751613 C290.704251,134.400024 288.14732,137.758071 285.185185,140.739267 C287.654305,142.665262 288.910389,145.760781 288.481481,148.862724 C287.997231,151.941616 286.539107,154.784309 284.320988,156.973835 C283.667879,157.772484 282.816415,158.385539 281.851852,158.751613 C280.917648,158.967389 279.94655,158.967389 279.012346,158.751613 C274.419062,157.972041 269.959209,156.546384 265.765432,154.517045 C263.148148,153.270131 260.481481,151.566427 259.592593,148.850378 C258.574074,145.733094 260.19348,144.742546 261.961179,143.765863 L262.41743,143.513691 C263.3302,143.004636 264.22575,142.451348 264.765432,141.566427 C266.061728,139.442971 266.098765,136.603464 266.555556,134.233094 C267.222222,130.739267 266.234568,124.368897 270.604938,122.998526 C272.296296,122.467662 274.135802,122.591119 275.82716,122.047909 C279.501372,120.878499 281.022443,117.422242 282.495104,113.927564 L282.762795,113.292245 C283.611763,111.282231 284.486968,109.304653 285.790123,107.78865 C287.641975,105.628156 292.234568,104.566427 293.469136,103.060255 Z M282.802469,123.78865 C282.802469,123.78865 269.506173,139.294822 269.938272,153.628156 L274.234568,153.628156 C274.234568,153.628156 275.790123,136.344205 282.802469,123.78865 Z" id="形状结合" fill="url(#linearGradient-4)"></path>
                <path d="M104.135802,22.0108718 L104.135802,22.0108718 C104.204481,17.2252075 100.786222,13.0986863 96.0713857,12.2755097 C91.3565496,11.4523331 86.7422233,14.1764226 85.1851852,18.7022298 C82.2145965,18.6439999 79.4492011,20.2121758 77.9742152,22.7913626 C76.4992294,25.3705494 76.5499916,28.54923 78.1065814,31.0800038 C79.6631712,33.6107776 82.4772299,35.0898519 85.4444444,34.9367977 L103.333333,34.9367977 C106.729866,34.891492 109.517593,32.2362321 109.72807,28.8459242 C109.938548,25.4556163 107.50065,22.4759385 104.135802,22.0108718 L104.135802,22.0108718 Z" id="路径" fill="url(#linearGradient-5)"></path>
                <path d="M178.074074,12.2084027 L178.074074,12.1466743 C178.066799,6.23154854 173.804253,1.17965438 167.974706,0.177082054 C162.14516,-0.825490268 156.439779,2.51210807 154.45679,8.08494589 C148.848713,8.17358419 144.374325,12.7916841 144.462963,18.3997607 C144.551601,24.0078373 149.169701,28.4822262 154.777778,28.3935879 L177,28.3935879 C181.281476,28.4012178 184.829217,25.075029 185.097306,20.8019475 C185.365395,16.528866 182.261202,12.7853409 178.012346,12.2577854 L178.074074,12.2084027 Z" id="路径" fill="url(#linearGradient-6)"></path>
                <g id="icon局部-06" transform="translate(120.000000, 64.000000)">
                    <g id="编组">
                        <path d="M120.393412,17.248 L0,17.248 L0,7.10211765 C0,3.17552941 3.17552941,0 7.10211765,0 L113.278118,0 C117.204706,0 120.380235,3.17552941 120.380235,7.10211765 L120.380235,17.248 L120.393412,17.248 Z" id="路径" fill="url(#linearGradient-7)"></path>
                        <path d="M108.653176,106.834824 L11.7402353,106.834824 C5.25741176,106.834824 0,101.577412 0,95.0814118 L0,17.248 L120.393412,17.248 L120.393412,95.0945882 C120.393412,101.577412 115.136,106.834824 108.653176,106.834824 Z" id="路径" fill="url(#linearGradient-8)"></path>
                        <circle id="椭圆形" fill="#FFFFFF" cx="9.59247059" cy="9.21035294" r="2.02917647"></circle>
                        <circle id="椭圆形" fill="#FFFFFF" cx="16.6550588" cy="9.21035294" r="2.02917647"></circle>
                        <circle id="椭圆形" fill="#FFFFFF" cx="23.7176471" cy="9.21035294" r="2.02917647"></circle>
                        <g id="路径" transform="translate(25.819219, 39.260879)" fill="#FFFFFF">
                            <path d="M19.2443108,34.1320629 L7.91254609,22.8002982 L19.2574873,11.455357 C20.7727814,9.94006291 20.7727814,8.43794526 19.2574873,6.92265115 C17.7421931,5.40735703 16.2400755,5.40735703 14.7247814,6.92265115 L1.13984021,20.5207688 C0.573251966,21.087357 0.217487256,21.6671217 0.0725460843,22.2337099 C-0.164630386,23.1824158 0.177957849,24.1311217 1.12666374,25.0798276 L14.7116049,38.6647688 C16.226899,40.1800629 17.7290167,40.1800629 19.2443108,38.6647688 C20.7596049,37.1494746 20.7596049,35.647357 19.2443108,34.1320629 Z"></path>
                            <path d="M67.6283108,20.4944158 L57.0607814,9.92688644 C55.5454873,8.41159232 54.0433696,8.41159232 52.5280755,9.92688644 C51.0127814,11.4421805 51.0127814,12.9442982 52.5280755,14.4595923 L60.8160755,22.7475923 L49.4447814,34.1188864 C47.9294873,35.6341805 47.9294873,37.1362982 49.4447814,38.6515923 C50.9600755,40.1668864 52.4621931,40.1668864 53.9774873,38.6515923 L67.4570167,25.1720629 C67.5097226,25.119357 67.5624284,25.0798276 67.6283108,25.0271217 C69.1304284,23.5118276 69.1304284,22.0097099 67.6283108,20.4944158 Z"></path>
                            <path d="M47.1916049,0.584768792 C45.346899,-0.482525326 43.8843108,-0.0872312086 42.8170167,1.75747468 L20.3906637,40.5885335 C19.3233696,42.4332393 19.7186637,43.8958276 21.5633696,44.9631217 L21.5633696,44.9631217 C23.4080755,46.0304158 24.8706637,45.6351217 25.9379579,43.7904158 L48.3643108,4.95935703 C49.4316049,3.11465115 49.0363108,1.65206291 47.1916049,0.584768792 Z"></path>
                        </g>
                    </g>
                    <path d="M125.229177,111.169882 L76.0150589,111.169882 C69.716706,111.169882 64.6042354,106.057412 64.6042354,99.7590588 L64.6042354,78.8216471 C64.6042354,72.5232941 69.716706,67.4108235 76.0150589,67.4108235 L125.229177,67.4108235 C131.527529,67.4108235 136.640051,72.5232941 136.640051,78.8216471 L136.640051,99.7458824 C136.653177,106.057412 131.540706,111.169882 125.229177,111.169882 Z" id="路径" fill="url(#linearGradient-9)"></path>
                    <g id="编组" transform="translate(74.170353, 76.410353)" fill="#FFFFFF">
                        <path d="M6.19294117,21.6489412 C5.02023529,21.6489412 3.90023529,21.5830588 2.84611764,21.4381176 C1.792,21.2931765 0.882823533,21.1350588 0.131764706,20.9505882 L0.131764706,15.7722353 C0.474352941,15.877647 0.882823533,15.9698823 1.344,16.0752941 C1.80517647,16.1807059 2.29270588,16.2597647 2.8197647,16.3388235 C3.33364706,16.4047059 3.86070588,16.4705882 4.37458823,16.5101176 C4.90164706,16.549647 5.38917647,16.576 5.86352941,16.576 C6.496,16.576 6.99670588,16.549647 7.36564706,16.4837647 C7.73458823,16.4178823 8.02447059,16.325647 8.23529411,16.1938823 C8.43294117,16.0621176 8.56470588,15.8908235 8.63058823,15.6668235 C8.69647059,15.4428235 8.72282353,15.1661176 8.72282353,14.8498823 C8.72282353,14.6258823 8.68329411,14.4282353 8.61741176,14.2437647 C8.55152941,14.0592941 8.40658823,13.9011765 8.1957647,13.7430588 C7.98494117,13.5849412 7.68188235,13.44 7.28658823,13.2818823 C6.89129411,13.1237647 6.36423529,12.9788235 5.69223529,12.8075294 C4.54588235,12.544 3.59717647,12.2409412 2.85929411,11.9115294 C2.12141176,11.5821176 1.54164706,11.173647 1.12,10.6861176 C0.698352943,10.1985882 0.408470588,9.632 0.237176471,8.97317647 C0.065882353,8.31435294 -1.16573418e-15,7.51058823 -1.16573418e-15,6.56188235 C-1.16573418e-15,5.32329412 0.197647059,4.29552941 0.579764706,3.45223529 C0.961882353,2.60894117 1.51529411,1.93694117 2.22682353,1.42305882 C2.93835294,0.909176472 3.808,0.540235294 4.8357647,0.329411765 C5.85035294,0.118588236 6.99670588,0.013176471 8.24847059,0.013176471 C9.56611764,0.013176471 10.6597648,0.092235294 11.5162353,0.237176471 C12.3858824,0.382117647 13.1105883,0.566588236 13.7035295,0.764235292 L13.7035295,5.58682353 C13.4795295,5.5077647 13.1632942,5.42870588 12.7548236,5.34964706 C12.346353,5.27058823 11.8851765,5.19152941 11.4108236,5.12564706 C10.9364706,5.0597647 10.4357648,4.99388235 9.92188235,4.94117647 C9.42117647,4.88847059 8.94682353,4.86211765 8.52517647,4.86211765 C7.55011764,4.86211765 6.86494117,4.98070588 6.44329411,5.20470588 C6.03482353,5.44188235 5.824,5.81082353 5.824,6.31152941 C5.824,6.54870588 5.86352941,6.75952941 5.92941176,6.91764706 C5.99529411,7.0757647 6.14023529,7.22070588 6.36423529,7.35247059 C6.58823529,7.48423529 6.90447059,7.616 7.2997647,7.73458823 C7.70823529,7.85317647 8.23529411,7.99811765 8.88094117,8.15623529 C10.1985883,8.49882353 11.2395295,8.8677647 12.0169412,9.27623529 C12.794353,9.68470588 13.3872942,10.1458823 13.7957648,10.6729412 C14.2042353,11.2 14.4677648,11.8192941 14.586353,12.517647 C14.7049412,13.2291765 14.7708236,14.0592941 14.7708236,15.008 C14.7708236,16.0621176 14.6258824,16.997647 14.3491765,17.8145882 C14.0724706,18.6315294 13.5981177,19.3298823 12.9392942,19.8964706 C12.2804706,20.4630588 11.4108236,20.8978823 10.3171765,21.2009412 C9.19717647,21.504 7.82682353,21.6489412 6.19294117,21.6489412 Z" id="路径"></path>
                        <path d="M37.6056471,10.8310588 C37.6056471,12.2804706 37.5002353,13.5585882 37.3025883,14.6654118 C37.1049412,15.7722353 36.8018824,16.7209412 36.4065883,17.5247059 C36.0112942,18.3284706 35.5237648,19.0004706 34.9571765,19.5407059 C34.3774118,20.0809412 33.7185883,20.5025882 32.9675295,20.805647 L36.7887059,25.7468235 L29.6997648,25.7468235 L27.2884706,21.6489412 C25.786353,21.6225882 24.4555295,21.4512941 23.2696471,21.1218823 C22.0837648,20.7924706 21.082353,20.2127059 20.2654118,19.3957647 C19.4484706,18.5788235 18.8291765,17.472 18.394353,16.0884706 C17.9727059,14.7049412 17.7618824,12.9524706 17.7618824,10.8310588 C17.7618824,8.67011765 17.9858824,6.89129412 18.4338824,5.49458823 C18.8818824,4.09788235 19.5275295,2.99105882 20.3708236,2.17411765 C21.2141177,1.35717647 22.2550589,0.790588232 23.4936471,0.474352941 C24.7190589,0.158117647 26.1157648,8.32667268e-16 27.6705883,8.32667268e-16 C29.2517648,8.32667268e-16 30.6484706,0.158117647 31.8738824,0.474352941 C33.0992942,0.790588232 34.1270589,1.35717647 34.9835295,2.17411765 C35.8268236,2.99105882 36.4724706,4.09788235 36.9204706,5.49458823 C37.3816471,6.89129412 37.6056471,8.67011765 37.6056471,10.8310588 Z M24.1392942,10.8310588 C24.1392942,11.9642353 24.192,12.8997647 24.2974118,13.6508235 C24.4028236,14.4018823 24.5741177,14.9948235 24.8376471,15.456 C25.1011765,15.9171765 25.4569412,16.2334118 25.9181177,16.4178823 C26.3661177,16.6023529 26.9590589,16.6945882 27.6969412,16.6945882 C28.4216471,16.6945882 29.0145883,16.6023529 29.4757648,16.4178823 C29.9237648,16.2334118 30.2927059,15.9171765 30.5694118,15.456 C30.8461177,15.008 31.0305883,14.4018823 31.136,13.6508235 C31.2414118,12.8997647 31.2941177,11.9642353 31.2941177,10.8310588 C31.2941177,9.68470588 31.2414118,8.72282353 31.136,7.9717647 C31.0305883,7.20752941 30.8461177,6.60141176 30.5694118,6.15341176 C30.2927059,5.70541176 29.9369412,5.376 29.4757648,5.17835294 C29.0277648,4.98070588 28.4348236,4.88847059 27.6969412,4.88847059 C26.9722353,4.88847059 26.3792942,4.98070588 25.9181177,5.17835294 C25.4569412,5.376 25.1011765,5.69223529 24.8376471,6.15341176 C24.5741177,6.61458823 24.3896471,7.22070588 24.2974118,7.9717647 C24.2051765,8.72282353 24.1392942,9.67152941 24.1392942,10.8310588 Z" id="形状"></path>
                        <polygon id="路径" points="54.88 16.1675294 54.88 21.3458823 41.0578824 21.3458823 41.0578824 0.303058824 47.0927059 0.303058824 47.0927059 16.1543529 54.88 16.1543529"></polygon>
                    </g>
                </g>
            </g>
        </g>
    </g>
</svg>