<svg t="1653560406465" class="icon" viewBox="0 0 1137 1024" version="1.1" xmlns="http://www.w3.org/2000/svg" p-id="2387" width="128" height="128"><path d="M1137.777778 0v1024H0V0h1137.777778zM370.005333 194.787556h-7.168l-2.730666 0.341333-3.868445 1.024a32.881778 32.881778 0 0 0-17.408 13.198222l2.844445-3.640889 1.137777-1.479111-1.365333 1.592889-1.365333 1.706667-1.251556 1.820444L153.6 489.244444H56.888889l-6.030222 0.796445A22.755556 22.755556 0 0 0 34.133333 512l0.796445 6.030222A22.755556 22.755556 0 0 0 56.888889 534.755556h66.673778l-37.319111 56.433777-3.413334 6.826667a32.995556 32.995556 0 0 0 58.481778 29.582222l224.824889-339.968 133.802667 205.141334A22.755556 22.755556 0 0 0 489.244444 512l0.796445 6.030222A22.755556 22.755556 0 0 0 512 534.755556h15.473778l151.893333 232.789333 5.802667 6.712889a32.995556 32.995556 0 0 0 50.517333-8.419556l203.207111-355.555555 2.958222-7.054223a32.995556 32.995556 0 0 0-15.246222-38.001777l-7.054222-2.958223a32.995556 32.995556 0 0 0-38.001778 15.246223l-63.829333 111.729777H739.555556l-6.030223 0.796445A22.755556 22.755556 0 0 0 716.8 512l0.796444 6.030222A22.755556 22.755556 0 0 0 739.555556 534.755556h52.110222l-86.584889 151.438222L606.208 534.755556H625.777778l6.030222-0.796445A22.755556 22.755556 0 0 0 648.533333 512l-0.796444-6.030222A22.755556 22.755556 0 0 0 625.777778 489.244444h-49.265778L393.898667 209.464889l-1.820445-2.503111a19.911111 19.911111 0 0 0-2.503111-2.616889 23.779556 23.779556 0 0 0-3.754667-3.413333l-1.251555-0.910223a32.881778 32.881778 0 0 0-14.563556-5.233777zM398.222222 489.244444h-113.777778l-6.030222 0.796445A22.755556 22.755556 0 0 0 284.444444 534.755556h113.777778l6.030222-0.796445A22.755556 22.755556 0 0 0 398.222222 489.244444z m682.666667 0h-113.777778l-6.030222 0.796445A22.755556 22.755556 0 0 0 967.111111 534.755556h113.777778l6.030222-0.796445A22.755556 22.755556 0 0 0 1080.888889 489.244444z" fill="#DEE1E7" p-id="2388"></path></svg>