<?xml version="1.0" encoding="UTF-8"?>
<svg width="14px" height="14px" viewBox="0 0 14 14" version="1.1" xmlns="http://www.w3.org/2000/svg" xmlns:xlink="http://www.w3.org/1999/xlink">
    <g id="页面-1" stroke="none" stroke-width="1" fill="none" fill-rule="evenodd">
        <g id="数据集管理/运行" transform="translate(-1124.000000, -75.000000)" fill="#FA8334" fill-rule="nonzero">
            <g id="编组-32备份" transform="translate(1015.000000, 66.000000)">
                <g id="编组-3备份" transform="translate(96.000000, 0.000000)">
                    <g id="参数" transform="translate(13.500000, 9.000000)">
                        <path d="M2.0010383,0 C2.27718067,0 2.5010383,0.223857625 2.5010383,0.5 L2.5010383,2.063 L2.4770383,2.057 C3.372721,2.27554064 4.00295919,3.07804148 4.00295919,4 C4.00295919,4.92195852 3.372721,5.72445936 2.4770383,5.943 L2.5010383,5.937 L2.5010383,13.5 C2.5010383,13.7761424 2.27718067,14 2.0010383,14 C1.72489592,14 1.5010383,13.7761424 1.5010383,13.5 L1.5000383,5.937 L1.5300383,5.944 C0.632357421,5.72698579 0,4.92354 0,4 C0,3.07646 0.632357421,2.27301421 1.5300383,2.056 L1.5000383,2.063 L1.5010383,0.5 C1.5010383,0.223857625 1.72489592,0 2.0010383,0 Z M6.5010383,0 C6.77718067,0 7.0010383,0.223857625 7.0010383,0.5 L7.0010383,5.063 L6.9770383,5.057 C7.872721,5.27554064 8.50295919,6.07804148 8.50295919,7 C8.50295919,7.92195852 7.872721,8.72445936 6.9770383,8.943 L7.0020383,8.937 L7.0010383,13.5 C7.0010383,13.7761424 6.77718067,14 6.5010383,14 C6.22489592,14 6.0010383,13.7761424 6.0010383,13.5 L6.0000383,8.937 L6.0300383,8.944 C5.13235742,8.72698579 4.5,7.92354 4.5,7 C4.5,6.07646 5.13235742,5.27301421 6.0300383,5.056 L6.0000383,5.063 L6.0010383,0.5 C6.0010383,0.223857625 6.22489592,0 6.5010383,0 Z M11.0010383,0 C11.2771807,0 11.5010383,0.223857625 11.5010383,0.5 L11.5010383,8.063 L11.4770383,8.057 C12.372721,8.27554064 13.0029592,9.07804148 13.0029592,10 C13.0029592,10.9219585 12.372721,11.7244594 11.4770383,11.943 L11.5020383,11.937 L11.5010383,13.5 C11.5010383,13.7761424 11.2771807,14 11.0010383,14 C10.7248959,14 10.5010383,13.7761424 10.5010383,13.5 L10.5000383,11.937 L10.5300383,11.944 C9.63235742,11.7269858 9,10.92354 9,10 C9,9.07646 9.63235742,8.27301421 10.5300383,8.056 L10.5000383,8.063 L10.5010383,0.5 C10.5010383,0.223857625 10.7248959,0 11.0010383,0 Z M11.0010383,9 C10.4487535,9 10.0010383,9.44771525 10.0010383,10 C10.0010383,10.5522847 10.4487535,11 11.0010383,11 C11.553323,11 12.0010383,10.5522847 12.0010383,10 C12.0010383,9.44771525 11.553323,9 11.0010383,9 Z M6.5010383,6 C5.94875355,6 5.5010383,6.44771525 5.5010383,7 C5.5010383,7.55228475 5.94875355,8 6.5010383,8 C7.05332305,8 7.5010383,7.55228475 7.5010383,7 C7.5010383,6.44771525 7.05332305,6 6.5010383,6 Z M2.0010383,3 C1.44875355,3 1.0010383,3.44771525 1.0010383,4 C1.0010383,4.55228475 1.44875355,5 2.0010383,5 C2.55332305,5 3.0010383,4.55228475 3.0010383,4 C3.0010383,3.44771525 2.55332305,3 2.0010383,3 Z" id="形状"></path>
                    </g>
                </g>
            </g>
        </g>
    </g>
</svg>