<?xml version="1.0" encoding="UTF-8"?>
<svg width="20px" height="20px" viewBox="0 0 18 17" version="1.1" xmlns="http://www.w3.org/2000/svg" xmlns:xlink="http://www.w3.org/1999/xlink">
    <title>warning</title>
    <defs>
        <path d="M11.4856429,3.01830209 C11.648883,3.10899101 11.7834684,3.24357637 11.8741573,3.40681643 L19.3413095,16.8476904 C19.6095227,17.3304741 19.4355789,17.9392774 18.9527951,18.2074906 C18.8042371,18.2900228 18.6370965,18.3333333 18.4671522,18.3333333 L3.53284779,18.3333333 C2.98056304,18.3333333 2.53284779,17.8856181 2.53284779,17.3333333 C2.53284779,17.1633891 2.57615829,16.9962484 2.65869052,16.8476904 L10.1258427,3.40681643 C10.3940559,2.9240327 11.0028592,2.7500889 11.4856429,3.01830209 Z M10.9816667,13.8416667 C10.4880622,13.8416667 10.0879167,14.2418122 10.0879167,14.7354167 C10.0879167,15.2290212 10.4880622,15.6291667 10.9816667,15.6291667 C11.4752712,15.6291667 11.8754167,15.2290212 11.8754167,14.7354167 C11.8754167,14.2418122 11.4752712,13.8416667 10.9816667,13.8416667 Z M11.8479167,9.625 L10.1291667,9.625 L10.4729167,13.2916667 L11.5041667,13.2916667 L11.8479167,9.625 Z" id="path-1"></path>
    </defs>
    <g id="常见页面规范" stroke="none" stroke-width="1" fill="none" fill-rule="evenodd">
        <g id="warning" transform="translate(-2.000000, -2.000000)">
            <mask id="mask-2" fill="white">
                <use xlink:href="#path-1"></use>
            </mask>
            <use id="01_PC/01_Basic/26_warning" fill="#FAAD15" xlink:href="#path-1"></use>
        </g>
    </g>
</svg>