<?xml version="1.0" encoding="UTF-8"?>
<svg width="23px" height="23px" viewBox="0 0 23 23" version="1.1" xmlns="http://www.w3.org/2000/svg" xmlns:xlink="http://www.w3.org/1999/xlink">
    <title>tishi-2</title>
    <g id="页面-1" stroke="none" stroke-width="1" fill="none" fill-rule="evenodd">
        <g id="2-登录页-提示1-账号注销" transform="translate(-915.000000, -668.000000)" fill="#EB371F" fill-rule="nonzero">
            <g id="tishi-2" transform="translate(915.134137, 668.500000)">
                <path d="M11,0 C4.95,0 0,4.95 0,11 C0,17.05 4.95,22 11,22 C17.05,22 22,17.05 22,11 C22,4.95 17.05,0 11,0 Z M11,20.625 C5.6375,20.625 1.375,16.3625 1.375,11 C1.375,5.6375 5.6375,1.375 11,1.375 C16.3625,1.375 20.625,5.6375 20.625,11 C20.625,16.3625 16.3625,20.625 11,20.625 Z M9.625,16.5 L12.375,16.5 L12.375,9.625 L9.625,9.625 L9.625,16.5 Z M9.625,8.25 L12.375,8.25 L12.375,5.5 L9.625,5.5 L9.625,8.25 Z" id="形状"></path>
            </g>
        </g>
    </g>
</svg>