<svg t="1650252432665" class="icon" viewBox="0 0 1600 1024" version="1.1" xmlns="http://www.w3.org/2000/svg" p-id="9452" width="200" height="200"><path d="M0 512V0h1600v1024H0z" fill="#58C9F6" p-id="9453"></path><path d="M0 512V0h1600v1024H0z m912 248.624c0-13.696 26.192-30.448 63.2-40.4 79.312-21.36 137.76-93.856 108.208-134.256-17.28-23.632-56.752-26.16-347.44-22.304-324.544 4.288-327.424 4.64-275.776 32.848 43.84 23.936 123.552 39.088 224.88 42.72 13.168 0.48 17.536 11.936 11.648 30.512-10.672 33.6 28.384 74.88 55.168 58.32 9.504-5.872 46.32-5.76 81.792 0.224 46.144 7.792 62.08 17.28 55.92 33.312-4.72 12.32-1.616 22.4 6.896 22.4 8.528 0 15.504-10.528 15.504-23.376z" fill="#46B6F7" p-id="9454"></path><path d="M0 512V0h1600v1024H0z m912 248.72c0-13.568 21.68-27.376 52-33.12 95.456-18.112 148.608-83.2 119.728-146.576C1074.448 560.656 1060.4 544 1052.48 544c-7.904 0-10.4-6.448-5.52-14.32 4.88-7.888-3.696-19.2-19.04-25.152-26.272-10.176-26.192-12.096 1.44-32.416 24.96-18.4-23.792-21.792-327.12-22.768-276.288-0.896-352.16 3.136-337.344 17.952 10.512 10.512 19.104 35.072 19.104 54.592C384 563.648 471.008 624 531.216 624c21.696 0 44.416 4.96 50.496 11.04 6.08 6.08 34.24 11.488 62.576 12 33.92 0.64 52.096 9.152 53.184 24.96 4.48 64.88 6.608 67.456 47.488 57.184 61.168-15.36 154.816 5.888 144.496 32.784-4.64 12.112-1.472 22.032 7.04 22.032 8.528 0 15.504-10.48 15.504-23.28z m208-74.608c0-8.8-7.2-11.552-16-6.112-8.8 5.44-16 17.088-16 25.888s7.2 11.552 16 6.112c8.8-5.44 16-17.088 16-25.888z m204.912-470.528c-4.928-4.928-13.872 3.952-19.888 19.728-8.672 22.8-6.848 24.64 8.96 8.96 10.944-10.864 15.84-23.776 10.928-28.688z" fill="#30A2F7" p-id="9455"></path><path d="M0 512V0h1600v1024H0z m923.2 250.256c7.04-11.952 39.2-30.32 71.488-40.8 32.288-10.496 70.976-37.824 85.984-60.736 25.104-38.304 25.264-45.12 1.936-84.608-19.264-32.608-20.896-47.424-6.784-61.536 14.096-14.096 9.872-18.576-17.568-18.576-19.872 0-31.984-6.736-26.88-14.976 5.088-8.24 21.712-14.08 36.944-12.96 37.104 2.736 115.68-50.176 115.68-77.904 0-12.192 7.2-22.16 16-22.16s16-10.56 16-23.504c0-12.96-9.536-19.84-21.248-15.344-22.368 8.592-80.32-11.872-125.824-44.448-22.656-16.208-33.968-11.936-69.312 26.208-31.776 34.272-37.168 48.704-21.76 58.24 14.176 8.752 7.2 15.984-22.688 23.488C931.424 398.592 912 409.12 912 416c0 21.888-80.864 33.84-154.368 22.8-47.936-7.184-86.4-26.016-118.336-57.952-44.96-44.96-50.304-46.352-107.296-27.824-33.008 10.72-65.76 29.28-72.8 41.232-7.04 11.968-34.032 21.744-60 21.744-36.048 0-47.2 7.328-47.2 31.056 0 17.088 7.68 35.808 17.088 41.616 9.408 5.808 13.44 20.112 8.96 31.776-10.352 26.96 84.4 100.112 139.184 107.44 22.848 3.072 46.72 10.72 53.024 17.024 6.304 6.304 36.16 6.832 66.352 1.168 49.568-9.296 53.92-7.2 44.784 21.552-13.36 42.08 26.96 74.752 76.832 62.24 58.288-14.624 137.12 5.184 126.88 31.888-10.992 28.656 21.28 29.088 38.096 0.496zM1120 696c0-13.2-7.2-24-16-24s-16 10.8-16 24 7.2 24 16 24 16-10.8 16-24zM1496 192V104h-304l-5.008 69.824c-8.224 114.656-6.336 115.968 160.736 110.784L1496 280zM1200 192V112h288v160H1200z m121.52 7.728c-2.336-21.888-9.024-43.36-14.88-47.76-5.856-4.384-7.104-3.232-2.784 2.56s-0.16 20.192-9.952 32c-13.28 15.984-12.8 21.472 1.856 21.472 11.2 0 15.568 10.688 10.128 24.832-5.232 13.664-2.912 20.736 5.184 15.744 8.08-4.992 12.784-26.976 10.448-48.848z m101.84 33.04C1445.168 206.496 1431.328 144 1403.728 144c-12.896 0-12.592 5.536 1.072 19.2 29.616 29.616 22.848 60.368-16.8 76.304-24.368 9.792-27.584 14.8-9.952 15.488 14.32 0.544 34.72-9.44 45.312-22.224z" fill="#0750E2" p-id="9456"></path><path d="M0 512V0h1600v1024H0z m932.288 288c15.072-17.6 40.512-32 56.544-32 16.016 0 44.896-14.688 64.16-32.624L1088 702.752v33.568c0 20.256 6.944 29.28 17.536 22.72 19.072-11.776 5.552-148.928-17.008-172.384-21.584-22.464-0.032-69.52 42.192-92.112 67.52-36.128 123.28-188.128 60.128-163.888-13.84 5.312-45.952-5.712-71.36-24.496S1064.832 272 1054.48 272C1028.736 272 960 348.272 960 376.832c0 12.736-10.208 23.168-22.672 23.168s-25.68 9.008-29.376 20c-4.48 13.344-39.104 19.424-104 18.272-88.144-1.568-102.864-6.992-156.816-57.92-55.76-52.592-62.208-54.784-101.344-34.352-22.992 12-50.016 21.84-60.08 21.904-10.064 0.048-22.432 10.896-27.504 24.096C452.8 406.112 428.8 416 400 416c-61.376 0-74.656 31.344-41.472 97.84 14 28.096 25.472 60.176 25.472 71.312 0 44.096 145.968 107.488 240.112 104.288 29.984-1.008 45.568 10.976 61.728 47.488 18.624 42.048 27.792 47.504 65.84 39.136 58.144-12.768 128.32 5.648 128.32 33.664 0 31.424 20.288 27.648 52.288-9.728zM1496 192V104h-304l-5.008 69.824c-8.224 114.656-6.336 115.968 160.736 110.784L1496 280zM1200 192V112h288v160H1200z m121.52 7.728c-2.336-21.888-9.024-43.36-14.88-47.76-5.856-4.384-7.104-3.232-2.784 2.56s-0.16 20.192-9.952 32c-13.28 15.984-12.8 21.472 1.856 21.472 11.2 0 15.568 10.688 10.128 24.832-5.232 13.664-2.912 20.736 5.184 15.744 8.08-4.992 12.784-26.976 10.448-48.848z m101.84 33.04C1445.168 206.496 1431.328 144 1403.728 144c-12.896 0-12.592 5.536 1.072 19.2 29.616 29.616 22.848 60.368-16.8 76.304-24.368 9.792-27.584 14.8-9.952 15.488 14.32 0.544 34.72-9.44 45.312-22.224z" fill="#1C5EA3" p-id="9457"></path><path d="M0 512V0h1600v1024H0z m932.288 288c15.072-17.6 38.528-32 52.112-32 13.6 0 42.48-11.632 64.16-25.84 36.928-24.192 39.44-24 39.44 3.2 0 21.44 4.688 24.352 17.92 11.104 13.216-13.2 13.28-44.448 0.224-118.496l-17.712-100.576 63.792-61.28c78.416-75.36 90.144-152.112 23.248-152.112-22.288 0-53.456-11.696-69.264-26C1069.536 264.8 1008 263.872 1008 296.496c0 13.488-10.8 28.64-24 33.712-13.2 5.072-24 22.848-24 39.504C960 389.328 948.736 400 928 400c-17.6 0-32 6.368-32 14.128 0 19.92-77.136 32.32-138.752 22.32-29.088-4.72-75.04-31.52-104.56-61.024-58.512-58.4-111.952-60.576-169.6-6.88-17.312 16.128-57.472 34.208-89.28 40.16-64 12.016-67.584 23.568-37.808 121.728 29.44 97.008 142.944 163.84 272 160.128 29.392-0.848 44 6.864 44 23.232 0 39.328 44.24 73.552 80.32 62.112 46.336-14.72 127.68 6.56 127.68 33.36 0 31.856 20.128 28.288 52.288-9.264zM1496 192V104h-304l-5.008 69.824c-8.224 114.656-6.336 115.968 160.736 110.784L1496 280z m-289.632 57.52c-4.736-12.352-6.32-46.56-3.488-76L1208 120h272v144l-96 3.216c-52.8 1.76-87.008-0.64-76-5.328 29.552-12.64 25.44-116.8-5.072-128.512-13.792-5.28-33.232-1.472-43.2 8.496-13.504 13.504-10.368 18.128 12.272 18.128 23.136 0 25.952 4.448 11.76 18.64-14.192 14.192-12.096 24.032 8.8 41.184 25.184 20.688 24.48 21.92-8.56 14.864-37.824-8.08-50.368 12.848-16 26.72 11.008 4.432 3.568 8.64-16.496 9.328-20.08 0.688-40.384-8.848-45.12-21.216z m230.864-38.4C1443.6 166.16 1414.592 128 1374.032 128 1349.6 128 1344 140.08 1344 193.056c0 61.552 2.384 64.8 44 60 31.856-3.664 45.44-15.232 49.232-41.936zM1376 200.944c0-22.512 7.2-40.944 16-40.944s16 13.968 16 31.056-7.2 35.52-16 40.944c-9.072 5.6-16-7.84-16-31.056z" fill="#07477C" p-id="9458"></path><path d="M0 512V0h1600v1024H0z m922.208 296c5.072-13.2 21.04-24.032 35.504-24.064 14.464-0.032 49.68-14.32 78.288-31.76 42.432-25.872 52-27.328 52-7.936 0 13.072 8.128 23.76 18.064 23.76 17.28 0 10.592-109.136-12.416-202.896-6.64-27.04 4.176-43.248 48.064-72 55.968-36.672 73.648-68.912 74.08-135.104 0.16-25.776-9.6-34-40.32-34-22.288 0-54.096-12.272-70.688-27.28-46.24-41.872-97.456-25.184-132.88 43.28-17.072 33.008-41.136 60-53.472 60-12.336 0-22.432 6.368-22.432 14.128 0 7.776-19.552 17.872-43.424 22.448-77.472 14.8-145.328-6.656-202.816-64.16-53.12-53.12-58.176-54.768-112.56-36.8-31.328 10.32-62.416 28.56-69.12 40.512-10.096 18.048-50.016 30.88-120.08 38.56-17.056 1.872-14.912 87.888 2.64 106.112 8.064 8.352 17.056 32.304 20 53.2 7.36 52.288 137.28 119.328 231.2 119.328 56.56 0 70.16 5.52 70.16 28.432 0 44.416 60.304 78.848 106.992 61.104 40.864-15.536 101.008 4.528 101.008 33.696 0 24.448 32.048 17.936 42.208-8.56zM1496 192V104h-304l-5.008 69.824c-8.224 114.656-6.336 115.968 160.736 110.784L1496 280z" fill="#1F335C" p-id="9459"></path><path d="M0 512V0h1600v1024H0z m933.792 296c5.056-13.2 22.24-24 38.144-24 15.92 0 44.48-10.88 63.456-24.16 21.84-15.312 38.176-18.24 44.496-8 5.504 8.88 17.76 16.16 27.264 16.16 11.744 0 13.392-29.408 5.184-92-15.872-121.12-13.84-154.16 10.048-162.128C1171.76 497.408 1216 431.792 1216 375.008c0-42.88-5.824-56.192-21.92-50.016-12.048 4.624-44.608-5.408-72.384-22.288C1093.936 285.808 1059.04 272 1044.128 272 1013.408 272 944 345.84 944 378.496c0 11.824-10.208 21.504-22.672 21.504s-25.056 6.704-28 14.88c-5.776 16.128-56.64 23.536-134.656 19.616-33.216-1.68-68.16-21.328-106.928-60.096-56.288-56.272-58.992-57.12-118.672-37.472-33.6 11.056-68.272 29.328-77.072 40.592-8.8 11.264-37.6 22.736-64 25.488-58.672 6.096-68 44.544-34.96 143.904 27.936 84 112.672 138.736 228.96 147.904 65.376 5.152 78.976 12.112 90.352 46.24 16.8 50.448 47.648 62.72 103.792 41.344 37.056-14.128 47.568-11.68 67.856 15.84 28.4 38.528 72.8 43.584 85.792 9.76zM1504 192V96H1184v192h320z" fill="#282C31" p-id="9460"></path></svg>