<svg t="1650252776372" class="icon" viewBox="0 0 1024 1024" version="1.1" xmlns="http://www.w3.org/2000/svg" p-id="13996" width="200" height="200"><path d="M869.546667 739.84c-1.92 0-4.266667 1.493333-5.973334 1.493333a8.106667 8.106667 0 0 1-5.333333 2.773334c0 3.626667-4.906667 4.053333-5.973333 6.4s0 4.906667-1.28 5.76l-2.986667 1.493333a11.306667 11.306667 0 0 0 0 7.253333 41.386667 41.386667 0 0 0-6.4 17.28c1.493333 0 1.493333 2.773333 1.92 4.053334s-1.92 7.253333-2.346667 10.453333l3.84 3.626667c0 1.28 0 3.413333 2.346667 3.413333s1.706667 2.773333 1.706667 4.266667 3.84 0 5.333333 1.28L853.333333 810.666667v1.706666c4.053333 1.493333 1.493333 5.546667 4.48 5.973334s2.986667 0 4.48 0 2.986667-2.773333 3.413334-5.12 0-7.253333 1.066666-10.24c5.12-5.76 2.773333-13.866667 6.4-19.626667a133.76 133.76 0 0 0 0-39.04c-1.706667-1.066667-2.346667-2.986667-3.626666-4.48zM554.666667 412.8l-4.266667 1.493333c-3.2 0-3.626667-2.346667-5.546667-2.773333h-17.493333c-2.133333-2.986667-5.546667-4.48-6.613333-7.253333-4.266667-2.56-7.893333 0-11.733334-2.56 0-1.92-1.28-2.773333-1.28-4.053334s-4.053333-2.346667-6.186666-4.053333h-5.76c-2.986667 0-3.413333-2.346667-5.333334-2.773333-11.946667 0-21.333333-2.346667-33.92-1.92l-2.56-1.706667a83.626667 83.626667 0 0 0-21.333333-3.2c-2.773333 0-2.773333-2.773333-5.546667-2.346667s-3.84-2.346667-5.12-2.773333-2.56-2.56-2.56-3.84v-2.986667a32 32 0 0 1-2.986666-4.053333c0-2.773333-1.92-3.626667-1.493334-5.546667l-2.986666-3.84a27.52 27.52 0 0 0-1.493334-10.026666c0-1.493333-2.986667-1.493333-4.266666-1.92H405.333333c-2.986667-1.493333-2.986667-5.546667-5.973333-5.973334a28.586667 28.586667 0 0 1-1.493333-5.76c-4.906667-1.92-7.253333-5.973333-11.733334-7.04H384a45.653333 45.653333 0 0 0-17.706667-5.76l-2.346666-2.133333a23.466667 23.466667 0 0 1-11.946667-3.413333 29.866667 29.866667 0 0 1 0-11.52 24.32 24.32 0 0 0 5.973333-11.946667c-2.986667-5.333333 0-11.52-3.84-16l-1.706666-1.066667a67.413333 67.413333 0 0 1-1.493334-12.8c-1.493333 0-1.493333-2.986667-1.92-3.84s-3.2-3.2-5.546666-4.266666-2.773333 1.066667-4.053334 0a23.04 23.04 0 0 1-6.186666-2.773334 5.76 5.76 0 0 0-4.053334-4.266666 14.72 14.72 0 0 0-5.12-5.12c-2.56-5.973333 0-13.226667-1.92-18.133334a37.973333 37.973333 0 0 0-21.333333 2.133334c-1.92 1.28-1.92 2.773333-3.413333 4.266666v1.28a8.96 8.96 0 0 1-5.546667 2.986667h-5.76c-1.493333 0-3.413333 1.706667-3.84 2.773333a17.28 17.28 0 0 0-2.133333 12.8c-1.706667 0-1.28 4.906667-2.986667 5.333334a21.333333 21.333333 0 0 1-8.746667 1.92l-5.333333-1.493334h-1.493333c-2.986667 0-4.053333-3.2-5.76-3.626666-5.12-1.066667-7.466667-4.48-11.306667-4.48s-3.2 2.986667-5.546667 3.626666 0 4.48-3.2 4.906667a45.653333 45.653333 0 0 0-3.626666 7.253333 9.386667 9.386667 0 0 0-3.413334 3.626667v2.56l-2.773333 2.133333a45.653333 45.653333 0 0 0-1.493333 10.026667l-1.28 1.92h-14.293334c-5.973333-5.76-14.72-1.92-21.333333-2.986667-2.773333 0-2.773333 3.626667-5.12 3.626667s0 4.693333-2.133333 5.546667v31.786666h-3.84c-1.92 1.28-1.92 3.413333-3.413334 3.413334l-2.346666 4.053333a24.533333 24.533333 0 0 1-4.693334 14.506667l-2.773333 1.493333a29.226667 29.226667 0 0 0-13.013333 3.2 65.493333 65.493333 0 0 0-26.453334-1.066667c-2.773333 2.986667-7.04 2.346667-10.026666 2.346667s-3.84 0-4.266667 2.133333l-2.773333 2.986667c-3.626667 0-4.48 2.773333-7.466667 4.053333a42.666667 42.666667 0 0 1-7.466667 0 5.76 5.76 0 0 0-4.906666-3.626666 103.68 103.68 0 0 1-11.733334-1.493334l-2.773333 1.493334a43.946667 43.946667 0 0 0-11.946667 0 23.466667 23.466667 0 0 1-8.32 5.76v1.493333c-1.706667 0-2.346667 2.346667-4.266666 2.346667a17.066667 17.066667 0 0 0 0 11.733333 23.893333 23.893333 0 0 1-4.48 4.693333v5.546667c1.92 1.066667 2.773333 2.986667 3.626666 3.84s6.613333 0 10.24 2.133333 1.493333 2.773333 2.133334 4.266667 0 4.266667 0 5.76-2.56 4.693333-3.413334 7.253333v5.76a33.493333 33.493333 0 0 0-8.32 4.053334 13.013333 13.013333 0 0 0 0 5.76 49.28 49.28 0 0 0 7.893334 5.546666c2.346667 1.92 2.773333 5.333333 5.333333 6.4 2.346667 7.253333 0 14.933333 2.346667 21.333334l1.066666 1.066666c2.986667 0 3.413333 2.346667 5.76 2.773334a52.693333 52.693333 0 0 0 11.946667 11.946666h2.986667c1.28 2.986667 5.333333 0 5.333333 2.986667a46.933333 46.933333 0 0 0 5.76 23.253333 58.026667 58.026667 0 0 1-4.266667 7.466667 137.6 137.6 0 0 1 2.773334 21.333333l-2.56 2.56c-2.986667 0-3.413333-2.346667-5.12-3.84H85.333333a27.306667 27.306667 0 0 0-5.76 3.413334c-1.28 1.706667 0 4.266667-1.28 5.76a251.946667 251.946667 0 0 0 1.28 25.813333c2.773333 1.066667 3.84 3.84 5.12 5.546667h3.2a77.44 77.44 0 0 0 8.746667 10.026666c1.92 1.92 2.346667 5.333333 3.84 7.253334a69.76 69.76 0 0 1 8.32 12.373333c1.92 1.28 4.693333 1.28 5.546667 2.56s3.84-2.986667 5.76-4.48a19.2 19.2 0 0 1 4.48 0 90.24 90.24 0 0 1 22.613333 27.52c2.133333 1.706667 5.546667 1.706667 7.466667 2.986667l2.986666 1.92 2.56 2.133333c0 2.346667 0 5.973333 1.28 7.253333l2.986667 1.493334 1.493333 2.773333c2.56 1.28 4.906667 1.706667 6.826667 2.56a10.88 10.88 0 0 1 0 4.266667 10.666667 10.666667 0 0 0 2.346667 3.413333 52.906667 52.906667 0 0 0 7.466666 2.773333 21.333333 21.333333 0 0 0 2.773334 5.973334 29.866667 29.866667 0 0 0 10.24 1.28c1.92 0 2.56 2.346667 4.48 2.346666s10.24 3.413333 14.506666 4.48l4.693334 2.346667h7.466666c2.346667 1.066667 2.773333 3.84 4.693334 4.266667s4.906667-1.28 7.466666-1.92c3.84 4.48 0 11.733333 3.413334 15.36a38.4 38.4 0 0 0 5.76 1.493333c2.133333-1.066667 4.053333-1.066667 4.48-1.92s2.56-4.48 2.56-6.826667 4.48-3.626667 6.4-5.76h8.746666l2.986667 2.56a56.746667 56.746667 0 0 1 10.453333 2.773334l1.493334 2.773333 2.773333 1.706667 1.493333 2.773333a10.88 10.88 0 0 1 4.906667 4.906667 35.84 35.84 0 0 1 8.533333 6.4v7.466666l3.2 3.413334a38.186667 38.186667 0 0 0 17.706667 0c2.56 0 3.2-2.133333 4.693333-2.56h2.773334c2.346667 0 2.773333-1.92 4.693333-2.346667v-1.493333c4.693333-1.92 10.24-1.28 12.586667-4.906667a52.693333 52.693333 0 0 0 7.466666-4.48H362.666667c2.986667 0 3.84-1.92 5.76-1.92l3.626666-2.56h5.76c4.693333 2.773333 7.893333 7.253333 13.44 9.173333s8.746667 0 11.52-1.28a70.826667 70.826667 0 0 1 5.12-6.826666h4.266667c2.133333 5.333333 4.48 10.453333 6.826667 15.573333h3.2l1.92 2.56a21.333333 21.333333 0 0 1 0 9.6 24.106667 24.106667 0 0 0-1.066667 8.533333 20.053333 20.053333 0 0 1-2.986667 5.546667c0 2.56 0 4.906667-1.493333 5.973333a21.333333 21.333333 0 0 0-6.4 5.76c-4.266667 1.28-6.186667 5.76-8.32 8.106667v2.773333c-1.066667 2.773333-4.266667 2.346667-4.693333 4.906667a61.653333 61.653333 0 0 0 0 18.773333l1.92 1.28c5.546667 1.493333 11.946667-1.28 16.213333 1.066667l1.493333 2.986667v8.533333c0 2.986667 3.626667 4.266667 4.693334 6.4a18.986667 18.986667 0 0 1 5.546666 3.2c-1.706667 2.346667 0 4.693333-2.346666 5.546667s0 5.76 0 8.533333 1.92 3.2 2.773333 4.48a33.066667 33.066667 0 0 0 3.626667 2.773333 8.96 8.96 0 0 1 4.693333 1.706667 3.84 3.84 0 0 0 2.773333 3.2c1.493333 0 1.493333 3.84 2.346667 4.266667a22.826667 22.826667 0 0 1 4.053333 3.84 12.8 12.8 0 0 0 7.253334 0c2.986667 0 1.92-4.266667 4.906666-4.266667l1.066667 1.066667a38.826667 38.826667 0 0 1 2.346667 7.04c3.413333 0 2.56 3.413333 4.906666 4.693333a21.333333 21.333333 0 0 0 4.693334 1.066667c2.773333 0 3.2-2.773333 5.546666-2.346667 4.48-6.4 0-14.506667 1.493334-21.333333a8.96 8.96 0 0 1 5.973333-1.706667h7.466667l1.28-2.56a5.973333 5.973333 0 0 1 4.48-1.493333c7.466667 2.773333 15.146667 0 21.333333 2.773333 2.773333 0 3.2-1.92 4.693333-2.346667a35.84 35.84 0 0 0 8.32 0 4.053333 4.053333 0 0 0 1.706667 0c1.493333-2.986667 5.12-4.053333 6.613333-5.76s4.693333-4.053333 5.333334-6.4a89.813333 89.813333 0 0 0 16 7.253334H569.813333v10.88c0 3.2 0 4.053333 1.706667 4.48s5.973333 5.333333 7.893333 8.106666a13.653333 13.653333 0 0 0 7.466667 0 100.053333 100.053333 0 0 0 10.24 4.48 39.253333 39.253333 0 0 0 8.96 0c2.986667 0 2.133333-3.84 5.333333-3.84a33.066667 33.066667 0 0 1 10.24 1.493334c1.066667 1.706667 2.986667 2.346667 4.053334 3.413333a58.666667 58.666667 0 0 1 7.253333 1.066667 46.08 46.08 0 0 0 1.066667 5.76l1.28 1.493333c0 3.626667 2.986667 5.546667 2.986666 8.533333s2.773333 2.773333 4.053334 4.266667l5.546666 1.92-1.493333 2.346667h-2.773333c-2.346667 0-2.346667-1.92-4.48-1.92a21.333333 21.333333 0 0 1-8.96 2.346666 101.76 101.76 0 0 0-14.506667 10.453334c0 2.56-2.133333 3.413333-2.56 4.906666a57.813333 57.813333 0 0 0 0 8.746667h1.28c1.493333 1.92 1.066667 3.626667 1.493333 5.333333l1.493334 1.493334c1.706667 1.28 4.053333 0 5.76 1.28l1.066666 1.493333c2.346667 0 4.693333 1.28 5.546667 2.346667h10.026667c0-1.28 3.84 0 4.266666-2.773334a19.626667 19.626667 0 0 0 8.533334-3.2l1.28-2.986666 3.2-1.493334c2.346667-3.2 0-8.106667 0-11.306666a45.44 45.44 0 0 1 5.76-6.4h3.2a15.573333 15.573333 0 0 0 0-5.973334l-1.92-2.133333c-6.4-2.133333-11.946667 0-17.706667-2.133333v-1.28c1.066667-2.133333 4.266667-1.706667 4.693333-2.986667s2.56-4.693333 2.56-7.253333a36.693333 36.693333 0 0 0-2.773333-5.76h-1.706667l1.493334-2.56a19.84 19.84 0 0 1 4.693333 0c2.346667 0 2.773333-1.92 4.266667-2.346667l1.493333-1.493333a26.88 26.88 0 0 1 8.32 0c2.986667-1.493333 4.48-4.48 7.253333-4.906667a7.253333 7.253333 0 0 0 4.693334-1.493333l1.493333-2.133334c4.266667-1.28 9.6 0 13.013333-2.56S704 832 704 832a8.746667 8.746667 0 0 1 5.76-3.626667h4.48l2.346667-1.706666c1.066667-1.493333 1.066667-3.2 1.92-3.84h2.56v4.053333h1.28c2.986667 0 3.84-1.92 5.76-2.346667h1.706666c4.693333-1.28 7.893333-5.76 11.733334-6.826666l1.493333-1.28c3.413333-1.92 5.973333 0 8.746667-1.066667l4.053333-3.2a18.56 18.56 0 0 0 15.146667-4.906667h1.493333c2.986667-1.92 6.186667-4.266667 6.186667-8.32s5.973333-2.773333 7.04-5.76H789.333333c0-2.346667-3.626667-1.493333-3.2-3.2L789.333333 789.333333c1.92 0 2.773333-1.28 4.266667-1.28s4.906667-7.253333 8.32-9.173333l2.346667-1.706667v-5.546666l2.133333-2.56h7.253333l2.56-1.92c2.346667-1.92 2.346667-6.826667 4.693334-8.32l2.773333-1.706667v-4.48h1.28v-1.066667a37.12 37.12 0 0 1 4.053333-8.746666c0-4.053333-1.706667-7.68 0-11.306667s1.706667-2.986667 1.706667-4.053333 2.986667-1.28 3.84-1.706667a12.8 12.8 0 0 0 1.066667-5.973333c0-2.773333 2.133333-3.626667 2.133333-5.546667s2.346667-4.48 2.346667-7.253333a47.786667 47.786667 0 0 0 5.333333-13.226667c2.986667-2.133333 3.413333-5.333333 5.333333-7.466667a30.933333 30.933333 0 0 0 5.973334-2.986666v-1.28c0-4.48-2.346667-9.6 0-13.013334l1.28-4.266666a56.533333 56.533333 0 0 0-2.346667-17.28 26.88 26.88 0 0 1-9.173333-7.68 85.333333 85.333333 0 0 1-10.453334 0h-1.066666l1.706666-2.773334h4.266667c2.346667 0 2.773333-1.706667 4.48-2.346666s6.613333-4.053333 8.32-7.04l-1.493333-3.413334a19.626667 19.626667 0 0 1-6.826667-5.76 21.333333 21.333333 0 0 0-2.986667-8.533333l-2.773333-2.773333a42.666667 42.666667 0 0 0-4.48-8.746667c-2.56-3.84-6.4-3.84-8.533333-6.4v-1.28a103.253333 103.253333 0 0 0-2.773334-20.266667l-3.413333-3.84c0-2.346667 0-5.76-1.706667-7.253333l-2.773333-1.28c-1.493333-2.986667-4.266667-1.493333-6.613333-4.053333s-6.613333 0-8.746667-1.28-3.626667-1.92-3.626667-4.693334 1.706667-4.053333 3.2-4.48 0 0 0-1.066666 2.56-2.346667 3.626667-3.626667a27.306667 27.306667 0 0 1 10.88-11.093333 28.586667 28.586667 0 0 1 2.773333-5.76h1.706667c1.92-1.92 1.28-5.333333 2.346667-7.04v-1.28c2.56-1.28 5.973333 0 7.466666-1.92v-1.28a46.933333 46.933333 0 0 0 16.213334-12.373334l-1.066667-2.986666c-1.92 0-2.56-2.56-4.48-2.56h-4.053333c-1.28 0-5.333333-2.346667-7.466667-2.346667h-1.493333a21.333333 21.333333 0 0 0-7.466667-2.56l-2.986667-3.626667a24.32 24.32 0 0 0-17.92 8.533334h-2.773333a29.013333 29.013333 0 0 1-8.32 9.173333c-1.92 0-2.773333-1.066667-4.48-1.066667l-1.493333-2.773333 2.56-1.28v-8.106667a16.853333 16.853333 0 0 0-10.453334-6.826666 78.933333 78.933333 0 0 1-10.24 0 21.333333 21.333333 0 0 1-4.693333-6.826667c0-2.346667-1.706667-4.693333 0-5.76a6.186667 6.186667 0 0 1 4.266667-1.493333 22.826667 22.826667 0 0 0 4.48 0c2.986667 0 3.84-1.706667 5.76-1.706667a42.666667 42.666667 0 0 1 5.973333-5.333333c0-2.346667 1.493333-2.346667 0-4.266667a60.8 60.8 0 0 1 8.106667-11.306667c4.48-1.706667 7.253333-3.626667 10.026666-4.906666s1.706667-2.986667 1.706667-4.266667 2.986667-2.56 3.413333-4.053333 1.706667-5.333333 4.266667-7.253334a26.24 26.24 0 0 1 4.48 0c2.986667 0 3.413333-2.773333 5.973333-2.346666a21.333333 21.333333 0 0 1 1.493334 7.253333c-1.92 1.493333-1.493333 4.48-3.2 5.546667l-2.346667 1.493333c-2.773333 7.68 2.133333 16.213333-1.706667 23.04l-2.133333 1.92a6.4 6.4 0 0 1-1.28 4.266667c0 2.986667 2.346667 3.413333 2.773333 5.546666 4.266667 0 6.4-2.56 10.24-3.626666s1.92-2.773333 2.986667-3.626667H832c1.493333-1.066667 1.493333-3.2 1.92-4.053333l2.773333-2.773334c0-1.92 1.493333-2.773333 1.493334-4.48a14.72 14.72 0 0 0 3.626666-4.266666c0-1.706667 1.493333-2.773333 1.493334-4.266667a15.146667 15.146667 0 0 1 5.76-3.84 29.866667 29.866667 0 0 0 20.266666-6.613333v-1.493334a12.373333 12.373333 0 0 1 6.4-6.4c1.493333-1.706667 0-4.48 4.266667-6.613333v-2.773333c0-3.413333 4.693333-4.266667 4.693333-7.466667v-1.28c0-2.346667 1.92-2.773333 2.346667-4.266667l2.346667-2.56v-1.28a30.08 30.08 0 0 1 3.2-5.973333c0-1.28 2.773333-1.28 4.266666-1.706667a49.066667 49.066667 0 0 0 21.333334 1.28l2.986666-1.92c0-2.346667 2.346667-2.773333 2.346667-5.333333s-2.56-2.346667-2.56-4.266667a87.253333 87.253333 0 0 1 10.88-10.88 101.12 101.12 0 0 1 5.973333-10.24 8.32 8.32 0 0 1 4.48 1.706667l1.066667 2.773333a7.253333 7.253333 0 0 0 4.266667 0v-1.066666c2.56-4.053333 1.493333-7.68 2.56-11.52s4.053333-5.333333 5.76-7.04c-1.92-6.826667 0-14.08-4.266667-18.986667 0-5.12-4.053333-7.68-5.12-11.52s-1.493333-4.266667-1.493333-5.76 5.12-3.2 6.613333-5.12v-2.986667a33.493333 33.493333 0 0 1 17.706667-1.92c0-2.346667 1.28-3.2 2.773333-3.84s1.92-4.266667 2.773333-5.76a380.16 380.16 0 0 1 1.706667-44.586666l1.493333-1.066667a11.733333 11.733333 0 0 0 0-11.52 21.333333 21.333333 0 0 0 0-7.253333 7.04 7.04 0 0 1 2.986667-4.053334 7.893333 7.893333 0 0 0 0-4.48l-2.133333-3.2h-1.493334l-2.56 1.706667h-2.986666a68.906667 68.906667 0 0 0-10.24 8.746667c-3.626667 0-5.973333 1.28-7.893334 3.84s-1.92 3.84-1.92 5.546666c-3.413333 1.066667-3.413333 4.053333-5.973333 5.973334a61.226667 61.226667 0 0 1-14.293333 3.626666c-1.92-1.28-3.84-3.626667-5.76-4.053333h-1.493334v-2.773333a17.066667 17.066667 0 0 0-2.346666-5.333334 5.76 5.76 0 0 1-2.773334-3.2 21.333333 21.333333 0 0 1-6.4-5.76 13.653333 13.653333 0 0 0-7.466666-1.066666c-2.346667-2.133333-4.906667-2.986667-7.466667-4.906667a91.946667 91.946667 0 0 1-21.333333-1.28L874.666667 211.626667c0-1.493333-1.706667-3.413333-2.56-3.413334 0-4.266667-2.346667-7.68-2.986667-11.306666s-1.92-2.986667-2.346667-4.053334-3.2-0.853333-4.693333-0.853333a45.013333 45.013333 0 0 1-3.84-5.76 9.813333 9.813333 0 0 0-4.906667-7.04c-1.706667-1.493333-1.28-4.906667-2.773333-5.973333h-1.493333c-2.133333-1.493333-1.706667-4.053333-2.133334-5.973334s-4.693333-5.12-7.04-7.04-1.706667-3.84-2.773333-4.266666-5.12-2.133333-5.12-4.266667-4.906667 0-7.466667 0a5.546667 5.546667 0 0 1-4.053333 2.346667A23.04 23.04 0 0 0 810.666667 149.333333h-8.96a18.133333 18.133333 0 0 1-8.746667 0c-2.773333 0-3.84 2.133333-5.973333 2.133334s-3.413333 2.773333-5.76 2.773333a24.32 24.32 0 0 0-8.746667 1.493333h-1.066667v1.493334h-2.773333c-1.493333 0-1.493333 2.986667-1.92 4.053333s-2.346667 2.133333-4.053333 2.133333h-3.84c-1.493333 1.706667-2.346667 3.84-3.84 5.333334v2.56l3.413333 4.053333h7.253333v1.066667c1.066667 3.2 0 5.76 0 8.533333l-0.64 7.04-3.413333 3.626667c0 2.133333 0 4.693333-1.493333 5.546666h-1.493334c-2.346667 4.053333-3.2 8.746667-5.333333 11.733334s0 7.68-1.92 11.52a74.88 74.88 0 0 0-9.173333 9.386666c0 1.493333-2.986667 1.493333-4.48 2.133334a159.36 159.36 0 0 0-17.493334 0h-1.28c-1.92 4.053333-5.333333 7.04-5.76 11.946666h-1.493333a82.346667 82.346667 0 0 0-3.626667 11.733334l-1.493333 1.28a106.666667 106.666667 0 0 0-2.133333 16c0 2.346667 1.706667 2.56 2.133333 4.053333h1.066667l2.773333 2.133333a17.92 17.92 0 0 0 7.466667-1.493333l4.053333-2.986667h5.76l2.56 1.92c1.92 1.493333 3.84 1.066667 5.333333 1.493334s3.626667-3.626667 6.4-3.626667l1.92-2.986667a8.106667 8.106667 0 0 1 7.466667 0l1.493333 2.986667 2.986667 1.28c1.92 2.346667 3.413333 4.906667 5.76 5.546667s1.706667 3.2 3.413333 3.2 2.56 2.346667 2.56 4.266666l-1.92 2.133334a149.333333 149.333333 0 0 0-14.933333 0L746.666667 298.666667h-7.253334c-4.053333 2.56-5.973333 6.186667-8.96 8.32H725.333333a7.68 7.68 0 0 0-3.84 2.56c0 4.266667-2.133333 6.613333-2.773333 10.026666a13.226667 13.226667 0 0 1-7.253333 2.773334l-1.92 1.92a49.066667 49.066667 0 0 1-7.466667 2.133333 74.24 74.24 0 0 1-8.746667 8.106667l-2.986666 1.493333v1.493333c-1.92 0-2.346667 2.133333-4.48 2.133334-9.386667 2.773333-17.706667-2.773333-26.453334-1.28a21.333333 21.333333 0 0 0-5.76 2.773333c0 2.56-2.133333 2.56-3.626666 2.986667v11.52a45.866667 45.866667 0 0 0 5.973333 9.813333l2.346667 2.56v1.493333a4.906667 4.906667 0 0 1-3.2 2.986667c-1.493333 1.706667-1.493333 4.266667-3.2 5.76a16 16 0 0 1-4.266667 0 45.866667 45.866667 0 0 0-7.466667 6.826667c-1.066667 2.133333-1.493333 4.266667-2.986666 5.12a64 64 0 0 1-18.773334 1.066666 55.466667 55.466667 0 0 1-13.013333 1.066667c-7.04 1.92-14.933333 2.346667-21.333333 4.693333l-2.56 2.346667-7.253334 1.493333-1.92 2.346667a19.84 19.84 0 0 1-4.693333 0 30.506667 30.506667 0 0 1-9.813333 5.76z" p-id="13997"></path></svg>