<svg t="1650252868253" class="icon" viewBox="0 0 1222 1024" version="1.1" xmlns="http://www.w3.org/2000/svg" p-id="15258" width="200" height="200"><path d="M755.976258 958.926452c6.804645 4.690581 2.873806 2.939871 0 11.990709-2.972903 9.348129-3.732645 21.074581-11.825548 28.044387-4.294194 3.699613 8.059871 7.663484 0 8.91871-20.050581 3.171097-11.032774 19.092645-25.566968 15.624258-7.564387-1.816774-10.636387 1.090065-11.726452-15.624258-1.123097-16.68129-22.032516-8.522323-8.819613-21.999484 2.807742-2.873806 8.192-7.597419 14.633291-12.651355 6.177032-4.82271 13.312-10.008774 20.116645-14.269935 3.79871-2.411355 8.192 0.198194 11.363097 0 5.714581-0.396387 9.282065-1.717677 11.825548 0z m216.030968-872.712258l25.765161 19.786322 19.720258 15.128774c6.606452 5.12 6.837677 20.546065 9.480258 35.179355 1.849806 10.24 4.921806 20.083613 12.221936 25.732129 5.351226 4.062968 22.461935-0.264258 34.08929 6.738581 4.888774 2.972903 10.636387 11.264 17.176774 24.939355 3.567484 2.741677 6.276129 11.924645 9.149936 15.293935 2.213161 2.642581 8.786581 0.066065 16.615226-3.699613 9.216-4.39329 20.149677-10.438194 27.747096-11.56129 14.170839-2.180129 16.846452 12.387097 16.846452 20.083613-6.44129 4.195097-9.909677 7.696516-10.405161 10.504258-2.180129 11.792516-11.627355 28.638968-19.918452 49.911742-2.510452 6.408258-3.831742-0.627613-14.435097 23.717161-0.627613 1.453419-4.888774 9.050839-12.783484 22.891355l-12.816516 22.329806c0 12.122839-7.002839 17.474065-7.432258 30.12542-0.528516 14.600258-37.954065 20.942452-43.800774 25.633032-2.312258 1.849806-19.191742-9.975742-21.735226-7.762581-4.195097 3.633548-4.39329 3.435355-7.630451 23.25471-0.72671 4.459355-5.12 11.495226-13.146839 21.107613-8.885677 6.408258-13.477161 11.429161-13.840516 15.06271-0.099097 0.924903-7.46529 1.090065-10.834581-8.357162-2.543484-7.035871 2.77471-26.392774 0-27.813161-4.855742-2.477419-21.80129-4.723613-24.27871-6.606452-5.41729-4.062968-18.398968 11.528258-19.621161 11.957678-1.783742 0.594581-12.552258 4.426323-16.714322 12.486193-3.633548 7.068903 5.153032 15.393032 6.110967 18.332904 1.057032 3.270194 2.576516 11.230968 7.333162 10.041806 4.855742-1.156129 14.005677 0.363355 19.621161 0 1.222194-0.066065 14.765419-0.165161 15.95458 0 4.294194 0.660645 8.588387-2.939871 16.450065 0 3.204129 1.222194 14.501161 6.903742 19.819355 11.56129 0.660645 0.627613 6.738581 10.801548 7.663484 11.098839 1.32129 0.396387-5.219097 0.066065-11.594323 1.32129-4.029935 0.792774-8.026839 2.213161-9.909677 4.888775-0.099097 0.132129-6.705548-2.312258-8.687484 0-2.543484 2.939871-9.083871 4.096-13.74142 6.903742-4.360258 2.576516-9.348129 2.873806-9.645419 3.567483-0.924903 2.114065-8.91871 6.276129-10.669419 11.561291-1.981935 5.912774 2.378323 12.948645 3.105032 15.161806 1.717677 5.12 8.885677 12.651355 4.525419 15.690323l6.375226 6.44129 6.276129 8.456258c-1.189161 4.228129-1.189161 7.134968 0 8.687484 0.594581 0.759742 11.164903 6.144 11.627355 7.035871 0.462452 0.924903 1.156129 4.294194 2.147097 10.24 1.981935 2.510452 1.156129 7.762581 2.708645 10.53729 4.492387 7.960774-0.759742 4.062968 0 13.278968l0.198194 5.384258c-0.990968 8.125935-0.990968 13.345032 0 15.723355 2.213161 5.285161 9.315097 6.177032 9.315096 7.597419 0 3.303226-1.552516 9.249032 0 13.708387 0.858839 2.411355 0.132129 8.456258 0 10.570323-0.330323 4.690581-1.981935 7.597419-3.534451 14.963613-0.693677 3.402323-4.426323 6.110968-5.978839 11.131871-0.72671 2.312258 1.123097 5.219097 0.198194 8.588387-0.528516 2.014968-1.453419 5.153032-2.906839 8.588387-0.462452 1.123097 0.990968 4.756645 0 6.771613-0.594581 1.32129-2.477419 2.972903-5.582452 4.954839 0 5.285161-8.158968 5.879742-8.158968 11.098838 0 1.189161-2.708645 10.24-3.072 11.396129-2.741677 8.852645-0.231226 12.089806-6.606451 19.059613-3.534452 2.312258-7.101935 4.888774-10.636387 7.729549-3.699613 2.972903-8.456258-0.495484-13.378065 3.435355-3.402323 2.708645-12.651355 2.972903-15.326967 9.447225-0.825806 2.048-13.378065 4.492387-12.981678 8.324129 0.561548 5.681548-7.201032 7.333161-9.249032 8.984775-0.330323 0.264258-13.179871 6.144-11.297032 8.48929 0.594581 0.792774-10.96671 6.804645-11.098839 6.936774-0.264258 0.198194-8.158968 3.831742-13.708387 3.138065-5.020903-0.594581-7.597419-5.714581-10.306065-3.171097-3.963871 3.732645-7.168 2.708645-8.621419 3.171097-5.615484 6.771613-9.711484 10.669419-12.221936 11.660387-8.423226 3.303226-13.01471 10.570323-16.714322 11.098838a102.499097 102.499097 0 0 0-17.209807 5.020904 600.526452 600.526452 0 0 0-11.429161 4.294193c-11.891613 2.807742-18.465032 4.690581-19.687226 5.648516-1.915871 1.519484-5.086968 5.384258-8.423226 9.083871-4.029935 4.459355-8.291097 8.687484-10.900645 8.158968-6.936774-1.453419-19.555097 9.678452-25.831225 12.552258-3.468387 1.585548-6.540387 9.612387-9.249033 24.113549-5.879742 3.237161-6.540387 10.636387-12.915613 11.891612-7.267097 1.420387-2.477419 1.156129-9.744516 0-7.134968-1.123097-14.03871-4.723613-20.546064-8.324129l-11.495226-8.192-10.339097-14.963613c-7.564387-4.029935-11.726452-7.498323-12.552258-10.372129-2.708645-9.909677-5.747613-15.194839-9.116903-15.822451-4.096-0.759742-18.068645-5.813677-24.87329 0-1.222194 1.057032-18.068645 16.251871-23.948388 15.624258-4.294194-0.462452-9.017806 1.090065-14.137806 4.657548-7.663484 0-10.008774-5.483355-13.378065-11.164903-1.189161-1.981935-8.654452-3.996903-10.83458-3.864774-3.765677 0.198194-8.753548-3.402323-10.900645-5.252129-2.34529-2.014968-4.459355-4.492387-8.026839-5.648516-8.984774-2.906839-22.23071-1.354323-23.122581-2.47742-6.276129-7.762581-8.852645-14.864516-7.76258-21.272774 0.396387-2.246194-6.44129-12.221935-11.69342-22.594064-4.029935-8.026839-7.101935-16.284903-5.153032-21.404904 3.005935-7.828645 3.005935-17.474065 0-28.936258-3.501419-6.540387-5.945806-10.504258-7.399226-11.85858-6.375226-5.978839-14.732387-4.987871-16.185806-7.201033-4.294194-6.672516-24.377806-4.492387-28.407742-6.011871-10.702452-3.963871-35.906065 9.017806-39.572645 6.011871-3.963871-3.237161-15.855484-4.591484-16.780387-6.011871-6.044903-9.249032-22.197677-5.12-23.287742-5.384258-22.23071-5.879742-18.068645-4.789677-23.684129-11.098838-2.609548-2.906839-18.894452-1.024-22.95742-4.954839a34.485677 34.485677 0 0 0-22.891355-9.51329c-3.435355-2.741677-15.525161-6.044903-19.621161-11.858581-0.594581-0.825806-13.113806-15.326968-13.543226-16.185806-5.285161-10.834581-19.654194-15.194839-21.900387-23.056517a212.298323 212.298323 0 0 0-8.357161-26.293677c-4.39329-10.24-2.972903-11.627355-10.570323-29.39871-1.156129-2.642581-2.246194-11.924645-3.303225-27.813161-5.186065-7.729548-7.663484-11.792516-7.366194-12.089806 12.618323-12.948645-6.540387-19.15871-5.813677-22.726194 1.882839-8.984774-1.519484-14.897548-3.534452-16.846452-2.213161-2.180129-19.786323 4.525419-21.470968 2.873807-2.642581-2.543484-14.03871 0.231226-14.864516-5.615484-1.090065-7.498323-12.023742-7.597419-15.194839-15.194839-2.444387-5.681548-10.405161-6.507355-14.203871-11.759484-1.585548-2.180129-6.771613-2.180129-15.525161 0-5.020903-6.606452-9.083871-16.185806-11.197935-23.981419-3.138065-11.462194-3.534452-6.705548 0-18.398968l-3.567484-14.435096c3.270194-5.020903 6.144-8.522323 8.654451-10.438194 0.660645-0.528516-0.594581-9.083871 0-9.51329 0.957935-0.759742 5.020903-15.855484 6.077936-16.681291 2.279226-1.783742 8.522323-2.972903 15.525161 0 6.309161 2.642581 8.258065-0.594581 14.203871-2.444387a134.110968 134.110968 0 0 0 12.023742-4.69058c0.561548-1.486452 4.82271 0.330323 6.408258 0 5.681548-1.255226 12.948645 0 15.293936-4.228129 0.462452-0.825806 14.600258-5.648516 14.963613-6.507355 2.081032-4.888774 7.134968-8.654452 6.408258-18.002581a128.990968 128.990968 0 0 1 0-19.951484c0.825806-11.330065 3.534452-24.972387 13.212903-27.846193 2.543484-0.759742 9.414194 1.684645 19.621161 0 2.807742-0.462452 7.531355-2.477419 14.203871-6.044904l10.273032-9.249032 6.936775-9.612387c-0.72671-2.77471 11.330065-5.516387 10.933677-8.357161l3.336258-12.651355c-1.453419-21.371871 9.711484-18.993548 17.143742-27.185548 4.756645-5.219097 0.858839-24.443871 14.435097-25.401807a86.214194 86.214194 0 0 0 8.951742-7.068903c5.714581-5.681548 13.212903-4.82271 17.275871-5.681548 4.327226-0.891871 14.534194 5.681548 18.432 5.681548 3.79871 0 13.312 3.963871 28.539871 11.891613 13.510194-0.924903 10.96671 19.125677 16.780387 34.452645 2.411355 6.309161 0.561548 13.212903 5.582451 17.573161 3.963871 3.435355 14.765419 4.360258 17.077678 8.390194 0.924903 1.585548 9.480258 2.576516 10.273032 4.162064 2.708645 4.624516 4.921806 9.249032 6.639484 13.807484 5.41729 14.236903 23.452903 17.275871 28.407742 23.518968 3.138065 3.930839 10.999742 5.615484 23.585032 5.12 17.672258 11.396129 27.681032 18.828387 30.059355 22.329806 10.900645 16.020645 31.710968 21.834323 40.134193 30.12542 11.131871 10.96671 18.035613 13.146839 20.678194 6.507355 18.167742 3.105032 30.885161 4.921806 38.086194 5.351225 17.408 1.090065 29.861161-0.660645 37.359483-5.351225 18.266839-11.363097 24.807226-4.82271 33.758968-6.507355 13.807484-2.642581 12.321032-10.702452 17.804387-13.444129 9.348129-4.657548 19.852387-3.600516 22.627097-4.558452 5.450323-1.882839 8.48929-9.381161 11.858581-12.122839 5.516387-4.525419 12.981677-4.492387 17.176774-7.828645 4.987871-4.029935 11.56129-7.432258 16.747355-19.621161 2.378323-5.648516 13.510194-10.504258 21.206709-23.518968 0.330323-0.561548 0.330323-5.186065 0-13.807484l7.134968-5.813677c4.294194-3.600516 6.705548-5.84671 7.234065-6.738581 3.171097-5.41729 2.312258-6.276129-2.873807-10.206967-4.228129-3.204129-12.221935-9.579355-16.08671-12.71742-6.276129-5.020903-11.363097-4.921806-16.615225-18.597161-1.156129-2.972903-25.500903-12.188903-33.924129-19.026581-6.573419-5.285161-9.51329-10.669419-11.858581-11.56129-2.477419-0.990968-4.954839-9.315097-7.531355-24.972387-3.963871-10.107871 11.396129-17.209806 19.389936-22.693161 9.083871-6.276129-0.264258-10.273032 14.203871-11.726452 13.972645-1.387355 45.848774-9.050839 45.848774-21.80129l57.145806-11.429162c8.687484-7.564387 13.312-12.618323 13.873549-15.128774 2.312258-10.834581-4.294194-27.086452 0-33.825032 1.981935-3.171097 1.090065-16.714323 11.891613-23.816258 2.609548-1.717677 9.447226-1.717677 20.612129 0 9.116903-7.795613 28.804129 3.732645 45.782709 8.78658 6.705548 1.981935 13.411097 4.129032 19.555097 5.615484 16.912516 4.195097 18.432 15.525161 28.804129 23.452904z m92.16 753.201548c-4.888774 2.114065-7.168 19.951484-15.558194 16.780387-1.849806-0.660645 1.255226 27.581935-3.699613 25.071484-4.459355-2.279226-16.978581-35.311484-19.02658-36.467613-10.636387-6.077935 0.231226-14.732387 2.972903-21.107613 3.600516-8.390194 2.147097-14.699355 9.348129-24.377806 14.63329-19.720258 13.840516-22.693161 32.206452-37.326452 6.342194 10.273032 9.579355 19.224774 9.744516 26.855226 0.396387 19.918452-8.258065 47.236129-16.020645 50.572387zM881.862194 84.826839c-6.87071 5.615484-14.732387 10.140903-23.287742 13.312-21.735226 3.038968-38.251355 6.672516-49.548387 10.900645-6.837677 2.576516-17.573161 9.182968-32.140388 19.75329l-15.525161 14.534194c-3.732645 3.534452-12.254968 3.534452-25.566968 0 1.552516 3.072-23.122581 19.092645-21.80129 33.164387 0.990968 10.107871 27.35071 18.960516 30.488774 22.461935 3.204129 3.600516 24.972387 13.080774 27.152516 16.384 11.264 16.912516 15.095742 11.891613 22.395871 29.200516 2.477419 5.813677 46.146065 18.398968 47.037936 23.518968 1.552516 8.852645-41.653677 6.210065-47.037936 11.561291l14.996646 4.162064-37.392517 39.869936-24.576 26.19458a84.430452 84.430452 0 0 1-47.731613 20.149678c0.759742 2.543484-1.189161 4.129032-5.813677 4.723612-4.162065 0.528516-8.258065 16.020645-16.251871 21.966452-7.267097 5.41729-34.782968-0.330323-38.053161 0-13.60929 1.32129-29.861161 16.218839-39.440516 16.218839-10.999742 0-2.741677-1.486452-16.119742 0-3.038968 0.330323-25.071484-6.738581-29.795097-6.077936-3.36929 0.462452-5.912774 3.204129-7.597419 8.192-29.960258 22.924387-31.843097-21.239742-46.443355-28.771096a371.480774 371.480774 0 0 0-21.999484-11.561291c-9.149935-4.294194-18.398968-20.248774-23.750194-24.840258-4.624516-3.963871-9.744516-3.963871-15.260903 0-11.032774-5.681548-9.975742 9.579355-17.242839 0-2.411355-3.171097-34.782968-32.503742-36.665806-36.038193a274.167742 274.167742 0 0 0-22.428903-18.167742c-8.324129-5.549419-20.215742-21.008516-27.086452-25.6-10.603355-7.068903 6.210065-28.275613-1.024-33.098323L296.134194 211.406452l-33.461678-12.453162-27.086451 16.384-6.27613 22.395871c2.378323 8.192-11.429161 2.114065-18.993548 6.804645-6.342194 3.897806 7.168 18.696258 0 23.518968-7.498323 5.086968-6.87071 16.350968-15.194839 21.702194-11.759484 7.531355-16.053677 22.561032-28.96929 27.317677-9.612387 3.534452-23.816258-1.288258-31.644903 1.32129l-5.219097 1.585549-3.501419 0.825806a208.037161 208.037161 0 0 0-7.828645 53.908645c0 16.549161-7.333161 23.882323-21.999484 21.966452-13.675355 5.549419-24.443871 8.91871-32.437678 10.140903-6.903742 1.057032-21.900387 8.984774-33.858064 8.192-1.222194-0.066065-1.222194-2.807742 0-8.192l-13.080774 31.909162-4.756646 11.660387c-0.72671 20.083613 1.552516 33.395613 6.87071 39.969032 4.492387 5.582452 11.99071-6.408258 20.48-3.138065 9.810581 3.79871 20.645161 22.594065 24.344774 25.203613 7.068903 4.888774 6.606452 15.591226 20.810323 16.08671 3.402323 0.099097 12.618323-2.642581 27.714064-8.357161 4.954839 6.276129 8.984774 13.278968 11.858581 20.678193l1.882839 5.582452a11400.786581 11400.786581 0 0 0 6.672516 38.449548c3.237161 17.738323 6.210065 32.371613 8.885677 43.833807 4.39329 18.894452 7.134968 25.401806 8.158968 19.489032 4.525419 9.447226 7.927742 16.251871 10.107871 20.380903 7.134968 13.444129 13.873548 24.047484 20.248774 31.777032 4.789677 5.84671 10.041806 14.203871 21.966452 22.395871 9.050839 6.210065 22.263742 12.056774 40.299355 18.035613 2.77471 0.924903 11.429161 0.924903 25.996387 0 13.972645 9.083871 23.320774 13.939613 28.011355 14.633291 15.855484 2.279226 23.452903-7.267097 31.677935-6.210065 3.963871 0.495484 2.77471 16.714323 7.597419 17.275871 8.026839 0.924903 21.537032 7.035871 40.497549 18.365936 13.345032 0.792774 16.846452-0.990968 27.714064 5.053935 13.939613 7.729548 13.840516-4.525419 21.041549 9.249032 3.36929 6.474323 1.387355 6.342194 2.807742 13.609291 0.594581 2.972903-0.198194 16.350968 0 19.456l5.252129 7.267096v18.332904c0 3.038968-0.033032 14.203871 6.110967 18.828387 0.924903 0.693677 5.450323 4.162065 15.260904 3.336258 0.924903-0.066065 6.738581 0.033032 7.696516 0 2.609548-0.066065 4.82271 1.783742 6.606451 5.615484 12.486194 10.603355 22.957419 12.816516 31.44671 6.606451 3.567484-2.576516 5.020903 4.228129 9.480258 6.837678 2.180129 1.255226 5.483355 6.804645 11.330065 6.936774 5.384258 0.099097 9.017806 0.330323 10.669419 1.882839 1.882839 1.717677 6.144 9.909677 7.696516 9.909677 4.459355 0 6.540387-7.762581 11.792516-7.762581 1.288258 0 6.87071 3.930839 9.744516 1.321291 3.171097-2.873806 8.588387-5.351226 10.041807-5.351226 2.642581 0 5.945806-1.75071 8.951742-3.831742 4.525419-3.138065 8.48929-7.002839 8.852645-7.002839 5.582452 0.29729 8.91871-0.264258 12.453161-1.255226l5.417291-1.651612c2.477419-0.759742 5.41729 6.110968 9.116903 6.804645 0.924903 0.165161 3.732645-7.168 4.459355-6.804645 2.444387-6.771613 4.029935-9.909677 4.756645-9.513291 0.561548 0.330323-1.453419 4.162065 8.48929 11.164903 0.330323 0.231226-7.101935 8.225032-4.723613 13.972646 0.231226 0.561548 9.315097-3.831742 9.579355-3.237162 0.264258 0.660645-0.825806 3.897806-3.204129 9.64542 4.690581 1.189161 6.969806 2.972903 6.936774 5.351226a22.065548 22.065548 0 0 0 2.378323 10.83458c1.156129 1.783742 1.32129 6.936774 3.699613 8.258065 1.651613 0.990968 5.384258 0.990968 11.131871 0 3.897806 5.219097 6.507355 8.555355 7.795613 9.975742 2.048 2.312258 3.699613 3.963871 5.053935 5.186064 2.741677 2.411355 4.294194 2.972903 5.549419 3.038968 1.618581 0.132129 6.177032 5.879742 8.092904 6.210064 2.972903 0.528516 6.705548 2.048 8.158967 0 0.660645-0.990968 1.156129-2.180129 1.783742-2.939871 1.255226-1.420387 2.180129-5.615484 2.642581-7.795612 0.627613-2.642581-4.294194-5.615484-4.426323-8.225033-0.132129-2.708645 4.558452-5.053935 5.813678-5.41729 2.972903-0.891871-6.044903-1.981935-5.813678-8.291097 0.099097-3.138065 4.82271-3.633548 9.579355-5.483355 0.660645-0.29729 4.789677 3.963871 5.483355 3.633549 4.690581-1.849806 11.99071-1.024 15.095742-3.633549 1.32129-1.156129-1.32129-6.969806 0-7.201032 5.41729-0.891871 9.116903-0.099097 16.846452-7.762581 1.387355-1.420387 8.092903-3.501419 10.900645-5.384258 2.114065-1.420387 4.360258-5.285161 6.672516-11.56129 0.495484-1.420387 7.696516 2.081032 8.588387-0.825806 0.231226-0.792774 1.981935-2.312258 5.153032-4.624517 3.138065-1.651613 1.651613-3.633548 5.053936-4.888774l9.645419 4.888774c2.411355 3.138065 4.261161 2.114065 5.549419-3.138064 1.387355-5.549419 4.459355-9.876645 9.447226-10.570323 1.255226-0.165161 2.477419 5.186065 4.129032 6.077936 1.057032 0.594581 2.510452-2.939871 3.369291-3.303226 2.741677-1.255226 7.002839 1.189161 9.249032 0 1.75071-0.924903 1.420387-5.41729 3.79871-6.837677 0.759742-0.462452 3.402323 2.378323 4.39329 1.585548 2.246194-1.849806 3.171097-7.663484 5.84671-8.026839 3.864774-0.495484 5.84671-3.567484 8.753548-5.615484 3.534452-2.411355 0.660645-7.399226 3.072-9.149935 1.453419-1.090065 4.954839 5.813677 9.546323 4.228129 1.354323-0.462452 3.534452-6.87071 4.888774-7.927742 0.495484-0.396387 4.492387 1.981935 8.91871-1.453419 1.552516-1.255226 4.228129-3.237161 7.927741-5.978839-1.75071 8.885677 0.363355 13.312 6.441291 13.312s14.798452-6.210065 26.19458-18.597161l42.017033-28.440775c18.299871-2.840774 29.332645-7.46529 33.131355-13.873548 3.765677-6.44129 7.861677-17.936516 12.254967-34.485677 11.594323-6.87071 16.185806-13.807484 13.74142-20.810323-1.981935-5.780645 3.567484-15.260903 9.050838-34.254452 0.759742-2.576516 2.213161-13.179871 4.393291-31.777032-13.378065-16.185806-13.675355-10.96671-13.444129-17.011613 0.165161-3.765677 0.990968-8.48929 0-15.690322-0.594581-4.459355-6.210065-10.570323 0-15.921549l-10.107871-16.714322c2.873806-2.147097-16.119742-10.140903-15.888516-13.807484 0-0.099097 12.155871-3.336258 12.254967-3.36929-5.086968-4.888774-7.267097-7.300129-6.573419-7.300129 8.91871 0-30.918194-17.209806-19.389936-17.209807 1.915871 0-1.717677-14.864516-2.972903-16.516129-3.005935-3.963871 0.759742-18.465032 2.972903-24.87329 1.882839-5.318194 23.386839-6.672516 29.596904-12.71742 3.963871-3.831742 16.978581-7.597419 39.044129-11.396129-9.678452-5.186065-17.507097-8.125935-23.518968-8.819613-4.096-0.462452-16.119742 1.519484-19.15871 3.138065-3.963871 2.081032-8.158968-11.164903-12.254967-9.645419-15.194839 5.615484-28.605935 9.975742-33.131355 6.507354-2.081032-1.585548-12.717419-5.053935-14.435097-6.507354-6.936774-5.714581 6.210065-8.588387 4.195097-12.122839-6.540387-11.56129-9.51329-15.029677-7.696516-18.200774 1.915871-3.336258 3.105032-13.212903 10.438193-15.161807 6.375226-1.717677 21.834323-1.783742 26.92129-20.215742 0.759742-2.708645 10.636387-5.41729 29.596904-8.192 0.429419-4.096 18.663226-0.594581 23.552 12.056775 1.717677 4.459355-7.168 17.540129-4.393291 21.470967 2.444387 3.468387 7.927742 3.468387 16.516129 0l8.258065-33.527742s12.122839-16.714323 20.546064-20.579096l22.891355 10.438193a142.534194 142.534194 0 0 1 38.119226-21.966452c4.855742-1.849806 4.756645-9.909677 5.285161-20.711225 0.495484-9.678452 15.06271-21.603097 20.546065-33.19742 3.303226-6.969806 10.24-15.36 20.843355-25.17058 4.657548-10.24 8.588387-19.456 11.792516-27.581936 6.243097-15.756387 18.101677-43.008 16.780387-52.422193-0.561548-3.831742 2.477419-16.152774 0-17.441033-5.12-2.642581-18.861419 9.480258-32.140387 17.441033-5.714581 3.402323-20.083613 3.402323-43.107097 0 4.096-25.236645 2.840774-38.317419-3.831742-39.143226-26.557935-3.435355-43.73471-9.216-51.563355-17.308903-12.420129-12.882581-18.233806-46.839742-26.161548-61.043613-12.354065-22.032516-24.939355-23.386839-37.888-32.768-32.173419-23.25471-55.329032-33.560774-69.499871-30.885162-31.380645-4.195097-49.284129-4.195097-53.776516 0-7.46529 7.002839-7.46529 23.783226 0 50.341162z" p-id="15259"></path></svg>