<?xml version="1.0" standalone="no"?><!DOCTYPE svg PUBLIC "-//W3C//DTD SVG 1.1//EN" "http://www.w3.org/Graphics/SVG/1.1/DTD/svg11.dtd"><svg t="1650421004051" class="icon" viewBox="0 0 1331 1024" version="1.1" xmlns="http://www.w3.org/2000/svg" p-id="8591" xmlns:xlink="http://www.w3.org/1999/xlink" width="41.59375" height="32"><defs><style type="text/css">@font-face { font-family: feedback-iconfont; src: url("//at.alicdn.com/t/font_1031158_u69w8yhxdu.woff2?t=1630033759944") format("woff2"), url("//at.alicdn.com/t/font_1031158_u69w8yhxdu.woff?t=1630033759944") format("woff"), url("//at.alicdn.com/t/font_1031158_u69w8yhxdu.ttf?t=1630033759944") format("truetype"); }
</style></defs><path d="M665.6 148.48c200.7552 0 363.52 162.7648 363.52 363.52S866.3552 875.52 665.6 875.52 302.08 712.7552 302.08 512 464.8448 148.48 665.6 148.48z m0 153.6a209.92 209.92 0 1 0 0 419.84 209.92 209.92 0 0 0 0-419.84z" fill="#338673" p-id="8592"></path><path d="M352.256 696.32c64.8448 110.1056 183.1424 179.2 313.344 179.2 200.7552 0 363.52-162.7648 363.52-363.52S866.3552 148.48 665.6 148.48v153.6a209.92 209.92 0 1 1-181.0432 316.288L352.256 696.32z" fill="#40FFA7" p-id="8593"></path></svg>