<?xml version="1.0" standalone="no"?><!DOCTYPE svg PUBLIC "-//W3C//DTD SVG 1.1//EN" "http://www.w3.org/Graphics/SVG/1.1/DTD/svg11.dtd"><svg t="1649920741182" class="icon" viewBox="0 0 1331 1024" version="1.1" xmlns="http://www.w3.org/2000/svg" p-id="15554" xmlns:xlink="http://www.w3.org/1999/xlink" width="41.59375" height="32"><defs><style type="text/css">@font-face { font-family: feedback-iconfont; src: url("//at.alicdn.com/t/font_1031158_u69w8yhxdu.woff2?t=1630033759944") format("woff2"), url("//at.alicdn.com/t/font_1031158_u69w8yhxdu.woff?t=1630033759944") format("woff"), url("//at.alicdn.com/t/font_1031158_u69w8yhxdu.ttf?t=1630033759944") format("truetype"); }
</style></defs><path d="M908.9024 685.4144l125.6448 48.2304-19.8656 42.5728-117.7088-65.2544 11.9296-25.5488z m-467.2768 0l11.9296 25.5488-117.7088 65.28-19.8656-42.5984 125.6448-48.2304z m483.6352-61.5168l133.6064 16.384-8.96 46.1312-130.0224-34.8416 5.376-27.6736z m-499.9936 0l5.376 27.648-129.9968 34.8672-8.96-46.1312 133.5808-16.384z m633.5488-81.2544l3.2768 46.8736h-134.5792l-1.9712-28.1344 133.2736-18.7392z m-767.104 0l133.2736 18.7392-1.9712 28.1344h-134.5792l3.2768-46.848z m743.3984-93.4656L1049.6 493.824 919.04 526.4128l-8.704-26.8288 124.7744-50.432z m-719.6928 0l124.8 50.432-8.704 26.8032-130.6112-32.5632 14.5152-44.672z m673.536-84.736l24.9088 39.8592-118.8352 63.1552-14.9504-23.9104 108.8768-79.104z m-627.3792 0l108.8768 79.104-14.9504 23.9104-118.8352-63.1552 24.9088-39.8592z m560.5632-71.2192l34.3552 32.0512-98.432 91.776-20.608-19.2 84.6848-104.6272z m-493.7472 0l84.6848 104.6016-20.608 19.2256-98.432-91.776 34.3552-32.0512z m412.4928-51.968l41.088 22.784-73.3184 112.896-24.6528-13.696 56.8832-121.984z m-331.2384 0l56.8832 121.984-24.6528 13.6704-73.3184-112.8704 41.088-22.784z m238.336-30.1312L793.6 222.4896l-41.6 128-27.3664-6.8096 23.3728-132.5568z m-145.4592 0l23.3728 132.5568-27.3664 6.8096-41.6-128 45.5936-11.3664zM698.7776 204.8l-9.4208 134.2464h-28.1856L651.776 204.8h46.976z" fill="#327E70" p-id="15555"></path><path d="M441.6256 685.4144l11.9296 25.5488-117.7088 65.28-19.8656-42.5984 125.6448-48.2304z m-16.384-61.5168l5.376 27.648-129.9712 34.8672-8.96-46.1312 133.5808-16.384z m-133.5296-81.2544l133.2736 18.7392-1.9712 28.1344h-134.5792l3.2768-46.848z m23.7056-93.4656l124.8 50.432-8.704 26.8032-130.6112-32.5632 14.5152-44.672z m46.1568-84.736l108.8768 79.104-14.9504 23.9104-118.8352-63.1552 24.9088-39.8592z m66.816-71.2192l84.6848 104.6016-20.608 19.2256-98.432-91.776 34.3552-32.0512z m412.4928-51.968l41.088 22.784-73.3184 112.896-24.6528-13.696 56.8832-121.984z m-331.2384 0l56.8832 121.984-24.6528 13.6704-73.3184-112.8704 41.088-22.784z m238.336-30.1312L793.6 222.4896l-41.6 128-27.3664-6.8096 23.3728-132.5568z m-145.4592 0l23.3728 132.5568-27.3664 6.8096-41.6-128 45.5936-11.3664zM698.7776 204.8l-9.4208 134.2464h-28.1856L651.776 204.8h46.976z" fill="#3de39b" p-id="15556" data-spm-anchor-id="a313x.7781069.0.i4" class="selected"></path><path d="M766.0288 441.6256c4.352 2.1248 6.4256 7.1936 4.7872 11.776l-67.2256 185.856a30.6688 30.6688 0 1 1-54.8352-26.752l105.088-167.3984c2.56-4.096 7.8336-5.6064 12.1856-3.4816z" fill="#39C28D" p-id="15557"></path></svg>