<?xml version="1.0" standalone="no"?><!DOCTYPE svg PUBLIC "-//W3C//DTD SVG 1.1//EN" "http://www.w3.org/Graphics/SVG/1.1/DTD/svg11.dtd"><svg t="1649920713588" class="icon" viewBox="0 0 1331 1024" version="1.1" xmlns="http://www.w3.org/2000/svg" p-id="14604" xmlns:xlink="http://www.w3.org/1999/xlink" width="41.59375" height="32"><defs><style type="text/css">@font-face { font-family: feedback-iconfont; src: url("//at.alicdn.com/t/font_1031158_u69w8yhxdu.woff2?t=1630033759944") format("woff2"), url("//at.alicdn.com/t/font_1031158_u69w8yhxdu.woff?t=1630033759944") format("woff"), url("//at.alicdn.com/t/font_1031158_u69w8yhxdu.ttf?t=1630033759944") format("truetype"); }
</style></defs><path d="M211.5584 508.2112l249.8304 143.3856 0.4352-0.7424a242.688 242.688 0 0 1 83.84-85.7088 236.7232 236.7232 0 0 1 123.5968-34.4832c86.2976 0 164.5568 46.208 207.36 120.0896l249.2416-144.384C1032.1152 344.5248 859.4944 242.6112 669.2608 242.6112a524.7488 524.7488 0 0 0-273.152 76.3648 530.7392 530.7392 0 0 0-181.504 184.0128l-3.0464 5.2224z" fill="#40FFA7" p-id="14605"></path><path d="M745.728 543.1552a241.3568 241.3568 0 0 1 130.9184 107.5968l249.216-144.384a529.408 529.408 0 0 0-287.7696-236.032L745.728 543.1296z" fill="#327E70" p-id="14606"></path><path d="M781.824 432.5376a10.752 10.752 0 0 1 6.912 12.8l-75.5968 297.8816a36.352 36.352 0 1 1-68.48-23.5776l123.8272-281.2672a10.752 10.752 0 0 1 13.312-5.8368z" fill="#39C28D" p-id="14607"></path></svg>