<?xml version="1.0" standalone="no"?><!DOCTYPE svg PUBLIC "-//W3C//DTD SVG 1.1//EN" "http://www.w3.org/Graphics/SVG/1.1/DTD/svg11.dtd"><svg t="1650009496383" class="icon" viewBox="0 0 1024 1024" version="1.1" xmlns="http://www.w3.org/2000/svg" p-id="5549" data-spm-anchor-id="a313x.7781069.0.i5" xmlns:xlink="http://www.w3.org/1999/xlink" width="200" height="200"><defs><style type="text/css">@font-face { font-family: feedback-iconfont; src: url("//at.alicdn.com/t/font_1031158_u69w8yhxdu.woff2?t=1630033759944") format("woff2"), url("//at.alicdn.com/t/font_1031158_u69w8yhxdu.woff?t=1630033759944") format("woff"), url("//at.alicdn.com/t/font_1031158_u69w8yhxdu.ttf?t=1630033759944") format("truetype"); }
</style></defs><path d="M197.973333 826.026667h669.013334c6.826667 0 10.24 3.413333 10.24 10.24v30.72c0 6.826667-3.413333 10.24-10.24 10.24H157.013333c-6.826667 0-10.24-3.413333-10.24-10.24V157.013333c0-6.826667 3.413333-10.24 10.24-10.24h30.72c6.826667 0 10.24 3.413333 10.24 10.24v669.013334z" p-id="5550" data-spm-anchor-id="a313x.7781069.0.i4" class="selected" fill="#1296db"></path><path d="M641.706667 669.013333c13.653333 0 27.306667 10.24 27.306666 27.306667v51.2c0 13.653333-13.653333 27.306667-27.306666 27.306667H276.48c-13.653333 0-27.306667-10.24-27.306667-27.306667v-51.2c0-13.653333 10.24-27.306667 27.306667-27.306667h365.226667zM484.693333 512c13.653333 0 27.306667 10.24 27.306667 27.306667v51.2c0 13.653333-10.24 27.306667-27.306667 27.306666H276.48c-6.826667 0-13.653333-3.413333-17.066667-6.826666s-6.826667-10.24-6.826666-17.066667v-51.2c0-6.826667 3.413333-13.653333 6.826666-17.066667 3.413333-10.24 10.24-13.653333 17.066667-13.653333h208.213333z m314.026667-153.6c13.653333 0 27.306667 10.24 27.306667 27.306667v51.2c0 13.653333-13.653333 27.306667-27.306667 27.306666H276.48c-6.826667 0-13.653333-3.413333-17.066667-6.826666-3.413333-3.413333-6.826667-10.24-6.826666-17.066667v-51.2c0-13.653333 10.24-27.306667 27.306666-27.306667h518.826667v-3.413333z m-208.213333-157.013333c13.653333 0 27.306667 10.24 27.306666 27.306666v51.2c0 13.653333-13.653333 27.306667-27.306666 27.306667H276.48c-6.826667 0-13.653333-3.413333-17.066667-6.826667-6.826667-6.826667-10.24-13.653333-6.826666-20.48V225.28c0-13.653333 10.24-27.306667 27.306666-27.306667h310.613334z" p-id="5551" data-spm-anchor-id="a313x.7781069.0.i2" class="" fill="#f4ea2a"></path></svg>