<?xml version="1.0" encoding="UTF-8"?>
<svg width="18px" height="18px" viewBox="0 0 18 18" version="1.1" xmlns="http://www.w3.org/2000/svg" xmlns:xlink="http://www.w3.org/1999/xlink">
    <title>编组 35</title>
    <g id="页面-1" stroke="none" stroke-width="1" fill="none" fill-rule="evenodd">
        <g id="配置/图表样式配置/补充系列设置" transform="translate(-1395.000000, -852.000000)" fill="#FA8334" fill-rule="nonzero">
            <g id="编组-35" transform="translate(1395.000000, 852.000000)">
                <polygon id="路径备份-11" fill-opacity="0.25" transform="translate(9.000000, 9.000000) scale(1, -1) rotate(90.000000) translate(-9.000000, -9.000000) " points="-2.04336548e-13 7 18 3.6419092e-18 18 18 -1.18368035e-13 18"></polygon>
                <polygon id="路径" fill-opacity="0.65" transform="translate(2.000000, 13.000000) scale(1, -1) rotate(90.000000) translate(-2.000000, -13.000000) " points="1 11 3 11 3 15 1 15"></polygon>
                <polygon id="路径" transform="translate(7.500000, 9.000000) scale(1, -1) rotate(90.000000) translate(-7.500000, -9.000000) " points="6.5 1.5 8.5 1.5 8.5 16.5 6.5 16.5"></polygon>
                <polygon id="路径备份-12" transform="translate(5.500000, 17.000000) scale(1, -1) rotate(90.000000) translate(-5.500000, -17.000000) " points="4.5 11.5 6.5 11.5 6.5 22.5 4.5 22.5"></polygon>
                <polygon id="路径" fill-opacity="0.65" transform="translate(2.000000, 5.000000) scale(1, -1) rotate(90.000000) translate(-2.000000, -5.000000) " points="1 3 3 3 3 7 1 7"></polygon>
                <polygon id="路径" transform="translate(9.000000, 1.000000) scale(1, -1) rotate(90.000000) translate(-9.000000, -1.000000) " points="8 -8 10 -8 10 10 8 10"></polygon>
            </g>
        </g>
    </g>
</svg>