<?xml version="1.0" standalone="no"?><!DOCTYPE svg PUBLIC "-//W3C//DTD SVG 1.1//EN" "http://www.w3.org/Graphics/SVG/1.1/DTD/svg11.dtd"><svg t="1649921563158" class="icon" viewBox="0 0 1024 1024" version="1.1" xmlns="http://www.w3.org/2000/svg" p-id="20325" data-spm-anchor-id="a313x.7781069.0.i31" xmlns:xlink="http://www.w3.org/1999/xlink" width="32" height="32"><defs><style type="text/css">@font-face { font-family: feedback-iconfont; src: url("//at.alicdn.com/t/font_1031158_u69w8yhxdu.woff2?t=1630033759944") format("woff2"), url("//at.alicdn.com/t/font_1031158_u69w8yhxdu.woff?t=1630033759944") format("woff"), url("//at.alicdn.com/t/font_1031158_u69w8yhxdu.ttf?t=1630033759944") format("truetype"); }
</style></defs><path d="M889.4208 403.7376a408.4224 408.4224 0 0 0-87.7824-130.176A408.4224 408.4224 0 0 0 512 153.6a408.4224 408.4224 0 0 0-289.6384 119.9616A408.4224 408.4224 0 0 0 102.4 563.2c0 121.344 53.2992 235.6224 146.176 313.7024l1.5616 1.28c5.3248 4.3776 11.9808 6.8352 18.8416 6.8352h486.144c6.8352 0 13.5168-2.4576 18.816-6.8352l1.536-1.28A409.088 409.088 0 0 0 921.6 563.2c0-55.296-10.88-108.9024-32.1792-159.4624z m-149.4016 411.8016H283.9808A339.3024 339.3024 0 0 1 171.8784 563.2c0-90.88 35.3792-176.2816 99.6608-240.4608A337.8432 337.8432 0 0 1 512 223.0784c90.88 0 176.2816 35.3792 240.4608 99.6608A337.8432 337.8432 0 0 1 852.1216 563.2c0 96.5376-40.704 187.904-112.1024 252.3392z" fill="#40ffa7" p-id="20326" data-spm-anchor-id="a313x.7781069.0.i25" class="selected"></path><path d="M613.9392 436.5824a7.3472 7.3472 0 0 0-10.3168 0L526.336 513.792a51.072 51.072 0 0 0-49.4592 13.2608 51.1488 51.1488 0 0 0 0 72.4224 51.1488 51.1488 0 0 0 72.3968 0 51.072 51.072 0 0 0 13.2608-49.4592l77.2608-77.2608a7.3472 7.3472 0 0 0 0-10.3424l-25.856-25.856z" fill="#5AD8A6" p-id="20327"></path><path d="M491.8784 343.7824h40.2432a7.3472 7.3472 0 0 0 7.296-7.3216v-73.1392a7.3472 7.3472 0 0 0-7.296-7.3216h-40.2432a7.3472 7.3472 0 0 0-7.296 7.3216v73.1392c0 4.0192 3.2768 7.3216 7.296 7.3216zM729.6 543.0784v40.2432c0 4.0192 3.3024 7.296 7.3216 7.296h73.1392a7.3472 7.3472 0 0 0 7.3216-7.296v-40.2432a7.3472 7.3472 0 0 0-7.3216-7.296h-73.1392a7.3472 7.3472 0 0 0-7.3216 7.296zM741.2224 362.7776l-28.4416-28.416a7.3472 7.3472 0 0 0-10.3424 0l-51.7376 51.7376a7.3472 7.3472 0 0 0 0 10.3424l28.416 28.416c2.8416 2.8416 7.5008 2.8416 10.3424 0l51.7632-51.7376a7.3472 7.3472 0 0 0 0-10.3424zM321.92 334.336a7.3472 7.3472 0 0 0-10.3424 0l-28.416 28.4416a7.3472 7.3472 0 0 0 0 10.3424l51.7376 51.7376c2.816 2.8416 7.5008 2.8416 10.3424 0l28.416-28.416a7.3472 7.3472 0 0 0 0-10.3424l-51.7376-51.7376zM283.4176 535.7824H210.2784a7.3472 7.3472 0 0 0-7.296 7.296v40.2432c0 4.0192 3.2768 7.296 7.296 7.296h73.1392a7.3472 7.3472 0 0 0 7.3216-7.296v-40.2432a7.3472 7.3472 0 0 0-7.3216-7.296z" fill="#40ffa7" p-id="20328" data-spm-anchor-id="a313x.7781069.0.i30" class="selected"></path></svg>