<?xml version="1.0" standalone="no"?><!DOCTYPE svg PUBLIC "-//W3C//DTD SVG 1.1//EN" "http://www.w3.org/Graphics/SVG/1.1/DTD/svg11.dtd"><svg t="1650421542984" class="icon" viewBox="0 0 1024 1024" version="1.1" xmlns="http://www.w3.org/2000/svg" p-id="10329" xmlns:xlink="http://www.w3.org/1999/xlink" width="32" height="32"><defs><style type="text/css">@font-face { font-family: feedback-iconfont; src: url("//at.alicdn.com/t/font_1031158_u69w8yhxdu.woff2?t=1630033759944") format("woff2"), url("//at.alicdn.com/t/font_1031158_u69w8yhxdu.woff?t=1630033759944") format("woff"), url("//at.alicdn.com/t/font_1031158_u69w8yhxdu.ttf?t=1630033759944") format("truetype"); }
</style></defs><path d="M0 0m85.333333 0l853.333334 0q85.333333 0 85.333333 85.333333l0 853.333334q0 85.333333-85.333333 85.333333l-853.333334 0q-85.333333 0-85.333333-85.333333l0-853.333334q0-85.333333 85.333333-85.333333Z" fill="#FFFFFF" p-id="10330"></path><path d="M334.592 542.72h425.301333v-74.965333h-68.437333c-17.194667 5.333333-34.005333 6.954667-52.821333 6.954666-51.2 0-95.488-17.194667-121.301334-42.624 0-1.621333-1.664-1.621333-3.285333-3.285333-1.621333-1.621333-3.285333-5.290667-6.954667-8.576-20.48-22.144-54.528-37.717333-93.866666-37.717333-44.245333 0-83.584 20.48-102.4 47.957333v77.013333c3.242667 6.997333 8.576 11.904 15.530666 18.858667 2.901333 6.144 6.570667 11.477333 8.234667 16.384z" fill="#40ffa7" p-id="10331" data-spm-anchor-id="a313x.7781069.0.i35" class="selected"></path><path d="M732.458667 440.32c-17.194667 5.290667-30.72 15.530667-39.338667 27.434667-3.285333 1.621333-5.333333 3.285333-8.618667 5.333333-27.434667 22.101333-68.437333 37.674667-112.64 37.674667-54.528 0-100.821333-20.48-128.298666-51.2a3.541333 3.541333 0 0 0-3.285334-3.285334 39.509333 39.509333 0 0 0-6.954666-8.618666c-22.144-27.434667-58.197333-44.245333-99.157334-44.245334-32.384 0-59.818667 10.24-81.92 27.434667a247.210667 247.210667 0 0 0-13.568 81.962667c0 39.338667 8.618667 77.056 23.765334 109.397333 34.005333 68.437333 90.581333 121.301333 158.592 146.730667 1.621333 0 3.285333 1.621333 5.333333 1.621333 3.285333 1.621333 4.906667 1.621333 8.576 3.285333 23.808 6.954667 51.242667 11.861333 77.056 11.861334 27.434667 0 54.485333-3.242667 80.298667-11.861334 1.664 0 3.285333-1.664 5.333333-1.664 3.285333-1.621333 8.618667-3.242667 11.904-5.290666 61.44-25.813333 112.64-73.386667 146.688-134.826667a276.010667 276.010667 0 0 0 27.434667-119.637333c0-25.813333-3.242667-49.578667-10.24-73.386667-10.24-3.669333-25.813333-3.669333-40.96 1.28z" fill="#40ffa7" p-id="10332" data-spm-anchor-id="a313x.7781069.0.i33" class="selected"></path><path d="M512 170.666667c-187.690667 0-341.333333 153.642667-341.333333 341.333333s153.642667 341.333333 341.333333 341.333333 341.333333-153.642667 341.333333-341.333333-153.642667-341.333333-341.333333-341.333333z m0 648.661333c-169.216 0-307.328-138.496-307.328-307.328 0-168.832 138.112-307.328 307.328-307.328S819.328 342.784 819.328 512 681.216 819.328 512 819.328z" fill="#347e6e" p-id="10333" data-spm-anchor-id="a313x.7781069.0.i30" class=""></path></svg>