<svg id="图层_1" data-name="图层 1" xmlns="http://www.w3.org/2000/svg" viewBox="0 0 32 32"><defs><style>.cls-1{fill:#fa8334;}.cls-2{fill:#fff;}</style></defs><path class="cls-1" d="M23.07,9.24A9,9,0,0,0,15,4.36a8.89,8.89,0,0,0-9,8.09,7.9,7.9,0,0,0-6,7.43C0,24,3.54,27.4,8,27.64H23a9.11,9.11,0,0,0,9-9.22,9.33,9.33,0,0,0-8.93-9.18Z"/><path class="cls-2" d="M21.84,16.9a.72.72,0,0,0,.38.07h2.52a1,1,0,0,0,1-1V13.41a1,1,0,0,0-1-1H22.22a1,1,0,0,0-1,1v2.46l-4.31,4.21H15a.77.77,0,0,0-.38.07l-3-2.81V15.71a.71.71,0,0,0-.74-.75H9.1a.71.71,0,0,0-.75.75v1.78a.71.71,0,0,0,.75.74h1.7l3.35,3.11v1.71a.9.9,0,0,0,.89.89H17.1a.9.9,0,0,0,.89-.89V21a.26.26,0,0,0-.07-.21l3.92-3.86Z"/></svg>