<svg t="1653042204438" class="icon" viewBox="0 0 1024 1024" version="1.1" xmlns="http://www.w3.org/2000/svg" p-id="2495" width="128" height="128"><path d="M11.117548 1024h1001.749545a11.190689 11.190689 0 0 0 11.117547-11.117548v-77.895974a11.190689 11.190689 0 0 0-11.117547-11.190689H11.117548a11.190689 11.190689 0 0 0-11.117548 11.190689v77.895974c0 6.143908 4.97364 11.117548 11.117548 11.117548z m923.780429-230.981678h77.969116A11.190689 11.190689 0 0 0 1023.98464 781.900774V704.0048a11.190689 11.190689 0 0 0-11.117547-11.117548h-77.895975a11.190689 11.190689 0 0 0-11.190689 11.117548v77.895974c0 6.143908 5.046781 11.117548 11.190689 11.117548z m0-692.798751h77.969116A11.190689 11.190689 0 0 0 1023.98464 89.028882V11.132907A11.190689 11.190689 0 0 0 1012.867093 0.01536h-77.895975a11.190689 11.190689 0 0 0-11.190689 11.117547v77.895975c0 6.143908 5.046781 11.190689 11.190689 11.190689z m0 461.890214h77.969116A11.190689 11.190689 0 0 0 1023.98464 550.992238V473.023122a11.190689 11.190689 0 0 0-11.117547-11.117548h-77.895975a11.190689 11.190689 0 0 0-11.190689 11.117548v77.969116c0 6.070766 5.046781 11.117548 11.190689 11.117547z m0-230.981678h77.969116A11.190689 11.190689 0 0 0 1023.98464 320.01056V242.114585a11.190689 11.190689 0 0 0-11.117547-11.117547h-77.895975a11.190689 11.190689 0 0 0-11.190689 11.117547v77.895975c0 6.143908 5.046781 11.117548 11.190689 11.117547zM704.062582 562.109785h77.895974a11.190689 11.190689 0 0 0 11.117548-11.117547V473.023122a11.190689 11.190689 0 0 0-11.117548-11.117548H703.98944a11.190689 11.190689 0 0 0-11.117547 11.117548v77.969116c0 6.070766 4.97364 11.117548 11.117547 11.117547z m0-461.890214h77.895974a11.190689 11.190689 0 0 0 11.117548-11.190689V11.132907A11.190689 11.190689 0 0 0 781.885415 0.01536H703.98944a11.190689 11.190689 0 0 0-11.117547 11.117547v77.895975c0 6.143908 4.97364 11.190689 11.117547 11.190689z m-461.890215 0h77.895975a11.190689 11.190689 0 0 0 11.117547-11.190689V11.132907A11.190689 11.190689 0 0 0 319.9952 0.01536H242.099226a11.190689 11.190689 0 0 0-11.117548 11.117547v77.895975c0 6.143908 4.97364 11.190689 11.117548 11.190689z m0 461.890214h77.895975a11.190689 11.190689 0 0 0 11.117547-11.117547V473.023122a11.190689 11.190689 0 0 0-11.117547-11.117548H242.099226a11.190689 11.190689 0 0 0-11.117548 11.117548v77.969116c0 6.070766 4.97364 11.117548 11.117548 11.117547z m-230.981678 0h77.895975a11.190689 11.190689 0 0 0 11.190689-11.117547V473.023122a11.190689 11.190689 0 0 0-11.190689-11.117548H11.117548A11.190689 11.190689 0 0 0 0 473.023122v77.969116c0 6.070766 4.97364 11.117548 11.117548 11.117547z m461.890215 0h77.969116a11.190689 11.190689 0 0 0 11.117547-11.117547V473.023122a11.190689 11.190689 0 0 0-11.117547-11.117548H473.007762a11.190689 11.190689 0 0 0-11.117547 11.117548v77.969116c0 6.070766 5.046781 11.117548 11.117547 11.117547zM11.117548 100.219571h77.895974a11.190689 11.190689 0 0 0 11.190689-11.190689V11.132907A11.190689 11.190689 0 0 0 89.013522 0.01536H11.117548A11.190689 11.190689 0 0 0 0 11.132907v77.895975c0 6.143908 4.97364 11.190689 11.117548 11.190689z m461.890214 0h77.969116a11.190689 11.190689 0 0 0 11.117548-11.190689V11.132907A11.190689 11.190689 0 0 0 550.976878 0.01536H473.007762a11.190689 11.190689 0 0 0-11.117547 11.117547v77.895975c0 6.143908 5.046781 11.190689 11.117547 11.190689zM11.117548 793.018322h77.895974a11.190689 11.190689 0 0 0 11.190689-11.117548V704.0048a11.190689 11.190689 0 0 0-11.190689-11.117548H11.117548A11.190689 11.190689 0 0 0 0 704.0048v77.895974c0 6.143908 4.97364 11.117548 11.117548 11.117548z m461.890214 0h77.969116a11.190689 11.190689 0 0 0 11.117548-11.117548V704.0048a11.190689 11.190689 0 0 0-11.117548-11.117548H473.007762a11.190689 11.190689 0 0 0-11.117547 11.117548v77.895974c0 6.143908 5.046781 11.117548 11.117547 11.117548zM11.117548 331.128107h77.895974a11.190689 11.190689 0 0 0 11.190689-11.117547V242.114585a11.190689 11.190689 0 0 0-11.190689-11.117547H11.117548A11.190689 11.190689 0 0 0 0 242.114585v77.895975c0 6.143908 4.97364 11.117548 11.117548 11.117547z m461.890214 0h77.969116a11.190689 11.190689 0 0 0 11.117548-11.117547V242.114585a11.190689 11.190689 0 0 0-11.117548-11.117547H473.007762a11.190689 11.190689 0 0 0-11.117547 11.117547v77.895975c0 6.143908 5.046781 11.117548 11.117547 11.117547z" fill="#DEE1E7" p-id="2496"></path></svg>