<svg t="1653042239810" class="icon" viewBox="0 0 1024 1024" version="1.1" xmlns="http://www.w3.org/2000/svg" p-id="2645" width="128" height="128"><path d="M0 11.117714v1001.764572c0 6.144 4.973714 11.117714 11.117714 11.117714h77.897143a11.190857 11.190857 0 0 0 11.190857-11.117714V11.117714A11.190857 11.190857 0 0 0 89.014857 0H11.117714A11.190857 11.190857 0 0 0 0 11.117714z m230.985143 923.794286v77.970286c0 6.144 4.973714 11.117714 11.117714 11.117714h77.897143a11.190857 11.190857 0 0 0 11.117714-11.117714v-77.897143a11.190857 11.190857 0 0 0-11.117714-11.190857H242.102857a11.190857 11.190857 0 0 0-11.117714 11.190857z m692.809143 0v77.970286c0 6.144 5.046857 11.117714 11.190857 11.117714h77.897143a11.190857 11.190857 0 0 0 11.117714-11.117714v-77.897143a11.190857 11.190857 0 0 0-11.117714-11.190857h-77.897143a11.190857 11.190857 0 0 0-11.190857 11.190857z m-461.897143 0v77.970286c0 6.144 5.046857 11.117714 11.117714 11.117714h77.970286a11.190857 11.190857 0 0 0 11.117714-11.117714v-77.897143a11.190857 11.190857 0 0 0-11.117714-11.190857H473.014857a11.190857 11.190857 0 0 0-11.117714 11.190857z m230.985143 0v77.970286c0 6.144 4.973714 11.117714 11.117714 11.117714h77.897143a11.190857 11.190857 0 0 0 11.117714-11.117714v-77.897143a11.190857 11.190857 0 0 0-11.117714-11.190857H704a11.190857 11.190857 0 0 0-11.117714 11.190857zM461.897143 704.073143v77.897143c0 6.144 5.046857 11.117714 11.117714 11.117714h77.970286a11.190857 11.190857 0 0 0 11.117714-11.117714V704a11.190857 11.190857 0 0 0-11.117714-11.117714H473.014857a11.190857 11.190857 0 0 0-11.117714 11.117714z m461.897143 0v77.897143c0 6.144 5.046857 11.117714 11.190857 11.117714h77.897143A11.190857 11.190857 0 0 0 1024 781.897143V704a11.190857 11.190857 0 0 0-11.117714-11.117714h-77.897143a11.190857 11.190857 0 0 0-11.190857 11.117714z m0-461.897143v77.897143c0 6.144 5.046857 11.117714 11.190857 11.117714h77.897143A11.190857 11.190857 0 0 0 1024 320V242.102857a11.190857 11.190857 0 0 0-11.117714-11.117714h-77.897143a11.190857 11.190857 0 0 0-11.190857 11.117714z m-461.897143 0v77.897143c0 6.144 5.046857 11.117714 11.117714 11.117714h77.970286a11.190857 11.190857 0 0 0 11.117714-11.117714V242.102857a11.190857 11.190857 0 0 0-11.117714-11.117714H473.014857a11.190857 11.190857 0 0 0-11.117714 11.117714z m0-230.985143v77.897143c0 6.144 5.046857 11.190857 11.117714 11.190857h77.970286a11.190857 11.190857 0 0 0 11.117714-11.190857V11.117714A11.190857 11.190857 0 0 0 550.985143 0H473.014857a11.190857 11.190857 0 0 0-11.117714 11.117714z m0 461.897143v77.970286c0 6.070857 5.046857 11.117714 11.117714 11.117714h77.970286a11.190857 11.190857 0 0 0 11.117714-11.117714V473.014857a11.190857 11.190857 0 0 0-11.117714-11.117714H473.014857a11.190857 11.190857 0 0 0-11.117714 11.117714zM923.794286 11.117714v77.897143c0 6.144 5.046857 11.190857 11.190857 11.190857h77.897143A11.190857 11.190857 0 0 0 1024 89.014857V11.117714A11.190857 11.190857 0 0 0 1012.882286 0h-77.897143a11.190857 11.190857 0 0 0-11.190857 11.117714z m0 461.897143v77.970286c0 6.070857 5.046857 11.117714 11.190857 11.117714h77.897143A11.190857 11.190857 0 0 0 1024 550.985143V473.014857a11.190857 11.190857 0 0 0-11.117714-11.117714h-77.897143a11.190857 11.190857 0 0 0-11.190857 11.117714zM230.985143 11.117714v77.897143c0 6.144 4.973714 11.190857 11.117714 11.190857h77.897143a11.190857 11.190857 0 0 0 11.117714-11.190857V11.117714A11.190857 11.190857 0 0 0 320 0H242.102857a11.190857 11.190857 0 0 0-11.117714 11.117714z m0 461.897143v77.970286c0 6.070857 4.973714 11.117714 11.117714 11.117714h77.897143a11.190857 11.190857 0 0 0 11.117714-11.117714V473.014857a11.190857 11.190857 0 0 0-11.117714-11.117714H242.102857a11.190857 11.190857 0 0 0-11.117714 11.117714zM692.882286 11.117714v77.897143c0 6.144 4.973714 11.190857 11.117714 11.190857h77.897143a11.190857 11.190857 0 0 0 11.117714-11.190857V11.117714A11.190857 11.190857 0 0 0 781.897143 0H704a11.190857 11.190857 0 0 0-11.117714 11.117714z m0 461.897143v77.970286c0 6.070857 4.973714 11.117714 11.117714 11.117714h77.897143a11.190857 11.190857 0 0 0 11.117714-11.117714V473.014857a11.190857 11.190857 0 0 0-11.117714-11.117714H704a11.190857 11.190857 0 0 0-11.117714 11.117714z" fill="#DEE1E7" p-id="2646"></path></svg>