<?xml version="1.0" encoding="UTF-8"?>
<svg width="14px" height="14px" viewBox="0 0 14 14" version="1.1" xmlns="http://www.w3.org/2000/svg" xmlns:xlink="http://www.w3.org/1999/xlink">
    <title>编组 42</title>
    <g id="页面-1" stroke="none" stroke-width="1" fill="none" fill-rule="evenodd">
        <g id="配置/图表样式配置/补充系列设置" transform="translate(-1398.000000, -1089.000000)" fill="#DEE1E7" fill-rule="nonzero">
            <g id="编组-41" transform="translate(1398.000000, 1089.000000)">
                <g id="编组-42" transform="translate(-0.000000, 0.000000)">
                    <g id="编组-40" transform="translate(9.493026, 0.000000)">
                        <path d="M1.19977965,12.6480464 L0.134562257,12.6480464 C0.0508666053,12.6480464 -0.0176116556,12.7147635 -0.0176116556,12.7963067 L-0.0176116556,13.8341281 C-0.0176116556,13.9156712 0.0508666053,13.9823883 0.134562257,13.9823883 L1.19977965,13.9823883 C1.2834753,13.9823883 1.35195356,13.9156712 1.35195356,13.8341281 L1.35195356,12.7963067 C1.35195356,12.7147635 1.2834753,12.6480464 1.19977965,12.6480464 Z" id="路径" transform="translate(0.667171, 13.315217) scale(1, -1) rotate(90.000000) translate(-0.667171, -13.315217) "></path>
                        <path d="M1.19977965,0.0176116556 L0.134562257,0.0176116556 C0.0508666053,0.0176116556 -0.0176116556,0.0843287509 -0.0176116556,0.165871867 L-0.0176116556,1.20369335 C-0.0176116556,1.28523647 0.0508666053,1.35195356 0.134562257,1.35195356 L1.19977965,1.35195356 C1.2834753,1.35195356 1.35195356,1.28523647 1.35195356,1.20369335 L1.35195356,0.165871867 C1.35195356,0.0843287509 1.2834753,0.0176116556 1.19977965,0.0176116556 Z" id="路径" transform="translate(0.667171, 0.684783) scale(1, -1) rotate(90.000000) translate(-0.667171, -0.684783) "></path>
                        <path d="M1.19977965,6.33282905 L0.134562257,6.33282905 C0.0508666053,6.33282905 -0.0176116556,6.39954614 -0.0176116556,6.48108926 L-0.0176116556,7.51891074 C-0.0176116556,7.60045386 0.0508666053,7.66717095 0.134562257,7.66717095 L1.19977965,7.66717095 C1.2834753,7.66717095 1.35195356,7.60045386 1.35195356,7.51891074 L1.35195356,6.48108926 C1.35195356,6.39954614 1.2834753,6.33282905 1.19977965,6.33282905 Z" id="路径" transform="translate(0.667171, 7.000000) scale(1, -1) rotate(90.000000) translate(-0.667171, -7.000000) "></path>
                    </g>
                    <g id="编组-37">
                        <path d="M1.19977965,12.6480464 L0.134562257,12.6480464 C0.0508666053,12.6480464 -0.0176116556,12.7147635 -0.0176116556,12.7963067 L-0.0176116556,13.8341281 C-0.0176116556,13.9156712 0.0508666053,13.9823883 0.134562257,13.9823883 L1.19977965,13.9823883 C1.2834753,13.9823883 1.35195356,13.9156712 1.35195356,13.8341281 L1.35195356,12.7963067 C1.35195356,12.7147635 1.2834753,12.6480464 1.19977965,12.6480464 Z" id="路径" transform="translate(0.667171, 13.315217) scale(1, -1) rotate(90.000000) translate(-0.667171, -13.315217) "></path>
                        <path d="M1.19977965,9.49043774 L0.134562257,9.49043774 C0.0508666053,9.49043774 -0.0176116556,9.55715484 -0.0176116556,9.63869795 L-0.0176116556,10.6765194 C-0.0176116556,10.7580626 0.0508666053,10.8247796 0.134562257,10.8247796 L1.19977965,10.8247796 C1.2834753,10.8247796 1.35195356,10.7580626 1.35195356,10.6765194 L1.35195356,9.63869795 C1.35195356,9.55715484 1.2834753,9.49043774 1.19977965,9.49043774 Z" id="路径" transform="translate(0.667171, 10.157609) scale(1, -1) rotate(90.000000) translate(-0.667171, -10.157609) "></path>
                        <path d="M1.19977965,3.17522035 L0.134562257,3.17522035 C0.0508666053,3.17522035 -0.0176116556,3.24193745 -0.0176116556,3.32348056 L-0.0176116556,4.36130205 C-0.0176116556,4.44284516 0.0508666053,4.50956226 0.134562257,4.50956226 L1.19977965,4.50956226 C1.2834753,4.50956226 1.35195356,4.44284516 1.35195356,4.36130205 L1.35195356,3.32348056 C1.35195356,3.24193745 1.2834753,3.17522035 1.19977965,3.17522035 Z" id="路径" transform="translate(0.667171, 3.842391) scale(1, -1) rotate(90.000000) translate(-0.667171, -3.842391) "></path>
                        <path d="M1.19977965,0.0176116556 L0.134562257,0.0176116556 C0.0508666053,0.0176116556 -0.0176116556,0.0843287509 -0.0176116556,0.165871867 L-0.0176116556,1.20369335 C-0.0176116556,1.28523647 0.0508666053,1.35195356 0.134562257,1.35195356 L1.19977965,1.35195356 C1.2834753,1.35195356 1.35195356,1.28523647 1.35195356,1.20369335 L1.35195356,0.165871867 C1.35195356,0.0843287509 1.2834753,0.0176116556 1.19977965,0.0176116556 Z" id="路径" transform="translate(0.667171, 0.684783) scale(1, -1) rotate(90.000000) translate(-0.667171, -0.684783) "></path>
                        <path d="M1.19977965,6.33282905 L0.134562257,6.33282905 C0.0508666053,6.33282905 -0.0176116556,6.39954614 -0.0176116556,6.48108926 L-0.0176116556,7.51891074 C-0.0176116556,7.60045386 0.0508666053,7.66717095 0.134562257,7.66717095 L1.19977965,7.66717095 C1.2834753,7.66717095 1.35195356,7.60045386 1.35195356,7.51891074 L1.35195356,6.48108926 C1.35195356,6.39954614 1.2834753,6.33282905 1.19977965,6.33282905 Z" id="路径" transform="translate(0.667171, 7.000000) scale(1, -1) rotate(90.000000) translate(-0.667171, -7.000000) "></path>
                    </g>
                    <g id="编组-37备份" transform="translate(12.657368, 0.000000)">
                        <path d="M1.19977965,12.6480464 L0.134562257,12.6480464 C0.0508666053,12.6480464 -0.0176116556,12.7147635 -0.0176116556,12.7963067 L-0.0176116556,13.8341281 C-0.0176116556,13.9156712 0.0508666053,13.9823883 0.134562257,13.9823883 L1.19977965,13.9823883 C1.2834753,13.9823883 1.35195356,13.9156712 1.35195356,13.8341281 L1.35195356,12.7963067 C1.35195356,12.7147635 1.2834753,12.6480464 1.19977965,12.6480464 Z" id="路径" transform="translate(0.667171, 13.315217) scale(1, -1) rotate(90.000000) translate(-0.667171, -13.315217) "></path>
                        <path d="M1.19977965,9.49043774 L0.134562257,9.49043774 C0.0508666053,9.49043774 -0.0176116556,9.55715484 -0.0176116556,9.63869795 L-0.0176116556,10.6765194 C-0.0176116556,10.7580626 0.0508666053,10.8247796 0.134562257,10.8247796 L1.19977965,10.8247796 C1.2834753,10.8247796 1.35195356,10.7580626 1.35195356,10.6765194 L1.35195356,9.63869795 C1.35195356,9.55715484 1.2834753,9.49043774 1.19977965,9.49043774 Z" id="路径" transform="translate(0.667171, 10.157609) scale(1, -1) rotate(90.000000) translate(-0.667171, -10.157609) "></path>
                        <path d="M1.19977965,3.17522035 L0.134562257,3.17522035 C0.0508666053,3.17522035 -0.0176116556,3.24193745 -0.0176116556,3.32348056 L-0.0176116556,4.36130205 C-0.0176116556,4.44284516 0.0508666053,4.50956226 0.134562257,4.50956226 L1.19977965,4.50956226 C1.2834753,4.50956226 1.35195356,4.44284516 1.35195356,4.36130205 L1.35195356,3.32348056 C1.35195356,3.24193745 1.2834753,3.17522035 1.19977965,3.17522035 Z" id="路径" transform="translate(0.667171, 3.842391) scale(1, -1) rotate(90.000000) translate(-0.667171, -3.842391) "></path>
                        <path d="M1.19977965,0.0176116556 L0.134562257,0.0176116556 C0.0508666053,0.0176116556 -0.0176116556,0.0843287509 -0.0176116556,0.165871867 L-0.0176116556,1.20369335 C-0.0176116556,1.28523647 0.0508666053,1.35195356 0.134562257,1.35195356 L1.19977965,1.35195356 C1.2834753,1.35195356 1.35195356,1.28523647 1.35195356,1.20369335 L1.35195356,0.165871867 C1.35195356,0.0843287509 1.2834753,0.0176116556 1.19977965,0.0176116556 Z" id="路径" transform="translate(0.667171, 0.684783) scale(1, -1) rotate(90.000000) translate(-0.667171, -0.684783) "></path>
                        <path d="M1.19977965,6.33282905 L0.134562257,6.33282905 C0.0508666053,6.33282905 -0.0176116556,6.39954614 -0.0176116556,6.48108926 L-0.0176116556,7.51891074 C-0.0176116556,7.60045386 0.0508666053,7.66717095 0.134562257,7.66717095 L1.19977965,7.66717095 C1.2834753,7.66717095 1.35195356,7.60045386 1.35195356,7.51891074 L1.35195356,6.48108926 C1.35195356,6.39954614 1.2834753,6.33282905 1.19977965,6.33282905 Z" id="路径" transform="translate(0.667171, 7.000000) scale(1, -1) rotate(90.000000) translate(-0.667171, -7.000000) "></path>
                    </g>
                    <g id="编组-39" transform="translate(6.328684, 0.000000)">
                        <path d="M1.19977965,12.6480464 L0.134562257,12.6480464 C0.0508666053,12.6480464 -0.0176116556,12.7147635 -0.0176116556,12.7963067 L-0.0176116556,13.8341281 C-0.0176116556,13.9156712 0.0508666053,13.9823883 0.134562257,13.9823883 L1.19977965,13.9823883 C1.2834753,13.9823883 1.35195356,13.9156712 1.35195356,13.8341281 L1.35195356,12.7963067 C1.35195356,12.7147635 1.2834753,12.6480464 1.19977965,12.6480464 Z" id="路径" transform="translate(0.667171, 13.315217) scale(1, -1) rotate(90.000000) translate(-0.667171, -13.315217) "></path>
                        <path d="M1.19977965,9.49043774 L0.134562257,9.49043774 C0.0508666053,9.49043774 -0.0176116556,9.55715484 -0.0176116556,9.63869795 L-0.0176116556,10.6765194 C-0.0176116556,10.7580626 0.0508666053,10.8247796 0.134562257,10.8247796 L1.19977965,10.8247796 C1.2834753,10.8247796 1.35195356,10.7580626 1.35195356,10.6765194 L1.35195356,9.63869795 C1.35195356,9.55715484 1.2834753,9.49043774 1.19977965,9.49043774 Z" id="路径" transform="translate(0.667171, 10.157609) scale(1, -1) rotate(90.000000) translate(-0.667171, -10.157609) "></path>
                        <path d="M1.19977965,3.17522035 L0.134562257,3.17522035 C0.0508666053,3.17522035 -0.0176116556,3.24193745 -0.0176116556,3.32348056 L-0.0176116556,4.36130205 C-0.0176116556,4.44284516 0.0508666053,4.50956226 0.134562257,4.50956226 L1.19977965,4.50956226 C1.2834753,4.50956226 1.35195356,4.44284516 1.35195356,4.36130205 L1.35195356,3.32348056 C1.35195356,3.24193745 1.2834753,3.17522035 1.19977965,3.17522035 Z" id="路径" transform="translate(0.667171, 3.842391) scale(1, -1) rotate(90.000000) translate(-0.667171, -3.842391) "></path>
                        <path d="M1.19977965,0.0176116556 L0.134562257,0.0176116556 C0.0508666053,0.0176116556 -0.0176116556,0.0843287509 -0.0176116556,0.165871867 L-0.0176116556,1.20369335 C-0.0176116556,1.28523647 0.0508666053,1.35195356 0.134562257,1.35195356 L1.19977965,1.35195356 C1.2834753,1.35195356 1.35195356,1.28523647 1.35195356,1.20369335 L1.35195356,0.165871867 C1.35195356,0.0843287509 1.2834753,0.0176116556 1.19977965,0.0176116556 Z" id="路径" transform="translate(0.667171, 0.684783) scale(1, -1) rotate(90.000000) translate(-0.667171, -0.684783) "></path>
                        <path d="M1.19977965,6.33282905 L0.134562257,6.33282905 C0.0508666053,6.33282905 -0.0176116556,6.39954614 -0.0176116556,6.48108926 L-0.0176116556,7.51891074 C-0.0176116556,7.60045386 0.0508666053,7.66717095 0.134562257,7.66717095 L1.19977965,7.66717095 C1.2834753,7.66717095 1.35195356,7.60045386 1.35195356,7.51891074 L1.35195356,6.48108926 C1.35195356,6.39954614 1.2834753,6.33282905 1.19977965,6.33282905 Z" id="路径" transform="translate(0.667171, 7.000000) scale(1, -1) rotate(90.000000) translate(-0.667171, -7.000000) "></path>
                    </g>
                    <g id="编组-38" transform="translate(3.164342, 0.000000)">
                        <path d="M1.19977965,12.6480464 L0.134562257,12.6480464 C0.0508666053,12.6480464 -0.0176116556,12.7147635 -0.0176116556,12.7963067 L-0.0176116556,13.8341281 C-0.0176116556,13.9156712 0.0508666053,13.9823883 0.134562257,13.9823883 L1.19977965,13.9823883 C1.2834753,13.9823883 1.35195356,13.9156712 1.35195356,13.8341281 L1.35195356,12.7963067 C1.35195356,12.7147635 1.2834753,12.6480464 1.19977965,12.6480464 Z" id="路径" transform="translate(0.667171, 13.315217) scale(1, -1) rotate(90.000000) translate(-0.667171, -13.315217) "></path>
                        <path d="M1.19977965,0.0176116556 L0.134562257,0.0176116556 C0.0508666053,0.0176116556 -0.0176116556,0.0843287509 -0.0176116556,0.165871867 L-0.0176116556,1.20369335 C-0.0176116556,1.28523647 0.0508666053,1.35195356 0.134562257,1.35195356 L1.19977965,1.35195356 C1.2834753,1.35195356 1.35195356,1.28523647 1.35195356,1.20369335 L1.35195356,0.165871867 C1.35195356,0.0843287509 1.2834753,0.0176116556 1.19977965,0.0176116556 Z" id="路径" transform="translate(0.667171, 0.684783) scale(1, -1) rotate(90.000000) translate(-0.667171, -0.684783) "></path>
                        <path d="M1.19977965,6.33282905 L0.134562257,6.33282905 C0.0508666053,6.33282905 -0.0176116556,6.39954614 -0.0176116556,6.48108926 L-0.0176116556,7.51891074 C-0.0176116556,7.60045386 0.0508666053,7.66717095 0.134562257,7.66717095 L1.19977965,7.66717095 C1.2834753,7.66717095 1.35195356,7.60045386 1.35195356,7.51891074 L1.35195356,6.48108926 C1.35195356,6.39954614 1.2834753,6.33282905 1.19977965,6.33282905 Z" id="路径" transform="translate(0.667171, 7.000000) scale(1, -1) rotate(90.000000) translate(-0.667171, -7.000000) "></path>
                    </g>
                </g>
            </g>
        </g>
    </g>
</svg>