<svg t="1653042071791" class="icon" viewBox="0 0 1024 1024" version="1.1" xmlns="http://www.w3.org/2000/svg" p-id="2195" width="128" height="128"><path d="M983.04 0H40.96A40.96 40.96 0 0 0 0 40.96v942.08c0 22.674286 18.285714 40.96 40.96 40.96h942.08c22.674286 0 40.96-18.285714 40.96-40.96V40.96a40.96 40.96 0 0 0-40.96-40.96z m-51.2 931.84H92.16V92.16h839.68v839.68zM476.16 325.12h71.68a10.24 10.24 0 0 0 10.24-10.24v-71.68a10.24 10.24 0 0 0-10.24-10.24h-71.68a10.24 10.24 0 0 0-10.24 10.24v71.68c0 5.632 4.608 10.24 10.24 10.24zM243.2 558.08h71.68a10.24 10.24 0 0 0 10.24-10.24v-71.68a10.24 10.24 0 0 0-10.24-10.24h-71.68a10.24 10.24 0 0 0-10.24 10.24v71.68c0 5.632 4.608 10.24 10.24 10.24z m465.92 0h71.68a10.24 10.24 0 0 0 10.24-10.24v-71.68a10.24 10.24 0 0 0-10.24-10.24h-71.68a10.24 10.24 0 0 0-10.24 10.24v71.68c0 5.632 4.608 10.24 10.24 10.24z m-232.96 0h71.68a10.24 10.24 0 0 0 10.24-10.24v-71.68a10.24 10.24 0 0 0-10.24-10.24h-71.68a10.24 10.24 0 0 0-10.24 10.24v71.68c0 5.632 4.608 10.24 10.24 10.24z m0 232.96h71.68a10.24 10.24 0 0 0 10.24-10.24v-71.68a10.24 10.24 0 0 0-10.24-10.24h-71.68a10.24 10.24 0 0 0-10.24 10.24v71.68c0 5.632 4.608 10.24 10.24 10.24z" fill="#DEE1E7" p-id="2196"></path></svg>