<svg t="1653042271465" class="icon" viewBox="0 0 1024 1024" version="1.1" xmlns="http://www.w3.org/2000/svg" p-id="2795" width="128" height="128"><path d="M1024 11.117714v1001.764572a11.190857 11.190857 0 0 1-11.117714 11.117714h-77.897143a11.190857 11.190857 0 0 1-11.190857-11.117714V11.117714c0-6.144 5.046857-11.117714 11.190857-11.117714h77.897143c6.144 0 11.117714 4.973714 11.117714 11.117714z m-230.985143 923.794286v77.970286a11.190857 11.190857 0 0 1-11.117714 11.117714H704a11.190857 11.190857 0 0 1-11.117714-11.117714v-77.897143c0-6.144 4.973714-11.190857 11.117714-11.190857h77.897143c6.144 0 11.117714 5.046857 11.117714 11.190857z m-692.809143 0v77.970286a11.190857 11.190857 0 0 1-11.190857 11.117714H11.117714A11.190857 11.190857 0 0 1 0 1012.882286v-77.897143c0-6.144 4.973714-11.190857 11.117714-11.190857h77.897143c6.144 0 11.190857 5.046857 11.190857 11.190857z m461.897143 0v77.970286a11.190857 11.190857 0 0 1-11.117714 11.117714H473.014857a11.190857 11.190857 0 0 1-11.117714-11.117714v-77.897143c0-6.144 5.046857-11.190857 11.117714-11.190857h77.970286c6.070857 0 11.117714 5.046857 11.117714 11.190857z m-230.985143 0v77.970286a11.190857 11.190857 0 0 1-11.117714 11.117714H242.102857a11.190857 11.190857 0 0 1-11.117714-11.117714v-77.897143c0-6.144 4.973714-11.190857 11.117714-11.190857h77.897143c6.144 0 11.117714 5.046857 11.117714 11.190857z m230.985143-230.912v77.897143a11.190857 11.190857 0 0 1-11.117714 11.117714H473.014857a11.190857 11.190857 0 0 1-11.117714-11.117714V704c0-6.144 5.046857-11.117714 11.117714-11.117714h77.970286c6.070857 0 11.117714 4.973714 11.117714 11.117714z m-461.897143 0v77.897143a11.190857 11.190857 0 0 1-11.190857 11.117714H11.117714A11.190857 11.190857 0 0 1 0 781.897143V704c0-6.144 4.973714-11.117714 11.117714-11.117714h77.897143c6.144 0 11.190857 4.973714 11.190857 11.117714z m0-461.897143v77.897143a11.190857 11.190857 0 0 1-11.190857 11.117714H11.117714A11.190857 11.190857 0 0 1 0 320V242.102857c0-6.144 4.973714-11.117714 11.117714-11.117714h77.897143c6.144 0 11.190857 4.973714 11.190857 11.117714z m461.897143 0v77.897143a11.190857 11.190857 0 0 1-11.117714 11.117714H473.014857a11.190857 11.190857 0 0 1-11.117714-11.117714V242.102857c0-6.144 5.046857-11.117714 11.117714-11.117714h77.970286c6.070857 0 11.117714 4.973714 11.117714 11.117714z m0-230.985143v77.897143a11.190857 11.190857 0 0 1-11.117714 11.190857H473.014857a11.190857 11.190857 0 0 1-11.117714-11.190857V11.117714c0-6.144 5.046857-11.117714 11.117714-11.117714h77.970286c6.070857 0 11.117714 4.973714 11.117714 11.117714z m0 461.897143v77.970286a11.190857 11.190857 0 0 1-11.117714 11.117714H473.014857a11.190857 11.190857 0 0 1-11.117714-11.117714V473.014857c0-6.070857 5.046857-11.117714 11.117714-11.117714h77.970286c6.070857 0 11.117714 5.046857 11.117714 11.117714zM100.205714 11.117714v77.897143a11.190857 11.190857 0 0 1-11.190857 11.190857H11.117714A11.190857 11.190857 0 0 1 0 89.014857V11.117714C0 4.973714 4.973714 0 11.117714 0h77.897143c6.144 0 11.190857 4.973714 11.190857 11.117714z m0 461.897143v77.970286a11.190857 11.190857 0 0 1-11.190857 11.117714H11.117714A11.190857 11.190857 0 0 1 0 550.985143V473.014857c0-6.070857 4.973714-11.117714 11.117714-11.117714h77.897143c6.144 0 11.190857 5.046857 11.190857 11.117714zM793.014857 11.117714v77.897143a11.190857 11.190857 0 0 1-11.117714 11.190857H704a11.190857 11.190857 0 0 1-11.117714-11.190857V11.117714c0-6.144 4.973714-11.117714 11.117714-11.117714h77.897143c6.144 0 11.117714 4.973714 11.117714 11.117714z m0 461.897143v77.970286a11.190857 11.190857 0 0 1-11.117714 11.117714H704a11.190857 11.190857 0 0 1-11.117714-11.117714V473.014857c0-6.070857 4.973714-11.117714 11.117714-11.117714h77.897143c6.144 0 11.117714 5.046857 11.117714 11.117714zM331.117714 11.117714v77.897143a11.190857 11.190857 0 0 1-11.117714 11.190857H242.102857a11.190857 11.190857 0 0 1-11.117714-11.190857V11.117714c0-6.144 4.973714-11.117714 11.117714-11.117714h77.897143c6.144 0 11.117714 4.973714 11.117714 11.117714z m0 461.897143v77.970286a11.190857 11.190857 0 0 1-11.117714 11.117714H242.102857a11.190857 11.190857 0 0 1-11.117714-11.117714V473.014857c0-6.070857 4.973714-11.117714 11.117714-11.117714h77.897143c6.144 0 11.117714 5.046857 11.117714 11.117714z" fill="#DEE1E7" p-id="2796"></path></svg>