<svg t="1653042179810" class="icon" viewBox="0 0 1024 1024" version="1.1" xmlns="http://www.w3.org/2000/svg" p-id="2345" width="128" height="128"><path d="M1012.882286 0H11.117714A11.190857 11.190857 0 0 0 0 11.117714v77.897143c0 6.144 4.973714 11.190857 11.117714 11.190857h1001.764572A11.190857 11.190857 0 0 0 1024 89.014857V11.117714A11.190857 11.190857 0 0 0 1012.882286 0zM89.088 230.985143H11.044571A11.190857 11.190857 0 0 0 0 242.102857v77.897143c0 6.144 4.973714 11.117714 11.117714 11.117714h77.897143a11.190857 11.190857 0 0 0 11.190857-11.117714V242.102857a11.190857 11.190857 0 0 0-11.190857-11.117714z m0 692.809143H11.044571a11.190857 11.190857 0 0 0-11.117714 11.190857v77.897143c0 6.144 4.973714 11.117714 11.117714 11.117714h77.897143a11.190857 11.190857 0 0 0 11.190857-11.117714v-77.897143a11.190857 11.190857 0 0 0-11.190857-11.190857z m0-461.897143H11.044571A11.190857 11.190857 0 0 0 0 473.014857v77.970286c0 6.070857 4.973714 11.117714 11.117714 11.117714h77.897143a11.190857 11.190857 0 0 0 11.190857-11.117714V473.014857a11.190857 11.190857 0 0 0-11.190857-11.117714z m0 230.985143H11.044571A11.190857 11.190857 0 0 0 0 704v77.897143c0 6.144 4.973714 11.117714 11.117714 11.117714h77.897143a11.190857 11.190857 0 0 0 11.190857-11.117714V704a11.190857 11.190857 0 0 0-11.190857-11.117714z m230.912-230.985143H242.102857a11.190857 11.190857 0 0 0-11.117714 11.117714v77.970286c0 6.070857 4.973714 11.117714 11.117714 11.117714h77.897143a11.190857 11.190857 0 0 0 11.117714-11.117714V473.014857a11.190857 11.190857 0 0 0-11.117714-11.117714z m0 461.897143H242.102857a11.190857 11.190857 0 0 0-11.117714 11.190857v77.897143c0 6.144 4.973714 11.117714 11.117714 11.117714h77.897143a11.190857 11.190857 0 0 0 11.117714-11.117714v-77.897143a11.190857 11.190857 0 0 0-11.117714-11.190857z m461.897143 0H704a11.190857 11.190857 0 0 0-11.117714 11.190857v77.897143c0 6.144 4.973714 11.117714 11.117714 11.117714h77.897143a11.190857 11.190857 0 0 0 11.117714-11.117714v-77.897143a11.190857 11.190857 0 0 0-11.117714-11.190857z m0-461.897143H704a11.190857 11.190857 0 0 0-11.117714 11.117714v77.970286c0 6.070857 4.973714 11.117714 11.117714 11.117714h77.897143a11.190857 11.190857 0 0 0 11.117714-11.117714V473.014857a11.190857 11.190857 0 0 0-11.117714-11.117714z m230.985143 0h-77.897143a11.190857 11.190857 0 0 0-11.190857 11.117714v77.970286c0 6.070857 5.046857 11.117714 11.190857 11.117714h77.897143A11.190857 11.190857 0 0 0 1024 550.985143V473.014857a11.190857 11.190857 0 0 0-11.117714-11.117714z m-461.897143 0H473.014857a11.190857 11.190857 0 0 0-11.117714 11.117714v77.970286c0 6.070857 5.046857 11.117714 11.117714 11.117714h77.970286a11.190857 11.190857 0 0 0 11.117714-11.117714V473.014857a11.190857 11.190857 0 0 0-11.117714-11.117714z m461.897143 461.897143h-77.897143a11.190857 11.190857 0 0 0-11.190857 11.190857v77.897143c0 6.144 5.046857 11.117714 11.190857 11.117714h77.897143a11.190857 11.190857 0 0 0 11.117714-11.117714v-77.897143a11.190857 11.190857 0 0 0-11.117714-11.190857z m-461.897143 0H473.014857a11.190857 11.190857 0 0 0-11.117714 11.190857v77.897143c0 6.144 5.046857 11.117714 11.117714 11.117714h77.970286a11.190857 11.190857 0 0 0 11.117714-11.117714v-77.897143a11.190857 11.190857 0 0 0-11.117714-11.190857z m461.897143-692.809143h-77.897143a11.190857 11.190857 0 0 0-11.190857 11.117714v77.897143c0 6.144 5.046857 11.117714 11.190857 11.117714h77.897143A11.190857 11.190857 0 0 0 1024 320V242.102857a11.190857 11.190857 0 0 0-11.117714-11.117714z m-461.897143 0H473.014857a11.190857 11.190857 0 0 0-11.117714 11.117714v77.897143c0 6.144 5.046857 11.117714 11.117714 11.117714h77.970286a11.190857 11.190857 0 0 0 11.117714-11.117714V242.102857a11.190857 11.190857 0 0 0-11.117714-11.117714z m461.897143 461.897143h-77.897143a11.190857 11.190857 0 0 0-11.190857 11.117714v77.897143c0 6.144 5.046857 11.117714 11.190857 11.117714h77.897143A11.190857 11.190857 0 0 0 1024 781.897143V704a11.190857 11.190857 0 0 0-11.117714-11.117714z m-461.897143 0H473.014857a11.190857 11.190857 0 0 0-11.117714 11.117714v77.897143c0 6.144 5.046857 11.117714 11.117714 11.117714h77.970286a11.190857 11.190857 0 0 0 11.117714-11.117714V704a11.190857 11.190857 0 0 0-11.117714-11.117714z" fill="#DEE1E7" p-id="2346"></path></svg>