<?xml version="1.0" standalone="no"?><!DOCTYPE svg PUBLIC "-//W3C//DTD SVG 1.1//EN" "http://www.w3.org/Graphics/SVG/1.1/DTD/svg11.dtd"><svg t="1651800775043" class="icon" viewBox="0 0 1462 1024" version="1.1" xmlns="http://www.w3.org/2000/svg" p-id="25670" xmlns:xlink="http://www.w3.org/1999/xlink" width="45.6875" height="32"><defs><style type="text/css">@font-face { font-family: feedback-iconfont; src: url("//at.alicdn.com/t/font_1031158_u69w8yhxdu.woff2?t=1630033759944") format("woff2"), url("//at.alicdn.com/t/font_1031158_u69w8yhxdu.woff?t=1630033759944") format("woff"), url("//at.alicdn.com/t/font_1031158_u69w8yhxdu.ttf?t=1630033759944") format("truetype"); }
</style></defs><path d="M0 0h1462.857143v1024H0z" fill="#2C4959" p-id="25671"></path><path d="M190.171429 292.571429h-32.914286V160.914286h29.257143V292.571429z m47.542857-95.085715v14.628572l10.971428-10.971429c3.657143-3.657143 10.971429-3.657143 14.628572-3.657143 10.971429 0 18.285714 3.657143 21.942857 10.971429 7.314286 0 10.971429 10.971429 10.971428 25.6V292.571429h-29.257142V234.057143c0-7.314286 0-10.971429-3.657143-14.628572s-7.314286-3.657143-10.971429-3.657142h-7.314286s-3.657143 7.314286-7.314285 7.314285V292.571429h-29.257143V197.485714h29.257143z m69.485714 47.542857c0-14.628571 3.657143-25.6 10.971429-36.571428s14.628571-14.628571 29.257142-14.628572c3.657143 0 7.314286 0 10.971429 3.657143s7.314286 3.657143 10.971429 7.314286V153.6h29.257142V292.571429h-25.6l-3.657142-10.971429-10.971429 10.971429c-3.657143 0-7.314286 3.657143-10.971429 3.657142-10.971429 0-21.942857-3.657143-29.257142-14.628571s-10.971429-21.942857-10.971429-36.571429z m32.914286 0c0 7.314286 0 14.628571 3.657143 18.285715s7.314286 7.314286 10.971428 7.314285h7.314286s3.657143-3.657143 7.314286-3.657142V226.742857C365.714286 223.085714 365.714286 219.428571 362.057143 219.428571s-3.657143-3.657143-7.314286-3.657142c-7.314286 0-10.971429 3.657143-14.628571 7.314285s0 14.628571 0 21.942857z m117.028571 51.2c-14.628571 0-25.6-3.657143-32.914286-14.628571s-10.971429-18.285714-10.971428-32.914286v-3.657143c0-14.628571 3.657143-25.6 10.971428-36.571428s18.285714-14.628571 32.914286-14.628572 21.942857 3.657143 29.257143 10.971429 10.971429 18.285714 10.971429 32.914286v14.628571h-54.857143c0 3.657143 3.657143 10.971429 7.314285 10.971429s7.314286 3.657143 14.628572 3.657143h14.628571c3.657143 0 7.314286-3.657143 14.628572-3.657143l7.314285 18.285714c-3.657143 3.657143-10.971429 7.314286-18.285714 7.314286-10.971429 3.657143-18.285714 7.314286-25.6 7.314285z m0-80.457142c-3.657143 0-7.314286 0-10.971428 3.657142s-3.657143 7.314286-3.657143 10.971429h25.6v3.657143c0-3.657143 0-7.314286-3.657143-10.971429s-3.657143-7.314286-7.314286-7.314285z m91.428572 7.314285l10.971428-29.257143h32.914286l-29.257143 47.542858 32.914286 51.2h-32.914286l-14.628571-29.257143-10.971429 29.257143h-32.914286l29.257143-47.542858-29.257143-47.542857h32.914286l10.971429 25.6z" fill="#35A480" p-id="25672"></path><path d="M245.028571 405.942857c-14.628571 14.628571-21.942857 29.257143-29.257142 43.885714s-7.314286 29.257143-7.314286 47.542858v14.628571h-29.257143v-18.285714c0-18.285714 3.657143-32.914286 10.971429-47.542857s14.628571-29.257143 29.257142-40.228572H149.942857v-21.942857h95.085714v21.942857zM292.571429 512l-14.628572 29.257143h-18.285714l3.657143-29.257143v-21.942857H292.571429v21.942857z m21.942857-58.514286l7.314285-73.142857h76.8v21.942857H347.428571l-3.657142 25.6c3.657143 0 7.314286-3.657143 10.971428-3.657143h10.971429c10.971429 0 21.942857 3.657143 29.257143 10.971429s10.971429 18.285714 10.971428 32.914286c0 10.971429-3.657143 21.942857-10.971428 32.914285s-18.285714 10.971429-32.914286 10.971429c-10.971429 0-21.942857-3.657143-32.914286-10.971429s-14.628571-14.628571-14.628571-25.6h29.257143c0 3.657143 0 7.314286 3.657142 10.971429s7.314286 3.657143 10.971429 3.657143c7.314286 0 10.971429 0 10.971429-3.657143s3.657143-7.314286 3.657142-14.628571 0-10.971429-3.657142-18.285715-7.314286-7.314286-10.971429-7.314285c-3.657143 0-7.314286 0-10.971429 3.657142s-3.657143 3.657143-3.657142 7.314286l-29.257143-3.657143z m171.885714 58.514286h-29.257143v-102.4h-25.6v-21.942857l54.857143-3.657143V512z m128 0h-91.428571v-18.285714l40.228571-43.885715c3.657143-7.314286 10.971429-10.971429 10.971429-14.628571s3.657143-7.314286 3.657142-10.971429c0-3.657143 0-7.314286-3.657142-10.971428s-3.657143-10.971429-7.314286-10.971429-7.314286 3.657143-10.971429 7.314286-3.657143 7.314286-3.657143 14.628571h-29.257142c0-10.971429 3.657143-21.942857 10.971428-29.257142s18.285714-10.971429 32.914286-10.971429 25.6 3.657143 32.914286 10.971429 10.971429 18.285714 10.971428 29.257142c0 7.314286-3.657143 14.628571-7.314286 21.942858s-10.971429 14.628571-21.942857 29.257142l-14.628571 18.285715h51.2v18.285714z m51.2 0l-14.628571 29.257143h-21.942858l7.314286-29.257143v-21.942857h29.257143v21.942857z m69.485714-131.657143h14.628572c3.657143 0 7.314286 3.657143 14.628571 3.657143l-3.657143 21.942857c-3.657143 0-7.314286-3.657143-10.971428-3.657143h-10.971429c-7.314286 0-14.628571 3.657143-18.285714 7.314286s-7.314286 14.628571-7.314286 21.942857c3.657143-3.657143 7.314286-7.314286 10.971429-7.314286s10.971429-3.657143 14.628571-3.657142c10.971429 0 18.285714 3.657143 25.6 10.971428s10.971429 18.285714 10.971429 32.914286c0 10.971429-3.657143 21.942857-10.971429 32.914286s-18.285714 10.971429-32.914286 10.971428-25.6-3.657143-32.914285-14.628571-14.628571-21.942857-14.628572-36.571429v-25.6c0-18.285714 3.657143-29.257143 14.628572-40.228571s21.942857-10.971429 36.571428-10.971429z m-3.657143 69.485714h-10.971428c-3.657143 0-3.657143 3.657143-7.314286 3.657143v7.314286c0 10.971429 0 18.285714 3.657143 21.942857s7.314286 7.314286 14.628571 7.314286c3.657143 0 7.314286-3.657143 10.971429-7.314286s3.657143-7.314286 3.657143-14.628571 0-10.971429-3.657143-14.628572-7.314286-3.657143-10.971429-3.657143z m62.171429 3.657143l7.314286-73.142857H877.714286v21.942857h-51.2l-3.657143 25.6c3.657143 0 7.314286-3.657143 10.971428-3.657143h10.971429c10.971429 0 21.942857 3.657143 29.257143 10.971429s10.971429 18.285714 10.971428 32.914286c0 10.971429-3.657143 21.942857-10.971428 32.914285s-18.285714 10.971429-32.914286 10.971429c-10.971429 0-21.942857-3.657143-32.914286-10.971429s-14.628571-14.628571-14.628571-25.6h29.257143c0 3.657143 0 7.314286 3.657143 10.971429s7.314286 3.657143 10.971428 3.657143c7.314286 0 10.971429 0 10.971429-3.657143 3.657143-3.657143 3.657143-7.314286 3.657143-14.628571s0-10.971429-3.657143-18.285715-7.314286-7.314286-10.971429-7.314285c-3.657143 0-7.314286 0-10.971428 3.657142s-3.657143 3.657143-3.657143 7.314286l-29.257143-3.657143z m146.285714-18.285714c3.657143 0 10.971429 0 10.971429-3.657143s3.657143-7.314286 3.657143-10.971428c0-3.657143 0-7.314286-3.657143-10.971429s-7.314286-7.314286-10.971429-7.314286c-3.657143 0-7.314286 0-10.971428 3.657143s-3.657143 3.657143-3.657143 7.314286h-29.257143c0-10.971429 3.657143-18.285714 10.971429-25.6s18.285714-10.971429 29.257142-10.971429c14.628571 0 25.6 3.657143 32.914286 10.971429s10.971429 14.628571 10.971429 29.257143c0 7.314286 0 10.971429-3.657143 14.628571s-7.314286 7.314286-14.628572 10.971429c7.314286 3.657143 10.971429 7.314286 14.628572 10.971428s10.971429 14.628571 10.971428 21.942857c0 10.971429-3.657143 21.942857-14.628571 29.257143s-21.942857 10.971429-36.571429 10.971429c-10.971429 0-21.942857-3.657143-32.914285-10.971429s-14.628571-14.628571-14.628572-29.257143h29.257143c0 3.657143 0 7.314286 3.657143 10.971429s7.314286 3.657143 10.971429 3.657143c3.657143 0 10.971429 0 14.628571-3.657143s3.657143-7.314286 3.657143-10.971429c0-7.314286 0-10.971429-3.657143-14.628571s-7.314286-3.657143-14.628571-3.657143h-14.628572v-21.942857h21.942857z" fill="#40FFA7" p-id="25673"></path><path d="M146.285714 768l109.714286-73.142857 109.714286 73.142857 109.714285-146.285714 109.714286 109.714285 109.714286-73.142857 109.714286 109.714286 146.285714-182.857143 146.285714 146.285714 219.428572-109.714285v256H146.285714z" fill="#35A480" p-id="25674"></path><path d="M354.742857 782.628571c7.314286 3.657143 18.285714 3.657143 25.6-3.657142l98.742857-128 95.085715 95.085714c7.314286 7.314286 14.628571 7.314286 21.942857 3.657143l98.742857-65.828572 98.742857 98.742857c7.314286 7.314286 21.942857 7.314286 25.6 0l135.314286-168.228571 131.657143 131.657143c7.314286 7.314286 14.628571 7.314286 21.942857 3.657143l201.142857-109.714286c7.314286-3.657143 10.971429-14.628571 7.314286-25.6-3.657143-7.314286-14.628571-10.971429-25.6-7.314286l-190.171429 102.4-135.314286-135.314285c-7.314286-7.314286-21.942857-7.314286-25.6 0L804.571429 742.4l-95.085715-95.085714c-7.314286-7.314286-14.628571-7.314286-21.942857-3.657143l-98.742857 65.828571-98.742857-98.742857c-7.314286-7.314286-21.942857-7.314286-29.257143 3.657143l-98.742857 131.657143-95.085714-62.171429c-7.314286-3.657143-14.628571-3.657143-21.942858 0l-91.428571 73.142857c-7.314286 7.314286-10.971429 18.285714-3.657143 25.6 7.314286 7.314286 18.285714 10.971429 25.6 3.657143L256 716.8l98.742857 65.828571z" fill="#40FFA7" p-id="25675"></path></svg>