<?xml version="1.0" standalone="no"?><!DOCTYPE svg PUBLIC "-//W3C//DTD SVG 1.1//EN" "http://www.w3.org/Graphics/SVG/1.1/DTD/svg11.dtd"><svg t="1651800751412" class="icon" viewBox="0 0 1251 1024" version="1.1" xmlns="http://www.w3.org/2000/svg" p-id="25520" xmlns:xlink="http://www.w3.org/1999/xlink" width="39.09375" height="32"><defs><style type="text/css">@font-face { font-family: feedback-iconfont; src: url("//at.alicdn.com/t/font_1031158_u69w8yhxdu.woff2?t=1630033759944") format("woff2"), url("//at.alicdn.com/t/font_1031158_u69w8yhxdu.woff?t=1630033759944") format("woff"), url("//at.alicdn.com/t/font_1031158_u69w8yhxdu.ttf?t=1630033759944") format("truetype"); }
</style></defs><path d="M0 0h1251.555556v1024H0z" fill="#31716A" p-id="25521"></path><path d="M112.867556 625.777778l113.777777-56.888889 113.777778 113.777778 56.888889-170.666667 113.777778 113.777778 113.777778-56.888889 56.888888 102.4 113.777778-216.177778 170.666667 170.666667 170.666667-113.777778v341.333333h-1024z" fill="#38B888" p-id="25522"></path><path d="M226.645333 585.955556l102.4 108.088888c11.377778 5.688889 22.755556 5.688889 28.444445-5.688888l51.2-147.911112 91.022222 96.711112c5.688889 5.688889 11.377778 5.688889 17.066667 0l102.4-51.2 51.2 102.4c5.688889 11.377778 22.755556 11.377778 28.444444 0l102.4-210.488889 153.6 159.288889c5.688889 5.688889 11.377778 5.688889 17.066667 0l170.666666-113.777778c5.688889-5.688889 11.377778-11.377778 5.688889-22.755556s-11.377778-11.377778-22.755555-5.688889l-159.288889 108.088889-159.288889-159.288889c-5.688889-5.688889-17.066667-5.688889-22.755556 5.688889l-102.4 199.111111-45.511111-85.333333c0-11.377778-11.377778-11.377778-17.066666-5.688889l-102.4 51.2-108.088889-108.088889c-5.688889-5.688889-22.755556-5.688889-22.755556 5.688889l-51.2 147.911111-96.711111-96.711111c-5.688889-5.688889-11.377778-5.688889-17.066667 0l-113.777777 56.888889c-5.688889 0-11.377778 11.377778-5.688889 17.066667 0 11.377778 11.377778 11.377778 17.066666 5.688889l108.088889-51.2z" fill="#40FFA7" p-id="25523"></path><path d="M113.777778 170.666667h284.444444v227.555555H113.777778z" fill="#40FFA7" opacity=".897" p-id="25524"></path><path d="M483.555556 170.666667h284.444444v227.555555h-284.444444V170.666667zM512 369.777778h227.555556v-170.666667H512v170.666667zM853.333333 170.666667h284.444445v227.555555h-284.444445V170.666667z m28.444445 199.111111h221.866666v-170.666667h-221.866666v170.666667z" fill="#40FFA7" p-id="25525"></path></svg>