<?xml version="1.0" standalone="no"?><!DOCTYPE svg PUBLIC "-//W3C//DTD SVG 1.1//EN" "http://www.w3.org/Graphics/SVG/1.1/DTD/svg11.dtd"><svg t="1651805648324" class="icon" viewBox="0 0 1024 1024" version="1.1" xmlns="http://www.w3.org/2000/svg" p-id="30272" xmlns:xlink="http://www.w3.org/1999/xlink" width="32" height="32"><defs><style type="text/css">@font-face { font-family: feedback-iconfont; src: url("//at.alicdn.com/t/font_1031158_u69w8yhxdu.woff2?t=1630033759944") format("woff2"), url("//at.alicdn.com/t/font_1031158_u69w8yhxdu.woff?t=1630033759944") format("woff"), url("//at.alicdn.com/t/font_1031158_u69w8yhxdu.ttf?t=1630033759944") format("truetype"); }
</style></defs><path d="M179.712 588.288H64c-7.68 0-13.824 5.632-13.824 12.8V942.08c0 7.168 6.144 12.8 13.824 12.8h115.712c7.68 0 13.824-5.632 13.824-12.8v-340.992c0-7.168-6.144-12.8-13.824-12.8z m784.896-26.624h-115.712c-7.68 0-13.824 5.632-13.824 12.8V942.08c0 7.168 6.144 12.8 13.824 12.8h115.712c7.68 0 13.824-5.632 13.824-12.8v-368.128c0-6.656-6.144-12.288-13.824-12.288zM441.344 384.512H325.632c-7.68 0-13.824 5.632-13.824 12.8V942.08c0 7.168 6.144 12.8 13.824 12.8h115.712c7.68 0 13.824-5.632 13.824-12.8V396.8c0-6.656-6.144-12.288-13.824-12.288z m261.632-311.808h-115.712c-7.68 0-13.824 5.632-13.824 12.8V942.08c0 7.168 6.144 12.8 13.824 12.8h115.712c7.68 0 13.824-5.632 13.824-12.8V85.504c0-7.168-6.144-12.8-13.824-12.8z" fill="#40ffa7" p-id="30273" data-spm-anchor-id="a313x.7781069.0.i56" class="selected"></path></svg>