<svg t="1649399853469" class="icon" viewBox="0 0 1024 1024" version="1.1" xmlns="http://www.w3.org/2000/svg" p-id="9899" width="128" height="128"><path d="M128 512l256-256 256 256 256-256v640H128V512z" fill="#4A8BFE" p-id="9900"></path><path d="M896 928H128a32 32 0 0 1-32-32V512a32 32 0 0 1 9.28-22.72l256-256a32 32 0 0 1 45.44 0l233.28 233.6 233.28-233.6a32 32 0 0 1 34.88-6.72A32 32 0 0 1 928 256v640a32 32 0 0 1-32 32zM160 864h704V333.12l-201.28 201.6a32 32 0 0 1-45.44 0L384 301.12l-224 224z" fill="#4A8BFE" p-id="9901"></path></svg>