<?xml version="1.0" encoding="UTF-8"?>
<svg width="1024px" height="1024px" viewBox="0 0 1024 1024" version="1.1" xmlns="http://www.w3.org/2000/svg" xmlns:xlink="http://www.w3.org/1999/xlink">
    <defs>
        <linearGradient x1="50%" y1="0%" x2="50%" y2="100%" id="linearGradient-1">
            <stop stop-color="#E5E5E7" offset="0%"></stop>
            <stop stop-color="#C7C6CA" offset="100%"></stop>
        </linearGradient>
        <linearGradient x1="50%" y1="0%" x2="50%" y2="100%" id="linearGradient-2">
            <stop stop-color="#FEC08B" offset="0%"></stop>
            <stop stop-color="#FA8334" offset="100%"></stop>
        </linearGradient>
        <linearGradient x1="50%" y1="0%" x2="50%" y2="100%" id="linearGradient-3">
            <stop stop-color="#E5E5E7" offset="0%"></stop>
            <stop stop-color="#C7C6CA" offset="100%"></stop>
        </linearGradient>
    </defs>
    <g id="页面-1" stroke="none" stroke-width="1" fill="none" fill-rule="evenodd">
        <g id="编组-49">
            <rect id="矩形备份-60" x="0" y="0" width="1024" height="1024"></rect>
            <g id="编组-140备份-5" transform="translate(42.666667, 85.333333)" fill-rule="nonzero">
                <g id="编组-140备份-3">
                    <g id="编组-9">
                        <polygon id="路径备份-43" fill="url(#linearGradient-1)" transform="translate(469.333333, 813.810526) rotate(90.000000) translate(-469.333333, -813.810526) " points="429.810526 344.477193 508.85614 344.477193 508.85614 1283.14386 429.810526 1283.14386"></polygon>
                        <path d="M0.593333333,663.587 L0.343920059,664.85492 C0.11545668,666.018836 -1.93834948e-11,666.618793 -1.93834948e-11,666.618793 L-1.93834948e-11,666.618793 L-1.93834948e-11,663.587056 L0.593333333,663.587 Z M294.11557,0 C431.787063,0 425.529168,242.406834 528.781687,242.406834 C632.034206,242.406834 613.261621,118.172746 722.773135,118.172746 C894.861401,118.172746 938.666667,663.587056 938.666667,663.587056 L937.574299,663.595043 C929.888612,623.426041 879.600743,396.941244 722.773135,396.941244 C613.261621,396.941244 632.034206,457.542952 528.781687,457.542952 C425.529168,457.542952 431.787063,336.339535 294.11557,336.339535 C137.602291,336.339535 14.5337895,630.548256 1.19877805,663.608176 L0.593333333,663.587 L0.609961597,663.50435 C10.3228883,614.35588 134.918415,0 294.11557,0 Z" id="形状结合备份-3" fill="url(#linearGradient-2)"></path>
                    </g>
                    <path d="M0,702.152942 C0,702.152942 128.2852,371.873684 294.11557,371.873684 C431.787063,371.873684 425.529168,493.077101 528.781687,493.077101 C632.034206,493.077101 613.261621,432.475393 722.773135,432.475393 C894.861401,432.475393 938.666667,705.182548 938.666667,705.182548 L0,705.182548 L0,702.152942 Z" id="路径备份-42" fill="url(#linearGradient-3)"></path>
                </g>
            </g>
        </g>
    </g>
</svg>