<?xml version="1.0" standalone="no"?><!DOCTYPE svg PUBLIC "-//W3C//DTD SVG 1.1//EN" "http://www.w3.org/Graphics/SVG/1.1/DTD/svg11.dtd"><svg t="1650537309007" class="icon" viewBox="0 0 1024 1024" version="1.1" xmlns="http://www.w3.org/2000/svg" p-id="1778" xmlns:xlink="http://www.w3.org/1999/xlink" width="200" height="200"><defs><style type="text/css">@font-face { font-family: feedback-iconfont; src: url("//at.alicdn.com/t/font_1031158_u69w8yhxdu.woff2?t=1630033759944") format("woff2"), url("//at.alicdn.com/t/font_1031158_u69w8yhxdu.woff?t=1630033759944") format("woff"), url("//at.alicdn.com/t/font_1031158_u69w8yhxdu.ttf?t=1630033759944") format("truetype"); }
</style></defs><path d="M736 256m-64 0a64 64 0 1 0 128 0 64 64 0 1 0-128 0Z" fill="#4A8BFE" p-id="1779"></path><path d="M800 512m-64 0a64 64 0 1 0 128 0 64 64 0 1 0-128 0Z" fill="#4A8BFE" p-id="1780"></path><path d="M528 592m-112 0a112 112 0 1 0 224 0 112 112 0 1 0-224 0Z" fill="#4A8BFE" p-id="1781"></path><path d="M704 832m-64 0a64 64 0 1 0 128 0 64 64 0 1 0-128 0Z" fill="#4A8BFE" p-id="1782"></path><path d="M864 704m-32 0a32 32 0 1 0 64 0 32 32 0 1 0-64 0Z" fill="#4A8BFE" p-id="1783"></path><path d="M272 784m-80 0a80 80 0 1 0 160 0 80 80 0 1 0-160 0Z" fill="#4A8BFE" p-id="1784"></path><path d="M192 544m-64 0a64 64 0 1 0 128 0 64 64 0 1 0-128 0Z" fill="#4A8BFE" p-id="1785"></path><path d="M368 368m-80 0a80 80 0 1 0 160 0 80 80 0 1 0-160 0Z" fill="#4A8BFE" p-id="1786"></path><path d="M208 240m-48 0a48 48 0 1 0 96 0 48 48 0 1 0-96 0Z" fill="#4A8BFE" p-id="1787"></path><path d="M528 176m-48 0a48 48 0 1 0 96 0 48 48 0 1 0-96 0Z" fill="#4A8BFE" p-id="1788"></path><path d="M496 816m-48 0a48 48 0 1 0 96 0 48 48 0 1 0-96 0Z" fill="#4A8BFE" p-id="1789"></path><path d="M592 368m-48 0a48 48 0 1 0 96 0 48 48 0 1 0-96 0Z" fill="#4A8BFE" p-id="1790"></path></svg>