<?xml version="1.0" encoding="UTF-8"?>
<svg width="1539px" height="1025px" viewBox="0 0 1539 1025" version="1.1" xmlns="http://www.w3.org/2000/svg" xmlns:xlink="http://www.w3.org/1999/xlink">
    <title>环形柱状图</title>
    <defs>
        <linearGradient x1="50%" y1="0%" x2="50%" y2="100%" id="linearGradient-1">
            <stop stop-color="#FEC08B" offset="0%"></stop>
            <stop stop-color="#FA8334" offset="100%"></stop>
        </linearGradient>
        <linearGradient x1="50%" y1="100%" x2="50%" y2="0%" id="linearGradient-2">
            <stop stop-color="#E5E5E7" offset="0%"></stop>
            <stop stop-color="#C7C6CA" offset="100%"></stop>
        </linearGradient>
        <linearGradient x1="50%" y1="100%" x2="50%" y2="0%" id="linearGradient-3">
            <stop stop-color="#C7C6CA" offset="0%"></stop>
            <stop stop-color="#E5E5E7" offset="100%"></stop>
        </linearGradient>
    </defs>
    <g id="页面-1" stroke="none" stroke-width="1" fill="none" fill-rule="evenodd">
        <g id="环形柱状图" transform="translate(0.312500, 0.750000)" fill-rule="nonzero">
            <path d="M397.061224,-367.62014 C610.52341,-372.314374 805.097401,-286.849614 945.124528,-146.822487 C1081.48739,-10.4596271 1166.10612,177.632654 1166.10612,384.52245 C1166.10612,591.412245 1081.48739,779.504524 945.124528,915.867386 C805.097401,1055.89451 610.52341,1141.35927 397.061224,1136.66504 L397.061224,1136.66504 L397.061224,956.048558 C560.866983,960.788088 710.285908,895.610015 817.576532,788.319391 C921.205834,684.690087 985.547755,541.758694 985.547755,384.52245 C985.547755,227.286205 921.205834,84.3548121 817.576532,-19.2744909 C710.285908,-126.565112 560.866983,-191.743189 397.061224,-187.003659 L397.061224,-187.003659 L397.061224,-367.62014 Z" id="路径" stroke="url(#linearGradient-1)" stroke-width="0.5" fill="url(#linearGradient-1)" transform="translate(781.583673, 384.522449) rotate(-90.000000) translate(-781.583673, -384.522449) "></path>
            <polygon id="路径备份-39" fill="url(#linearGradient-2)" transform="translate(769.044898, 957.126531) rotate(90.000000) translate(-769.044898, -957.126531) " points="702.171429 188.081633 835.918367 188.081633 835.918367 1726.17143 702.171429 1726.17143"></polygon>
            <path d="M558.950748,93.1756004 C685.015722,85.9959745 800.492689,137.231295 882.681754,223.529813 C959.351993,304.03356 1007.00299,415.056361 1007.00299,537.216828 C1007.00299,659.377295 959.351993,770.400093 882.681754,850.90384 C800.492689,937.202361 685.015722,988.437683 558.950748,981.258054 L558.950748,981.258054 L558.950748,849.893957 C649.830246,857.333263 733.18057,820.985459 792.108561,759.111069 C846.343139,702.164759 879.943399,623.601276 879.943399,537.216828 C879.943399,450.832381 846.343139,372.268897 792.108561,315.322586 C733.18057,253.4482 649.830246,217.100394 558.950748,224.539696 L558.950748,224.539696 L558.950748,93.1756004 Z" id="路径备份-38" stroke="url(#linearGradient-3)" stroke-width="0.7" fill="url(#linearGradient-3)" transform="translate(782.976870, 537.216827) rotate(-90.000000) translate(-782.976870, -537.216827) "></path>
        </g>
    </g>
</svg>