<?xml version="1.0" encoding="UTF-8"?>
<svg width="1024px" height="1024px" viewBox="0 0 1024 1024" version="1.1" xmlns="http://www.w3.org/2000/svg" xmlns:xlink="http://www.w3.org/1999/xlink">
    <defs>
        <linearGradient x1="50%" y1="0%" x2="50%" y2="100%" id="linearGradient-1">
            <stop stop-color="#FFB676" offset="0%"></stop>
            <stop stop-color="#FA8334" offset="100%"></stop>
        </linearGradient>
        <linearGradient x1="50%" y1="0%" x2="50%" y2="100%" id="linearGradient-2">
            <stop stop-color="#FFB676" offset="0%"></stop>
            <stop stop-color="#FA8334" offset="100%"></stop>
        </linearGradient>
    </defs>
    <g id="页面-1" stroke="none" stroke-width="1" fill="none" fill-rule="evenodd">
        <g id="编组-75">
            <rect id="矩形备份-154" x="0" y="0" width="1024" height="1024"></rect>
            <g id="可视化图标0.7-18-(1)-3备份-10" transform="translate(42.666667, 128.000000)" fill-rule="nonzero">
                <g id="编组-35">
                    <path d="M826.235121,595.212711 C824.35089,595.212711 821.93416,596.620665 820.33666,596.620665 C818.862045,598.537047 816.977814,599.006366 815.011661,599.436574 C814.151468,603.034679 810.055315,603.464888 809.031276,605.850588 C808.621661,608.079849 808.621661,610.739319 807.679546,611.677955 L804.812238,613.164129 C803.132815,615.47161 803.583392,618.483068 803.583392,620.36034 C800.280438,625.703693 798.174335,631.643158 797.398201,637.80333 C798.790893,638.781077 798.790893,640.619239 799.282431,642.027194 C799.77397,645.547079 797.398201,649.340734 796.947624,652.430412 L800.798008,656.145847 C801.6582,657.553801 801.289546,659.665733 803.132815,659.665733 C803.624354,661.582115 804.730315,662.481642 804.730315,663.889596 C806.696469,664.789123 808.5807,664.358914 810.055315,665.297551 L810.915507,666.197077 L810.915507,667.8788 C815.011661,669.364974 812.390122,673.588837 815.503199,673.979936 C817.38743,674.488364 818.370506,673.080409 819.80416,673.588837 C822.425698,672.571981 822.917237,670.694709 823.367814,668.348118 C823.859352,664.828232 822.917237,661.073687 824.391852,658.02312 C829.553005,652.391302 827.218198,644.100015 830.781851,638.272649 C831.314351,625.131741 834.550313,610.739319 831.314351,599.006366 C828.119352,598.537047 827.668775,596.620665 826.235121,595.212711 L826.235121,595.212711 Z" id="路径" fill="#C7C6CA"></path>
                    <path d="M452.092461,295.905077 C424.934963,303.687936 419.528041,350.30687 438.534193,360.670978 C471.098613,383.980445 500.959572,422.85563 511.814379,459.149565 C517.262263,469.513673 544.378799,485.079391 555.233606,469.513673 C560.68149,461.730814 557.937067,448.785456 566.088413,446.204206 C598.652833,430.638489 652.926867,479.877782 661.078212,430.638489 C671.933019,383.980445 636.665137,334.741152 674.63648,301.067577 C685.491287,290.703468 709.904362,306.269186 720.759169,295.865967 C739.765321,282.920609 745.172243,249.207924 726.207053,233.681316 C715.352246,223.317207 696.346094,220.735958 677.339942,223.317207 C682.787826,197.387381 726.207053,168.915415 693.642633,161.132556 C691.885892,160.590925 690.109801,160.108274 688.317633,159.685492 C687.858816,160.042873 687.364995,160.357204 686.843018,160.624128 L682.337249,160.624128 C680.771438,161.016499 679.40514,161.932449 678.486865,163.205378 L677.995326,164.104904 C677.995326,168.328767 675.865326,170.636248 675.373788,174.234354 C673.239413,175.831274 670.662046,176.796582 667.95975,177.011152 L666.07552,178.927535 C663.249174,180.10083 661.323981,180.10083 658.62052,181.039466 C655.384559,184.754901 652.967828,186.671284 649.895713,189.252533 L647.028406,190.660488 L646.08629,192.146662 C644.20206,193.046188 643.751483,194.454143 641.580522,194.454143 C632.323215,197.074502 623.9261,191.638234 615.11937,193.046188 C612.293024,193.906605 610.900332,194.923461 609.425717,195.822987 C608.934178,198.404237 607.336678,198.404237 605.862063,198.912665 C605.329563,203.097418 605.862063,206.617304 605.329563,210.450069 C606.804178,214.869481 609.917255,217.68539 611.39187,220.462189 L613.726678,223.043438 L613.726678,224.529612 C613.155483,225.922094 611.948185,226.988361 610.449755,227.423741 C608.97514,229.222794 608.97514,231.843153 607.336678,233.211998 C605.370525,233.720426 604.469371,233.720426 603.035717,233.720426 C600.318758,235.760673 597.833777,238.067777 595.621679,240.603758 C594.597641,242.833019 594.228987,244.788511 592.71341,245.727148 C586.733026,246.900443 582.227258,247.408871 573.912066,246.900443 C569.611105,247.878189 564.654759,247.878189 560.886298,247.878189 C553.963798,249.755462 546.099184,250.26389 538.726107,252.57137 L536.309377,254.957071 C533.860905,255.583789 531.387664,256.1187 528.895339,256.560574 L527.011108,258.828945 C525.126878,259.298263 524.143801,259.806691 522.423417,259.806691 C519.483939,262.195662 516.183456,264.147084 512.63361,265.594948 C501.778803,283.194378 474.21169,289.530173 452.092461,295.905077 L452.092461,295.905077 Z" id="路径" fill="url(#linearGradient-1)"></path>
                    <path d="M490.391496,643.552477 C485.926689,627.126343 513.084187,600.062331 510.053033,577.80883 C507.021879,555.555329 482.731689,596.190457 492.849188,551.722565 C502.966687,507.254672 516.156302,541.084687 534.384185,515.937058 C543.764376,502.991699 543.477645,487.77797 540.978992,476.005907 C529.141108,475.614809 515.337071,466.150227 511.650533,459.110455 C500.795726,422.81652 470.934767,383.941335 438.370347,360.631868 C419.364195,350.26776 424.812079,303.609716 451.928615,295.865967 C474.088805,289.530173 501.655918,283.155268 512.510725,265.555838 C511.14394,266.115249 509.749619,266.61122 508.332648,267.042013 C505.17861,266.572694 504.687072,264.734532 502.802841,264.304323 C496.37188,263.795896 491.087842,264.734532 485.189381,263.795896 C483.223228,260.784438 479.659574,259.376483 478.75842,256.560574 C474.457459,253.979325 470.893806,255.582828 467.043421,253.979325 C466.633806,252.062942 465.691691,251.163416 465.691691,249.755462 C463.725537,248.269288 461.636499,247.369761 459.629383,245.727148 L453.730922,245.727148 C450.904577,245.296939 450.454,243.419667 448.487846,242.911239 C436.609001,242.911239 426.327656,240.603758 414.69458,241.112186 L412.073041,239.195804 C405.405475,237.364352 398.526427,236.326596 391.592274,236.106126 C388.765928,235.675918 388.765928,233.290217 386.14439,233.720426 C383.727659,232.899119 382.294006,231.412945 380.901313,230.982737 C380.409775,228.362377 378.484583,228.362377 378.484583,226.954423 L378.484583,224.021184 C376.80516,222.61323 376.313621,221.009727 375.453429,220.03198 C375.863045,217.216072 373.487276,216.238326 373.978814,214.400163 L371.029583,210.450069 C370.538045,207.125732 371.029583,202.6281 369.35016,200.320619 C368.489968,198.912665 366.441891,198.912665 365.131122,198.404237 L363.697469,198.404237 C360.625354,197.035392 360.625354,192.967969 357.676123,192.53776 C357.266508,190.621378 356.324392,188.313897 356.324392,186.632174 C351.327085,184.754901 348.910355,180.531038 344.609393,179.553292 L341.537278,179.553292 C336.744779,175.642308 329.904202,175.13388 323.841895,173.725926 L321.507088,171.809543 C317.272775,171.804696 313.13644,170.592654 309.628243,168.328767 C308.748812,164.541265 308.582371,160.634552 309.136704,156.791363 C313.191896,153.271477 313.724396,148.500076 315.035165,144.589092 C312.126896,139.387483 314.543627,133.051688 311.266704,128.554056 L309.628243,127.5372 C308.194589,123.352447 308.645166,118.424607 308.194589,114.709171 C306.719974,113.731425 306.719974,111.658604 306.269397,110.641748 C303.443051,110.250649 302.992474,107.434741 300.739589,106.417885 C298.937282,105.948566 297.913244,107.434741 296.561513,106.926313 C294.396995,106.300903 292.350599,105.350363 290.499206,104.110404 C289.598052,101.490044 288.123437,100.1212 286.280168,99.6909915 C285.063329,97.6479153 283.331548,95.9272057 281.241899,94.6849315 C278.825168,88.5837959 281.733437,81.309365 279.357668,76.3815247 C272.435169,73.4873962 264.119977,76.811733 257.197478,78.4152365 C255.231324,79.8231909 255.231324,81.309365 253.879594,82.6782095 L253.429017,84.1643836 C251.954401,86.0025462 250.274978,86.5109742 247.858248,87.1758415 C245.974017,87.6842695 243.63921,87.1758415 242.164595,87.6842695 C242.164595,89.9917503 238.682864,89.4833223 238.150364,90.4610684 C235.283057,94.2156134 235.733634,99.6909915 236.225172,103.406427 C234.340941,104.579722 234.83248,108.334267 233.153057,108.725365 C230.418188,110.021946 227.399534,110.678818 224.346327,110.641748 L219.062289,109.233793 L217.669597,109.233793 C214.55652,108.725365 213.655366,105.948566 211.771136,105.518358 C206.773828,104.540612 204.357098,101.020726 200.588637,101.020726 C197.926137,101.998472 197.434598,104.110404 195.099791,104.618832 C193.133637,106.417885 194.157676,109.233793 191.740945,109.742221 C190.061522,112.323471 189.119407,115.13938 188.177291,117.055762 C186.746845,117.919672 185.586574,119.135572 184.818446,120.575648 L183.958253,123.313337 L181.254792,125.268829 C179.780177,129.258033 180.312677,132.152162 179.780177,135.359169 L178.428446,137.4711 L166.713447,137.4711 C160.814986,131.643734 151.926333,135.359169 145.003834,134.381423 C142.259411,134.889851 142.259411,137.979528 139.84268,137.979528 C138.163257,140.365229 140.293257,142.67271 137.671719,143.572236 C137.221142,154.483882 137.221142,165.512858 136.729604,175.642308 L135.82845,176.502724 L134.394796,176.502724 C132.510566,177.832459 132.510566,179.944391 130.831143,179.944391 L127.922874,182.408311 C128.864989,188.313897 125.096528,192.928859 123.212297,196.957173 L120.549797,198.365127 C115.839221,197.934919 111.29249,200.2424 107.524029,201.650354 C98.1847992,200.672608 89.8286461,197.934919 81.0219161,200.672608 C78.4003779,203.566736 74.0994167,203.058308 71.0273016,203.058308 C69.143071,203.996945 67.1769173,203.996945 66.7263404,205.17024 L65.2926867,208.064368 C61.7290331,209.042114 60.7869178,210.802057 57.8786489,212.249122 C55.0113414,211.779803 52.9223031,212.67933 50.5055726,211.779803 C49.5634573,209.902531 47.6382651,208.064368 45.5492268,208.064368 C41.2482657,208.494577 37.8894198,206.578194 33.8342279,206.578194 L31.0488435,208.064368 C26.5430746,208.494577 23.1842288,207.55594 19.1699983,209.042114 C16.2617294,212.288231 13.4353835,213.461527 10.7319222,214.869481 L10.2403837,216.277435 C8.39711466,217.216072 7.90557624,218.624026 5.9803841,218.624026 C4.38773202,222.360448 4.21384791,226.511037 5.48884568,230.356979 C4.01423042,232.781789 2.41673056,233.642206 0.942115303,235.12838 L0,237.866069 L0.860192234,240.877527 C2.78538438,241.816163 3.522692,243.732546 4.42384577,244.632072 C8.31519159,246.744004 11.0596144,245.1405 14.705191,246.744004 C16.1388448,247.72175 16.1388448,249.638132 16.6713447,251.046086 C16.6713447,252.923359 17.1219216,255.465499 17.1219216,256.873453 C16.1798063,260.2369 14.705191,261.644854 13.7630757,264.186994 L13.7630757,269.975251 L12.8209604,270.874777 C9.25730689,272.5565 6.34903791,272.986709 4.42384577,274.903091 C3.9320229,276.843615 3.9320229,278.868154 4.42384577,280.808677 C7.78269164,283.116158 9.25730689,284.993431 12.2884605,286.401385 C14.705191,288.317767 15.1557679,291.798544 17.61346,292.8154 C19.9482675,300.050721 17.61346,307.833579 19.9482675,314.638692 L21.0951905,315.616438 C23.9624979,316.515965 24.4540364,318.002139 26.7888438,318.432347 C30.8849973,322.851759 34.1619201,328.131588 38.749612,330.439069 L41.6988426,330.439069 C43.0505732,333.528747 47.0648036,329.969751 47.0648036,333.528747 C46.859996,341.624484 48.8261496,349.642002 52.758457,356.838214 C51.3657648,360.12344 49.8911495,361.961603 48.4574958,364.347304 C49.3996111,370.683098 51.3657648,377.488211 51.3657648,385.701278 L49.8911495,387.69588 C47.0648036,387.187452 46.5323037,385.27107 44.8528807,383.824006 L43.5421116,383.824006 C40.6748042,384.801752 39.6917273,386.131486 37.8484583,387.148342 C36.6196122,388.947395 37.8484583,391.567755 36.6196122,392.975709 C37.8484583,402.166522 35.6774969,410.37959 37.8484583,419.101085 C40.6748042,420.078831 41.6988426,422.89474 43.0096117,424.498243 L46.1636499,425.006671 C48.7851881,428.565667 51.7344186,431.929113 54.8884568,435.097011 C56.7726874,437.013393 57.3051874,440.533279 58.7798026,442.410552 C61.9338408,446.321536 64.6782637,450.506289 67.0540327,454.925701 C69.0201864,456.255436 71.6417246,456.255436 72.5838399,457.506951 C75.4511473,456.724754 76.3523011,454.417274 78.2774933,453.009319 C80.3665315,452.540001 81.4315314,452.540001 82.7832621,452.540001 C91.9996075,460.088201 99.5774914,469.239904 105.14826,479.564903 C107.360183,481.442175 110.678067,481.442175 112.562298,482.576361 L115.634413,484.492743 L118.133067,486.800224 C118.542682,489.225034 118.133067,492.78403 119.484797,494.035545 L122.352105,495.560829 L123.949605,498.337628 C126.366335,499.550033 128.701143,500.019351 130.667296,500.918878 C131.322681,502.83526 131.322681,503.734786 131.322681,505.142741 C132.264796,507.059123 132.674412,507.450222 133.657488,508.662627 C136.483834,509.562153 138.368065,510.970107 141.071526,511.478535 C142.013642,514.294444 142.955757,515.702399 143.897872,517.384122 C147.256718,518.792076 151.270949,518.792076 154.179217,518.792076 C155.981525,519.691603 156.718833,521.177777 158.684986,521.177777 C163.477486,522.077303 168.884409,524.697663 173.18537,525.675409 L177.773062,528.061109 L185.146138,528.061109 C187.480945,528.960636 187.972484,531.776544 189.856714,532.245862 C192.92883,532.715181 194.894983,530.916128 197.270752,530.36859 C201.284983,534.866222 197.270752,542.179763 200.834406,545.895198 C202.718636,546.364516 205.135367,547.381372 206.569021,547.381372 C208.69902,546.364516 210.583251,546.364516 211.074789,545.46499 C212.016905,542.649081 213.49152,540.967358 213.49152,538.542547 C214.884212,536.313286 217.997289,534.866222 220.004404,532.75429 L228.729211,532.75429 L231.63748,535.37465 C235.201134,536.274176 239.502095,536.743494 242.04171,538.190559 L243.516325,540.967358 L246.424594,542.649081 L247.776325,545.38677 C249.985452,546.482546 251.755826,548.241602 252.814594,550.39283 C255.968632,552.074553 258.794978,554.303814 261.170747,556.924174 C261.621324,560.013851 260.679208,561.852014 261.621324,564.237715 L264.980169,567.7576 C270.72106,569.306368 276.777311,569.454292 282.593629,568.187809 C285.215168,567.79671 285.665745,566.154097 287.181321,565.606559 L290.007667,565.606559 C292.424398,565.137241 292.874975,563.729287 294.595359,563.220859 L295.537475,561.812904 C300.248051,559.935632 305.736897,560.44406 308.112666,556.924174 C311.266704,555.438 313.642473,553.599837 315.526704,552.230993 L318.434973,551.214137 L320.114395,551.214137 C322.940741,550.744818 323.800934,549.180425 325.84901,549.180425 L329.412664,546.794724 L335.18824,546.794724 C339.775932,549.610633 342.970932,554.030045 348.500739,555.985538 C352.351123,555.47711 357.307469,556.963284 360.174777,554.577583 C361.198815,552.270102 364.229969,549.180425 365.213045,547.77247 C367.015353,548.241788 368.039391,547.77247 369.432084,548.241788 C371.521122,553.521617 373.855929,558.723227 376.354583,563.846616 L379.426698,564.746142 L381.310929,567.327392 C381.310929,570.143301 382.785544,572.020573 381.310929,576.948414 C380.81939,580.233641 379.959198,582.580231 380.368813,585.591689 C379.75342,587.64771 378.708385,589.563473 377.296698,591.223507 C377.296698,593.843866 377.296698,596.229567 375.863045,597.129093 C373.036699,598.537047 371.111506,601.118297 369.432084,603.034679 C365.131122,604.442634 363.246892,608.862046 361.116892,611.247747 L361.116892,614.024546 C360.174777,616.801344 356.815931,616.410246 356.406315,618.952386 C355.750931,625.209961 356.078623,631.545755 357.266508,637.764221 L359.232661,639.172175 C364.762469,640.658349 371.111506,637.764221 375.494391,640.149921 L376.846121,643.239599 C376.846121,646.446606 377.33766,648.832306 377.33766,651.882874 C378.566506,655.207211 380.901313,656.106737 381.925352,658.414218 C384.260159,659.626623 386.226313,660.095941 387.455159,661.543006 C385.775736,663.850486 387.864774,666.157967 385.284198,667.174823 C385.284198,670.694709 384.751698,673.00219 384.751698,675.818098 C385.284198,678.399348 386.717851,678.907776 387.455159,680.315731 C388.847851,681.645465 390.199582,682.114783 391.22362,683.131639 C392.89347,683.182132 394.501979,683.744343 395.811312,684.735143 C396.30285,687.042624 397.695543,687.551052 398.637658,688.05948 C400.03035,688.959006 400.03035,691.774915 400.972465,692.283343 C402.488042,693.417528 403.839773,694.747263 405.027657,696.194327 C407.444388,697.680501 410.352657,697.172073 412.195926,697.172073 C415.268041,696.194327 414.284964,692.94821 417.152272,692.94821 L418.17631,693.925956 C419.200348,696.741865 420.060541,698.619137 420.511118,700.965728 C424.074771,701.669705 423.132656,704.485614 425.549386,705.893568 C427.433617,706.284667 428.375732,706.793095 430.055155,706.793095 C432.963424,706.284667 433.414001,703.977186 435.748809,704.485614 C440.254577,698.0716 436.240347,689.858532 437.141501,683.131639 C438.820924,681.215257 441.237654,681.645465 443.121885,681.215257 C445.456692,681.645465 448.569769,681.645465 450.494961,681.645465 L451.928615,678.868666 C453.187837,677.860778 454.792096,677.331632 456.434384,677.382492 C463.848422,680.198401 471.508229,677.85181 478.348805,680.198401 C480.970343,679.729083 481.42092,678.321128 482.936497,677.812701 C485.639958,677.812701 488.998804,678.360238 491.497458,677.578041 C491.333611,661.816774 491.82515,648.871416 490.391496,643.552477 L490.391496,643.552477 Z M938.346842,67.2689311 L935.438573,64.8441208 L934.086843,64.8441208 L931.383381,66.7605031 L928.557035,66.7605031 C925.198189,69.4981922 920.692421,72.1576616 918.357613,75.4037786 C914.712037,76.3815247 912.377229,76.811733 910.492998,79.3929826 C910.984537,82.2871111 908.526845,83.1866375 908.526845,85.0248001 C904.963191,86.0025462 904.963191,89.0140042 902.628384,90.9303865 C897.098577,92.3383409 893.289154,94.6458217 888.291847,94.6458217 C886.407616,93.2378673 884.523385,90.9303865 882.598193,90.4219585 L880.91877,89.9526404 L880.427232,87.1367317 C879.909042,85.2448658 879.123563,83.4291469 878.092424,81.7395733 C876.665139,81.1052602 875.622823,79.8792918 875.266078,78.4152365 C872.669377,76.9864044 870.465237,74.9891394 868.835117,72.5878698 C866.418387,71.1799155 863.30531,71.6883434 861.42108,71.6883434 C859.086272,69.4981922 856.587618,68.5595559 854.007042,66.7605031 C847.371273,66.2520752 839.506658,67.1907114 833.526274,65.2743291 L831.232428,62.8886286 C830.74089,61.285125 829.553005,59.4078525 828.61089,59.4078525 C827.586852,55.1057697 826.19416,51.6249936 825.702621,47.8704486 C823.818391,47.4011305 823.818391,44.9763202 823.367814,43.8421347 C821.237814,43.4510363 820.295699,42.5124001 818.780122,42.5124001 C817.38743,40.6351276 815.953776,38.7969649 814.929737,36.8805826 C814.379731,34.0371142 812.573794,31.5575447 809.973392,30.0754698 C808.089161,28.6675154 808.5807,25.0694098 807.147046,24.1698834 L805.672431,23.1921373 C803.542431,21.7841829 803.993008,19.2029332 803.542431,17.2865509 C799.77397,14.9790701 798.831854,12.1631614 796.497047,10.0512298 C794.817624,9.15170342 794.817624,6.25757499 793.793585,5.82736671 C792.400893,3.95009421 789.042047,4.41941233 788.099932,2.30748078 C785.027817,3.01145796 783.143586,1.79905281 780.685894,3.01145796 C779.334164,4.41941233 778.146279,5.39715843 776.671664,5.39715843 C774.013432,3.20352713 770.836392,1.6599729 767.414357,0.899526404 C764.137434,0.43020828 761.433973,1.40795437 758.525704,0 C755.781281,1.40795437 752.217627,0.899526404 749.800897,0.899526404 C746.974551,1.40795437 746.032436,3.01145796 743.820513,3.01145796 C740.994167,3.48077609 740.54359,5.82736671 738.126859,5.82736671 C735.152835,5.78268778 732.195507,6.25992279 729.402053,7.23532108 L728.378014,8.21306717 L727.72263,9.62102154 L724.896284,10.0903397 C723.421668,11.3027448 723.421668,13.1800173 722.93013,14.1186536 C721.578399,15.5266079 720.595323,16.4261343 718.9159,16.4261343 L715.065515,16.9345623 C713.631862,18.8118348 712.730708,20.8455467 711.297054,22.3317207 L711.297054,25.0302999 L714.573977,29.0586138 C717.441284,29.0586138 719.612246,29.5670418 721.988015,29.5670418 L723.012053,30.4665682 C723.954168,33.7909049 722.520515,36.3721546 723.503591,39.1880633 L722.028976,42.0039721 C721.168784,42.9817182 718.997823,45.0154301 718.465323,45.523858 C718.465323,47.8313388 718.465323,50.2170393 717.072631,51.1556755 L715.598015,52.1334216 C713.263208,56.1617355 712.321092,60.8549167 710.150131,63.8663747 C709.208016,68.0902378 710.150131,71.6492336 708.2659,75.4037786 C704.907055,78.9236645 701.343401,81.7004634 699.008594,85.0248001 C697.984555,86.5109742 696.100325,86.5109742 694.625709,87.1367317 C688.23571,87.1367317 682.746864,86.5109742 677.094172,87.1367317 L675.824365,88.1144778 C673.940134,92.299231 670.663211,95.3497988 670.171673,100.1212 L668.697058,101.098946 C667.468212,105.518358 665.624943,108.334267 665.133404,112.831899 L663.658789,114.161634 C662.716674,119.363243 661.323981,125.268829 661.323981,130.19667 C661.774558,132.58237 663.208212,132.934359 663.658789,134.381423 L664.600904,135.359169 L667.468212,137.4711 C670.039812,137.4441 672.5727,136.869566 674.88225,135.789377 L678.937441,132.973468 L684.631095,132.973468 L687.252633,134.889851 C689.218787,136.297805 691.021094,135.789377 692.49571,136.297805 C695.117248,134.889851 696.141286,132.58237 698.967632,132.58237 L700.851863,129.688242 C702.981862,128.084738 706.340708,127.57631 708.224939,128.514946 L709.699554,131.604624 L712.730708,132.934359 C714.696861,135.320059 716.089554,137.862199 718.506284,138.370627 C720.103784,139.778581 720.103784,141.577634 721.988015,141.577634 C723.012053,143.494016 724.486668,144.002444 724.486668,146.075266 L722.479553,148.069868 C716.908784,147.63966 712.198208,149.047614 707.692439,149.047614 L704.333593,151.355095 L696.960517,151.355095 C693.028209,154.014564 691.062056,157.53445 688.153787,159.685492 C689.956094,160.15481 691.71744,160.585018 693.478786,161.132556 C726.043207,168.915415 682.62398,197.426491 677.176095,223.317207 C696.182248,220.735958 715.1884,223.317207 726.043207,233.681316 C745.049359,249.247034 739.601475,282.920609 720.595323,295.865967 C709.740516,306.230076 685.327441,290.664358 674.472634,301.067577 C636.46033,334.741152 671.769173,383.980445 660.914366,430.638489 L660.258982,433.806386 C669.311481,438.656007 676.111096,442.097673 679.183211,439.594643 C686.269556,433.806386 703.473401,417.341142 704.046862,423.168508 C704.579362,428.956765 721.742245,458.954015 730.835706,420.27438 C735.423398,400.797678 747.998589,395.28319 760.491858,393.797016 C761.270127,392.037073 762.908588,391.411315 764.137434,390.23802 C766.554165,384.410653 770.97801,382.024953 774.869356,378.935275 C775.602299,376.968675 776.549614,375.081041 777.695702,373.303458 L779.375125,372.286602 C781.259356,370.370219 780.767817,367.084993 781.709933,365.20772 L782.652048,364.034425 C785.068778,362.62647 788.632432,363.525997 790.025124,362.118042 L790.557624,360.710088 C796.865701,357.73774 802.395508,353.474767 806.73743,348.194938 L805.713392,345.18348 C803.624354,344.205734 803.091854,342.79778 801.207623,342.79778 C799.323393,343.306208 798.299354,342.79778 796.988585,343.306208 C793.343009,343.306208 791.868393,340.920507 789.574547,340.920507 L788.099932,341.820034 C785.027817,340.490299 783.061663,339.238784 780.685894,339.238784 L777.613779,335.523349 C770.240703,335.054031 763.973588,340.020981 759.918396,344.166624 L757.09205,344.675052 C755.125896,348.703366 751.562243,351.480165 748.735897,353.865865 C746.769743,353.865865 745.909551,352.888119 744.230128,352.888119 L742.755513,350.072211 L745.377051,348.664256 L745.377051,341.780924 C742.931627,338.306243 739.174642,335.868103 734.890898,334.975811 C731.613975,334.506493 727.517822,335.406019 724.609553,334.506493 C722.807245,332.120792 720.841092,330.478179 719.898976,327.62316 C720.841092,325.31568 718.219553,322.929979 720.841092,321.795794 C721.701284,320.818048 723.749361,320.387839 725.06013,320.387839 C727.026283,320.857157 728.214168,321.287366 729.647822,321.287366 C732.556091,320.818048 733.498206,319.488313 735.341475,319.488313 C737.512436,317.102612 739.437629,315.694658 741.321859,314.052045 C740.789359,311.666344 742.714551,311.666344 742.263974,309.867291 C744.395512,305.736483 747.035716,301.863298 750.128589,298.329887 C754.634358,296.609054 757.501665,294.731782 760.328011,293.402047 C760.81955,291.485665 762.007434,290.507919 762.007434,289.099964 C763.400127,286.988033 764.915703,286.518715 765.36628,285.07165 C766.758972,282.294852 767.168588,279.752712 769.585318,277.836329 C771.715318,277.367011 772.739356,276.936803 774.091087,276.936803 C776.999356,276.428375 777.449933,274.120894 780.153394,274.551103 C781.012194,276.876862 781.468742,279.320594 781.505125,281.786424 C779.620894,283.272598 780.071471,286.479605 778.43301,287.418241 L776.098202,289.021745 C773.271856,296.648164 778.064356,305.330549 774.213972,312.135662 L772.247818,314.012935 C772.28714,315.614252 771.800106,317.187105 770.855126,318.510567 C771.797241,321.326476 773.189933,321.795794 773.722433,323.907725 C778.023394,323.907725 780.112433,321.326476 783.921856,320.426949 C785.314548,319.018995 785.806086,317.61104 786.789163,316.633294 L788.386663,316.633294 C789.779355,315.655548 789.779355,313.543617 790.270893,312.60498 L793.138201,309.828181 C793.629739,307.911799 794.571855,306.934053 794.571855,305.330549 C796.783777,303.453277 797.193393,302.514641 798.135508,301.106686 C798.668008,299.229414 799.610123,298.290778 799.610123,296.687274 C801.494354,294.262464 803.378585,293.871365 805.508584,292.893619 C812.86043,293.213314 820.050899,290.770404 825.538775,286.088506 L825.538775,284.680552 C826.808263,281.875883 829.090411,279.59975 831.969736,278.266538 C833.40339,276.389265 831.969736,273.573356 836.270697,271.461425 L837.212812,268.645516 C837.745312,265.321179 841.800504,264.421653 841.800504,261.331975 L841.800504,259.924021 C842.251081,257.61654 843.684735,257.108112 844.135312,255.700158 L846.470119,253.118908 L846.470119,251.710954 C847.658004,248.895045 848.600119,247.487091 849.624158,245.805367 C850.566273,244.397413 852.450503,244.397413 853.925119,243.928095 C861.257233,245.336049 867.688194,246.939553 874.610694,245.336049 L877.518963,243.458777 C878.379155,241.073076 879.85377,240.564648 879.85377,238.022509 C878.911655,236.145236 877.43704,235.715028 877.43704,233.798645 C880.795886,229.301013 884.851078,225.976677 888.209923,222.76967 C890.831462,218.780465 891.773577,214.947701 894.190308,212.366451 C895.824697,212.524427 897.382769,213.105958 898.696076,214.048174 L899.638192,216.864083 C901.522422,217.372511 902.546461,217.372511 903.939153,216.864083 L904.881268,215.886337 C907.502806,211.858023 906.27396,208.181698 907.502806,204.153384 C909.837614,201.767683 911.353191,198.951775 913.19646,197.074502 C911.312229,190.23028 912.704921,182.955849 908.813576,177.949789 C908.813576,172.826399 904.799345,170.245149 903.775307,166.412385 C903.775307,164.613332 902.382615,161.992972 902.382615,160.585018 C903.775307,157.769109 907.33896,157.299791 908.813576,155.461629 L909.305114,152.450171 C914.998767,149.556042 920.979151,150.02536 926.918574,150.533788 C927.860689,148.148088 928.393189,147.248561 929.74492,146.740133 C931.219535,145.05841 931.752035,142.242501 932.448381,140.834547 C934.332612,125.816367 930.768958,109.859551 934.332612,95.8973367 L935.807227,94.7240414 C937.568677,91.0175486 937.370826,86.7308212 935.274727,83.1866375 C936.216842,80.4098386 935.274727,78.4934562 935.274727,75.9513164 C935.817525,74.3141779 936.824066,72.8523143 938.182996,71.7274533 C938.797419,69.5764119 938.797419,68.5986658 938.346842,67.2689311 L938.346842,67.2689311 Z" id="形状" fill="#C7C6CA"></path>
                    <path d="M730.794745,420.23527 C721.701284,458.914906 704.538401,428.917655 704.005901,423.129399 C703.473401,417.341142 686.228595,433.767276 679.142249,439.555533 C676.070134,442.058563 669.270519,438.616897 660.21802,433.767276 C650.223405,477.570301 597.710718,430.951367 565.883605,446.125987 C557.73226,448.707236 560.435721,461.691704 555.028798,469.435453 C551.940699,473.913921 546.533719,476.420161 540.93803,475.966797 C543.436684,487.69975 543.723415,502.952589 534.343223,515.897948 C516.11534,541.045577 502.966687,507.215562 492.808227,551.683455 C482.690728,596.151347 506.980918,555.555329 510.012071,577.76972 C513.043225,599.984112 485.885727,627.087233 490.350535,643.513368 C491.784188,648.793197 491.29265,661.777665 491.333611,677.695371 C491.93187,677.53614 492.499064,677.285176 493.013034,676.952284 C494.48765,673.940826 498.133226,672.96308 499.484957,671.164027 C500.508995,668.269899 504.236495,667.135713 504.809956,664.750013 C509.930148,667.722361 515.296109,670.147171 520.948801,672.063553 C522.833032,672.063553 525.536493,671.594235 526.847262,671.594235 L528.321878,672.493762 C529.18207,676.482966 527.379762,680.276621 527.830339,683.522738 C528.772454,685.634669 528.772454,687.511942 529.71457,688.02037 C532.336108,691.305597 535.613031,693.417528 537.497261,696.233437 C539.913992,697.641391 543.06803,697.211183 544.911299,697.211183 C549.007453,699.127565 551.424183,700.49641 555.192644,701.708815 C558.674375,701.708815 561.091105,701.708815 564.081298,701.004838 C567.112451,700.027092 566.170336,697.211183 569.447259,697.211183 C572.928784,697.187632 576.394361,697.662218 579.728604,698.619137 C580.670719,700.53552 582.636873,701.004838 583.742834,702.139023 C586.651103,702.647451 588.535334,702.647451 590.952064,703.116769 L591.607449,704.133625 C592.058026,705.932678 592.058026,708.240159 592.549564,709.921882 L594.02418,711.408056 C594.433795,715.123491 596.850525,717.000764 596.850525,720.051332 C597.792641,721.928604 599.758794,722.86724 600.864756,724.275195 C602.83091,725.252941 605.165717,725.683149 606.599371,726.152467 L607.541486,727.325763 L606.148794,729.750573 L603.240525,730.219891 C600.905717,729.750573 600.905717,728.303509 598.734756,728.303509 C595.457833,729.789683 593.49168,730.689209 589.928026,730.689209 C584.15245,734.013546 579.646681,737.92453 575.427643,741.287977 C575.919181,743.908336 573.256681,744.807863 572.806104,746.215817 C572.314566,749.540154 573.74822,752.043184 573.74822,754.937312 L574.977066,755.915058 C576.369758,757.792331 575.919181,759.630493 576.369758,761.233997 L577.844373,762.720171 C579.728604,764.128125 582.063411,763.697917 583.742834,764.128125 L584.766873,765.53608 C587.10168,766.435606 589.477449,766.944034 590.337641,767.92178 L590.419564,768 L600.414179,768 C601.274371,766.592046 604.18264,767.022254 604.633217,765.184091 C607.67764,764.757871 610.563267,763.615479 613.030332,761.859755 L614.423024,758.848297 L617.536101,757.440342 C619.952831,754.116005 618.027639,749.227275 618.478216,745.902938 C620.813023,743.321689 622.3286,740.975098 624.171869,739.567144 L627.243984,738.589398 C628.1861,736.712125 628.1861,734.169985 628.1861,732.762031 L626.301869,730.45455 C619.91187,728.420838 614.341101,730.884758 608.688409,728.420838 L608.688409,727.130213 C609.630524,724.940062 612.907447,725.44849 613.398986,724.040536 C613.398986,721.224627 615.815716,719.308245 615.815716,716.726995 C614.873601,713.989306 613.849562,712.503132 612.98937,711.095177 L611.432832,710.195651 L612.98937,707.614401 C614.873601,707.105973 615.815716,706.597545 617.495139,706.597545 C619.829947,706.206447 620.321485,704.798493 621.878023,704.290065 L623.229754,702.88211 C625.951448,702.265014 628.763043,702.093101 631.544946,702.373682 C634.617061,700.770179 636.132637,697.95427 638.958983,697.445842 C640.613456,697.422199 642.223738,696.93238 643.587637,696.037888 L644.939367,693.730407 C649.322252,692.557112 654.688213,693.730407 658.047059,691.149157 C658.497636,688.763457 660.177058,688.763457 660.177058,686.847074 C661.411453,684.904303 663.508993,683.607578 665.870712,683.327188 L670.376481,683.327188 L672.793211,681.528136 C673.735327,680.041962 673.735327,678.203799 674.677442,677.695371 L677.29898,678.673117 C677.83148,680.55039 677.29898,681.489026 677.83148,682.89698 L679.183211,683.405408 C682.09148,682.93609 683.033595,681.528136 684.958787,681.019708 L686.556287,681.919234 C691.348787,680.589499 694.420902,676.091867 698.271286,675.114121 L699.745901,673.745277 C703.227632,671.828894 705.644362,673.236849 708.470708,672.728421 L712.5259,669.521414 C718.301477,669.912512 724.199938,668.504558 727.599745,664.515354 L729.197245,664.515354 C732.023591,662.638081 735.382437,660.291491 735.382437,656.224067 C737.143783,653.408158 741.362821,653.408158 742.304936,650.3967 L746.892628,650.3967 L747.834743,649.497174 C747.302243,647.111473 744.27109,648.089219 744.762628,646.172837 L745.991474,645.195091 C747.875705,644.725773 748.81782,643.787137 750.210512,643.787137 C754.306666,640.775679 755.166858,636.551815 758.525704,634.596323 L760.942434,632.9146 C760.942434,631.037327 760.000319,628.729847 760.942434,627.321892 L763.072434,624.740643 C765.980703,624.271325 767.864934,625.170851 770.199741,624.271325 L772.82128,622.354942 C775.156087,620.43856 775.156087,615.549829 777.572818,614.141875 L780.194356,612.225493 C781.136471,610.30911 780.194356,609.409584 781.136471,607.727861 L782.078586,606.828334 L783.471279,606.359016 L784.495317,605.38127 C785.437432,601.587615 787.321663,599.475684 788.550509,596.659775 C788.550509,592.435912 786.871086,588.876916 788.058971,585.122371 C789.861278,584.653053 789.861278,582.110913 789.861278,581.211387 C790.885316,579.803432 792.769547,579.803432 793.711662,579.295004 C794.735701,577.417732 794.735701,574.875592 794.735701,573.389418 C795.186278,570.612619 796.865701,569.673983 796.865701,567.79671 C797.275316,564.198605 799.282431,563.299078 799.282431,560.48317 C801.166662,555.985538 803.993008,552.270102 804.648392,547.264042 C807.556661,544.956562 808.007238,541.749554 809.973392,539.559403 C812.308199,538.542547 814.479161,537.682131 815.871853,536.743494 L816.813968,535.33554 C816.813968,530.837908 814.479161,525.714519 816.813968,522.116413 L818.288583,517.93166 C818.780122,511.517645 816.813968,506.120487 815.871853,500.488669 C812.241007,498.586904 809.083233,495.958763 806.614546,492.78403 C803.050892,492.275602 799.200508,493.683557 796.333201,492.78403 L795.186278,491.806284 L796.865701,489.225034 L801.166662,489.225034 C803.501469,488.716606 803.993008,487.308652 805.672431,486.800224 C808.498776,484.062535 812.308199,482.615471 814.028584,479.564903 L812.349161,476.240566 C809.704719,474.801496 807.436032,472.809192 805.713392,470.4132 C805.713392,467.127973 803.583392,464.077405 802.641277,461.730814 L799.77397,458.914906 C798.706369,455.833174 797.189552,452.910346 795.268201,450.23252 C792.85147,446.204206 789.042047,446.204206 786.953009,443.818506 L786.461471,442.410552 C787.403586,435.097011 784.04474,428.722106 783.594163,421.956103 L780.235317,418.162448 C779.78474,415.854968 780.235317,412.335082 778.555894,410.927127 L775.729549,409.519173 C774.336856,406.429495 771.428587,408.111219 769.298588,405.529969 C766.554165,405.021541 762.662819,405.960177 760.491858,404.122015 C759.549742,401.736314 756.723396,402.205632 756.723396,399.389723 C758.116089,397.277792 758.607627,395.400519 760.082242,394.970311 C760.162541,394.563316 760.300338,394.168613 760.491858,393.797016 C747.916666,395.28319 735.382437,400.758568 730.794745,420.23527 L730.794745,420.23527 Z" id="路径" fill="url(#linearGradient-2)"></path>
                </g>
            </g>
        </g>
    </g>
</svg>