<svg t="1649228676371" class="icon" viewBox="0 0 1024 1024" version="1.1" xmlns="http://www.w3.org/2000/svg" p-id="1928" width="200" height="200"><path d="M803.968 699.882667c-1.536 0-3.52 1.237333-4.8 1.237333-1.194667 1.706667-2.752 2.133333-4.373333 2.474667-0.682667 3.2-4.032 3.626667-4.906667 5.76-0.32 2.026667-0.32 4.309333-1.088 5.205333l-2.410667 1.322667c-1.365333 2.026667-1.024 4.778667-1.024 6.357333a39.893333 39.893333 0 0 0-5.056 15.552c1.109333 0.874667 1.109333 2.474667 1.536 3.712 0.341333 3.178667-1.536 6.528-1.898666 9.28l3.2 3.349333c0.661333 1.237333 0.426667 3.178667 1.877333 3.178667 0.341333 1.685333 1.28 2.474667 1.28 3.797333 1.621333 0.789333 3.178667 0.362667 4.373333 1.237334l0.682667 0.789333v1.493333c3.349333 1.344 1.216 5.056 3.776 5.397334 1.557333 0.426667 2.325333-0.789333 3.52-0.341334 2.133333-0.896 2.56-2.56 2.922667-4.693333 0.426667-3.178667-0.341333-6.442667 0.853333-9.173333 4.202667-5.034667 2.325333-12.373333 5.226667-17.578667 0.426667-11.669333 3.093333-24.469333 0.426666-34.901333-2.56-0.426667-2.901333-2.218667-4.117333-3.456z m91.712-469.226667l-2.410667-2.218667h-1.109333l-2.218667 1.685334h-2.346666c-2.730667 2.474667-6.4 4.757333-8.32 7.68-2.986667 0.874667-4.864 1.237333-6.4 3.541333 0.32 2.56-1.642667 3.349333-1.642667 5.034667-2.922667 0.874667-2.922667 3.52-4.8 5.205333-4.544 1.237333-7.637333 3.349333-11.754667 3.349333-1.557333-1.237333-3.093333-3.349333-4.629333-3.797333l-1.386667-0.426667-0.426666-2.474666a18.410667 18.410667 0 0 0-1.877334-4.778667c-1.557333-0.874667-1.898667-1.685333-2.325333-2.986667a16.170667 16.170667 0 0 1-5.333333-5.226666c-1.962667-1.237333-4.522667-0.789333-5.973334-0.789334-1.898667-1.941333-3.968-2.837333-6.101333-4.416-5.397333-0.448-11.84 0.341333-16.725333-1.344l-1.898667-2.112c-0.426667-1.408-1.365333-3.093333-2.133333-3.093333-0.853333-3.797333-1.984-6.890667-2.410667-10.24-1.536-0.362667-1.536-2.56-1.877333-3.626667-1.706667-0.341333-2.496-1.152-3.776-1.152-1.109333-1.664-2.325333-3.264-3.178667-5.034666a8.746667 8.746667 0 0 0-4.032-5.994667c-1.536-1.237333-1.109333-4.416-2.325333-5.226667l-1.194667-0.874666c-1.706667-1.237333-1.365333-3.541333-1.706667-5.205334-3.093333-2.048-3.861333-4.608-5.76-6.464-1.365333-0.789333-1.365333-3.349333-2.218666-3.797333-1.109333-1.664-3.861333-1.237333-4.629334-3.178667-2.496 0.64-4.053333-0.426667-6.101333 0.64-1.109333 1.216-2.048 2.112-3.264 2.112a16.981333 16.981333 0 0 0-7.530667-3.989333c-2.666667-0.341333-4.906667 0.448-7.296-0.789333-2.24 1.237333-5.162667 0.789333-7.125333 0.789333-2.325333 0.448-3.093333 1.856-4.906667 1.856-2.304 0.362667-2.645333 2.474667-4.608 2.474667a19.52 19.52 0 0 0-7.125333 1.237333l-0.853333 0.896-0.512 1.237333-2.325334 0.341334c-1.194667 1.066667-1.194667 2.730667-1.621333 3.626666-1.130667 1.237333-1.898667 2.026667-3.264 2.026667l-3.178667 0.426667c-1.109333 1.706667-1.877333 3.456-3.093333 4.778666v2.389334l2.666667 3.626666c2.389333 0 4.117333 0.426667 5.994666 0.426667l0.853334 0.810667c0.789333 2.922667-0.341333 5.205333 0.362666 7.765333l-1.216 2.56c-0.682667 0.896-2.474667 2.666667-2.901333 3.2 0 2.026667 0 4.138667-1.130667 5.034667l-1.194666 0.853333c-1.877333 3.626667-2.666667 7.786667-4.458667 10.453333-0.768 3.797333 0 6.890667-1.536 10.24-2.773333 3.178667-5.674667 5.546667-7.552 8.576-0.853333 1.322667-2.410667 1.322667-3.626667 1.834667-5.205333 0-9.685333-0.512-14.293333 0l-1.045333 0.896c-1.536 3.712-4.202667 6.442667-4.629334 10.666667l-1.194666 0.896c-1.045333 3.989333-2.581333 6.464-2.922667 10.432l-1.194667 1.237333c-0.789333 4.586667-1.898667 9.898667-1.898666 14.293333 0.341333 2.133333 1.557333 2.496 1.898666 3.733334l0.768 0.874666 2.389334 1.856a12.885333 12.885333 0 0 0 6.016-1.493333l3.264-2.474667h4.693333l2.154667 1.664c1.642667 1.237333 3.093333 0.810667 4.288 1.237334 2.133333-1.237333 3.008-3.349333 5.333333-3.349334l1.536-2.56c1.706667-1.408 4.544-1.856 6.016-0.981333l1.194667 2.752 2.474666 1.237333c1.642667 2.112 2.773333 4.416 4.736 4.842667 1.28 1.237333 1.28 2.837333 2.816 2.837333 0.853333 1.685333 2.069333 2.197333 2.069334 3.968l-1.557334 1.685334c-4.544-0.362667-8.405333 0.874667-12.096 0.874666l-2.730666 2.048h-6.016c-3.776 2.730667-5.312 6.528-8.405334 8.213334h-3.690666a5.589333 5.589333 0 0 0-3.157334 2.282666l-0.426666 0.810667c0 3.797333-1.706667 5.824-2.154667 9.002667a11.114667 11.114667 0 0 1-6.101333 2.474666l-1.536 1.685334c-2.304 1.066667-3.84 1.066667-6.08 1.856-2.666667 3.349333-4.650667 5.034667-7.125334 7.317333l-2.410666 1.237333-0.768 1.322667c-1.536 0.810667-1.877333 2.048-3.690667 2.048-7.552 2.282667-14.506667-2.474667-21.696-1.237333-2.325333 0.789333-3.434667 1.664-4.629333 2.453333-0.426667 2.304-1.706667 2.304-2.922667 2.752-0.426667 3.712 0 6.805333-0.426667 10.24 1.194667 3.882667 3.776 6.442667 4.970667 8.917333l1.898667 2.304v1.322667a4.096 4.096 0 0 1-2.666667 2.56c-1.194667 1.6-1.194667 3.882667-2.496 5.12-1.621333 0.448-2.389333 0.448-3.52 0.448a44.181333 44.181333 0 0 0-5.994667 6.101333c-0.853333 2.026667-1.109333 3.712-2.410666 4.586667-4.885333 1.066667-8.576 1.493333-15.424 1.066667-3.52 0.874667-7.552 0.874667-10.666667 0.874666-5.632 1.685333-12.074667 2.133333-18.176 4.16l-1.962667 2.133334a70.613333 70.613333 0 0 1-6.016 1.408l-1.536 2.112c-1.536 0.426667-2.304 0.874667-3.776 0.874666-3.349333 2.922667-7.210667 5.12-11.413333 6.464-2.56-0.448-2.986667-2.048-4.544-2.474666-5.226667-0.448-9.6 0.341333-14.4-0.448-1.642667-2.645333-4.544-3.882667-5.248-6.442667-3.498667-2.304-6.421333-0.896-9.6-2.304-0.341333-1.685333-1.109333-2.474667-1.109333-3.797333-1.642667-1.322667-3.264-2.133333-4.970667-3.626667h-4.821333c-2.304-0.341333-2.645333-2.026667-4.266667-2.474667-9.706667 0-18.197333-2.026667-27.648-1.578666l-2.133333-1.685334c-5.824-1.493333-11.072-2.730667-16.725334-2.730666-2.325333-0.448-2.325333-2.474667-4.48-2.133334-1.962667-0.704-3.157333-2.026667-4.266666-2.474666-0.426667-2.282667-1.984-2.282667-1.984-3.626667v-2.453333c-1.365333-1.237333-1.792-2.666667-2.474667-3.541334 0.341333-2.474667-1.642667-3.349333-1.216-5.034666l-2.389333-3.541334c-0.341333-2.986667 0-6.976-1.386667-9.002666-0.682667-1.237333-2.389333-1.237333-3.413333-1.685334h-1.130667c-2.56-1.237333-2.56-4.757333-4.970667-5.205333-0.341333-1.770667-1.109333-3.797333-1.109333-5.290667-4.053333-1.706667-6.016-5.397333-9.536-6.272h-2.56c-3.861333-3.456-9.536-3.904-14.506667-5.226666l-1.877333-1.664a16.682667 16.682667 0 0 1-9.706667-3.093334 29.354667 29.354667 0 0 1-0.341333-10.24c3.264-3.2 3.776-7.338667 4.8-10.88-2.389333-4.586667-0.426667-10.24-3.072-14.229333l-1.386667-0.874667c-1.109333-3.712-0.768-8.128-1.109333-11.392-1.194667-0.896-1.194667-2.645333-1.621333-3.541333-2.325333-0.341333-2.666667-2.816-4.544-3.797333-1.472-0.426667-2.325333 0.874667-3.434667 0.426666a18.944 18.944 0 0 1-4.992-2.453333c-0.768-2.304-1.962667-3.541333-3.413333-3.989333a12.608 12.608 0 0 0-4.117334-4.416c-1.984-5.376 0.341333-11.818667-1.557333-16.234667-5.653333-2.56-12.522667 0.341333-18.176 1.856-1.642667 1.216-1.642667 2.56-2.666667 3.797333l-0.426666 1.322667c-1.194667 1.664-2.56 2.112-4.544 2.645333-1.536 0.426667-3.413333 0-4.629334 0.426667 0 2.048-2.837333 1.6-3.264 2.496-2.325333 3.349333-1.898667 8.213333-1.536 11.477333-1.557333 1.066667-1.130667 4.416-2.581333 4.757334a14.677333 14.677333 0 0 1-7.210667 1.706666l-4.266666-1.258666h-1.130667c-2.56-0.426667-3.264-2.901333-4.8-3.264-4.053333-0.874667-6.016-3.968-9.109333-3.968-2.218667 0.874667-2.56 2.730667-4.544 3.178666-1.621333 1.578667-0.768 4.053333-2.730667 4.48-1.386667 2.325333-2.133333 4.778667-2.922667 6.549334a7.488 7.488 0 0 0-2.752 3.2l-0.682666 2.453333-2.218667 1.685333c-1.216 3.541333-0.789333 6.101333-1.216 8.917334l-1.109333 1.856h-9.685334c-4.821333-5.205333-12.096-1.856-17.770666-2.730667-2.218667 0.426667-2.218667 3.178667-4.202667 3.178667-1.365333 2.133333 0.341333 4.138667-1.706667 4.949333-0.341333 9.706667-0.341333 19.52-0.768 28.522667l-0.789333 0.704h-1.109333c-1.536 1.152-1.536 3.093333-2.922667 3.093333l-2.389333 2.218667c0.768 5.205333-2.325333 9.365333-3.861334 12.885333l-2.24 1.237333c-3.84-0.426667-7.552 1.685333-10.624 2.922667-7.637333-0.874667-14.506667-3.264-21.717333-0.874667-2.133333 2.56-5.653333 2.112-8.149333 2.112-1.536 0.874667-3.157333 0.874667-3.52 1.856l-1.109334 2.56c-2.922667 0.874667-3.690667 2.474667-5.994666 3.712-2.410667-0.362667-4.053333 0.341333-6.016-0.362666-0.768-1.664-2.389333-3.264-4.032-3.264-3.52 0.362667-6.250667-1.322667-9.6-1.322667l-2.325334 1.322667c-3.690667 0.362667-6.421333-0.426667-9.685333 0.874666-2.410667 2.922667-4.714667 3.989333-6.869333 5.226667l-0.341334 1.237333c-1.536 0.874667-1.877333 2.133333-3.52 2.133334a16.085333 16.085333 0 0 0-0.426666 10.410666c-1.194667 2.133333-2.56 2.901333-3.776 4.245334L128 382.293333l0.682667 2.666667c1.642667 0.789333 2.24 2.56 2.922666 3.264 3.178667 1.856 5.397333 0.426667 8.405334 1.856 1.194667 0.874667 1.194667 2.56 1.621333 3.797333 0 1.664 0.341333 3.968 0.341333 5.205334-0.768 2.986667-1.962667 4.245333-2.730666 6.528v5.12l-0.768 0.810666c-2.922667 1.493333-5.333333 1.856-6.869334 3.626667a10.709333 10.709333 0 0 0 0 5.205333c2.752 2.026667 3.946667 3.712 6.421334 4.949334 1.984 1.685333 2.410667 4.757333 4.394666 5.653333 1.962667 6.442667 0 13.333333 1.962667 19.349333l0.938667 0.874667c2.410667 0.789333 2.752 2.133333 4.629333 2.56 3.349333 3.882667 6.016 8.576 9.792 10.688H162.133333c1.130667 2.752 4.373333-0.341333 4.373334 2.752-0.170667 7.253333 1.472 14.293333 4.650666 20.672-1.130667 2.901333-2.325333 4.586667-3.52 6.698667 0.768 5.653333 2.389333 11.669333 2.389334 18.986666l-1.194667 1.770667c-2.325333-0.426667-2.752-2.112-4.117333-3.434667h-1.109334c-2.410667 0.874667-3.178667 2.026667-4.629333 2.986667-1.045333 1.6 0 3.904-1.045333 5.226667 1.045333 8.106667-0.768 15.466667 1.045333 23.232 2.304 0.874667 3.157333 3.349333 4.202667 4.778666l2.56 0.426667c2.133333 3.2 4.544 6.186667 7.125333 8.938667 1.536 1.664 1.984 4.842667 3.178667 6.442666 2.56 3.52 4.8 7.253333 6.762666 11.136 1.642667 1.130667 3.776 1.130667 4.565334 2.282667 2.304-0.704 3.072-2.730667 4.629333-3.968 1.706667-0.426667 2.56-0.426667 3.690667-0.426667 7.552 6.698667 13.717333 14.826667 18.261333 24 1.813333 1.706667 4.544 1.706667 6.101333 2.666667l2.474667 1.664 2.069333 2.048c0.341333 2.112 0 5.290667 1.109334 6.442667l2.410666 1.322666 1.28 2.474667c1.962667 1.066667 3.84 1.493333 5.482667 2.304a10.602667 10.602667 0 0 1 0.512 3.797333c0.789333 1.664 1.130667 2.026667 1.898667 3.093334 2.304 0.789333 3.84 2.026667 6.08 2.453333 0.789333 2.474667 1.557333 3.818667 2.325333 5.226667 2.752 1.237333 5.994667 1.237333 8.405333 1.237333 1.450667 0.789333 2.069333 2.133333 3.690667 2.133333 3.946667 0.768 8.32 3.157333 11.84 3.946667l3.776 2.133333h5.994667c1.898667 0.789333 2.325333 3.264 3.861333 3.712 2.496 0.426667 4.117333-1.152 6.101333-1.685333 3.264 3.968 0 10.517333 2.901334 13.781333 1.557333 0.362667 3.52 1.322667 4.736 1.322667 1.706667-0.874667 3.242667-0.874667 3.669333-1.685333 0.789333-2.453333 1.984-3.968 1.984-6.186667 1.109333-2.026667 3.690667-3.264 5.333333-5.12h7.104l2.410667 2.304c2.901333 0.789333 6.421333 1.237333 8.490667 2.474667l1.194666 2.474666 2.410667 1.493334 1.109333 2.474666c1.792 0.981333 3.264 2.56 4.117334 4.416 2.56 1.493333 4.906667 3.456 6.869333 5.845334 0.341333 2.730667-0.426667 4.416 0.341333 6.528l2.730667 3.2c4.736 1.386667 9.6 1.493333 14.421333 0.341333 2.133333-0.362667 2.496-1.856 3.776-2.304h2.304c1.984-0.426667 2.410667-1.685333 3.776-2.133333l0.789334-1.216c3.84-1.685333 8.32-1.237333 10.282666-4.330667 2.56-1.322667 4.544-3.008 6.016-4.16l2.389334-0.874667h1.365333c2.325333-0.362667 3.008-1.856 4.736-1.856l2.901333-2.133333h4.714667c3.776 2.474667 6.357333 6.464 10.901333 8.128 3.178667-0.426667 7.210667 0.896 9.6-1.237333 0.853333-2.026667 3.264-4.757333 4.138667-5.994667 1.450667 0.341333 2.304 0 3.413333 0.341333 1.706667 4.693333 3.626667 9.28 5.674667 13.866667l2.474667 0.810667 1.557333 2.282666c0 2.474667 1.194667 4.16 0 8.576-0.426667 2.922667-1.109333 5.034667-0.768 7.68a13.952 13.952 0 0 1-2.581333 5.034667c0 2.389333 0 4.416-1.109334 5.226667-2.325333 1.237333-3.861333 3.52-5.248 5.205333-3.498667 1.237333-5.056 5.205333-6.762666 7.338667v2.474666c-0.768 2.474667-3.52 2.112-3.861334 4.416a64 64 0 0 0 0.682667 16.682667l1.621333 1.237333c4.544 1.322667 9.706667-1.237333 13.312 0.896l1.109334 2.730667c0 2.837333 0.426667 4.949333 0.426666 7.68 1.024 3.008 2.922667 3.797333 3.776 5.845333 1.877333 1.066667 3.52 1.493333 4.544 2.816-1.365333 2.026667 0.341333 4.053333-1.792 5.034667 0 3.2-0.426667 5.205333-0.426666 7.68 0.426667 2.304 1.621333 2.752 2.218666 3.989333 1.109333 1.237333 2.24 1.578667 3.093334 2.474667 1.365333 0 2.645333 0.512 3.776 1.408 0.426667 2.026667 1.536 2.474667 2.304 2.986667 1.130667 0.810667 1.130667 3.370667 1.898666 3.818666 1.194667 0.96 2.304 2.197333 3.349334 3.434667 1.962667 1.322667 4.373333 0.896 5.909333 0.896 2.56-0.896 1.706667-3.797333 4.032-3.797333l0.853333 0.874666c0.853333 2.56 1.557333 4.16 1.898667 6.272 2.901333 0.618667 2.133333 3.178667 4.117333 4.416 1.536 0.362667 2.304 0.789333 3.690667 0.789334 2.389333-0.426667 2.730667-2.56 4.693333-2.026667 3.712-5.76 0.362667-12.992 1.130667-18.986667 1.365333-1.685333 3.349333-1.322667 4.906667-1.685333 1.877333 0.426667 4.437333 0.426667 5.973333 0.426667l1.130667-2.453334a5.269333 5.269333 0 0 1 3.690666-1.322666c6.08 2.474667 12.352 0.341333 17.92 2.474666 2.133333-0.362667 2.581333-1.685333 3.776-2.133333 2.752 0 6.357333 0.896 8.32-0.874667 1.216-2.645333 4.202667-3.541333 5.333334-5.12 0.853333-2.56 3.84-3.626667 4.373333-5.76 4.202667 2.666667 8.576 4.778667 13.205333 6.549334 1.536 0 3.776-0.362667 4.8-0.362667l1.194667 0.810667c0.704 3.52-0.768 6.890667-0.341333 9.813333 0.789333 1.834667 0.789333 3.52 1.557333 3.968 2.133333 2.901333 4.8 4.757333 6.336 7.253333 1.984 1.216 4.544 0.853333 6.101333 0.853334 3.349333 1.706667 5.333333 2.922667 8.405334 3.989333 2.837333 0 4.8 0 7.296-0.618667 2.474667-0.874667 1.706667-3.349333 4.373333-3.349333 2.816 0 5.653333 0.341333 8.405333 1.237333 0.768 1.664 2.389333 2.112 3.264 3.093334 2.389333 0.426667 3.946667 0.426667 5.909334 0.853333l0.512 0.896c0.341333 1.6 0.341333 3.626667 0.768 5.12l1.216 1.344c0.341333 3.264 2.304 4.928 2.304 7.68 0.768 1.685333 2.410667 2.56 3.264 3.797333 1.621333 0.874667 3.52 1.237333 4.629333 1.685334l0.768 1.066666-1.109333 2.197334-2.389334 0.341333c-1.898667-0.341333-1.898667-1.664-3.690666-1.664-2.666667 1.322667-4.288 2.133333-7.210667 2.133333-4.714667 2.901333-8.405333 6.421333-11.84 9.344 0.426667 2.304-1.813333 3.2-2.133333 4.416-0.362667 2.986667 0.768 5.205333 0.768 7.765334l1.024 0.896c1.109333 1.664 0.768 3.264 1.109333 4.757333l1.194667 1.344c1.557333 1.237333 3.434667 0.853333 4.821333 1.237333l0.853333 1.216c1.877333 0.810667 3.84 1.237333 4.544 2.133334l0.085334 0.085333h8.149333c0.682667-1.237333 3.093333-0.874667 3.413333-2.474667a14.954667 14.954667 0 0 0 6.869334-2.922666l1.130666-2.645334 2.474667-1.237333c1.984-2.986667 0.426667-7.317333 0.789333-10.24 1.877333-2.304 3.157333-4.416 4.629334-5.653333l2.474666-0.896c0.768-1.664 0.768-3.968 0.768-5.205334l-1.536-2.026666c-5.226667-1.856-9.770667 0.426667-14.4-1.856v-1.152c0.768-1.941333 3.413333-1.493333 3.84-2.730667 0-2.474667 1.984-4.245333 1.984-6.464-0.768-2.453333-1.621333-3.797333-2.325333-5.034667l-1.28-0.789333 1.28-2.282667c1.557333-0.448 2.325333-0.896 3.690667-0.896 1.898667-0.341333 2.325333-1.578667 3.626666-2.026666l1.109334-1.237334a19.52 19.52 0 0 1 6.762666-0.426666c2.496-1.429333 3.776-3.989333 6.016-4.437334 1.365333 0 2.645333-0.426667 3.776-1.237333l1.109334-2.026667c3.605333-1.066667 7.978667 0 10.709333-2.304 0.362667-2.133333 1.706667-2.133333 1.706667-3.797333a6.421333 6.421333 0 0 1 4.650666-3.178667h3.690667l1.962667-1.578666c0.789333-1.322667 0.789333-3.008 1.557333-3.456l2.133333 0.896c0.426667 1.664 0 2.474667 0.426667 3.797333l1.130667 0.426667c2.389333-0.341333 3.178667-1.664 4.693333-2.112l1.301333 0.789333c3.946667-1.237333 6.442667-5.205333 9.6-6.08l1.216-1.237333c2.837333-1.706667 4.8-0.448 7.125334-0.896l3.328-2.816c4.736 0.341333 9.536-0.896 12.373333-4.416h1.28c2.304-1.706667 5.056-3.797333 5.056-7.338667 1.450667-2.474667 4.906667-2.474667 5.653333-5.205333h3.776l0.789334-0.810667c-0.426667-2.133333-2.922667-1.237333-2.496-2.986667l1.024-0.896c1.557333-0.341333 2.325333-1.237333 3.434666-1.237333 3.349333-2.645333 4.032-6.442667 6.784-8.106667l1.962667-1.514666c0-1.685333-0.768-3.712 0-4.949334l1.706667-2.304c2.410667-0.426667 3.968 0.362667 5.845333-0.426666l2.133333-1.706667c1.92-1.664 1.92-5.973333 3.968-7.317333l2.133334-1.664c0.768-1.706667 0-2.56 0.768-3.989334l0.768-0.789333 1.130666-0.426667 0.853334-0.896c0.768-3.370667 2.325333-5.205333 3.264-7.786666 0-3.797333-1.386667-6.890667-0.341334-10.24 1.450667-0.341333 1.450667-2.645333 1.450667-3.541334 0.853333-1.237333 2.410667-1.237333 3.178667-1.664 0.853333-1.685333 0.853333-3.882667 0.853333-5.226666 0.341333-2.453333 1.706667-3.264 1.706667-4.928 0.362667-3.2 1.984-3.989333 1.984-6.549334 1.536-3.968 3.84-7.338667 4.373333-11.733333 2.410667-2.048 2.752-4.864 4.373333-6.826667 1.898667-0.853333 3.690667-1.664 4.8-2.453333l0.768-1.237333c0-3.989333-1.877333-8.576 0-11.754667l1.216-3.712c0.341333-5.76-1.216-10.517333-1.984-15.552a23.594667 23.594667 0 0 1-7.552-6.805333c-2.901333-0.426667-6.08 0.810667-8.405333 0l-0.938667-0.874667 1.365334-2.304h3.52c1.898667-0.426667 2.325333-1.664 3.690666-2.112 2.325333-2.474667 5.504-3.712 6.869334-6.442667l-1.365334-3.008a17.365333 17.365333 0 0 1-5.504-5.205333c0-2.922667-1.706667-5.653333-2.474666-7.68l-2.410667-2.496a28.693333 28.693333 0 0 0-3.690667-7.68c-1.962667-3.626667-5.141333-3.626667-6.784-5.738667l-0.341333-1.237333c0.789333-6.442667-1.962667-12.096-2.389333-18.197333l-2.752-3.349334c-0.341333-2.048 0-5.226667-1.365334-6.464l-2.325333-1.237333c-1.109333-2.730667-3.52-1.237333-5.333333-3.52-2.218667-0.426667-5.376 0.341333-7.189334-1.237333-0.768-2.133333-3.093333-1.685333-3.093333-4.245334 1.130667-1.856 1.557333-3.541333 2.752-3.882666 0.341333-2.474667 2.069333-2.986667 3.349333-4.245334 1.962667-5.205333 5.568-7.338667 8.832-10.069333 0.597333-1.770667 1.365333-3.434667 2.325334-5.034667l1.365333-0.874666c1.536-1.685333 1.109333-4.608 1.877333-6.272l0.789334-1.066667c1.962667-1.237333 4.885333-0.426667 6.08-1.685333l0.426666-1.237334c5.141333-2.645333 9.706667-6.442667 13.226667-11.114666l-0.853333-2.666667c-1.728-0.874667-2.154667-2.112-3.712-2.112-1.536 0.426667-2.389333 0-3.413334 0.426667-3.008 0-4.224-2.112-6.016-2.112l-1.194666 0.810666c-2.56-1.237333-4.117333-2.304-6.101334-2.304l-2.474666-3.349333c-6.016-0.362667-11.157333 3.968-14.506667 7.68l-2.325333 0.426667c-1.621333 3.626667-4.544 6.016-6.762667 8.128-1.642667 0-2.325333-0.853333-3.690667-0.853334l-1.194666-2.496 2.133333-1.237333v-6.101333a13.738667 13.738667 0 0 0-8.576-5.994667c-2.666667-0.426667-5.994667 0.341333-8.405333-0.426667-1.450667-2.133333-3.093333-3.626667-3.861334-6.122666 0.768-2.026667-1.365333-4.138667 0.768-5.205334 0.682667-0.874667 2.410667-1.237333 3.434667-1.237333 1.621333 0.426667 2.56 0.789333 3.776 0.789333 2.410667-0.426667 3.178667-1.578667 4.629333-1.578666 1.813333-2.133333 3.349333-3.349333 4.906667-4.864-0.426667-2.133333 1.109333-2.133333 0.746667-3.712 1.706667-3.712 3.946667-7.146667 6.442666-10.24 3.690667-1.493333 6.016-3.2 8.32-4.416 0.426667-1.685333 1.365333-2.56 1.365334-3.797334 1.130667-1.856 2.410667-2.304 2.773333-3.626666 1.088-2.474667 1.429333-4.778667 3.413333-6.442667 1.706667-0.362667 2.56-0.789333 3.690667-0.789333 2.389333-0.448 2.752-2.474667 4.970667-2.133334a20.352 20.352 0 0 1 1.109333 6.442667c-1.536 1.344-1.109333 4.16-2.474667 5.034667l-1.898666 1.429333c-2.304 6.805333 1.642667 14.485333-1.536 20.565333l-1.621334 1.706667a7.125333 7.125333 0 0 1-1.130666 3.968c0.768 2.56 1.898667 2.901333 2.410666 4.757333 3.52 0 5.226667-2.304 8.32-3.093333 1.109333-1.237333 1.536-2.474667 2.304-3.349333h1.28c1.130667-0.896 1.130667-2.752 1.557334-3.626667l2.410666-2.474667c0.341333-1.685333 1.109333-2.56 1.109334-3.968 1.792-1.685333 2.133333-2.56 2.922666-3.797333 0.426667-1.685333 1.194667-2.56 1.194667-3.989333 1.536-2.112 3.093333-2.474667 4.8-3.349334 6.016 0.256 11.946667-1.856 16.384-6.016v-1.237333a11.392 11.392 0 0 1 5.333333-5.738667c1.109333-1.664 0-4.138667 3.498667-5.994666l0.789333-2.474667c0.426667-3.008 3.776-3.797333 3.776-6.549333v-1.237334c0.426667-2.026667 1.536-2.474667 1.877334-3.797333l1.877333-2.282667v-1.237333c0.96-2.474667 1.706667-3.797333 2.581333-5.226667 0.768-1.237333 2.325333-1.237333 3.52-1.664 5.994667 1.237333 11.242667 2.645333 16.896 1.237334l2.410667-1.685334c0.682667-2.133333 1.877333-2.56 1.877333-4.864-0.768-1.664-1.962667-2.026667-1.962666-3.797333 2.730667-3.968 6.08-6.976 8.832-9.813333 2.133333-3.52 2.922667-6.954667 4.906666-9.173334 1.344 0.085333 2.56 0.618667 3.669334 1.493334l0.768 2.474666c1.557333 0.448 2.410667 0.448 3.52 0l0.768-0.874666c2.133333-3.626667 1.109333-6.805333 2.133333-10.432 1.92-2.133333 3.2-4.586667 4.650667-6.272-1.557333-6.08-0.341333-12.544-3.605334-16.96 0-4.586667-3.264-6.805333-4.117333-10.24 0-1.6-1.109333-3.882667-1.109333-5.205334 1.109333-2.56 4.032-2.922667 5.312-4.608l0.341333-2.645333c4.714667-2.56 9.6-2.197333 14.421333-1.685333 0.768-2.112 1.194667-2.901333 2.304-3.349334 1.216-1.493333 1.642667-3.968 2.24-5.205333 1.536-13.333333-1.386667-27.562667 1.536-39.936l1.194667-1.066667a11.626667 11.626667 0 0 0-0.426667-10.24c0.789333-2.474667 0-4.138667 0-6.442666a8.128 8.128 0 0 1 2.410667-3.712c0.426667-1.941333 0.426667-2.730667 0-3.968z" fill="#4EACFF" p-id="1929"></path><path d="M466.816 384.768l-22.656-5.909333-5.504-3.2-15.466667 17.258666 31.445334 22.997334-2.816 3.370666 10.090666 8.448 0.405334 4.650667 6.186666-0.554667 2.816-3.349333 1.685334 1.408-0.277334-3.093333 10.816-0.938667 3.498667 4.352-1.002667 6.336-7.189333 6.848 16.128 6.378667 0.554667 6.186666 4.629333-0.426666 5.034667 4.245333 3.093333-0.277333 2.816-3.349334-3.349333-2.816 7.466666-3.776 6.442667 2.56 5.76-5.184 7.616-2.218666 3.626667 5.909333-3.968 8.128-5.909334 3.626667 0.810667 9.28 12.906667 5.098666 13.504-5.845333 4.224-5.056-1.066667-12.373333 2.56-6.442667 1.664 1.408-0.277333-3.093333 4.501333-1.941334 5.056 4.224 0.256 3.093334-5.354667 9.813333 4.906667 2.688 6.186667-0.533333 0.256 3.093333 7.872 0.853333 0.256 3.093334 7.744-0.661334 1.130666-4.778666 4.501334-1.962667-1.941334-4.48 11.136-14.997333-1.685333-1.408 1.706667 1.408 2.794666-3.370667-1.664-1.408 3.349334 2.816 3.093333-0.256 4.245333-5.056 3.349334 2.816 4.224-5.034667 1.706666 1.408 8.170667-13.162666 3.370667 2.816 5.76-5.184 4.778666 1.130666 5.909334-3.626666-4.437334-15.189334 4.501334-1.941333 2.282666-9.536 3.093334-0.277333 3.349333 2.816-1.130667 4.778666 4.778667 1.130667 7.189333-6.848 3.349334 2.816 4.245333-5.034667 1.664 1.408 4.373333-3.498666-0.533333-6.186667 6.186667-0.533333 4.352-3.498667 3.626666 5.909333-1.408 1.685334 3.370667 2.816 1.408-1.685334 1.066667 12.373334 10.965333 0.597333 2.816-3.370667-0.810667-9.28-3.349333-2.816 2.816-3.349333 8.405333 7.04 0.277334 3.093333 8.448-10.090666 1.706666 1.408 4.202667-5.034667 6.186667-0.533333 8.746666-6.997334 4.757334 1.130667 8.746666-6.976-0.277333-3.093333-5.034667-4.245334 3.072-0.256-0.256-3.093333-5.866666-13.504-10.261334 7.125333-4.053333-10.56 2.56-6.442666-8.682667-10.154667 1.152-4.757333 3.349334 2.816 4.501333-1.941334 5.056 4.224-0.554667-6.186666 4.373334-3.498667-2.090667-6.037333 7.466667-3.776-1.962667-4.48-3.093333 0.256 1.706666 1.408-2.837333 3.349333-3.221333-1.28-0.277334-3.072-6.72-5.653333 1.130667-4.757334 11.690667-8.810666 8.32-11.648 3.904 9.002666 1.493333-18.816 5.888-3.626666-2.624-12.224 8.789333-24.128-10.346666-11.562667-4.373334 3.498667 0.277334 3.093333-23.189334 2.026667-5.589333-10.410667 0.874667-7.872-3.093334 0.277333-5.034666-4.224-4.224 5.034667-6.741334-5.632 5.376-9.813333-1.941333-4.501334-7.68 1.408-1.408 2.602667-2.730667 0.512-1.066666 2.858667-1.877334 2.218666-4.565333 1.024-3.733333 4.757334 0.725333 2.432 1.877333 3.157333 6.912 0.661333 0.64 9.088-3.882666 5.226667-0.661334 4.117333-1.706666 1.621334-4.565334 10.538666-0.469333 3.754667-0.853333 5.568-5.802667 7.061333-2.602667 3.413334-3.434666 1.557333-13.952-0.618667-6.826667 11.605334-3.52 13.290666 0.533333 6.186667-2.965333 1.813333 0.426667 4.629334 4.522666 7.722666 8.682667-4.309333 5.802667 0.064 2.922666 2.026667 3.392 0.981333 2.858667-2.986667 2.133333-0.213333 1.493334-2.816 2.688-1.664 3.264 1.258667 1.6 2.538666 2.282666 1.344 3.434667 3.626667 4.202667 3.669333 3.029333 2.624-1.706667 2.496-13.461333 0.938667-3.029333 2.858667-5.866667-0.021334-7.04 8.042667-4.245333-0.341333-2.944 1.728-3.008 10.837333-6.037334 2.581333-8.277333 3.093334-3.968 5.589333-8.789333 6.677333-13.44-1.024-10.581334-0.426666-5.653333 5.269333-0.298667 12.373333 6.762667 8.405334-6.570667 10.176-6.122666 2.709333-4.437334 9.045333-16.170666-0.170666-10.538667 1.493333-15.573333 2.88-13.504 5.845333-12.842667 7.893334-3.946667-1.728-2.602666-1.173334-13.504-0.298666-4.778667-6.336-8.896-2.581334-1.941333-4.053333-5.184-3.562667-4.544 0.597334-4.138667-2.986667-28.032-1.536zM472.426667 629.546667l7.765333 15.488 13.973333-4.650667v-12.416l7.744-7.744v-6.208l1.557334 1.557333 3.093333-3.114666-1.536-1.557334 6.186667-3.093333v6.186667h3.114666l-3.093333 3.114666 3.093333 3.114667 9.301334-3.114667 1.557333 4.650667h10.88v-6.186667l-6.229333-3.114666-1.536 1.557333v-3.114667l4.650666-4.650666 4.650667 4.650666-1.557333-6.186666h-6.186667V601.6l-6.229333-6.186667 6.208-4.693333-1.536-4.629333-1.557334 1.536 4.650667-4.650667 4.650667 3.114667 4.650666-1.557334v3.093334l4.672 1.557333 6.186667-10.858667 6.208-1.557333v-6.186667l6.208-4.672-3.093333-6.186666h3.093333v-3.114667h-6.186667l-4.672-3.114667-1.536 1.557334v-3.093334l-4.672 1.536-1.536-4.650666-10.88 1.557333v-3.093333h-3.093333l-3.093333 3.093333-1.557334-4.650667-1.557333 4.650667h-9.301333l-4.650667-4.650667 1.536-4.650666-3.093333-6.208-10.88-1.557334-4.629334-7.765333-7.765333 4.672 3.093333 6.186667-7.744 7.765333-1.642666-6.464-1.472 6.464-1.578667-3.242667-4.629333 0.149334 1.557333 7.744-7.573333 3.328-3.242667-3.242667-4.48 1.472 1.045333-1.856-2.816-3.072-2.901333 3.477333-4.565333-1.493333-6.464-6.293333-4.693334-10.986667-7.68-3.050667-4.650666 6.293334 2.816 6.165333-2.816 4.693333 0.448 2.496 0.96 5.12 9.386666 4.693334 6.186667 12.437333-3.093333 3.093333 4.650666 6.208 3.114667 32.576 3.093333 4.672v-6.208l3.114667-3.114666 6.186667 6.208-1.536 4.650666 4.650666 4.650667 3.114667-3.093333 6.186667 10.88z" fill="#85C6FF" p-id="1930"></path><path d="M492.586667 494.549333v-6.208l-9.28-15.509333-1.557334 1.536-3.114666-3.093333h-6.186667L469.333333 465.066667l-1.557333 1.557333-7.744-6.208v3.093333h-3.114667l-12.416-12.416h-3.093333l-1.557333 3.114667-3.093334-3.114667-3.114666 4.672-7.744-6.208h-6.208l1.536 7.744-4.650667 4.672v3.093334l-3.093333-1.557334-3.114667 3.114667-6.186667-4.650667-13.973333 1.536-3.114667-7.744-4.650666 1.536-3.093334-3.093333h-6.208v-3.114667l-4.650666-1.536-16.426667 4.458667-8.533333 4.544 3.456 5.482667-4.266667 5.397333-3.498667-0.298667-0.213333 3.690667 10.858667 9.301333-7.765334 4.650667v3.114667l4.672 1.536v4.672l-3.114666 3.093333-9.301334-3.093333-3.114666 3.093333h-6.186667l6.186667 3.093333-4.650667 7.765334v3.114666l4.650667 4.650667v9.301333l-3.093334 3.114667 9.301334 10.858667 6.208 3.093333 4.650666-1.557333 12.416 6.208 13.973334 1.557333 3.093333 3.093333 12.416-3.093333 10.858667 7.765333-1.557334 3.093334 3.114667 3.114666 4.650667-1.557333 3.093333 3.093333 1.557333-4.650666 6.208 3.114666-1.557333-4.672 1.557333 1.557334 4.650667-1.557334 1.557333-4.650666 1.557334 1.557333-1.557334-4.650667h3.093334l-1.536-7.765333 3.093333-4.650667-3.093333-6.208 4.650666-6.186666 7.744 3.093333 4.672 10.858667 6.186667 6.186666 4.672 1.557334 3.093333-3.093334 3.114667 3.093334-1.557333 1.557333 4.650666-1.557333 3.114667 3.114666 7.744-3.114666-1.557333-7.744h4.672l1.536 3.093333 1.557333-6.186667-6.186667-3.114666-6.229333-7.765334 3.114667-3.093333 7.744 4.650667 7.765333-3.114667-4.650667-4.650667v-3.093333l6.186667-6.208-1.536-1.557333 6.186667-3.093334-1.536-3.114666 4.650666-4.650667-1.536-4.650667h-1.557333z" fill="#FFCC66" p-id="1931"></path><path d="M439.744 376.106667l-4.48-8.874667-3.2-8.554667-1.472-6.72-0.64-2.944-4.181333-1.557333-5.888-6.4-0.597334-4.266667-6.912-5.482666-4.757333-0.362667-8.597333-4.074667-5.674667-1.28-5.376-1.834666-5.824-2.730667-1.130667-2.88-0.234666-4.501333 0.213333-3.221334 3.328-4.309333 1.706667-6.101333-1.536-5.12-0.405334-5.952-1.941333-4.053334-1.536-5.888-0.597333-5.866666-1.706667-3.562667-3.072-3.093333-1.6-0.64-3.2 0.149333-3.861333-1.749333-2.133334-3.328-1.834666-0.981334a22.805333 22.805333 0 0 0-2.197334-2.986666 14.805333 14.805333 0 0 0-2.474666-1.984l-0.554667-1.962667 0.042667-7.317333-0.384-4.629334-0.96-2.389333-5.290667-0.810667-3.690667 0.469334-3.456 0.810666a13.866667 13.866667 0 0 0-5.546666 2.410667c-1.984 1.6-1.557333 3.2-2.88 4.394667a11.84 11.84 0 0 1-2.218667 1.536l-3.136 1.365333-3.456 0.064-1.066667 1.536-2.56 0.576-1.642666 5.12 0.213333 6.72-1.728 4.778667-5.546667 1.642666-2.88 0.064-3.413333-0.917333-5.674667-3.456-8.426666-3.925333-4.352 1.408-2.773334 5.162666-2.56 3.626667-2.069333 4.053333-3.264 5.546667-2.218667 1.301333-1.088 8.917334-1.152 2.304-3.541333-0.064-2.88 0.106666-2.176-0.042666-2.282667-1.066667-2.496-1.813333-9.066666-0.32-5.546667 0.234666-3.626667 2.986667-0.810666 4.224-0.896 1.109333-0.426667 12.970667-0.064 3.072-0.298667 5.44 0.064 5.909333-0.853333 1.877334-1.472-0.021334-1.642667 2.645334-3.477333 2.496a15.488 15.488 0 0 1-1.408 7.936c-0.64 1.109333-1.194667 3.626667-2.048 4.544-1.28 1.429333-2.773333 1.109333-2.794667 1.493333-0.064 0.853333-1.216 0.426667-1.92 0.32-2.154667-0.256-5.056 0.682667-8.704 2.858667l-2.986666-0.597334-11.754667-1.536-6.549333 0.917334a6.208 6.208 0 0 1-1.984 1.621333 7.914667 7.914667 0 0 1-2.730667 0.490667l-3.861333 0.341333a7.466667 7.466667 0 0 0-2.88 1.386667l-1.621334 2.645333-5.888 3.733333-6.186666-0.341333-2.922667-2.837333-6.144-0.704-4.16-1.066667-2.368 1.536-2.773333 0.085333-2.773334-0.064-1.834666 0.149334-2.56 0.768a7.978667 7.978667 0 0 1-2.282667 2.517333 24.512 24.512 0 0 1-4.437333 2.282667l-1.024 2.005333-2.816 1.706667a8.96 8.96 0 0 0-1.408 4.458666 17.024 17.024 0 0 0 0.917333 5.738667l-3.626667 4.352-1.024 2.517333 0.597334 2.645334 1.536 1.301333 1.749333 2.474667 4.778667 0.469333 3.136 0.682667 1.301333 2.090666 0.554667 5.909334-0.554667 3.818666-1.92 3.498667 0.213333 5.824-2.048 0.981333-5.674666 2.837334 17.152 2.773333 2.389333 3.669333-3.136 7.253334 3.904 4.010666 1.834667-1.194666 10.538666 10.176 7.893334 0.085333-1.28 6.08 2.389333 3.690667-2.154667 2.709333 7.808 8 12.8-0.448 3.114667-7.253333 5.205333-2.090667 0.64-3.029333 17.578667 6.912 9.194667-5.973334 3.029333 0.64 3.584 5.525334 7.253333 3.114666 19.84-3.712 2.389334 3.690667 4.885333-0.554667 9.194667-5.973333 6.08 1.28 5.184-2.069333 27.605333 5.44 13.866667 9.301333 3.690666-2.389333 8.469334 4.970666 4.309333-5.418666-3.584-5.546667 8.896-4.437333-7.189333-11.050667 1.941333-9.088-4.864 0.533333-0.554667-4.864 28.928-1.792 13.077334-24.170666 9.429333 0.426666 10.837333-13.077333 10.709334-5.653333 3.050666 0.64 0.853334 3.370666 4.010666-3.925333 3.029334 0.64 5.845333-5.098667 1.216-1.642666 3.669333-2.389334 3.370667-0.874666z" fill="#85C6FF" p-id="1932"></path><path d="M668.821333 737.152l3.946667-3.328-1.877333-2.026667 3.946666-4.032 8.576 0.362667 3.904-0.149333 0.170667 3.733333 10.282667-1.749333-0.853334-2.986667 1.493334 0.021333 1.962666-1.045333-1.216-18.026667v-8.704l4.842667-2.197333h-4.842667l2.410667-6.528-4.842667-4.352v-13.056h-4.842666v-4.352l2.410666-6.528 7.274667-2.176-2.410667-2.176 4.842667-4.352v-8.725333l-7.253333-6.528-2.453334 2.176-2.410666-15.232-9.706667 6.528-2.410667-6.528-4.864 4.352h-9.685333l-7.274667-6.528L631.253333 618.666667v8.704h-19.413333l-4.821333 8.704v23.957333l4.842666 8.704-4.842666 4.352-2.432-2.176v4.352l-7.274667 4.352 12.117333-2.176 4.842667 4.352v4.352h-4.842667l-2.410666 6.528 12.117333 10.88v-6.528l9.685333 4.373333 4.864-6.549333h14.528l-2.410666 6.549333h4.842666l-9.706666 19.584 9.706666-4.352V725.333333l13.76 8.192 4.394667 3.626667z" fill="#FFCC66" p-id="1933"></path><path d="M677.653333 777.429333l1.152-1.578666c0.32-1.408 0.789333-2.218667 1.365334-2.410667 0.597333-0.213333 1.28 0.042667 2.090666 0.746667l0.277334 3.52 1.28 0.512 4.714666-2.090667c0.170667 0.554667 0.448 0.874667 0.810667 0.981333 0.362667 0.085333 2.517333-1.28 6.485333-4.16l3.818667-2.517333 2.965333-1.813333 4.138667-0.32 4.352-1.728 6.229333-1.749334 3.626667-1.066666 1.962667-2.304 4.736-2.261334 1.322666-3.2 1.322667-2.773333 4.48-3.072 0.298667-0.938667 4.394666-0.533333-1.6-3.882667-8.384-2.026666 2.090667-1.856-4.181333-3.712h-8.405334v5.568h-4.181333l-2.112-3.712-16.789333 5.568-4.181334-3.712 8.384-7.424-2.090666-3.712-10.496 1.856v-3.712h-12.586667l-4.202667 3.712-2.090666-1.856 4.181333 3.712-4.181333 3.712-4.202667-3.712-8.405333 1.856 2.112 1.856-4.202667 3.712v11.136l-10.496 9.28 2.112 5.546666-6.293333 7.424-6.314667 1.856-2.090667 5.568h-4.202666l-2.090667 5.568-2.090667-1.856-4.202666 5.546667-2.090667-1.834667 2.090667 5.546667-4.202667 7.445333 4.202667 11.114667 6.101333 2.773333 1.92 0.213334 3.285333-1.621334 2.474667-6.592-2.624-5.056c-0.789333 0.704-1.237333 0.490667-1.344-0.64-0.085333-0.746667 0.725333-2.005333 1.92-2.752a5.141333 5.141333 0 0 1 1.898667-0.512c-2.773333 1.365333-1.962667 1.237333 2.346666-0.341333 2.154667-0.789333 2.261333-2.090667 5.525334-3.370667 0.896-0.362667 2.901333 0.298667 4.629333-0.234666a11.157333 11.157333 0 0 0 4.992-3.776 10.197333 10.197333 0 0 0 3.925333-0.853334c1.109333-0.533333 1.92-1.642667 2.346667-3.328l5.610667-0.384 5.098666-1.578666 1.493334-2.901334a4.949333 4.949333 0 0 1 0.810666-1.642666 13.312 13.312 0 0 1 1.813334-1.856l3.989333-0.597334 3.157333-0.768z" fill="#85C6FF" p-id="1934"></path></svg>