<?xml version="1.0" encoding="UTF-8"?>
<svg width="1024px" height="1024px" viewBox="0 0 1024 1024" version="1.1" xmlns="http://www.w3.org/2000/svg" xmlns:xlink="http://www.w3.org/1999/xlink">
    <title>组合图</title>
    <defs>
        <linearGradient x1="100%" y1="50%" x2="0%" y2="50%" id="linearGradient-1">
            <stop stop-color="#E5E5E7" offset="0%"></stop>
            <stop stop-color="#C7C6CA" offset="100%"></stop>
        </linearGradient>
        <linearGradient x1="50%" y1="100%" x2="50%" y2="0%" id="linearGradient-2">
            <stop stop-color="#C7C6CA" offset="0%"></stop>
            <stop stop-color="#E5E5E7" offset="100%"></stop>
        </linearGradient>
        <linearGradient x1="50%" y1="100%" x2="50%" y2="0%" id="linearGradient-3">
            <stop stop-color="#C7C6CA" offset="0%"></stop>
            <stop stop-color="#E5E5E7" offset="100%"></stop>
        </linearGradient>
        <linearGradient x1="50%" y1="100%" x2="50%" y2="0%" id="linearGradient-4">
            <stop stop-color="#C7C6CA" offset="0%"></stop>
            <stop stop-color="#E5E5E7" offset="100%"></stop>
        </linearGradient>
        <linearGradient x1="50%" y1="100%" x2="50%" y2="0%" id="linearGradient-5">
            <stop stop-color="#C7C6CA" offset="0%"></stop>
            <stop stop-color="#E5E5E7" offset="100%"></stop>
        </linearGradient>
        <linearGradient x1="50%" y1="0%" x2="50%" y2="100%" id="linearGradient-6">
            <stop stop-color="#FEC08B" offset="0%"></stop>
            <stop stop-color="#FA8334" offset="100%"></stop>
        </linearGradient>
    </defs>
    <g id="页面-1" stroke="none" stroke-width="1" fill="none" fill-rule="evenodd">
        <g id="组合图" fill-rule="nonzero">
            <polygon id="路径" fill="url(#linearGradient-1)" points="0 917.735849 1024 917.735849 1024 1024 0 1024"></polygon>
            <g id="编组-138" transform="translate(93.090909, 338.113208)">
                <polygon id="路径" fill="url(#linearGradient-2)" points="0 295.178197 112.152382 295.178197 112.152382 531.320755 3.73542467e-14 531.320755"></polygon>
                <polygon id="路径" fill="url(#linearGradient-3)" points="448.609524 177.106918 560.761903 177.106918 560.761903 531.320755 448.609524 531.320755"></polygon>
                <polygon id="路径" fill="url(#linearGradient-4)" points="672.914283 59.0356398 785.066668 59.0356398 785.066668 531.320755 672.914283 531.320755"></polygon>
                <polygon id="路径" fill="url(#linearGradient-5)" points="224.304762 0 333.653333 0 333.653333 531.320755 224.304762 531.320755"></polygon>
            </g>
            <polygon id="路径备份-37" fill="url(#linearGradient-6)" points="541.803325 424.293307 314.099044 236.992755 156.713714 382.246162 93.0909091 290.506815 307.40172 91.7393476 548.500648 286.684958 970.423771 0 1024 99.3844055"></polygon>
        </g>
    </g>
</svg>