<svg t="1650267262715" class="icon" viewBox="0 0 1024 1024" version="1.1" xmlns="http://www.w3.org/2000/svg" p-id="4276" width="128" height="128"><path d="M836.367 796.384H971.17V11.636H836.367v784.748z m-240.716 0h134.802V363.086H595.65v433.298z m-240.723 0h134.803V252.358H354.928v544.026z m-240.718 0h134.804v-284.05H114.21v284.05z m0 0" fill="#706EE7" p-id="4277"></path><path d="M932.655 131.994c4.814 0 9.631 4.819 14.445 4.819 14.445 9.625 19.258 28.884 9.626 43.328l-14.44 14.445c-62.59 28.883-129.99 48.14-192.575 72.211-28.89 14.445-48.146 33.703-62.59 57.774-24.071 48.146-48.142 101.105-72.213 154.06-9.631 19.258-24.076 38.516-38.515 52.96-43.333 38.515-101.106 57.773-158.88 52.96-19.256 0-43.327-9.632-62.585-14.445-9.626-4.814-19.257-9.626-33.701-14.445-62.587-28.884-134.804 0-168.5 62.59-14.445 24.071-24.077 52.955-33.703 77.03 0 4.814-4.814 9.627-9.631 14.44-9.626 4.819-19.258 9.631-28.884 4.819-9.631 0-19.257-9.631-24.07-19.258-4.82-9.631-4.82-19.258 0-24.076 9.625-24.07 24.07-52.954 33.696-77.03 9.632-19.258 24.075-38.515 38.515-52.955 43.334-43.333 96.288-62.592 158.879-57.773 24.07 0 43.329 9.626 67.399 19.257 9.631 4.814 19.258 9.627 33.703 14.44 14.443 4.818 28.883 9.63 43.327 9.63 38.515 4.814 72.218-9.63 101.102-33.7 9.631-9.627 19.257-24.071 28.888-38.516 24.07-48.142 48.14-101.1 72.217-154.06 14.439-28.884 38.515-57.774 67.399-77.032 9.63-4.812 24.07-14.443 33.701-19.257l187.763-72.217h9.627" fill="#29C287" p-id="4278"></path></svg>