<?xml version="1.0" encoding="UTF-8"?>
<svg width="1252px" height="1024px" viewBox="0 0 1252 1024" version="1.1" xmlns="http://www.w3.org/2000/svg" xmlns:xlink="http://www.w3.org/1999/xlink">
    <title>翻牌器</title>
    <defs>
        <linearGradient x1="50%" y1="0%" x2="50%" y2="100%" id="linearGradient-1">
            <stop stop-color="#E5E5E7" offset="0.0737543706%"></stop>
            <stop stop-color="#C5C4C8" offset="100%"></stop>
        </linearGradient>
        <linearGradient x1="50%" y1="0%" x2="50%" y2="100%" id="linearGradient-2">
            <stop stop-color="#FEBF8A" offset="0%"></stop>
            <stop stop-color="#FA8334" offset="100%"></stop>
        </linearGradient>
        <linearGradient x1="50%" y1="0%" x2="50%" y2="100%" id="linearGradient-3">
            <stop stop-color="#FEBF8A" offset="0%"></stop>
            <stop stop-color="#FA8334" offset="100%"></stop>
        </linearGradient>
    </defs>
    <g id="页面-1" stroke="none" stroke-width="1" fill="none" fill-rule="evenodd">
        <g id="翻牌器" transform="translate(0.000000, 0.000000)" fill-rule="nonzero">
            <path d="M0,0 L0,1024 L1251.55556,1024 L1251.55556,0 L0,0 Z M1126.4,895.999999 L125.155557,895.999999 L125.155557,127.999999 L1126.4,127.999999 L1126.4,895.999999 L1126.4,895.999999 Z" id="形状" fill="url(#linearGradient-1)"></path>
            <path d="M585.102222,390.399999 C585.102222,367.999999 588.231111,355.199998 591.36,345.6 C597.617778,339.199999 600.746667,336 610.133333,336 C619.52,336 625.777778,339.199999 628.906667,345.6 C632.035556,348.799999 635.164444,361.6 635.164444,374.399999 C635.164444,393.599999 628.906667,412.799999 616.391111,447.999999 C613.262222,457.599999 607.004444,467.199999 600.746667,479.999999 L713.386667,479.999999 C725.902222,448 732.16,419.2 732.16,390.399999 C732.16,351.999999 722.773333,323.199999 700.871111,297.6 C678.968889,272.000001 647.68,262.399999 607.004444,262.399999 C585.102222,262.399999 566.328889,265.599999 550.684444,271.999999 C535.039999,278.399999 525.653333,294.399999 513.137778,307.2 C503.751111,323.2 497.493333,339.199999 494.364444,355.2 C491.235556,371.2 491.235556,390.399999 491.235556,419.199999 L491.235556,438.399999 L585.102222,438.399999 L585.102222,390.399999 L585.102222,390.399999 Z M682.097778,543.999999 L566.328889,543.999999 C547.555556,582.4 519.395556,630.4 488.106666,691.2 L488.106666,764.8 L722.773333,764.8 L722.773333,681.6 L600.746667,681.6 C638.293333,623.999999 663.324444,579.199999 682.097778,543.999999 Z M250.311112,406.399999 C256.568889,409.599999 262.826667,415.999999 262.826667,425.599999 C265.955555,435.199999 265.955555,454.399999 265.955556,483.199999 L369.208889,483.199999 L369.208889,262.399999 L306.631111,262.399999 C281.6,300.799999 244.053333,329.599999 193.991112,342.399999 L193.991112,399.999999 L203.377778,399.999999 C228.408889,396.799999 244.053333,399.999999 250.311112,406.399999 L250.311112,406.399999 Z M265.955556,543.999999 L369.208889,543.999999 L369.208889,764.8 L265.955556,764.8 L265.955556,543.999999 Z" id="形状" fill="url(#linearGradient-2)"></path>
            <path d="M935.537778,377.599999 C935.537778,358.399999 935.537778,348.799999 938.666667,342.399999 C941.795556,339.199999 944.924444,335.999998 951.182222,336 C957.44,336.000001 960.568889,339.199999 963.697778,342.399999 C966.826667,345.599998 969.955556,358.399999 969.955556,374.399999 L969.955556,399.999999 C969.955556,419.199999 969.955556,428.799999 966.826667,435.199999 C963.697778,441.599999 960.568889,444.799999 957.44,451.199999 C954.311111,457.6 935.537778,454.399999 916.764444,454.399999 L916.764444,479.999999 L1026.27556,479.999999 C1038.79111,470.399999 1051.30667,454.399999 1057.56444,444.799999 C1063.82222,435.199999 1063.82222,415.999999 1063.82222,387.199999 C1063.82222,348.799999 1057.56444,313.599999 1041.92,294.399999 C1026.27556,271.999999 994.986667,262.399999 951.182222,262.399999 C916.764444,262.399999 888.604444,268.8 872.96,288 C857.315556,304 851.057778,336 851.057778,380.799999 L851.057778,419.199999 L938.666667,419.199999 L938.666667,377.599999 L935.537778,377.599999 Z M960.568889,543.999999 L963.697778,547.199999 C966.826667,553.6 969.955556,569.599999 969.955556,585.6 L969.955556,617.6 C969.955556,649.6 969.955556,668.8 966.826667,675.2 C966.826667,681.6 960.568889,684.8 954.311111,684.8 C948.053333,684.8 944.924444,684.8 941.795556,678.4 C938.666667,678.4 938.666667,662.4 938.666667,643.2 L938.666667,563.199999 L844.8,563.199999 L844.8,601.6 C844.8,649.6 847.928889,681.6 851.057778,697.6 C857.315556,716.8 869.831111,729.6 885.475556,745.6 C904.248889,755.2 926.151111,764.8 954.311111,764.8 C979.342222,764.8 1001.24444,758.4 1016.88889,745.6 C1032.53333,735.999999 1041.92,719.999999 1051.30667,697.6 C1057.56444,675.2 1060.69333,646.4 1060.69333,607.999999 C1060.69333,582.4 1060.69333,559.999999 1057.56444,543.999999 L960.568889,543.999999 Z" id="形状" fill="url(#linearGradient-3)"></path>
        </g>
    </g>
</svg>