<?xml version="1.0" encoding="UTF-8"?>
<svg width="1024px" height="1024px" viewBox="0 0 1024 1024" version="1.1" xmlns="http://www.w3.org/2000/svg" xmlns:xlink="http://www.w3.org/1999/xlink">
    <defs>
        <linearGradient x1="50%" y1="0%" x2="50%" y2="100%" id="linearGradient-1">
            <stop stop-color="#E5E5E7" offset="0%"></stop>
            <stop stop-color="#C7C6CA" offset="100%"></stop>
        </linearGradient>
        <linearGradient x1="50%" y1="0%" x2="50%" y2="99.923514%" id="linearGradient-2">
            <stop stop-color="#FEC08B" offset="0%"></stop>
            <stop stop-color="#FA8334" offset="99.923514%"></stop>
        </linearGradient>
    </defs>
    <g id="页面-1" stroke="none" stroke-width="1" fill="none" fill-rule="evenodd">
        <g id="编组-84">
            <rect id="矩形备份-30" x="0" y="0" width="1024" height="1024"></rect>
            <path d="M512,152.843275 C765.960916,152.843275 973.833333,364.483305 973.833333,623.18233 L973.833333,625.799917 C973.356079,709.533387 950.349724,790.428921 908.50364,861.785301 L908.203667,862.293275 L834.314667,821.785275 L834.595412,821.324667 C869.854073,762.901043 888.262063,695.630098 888.262063,623.183455 C888.262063,410.869884 720.668156,240.238322 512,240.238322 C303.331465,240.238322 135.736832,410.87027 135.736832,623.18458 L135.742823,625.44678 C136.122158,697.029507 154.511974,763.506605 189.403357,821.325127 L189.683667,821.786275 L115.795667,862.293275 L115.496346,861.78528 C73.214222,789.685418 50.1666667,707.847904 50.1666667,623.183455 C50.1666667,364.484211 258.0393,152.843275 512,152.843275 Z" id="路径" fill="url(#linearGradient-1)" fill-rule="nonzero"></path>
            <path d="M575.694843,844.386303 C585.752854,805.9459 605.866667,456.490093 605.866667,456.490093 C605.866667,456.490093 455.009761,771.001125 444.953959,809.441529 C434.895948,847.880781 455.010865,886.322336 491.887293,893.310139 C528.762615,903.794723 565.640147,882.826707 575.695948,844.386303 L575.694843,844.386303 Z" id="路径" fill="url(#linearGradient-2)" fill-rule="nonzero"></path>
        </g>
    </g>
</svg>