<?xml version="1.0" encoding="UTF-8"?>
<svg width="1307px" height="1025px" viewBox="0 0 1307 1025" version="1.1" xmlns="http://www.w3.org/2000/svg" xmlns:xlink="http://www.w3.org/1999/xlink">
    <title>仪表盘</title>
    <defs>
        <linearGradient x1="50%" y1="0%" x2="50%" y2="100%" id="linearGradient-1">
            <stop stop-color="#E5E5E7" offset="0%"></stop>
            <stop stop-color="#C7C6CA" offset="100%"></stop>
        </linearGradient>
        <linearGradient x1="50%" y1="0%" x2="50%" y2="99.923514%" id="linearGradient-2">
            <stop stop-color="#FEC08B" offset="0%"></stop>
            <stop stop-color="#FA8334" offset="99.923514%"></stop>
        </linearGradient>
    </defs>
    <g id="页面-1" stroke="none" stroke-width="1" fill="none" fill-rule="evenodd">
        <g id="仪表盘" transform="translate(1.000000, 1.000000)" fill-rule="nonzero">
            <path d="M139.780633,652.320884 C139.780633,368.095707 368.092636,139.783704 652.317813,139.783704 C936.54299,139.783704 1164.85345,368.095707 1164.85345,652.319348 C1164.85345,754.82709 1136.89764,848.016228 1085.64223,927.224381 L1206.78872,992.457698 C1267.3612,894.609261 1304.63563,778.122071 1304.63563,652.317813 C1304.63563,293.543784 1011.09337,0 652.317813,0 C293.542248,0 0,293.545319 0,652.319348 C0,778.123606 37.2744261,894.609261 97.8469039,992.457698 L218.99186,927.225917 C167.737989,848.014692 139.780633,754.828626 139.780633,652.320884 Z" id="路径" stroke="url(#linearGradient-1)" fill="url(#linearGradient-1)"></path>
            <path d="M740.84611,955.181738 C754.825554,903.927864 782.781375,437.986791 782.781375,437.986791 C782.781375,437.986791 573.108121,857.334837 559.131747,908.588705 C545.152302,959.841043 573.109657,1011.09645 624.363527,1020.41352 C675.615865,1034.39296 726.871275,1006.43561 740.847646,955.181738 L740.84611,955.181738 Z" id="路径" fill="url(#linearGradient-2)"></path>
        </g>
    </g>
</svg>