<?xml version="1.0" standalone="no"?><!DOCTYPE svg PUBLIC "-//W3C//DTD SVG 1.1//EN" "http://www.w3.org/Graphics/SVG/1.1/DTD/svg11.dtd"><svg class="icon" width="200px" height="200.00px" viewBox="0 0 1024 1024" version="1.1" xmlns="http://www.w3.org/2000/svg"><path d="M102.4 128v768h819.2V128H102.4z m555.8784 192h204.8v132.9152h-204.8V320zM365.7216 836.9152h-204.8v-135.8592h204.8v135.8592z m0-194.944h-204.8V512h204.8v129.9712z m0-189.056h-204.8V320h204.8v132.9152z m234.0608 384H424.192v-135.8592h175.5648v135.8592z m0-194.944H424.192V512h175.5648v129.9712z m0-189.056H424.192V320h175.5648v132.9152z m263.296 384h-204.8v-135.8592h204.8v135.8592z m0-194.944h-204.8V512h204.8v129.9712z" fill="#5D7092" /><path d="M102.4 128v204.8h819.2V128z" fill="#0B69E6" /></svg>