<svg t="1651725667700" class="icon" viewBox="0 0 1024 1024" version="1.1" xmlns="http://www.w3.org/2000/svg" p-id="3393" width="128" height="128"><path d="M117.333333 85.333333a32 32 0 0 1 32 32v757.333334h757.333334a32 32 0 0 1 0 64H117.333333a32 32 0 0 1-32-32V117.333333a32 32 0 0 1 32-32z" fill="#5580B9" p-id="3394"></path><path d="M560 416c-41.6 0-69.333333 27.733333-69.333333 69.333333s27.733333 69.333333 69.333333 69.333334 69.333333-27.733333 69.333333-69.333334-27.733333-69.333333-69.333333-69.333333zM746.666667 629.333333c-51.2 0-85.333333 34.133333-85.333334 85.333334s34.133333 85.333333 85.333334 85.333333 85.333333-34.133333 85.333333-85.333333-34.133333-85.333333-85.333333-85.333334z" fill="#9EBBE2" p-id="3395"></path><path d="M757.333333 213.333333c-39.818667 0-74.666667 34.848-74.666666 74.666667s34.848 74.666667 74.666666 74.666667 74.666667-34.848 74.666667-74.666667-34.848-74.666667-74.666667-74.666667zM336 341.333333c28.8 0 48-19.2 48-48S364.8 245.333333 336 245.333333 288 264.533333 288 293.333333s19.2 48 48 48zM357.333333 554.666667c-54.048 0-101.333333 47.285333-101.333333 101.333333s47.285333 101.333333 101.333333 101.333333 101.333333-47.285333 101.333334-101.333333-47.285333-101.333333-101.333334-101.333333z" fill="#5580B9" p-id="3396"></path></svg>