<?xml version="1.0" encoding="UTF-8"?>
<svg width="1024px" height="1024px" viewBox="0 0 1024 1024" version="1.1" xmlns="http://www.w3.org/2000/svg" xmlns:xlink="http://www.w3.org/1999/xlink">
    <title>分面散点图</title>
    <defs>
        <linearGradient x1="50%" y1="0%" x2="50%" y2="100%" id="linearGradient-1">
            <stop stop-color="#E5E5E7" offset="0%"></stop>
            <stop stop-color="#C7C6CA" offset="100%"></stop>
        </linearGradient>
        <linearGradient x1="50%" y1="0%" x2="50%" y2="100%" id="linearGradient-2">
            <stop stop-color="#FEC08B" offset="0%"></stop>
            <stop stop-color="#FA8334" offset="100%"></stop>
        </linearGradient>
        <linearGradient x1="50%" y1="0%" x2="50%" y2="100%" id="linearGradient-3">
            <stop stop-color="#E5E5E7" offset="0%"></stop>
            <stop stop-color="#C7C6CA" offset="100%"></stop>
        </linearGradient>
        <linearGradient x1="50%" y1="0%" x2="50%" y2="100%" id="linearGradient-4">
            <stop stop-color="#FEC08B" offset="0%"></stop>
            <stop stop-color="#FA8334" offset="100%"></stop>
        </linearGradient>
    </defs>
    <g id="页面-1" stroke="none" stroke-width="1" fill="none" fill-rule="evenodd">
        <g id="分面散点图" fill-rule="nonzero">
            <g id="散点图-(5)">
                <polygon id="路径" fill="url(#linearGradient-1)" points="432.097646 452.20438 0 452.20438 0 0 37.3887601 0 37.3887601 413.856823 432.097646 413.856823"></polygon>
                <path d="M72.0162745,339.153285 C72.0162745,359.965416 88.1376667,376.836983 108.024412,376.836983 C127.911156,376.836983 144.032549,359.965416 144.032549,339.153285 C144.032549,318.341153 127.911156,301.469587 108.024412,301.469587 C88.1376667,301.469587 72.0162745,318.341153 72.0162745,339.153285 Z" id="路径" fill="url(#linearGradient-2)"></path>
                <path d="M72.0162745,150.734793 C72.0162745,192.359057 104.259058,226.10219 144.032549,226.10219 C183.806039,226.10219 216.048823,192.359057 216.048823,150.734793 C216.048823,109.110529 183.806039,75.3673968 144.032549,75.3673968 C104.259058,75.3673968 72.0162745,109.110529 72.0162745,150.734793 Z" id="路径" fill="url(#linearGradient-3)"></path>
                <path d="M216.048823,263.785888 C216.048823,284.59802 232.170215,301.469587 252.05696,301.469587 C271.943705,301.469587 288.065098,284.59802 288.065098,263.785888 C288.065098,242.973756 271.943705,226.10219 252.05696,226.10219 C232.170215,226.10219 216.048823,242.973756 216.048823,263.785888 Z" id="路径" fill="url(#linearGradient-4)"></path>
                <path d="M288.065098,150.734793 C288.065098,192.359057 320.307881,226.10219 360.081372,226.10219 C399.854862,226.10219 432.097646,192.359057 432.097646,150.734793 C432.097646,109.110529 399.854862,75.3673968 360.081372,75.3673968 C320.307881,75.3673968 288.065098,109.110529 288.065098,150.734793 Z" id="路径" fill="url(#linearGradient-3)"></path>
            </g>
            <g id="散点图-(5)" transform="translate(0.000000, 571.795620)">
                <polygon id="路径" fill="url(#linearGradient-1)" points="432.097646 452.20438 0 452.20438 0 0 37.3887601 0 37.3887601 413.856823 432.097646 413.856823"></polygon>
                <path d="M72.0162745,339.153285 C72.0162745,359.965416 88.1376667,376.836983 108.024412,376.836983 C127.911156,376.836983 144.032549,359.965416 144.032549,339.153285 C144.032549,318.341153 127.911156,301.469587 108.024412,301.469587 C88.1376667,301.469587 72.0162745,318.341153 72.0162745,339.153285 Z" id="路径" fill="url(#linearGradient-2)"></path>
                <path d="M72.0162745,150.734793 C72.0162745,192.359057 104.259058,226.10219 144.032549,226.10219 C183.806039,226.10219 216.048823,192.359057 216.048823,150.734793 C216.048823,109.110529 183.806039,75.3673968 144.032549,75.3673968 C104.259058,75.3673968 72.0162745,109.110529 72.0162745,150.734793 Z" id="路径" fill="url(#linearGradient-3)"></path>
                <path d="M216.048823,263.785888 C216.048823,284.59802 232.170215,301.469587 252.05696,301.469587 C271.943705,301.469587 288.065098,284.59802 288.065098,263.785888 C288.065098,242.973756 271.943705,226.10219 252.05696,226.10219 C232.170215,226.10219 216.048823,242.973756 216.048823,263.785888 Z" id="路径" fill="url(#linearGradient-4)"></path>
                <path d="M288.065098,150.734793 C288.065098,192.359057 320.307881,226.10219 360.081372,226.10219 C399.854862,226.10219 432.097646,192.359057 432.097646,150.734793 C432.097646,109.110529 399.854862,75.3673968 360.081372,75.3673968 C320.307881,75.3673968 288.065098,109.110529 288.065098,150.734793 Z" id="路径" fill="url(#linearGradient-3)"></path>
            </g>
            <g id="散点图-(5)" transform="translate(591.902354, 0.000000)">
                <polygon id="路径" fill="url(#linearGradient-1)" points="432.097646 452.20438 0 452.20438 0 0 37.3887601 0 37.3887601 413.856823 432.097646 413.856823"></polygon>
                <path d="M72.0162745,339.153285 C72.0162745,359.965416 88.1376667,376.836983 108.024412,376.836983 C127.911156,376.836983 144.032549,359.965416 144.032549,339.153285 C144.032549,318.341153 127.911156,301.469587 108.024412,301.469587 C88.1376667,301.469587 72.0162745,318.341153 72.0162745,339.153285 Z" id="路径" fill="url(#linearGradient-2)"></path>
                <path d="M72.0162745,150.734793 C72.0162745,192.359057 104.259058,226.10219 144.032549,226.10219 C183.806039,226.10219 216.048823,192.359057 216.048823,150.734793 C216.048823,109.110529 183.806039,75.3673968 144.032549,75.3673968 C104.259058,75.3673968 72.0162745,109.110529 72.0162745,150.734793 Z" id="路径" fill="url(#linearGradient-3)"></path>
                <path d="M216.048823,263.785888 C216.048823,284.59802 232.170215,301.469587 252.05696,301.469587 C271.943705,301.469587 288.065098,284.59802 288.065098,263.785888 C288.065098,242.973756 271.943705,226.10219 252.05696,226.10219 C232.170215,226.10219 216.048823,242.973756 216.048823,263.785888 Z" id="路径" fill="url(#linearGradient-4)"></path>
                <path d="M288.065098,150.734793 C288.065098,192.359057 320.307881,226.10219 360.081372,226.10219 C399.854862,226.10219 432.097646,192.359057 432.097646,150.734793 C432.097646,109.110529 399.854862,75.3673968 360.081372,75.3673968 C320.307881,75.3673968 288.065098,109.110529 288.065098,150.734793 Z" id="路径" fill="url(#linearGradient-3)"></path>
            </g>
            <g id="散点图-(5)" transform="translate(591.902354, 571.795620)">
                <polygon id="路径" fill="url(#linearGradient-1)" points="432.097646 452.20438 0 452.20438 0 0 37.3887601 0 37.3887601 413.856823 432.097646 413.856823"></polygon>
                <path d="M72.0162745,339.153285 C72.0162745,359.965416 88.1376667,376.836983 108.024412,376.836983 C127.911156,376.836983 144.032549,359.965416 144.032549,339.153285 C144.032549,318.341153 127.911156,301.469587 108.024412,301.469587 C88.1376667,301.469587 72.0162745,318.341153 72.0162745,339.153285 Z" id="路径" fill="url(#linearGradient-2)"></path>
                <path d="M72.0162745,150.734793 C72.0162745,192.359057 104.259058,226.10219 144.032549,226.10219 C183.806039,226.10219 216.048823,192.359057 216.048823,150.734793 C216.048823,109.110529 183.806039,75.3673968 144.032549,75.3673968 C104.259058,75.3673968 72.0162745,109.110529 72.0162745,150.734793 Z" id="路径" fill="url(#linearGradient-3)"></path>
                <path d="M216.048823,263.785888 C216.048823,284.59802 232.170215,301.469587 252.05696,301.469587 C271.943705,301.469587 288.065098,284.59802 288.065098,263.785888 C288.065098,242.973756 271.943705,226.10219 252.05696,226.10219 C232.170215,226.10219 216.048823,242.973756 216.048823,263.785888 Z" id="路径" fill="url(#linearGradient-4)"></path>
                <path d="M288.065098,150.734793 C288.065098,192.359057 320.307881,226.10219 360.081372,226.10219 C399.854862,226.10219 432.097646,192.359057 432.097646,150.734793 C432.097646,109.110529 399.854862,75.3673968 360.081372,75.3673968 C320.307881,75.3673968 288.065098,109.110529 288.065098,150.734793 Z" id="路径" fill="url(#linearGradient-3)"></path>
            </g>
        </g>
    </g>
</svg>