<?xml version="1.0" encoding="UTF-8"?>
<svg width="1186px" height="1024px" viewBox="0 0 1186 1024" version="1.1" xmlns="http://www.w3.org/2000/svg" xmlns:xlink="http://www.w3.org/1999/xlink">
    <title>ibs气泡地图</title>
    <defs>
        <linearGradient x1="50%" y1="100%" x2="50%" y2="0%" id="linearGradient-1">
            <stop stop-color="#FA8334" offset="0%"></stop>
            <stop stop-color="#FFB676" stop-opacity="0.09" offset="100%"></stop>
        </linearGradient>
        <linearGradient x1="50%" y1="100%" x2="50%" y2="0%" id="linearGradient-2">
            <stop stop-color="#FA8334" offset="0%"></stop>
            <stop stop-color="#FFB676" stop-opacity="0.09" offset="100%"></stop>
        </linearGradient>
    </defs>
    <g id="页面-1" stroke="none" stroke-width="1" fill="none" fill-rule="evenodd">
        <g id="ibs气泡地图" fill-rule="nonzero">
            <path d="M1185.16341,189.18134 L1185.16341,82.4174177 L1177.17784,82.4174177 L1149.57552,115.240111 C1145.58274,119.388033 1141.58995,119.388033 1137.77077,119.388033 L1125.966,119.388033 C1121.97322,119.388033 1114.16124,115.240111 1114.16124,111.092188 L1094.3709,94.6808425 C1090.37812,90.5329204 1086.38533,86.3849967 1082.56614,86.3849967 L1058.78302,86.3849967 C1054.79023,86.3849967 1046.97825,82.2370746 1042.98547,78.0891514 L999.585603,12.4437676 C995.592817,8.29584556 991.600031,4.14792208 987.78084,4.14792208 L960.178532,0 L952.192959,0 L908.793096,16.4113452 L908.793096,41.1185373 L900.807524,94.5004977 C900.807524,98.6484197 896.814732,102.615999 896.814732,102.615999 L888.82916,110.911843 C884.836374,115.059765 880.843582,115.059765 877.024396,115.059767 L869.038824,115.059767 C861.053246,115.059767 853.241274,119.207689 853.241274,127.32319 L845.255696,147.882458 C841.26291,160.145881 849.248482,172.589649 861.053246,172.589649 L880.843587,172.589649 L896.641132,160.326226 L908.445895,168.622071 C916.431468,176.917917 912.438682,193.329262 900.460323,197.296839 L864.872437,209.560264 L864.872437,234.267455 L829.284551,234.267455 L821.298974,258.974646 L789.703874,254.826724 C781.891902,254.826724 777.899116,258.974646 773.906324,263.122569 L765.920752,275.385992 L777.725515,287.649415 L746.130416,324.620029 C742.13763,328.767951 738.144843,328.767951 734.325652,328.767952 L686.933003,328.767952 C682.940217,328.767952 678.94743,328.767952 675.128239,332.915874 L663.323481,345.179298 C659.330695,349.32722 655.337903,349.32722 651.518717,349.327221 L616.278032,349.327221 C612.285241,349.327221 608.292454,349.327221 604.473269,345.179298 L580.690146,324.620029 C576.697355,324.620029 576.697355,320.472107 572.704569,320.472107 L485.731248,316.324185 C481.738462,316.324185 477.745673,312.176263 473.926485,308.028339 L426.533837,242.382956 C422.541051,238.235034 418.548262,234.08711 414.729075,234.08711 L410.736287,234.08711 C402.750712,234.08711 394.938737,225.791265 394.938738,217.675764 L394.938738,189.18134 L390.94595,164.474148 C390.94595,160.326226 386.953164,156.178302 382.960375,152.210725 L355.358065,152.210725 C351.365278,152.210725 347.37249,148.062803 347.37249,143.914879 L339.560515,119.207689 L319.770178,119.207689 L307.965416,135.619035 L288.175079,135.619035 L288.175079,156.178304 L248.594406,156.178304 C244.601619,156.178304 236.789644,160.326226 236.789644,164.474148 L221.165693,189.18134 C217.172906,193.329262 213.180118,197.477185 205.368144,197.477184 L185.577807,197.477184 C177.592233,197.477184 169.780257,205.77303 169.780257,213.888531 L169.780257,238.595722 C169.780257,242.743644 169.780257,246.891567 165.787471,246.891567 L153.982709,267.450836 C149.989922,271.598758 149.989922,275.746681 142.177947,275.746681 L98.7780845,288.010104 L31.5951002,288.010104 C27.6023134,288.010104 23.6095254,292.158026 19.7903368,292.158026 L7.9855748,308.569373 C0,320.832796 0,324.980719 0,329.128641 L0,349.68791 L15.7975501,349.68791 L15.7975501,415.333294 C15.7975501,419.481216 19.7903368,423.629139 23.6095254,427.596717 L51.2118374,452.303907 C55.2046242,456.451829 55.2046242,456.451829 55.2046242,460.599753 L63.1901987,489.274523 L63.1901987,542.656483 L47.3926489,542.656483 L47.3926489,575.479176 C47.3926489,579.627097 51.3854356,583.775019 51.385437,587.7426 L86.9733225,620.565287 L106.76366,620.565287 L189.744194,706.769946 L256.927179,735.444711 L268.731941,719.033365 L292.515065,719.033365 C300.50064,719.033365 304.319827,723.181287 308.312615,727.329214 L320.117377,752.036403 C324.110164,756.184324 328.102952,760.151906 335.914927,760.151906 L355.705264,760.151906 C359.698051,760.151906 359.698051,760.151906 363.690838,756.003979 L403.271511,731.29679 C407.264298,727.148868 415.076273,727.148868 419.069061,731.29679 L454.656947,747.708136 L454.656947,731.29679 L474.447283,731.29679 L482.432859,756.003979 L482.432859,792.974593 C482.432859,797.122515 482.432859,801.270442 478.440072,805.238018 L458.302536,825.256255 L458.302536,845.815523 L474.100084,849.963445 C478.092871,849.963445 485.904846,854.111366 485.904847,862.226869 L489.897634,874.490294 L489.897634,903.345405 L529.478308,932.020176 C533.471095,936.168097 537.463883,936.168097 537.463883,936.168097 L545.449456,936.168097 C553.435034,936.168097 561.247006,927.872254 561.247006,919.756751 C561.247006,911.641248 569.232583,903.345405 577.044555,903.345405 L616.278032,903.345405 C620.270818,903.345405 624.263605,903.345405 628.08279,899.197483 L639.887554,890.901635 C647.873132,886.753713 655.685104,886.753713 663.670676,895.049562 L691.27299,927.872254 C695.265776,932.020176 699.084967,936.168097 703.077753,936.168097 L750.470403,936.168097 L754.463189,956.727365 L726.860875,989.550058 L726.860875,1010.10933 L746.651211,1022.37275 C754.636789,1026.52067 766.441547,1022.37275 770.434339,1014.0769 L790.224675,985.402136 C794.217461,981.254215 794.217461,977.106288 794.217461,973.138712 L790.224675,944.46394 C790.224675,936.168097 794.217461,923.904673 802.029439,923.904673 L829.631747,915.60883 L837.617324,915.60883 L853.414874,919.756751 L873.20521,911.460908 L877.197996,890.901635 C877.197996,882.605792 885.183569,878.638216 889.00276,878.638216 L912.785882,870.342367 C916.778668,870.342367 916.778668,870.342367 920.771455,866.194445 L995.766418,796.401139 C999.759204,792.253217 999.759204,792.253217 999.759204,788.105296 L1011.56397,726.607832 C1011.56397,722.459911 1015.55675,718.311989 1019.54954,714.344413 L1039.33988,702.080988 C1043.33266,697.933067 1047.15185,689.817563 1047.15185,685.669642 L1039.33988,611.728414 C1039.33988,607.580492 1035.34709,603.432565 1031.3543,599.464989 L1015.55675,587.201564 C1011.56397,583.053643 1007.57118,578.905721 1007.57118,574.938139 L1003.57839,558.526796 C1003.57839,554.378874 999.585603,550.411295 995.592817,546.263373 L967.990504,521.556181 C960.004931,517.408259 960.004931,505.144834 963.997718,496.84899 L979.795267,468.17422 C979.795267,464.026298 983.788054,464.026298 987.78084,459.878375 L1019.37594,447.614952 L1019.37594,427.236028 L987.78084,427.236028 C983.788054,427.236028 975.976082,431.38395 971.983295,435.351529 L960.178532,451.762875 L948.373768,464.026298 L944.380982,443.46703 L916.778668,435.171184 L983.961654,344.81861 L991.947226,357.082033 L991.947226,382.149913 C991.947226,386.297835 991.947226,394.413336 995.940018,394.413336 L999.932804,398.561258 C1007.91838,402.70918 1015.73035,402.70918 1023.71593,398.561258 L1079.09415,341.031375 C1083.08694,336.883453 1083.08694,332.73553 1083.08694,324.620029 L1079.09415,308.208684 L1114.68203,304.060762 C1118.67483,304.060762 1122.66761,299.91284 1126.4868,299.912838 L1158.0819,267.090147 C1162.07468,262.942225 1166.06747,254.826724 1162.07468,246.530878 L1142.28435,201.444763 L1158.0819,185.033416 L1185.68421,185.033416 L1185.68421,189.18134 L1185.16341,189.18134 Z M991.600031,866.374791 C991.600031,870.522712 987.607245,870.522712 987.607245,874.670634 L987.607245,907.493326 C987.607245,911.641248 987.607245,915.789175 991.600031,919.756751 L1007.39758,944.46394 L1019.20234,928.052594 C1019.20234,923.904673 1023.19513,923.904673 1023.19513,919.756751 L1031.1807,833.552098 L1011.39037,833.552098 L991.600031,866.374791 L991.600031,866.374791 Z" id="形状" fill="#C7C6CA"></path>
            <rect id="矩形" fill="url(#linearGradient-1)" x="107.789474" y="111.977515" width="53.8947368" height="335.932546"></rect>
            <rect id="矩形备份-85" fill="url(#linearGradient-1)" x="754.526316" y="55.9887577" width="53.8947368" height="335.932546"></rect>
            <rect id="矩形备份-86" fill="url(#linearGradient-1)" x="538.947368" y="279.943789" width="53.8947368" height="335.932546"></rect>
            <rect id="矩形备份-87" fill="url(#linearGradient-1)" x="377.263158" y="559.887577" width="53.8947368" height="335.932546"></rect>
            <rect id="矩形备份-88" fill="url(#linearGradient-2)" x="700.631579" y="559.887577" width="53.8947368" height="279.943789"></rect>
            <rect id="矩形备份-89" fill="url(#linearGradient-2)" x="970.105263" y="391.921304" width="53.8947368" height="279.943789"></rect>
        </g>
    </g>
</svg>