<svg t="1649830978791" class="icon" viewBox="0 0 1024 1024" version="1.1" xmlns="http://www.w3.org/2000/svg" p-id="2317" width="128" height="128"><path d="M0 1024v-1024h1024v1024h-1024z m987.428571-36.571429v-950.857142h-950.857142v950.857142h950.857142z m-69.485714-457.142857v21.942857h-128v-32.914285h95.085714v-62.171429h32.914286v73.142857z m-193.828571 0v21.942857h-128v-32.914285h95.085714v-62.171429h32.914286v73.142857z m-256 0v21.942857h-128v-32.914285h95.085714v-62.171429h32.914286v73.142857z m-193.828572 0v21.942857h-128v-32.914285h95.085715v-62.171429h32.914285v73.142857z m-160.914285-416.914285h804.571428v146.285714h-804.571428v-146.285714z m0 219.428571h160.914285v32.914286h-160.914285v-32.914286z m0 32.914286h32.914285v95.085714h-32.914285V365.714286z m128 0h32.914285v95.085714h-32.914285V365.714286z m-95.085715 62.171428h95.085715v32.914286h-95.085715v-32.914286z m-32.914285 29.257143h32.914285v95.085714h-32.914285v-95.085714z m193.828571-124.342857h160.914286v32.914286h-160.914286v-32.914286z m0 32.914286h32.914286v95.085714h-32.914286V365.714286z m128 0h32.914286v95.085714h-32.914286V365.714286z m-95.085714 62.171428h95.085714v32.914286h-95.085714v-32.914286z m-32.914286 29.257143h32.914286v95.085714h-32.914286v-95.085714z m256-124.342857h160.914286v32.914286h-160.914286v-32.914286z m0 32.914286h32.914286v95.085714h-32.914286V365.714286z m131.657143 0h32.914286v95.085714h-32.914286V365.714286z m-98.742857 62.171428h95.085714v32.914286h-95.085714v-32.914286z m-32.914286 29.257143h32.914286v95.085714h-32.914286v-95.085714z m193.828571-124.342857h160.914286v32.914286h-160.914286v-32.914286z m0 32.914286h32.914286v95.085714h-32.914286V365.714286z m128 0h32.914286v95.085714h-32.914286V365.714286z m-95.085714 62.171428h95.085714v32.914286h-95.085714v-32.914286z m-32.914286 29.257143h32.914286v95.085714h-32.914286v-95.085714z m-256 65.828572h32.914286v32.914285h-32.914286v-32.914285z" p-id="2318"></path></svg>