<svg t="1649831032241" class="icon" viewBox="0 0 1024 1024" version="1.1" xmlns="http://www.w3.org/2000/svg" p-id="2463" width="128" height="128"><path d="M0 1024v-1024h1024v1024h-1024z m987.428571-36.571429v-950.857142h-950.857142v950.857142h950.857142z m-69.485714-676.571428v21.942857h-128v-32.914286h95.085714v-62.171428h32.914286v73.142857z m-193.828571 0v21.942857h-128v-32.914286h95.085714v-62.171428h32.914286v73.142857z m-256 0v21.942857h-128v-32.914286h95.085714v-62.171428h32.914286v73.142857z m-193.828572 0v21.942857h-128v-32.914286h95.085715v-62.171428h32.914285v73.142857z m-160.914285 307.2h548.571428v91.428571h-548.571428v-91.428571z m0-182.857143h804.571428v91.428571h-804.571428v-91.428571z m0-321.828571h160.914285v32.914285h-160.914285v-32.914285z m0 32.914285h32.914285v95.085715h-32.914285V146.285714z m128 0h32.914285v95.085715h-32.914285V146.285714z m-95.085715 62.171429h95.085715v32.914286h-95.085715v-32.914286z m-32.914285 29.257143h32.914285v95.085714h-32.914285v-95.085714z m193.828571-124.342857h160.914286v32.914285h-160.914286v-32.914285z m0 32.914285h32.914286v95.085715h-32.914286V146.285714z m128 0h32.914286v95.085715h-32.914286V146.285714z m-95.085714 62.171429h95.085714v32.914286h-95.085714v-32.914286z m-32.914286 29.257143h32.914286v95.085714h-32.914286v-95.085714z m256-124.342857h160.914286v32.914285h-160.914286v-32.914285z m0 32.914285h32.914286v95.085715h-32.914286V146.285714z m131.657143 0h32.914286v95.085715h-32.914286V146.285714z m-98.742857 62.171429h95.085714v32.914286h-95.085714v-32.914286z m-32.914286 29.257143h32.914286v95.085714h-32.914286v-95.085714z m193.828571-124.342857h160.914286v32.914285h-160.914286v-32.914285z m0 32.914285h32.914286v95.085715h-32.914286V146.285714z m128 0h32.914286v95.085715h-32.914286V146.285714z m-95.085714 62.171429h95.085714v32.914286h-95.085714v-32.914286z m-32.914286 29.257143h32.914286v95.085714h-32.914286v-95.085714z m-256 65.828571h32.914286v32.914286h-32.914286v-32.914286z m292.571429 314.514286h29.257143v113.371428h-29.257143v-113.371428z m-29.257143 29.257143h29.257143v29.257143h-29.257143v-29.257143z m54.857143 0h29.257143v29.257143h-29.257143v-29.257143z m29.257143 25.6h29.257143v29.257143h-29.257143v-29.257143z m-113.371429 0h29.257143v29.257143h-29.257143v-29.257143z m-621.714285 124.342857h475.428571v91.428571h-475.428571v-91.428571z m764.342857 54.857143h-29.257143v-29.257143h29.257143v29.257143z m-113.371429 0h-29.257143v-29.257143h29.257143v29.257143z m29.257143-54.857143h29.257143v113.371428h-29.257143v-113.371428z m25.6 54.857143h29.257143v29.257143h-29.257143v-29.257143z m-54.857143 0h29.257143v29.257143h-29.257143v-29.257143z" p-id="2464"></path></svg>