<svg t="1649233598868" class="icon" viewBox="0 0 1024 1024" version="1.1" xmlns="http://www.w3.org/2000/svg" p-id="2221" width="200" height="200"><path d="M853.333333 714.666667c-2.133333 0-4.266667 2.133333-6.4 2.133333-2.133333 2.133333-2.133333 2.133333-4.266666 2.133333 0 4.266667-4.266667 4.266667-6.4 6.4 0 2.133333 0 4.266667-2.133334 6.4H832v6.4c-2.133333 4.266667-4.266667 10.666667-6.4 17.066667 2.133333 0 2.133333 2.133333 2.133333 4.266667 0 4.266667-2.133333 6.4-2.133333 10.666666l4.266667 4.266667c0 2.133333 0 4.266667 2.133333 4.266667 0 2.133333 2.133333 2.133333 2.133333 4.266666 2.133333 0 4.266667 0 4.266667 2.133334v2.133333c4.266667 2.133333 2.133333 6.4 4.266667 6.4h4.266666c2.133333 0 2.133333-2.133333 4.266667-4.266667v-10.666666c4.266667-6.4 2.133333-12.8 6.4-19.2 0-12.8 4.266667-25.6 0-36.266667-2.133333-6.4-2.133333-6.4-4.266667-8.533333zM497.066667 435.2c-25.6 6.4-29.866667 49.066667-12.8 57.6 29.866667 21.333333 57.6 55.466667 66.133333 89.6 4.266667 8.533333 29.866667 23.466667 38.4 8.533333 4.266667-6.4 2.133333-19.2 10.666667-21.333333 29.866667-14.933333 78.933333 29.866667 85.333333-14.933333 10.666667-42.666667-21.333333-85.333333 12.8-117.333334 10.666667-8.533333 32 4.266667 42.666667-4.266666 17.066667-10.666667 21.333333-42.666667 4.266666-55.466667-10.666667-8.533333-27.733333-10.666667-44.8-8.533333 4.266667-23.466667 44.8-49.066667 14.933334-55.466667-2.133333 0-4.266667 0-4.266667-2.133333H704c-2.133333 0-2.133333 2.133333-4.266667 2.133333 0 4.266667-2.133333 6.4-2.133333 8.533333-2.133333 2.133333-4.266667 2.133333-6.4 2.133334l-2.133333 2.133333c-2.133333 0-4.266667 0-6.4 2.133333-2.133333 4.266667-4.266667 4.266667-8.533334 6.4l-2.133333 2.133334v2.133333c-2.133333 0-2.133333 2.133333-4.266667 2.133333-8.533333 2.133333-17.066667-2.133333-23.466666-2.133333-2.133333 0-4.266667 2.133333-4.266667 2.133333 0 2.133333-2.133333 2.133333-4.266667 2.133334v10.666666c2.133333 4.266667 4.266667 6.4 6.4 8.533334l2.133334 2.133333v2.133333c0 2.133333-2.133333 2.133333-2.133334 2.133334-2.133333 2.133333-2.133333 4.266667-2.133333 4.266666h-4.266667l-6.4 6.4c0 2.133333-2.133333 4.266667-2.133333 4.266667-6.4 0-8.533333 2.133333-17.066667 0H597.333333c-6.4 2.133333-12.8 2.133333-19.2 4.266667l-2.133333 2.133333c-2.133333 0-4.266667 0-6.4 2.133333l-2.133333 2.133334h-4.266667c-2.133333 2.133333-6.4 4.266667-8.533333 4.266666-12.8 25.6-38.4 29.866667-57.6 36.266667z" fill="#4C64FE" opacity=".6" p-id="2222"></path><path d="M531.2 748.8c-4.266667-14.933333 21.333333-38.4 17.066667-59.733333-2.133333-19.2-25.6 17.066667-14.933334-23.466667 8.533333-40.533333 21.333333-8.533333 38.4-32 8.533333-10.666667 8.533333-25.6 6.4-36.266667-10.666667 0-23.466667-8.533333-25.6-14.933333-10.666667-32-36.266667-68.266667-66.133333-89.6-17.066667-8.533333-12.8-51.2 12.8-57.6 19.2-6.4 44.8-10.666667 55.466667-27.733333-2.133333 0-2.133333 0-4.266667 2.133333-2.133333 0-4.266667-2.133333-4.266667-2.133333h-17.066666l-6.4-6.4c-4.266667-2.133333-6.4 0-10.666667-2.133334 0-2.133333-2.133333-2.133333-2.133333-4.266666-2.133333-2.133333-4.266667-2.133333-6.4-4.266667h-6.4c-2.133333 0-2.133333-2.133333-4.266667-2.133333-10.666667 0-19.2-2.133333-29.866667-2.133334l-2.133333-2.133333c-6.4-2.133333-12.8-2.133333-19.2-2.133333-2.133333 0-2.133333-2.133333-4.266667-2.133334s-4.266667-2.133333-4.266666-2.133333c0-2.133333-2.133333-2.133333-2.133334-4.266667v-2.133333c-2.133333-2.133333-2.133333-2.133333-2.133333-4.266667S426.666667 362.666667 426.666667 362.666667l-2.133334-4.266667c0-2.133333 0-6.4-2.133333-8.533333 0-2.133333-2.133333-2.133333-4.266667-2.133334h-2.133333c-2.133333-2.133333-2.133333-4.266667-6.4-4.266666 0-2.133333-2.133333-4.266667-2.133333-4.266667-4.266667-2.133333-6.4-6.4-10.666667-6.4h-2.133333c-4.266667-4.266667-10.666667-4.266667-17.066667-4.266667l-2.133333-2.133333c-4.266667 0-8.533333-2.133333-10.666667-2.133333v-10.666667c4.266667-2.133333 4.266667-8.533333 6.4-10.666667-2.133333-4.266667 0-10.666667-4.266667-14.933333h-2.133333c-2.133333-4.266667 0-8.533333-2.133333-10.666667-2.133333 0-2.133333-2.133333-2.133334-4.266666-2.133333 0-2.133333-2.133333-4.266666-4.266667h-4.266667c-2.133333 0-4.266667-2.133333-6.4-2.133333 0-2.133333-2.133333-4.266667-4.266667-4.266667-2.133333-2.133333-2.133333-4.266667-4.266666-4.266667-2.133333-6.4 0-12.8-2.133334-17.066666-6.4-2.133333-12.8 0-19.2 2.133333-2.133333 2.133333-2.133333 2.133333-2.133333 4.266667v2.133333c-2.133333 2.133333-2.133333 2.133333-4.266667 2.133333h-4.266666c0 2.133333-2.133333 2.133333-4.266667 2.133334-2.133333 4.266667-2.133333 8.533333-2.133333 10.666666-2.133333 0-2.133333 4.266667-2.133334 4.266667-2.133333 2.133333-4.266667 2.133333-8.533333 2.133333l-4.266667-2.133333h-2.133333c-2.133333 0-4.266667-2.133333-6.4-4.266667-4.266667 0-6.4-4.266667-10.666667-4.266666-2.133333 0-2.133333 2.133333-4.266666 4.266666s0 4.266667-2.133334 4.266667c-2.133333 2.133333-2.133333 4.266667-4.266666 6.4-2.133333 0-2.133333 2.133333-2.133334 2.133333v2.133334l-2.133333 2.133333c-2.133333 4.266667 0 6.4-2.133333 8.533333l-2.133334 2.133334H234.666667c-6.4-4.266667-12.8-2.133333-19.2-2.133334-2.133333 0-2.133333 4.266667-4.266667 4.266667-2.133333 2.133333 0 4.266667-2.133333 4.266667v29.866666h-2.133334c-2.133333 2.133333-2.133333 2.133333-4.266666 2.133334l-2.133334 2.133333c0 4.266667-2.133333 8.533333-4.266666 12.8l-2.133334 2.133333c-4.266667 0-8.533333 2.133333-12.8 2.133334-8.533333 0-17.066667-4.266667-23.466666 0-2.133333 2.133333-6.4 2.133333-8.533334 2.133333s-4.266667 0-4.266666 2.133333l-2.133334 2.133334c-4.266667 0-4.266667 2.133333-6.4 4.266666h-6.4c0-2.133333-2.133333-4.266667-4.266666-4.266666-4.266667 0-6.4-2.133333-10.666667-2.133334l-2.133333 2.133334h-10.666667c-2.133333 2.133333-4.266667 4.266667-8.533333 4.266666v2.133334c-2.133333 0-2.133333 2.133333-4.266667 2.133333-2.133333 4.266667-2.133333 6.4 0 10.666667l-4.266667 4.266666v4.266667c2.133333 0 2.133333 2.133333 4.266667 4.266667 4.266667 2.133333 6.4 0 8.533333 2.133333 2.133333 0 2.133333 2.133333 2.133334 4.266667v4.266666c0 2.133333-2.133333 4.266667-2.133334 6.4v4.266667c-4.266667 2.133333-6.4 2.133333-8.533333 4.266667v4.266666c2.133333 2.133333 4.266667 4.266667 6.4 4.266667 2.133333 2.133333 2.133333 4.266667 4.266667 6.4 2.133333 6.4 0 12.8 2.133333 19.2 2.133333 0 2.133333 2.133333 4.266667 2.133333 4.266667 4.266667 6.4 8.533333 10.666666 10.666667h2.133334c4.266667 8.533333 8.533333 4.266667 8.533333 8.533333 0 6.4 2.133333 14.933333 4.266667 21.333334-2.133333 2.133333-2.133333 4.266667-4.266667 6.4 0 6.4 2.133333 12.8 2.133333 19.2l-2.133333 2.133333c-2.133333 0-2.133333-2.133333-4.266667-4.266667h2.133334c-2.133333 0-4.266667 2.133333-4.266667 2.133334-2.133333 2.133333 0 4.266667-2.133333 4.266666 2.133333 8.533333 0 14.933333 2.133333 23.466667 2.133333 0 4.266667 4.266667 4.266667 4.266667H128c2.133333 4.266667 4.266667 6.4 8.533333 8.533333 2.133333 2.133333 2.133333 4.266667 4.266667 6.4 2.133333 4.266667 6.4 6.4 8.533333 10.666667 2.133333 2.133333 4.266667 2.133333 4.266667 2.133333 2.133333 0 4.266667-2.133333 4.266667-4.266667h4.266666c8.533333 6.4 14.933333 14.933333 21.333334 23.466667 2.133333 2.133333 4.266667 2.133333 6.4 2.133333l2.133333 2.133334v8.533333c0 2.133333 0 6.4 2.133333 6.4l2.133334 2.133333 2.133333 2.133334h6.4v4.266666c0 2.133333 2.133333 2.133333 2.133333 4.266667 2.133333 0 4.266667 2.133333 6.4 2.133333 0 2.133333 2.133333 4.266667 2.133334 4.266667 2.133333 2.133333 6.4 2.133333 8.533333 2.133333 2.133333 0 2.133333 2.133333 4.266667 2.133334 4.266667 0 8.533333 2.133333 12.8 4.266666l4.266666 2.133334h6.4c2.133333 0 2.133333 4.266667 4.266667 4.266666s4.266667-2.133333 6.4-2.133333c4.266667 4.266667 0 10.666667 4.266667 14.933333 2.133333 0 4.266667 2.133333 4.266666 2.133334 2.133333 0 4.266667 0 4.266667-2.133334s2.133333-4.266667 2.133333-6.4c2.133333-2.133333 4.266667-4.266667 6.4-4.266666h8.533334l2.133333 2.133333c4.266667 0 6.4 2.133333 8.533333 2.133333l2.133334 2.133334 2.133333 2.133333 2.133333 2.133333c2.133333 0 4.266667 2.133333 4.266667 4.266667 2.133333 2.133333 6.4 4.266667 8.533333 6.4v6.4l2.133334 2.133333c4.266667 2.133333 10.666667 2.133333 17.066666 0 2.133333 0 2.133333-2.133333 4.266667-2.133333h2.133333c2.133333 0 2.133333-2.133333 4.266667-2.133333v-2.133334c4.266667-2.133333 8.533333-2.133333 10.666667-4.266666s4.266667-2.133333 6.4-4.266667h4.266666c2.133333 0 4.266667-2.133333 4.266667-2.133333l6.4-2.133334h4.266667c4.266667 2.133333 6.4 6.4 12.8 8.533334 4.266667 0 8.533333 0 10.666666-2.133334 0-2.133333 4.266667-4.266667 4.266667-6.4h4.266667c2.133333 4.266667 4.266667 8.533333 6.4 14.933334h2.133333l2.133333 2.133333c0 2.133333 2.133333 4.266667 0 8.533333 0 2.133333-2.133333 4.266667 0 8.533334 0 2.133333-2.133333 4.266667-2.133333 4.266666 0 2.133333 0 4.266667-2.133333 4.266667-2.133333 2.133333-4.266667 4.266667-6.4 4.266667-4.266667 2.133333-6.4 4.266667-8.533334 6.4v2.133333c0 2.133333-4.266667 2.133333-4.266666 4.266667v17.066666l2.133333 2.133334c4.266667 2.133333 10.666667-2.133333 14.933333 0l2.133334 2.133333v8.533333c2.133333 2.133333 4.266667 4.266667 4.266666 6.4 2.133333 2.133333 4.266667 2.133333 4.266667 2.133334-2.133333 2.133333 0 4.266667-2.133333 4.266666v8.533334c0 2.133333 2.133333 2.133333 2.133333 4.266666 2.133333 2.133333 2.133333 2.133333 4.266667 2.133334s2.133333 0 4.266666 2.133333c0 2.133333 2.133333 2.133333 2.133334 2.133333 2.133333 0 2.133333 4.266667 2.133333 4.266667 2.133333 0 2.133333 2.133333 4.266667 4.266667s4.266667 0 6.4 0c2.133333 0 2.133333-4.266667 4.266666-4.266667 0 2.133333 2.133333 4.266667 2.133334 6.4 4.266667 0 2.133333 2.133333 4.266666 4.266667h4.266667c2.133333 0 2.133333-2.133333 4.266667-2.133334 4.266667-6.4 0-12.8 2.133333-19.2 2.133333-2.133333 4.266667-2.133333 6.4-2.133333h6.4l2.133333-2.133333c2.133333 0 2.133333-2.133333 4.266667-2.133334 6.4 2.133333 12.8 0 19.2 2.133334 2.133333 0 2.133333-2.133333 4.266667-2.133334h8.533333c0-6.4 2.133333-17.066667 0-21.333333zM938.666667 228.266667l-2.133334-2.133334h-2.133333l-2.133333 2.133334h-2.133334c-2.133333 2.133333-6.4 4.266667-8.533333 8.533333-4.266667 0-6.4 2.133333-6.4 4.266667s-2.133333 4.266667-2.133333 4.266666c-4.266667 0-4.266667 4.266667-6.4 6.4-4.266667 2.133333-8.533333 4.266667-12.8 4.266667l-4.266667-4.266667h-2.133333v-2.133333c0-2.133333-2.133333-4.266667-2.133334-4.266667-2.133333 0-2.133333-2.133333-2.133333-2.133333-2.133333-2.133333-4.266667-2.133333-6.4-4.266667-2.133333-2.133333-4.266667 0-6.4 0-2.133333-2.133333-4.266667-2.133333-6.4-4.266666-6.4 0-12.8 0-19.2-2.133334l-2.133333-2.133333c0-2.133333-2.133333-2.133333-2.133334-2.133333 0-4.266667-2.133333-6.4-2.133333-10.666667-2.133333 0-2.133333-2.133333-2.133333-4.266667-2.133333 0-2.133333-2.133333-4.266667-2.133333-2.133333-2.133333-2.133333-4.266667-4.266667-4.266667 0-2.133333-2.133333-4.266667-4.266666-6.4-2.133333-2.133333-2.133333-4.266667-2.133334-4.266666h-2.133333c-2.133333-2.133333-2.133333-4.266667-2.133333-4.266667-4.266667-2.133333-4.266667-4.266667-6.4-6.4-2.133333 0-2.133333-4.266667-2.133334-4.266667-2.133333-2.133333-4.266667-2.133333-4.266666-2.133333h-6.4c-2.133333 2.133333-2.133333 2.133333-4.266667 2.133333-4.266667-10.666667-8.533333-10.666667-10.666667-12.8h-8.533333c-2.133333 2.133333-6.4 0-8.533333 0-2.133333 2.133333-2.133333 2.133333-4.266667 2.133334s-2.133333 2.133333-4.266667 2.133333-6.4 0-8.533333 2.133333v2.133334H746.666667c-2.133333 2.133333-2.133333 2.133333-2.133334 4.266666-2.133333 2.133333-2.133333 2.133333-4.266666 2.133334h-4.266667c-2.133333 2.133333-2.133333 4.266667-4.266667 4.266666V192l2.133334 4.266667h6.4v8.533333l-2.133334 2.133333s-2.133333 2.133333-4.266666 2.133334c0 2.133333 0 4.266667-2.133334 4.266666h-2.133333c-2.133333 4.266667-2.133333 8.533333-4.266667 10.666667 0 4.266667 0 6.4-2.133333 10.666667l-8.533333 8.533333c0 2.133333-2.133333 2.133333-4.266667 2.133333H693.333333c-2.133333 4.266667-4.266667 6.4-4.266666 10.666667h-2.133334c-2.133333 4.266667-2.133333 6.4-4.266666 10.666667l-2.133334 2.133333c0 4.266667-2.133333 10.666667-2.133333 14.933333 0 2.133333 2.133333 2.133333 2.133333 4.266667l2.133334 2.133333c2.133333 0 4.266667 0 6.4-2.133333l4.266666-2.133333h4.266667l2.133333 2.133333c2.133333 2.133333 4.266667 0 4.266667 2.133333 2.133333-2.133333 4.266667-4.266667 6.4-4.266666l2.133333-2.133334c2.133333-2.133333 4.266667-2.133333 6.4 0l2.133334 2.133334 2.133333 2.133333c2.133333 2.133333 2.133333 4.266667 4.266667 4.266667l2.133333 2.133333c0 2.133333 2.133333 2.133333 2.133333 4.266667l-2.133333 2.133333h-12.8l8.533333 4.266667h-6.4c-4.266667 2.133333-6.4 6.4-8.533333 8.533333 2.133333 0 4.266667 0 4.266667 2.133333 29.866667 6.4-10.666667 32-14.933334 55.466667 17.066667-2.133333 34.133333 0 44.8 8.533333 17.066667 14.933333 12.8 44.8-4.266666 55.466667-10.666667 8.533333-32-4.266667-42.666667 4.266667-34.133333 29.866667-2.133333 74.666667-12.8 117.333333v2.133333c8.533333 4.266667 14.933333 8.533333 17.066667 4.266667 6.4-4.266667 21.333333-19.2 23.466666-14.933333 0 4.266667 17.066667 32 23.466667-2.133334 4.266667-17.066667 14.933333-23.466667 27.733333-23.466666 0-2.133333 2.133333-2.133333 4.266667-2.133334 2.133333-4.266667 6.4-6.4 10.666667-10.666666 0-2.133333 2.133333-4.266667 2.133333-4.266667h2.133333c2.133333-2.133333 2.133333-4.266667 2.133334-6.4 2.133333-2.133333 6.4 0 6.4-2.133333v-2.133334c6.4-2.133333 10.666667-6.4 14.933333-10.666666v-2.133334c-2.133333 0-2.133333-2.133333-4.266667-2.133333H810.666667c-4.266667 0-4.266667-2.133333-6.4-2.133333h-2.133334c-2.133333-2.133333-4.266667-2.133333-6.4-2.133334l-2.133333-4.266666c-6.4 0-12.8 4.266667-17.066667 8.533333h-2.133333c-2.133333 4.266667-4.266667 6.4-8.533333 8.533333h-4.266667l-2.133333-2.133333 2.133333-2.133333v-6.4c-2.133333-2.133333-6.4-4.266667-8.533333-6.4h-8.533334c-2.133333-2.133333-4.266667-4.266667-4.266666-6.4 0-2.133333-2.133333-4.266667 0-4.266667 0 0 2.133333-2.133333 4.266666-2.133333h4.266667c2.133333 0 4.266667-2.133333 4.266667-2.133334 2.133333-2.133333 4.266667-4.266667 6.4-4.266666 0-2.133333 2.133333-2.133333 0-4.266667 2.133333-4.266667 4.266667-6.4 6.4-10.666667 4.266667-2.133333 6.4-4.266667 8.533333-4.266666 0-2.133333 2.133333-2.133333 2.133333-4.266667 2.133333-2.133333 2.133333-2.133333 2.133334-4.266667 2.133333-2.133333 2.133333-4.266667 4.266666-6.4h4.266667c2.133333 0 2.133333-2.133333 6.4-2.133333 0 2.133333 2.133333 4.266667 2.133333 6.4-2.133333 2.133333-2.133333 4.266667-2.133333 4.266667l-2.133333 2.133333c-2.133333 6.4 2.133333 14.933333-2.133334 21.333333l-2.133333 2.133334c0 2.133333 0 2.133333-2.133333 4.266666 0 2.133333 2.133333 2.133333 2.133333 4.266667 4.266667 0 6.4-2.133333 8.533333-2.133333 2.133333-2.133333 2.133333-2.133333 2.133334-4.266667h2.133333c2.133333 0 2.133333-2.133333 2.133333-4.266667l2.133334-2.133333c0-2.133333 2.133333-2.133333 2.133333-4.266667l4.266667-4.266666c0-2.133333 2.133333-2.133333 2.133333-4.266667 2.133333-2.133333 4.266667-2.133333 6.4-4.266667 6.4 0 12.8-2.133333 19.2-6.4v-2.133333l6.4-6.4c2.133333-2.133333 0-4.266667 4.266667-6.4v-2.133333c0-2.133333 4.266667-4.266667 4.266666-6.4v-2.133334c0-2.133333 2.133333-2.133333 2.133334-4.266666l2.133333-2.133334v-2.133333c0-2.133333 2.133333-4.266667 2.133333-4.266667 0-2.133333 2.133333-2.133333 4.266667-2.133333 6.4 2.133333 12.8 2.133333 19.2 2.133333l2.133333-2.133333c0-2.133333 2.133333-2.133333 2.133334-4.266667s-2.133333-2.133333-2.133334-4.266666c2.133333-4.266667 6.4-6.4 10.666667-10.666667 2.133333-4.266667 4.266667-6.4 6.4-8.533333 2.133333 0 2.133333 0 4.266667 2.133333v2.133333h4.266666c2.133333-4.266667 2.133333-6.4 2.133334-10.666666 2.133333-2.133333 4.266667-4.266667 4.266666-6.4-2.133333-6.4 0-12.8-4.266666-17.066667 0-4.266667-4.266667-6.4-4.266667-10.666667 0-2.133333-2.133333-4.266667-2.133333-4.266666 2.133333-2.133333 4.266667-2.133333 6.4-4.266667v-2.133333c4.266667-2.133333 10.666667-2.133333 17.066666-2.133334 0-2.133333 2.133333-2.133333 2.133334-4.266666 2.133333-2.133333 2.133333-4.266667 2.133333-4.266667 2.133333-12.8-2.133333-27.733333 2.133333-40.533333h2.133334c2.133333-4.266667 2.133333-6.4 0-10.666667v-6.4c0-2.133333 2.133333-2.133333 2.133333-4.266667-2.133333-2.133333-2.133333-2.133333-2.133333-4.266666z" fill="#4C64FE" opacity=".6" p-id="2223"></path><path d="M748.8 546.133333c-6.4 36.266667-23.466667 8.533333-23.466667 4.266667s-17.066667 8.533333-23.466666 14.933333c-2.133333 2.133333-8.533333 0-17.066667-4.266666-8.533333 40.533333-57.6-2.133333-85.333333 10.666666-6.4 2.133333-4.266667 14.933333-10.666667 21.333334-2.133333 4.266667-8.533333 6.4-12.8 6.4 2.133333 10.666667 2.133333 23.466667-6.4 36.266666-17.066667 23.466667-27.733333-8.533333-38.4 32-8.533333 40.533333 12.8 4.266667 14.933333 23.466667 2.133333 19.2-21.333333 44.8-17.066666 59.733333 2.133333 4.266667 0 17.066667 0 29.866667h2.133333c2.133333-2.133333 4.266667-4.266667 6.4-4.266667 0-2.133333 4.266667-4.266667 4.266667-6.4 4.266667 2.133333 8.533333 4.266667 14.933333 6.4h8.533333v10.666667c0 2.133333 0 4.266667 2.133334 4.266667 2.133333 2.133333 6.4 4.266667 6.4 6.4 2.133333 2.133333 4.266667 0 6.4 0 4.266667 2.133333 6.4 2.133333 8.533333 4.266666h8.533333c2.133333 0 2.133333-4.266667 4.266667-4.266666s6.4 0 8.533333 2.133333c0 2.133333 2.133333 2.133333 4.266667 2.133333h6.4v4.266667l2.133333 2.133333c0 4.266667 2.133333 4.266667 2.133334 8.533334 0 2.133333 2.133333 2.133333 4.266666 4.266666 2.133333 0 4.266667 2.133333 4.266667 2.133334v2.133333l-2.133333 2.133333h-2.133334c-2.133333 0-2.133333-2.133333-4.266666-2.133333-2.133333 2.133333-4.266667 2.133333-8.533334 2.133333-4.266667 2.133333-8.533333 6.4-12.8 8.533334 0 2.133333-2.133333 2.133333-2.133333 4.266666v8.533334h2.133333c2.133333 2.133333 0 4.266667 2.133334 4.266666l2.133333 2.133334c2.133333 2.133333 4.266667 0 6.4 2.133333v2.133333c2.133333 0 4.266667 2.133333 4.266667 2.133334h8.533333c0-2.133333 4.266667 0 4.266667-2.133334 2.133333 0 6.4-2.133333 8.533333-2.133333l2.133333-2.133333 2.133334-2.133334c2.133333-2.133333 0-6.4 0-10.666666 2.133333-2.133333 4.266667-4.266667 4.266666-6.4h2.133334V832l-2.133334-2.133333c-6.4-2.133333-10.666667 0-17.066666-2.133334v-2.133333c0-2.133333 4.266667-2.133333 4.266666-2.133333 0-2.133333 2.133333-4.266667 2.133334-6.4s-2.133333-4.266667-2.133334-4.266667h-2.133333l2.133333-2.133333h4.266667c2.133333 0 2.133333-2.133333 4.266667-2.133334l2.133333-2.133333h8.533333c2.133333-2.133333 4.266667-4.266667 6.4-4.266667 2.133333 0 2.133333 0 4.266667-2.133333l2.133333-2.133333c4.266667 0 8.533333 0 12.8-2.133334 0-2.133333 2.133333-2.133333 2.133334-4.266666 2.133333-2.133333 2.133333-2.133333 4.266666-2.133334h4.266667l2.133333-2.133333c0-2.133333 0-2.133333 2.133334-4.266667h2.133333v4.266667h2.133333c2.133333 0 4.266667-2.133333 4.266667-2.133333h2.133333c4.266667-2.133333 6.4-4.266667 10.666667-6.4l2.133333-2.133334c2.133333-2.133333 6.4 0 8.533334 0l4.266666-2.133333c4.266667 0 10.666667 0 12.8-4.266667h2.133334c2.133333-2.133333 6.4-4.266667 6.4-8.533333 2.133333-2.133333 6.4-2.133333 6.4-4.266667h4.266666c0-2.133333-4.266667-2.133333-2.133333-2.133333h2.133333c2.133333 0 2.133333-2.133333 4.266667-2.133333 4.266667-2.133333 4.266667-6.4 8.533333-8.533334l2.133334-2.133333v-4.266667l2.133333-2.133333h6.4l2.133333-2.133333c2.133333-2.133333 2.133333-6.4 4.266667-6.4l2.133333-2.133334v-4.266666h2.133334c0-4.266667 2.133333-4.266667 4.266666-8.533334 0-4.266667-2.133333-6.4 0-10.666666 2.133333 0 2.133333-2.133333 2.133334-4.266667s2.133333-2.133333 4.266666-2.133333v-6.4c0-2.133333 2.133333-4.266667 2.133334-4.266667 0-4.266667 2.133333-4.266667 2.133333-6.4 2.133333-4.266667 4.266667-6.4 4.266667-12.8 2.133333-2.133333 2.133333-4.266667 4.266666-6.4 2.133333 0 4.266667-2.133333 6.4-2.133333v-2.133334c0-4.266667-2.133333-8.533333 0-12.8l2.133334-4.266666c0-6.4-2.133333-10.666667-2.133334-14.933334-4.266667-2.133333-6.4-4.266667-8.533333-6.4H810.666667l2.133333-2.133333h4.266667c2.133333 0 2.133333-2.133333 4.266666-2.133333 2.133333-2.133333 6.4-4.266667 8.533334-6.4l-6.4-8.533334c-2.133333-2.133333-4.266667-2.133333-6.4-4.266666 0-2.133333-2.133333-6.4-2.133334-8.533334l-2.133333-2.133333c0-2.133333-2.133333-6.4-4.266667-8.533333-2.133333-4.266667-6.4-4.266667-8.533333-6.4v-2.133334c0-6.4-2.133333-12.8-2.133333-19.2l-2.133334-4.266666c0-2.133333 0-4.266667-2.133333-6.4l-2.133333-2.133334c-2.133333-2.133333-4.266667-2.133333-6.4-4.266666-2.133333 0-6.4 0-8.533334-2.133334 0-2.133333-4.266667-2.133333-4.266666-4.266666 2.133333-2.133333 2.133333-4.266667 2.133333-4.266667v-2.133333c-8.533333 8.533333-21.333333 12.8-25.6 29.866666z" fill="#4C64FE" opacity=".6" p-id="2224"></path><path d="M789.333333 588.8c-4.266667 0-6.4 0-8.533333 2.133333-202.666667-136.533333-360.533333-81.066667-441.6-32 21.333333-34.133333 55.466667-74.666667 110.933333-98.133333 27.733333-10.666667 59.733333-17.066667 91.733334-17.066667 2.133333 2.133333 6.4 4.266667 8.533333 4.266667v4.266667c0 12.8 8.533333 21.333333 21.333333 21.333333s21.333333-8.533333 21.333334-21.333333c0-2.133333 0-4.266667-2.133334-6.4 46.933333 6.4 98.133333 25.6 153.6 53.333333 4.266667 4.266667 8.533333 6.4 14.933334 6.4 12.8 0 21.333333-8.533333 21.333333-21.333333s-8.533333-21.333333-21.333333-21.333334c-8.533333 0-14.933333 4.266667-19.2 10.666667-70.4-34.133333-136.533333-53.333333-194.133334-53.333333-61.866667-34.133333-117.333333-40.533333-162.133333-19.2-29.866667 14.933333-53.333333 38.4-68.266667 66.133333 17.066667-66.133333 51.2-140.8 117.333334-177.066667 81.066667-44.8 194.133333-25.6 337.066666 57.6v2.133334c0 12.8 8.533333 21.333333 21.333334 21.333333s21.333333-8.533333 21.333333-21.333333-8.533333-21.333333-21.333333-21.333334c-2.133333 0-4.266667 0-6.4 2.133334-151.466667-87.466667-270.933333-108.8-360.533334-57.6-113.066667 64-138.666667 221.866667-145.066666 294.4-12.8 6.4-21.333333 21.333333-21.333334 36.266666 0 23.466667 19.2 42.666667 42.666667 42.666667 19.2 0 34.133333-12.8 40.533333-29.866667 61.866667-23.466667 213.333333-55.466667 322.133334 110.933334 0 2.133333-2.133333 4.266667-2.133334 6.4 0 12.8 8.533333 21.333333 21.333334 21.333333s21.333333-8.533333 21.333333-21.333333-8.533333-21.333333-21.333333-21.333334h-2.133334c-113.066667-166.4-266.666667-142.933333-339.2-119.466666 0-4.266667-2.133333-6.4-4.266666-8.533334 70.4-49.066667 224-119.466667 433.066666 21.333334v2.133333c0 12.8 8.533333 21.333333 21.333334 21.333333s21.333333-8.533333 21.333333-21.333333-12.8-19.2-23.466667-19.2z m-396.8-166.4c29.866667-14.933333 68.266667-12.8 108.8 2.133333-21.333333 2.133333-40.533333 8.533333-59.733333 17.066667-72.533333 29.866667-110.933333 85.333333-132.266667 123.733333-2.133333-2.133333-6.4-2.133333-10.666666-2.133333 10.666667-38.4 36.266667-113.066667 93.866666-140.8z" fill="#4C64FE" p-id="2225"></path></svg>