<?xml version="1.0" encoding="UTF-8"?>
<svg width="1024px" height="1024px" viewBox="0 0 1024 1024" version="1.1" xmlns="http://www.w3.org/2000/svg" xmlns:xlink="http://www.w3.org/1999/xlink">
    <defs>
        <linearGradient x1="50%" y1="0%" x2="50%" y2="100%" id="linearGradient-1">
            <stop stop-color="#C7C6CA" offset="0%"></stop>
            <stop stop-color="#E5E5E7" offset="100%"></stop>
        </linearGradient>
        <linearGradient x1="50%" y1="0%" x2="50%" y2="100%" id="linearGradient-2">
            <stop stop-color="#FFB676" offset="0%"></stop>
            <stop stop-color="#FA8334" offset="100%"></stop>
        </linearGradient>
        <linearGradient x1="50%" y1="0%" x2="50%" y2="100%" id="linearGradient-3">
            <stop stop-color="#E5E5E7" offset="0%"></stop>
            <stop stop-color="#C7C6CA" offset="100%"></stop>
        </linearGradient>
    </defs>
    <g id="页面-1" stroke="none" stroke-width="1" fill="none" fill-rule="evenodd">
        <g id="编组-48">
            <rect id="矩形备份-59" x="0" y="0" width="1024" height="1024"></rect>
            <g id="编组-3备份-7" transform="translate(42.666667, 128.000000)" fill-rule="nonzero">
                <g id="编组-8">
                    <polygon id="路径备份-46" fill="url(#linearGradient-1)" transform="translate(469.333333, 729.247706) rotate(90.000000) translate(-469.333333, -729.247706) " points="430.58104 259.914373 508.085627 259.914373 508.085627 1198.58104 430.58104 1198.58104"></polygon>
                    <g id="fsux_图表_折线图备份-4" transform="translate(1.855072, 0.000000)">
                        <polygon id="路径" fill="url(#linearGradient-2)" points="432.779872 616.413534 213.160744 466.143504 61.3637341 582.679379 0 509.07749 206.701224 349.607628 439.239392 506.011239 846.181186 276.005738 897.855072 355.741208"></polygon>
                        <polygon id="路径" fill="url(#linearGradient-3)" points="432.779872 340.407796 213.160744 190.137765 61.3637341 306.673641 0 233.071752 206.701224 73.6018895 439.239392 230.005501 846.181186 0 897.855072 79.7354702"></polygon>
                    </g>
                </g>
            </g>
        </g>
    </g>
</svg>