<?xml version="1.0" encoding="UTF-8"?>
<svg width="1024px" height="1024px" viewBox="0 0 1024 1024" version="1.1" xmlns="http://www.w3.org/2000/svg" xmlns:xlink="http://www.w3.org/1999/xlink">
    <g id="页面-1" stroke="none" stroke-width="1" fill="none" fill-rule="evenodd">
        <g id="编组-78">
            <rect id="矩形备份-166" x="0" y="0" width="1024" height="1024"></rect>
            <g id="fsux_图表_动态轨迹地图-(1)备份-5" transform="translate(42.666667, 128.000000)" fill-rule="nonzero">
                <g id="fsux_图表_动态轨迹地图-(1)备份-3">
                    <path d="M938.254368,141.886005 L938.254368,61.8130633 L931.932454,61.8130633 L910.080624,86.4300832 C906.919668,89.5410248 903.758711,89.5410248 900.735187,89.5410248 L891.389751,89.5410248 C888.228795,89.5410248 882.044314,86.4300832 882.044314,83.3191406 L866.376964,71.0106317 C863.216008,67.8996901 860.055051,64.7887475 857.031528,64.7887475 L838.20322,64.7887475 C835.042264,64.7887475 828.857784,61.677806 825.696828,58.5668634 L791.338604,9.33282574 C788.177647,6.22188417 785.01669,3.11094156 781.993167,3.11094156 L760.141337,0 L753.819424,0 L719.4612,12.3085089 L719.4612,30.838903 L713.139288,70.8753733 C713.139288,73.9863149 709.978331,76.961999 709.97833,76.961999 L703.656417,83.1838822 C700.495461,86.2948237 697.334504,86.2948237 694.31098,86.2948248 L687.989068,86.2948248 C681.667155,86.2948248 675.482674,89.4057663 675.482674,95.4923921 L669.160761,110.911844 C665.999805,120.109411 672.321717,129.442237 681.667155,129.442237 L697.334505,129.442237 L709.840897,120.244669 L719.186334,126.466554 C725.508247,132.688438 722.34729,144.996947 712.864422,147.97263 L684.690678,157.170198 L684.690678,175.700591 L656.516935,175.700591 L650.195022,194.230984 L625.182235,191.120043 C618.997755,191.120043 615.836799,194.230984 612.675841,197.341927 L606.353929,206.539494 L615.699366,215.737061 L590.686579,243.465022 C587.525623,246.575963 584.364666,246.575963 581.341142,246.575964 L543.821962,246.575964 C540.661006,246.575964 537.500049,246.575964 534.476525,249.686906 L525.131088,258.884473 C521.970132,261.995415 518.809175,261.995415 515.785651,261.995416 L487.886774,261.995416 C484.725817,261.995416 481.56486,261.995416 478.541337,258.884473 L459.713031,243.465022 C456.552075,243.465022 456.552075,240.35408 453.391117,240.35408 L384.537238,237.243139 C381.376282,237.243139 378.215325,234.132197 375.191801,231.021255 L337.672621,181.787217 C334.511665,178.676275 331.350708,175.565333 328.327185,175.565333 L325.166227,175.565333 C318.844314,175.565333 312.659834,169.343449 312.659835,163.256823 L312.659835,141.886005 L309.498877,123.355611 C309.498877,120.244669 306.337921,117.133727 303.176964,114.158044 L281.325135,114.158044 C278.164179,114.158044 275.003221,111.047102 275.003221,107.936159 L268.818741,89.4057663 L253.151391,89.4057663 L243.805954,101.714276 L228.138604,101.714276 L228.138604,117.133728 L196.803904,117.133728 C193.642948,117.133728 187.458468,120.244669 187.458468,123.355611 L175.089507,141.886005 C171.928551,144.996947 168.767594,148.107889 162.583114,148.107888 L146.915764,148.107888 C140.593851,148.107888 134.40937,154.329772 134.40937,160.416398 L134.40937,178.946791 C134.40937,182.057733 134.40937,185.168675 131.248414,185.168675 L121.902978,200.588127 C118.742022,203.699068 118.742022,206.810011 112.557541,206.810011 L78.1993169,216.007578 L25.0127876,216.007578 C21.8518315,216.007578 18.6908742,219.11852 15.66735,219.11852 L6.32191339,231.42703 C0,240.624597 0,243.73554 0,246.846481 L0,262.265933 L12.5063938,262.265933 L12.5063938,311.49997 C12.5063938,314.610912 15.66735,317.721855 18.6908742,320.697538 L40.5427046,339.227931 C43.7036608,342.338872 43.7036608,342.338872 43.7036608,345.449815 L50.0255742,366.955892 L50.0255742,406.992362 L37.5191804,406.992362 L37.5191804,431.609381 C37.5191804,434.720323 40.6801365,437.831265 40.6801376,440.806949 L68.8538803,465.423967 L84.5212303,465.423967 L150.214153,530.077458 L203.400684,551.583534 L212.74612,539.275025 L231.574426,539.275025 C237.89634,539.275025 240.919863,542.385966 244.08082,545.496909 L253.426257,564.027302 C256.587213,567.138244 259.74817,570.113928 265.932651,570.113928 L281.600001,570.113928 C284.760957,570.113928 284.760957,570.113928 287.921913,567.002985 L319.256613,548.472592 C322.417569,545.361651 328.602049,545.361651 331.763007,548.472592 L359.936749,560.781102 L359.936749,548.472592 L375.604099,548.472592 L381.926013,567.002985 L381.926013,594.730947 C381.926013,597.841888 381.926013,600.952831 378.765057,603.928514 L362.822841,618.94219 L362.822841,634.361642 L375.329233,637.472583 C378.49019,637.472583 384.67467,640.583525 384.674671,646.670152 L387.835627,655.867719 L387.835627,677.509055 L419.170327,699.015131 C422.331283,702.126072 425.492241,702.126072 425.492241,702.126073 L431.814153,702.126073 C438.136066,702.126073 444.320547,695.904189 444.320547,689.817564 C444.320547,683.730938 450.64246,677.509054 456.82694,677.509055 L487.886774,677.509055 C491.04773,677.509055 494.208687,677.509055 497.232211,674.398112 L506.577648,668.176228 C512.899561,665.065286 519.084042,665.065286 525.405954,671.28717 L547.257784,695.904189 C550.41874,699.015131 553.442265,702.126073 556.603221,702.126073 L594.122401,702.126073 L597.283357,717.545525 L575.431527,742.162544 L575.431527,757.581995 L591.098877,766.779563 C597.42079,769.890504 606.766227,766.779563 609.927184,760.557678 L625.594534,739.051601 C628.75549,735.94066 628.75549,732.829717 628.75549,729.854034 L625.594534,708.347957 C625.594534,702.126072 628.75549,692.928505 634.939971,692.928506 L656.791801,686.706622 L663.113713,686.706622 L675.620107,689.817564 L691.287457,683.595679 L694.448413,668.176228 C694.448413,661.954344 700.770327,658.978661 703.79385,658.978661 L722.622157,652.756777 C725.783113,652.756777 725.783113,652.756777 728.94407,649.645835 L788.31508,597.300855 C791.476036,594.189913 791.476036,594.189913 791.476036,591.078971 L800.821473,544.955875 C800.821473,541.844934 803.982429,538.733991 807.143386,535.758308 L822.810736,526.56074 C825.971693,523.449798 828.995217,517.363172 828.995217,514.252231 L822.810736,458.796309 C822.810736,455.685367 819.64978,452.574425 816.488823,449.598742 L803.98243,440.401174 C800.821474,437.290233 797.660517,434.17929 797.660517,431.203606 L794.499561,418.895097 C794.499561,415.784156 791.338605,412.808471 788.177647,409.69753 L766.325817,391.167136 C760.003904,388.056194 760.003904,378.858626 763.164861,372.636743 L775.671254,351.130665 C775.671254,348.019724 778.83221,348.019724 781.993167,344.908781 L807.005953,335.711214 L807.005953,320.427021 L781.993167,320.427021 C778.832211,320.427021 772.64773,323.537962 769.486774,326.513647 L760.141337,338.822157 L750.7959,348.019724 L747.634944,332.600272 L725.783113,326.378388 L778.969644,258.613958 L785.291556,267.811525 L785.291556,286.612435 C785.291556,289.723376 785.291556,295.810002 788.452513,295.810002 L791.613469,298.920944 C797.935383,302.031885 804.119863,302.031885 810.441777,298.920944 L854.282869,255.773532 C857.443826,252.66259 857.443826,249.551648 857.443826,243.465022 L854.282869,231.156513 L882.456612,228.045571 C885.617568,228.045571 888.778525,224.93463 891.80205,224.934629 L916.814836,200.31761 C919.975792,197.206668 923.13675,191.120043 919.975792,184.898158 L904.308442,151.083572 L916.814836,138.775062 L938.666667,138.775062 L938.666667,141.886005 L938.254368,141.886005 Z M785.016691,649.781093 C785.016691,652.892035 781.855734,652.892035 781.855734,656.002977 L781.855734,680.619996 C781.855734,683.730938 781.855734,686.84188 785.016691,689.817564 L797.523084,708.347957 L806.868521,696.039448 C806.868521,692.928506 810.029477,692.928506 810.029478,689.817564 L816.35139,625.164074 L800.684041,625.164074 L785.016691,649.781093 L785.016691,649.781093 Z" id="形状" fill="#C7C6CA"></path>
                    <path d="M628.618057,393.737045 C653.630844,407.533396 685.515276,398.876861 699.533431,374.259843 C713.551587,349.778082 704.481015,318.398146 679.468228,304.601795 C654.455442,290.805444 622.57101,299.461978 608.552855,324.078996 C594.672132,348.560756 603.742703,379.940693 628.618057,393.737045 Z M671.909419,317.992371 C689.225964,327.595714 695.822743,349.372308 685.927575,366.820634 C676.032406,384.133702 654.043143,390.220328 636.314299,380.481727 C618.585456,370.743126 612.400976,349.10179 622.296144,331.653463 C632.191312,314.205137 654.592874,308.389028 671.909419,317.992371 Z" id="形状" fill="#FA8334"></path>
                    <path d="M487.19961,641.395075 C512.212396,655.191427 544.096828,646.534892 558.114982,621.917874 C572.133138,597.436114 563.062566,566.056177 538.049781,552.259826 C513.036994,538.463474 481.152562,547.120009 467.134407,571.737028 C453.116251,596.354047 462.324255,627.598725 487.19961,641.395075 Z M530.490972,565.650402 C547.807516,575.253745 554.404296,597.030339 544.509126,614.478666 C534.613958,631.791734 512.624694,637.87836 494.895852,628.139758 C477.167008,618.401157 470.982528,596.759821 480.877696,579.311495 C490.772865,561.863168 513.174426,556.182318 530.490972,565.650402 Z" id="形状" fill="#FA8334"></path>
                    <path d="M621.471547,422.006039 C619.410054,425.658014 614.599903,427.010597 610.889214,424.981723 C607.178525,422.952849 605.804197,418.218806 607.865691,414.56683 C609.927184,410.914854 614.737335,409.562271 618.448023,411.591147 C622.296144,413.620022 623.670473,418.354063 621.471547,422.006039 Z M608.82772,444.323665 C606.766227,447.975641 601.956076,449.328224 598.245388,447.29935 C594.5347,445.270475 593.160372,440.536433 595.221864,436.884457 C597.283356,433.23248 602.093508,431.879898 605.804197,433.908773 C609.514886,435.937649 610.889214,440.536433 608.82772,444.323665 Z M596.046462,466.506035 C593.984968,470.15801 589.174818,471.510593 585.464128,469.481718 C581.753439,467.452843 580.379112,462.718801 582.440605,459.066826 C584.502099,455.414851 589.312249,454.062267 593.022938,456.091142 C596.871059,458.120017 598.107954,462.854058 596.046462,466.506035 Z M583.402635,488.823661 C581.341142,492.475637 576.530991,493.82822 572.820303,491.799346 C569.109615,489.770471 567.735286,485.036429 569.796778,481.384453 C571.858271,477.732476 576.668423,476.379894 580.379112,478.408769 C584.089801,480.437645 585.464128,485.171686 583.402635,488.823661 Z M570.621376,511.141289 C568.559883,514.793264 563.749732,516.145848 560.039043,514.116972 C556.328354,512.088097 554.954026,507.354056 557.01552,503.702079 C559.077013,500.050103 563.887164,498.697521 567.597852,500.726396 C571.445973,502.755271 572.682869,507.354056 570.621376,511.141289 Z M557.97755,533.323658 C555.916056,536.975633 551.105905,538.328216 547.395217,536.299341 C543.684529,534.270465 542.310201,529.536424 544.371693,525.884449 C546.433185,522.232473 551.243337,520.87989 554.954026,522.908764 C558.664715,524.937639 560.039043,529.671681 557.97755,533.323658 Z" id="形状" fill="#FFC107"></path>
                </g>
            </g>
        </g>
    </g>
</svg>