<?xml version="1.0" encoding="UTF-8"?>
<svg width="1024px" height="1024px" viewBox="0 0 1024 1024" version="1.1" xmlns="http://www.w3.org/2000/svg" xmlns:xlink="http://www.w3.org/1999/xlink">
    <defs>
        <linearGradient x1="50%" y1="0%" x2="50%" y2="100%" id="linearGradient-1">
            <stop stop-color="#FEC08B" offset="0%"></stop>
            <stop stop-color="#FA8334" offset="100%"></stop>
        </linearGradient>
        <linearGradient x1="50%" y1="1.59527972%" x2="50%" y2="100%" id="linearGradient-2">
            <stop stop-color="#E5E5E7" offset="0%"></stop>
            <stop stop-color="#C7C6CA" offset="100%"></stop>
        </linearGradient>
        <linearGradient x1="50%" y1="0%" x2="50%" y2="100%" id="linearGradient-3">
            <stop stop-color="#FEC08B" offset="0%"></stop>
            <stop stop-color="#FA8334" offset="100%"></stop>
        </linearGradient>
        <linearGradient x1="50%" y1="0%" x2="50%" y2="100%" id="linearGradient-4">
            <stop stop-color="#E5E5E7" offset="1.59527972%"></stop>
            <stop stop-color="#C7C6CA" offset="100%"></stop>
        </linearGradient>
        <linearGradient x1="50%" y1="0%" x2="50%" y2="100%" id="linearGradient-5">
            <stop stop-color="#FEC08B" offset="0%"></stop>
            <stop stop-color="#FA8334" offset="100%"></stop>
        </linearGradient>
        <linearGradient x1="50%" y1="0%" x2="50%" y2="100%" id="linearGradient-6">
            <stop stop-color="#E5E5E7" offset="1.59527972%"></stop>
            <stop stop-color="#C7C6CA" offset="100%"></stop>
        </linearGradient>
        <linearGradient x1="50%" y1="0%" x2="50%" y2="100%" id="linearGradient-7">
            <stop stop-color="#FEC08B" offset="0%"></stop>
            <stop stop-color="#FA8334" offset="100%"></stop>
        </linearGradient>
        <linearGradient x1="50%" y1="0%" x2="50%" y2="100%" id="linearGradient-8">
            <stop stop-color="#E5E5E7" offset="1.59527972%"></stop>
            <stop stop-color="#C7C6CA" offset="100%"></stop>
        </linearGradient>
    </defs>
    <g id="页面-1" stroke="none" stroke-width="1" fill="none" fill-rule="evenodd">
        <g id="编组-55" transform="translate(-0.000000, 0.000000)">
            <rect id="矩形备份-160" x="0" y="0" width="1024" height="1024"></rect>
            <g id="fsux_图表_百分比堆积柱状图备份-8" transform="translate(42.666667, 85.333333)" fill-rule="nonzero">
                <g id="编组-20">
                    <polygon id="路径" fill="url(#linearGradient-1)" points="757.609527 0 938.666667 0 938.666667 493.303288 757.609527 493.303288"></polygon>
                    <polygon id="路径" fill="url(#linearGradient-2)" points="503.791107 52.510545 684.848246 52.510545 684.848246 853.333333 503.791107 853.333333"></polygon>
                    <polygon id="路径" fill="url(#linearGradient-3)" points="250.741833 0 431.798973 0 431.798973 649.799503 250.741833 649.799503"></polygon>
                    <polygon id="路径" fill="url(#linearGradient-4)" points="757.609527 494.338707 938.666667 494.338707 938.666667 853.185416 757.609527 853.185416"></polygon>
                    <polygon id="路径" fill="url(#linearGradient-5)" points="503.791107 0 684.848246 0 684.848246 464.903219 503.791107 464.903219"></polygon>
                    <polygon id="路径" fill="url(#linearGradient-6)" points="251.203322 608.382735 432.26046 608.382735 432.26046 853.185416 251.203322 853.185416"></polygon>
                    <polygon id="路径" fill="url(#linearGradient-7)" points="0 0 181.05714 0 181.05714 574.657653 0 574.657653"></polygon>
                    <polygon id="路径" fill="url(#linearGradient-8)" points="0 426.444791 181.05714 426.444791 181.05714 853.185416 0 853.185416"></polygon>
                </g>
            </g>
        </g>
    </g>
</svg>