<?xml version="1.0" encoding="UTF-8"?>
<svg width="1084px" height="1024px" viewBox="0 0 1084 1024" version="1.1" xmlns="http://www.w3.org/2000/svg" xmlns:xlink="http://www.w3.org/1999/xlink">
    <title>百分比堆积柱状图</title>
    <defs>
        <linearGradient x1="50%" y1="0%" x2="50%" y2="100%" id="linearGradient-1">
            <stop stop-color="#FEC08B" offset="0%"></stop>
            <stop stop-color="#FA8334" offset="100%"></stop>
        </linearGradient>
        <linearGradient x1="50%" y1="1.59527972%" x2="50%" y2="100%" id="linearGradient-2">
            <stop stop-color="#E5E5E7" offset="0%"></stop>
            <stop stop-color="#C7C6CA" offset="100%"></stop>
        </linearGradient>
        <linearGradient x1="50%" y1="0%" x2="50%" y2="100%" id="linearGradient-3">
            <stop stop-color="#FEC08B" offset="0%"></stop>
            <stop stop-color="#FA8334" offset="100%"></stop>
        </linearGradient>
        <linearGradient x1="50%" y1="0%" x2="50%" y2="100%" id="linearGradient-4">
            <stop stop-color="#E5E5E7" offset="1.59527972%"></stop>
            <stop stop-color="#C7C6CA" offset="100%"></stop>
        </linearGradient>
        <linearGradient x1="50%" y1="0%" x2="50%" y2="100%" id="linearGradient-5">
            <stop stop-color="#FEC08B" offset="0%"></stop>
            <stop stop-color="#FA8334" offset="100%"></stop>
        </linearGradient>
        <linearGradient x1="50%" y1="0%" x2="50%" y2="100%" id="linearGradient-6">
            <stop stop-color="#E5E5E7" offset="1.59527972%"></stop>
            <stop stop-color="#C7C6CA" offset="100%"></stop>
        </linearGradient>
        <linearGradient x1="50%" y1="0%" x2="50%" y2="100%" id="linearGradient-7">
            <stop stop-color="#FEC08B" offset="0%"></stop>
            <stop stop-color="#FA8334" offset="100%"></stop>
        </linearGradient>
        <linearGradient x1="50%" y1="0%" x2="50%" y2="100%" id="linearGradient-8">
            <stop stop-color="#E5E5E7" offset="1.59527972%"></stop>
            <stop stop-color="#C7C6CA" offset="100%"></stop>
        </linearGradient>
    </defs>
    <g id="页面-1" stroke="none" stroke-width="1" fill="none" fill-rule="evenodd">
        <g id="百分比堆积柱状图" fill-rule="nonzero">
            <polygon id="路径" fill="url(#linearGradient-1)" points="874.189636 0 1083.10765 0 1083.10765 591.963947 874.189636 591.963947"></polygon>
            <polygon id="路径" fill="url(#linearGradient-2)" points="581.313922 63.0126541 790.231932 63.0126541 790.231932 1024 581.313922 1024"></polygon>
            <polygon id="路径" fill="url(#linearGradient-3)" points="289.325707 0 498.243716 0 498.243716 779.759403 289.325707 779.759403"></polygon>
            <polygon id="路径" fill="url(#linearGradient-4)" points="874.189636 593.206449 1083.10765 593.206449 1083.10765 1023.8225 874.189636 1023.8225"></polygon>
            <polygon id="路径" fill="url(#linearGradient-5)" points="581.313922 0 790.231932 0 790.231932 557.883862 581.313922 557.883862"></polygon>
            <polygon id="路径" fill="url(#linearGradient-6)" points="289.858208 730.059281 498.776216 730.059281 498.776216 1023.8225 289.858208 1023.8225"></polygon>
            <polygon id="路径" fill="url(#linearGradient-7)" points="0 0 208.918011 0 208.918011 689.589185 0 689.589185"></polygon>
            <polygon id="路径" fill="url(#linearGradient-8)" points="0 511.733748 208.918011 511.733748 208.918011 1023.8225 0 1023.8225"></polygon>
        </g>
    </g>
</svg>