<?xml version="1.0" encoding="UTF-8"?>
<svg width="1024px" height="1024px" viewBox="0 0 1024 1024" version="1.1" xmlns="http://www.w3.org/2000/svg" xmlns:xlink="http://www.w3.org/1999/xlink">
    <title>百分比堆积条形图</title>
    <defs>
        <linearGradient x1="100%" y1="50%" x2="0%" y2="50%" id="linearGradient-1">
            <stop stop-color="#FEC08B" offset="0%"></stop>
            <stop stop-color="#FA8334" offset="100%"></stop>
        </linearGradient>
        <linearGradient x1="100%" y1="50%" x2="0%" y2="50%" id="linearGradient-2">
            <stop stop-color="#E5E5E7" offset="0%"></stop>
            <stop stop-color="#C7C6CA" offset="100%"></stop>
        </linearGradient>
        <linearGradient x1="100%" y1="50%" x2="0%" y2="50%" id="linearGradient-3">
            <stop stop-color="#FEC08B" offset="0%"></stop>
            <stop stop-color="#FA8334" offset="100%"></stop>
        </linearGradient>
        <linearGradient x1="100%" y1="50%" x2="0%" y2="50%" id="linearGradient-4">
            <stop stop-color="#E5E5E7" offset="0%"></stop>
            <stop stop-color="#C7C6CA" offset="100%"></stop>
        </linearGradient>
        <linearGradient x1="100%" y1="50%" x2="0%" y2="50%" id="linearGradient-5">
            <stop stop-color="#FEC08B" offset="0%"></stop>
            <stop stop-color="#FA8334" offset="100%"></stop>
        </linearGradient>
        <linearGradient x1="100%" y1="50%" x2="0%" y2="50%" id="linearGradient-6">
            <stop stop-color="#E5E5E7" offset="0%"></stop>
            <stop stop-color="#C7C6CA" offset="100%"></stop>
        </linearGradient>
        <linearGradient x1="100%" y1="50%" x2="0%" y2="50%" id="linearGradient-7">
            <stop stop-color="#FEC08B" offset="0%"></stop>
            <stop stop-color="#FA8334" offset="100%"></stop>
        </linearGradient>
        <linearGradient x1="100%" y1="50%" x2="0%" y2="50%" id="linearGradient-8">
            <stop stop-color="#E5E5E7" offset="0%"></stop>
            <stop stop-color="#C7C6CA" offset="100%"></stop>
        </linearGradient>
    </defs>
    <g id="页面-1" stroke="none" stroke-width="1" fill="none" fill-rule="evenodd">
        <g id="百分比堆积条形图" fill-rule="nonzero">
            <polygon id="路径" fill="url(#linearGradient-1)" points="0 0 592.066576 0 592.066576 197.484514 0 197.484514"></polygon>
            <polygon id="路径" fill="url(#linearGradient-2)" points="62.8460474 277.015238 1024 277.015238 1024 474.499754 62.8460474 474.499754"></polygon>
            <polygon id="路径" fill="url(#linearGradient-3)" points="0 552.855971 779.89459 552.855971 779.89459 750.340484 0 750.340484"></polygon>
            <polygon id="路径" fill="url(#linearGradient-4)" points="593.309292 0 1024 0 1024 197.484514 593.309292 197.484514"></polygon>
            <polygon id="路径" fill="url(#linearGradient-5)" points="0 277.015238 557.98058 277.015238 557.98058 474.499754 0 474.499754"></polygon>
            <polygon id="路径" fill="url(#linearGradient-6)" points="730.185852 552.520397 1024 552.520397 1024 750.004915 730.185852 750.004915"></polygon>
            <polygon id="路径" fill="url(#linearGradient-7)" points="0 826.515482 689.708738 826.515482 689.708738 1024 0 1024"></polygon>
            <polygon id="路径" fill="url(#linearGradient-8)" points="511.822469 826.515482 1024 826.515482 1024 1024 511.822469 1024"></polygon>
        </g>
    </g>
</svg>