<?xml version="1.0" encoding="UTF-8"?>
<svg width="1024px" height="1164px" viewBox="0 0 1024 1164" version="1.1" xmlns="http://www.w3.org/2000/svg" xmlns:xlink="http://www.w3.org/1999/xlink">
    <title>编组</title>
    <defs>
        <linearGradient x1="50%" y1="0%" x2="50%" y2="100%" id="linearGradient-1">
            <stop stop-color="#E5E5E7" offset="0%"></stop>
            <stop stop-color="#C7C6CA" offset="100%"></stop>
        </linearGradient>
        <linearGradient x1="50%" y1="0%" x2="50%" y2="100%" id="linearGradient-2">
            <stop stop-color="#FFB676" offset="0%"></stop>
            <stop stop-color="#FA8334" offset="100%"></stop>
        </linearGradient>
        <linearGradient x1="50%" y1="0%" x2="50%" y2="100%" id="linearGradient-3">
            <stop stop-color="#FEC08B" offset="0%"></stop>
            <stop stop-color="#FA8334" offset="100%"></stop>
        </linearGradient>
    </defs>
    <g id="页面-1" stroke="none" stroke-width="1" fill="none" fill-rule="evenodd">
        <g id="编组" transform="translate(0.000000, 0.000000)" fill-rule="nonzero">
            <path d="M511.999153,1163.63636 C508.522589,1163.63636 504.349691,1162.94745 501.562666,1160.88577 L10.4364838,880.773748 C3.47656331,877.329203 0,870.450199 0,862.87556 L0,300.589836 C0,293.01688 3.47656331,286.82006 10.4364838,282.691648 L501.562666,2.57962734 C508.522584,-0.859875781 515.475712,-0.859875781 522.435635,2.57962734 L1013.57031,282.691648 C1020.52344,286.137872 1024,293.01688 1024,300.589836 L1024,862.18665 C1024,869.761289 1020.52344,875.956429 1013.57031,880.084838 L522.435635,1160.88577 C519.655401,1162.94745 515.475712,1163.63636 511.999153,1163.63636 Z M41.735747,850.490326 L511.999153,1118.89929 L982.262556,850.490326 L982.262556,313.665662 L511.999153,45.24829 L41.735747,313.665662 L41.735747,850.490326 Z" id="形状" fill="url(#linearGradient-1)"></path>
            <polygon id="路径" fill-opacity="0.75" fill="url(#linearGradient-2)" points="507.826255 167.216197 893.913339 404.659556 768.697605 755.656934 507.824556 812.097054 111.999018 848.570575 173.909704 435.625169"></polygon>
            <polygon id="路径" fill="url(#linearGradient-3)" points="507.826255 342.718248 758.262821 486.559056 873.042069 817.598243 507.826255 961.444094 257.389691 755.656934 288.695747 496.882607"></polygon>
        </g>
    </g>
</svg>