<?xml version="1.0" encoding="UTF-8"?>
<svg width="1024px" height="1024px" viewBox="0 0 1024 1024" version="1.1" xmlns="http://www.w3.org/2000/svg" xmlns:xlink="http://www.w3.org/1999/xlink">
    <defs>
        <linearGradient x1="100%" y1="50%" x2="0%" y2="50%" id="linearGradient-1">
            <stop stop-color="#C7C6CA" offset="0%"></stop>
            <stop stop-color="#E5E5E7" offset="100%"></stop>
        </linearGradient>
        <linearGradient x1="50%" y1="0%" x2="50%" y2="100%" id="linearGradient-2">
            <stop stop-color="#FEC08B" offset="0%"></stop>
            <stop stop-color="#FA8334" offset="100%"></stop>
        </linearGradient>
        <linearGradient x1="100%" y1="50%" x2="0%" y2="50%" id="linearGradient-3">
            <stop stop-color="#C7C6CA" offset="0%"></stop>
            <stop stop-color="#E5E5E7" offset="100%"></stop>
        </linearGradient>
        <linearGradient x1="50%" y1="0%" x2="50%" y2="100%" id="linearGradient-4">
            <stop stop-color="#FEC08B" offset="0%"></stop>
            <stop stop-color="#FA8334" offset="100%"></stop>
        </linearGradient>
    </defs>
    <g id="页面-1" stroke="none" stroke-width="1" fill="none" fill-rule="evenodd">
        <g id="编组-63">
            <rect id="矩形备份-159" x="0" y="0" width="1024" height="1024"></rect>
            <g id="编组-50备份-6" transform="translate(85.333333, 42.666667)" fill-rule="nonzero">
                <g id="编组-28">
                    <path d="M497.815608,216.453354 C340.725269,216.453354 213.378388,345.665977 213.378388,505.057826 C213.378388,664.449675 340.725269,793.662298 497.815608,793.662298 C654.905948,793.662298 782.252829,664.449675 782.252829,505.057826 C782.252829,345.665977 654.905948,216.453354 497.815608,216.453354 L497.815608,216.453354 Z M497.815608,649.360062 C419.270439,649.360062 355.596998,584.75375 355.596998,505.057826 C355.596998,425.361902 419.270439,360.75559 497.815608,360.75559 C576.360778,360.75559 640.034219,425.361902 640.034219,505.057826 C640.034219,543.329159 625.050515,580.032997 598.379352,607.094916 C571.708189,634.156835 535.534329,649.360062 497.815608,649.360062 Z" id="形状" fill="url(#linearGradient-1)"></path>
                    <path d="M782.252829,288.604472 L611.590497,419.197996 C629.908319,443.978505 639.881062,474.082092 640.034219,505.057826 C640.063888,543.340675 625.099639,580.066546 598.435275,607.151658 L749.187002,760.112028 C874.291161,633.180465 888.383345,432.230671 782.252829,288.604472 L782.252829,288.604472 Z" id="路径" fill="url(#linearGradient-2)"></path>
                    <path d="M598.435275,607.151658 C571.759578,634.248305 535.561743,649.473578 497.815608,649.473578 C460.069474,649.473578 423.871638,634.248305 397.195942,607.151658 L195.956608,811.339322 C276.012263,892.850396 384.758294,938.666667 498.171155,938.666667 C611.584016,938.666667 720.330047,892.850396 800.385702,811.339322 L598.435275,607.151658 Z" id="路径" fill="url(#linearGradient-3)"></path>
                    <path d="M355.596998,505.057826 C355.596998,425.361902 419.270439,360.75559 497.815608,360.75559 L497.815608,0 C296.477245,-0.0147406883 114.957505,123.038822 37.9066829,311.775632 C-39.1441386,500.512442 3.44956142,717.759698 145.824548,862.20586 L397.195942,607.151658 C370.531578,580.066546 355.567329,543.340675 355.596998,505.057826 Z" id="路径" fill="url(#linearGradient-4)"></path>
                </g>
            </g>
        </g>
    </g>
</svg>