<svg t="1649936184506" class="icon" viewBox="0 0 1024 1024" version="1.1" xmlns="http://www.w3.org/2000/svg" p-id="3387" width="128" height="128"><path d="M768.6144 962.9468448c-2.19591147 1.31982187-4.41457813 2.61688853-6.64462187 3.9139552l6.64462187-3.9139552z m8.56746667-5.23377814l-3.57262187 2.20728854a504.5248 504.5248 0 0 1 3.57262187-2.20728854z m20.4572448-13.50542186c-1.34257813 0.9443552-2.69653333 1.8659552-4.0504896 2.7875552l4.0504896-2.7875552z m7.87342186-5.57511147l-5.13137813 3.6636448 5.12-3.67502293z m6.92906667-5.12l-5.84817813 4.3235552c1.95697813-1.42222187 3.9139552-2.8672 5.84817813-4.3235552z m6.5308448-4.9948448c-1.08088853 0.8419552-2.16177813 1.68391147-3.2540448 2.50311147l3.2540448-2.50311147z m8.10097707-6.42844373l-4.096 3.2995552a499.8144 499.8144 0 0 1 4.096-3.2995552z m12.68622293-10.63822294l-4.096 3.50435627c1.37671147-1.16053333 2.7420448-2.3324448 4.096-3.50435627z m6.05297707-5.3248l-4.69902187 4.1528896 4.69902187-4.1528896z m7.21351146-6.5991104l-5.88231146 5.39306667c1.97973333-1.78631147 3.93671147-3.584 5.88231146-5.39306667z m11.1388448-10.7064896a498.688 498.688 0 0 1-3.5384896 3.4816l3.52711147-3.4816zM512 32.71111146c226.49742187 0.1820448 424.66417813 152.41671147 483.21422187 371.21137707 47.03573333 175.7980448-5.46133333 359.37848853-129.64977707 483.49866667L511.73831147 533.59502186 512 533.33333333V32.71111146z m272.62293333 920.24604374l-5.27928853 3.39057813-2.16177813 1.36533333c2.50311147-1.57013333 4.98346667-3.1516448 7.44106666-4.75591146z m6.74702187-4.46008854c-2.10488853 1.42222187-4.2211552 2.82168853-6.3488 4.20977814l-0.39822187 0.2503104 6.74702187-4.46008854z m41.87022293-31.49368853c-1.68391147 1.42222187-3.39057813 2.82168853-5.0972448 4.2211552l-1.06951146 0.86471147 6.17813333-5.08586667z m25.7479104-23.13102293l-1.18328853 1.13777813-4.61937813 4.36906667 5.80266666-5.5068448z" fill="#5AB1EF" p-id="3388"></path><path d="M511.73831147 533.59502186L809.41511147 831.27182186C733.25226667 907.29813333 628.1216 954.31111146 512 954.31111146c-116.2467552 0-221.4912-47.11537813-297.6768-123.30097813L332.33351147 712.9884448l179.4048-179.39342294z" fill="#19D4AE" p-id="3389"></path><path d="M262.59911147 283.9324448L512 533.33333333 262.59911147 782.73422186c-137.7507552-137.73937813-137.7507552-361.0624 0-498.80177706z" fill="#8a8a8a" p-id="3390"></path><path d="M512 533.33333333L310.8636448 332.19697813A283.55697813 283.55697813 0 0 1 512 248.88888853v284.4444448z" fill="#bfbfbf" p-id="3391"></path></svg>