<?xml version="1.0" encoding="UTF-8"?>
<svg width="1024px" height="1127px" viewBox="0 0 1024 1127" version="1.1" xmlns="http://www.w3.org/2000/svg" xmlns:xlink="http://www.w3.org/1999/xlink">
    <title>玫瑰图</title>
    <defs>
        <linearGradient x1="100%" y1="50%" x2="0%" y2="50%" id="linearGradient-1">
            <stop stop-color="#C7C6CA" offset="0%"></stop>
            <stop stop-color="#E5E5E7" offset="100%"></stop>
        </linearGradient>
        <linearGradient x1="50%" y1="0%" x2="50%" y2="100%" id="linearGradient-2">
            <stop stop-color="#FEC08B" offset="0%"></stop>
            <stop stop-color="#FA8334" offset="100%"></stop>
        </linearGradient>
        <linearGradient x1="100%" y1="50%" x2="0%" y2="50%" id="linearGradient-3">
            <stop stop-color="#C7C6CA" offset="0%"></stop>
            <stop stop-color="#E5E5E7" offset="100%"></stop>
        </linearGradient>
        <linearGradient x1="50%" y1="0%" x2="50%" y2="100%" id="linearGradient-4">
            <stop stop-color="#FEC08B" offset="0%"></stop>
            <stop stop-color="#FA8334" offset="100%"></stop>
        </linearGradient>
    </defs>
    <g id="页面-1" stroke="none" stroke-width="1" fill="none" fill-rule="evenodd">
        <g id="玫瑰图" transform="translate(0.000000, 0.000000)" fill-rule="nonzero">
            <path d="M597.378729,259.744025 C408.870323,259.744025 256.054065,414.799173 256.054065,606.069391 C256.054065,797.339612 408.870323,952.394757 597.378729,952.394757 C785.887135,952.394757 938.703396,797.339612 938.703396,606.069391 C938.703396,414.799173 785.887135,259.744025 597.378729,259.744025 L597.378729,259.744025 Z M597.378729,779.232077 C503.124527,779.232077 426.716398,701.704499 426.716398,606.069391 C426.716398,510.434282 503.124527,432.906708 597.378729,432.906708 C691.632932,432.906708 768.041063,510.434282 768.041063,606.069391 C768.041063,651.994993 750.060616,696.039598 718.055224,728.5139 C686.049828,760.988201 642.641193,779.232077 597.378729,779.232077 Z" id="形状" fill="url(#linearGradient-1)"></path>
            <path d="M938.703396,346.325366 L733.908598,503.037595 C755.889982,532.774206 767.857275,568.898509 768.041063,606.069391 C768.076667,652.008812 750.119568,696.079857 718.122332,728.581991 L899.024405,912.134436 C1049.14939,759.816556 1066.06001,518.676808 938.703396,346.325366 L938.703396,346.325366 Z" id="路径" fill="url(#linearGradient-2)"></path>
            <path d="M718.122332,728.581991 C686.111493,761.097969 642.674089,779.368295 597.378729,779.368295 C552.083369,779.368295 508.645966,761.097969 476.63513,728.581991 L235.14793,973.607189 C331.214715,1071.42048 461.709953,1126.4 597.805384,1126.4 C733.900821,1126.4 864.396058,1071.42048 960.462843,973.607189 L718.122332,728.581991 Z" id="路径" fill="url(#linearGradient-3)"></path>
            <path d="M426.716398,606.069391 C426.716398,510.434282 503.124527,432.906708 597.378729,432.906708 L597.378729,0 C355.772694,-0.017688826 137.949005,147.646586 45.4880195,374.130759 C-46.9729664,600.614933 4.13947369,861.311637 174.989457,1034.64704 L476.63513,728.581991 C444.637893,696.079857 426.680795,652.008812 426.716398,606.069391 Z" id="路径" fill="url(#linearGradient-4)"></path>
        </g>
    </g>
</svg>