<?xml version="1.0" encoding="UTF-8"?>
<svg width="1024px" height="1024px" viewBox="0 0 1024 1024" version="1.1" xmlns="http://www.w3.org/2000/svg" xmlns:xlink="http://www.w3.org/1999/xlink">
    <defs>
        <linearGradient x1="50%" y1="0%" x2="50%" y2="100%" id="linearGradient-1">
            <stop stop-color="#FEC08B" offset="0%"></stop>
            <stop stop-color="#FA8334" offset="100%"></stop>
        </linearGradient>
    </defs>
    <g id="页面-1" stroke="none" stroke-width="1" fill="none" fill-rule="evenodd">
        <g id="编组-76">
            <rect id="矩形备份-158" x="0" y="0" width="1024" height="1024"></rect>
            <g id="fsux_图表_气泡地图备份-8" transform="translate(42.666667, 128.000000)" fill-rule="nonzero">
                <g id="fsux_图表_气泡地图备份-5">
                    <g id="编组-36">
                        <path d="M938.666667,141.656909 L938.666667,61.5898192 L932.407664,61.5898192 L910.506656,86.22618 C907.377154,89.3051838 904.247653,89.3051838 901.119252,89.3051838 L891.732948,89.3051838 C888.604547,89.3051838 882.346645,86.22618 882.346645,83.1460936 L866.701339,70.8289958 C863.572937,67.7489094 860.444536,64.668823 857.315035,64.668823 L838.541328,64.668823 C835.412926,64.668823 829.155024,61.5898192 826.026623,58.5108155 L791.607609,9.2391766 C788.479208,6.15909019 785.350807,3.07900378 782.221306,3.07900378 L760.320297,0 L754.061295,0 L719.644481,12.3181804 L719.644481,30.7954509 L713.385479,70.8289958 C713.385479,73.9079996 710.257077,76.9870034 710.257077,76.9870034 L703.999175,83.1471762 C700.870774,86.22618 697.741273,86.22618 694.612871,86.22618 L688.354969,86.22618 C682.097066,86.22618 675.839164,89.3051838 675.839164,95.4642739 L669.581262,110.861458 C666.45286,120.100635 672.710763,129.338729 682.097066,129.338729 L697.741273,129.338729 L710.257077,120.100635 L719.644481,126.259725 C725.901284,132.417732 722.772882,144.735913 713.385479,147.814917 L685.225468,157.054093 L685.225468,175.531364 L657.065457,175.531364 L650.808654,194.007552 L625.777044,190.928548 C619.519142,190.928548 616.390741,194.007552 613.26124,197.087638 L607.004437,206.325732 L616.390741,215.563826 L591.359131,243.279191 C588.23073,246.359277 585.101229,246.359277 581.972827,246.359277 L544.426513,246.359277 C541.297011,246.359277 538.16751,246.359277 535.039109,249.438281 L525.652805,258.677457 C522.524404,261.756461 519.394903,261.756461 516.266502,261.756461 L488.106491,261.756461 C484.976989,261.756461 481.847488,261.756461 478.719087,258.677457 L459.94648,243.279191 C456.816978,243.279191 456.816978,240.200187 453.687477,240.200187 L384.85275,237.121183 C381.724349,237.121183 378.594848,234.041097 375.466447,230.96101 L337.919032,181.690454 C334.790631,178.610368 331.66113,175.530281 328.532728,175.530281 L325.404327,175.530281 C319.145325,175.530281 312.888522,169.372274 312.888522,163.213183 L312.888522,141.656909 L309.759021,123.179638 C309.759021,120.100635 306.63062,117.020548 303.501119,113.941545 L281.60011,113.941545 C278.470609,113.941545 275.341108,110.861458 275.341108,107.781372 L269.084305,89.3051838 L253.438999,89.3051838 L244.052695,101.623364 L228.408489,101.623364 L228.408489,117.020548 L197.118977,117.020548 C193.990576,117.020548 187.732673,120.100635 187.732673,123.180721 L175.216868,141.656909 C172.088467,144.735913 168.958966,147.815999 162.701064,147.815999 L147.056857,147.815999 C140.798955,147.815999 134.541053,153.975089 134.541053,160.133097 L134.541053,178.610368 C134.541053,181.690454 134.541053,184.769458 131.412651,184.769458 L122.026348,200.166642 C118.896846,203.246728 118.896846,206.326815 112.638944,206.326815 L78.2210306,215.563826 L25.0316098,215.563826 C21.9021086,215.563826 18.7737073,218.643912 15.6453061,218.643912 L6.25790244,230.962093 C0,240.200187 0,243.279191 0,246.359277 L0,261.756461 L12.5158049,261.756461 L12.5158049,311.0281 C12.5158049,314.108186 15.6453061,317.188273 18.7737073,320.267277 L40.6758159,338.743464 C43.8053171,341.823551 43.8053171,341.823551 43.8053171,344.903637 L50.0621196,366.458829 L50.0621196,406.492374 L37.5474147,406.492374 L37.5474147,431.128735 C37.5474147,434.207738 40.6758159,437.286742 40.6758159,440.366829 L68.8358269,465.002107 L84.480033,465.002107 L147.059057,526.593009 L150.187459,529.672012 L203.377979,551.227204 L212.765383,538.910106 L231.53799,538.910106 C237.796993,538.910106 240.925394,541.990193 244.053795,545.069197 L253.440099,563.546467 C256.5696,566.625471 259.699101,569.705557 265.955904,569.705557 L281.60011,569.705557 C284.729611,569.705557 284.729611,569.705557 287.859112,566.625471 L319.147525,548.1482 C322.275926,545.069197 328.533828,545.069197 331.66223,548.1482 L359.822241,560.466381 L359.822241,548.1482 L375.467547,548.1482 L381.725449,566.625471 L381.725449,594.340835 C381.725449,597.420922 381.725449,600.499926 378.595948,603.578929 L362.951742,618.977196 L362.951742,634.37438 L375.467547,637.453384 C378.595948,637.453384 384.85385,640.53347 384.85385,646.692561 L387.982252,655.930655 L387.982252,677.486929 L419.271764,699.043203 C422.400165,702.12329 425.529666,702.12329 425.529666,702.12329 L431.787569,702.12329 C438.045471,702.12329 444.302274,695.963117 444.302274,689.805109 C444.302274,683.647102 450.561276,677.486929 456.818078,677.486929 L488.107591,677.486929 C491.235992,677.486929 494.365493,677.486929 497.493894,674.407925 L506.880198,668.247752 C513.1392,665.168749 519.396003,665.168749 525.653905,671.327839 L547.556014,695.9642 C550.685515,699.043203 553.813916,702.12329 556.942318,702.12329 L594.489732,702.12329 L597.618133,717.520474 L575.717125,742.155752 L575.717125,757.554019 L591.360231,766.792113 C597.619233,769.871117 607.005537,766.792113 610.133938,760.633023 L625.778144,739.076748 C628.907646,735.997744 628.907646,732.917658 628.907646,729.838654 L625.778144,708.28238 C625.778144,702.122207 628.907646,692.884113 635.165548,692.884113 L657.066557,686.725023 L663.325559,686.725023 L675.840264,689.805109 L691.48557,683.646019 L694.613971,668.248835 C694.613971,662.088662 700.871874,659.009658 704.000275,659.009658 L722.773982,652.851651 C725.902384,652.851651 725.902384,652.851651 729.031885,649.771564 L788.480308,597.420922 C791.609809,594.340835 791.609809,594.340835 791.609809,591.260749 L800.996113,545.069197 C800.996113,541.990193 804.125614,538.910106 807.254015,535.831103 L822.898221,526.591926 C826.027723,523.512922 829.157224,517.353832 829.157224,514.274828 L822.898221,458.844099 C822.898221,455.764013 819.76982,452.683926 816.640319,449.604923 L804.125614,440.366829 C800.996113,437.286742 797.866612,434.207738 797.866612,431.128735 L794.73821,418.810554 C794.73821,415.730468 791.609809,412.650381 788.480308,409.571378 L766.579299,391.09519 C760.320297,388.015103 760.320297,378.777009 763.449798,372.617919 L775.965603,351.061645 C775.965603,347.982641 779.094004,347.982641 782.222406,344.902555 L807.254015,335.664461 L807.254015,320.267277 L782.222406,320.267277 C779.094004,320.267277 772.836102,323.34628 769.707701,326.425284 L760.320297,338.743464 L750.933993,347.982641 L747.805592,332.584374 L725.902384,326.425284 L779.094004,258.677457 L785.351907,267.915551 L785.351907,286.392822 C785.351907,289.471826 785.351907,295.630916 788.480308,295.630916 L791.609809,298.70992 C797.867712,301.790006 804.125614,301.790006 810.382417,298.70992 L854.187734,255.597371 C857.316135,252.518367 857.316135,249.438281 857.316135,243.279191 L854.187734,230.962093 L882.347745,227.882006 C885.476146,227.882006 888.605647,224.803003 891.734048,224.803003 L916.765658,200.166642 C919.894059,197.087638 923.022461,190.928548 919.894059,184.769458 L904.249853,150.895003 L916.765658,138.576823 L938.666667,138.576823 L938.666667,141.656909 Z" id="路径" fill="#C7C6CA"></path>
                        <path d="M187.732673,347.982641 C187.732673,381.997759 215.749764,409.57246 250.310598,409.57246 C284.871431,409.57246 312.888522,381.997759 312.888522,347.982641 C312.888522,313.967523 284.871431,286.392822 250.310598,286.392822 C215.749764,286.392822 187.732673,313.967523 187.732673,347.982641 Z M315.732673,485.859383 C315.732673,503.253436 330.059561,517.354103 347.732673,517.354103 C365.405785,517.354103 379.732673,503.253436 379.732673,485.859383 C379.732673,468.465329 365.405785,454.364662 347.732673,454.364662 C330.059561,454.364662 315.732673,468.465329 315.732673,485.859383 Z M571.732673,347.982641 C571.732673,381.997759 599.749764,409.57246 634.310598,409.57246 C668.871431,409.57246 696.888522,381.997759 696.888522,347.982641 C696.888522,313.967523 668.871431,286.392822 634.310598,286.392822 C599.749764,286.392822 571.732673,313.967523 571.732673,347.982641 Z M548.977264,494.958002 C548.977264,506.554037 558.528523,515.954482 570.310598,515.954482 C582.092672,515.954482 591.643931,506.554037 591.643931,494.958002 C591.643931,483.361966 582.092672,473.961522 570.310598,473.961522 C558.528523,473.961522 548.977264,483.361966 548.977264,494.958002 Z M762.310598,284.993201 C762.310598,296.589237 771.861856,305.989681 783.643931,305.989681 C795.426006,305.989681 804.977264,296.589237 804.977264,284.993201 C804.977264,273.397165 795.426006,263.996721 783.643931,263.996721 C771.861856,263.996721 762.310598,273.397165 762.310598,284.993201 Z M634.310598,599.940402 C634.310598,623.132473 653.413115,641.933362 676.977264,641.933362 C700.541414,641.933362 719.643931,623.132473 719.643931,599.940402 C719.643931,576.74833 700.541414,557.947442 676.977264,557.947442 C653.413115,557.947442 634.310598,576.74833 634.310598,599.940402 Z M688.354416,486.559464 C688.230708,525.147604 709.076186,560.856958 743.010078,580.186419 C776.94397,599.51588 818.788153,599.51588 852.722045,580.186419 C886.655937,560.856958 907.501415,525.147604 907.378259,486.559464 C907.553039,447.937805 886.718999,412.175623 852.764066,392.814649 C818.809133,373.453676 776.924091,373.453676 742.969157,392.814649 C709.014224,412.175623 688.180184,447.937805 688.354416,486.559464 L688.354416,486.559464 Z" id="形状" fill="url(#linearGradient-1)"></path>
                    </g>
                    <path d="M785.350807,649.771564 C785.350807,652.851651 782.221306,652.851651 782.221306,655.930655 L782.221306,680.567015 C782.221306,683.646019 782.221306,686.725023 785.350807,689.805109 L797.866612,708.28238 L807.252915,695.9642 C807.252915,692.884113 810.381317,692.884113 810.381317,689.804027 L816.640319,625.136286 L800.993913,625.136286 L785.351907,649.770482 L785.350807,649.771564 Z" id="路径" fill="#C7C6CA"></path>
                </g>
            </g>
        </g>
    </g>
</svg>