<?xml version="1.0" encoding="UTF-8"?>
<svg width="1024px" height="1024px" viewBox="0 0 1024 1024" version="1.1" xmlns="http://www.w3.org/2000/svg" xmlns:xlink="http://www.w3.org/1999/xlink">
    <defs>
        <linearGradient x1="50%" y1="0%" x2="50%" y2="100%" id="linearGradient-1">
            <stop stop-color="#FEC08B" offset="0%"></stop>
            <stop stop-color="#FA8334" offset="100%"></stop>
        </linearGradient>
        <linearGradient x1="50%" y1="0%" x2="50%" y2="100%" id="linearGradient-2">
            <stop stop-color="#E5E5E7" offset="0%"></stop>
            <stop stop-color="#C7C6CA" offset="100%"></stop>
        </linearGradient>
    </defs>
    <g id="页面-1" stroke="none" stroke-width="1" fill="none" fill-rule="evenodd">
        <g id="编组-70">
            <rect id="矩形备份-165" x="0" y="0" width="1024" height="1024"></rect>
            <g id="散点图备份-3" transform="translate(42.666667, 42.666667)" fill-rule="nonzero">
                <g id="编组-34">
                    <path d="M48.5517241,631.172414 C48.5490689,648.517389 57.8023943,664.545943 72.8254405,673.219197 C87.8484868,681.892451 106.35841,681.892451 121.381456,673.219197 C136.404502,664.545943 145.657828,648.517389 145.655172,631.172414 C145.657828,613.827439 136.404502,597.798885 121.381456,589.12563 C106.35841,580.452376 87.8484868,580.452376 72.8254405,589.12563 C57.8023943,597.798885 48.5490689,613.827439 48.5517241,631.172414 L48.5517241,631.172414 Z" id="路径" fill="url(#linearGradient-1)"></path>
                    <path d="M16.183908,857.747126 C16.183908,902.437754 52.4128202,938.666667 97.1034483,938.666667 C141.794076,938.666667 178.022989,902.437754 178.022989,857.747126 C178.022989,813.056498 141.794076,776.827586 97.1034483,776.827586 C52.4128202,776.827586 16.183908,813.056498 16.183908,857.747126 Z" id="路径" fill="url(#linearGradient-1)"></path>
                    <path d="M728.275862,105.195402 C728.275862,163.293219 775.373448,210.390805 833.471264,210.390805 C891.569081,210.390805 938.666667,163.293219 938.666667,105.195402 C938.666667,47.0975859 891.569081,0 833.471264,0 C775.373448,0 728.275862,47.0975859 728.275862,105.195402 L728.275862,105.195402 Z" id="路径" fill="url(#linearGradient-2)"></path>
                    <path d="M436.965517,825.37931 C436.965517,852.193687 458.702865,873.931034 485.517241,873.931034 C512.331618,873.931034 534.068966,852.193687 534.068966,825.37931 C534.068966,798.564934 512.331618,776.827586 485.517241,776.827586 C458.702865,776.827586 436.965517,798.564934 436.965517,825.37931 L436.965517,825.37931 Z" id="路径" fill="url(#linearGradient-1)"></path>
                    <path d="M582.62069,210.390805 C582.62069,227.736665 591.874595,243.764901 606.896551,252.437831 C621.918507,261.110761 640.42632,261.110761 655.448276,252.437831 C670.470232,243.764901 679.724138,227.736665 679.724138,210.390805 C679.724138,193.044944 670.470232,177.016708 655.448276,168.343778 C640.42632,159.670848 621.918507,159.670848 606.896551,168.343778 C591.874595,177.016708 582.62069,193.044944 582.62069,210.390805 Z" id="路径" fill="url(#linearGradient-2)"></path>
                    <path d="M0,105.195402 C0,163.293219 47.0975859,210.390805 105.195402,210.390805 C163.293219,210.390805 210.390805,163.293219 210.390805,105.195402 C210.390805,47.0975859 163.293219,0 105.195402,0 C47.0975859,0 0,47.0975859 0,105.195402 Z" id="路径" fill="url(#linearGradient-2)"></path>
                    <path d="M728.275862,436.965517 C728.275862,481.656145 764.504774,517.885057 809.195402,517.885057 C853.88603,517.885057 890.114943,481.656145 890.114943,436.965517 C890.114943,392.274889 853.88603,356.045977 809.195402,356.045977 C764.504774,356.045977 728.275862,392.274889 728.275862,436.965517 Z" id="路径" fill="url(#linearGradient-1)"></path>
                    <path d="M372.229885,412.689657 C372.229885,470.787472 419.327471,517.885057 477.425287,517.885057 C535.523104,517.885057 582.62069,470.787472 582.62069,412.689657 C582.62069,375.106959 562.570561,340.379114 530.022989,321.587765 C497.475418,302.796416 457.375157,302.796416 424.827585,321.587765 C392.280014,340.379114 372.229885,375.106959 372.229885,412.689657 Z" id="路径" fill="url(#linearGradient-1)"></path>
                    <path d="M97.1034483,388.413793 C97.1034483,433.104421 133.33236,469.333333 178.022989,469.333333 C222.713617,469.333333 258.942529,433.104421 258.942529,388.413793 C258.942529,343.723165 222.713617,307.494253 178.022989,307.494253 C133.33236,307.494253 97.1034483,343.723165 97.1034483,388.413793 Z" id="路径" fill="url(#linearGradient-2)"></path>
                    <path d="M841.563218,890.114943 C841.560563,907.459918 850.813889,923.488472 865.836935,932.161726 C880.859981,940.83498 899.369904,940.83498 914.39295,932.161726 C929.415997,923.488472 938.669322,907.459918 938.666667,890.114943 C938.669322,872.769967 929.415997,856.741413 914.39295,848.068159 C899.369904,839.394905 880.859981,839.394905 865.836935,848.068159 C850.813889,856.741413 841.560563,872.769967 841.563218,890.114943 L841.563218,890.114943 Z" id="路径" fill="url(#linearGradient-1)"></path>
                    <path d="M598.804598,720.183906 C598.804598,757.766604 618.854727,792.494449 651.402298,811.285798 C683.949869,830.077148 724.050131,830.077148 756.597702,811.285798 C789.145273,792.494449 809.195402,757.766604 809.195402,720.183906 C809.195402,662.086091 762.097816,614.988506 704,614.988506 C645.902184,614.988506 598.804598,662.086091 598.804598,720.183906 L598.804598,720.183906 Z" id="路径" fill="url(#linearGradient-2)"></path>
                    <path d="M275.126437,679.724138 C275.126437,724.414766 311.355349,760.643678 356.045977,760.643678 C400.736605,760.643678 436.965517,724.414766 436.965517,679.724138 C436.965517,635.03351 400.736605,598.804598 356.045977,598.804598 C311.355349,598.804598 275.126437,635.03351 275.126437,679.724138 Z" id="路径" fill="url(#linearGradient-2)"></path>
                    <path d="M323.678161,129.471263 C323.678161,158.381031 339.101337,185.094758 364.13793,199.549642 C389.174524,214.004526 420.020879,214.004526 445.057472,199.549642 C470.094065,185.094758 485.517241,158.381031 485.517241,129.471263 C485.517241,84.7806358 449.288329,48.5517241 404.597701,48.5517241 C359.907073,48.5517241 323.678161,84.7806358 323.678161,129.471263 L323.678161,129.471263 Z" id="路径" fill="url(#linearGradient-2)"></path>
                </g>
            </g>
        </g>
    </g>
</svg>