<?xml version="1.0" encoding="UTF-8"?>
<svg width="1024px" height="1024px" viewBox="0 0 1024 1024" version="1.1" xmlns="http://www.w3.org/2000/svg" xmlns:xlink="http://www.w3.org/1999/xlink">
    <title>散点图</title>
    <defs>
        <linearGradient x1="50%" y1="0%" x2="50%" y2="100%" id="linearGradient-1">
            <stop stop-color="#FEC08B" offset="0%"></stop>
            <stop stop-color="#FA8334" offset="100%"></stop>
        </linearGradient>
        <linearGradient x1="50%" y1="0%" x2="50%" y2="100%" id="linearGradient-2">
            <stop stop-color="#FEC08B" offset="0%"></stop>
            <stop stop-color="#FA8334" offset="100%"></stop>
        </linearGradient>
        <linearGradient x1="50%" y1="0%" x2="50%" y2="100%" id="linearGradient-3">
            <stop stop-color="#E5E5E7" offset="0%"></stop>
            <stop stop-color="#C7C6CA" offset="100%"></stop>
        </linearGradient>
        <linearGradient x1="50%" y1="0%" x2="50%" y2="100%" id="linearGradient-4">
            <stop stop-color="#E5E5E7" offset="0%"></stop>
            <stop stop-color="#C7C6CA" offset="100%"></stop>
        </linearGradient>
        <linearGradient x1="50%" y1="0%" x2="50%" y2="100%" id="linearGradient-5">
            <stop stop-color="#E5E5E7" offset="0%"></stop>
            <stop stop-color="#C7C6CA" offset="100%"></stop>
        </linearGradient>
        <linearGradient x1="50%" y1="0%" x2="50%" y2="100%" id="linearGradient-6">
            <stop stop-color="#FEC08B" offset="0%"></stop>
            <stop stop-color="#FA8334" offset="100%"></stop>
        </linearGradient>
        <linearGradient x1="50%" y1="0%" x2="50%" y2="100%" id="linearGradient-7">
            <stop stop-color="#FEC08B" offset="0%"></stop>
            <stop stop-color="#FA8334" offset="100%"></stop>
        </linearGradient>
        <linearGradient x1="50%" y1="0%" x2="50%" y2="100%" id="linearGradient-8">
            <stop stop-color="#FEC08B" offset="0%"></stop>
            <stop stop-color="#FA8334" offset="100%"></stop>
        </linearGradient>
        <linearGradient x1="50%" y1="0%" x2="50%" y2="100%" id="linearGradient-9">
            <stop stop-color="#E5E5E7" offset="0%"></stop>
            <stop stop-color="#C7C6CA" offset="100%"></stop>
        </linearGradient>
        <linearGradient x1="50%" y1="0%" x2="50%" y2="100%" id="linearGradient-10">
            <stop stop-color="#E5E5E7" offset="0%"></stop>
            <stop stop-color="#C7C6CA" offset="100%"></stop>
        </linearGradient>
        <linearGradient x1="50%" y1="0%" x2="50%" y2="100%" id="linearGradient-11">
            <stop stop-color="#E5E5E7" offset="0%"></stop>
            <stop stop-color="#C7C6CA" offset="100%"></stop>
        </linearGradient>
    </defs>
    <g id="页面-1" stroke="none" stroke-width="1" fill="none" fill-rule="evenodd">
        <g id="散点图" fill-rule="nonzero">
            <path d="M52.9655164,688.551722 C52.9626205,707.473515 63.0571576,724.959209 79.445935,734.420941 C95.8347129,743.882673 116.027356,743.882673 132.416134,734.420941 C148.804911,724.959209 158.899449,707.473515 158.896552,688.551722 C158.899449,669.629933 148.804911,652.14424 132.416134,642.682508 C116.027356,633.220776 95.8347129,633.220776 79.445935,642.682508 C63.0571576,652.14424 52.9626205,669.629933 52.9655164,688.551722 L52.9655164,688.551722 Z" id="路径" fill="url(#linearGradient-1)"></path>
            <path d="M17.6551724,935.724139 C17.6551724,984.477552 57.1776219,1024 105.931035,1024 C154.684447,1024 194.206896,984.477552 194.206896,935.724139 C194.206896,886.970726 154.684447,847.448278 105.931035,847.448278 C57.1776219,847.448278 17.6551724,886.970726 17.6551724,935.724139 Z" id="路径" fill="url(#linearGradient-2)"></path>
            <path d="M794.482758,114.758621 C794.482758,178.138057 845.861944,229.517241 909.241381,229.517241 C972.620814,229.517241 1024,178.138057 1024,114.758621 C1024,51.3791846 972.620814,0 909.241381,0 C845.861944,0 794.482758,51.3791846 794.482758,114.758621 L794.482758,114.758621 Z" id="路径" fill="url(#linearGradient-3)"></path>
            <path d="M476.689655,900.413794 C476.689655,929.665839 500.403126,953.379309 529.65517,953.379309 C558.90722,953.379309 582.620691,929.665839 582.620691,900.413794 C582.620691,871.161744 558.90722,847.448278 529.65517,847.448278 C500.403126,847.448278 476.689655,871.161744 476.689655,900.413794 L476.689655,900.413794 Z" id="路径" fill="url(#linearGradient-1)"></path>
            <path d="M635.586206,229.517241 C635.586206,248.439998 645.681375,265.925346 662.068964,275.386725 C678.456553,284.848103 698.646896,284.848103 715.034484,275.386725 C731.422073,265.925346 741.517242,248.439998 741.517242,229.517241 C741.517242,210.594485 731.422073,193.109136 715.034484,183.647758 C698.646896,174.18638 678.456553,174.18638 662.068964,183.647758 C645.681375,193.109136 635.586206,210.594485 635.586206,229.517241 Z" id="路径" fill="url(#linearGradient-4)"></path>
            <path d="M0,114.758621 C0,178.138057 51.3791846,229.517241 114.758621,229.517241 C178.138057,229.517241 229.517241,178.138057 229.517241,114.758621 C229.517241,51.3791846 178.138057,0 114.758621,0 C51.3791846,0 0,51.3791846 0,114.758621 Z" id="路径" fill="url(#linearGradient-5)"></path>
            <path d="M794.482758,476.689655 C794.482758,525.443067 834.005206,564.965516 882.758619,564.965516 C931.512031,564.965516 971.034484,525.443067 971.034484,476.689655 C971.034484,427.936243 931.512031,388.413793 882.758619,388.413793 C834.005206,388.413793 794.482758,427.936243 794.482758,476.689655 Z" id="路径" fill="url(#linearGradient-6)"></path>
            <path d="M406.068965,450.206898 C406.068965,513.586334 457.44815,564.965516 520.827587,564.965516 C584.20702,564.965516 635.586206,513.586334 635.586206,450.206898 C635.586206,409.207592 613.713338,371.32267 578.206897,350.823016 C542.700456,330.323362 498.954715,330.323362 463.448275,350.823016 C427.941834,371.32267 406.068965,409.207592 406.068965,450.206898 Z" id="路径" fill="url(#linearGradient-7)"></path>
            <path d="M105.931035,423.724138 C105.931035,472.477552 145.453484,512 194.206896,512 C242.960309,512 282.482759,472.477552 282.482759,423.724138 C282.482759,374.970725 242.960309,335.448276 194.206896,335.448276 C145.453484,335.448276 105.931035,374.970725 105.931035,423.724138 Z" id="路径" fill="url(#linearGradient-5)"></path>
            <path d="M918.068963,971.034484 C918.066069,989.956273 928.160605,1007.44197 944.549385,1016.9037 C960.938161,1026.36543 981.130803,1026.36543 997.519583,1016.9037 C1013.90836,1007.44197 1024.0029,989.956273 1024,971.034484 C1024.0029,952.112691 1013.90836,934.626998 997.519583,925.165265 C981.130803,915.703533 960.938161,915.703533 944.549385,925.165265 C928.160605,934.626998 918.066069,952.112691 918.068963,971.034484 L918.068963,971.034484 Z" id="路径" fill="url(#linearGradient-8)"></path>
            <path d="M653.241381,785.65517 C653.241381,826.654478 675.114249,864.539401 710.620691,885.039053 C746.127132,905.538704 789.872868,905.538704 825.379309,885.039053 C860.885751,864.539401 882.758619,826.654478 882.758619,785.65517 C882.758619,722.275738 831.379437,670.896552 768,670.896552 C704.620563,670.896552 653.241381,722.275738 653.241381,785.65517 L653.241381,785.65517 Z" id="路径" fill="url(#linearGradient-9)"></path>
            <path d="M300.137931,741.517242 C300.137931,790.270655 339.660381,829.793103 388.413793,829.793103 C437.167205,829.793103 476.689655,790.270655 476.689655,741.517242 C476.689655,692.76383 437.167205,653.241381 388.413793,653.241381 C339.660381,653.241381 300.137931,692.76383 300.137931,741.517242 Z" id="路径" fill="url(#linearGradient-10)"></path>
            <path d="M353.103448,141.241378 C353.103448,172.779306 369.928731,201.921554 397.241378,217.690518 C424.554026,233.459483 458.204595,233.459483 485.517242,217.690518 C512.829891,201.921554 529.65517,172.779306 529.65517,141.241378 C529.65517,92.4879663 490.132722,52.965517 441.37931,52.965517 C392.625898,52.965517 353.103448,92.4879663 353.103448,141.241378 L353.103448,141.241378 Z" id="路径" fill="url(#linearGradient-11)"></path>
        </g>
    </g>
</svg>