<?xml version="1.0" encoding="UTF-8"?>
<svg width="1024px" height="1024px" viewBox="0 0 1024 1024" version="1.1" xmlns="http://www.w3.org/2000/svg" xmlns:xlink="http://www.w3.org/1999/xlink">
    <title>来源去向</title>
    <defs>
        <linearGradient x1="50%" y1="0%" x2="50%" y2="100%" id="linearGradient-1">
            <stop stop-color="#E5E5E7" offset="0%"></stop>
            <stop stop-color="#C7C6CA" offset="100%"></stop>
        </linearGradient>
        <linearGradient x1="50%" y1="0%" x2="50%" y2="100%" id="linearGradient-2">
            <stop stop-color="#E5E5E7" offset="0%"></stop>
            <stop stop-color="#C7C6CA" offset="100%"></stop>
        </linearGradient>
        <linearGradient x1="50%" y1="0%" x2="50%" y2="100%" id="linearGradient-3">
            <stop stop-color="#E5E5E7" offset="0%"></stop>
            <stop stop-color="#C7C6CA" offset="100%"></stop>
        </linearGradient>
        <linearGradient x1="50%" y1="0%" x2="50%" y2="100%" id="linearGradient-4">
            <stop stop-color="#E5E5E7" offset="0%"></stop>
            <stop stop-color="#C8C7CB" offset="100%"></stop>
        </linearGradient>
        <linearGradient x1="50%" y1="0%" x2="50%" y2="100%" id="linearGradient-5">
            <stop stop-color="#C8C7CB" offset="0%"></stop>
            <stop stop-color="#E4E4E6" offset="100%"></stop>
        </linearGradient>
        <linearGradient x1="50%" y1="1.30299388%" x2="50%" y2="100%" id="linearGradient-6">
            <stop stop-color="#E4E4E6" offset="0%"></stop>
            <stop stop-color="#C8C7CB" offset="100%"></stop>
        </linearGradient>
        <linearGradient x1="50%" y1="1.30299388%" x2="50%" y2="100%" id="linearGradient-7">
            <stop stop-color="#E4E4E6" offset="0%"></stop>
            <stop stop-color="#C8C7CB" offset="100%"></stop>
        </linearGradient>
        <linearGradient x1="50%" y1="0%" x2="50%" y2="100%" id="linearGradient-8">
            <stop stop-color="#FEBC85" offset="0%"></stop>
            <stop stop-color="#FB944C" offset="100%"></stop>
        </linearGradient>
        <linearGradient x1="50%" y1="0%" x2="50%" y2="100%" id="linearGradient-9">
            <stop stop-color="#FEBC85" offset="0%"></stop>
            <stop stop-color="#FB944C" offset="100%"></stop>
        </linearGradient>
        <linearGradient x1="50%" y1="0%" x2="50%" y2="100%" id="linearGradient-10">
            <stop stop-color="#FEBA81" offset="0%"></stop>
            <stop stop-color="#FA8537" offset="100%"></stop>
        </linearGradient>
        <linearGradient x1="50%" y1="0%" x2="50%" y2="100%" id="linearGradient-11">
            <stop stop-color="#FEBC85" offset="0%"></stop>
            <stop stop-color="#FB944C" offset="100%"></stop>
        </linearGradient>
        <linearGradient x1="50%" y1="0%" x2="50%" y2="100%" id="linearGradient-12">
            <stop stop-color="#FEBC85" offset="0%"></stop>
            <stop stop-color="#FB944C" offset="100%"></stop>
        </linearGradient>
        <linearGradient x1="50%" y1="0%" x2="50%" y2="100%" id="linearGradient-13">
            <stop stop-color="#FEBC85" offset="0%"></stop>
            <stop stop-color="#FB944C" offset="100%"></stop>
        </linearGradient>
    </defs>
    <g id="页面-1" stroke="none" stroke-width="1" fill="none" fill-rule="evenodd">
        <g id="来源去向" transform="translate(-0.000000, -0.000000)" fill-rule="nonzero">
            <path d="M529.431013,643.268877 L840.945618,331.807509 L861.368093,351.832057 L549.882248,663.293427 L529.431013,643.268877 Z M319.626068,58.4041597 L348.303821,56.2139757 L370.682249,342.644658 L342.004495,344.834843 L319.626068,58.4041597 Z" id="形状" fill="url(#linearGradient-1)"></path>
            <path d="M54.6516864,387.074125 L354.114159,330.271535 L359.521798,358.231949 L60.1168558,415.006093 L54.6516864,387.074125 Z M527.647642,659.823261 L554.024272,648.474123 L691.688989,961.471464 L665.312359,972.849048 L527.647642,659.823261 Z" id="形状" fill="url(#linearGradient-2)"></path>
            <polygon id="路径" fill="url(#linearGradient-3)" points="232.816181 853.811075 531.760901 641.334687 548.5591 664.431185 249.585619 876.907569"></polygon>
            <path d="M102.054833,639.940933 L127.424721,626.543828 L254.791912,862.372706 L229.422024,875.769811 L102.054833,639.940933 Z M343.730338,350.779631 L368.524945,336.358543 L553.477754,647.876796 L528.683148,662.269444 L343.730338,350.779631 Z M837.03371,345.432166 L865.510112,341.364679 L923.325841,738.357039 L894.878204,742.396081 L837.03371,345.432166 Z" id="形状" fill="url(#linearGradient-4)"></path>
            <path d="M241.617978,344.180632 C241.617978,407.017294 293.130385,457.956474 356.674159,457.956474 C420.217932,457.956474 471.73034,407.017294 471.73034,344.180632 C471.73034,281.343969 420.217932,230.404789 356.674159,230.404789 C293.130385,230.404789 241.617978,281.343969 241.617978,344.180632 Z" id="路径" fill="url(#linearGradient-5)"></path>
            <path d="M678.831463,344.180632 C678.831463,438.435625 756.100073,514.844397 851.41573,514.844397 C946.73139,514.844397 1024,438.435625 1024,344.180632 C1024,249.925638 946.73139,173.516868 851.41573,173.516868 C756.100073,173.516868 678.831463,249.925638 678.831463,344.180632 Z" id="路径" fill="url(#linearGradient-6)"></path>
            <path d="M184.089888,966.082278 C219.688394,986.406374 263.547563,986.406374 299.146069,966.082278 C334.744575,945.758182 356.674158,908.197699 356.674158,867.549506 C356.674158,804.712846 305.161752,753.773664 241.617978,753.773664 C178.074205,753.773664 126.561799,804.712846 126.561799,867.549506 C126.561799,908.197699 148.491382,945.758182 184.089888,966.082278 Z" id="路径" fill="url(#linearGradient-7)"></path>
            <path d="M621.30337,967.103366 C621.300225,987.429538 632.264328,1006.21302 650.064873,1016.37701 C667.865419,1026.541 689.797502,1026.541 707.598048,1016.37701 C725.398594,1006.21302 736.362697,987.429538 736.359551,967.103366 C736.362697,946.777199 725.398594,927.993707 707.598048,917.829726 C689.797502,907.66574 667.865419,907.66574 650.064873,917.829726 C632.264328,927.993707 621.300225,946.777199 621.30337,967.103366 L621.30337,967.103366 Z" id="路径" fill="url(#linearGradient-8)"></path>
            <path d="M57.5280901,631.464633 C57.5249447,651.790805 68.4890486,670.574291 86.2895939,680.738277 C104.090139,690.902258 126.022223,690.902258 143.822769,680.738277 C161.623314,670.574291 172.587418,651.790805 172.584272,631.464633 C172.587418,611.138461 161.623314,592.354974 143.822769,582.190993 C126.022223,572.027007 104.090139,572.027007 86.2895939,582.190993 C68.4890486,592.354974 57.5249447,611.138461 57.5280901,631.464633 L57.5280901,631.464633 Z" id="路径" fill="url(#linearGradient-9)"></path>
            <path d="M454.471912,654.219805 C454.471912,701.347297 493.106214,739.551682 540.764044,739.551682 C588.421875,739.551682 627.05618,701.347297 627.05618,654.219805 C627.05618,607.092307 588.421875,568.887922 540.764044,568.887922 C493.106214,568.887922 454.471912,607.092307 454.471912,654.219805 Z" id="路径" fill="url(#linearGradient-10)"></path>
            <path d="M3.10055012e-14,401.068553 C-0.0031454602,421.394724 10.9609582,440.178212 28.7615034,450.342196 C46.5620487,460.506181 68.4941333,460.506181 86.2946786,450.342196 C104.095224,440.178212 115.059327,421.394724 115.056182,401.068553 C115.059327,380.742382 104.095224,361.958894 86.2946786,351.79491 C68.4941333,341.630926 46.5620487,341.630926 28.7615034,351.79491 C10.9609582,361.958894 -0.00314546017,380.742382 3.10055012e-14,401.068553 Z" id="路径" fill="url(#linearGradient-11)"></path>
            <path d="M276.134831,56.8966307 C276.131686,77.2228018 287.09579,96.0062898 304.896334,106.170273 C322.69688,116.334257 344.628964,116.334257 362.42951,106.170273 C380.230055,96.0062898 391.194159,77.2228018 391.191013,56.8966307 C391.194159,36.5704598 380.230055,17.7869718 362.42951,7.62298791 C344.628964,-2.54099597 322.69688,-2.54099597 304.896334,7.62298791 C287.09579,17.7869718 276.131686,36.5704598 276.134831,56.8966307 Z" id="路径" fill="url(#linearGradient-12)"></path>
            <path d="M822.651686,739.551682 C822.651686,786.67918 861.285991,824.883565 908.943821,824.883565 C956.601652,824.883565 995.235957,786.67918 995.235957,739.551682 C995.235957,692.424185 956.601652,654.219805 908.943821,654.219805 C861.285991,654.219805 822.651686,692.424185 822.651686,739.551682 Z" id="路径" fill="url(#linearGradient-13)"></path>
        </g>
    </g>
</svg>