<?xml version="1.0" encoding="UTF-8"?>
<svg width="1127px" height="1024px" viewBox="0 0 1127 1024" version="1.1" xmlns="http://www.w3.org/2000/svg" xmlns:xlink="http://www.w3.org/1999/xlink">
    <title>堆积面积图</title>
    <defs>
        <linearGradient x1="50%" y1="0%" x2="50%" y2="100%" id="linearGradient-1">
            <stop stop-color="#E5E5E7" offset="0%"></stop>
            <stop stop-color="#C7C6CA" offset="100%"></stop>
        </linearGradient>
        <linearGradient x1="50%" y1="0%" x2="50%" y2="100%" id="linearGradient-2">
            <stop stop-color="#FEC08B" offset="0%"></stop>
            <stop stop-color="#FA8334" offset="100%"></stop>
        </linearGradient>
        <linearGradient x1="50%" y1="0%" x2="50%" y2="100%" id="linearGradient-3">
            <stop stop-color="#E5E5E7" offset="0%"></stop>
            <stop stop-color="#C7C6CA" offset="100%"></stop>
        </linearGradient>
    </defs>
    <g id="页面-1" stroke="none" stroke-width="1" fill="none" fill-rule="evenodd">
        <g id="堆积面积图" transform="translate(-0.000000, 0.000000)" fill-rule="nonzero">
            <polygon id="路径备份-44" fill="url(#linearGradient-1)" transform="translate(563.200001, 974.159294) rotate(90.000000) translate(-563.200001, -974.159294) " points="513.359294 410.959293 613.040707 410.959293 613.040707 1537.35929 513.359294 1537.35929"></polygon>
            <g id="fsux_图表_堆积面积图备份-2" transform="translate(0.000010, 364.743367)" fill="url(#linearGradient-2)">
                <path d="M0,253.239182 L0,468.955757 L1126.4,468.955757 L1126.4,103.172684 C1056.62533,206.340332 966.909686,253.239182 867.227571,253.239182 C707.737257,253.239182 608.055142,0 398.725782,0 C249.200602,0 119.617735,84.4151601 0,253.239182 Z" id="路径"></path>
            </g>
            <path d="M1126.40001,415.931198 C1056.62534,527.519103 966.909696,578.245714 867.227581,578.245714 C707.737267,578.245714 608.055153,304.337841 398.725792,304.337841 C249.200612,304.337841 119.617745,395.642736 1.02400001e-05,578.245714 L1.02400001e-05,344.916128 C109.647258,111.593358 239.235479,0 388.755305,0 C500.292226,0 564.644844,60.023555 623.131428,121.669368 L642.466371,142.197944 C696.954322,200.078516 750.304901,253.618045 837.325491,253.618045 C966.909696,253.618046 1066.59047,202.892803 1126.40001,111.593358 L1126.40001,111.593358 L1126.40001,415.931198 Z" id="形状结合" fill="url(#linearGradient-3)"></path>
        </g>
    </g>
</svg>