<?xml version="1.0" encoding="UTF-8"?>
<svg width="1024px" height="1024px" viewBox="0 0 1024 1024" version="1.1" xmlns="http://www.w3.org/2000/svg" xmlns:xlink="http://www.w3.org/1999/xlink">
    <title>堆积条形图</title>
    <defs>
        <linearGradient x1="100%" y1="50%" x2="0%" y2="50%" id="linearGradient-1">
            <stop stop-color="#FEC08B" offset="0%"></stop>
            <stop stop-color="#FA8334" offset="100%"></stop>
        </linearGradient>
        <linearGradient x1="100%" y1="50%" x2="0%" y2="50%" id="linearGradient-2">
            <stop stop-color="#E5E5E7" offset="0%"></stop>
            <stop stop-color="#C7C6CA" offset="100%"></stop>
        </linearGradient>
        <linearGradient x1="100%" y1="50%" x2="0%" y2="50%" id="linearGradient-3">
            <stop stop-color="#FEC08B" offset="0%"></stop>
            <stop stop-color="#FA8334" offset="100%"></stop>
        </linearGradient>
        <linearGradient x1="100%" y1="50%" x2="0%" y2="50%" id="linearGradient-4">
            <stop stop-color="#E5E5E7" offset="0%"></stop>
            <stop stop-color="#C7C6CA" offset="100%"></stop>
        </linearGradient>
        <linearGradient x1="100%" y1="50%" x2="0%" y2="50%" id="linearGradient-5">
            <stop stop-color="#FEC08B" offset="0%"></stop>
            <stop stop-color="#FA8334" offset="100%"></stop>
        </linearGradient>
        <linearGradient x1="100%" y1="50%" x2="0%" y2="50%" id="linearGradient-6">
            <stop stop-color="#E5E5E7" offset="0%"></stop>
            <stop stop-color="#C7C6CA" offset="100%"></stop>
        </linearGradient>
        <linearGradient x1="100%" y1="50%" x2="0%" y2="50%" id="linearGradient-7">
            <stop stop-color="#FEC08B" offset="0%"></stop>
            <stop stop-color="#FA8334" offset="100%"></stop>
        </linearGradient>
        <linearGradient x1="100%" y1="50%" x2="0%" y2="50%" id="linearGradient-8">
            <stop stop-color="#E5E5E7" offset="0%"></stop>
            <stop stop-color="#C7C6CA" offset="100%"></stop>
        </linearGradient>
    </defs>
    <g id="页面-1" stroke="none" stroke-width="1" fill="none" fill-rule="evenodd">
        <g id="堆积条形图" fill-rule="nonzero">
            <polygon id="路径" fill="url(#linearGradient-1)" points="460.320243 0 460.320243 197.470589 1.78970391 197.470589 1.78970391 0"></polygon>
            <polygon id="路径" fill="url(#linearGradient-2)" points="1024 276.96076 1024 474.433085 65.2554946 474.433085 65.2554946 276.96076"></polygon>
            <polygon id="路径" fill="url(#linearGradient-3)" points="627.061285 552.92182 627.061285 750.392407 1.78970391 750.392407 1.78970391 552.92182"></polygon>
            <polygon id="路径" fill="url(#linearGradient-4)" points="795.060801 0 795.060801 197.468855 461.580547 197.468855 461.580547 0"></polygon>
            <polygon id="路径" fill="url(#linearGradient-5)" points="627.755553 276.962495 627.755553 474.433085 2.48396948 474.433085 2.48396948 276.962495"></polygon>
            <polygon id="路径" fill="url(#linearGradient-6)" points="724.190725 552.533043 724.190725 750.0019 390.710474 750.0019 390.710474 552.533043"></polygon>
            <polygon id="路径" fill="url(#linearGradient-7)" points="625.271584 826.529408 625.271584 1024 4.02681813e-14 1024 0 826.529408"></polygon>
            <polygon id="路径" fill="url(#linearGradient-8)" points="738.845416 826.529408 738.845416 1023.99826 405.365162 1023.99826 405.365162 826.529408"></polygon>
        </g>
    </g>
</svg>