<?xml version="1.0" encoding="UTF-8"?>
<svg width="1073px" height="1024px" viewBox="0 0 1073 1024" version="1.1" xmlns="http://www.w3.org/2000/svg" xmlns:xlink="http://www.w3.org/1999/xlink">
    <title>编组</title>
    <defs>
        <linearGradient x1="50%" y1="0%" x2="50%" y2="100%" id="linearGradient-1">
            <stop stop-color="#FEC08B" offset="0%"></stop>
            <stop stop-color="#FA8334" offset="100%"></stop>
        </linearGradient>
        <linearGradient x1="50%" y1="0%" x2="50%" y2="100%" id="linearGradient-2">
            <stop stop-color="#E5E5E7" offset="0%"></stop>
            <stop stop-color="#C7C6CA" offset="100%"></stop>
        </linearGradient>
        <linearGradient x1="50%" y1="0%" x2="50%" y2="100%" id="linearGradient-3">
            <stop stop-color="#FEC08B" offset="0%"></stop>
            <stop stop-color="#FA8334" offset="100%"></stop>
        </linearGradient>
        <linearGradient x1="50%" y1="0%" x2="50%" y2="100%" id="linearGradient-4">
            <stop stop-color="#E5E5E7" offset="0%"></stop>
            <stop stop-color="#C7C6CA" offset="100%"></stop>
        </linearGradient>
        <linearGradient x1="50%" y1="0%" x2="50%" y2="100%" id="linearGradient-5">
            <stop stop-color="#E5E5E7" offset="0%"></stop>
            <stop stop-color="#C7C6CA" offset="100%"></stop>
        </linearGradient>
        <linearGradient x1="50%" y1="0%" x2="50%" y2="100%" id="linearGradient-6">
            <stop stop-color="#FEC08B" offset="0%"></stop>
            <stop stop-color="#FA8334" offset="100%"></stop>
        </linearGradient>
        <linearGradient x1="50%" y1="0%" x2="50%" y2="100%" id="linearGradient-7">
            <stop stop-color="#E5E5E7" offset="0%"></stop>
            <stop stop-color="#C7C6CA" offset="100%"></stop>
        </linearGradient>
    </defs>
    <g id="页面-1" stroke="none" stroke-width="1" fill="none" fill-rule="evenodd">
        <g id="编组" fill-rule="nonzero">
            <polygon id="路径" fill="url(#linearGradient-1)" points="0 563.679759 206.873951 563.679759 206.873951 1022.2103 0 1022.2103"></polygon>
            <polygon id="路径" fill="url(#linearGradient-2)" points="290.149367 0 497.025136 0 497.025136 958.744503 290.149367 958.744503"></polygon>
            <polygon id="路径" fill="url(#linearGradient-3)" points="579.251429 396.938716 786.12538 396.938716 786.12538 1022.2103 579.251429 1022.2103"></polygon>
            <polygon id="路径" fill="url(#linearGradient-4)" points="0 230.939202 206.872134 230.939202 206.872134 564.419452 0 564.419452"></polygon>
            <polygon id="路径" fill="url(#linearGradient-3)" points="290.151186 396.24445 497.025136 396.24445 497.025136 1021.51603 290.151186 1021.51603"></polygon>
            <polygon id="路径" fill="url(#linearGradient-5)" points="578.84414 299.809274 785.716273 299.809274 785.716273 633.289525 578.84414 633.289525"></polygon>
            <polygon id="路径" fill="url(#linearGradient-6)" points="865.887954 398.72842 1072.7619 398.72842 1072.7619 1024 865.887954 1024"></polygon>
            <polygon id="路径" fill="url(#linearGradient-7)" points="865.887954 285.154587 1072.76009 285.154587 1072.76009 618.634841 865.887954 618.634841"></polygon>
        </g>
    </g>
</svg>