<?xml version="1.0" encoding="UTF-8"?>
<svg width="1252px" height="1024px" viewBox="0 0 1252 1024" version="1.1" xmlns="http://www.w3.org/2000/svg" xmlns:xlink="http://www.w3.org/1999/xlink">
    <title>趋势分析表</title>
    <defs>
        <linearGradient x1="50%" y1="0%" x2="50%" y2="100%" id="linearGradient-1">
            <stop stop-color="#E5E5E7" offset="0%"></stop>
            <stop stop-color="#C7C6CA" offset="100%"></stop>
        </linearGradient>
        <linearGradient x1="50%" y1="0%" x2="50%" y2="100%" id="linearGradient-2">
            <stop stop-color="#E5E5E7" offset="0%"></stop>
            <stop stop-color="#C7C6CA" offset="100%"></stop>
        </linearGradient>
        <linearGradient x1="50%" y1="0%" x2="50%" y2="100%" id="linearGradient-3">
            <stop stop-color="#FEC08B" offset="0%"></stop>
            <stop stop-color="#FA8334" offset="100%"></stop>
        </linearGradient>
    </defs>
    <g id="页面-1" stroke="none" stroke-width="1" fill="none" fill-rule="evenodd">
        <g id="趋势分析表" fill-rule="nonzero">
            <path d="M22.3488696,356.173709 L1229.20669,356.173709 L1229.20669,489.740219 L22.3488696,489.740219 L22.3488696,356.173709 Z M22.3488696,667.827854 L1229.20669,667.827854 L1229.20669,801.392799 L22.3488696,801.392799 L22.3488696,667.827854 Z" id="形状" fill="url(#linearGradient-1)"></path>
            <path d="M0,1024 L1251.55556,1024 L1251.55556,0 L0,0 L0,1024 Z M44.6977392,979.480439 L44.6977392,178.087637 L402.285939,178.087637 L402.285939,979.480439 L44.6977392,979.480439 Z M446.983678,979.480439 L446.983678,178.087637 L849.269618,178.087637 L849.269618,979.480439 L446.983678,979.480439 Z M1206.85782,979.480439 L893.96893,979.480439 L893.96893,178.087637 L1206.85782,178.087637 L1206.85782,979.480439 L1206.85782,979.480439 Z" id="形状" fill="url(#linearGradient-2)"></path>
            <path d="M1174.58441,714.231831 L1015.47519,714.231831 L877.315652,396.843673 C871.05643,382.352707 856.616141,375.130539 840.533288,374.963454 C823.897173,374.770465 809.812929,383.427743 803.238696,397.789186 L687.868604,648.751781 L529.061168,255.931076 C522.946215,240.874097 508.073116,226.656423 491.529653,226.656423 C491.450239,226.656423 491.372147,226.656423 491.292732,226.656423 C474.65662,226.656423 459.78352,238.650197 453.812837,253.848355 L273.833374,714.231831 L97.2872829,714.231831 C74.9703532,714.231831 56.8888889,731.925885 56.8888889,753.764654 C56.8888889,775.603428 74.9703532,793.297482 97.2872829,793.297482 L301.595523,793.297482 C318.322963,793.297482 333.315185,785.702286 339.311015,770.414757 L492.187475,383.381114 L648.128028,766.898227 C654.125181,781.671549 668.56415,791.319677 684.804506,791.65514 C700.953543,792.041114 715.892821,782.473296 722.533234,767.98233 L839.048232,512.806371 L951.498502,771.689262 C957.810665,786.308454 972.473316,793.297482 988.701764,793.297482 L1174.58573,793.297482 C1196.90266,793.297482 1214.98413,775.603428 1214.98413,753.764654 C1214.98413,731.925885 1196.90134,714.231831 1174.58441,714.231831 Z" id="路径" fill="url(#linearGradient-3)"></path>
        </g>
    </g>
</svg>