<?xml version="1.0" encoding="UTF-8"?>
<svg width="1024px" height="1024px" viewBox="0 0 1024 1024" version="1.1" xmlns="http://www.w3.org/2000/svg" xmlns:xlink="http://www.w3.org/1999/xlink">
    <defs>
        <linearGradient x1="50%" y1="0%" x2="50%" y2="100%" id="linearGradient-1">
            <stop stop-color="#FDC47E" offset="0%"></stop>
            <stop stop-color="#FB9248" offset="100%"></stop>
        </linearGradient>
        <linearGradient x1="50%" y1="0%" x2="50%" y2="100%" id="linearGradient-2">
            <stop stop-color="#FEC08B" offset="0%"></stop>
            <stop stop-color="#FA8334" offset="100%"></stop>
        </linearGradient>
        <linearGradient x1="50%" y1="0%" x2="50%" y2="100%" id="linearGradient-3">
            <stop stop-color="#E5E5E7" offset="0%"></stop>
            <stop stop-color="#C7C6CA" offset="100%"></stop>
        </linearGradient>
    </defs>
    <g id="页面-1" stroke="none" stroke-width="1" fill="none" fill-rule="evenodd">
        <g id="编组-42">
            <rect id="矩形备份-40" x="0" y="0" width="1024" height="1024"></rect>
            <g id="编组-59备份-12" transform="translate(42.666667, 42.666667)" fill-rule="nonzero">
                <g id="编组-59备份-9">
                    <path d="M810.205682,511.590236 L810.205682,408.483393 L716.113645,408.483393 C692.44978,415.807923 669.34934,418.061625 643.431773,418.061625 C573.003601,418.061625 512.153661,394.397759 476.657863,359.465386 C476.657863,357.211685 474.404162,357.211685 472.15046,354.957983 C469.896759,352.704282 467.643057,347.633453 462.572229,343.12605 C444.413311,323.514419 418.529056,307.648406 387.937448,298.847795 C371.070038,293.995368 352.771532,291.290916 333.547819,291.290916 C272.697879,291.290916 218.609044,319.462185 192.691477,357.211685 L192.691477,463.135654 C197.19888,472.713886 204.523409,479.47499 214.101641,489.053221 C218.045618,497.504602 223.116447,504.829132 225.370148,511.590236 L810.205682,511.590236 Z" id="路径" fill="url(#linearGradient-1)" opacity="0.6"></path>
                    <path d="M772.456182,370.733894 C748.792317,378.058423 730.19928,392.144058 718.367347,408.483393 C713.859944,410.737095 711.042817,412.990796 706.535414,415.807923 C668.785914,446.232893 612.443377,467.643057 551.593437,467.643057 C476.657863,467.643057 412.990796,439.471789 375.241297,397.214886 C375.241297,394.961184 372.987595,392.707483 370.733894,392.707483 C368.480192,388.20008 363.409364,383.129252 361.155662,380.87555 C330.730692,343.12605 281.14926,320.02561 224.806723,320.02561 C180.296118,320.02561 142.546619,334.111244 112.121649,357.77511 C100.289716,390.453782 93.5286114,430.456983 93.5286114,470.460184 C93.5286114,524.54902 105.360544,576.384154 126.207283,620.894758 C172.971589,714.986795 250.72429,787.668667 344.252901,822.60104 C346.506603,822.60104 348.760304,824.854742 351.577431,824.854742 C356.084834,827.108443 358.338535,827.108443 363.409364,829.362145 C396.088035,838.940376 433.837535,845.701481 469.333333,845.701481 C507.082833,845.701481 544.268908,841.194078 579.764706,829.362145 C582.018407,829.362145 584.272109,827.108443 587.089236,827.108443 C591.596639,824.854742 598.921168,822.60104 603.428571,819.783914 C687.942377,784.288115 758.370548,718.930772 805.134854,634.416967 C828.798719,585.39896 842.884354,529.056423 842.884354,469.896759 C842.884354,434.40096 838.376951,401.722289 828.798719,369.043617 C814.713085,363.972789 793.302921,363.972789 772.456182,370.733894 L772.456182,370.733894 Z" id="路径" fill="url(#linearGradient-2)"></path>
                    <path d="M469.333333,0 C211.284514,0 0,211.284514 0,469.333333 C0,727.382153 211.284514,938.666667 469.333333,938.666667 C727.382153,938.666667 938.666667,727.382153 938.666667,469.333333 C938.666667,211.284514 727.382153,0 469.333333,0 Z M469.333333,891.902361 C236.638655,891.902361 46.7643057,701.464586 46.7643057,469.333333 C46.7643057,237.202081 236.638655,46.7643057 469.333333,46.7643057 C702.028011,46.7643057 891.902361,236.638655 891.902361,469.333333 C891.902361,702.028011 702.028011,891.902361 469.333333,891.902361 Z" id="形状" fill="url(#linearGradient-3)"></path>
                </g>
            </g>
        </g>
    </g>
</svg>