<?xml version="1.0" encoding="UTF-8"?>
<svg width="1024px" height="1024px" viewBox="0 0 1024 1024" version="1.1" xmlns="http://www.w3.org/2000/svg" xmlns:xlink="http://www.w3.org/1999/xlink">
    <title>水波图</title>
    <defs>
        <linearGradient x1="50%" y1="0%" x2="50%" y2="100%" id="linearGradient-1">
            <stop stop-color="#FDC47E" offset="0%"></stop>
            <stop stop-color="#FB9248" offset="100%"></stop>
        </linearGradient>
        <linearGradient x1="50%" y1="0%" x2="50%" y2="100%" id="linearGradient-2">
            <stop stop-color="#FEC08B" offset="0%"></stop>
            <stop stop-color="#FA8334" offset="100%"></stop>
        </linearGradient>
        <linearGradient x1="50%" y1="0%" x2="50%" y2="100%" id="linearGradient-3">
            <stop stop-color="#E5E5E7" offset="0%"></stop>
            <stop stop-color="#C7C6CA" offset="100%"></stop>
        </linearGradient>
    </defs>
    <g id="页面-1" stroke="none" stroke-width="1" fill="none" fill-rule="evenodd">
        <g id="水波图" fill-rule="nonzero">
            <path d="M883.860745,558.098441 L883.860745,445.618247 L781.214888,445.618247 C755.399759,453.608643 730.199282,456.067227 701.925571,456.067227 C625.094838,456.067227 558.713083,430.252101 519.990398,392.144058 C519.990398,389.685474 517.531811,389.685474 515.073229,387.226891 C512.614647,384.768307 510.156065,379.236494 504.624249,374.319328 C484.814522,352.924821 456.577152,335.616443 423.204488,326.015776 C404.803678,320.72222 384.841672,317.771909 363.870348,317.771909 C297.488595,317.771909 238.482593,348.504202 210.208883,389.685474 L210.208883,505.238896 C215.12605,515.687875 223.116447,523.063626 233.565426,533.512606 C237.867947,542.732293 243.39976,550.72269 245.858344,558.098441 L883.860745,558.098441 Z" id="路径" fill="url(#linearGradient-1)" opacity="0.6"></path>
            <path d="M842.679473,404.436975 C816.864344,412.427371 796.581032,427.793517 783.67347,445.618247 C778.756301,448.076831 775.683072,450.535414 770.765908,453.608643 C729.584635,486.799518 668.12005,510.156065 601.738296,510.156065 C519.990398,510.156065 450.535414,479.423767 409.354142,433.32533 C409.354142,430.866747 406.895558,428.408163 404.436975,428.408163 C401.978391,423.490997 396.446579,417.959184 393.987995,415.5006 C360.797119,374.319328 306.708283,349.118848 245.243697,349.118848 C196.686675,349.118848 155.505402,364.484994 122.314526,390.30012 C109.406963,425.94958 102.031212,469.589434 102.031212,513.229293 C102.031212,572.235292 114.938776,628.782713 137.680672,677.339736 C188.696279,779.985594 273.517407,859.27491 375.548619,897.382954 C378.007203,897.382954 380.465786,899.841536 383.539016,899.841536 C388.456183,902.300118 390.914766,902.300118 396.446579,904.758705 C432.096039,915.207685 473.27731,922.583436 512,922.583436 C553.181272,922.583436 593.747898,917.666267 632.470589,904.758705 C634.929171,904.758705 637.387757,902.300118 640.460986,902.300118 C645.37815,899.841536 653.368548,897.382954 658.285712,894.309725 C750.482595,855.587035 827.313324,784.288116 878.32893,692.091238 C904.144058,638.617046 919.510202,577.152461 919.510202,512.614647 C919.510202,473.891956 914.593038,438.242497 904.144058,402.593037 C888.77791,397.061224 865.421368,397.061224 842.679473,404.436975 L842.679473,404.436975 Z" id="路径" fill="url(#linearGradient-2)"></path>
            <path d="M512,0 C230.492197,0 0,230.492197 0,512 C0,793.507803 230.492197,1024 512,1024 C793.507803,1024 1024,793.507803 1024,512 C1024,230.492197 793.507803,0 512,0 Z M512,972.984394 C258.151261,972.984394 51.0156065,765.234092 51.0156065,512 C51.0156065,258.765906 258.151261,51.0156065 512,51.0156065 C765.848739,51.0156065 972.984394,258.151261 972.984394,512 C972.984394,765.848739 765.848739,972.984394 512,972.984394 Z" id="形状" fill="url(#linearGradient-3)"></path>
        </g>
    </g>
</svg>