<svg t="1649830609187" class="icon" viewBox="0 0 1024 1024" version="1.1" xmlns="http://www.w3.org/2000/svg" p-id="2090" width="128" height="128"><path d="M512 42.666667c259.2 0 469.333333 210.133333 469.333333 469.333333s-210.133333 469.333333-469.333333 469.333333S42.666667 771.2 42.666667 512 252.8 42.666667 512 42.666667z m0 42.666666C276.352 85.333333 85.333333 276.352 85.333333 512s191.018667 426.666667 426.666667 426.666667 426.666667-191.018667 426.666667-426.666667S747.648 85.333333 512 85.333333z" fill="#A3D3FF" p-id="2091"></path><path d="M768 256c22.869333 0 37.546667 10.88 49.92 24.874667l7.168 8.704A382.464 382.464 0 0 1 896 512a383.274667 383.274667 0 0 1-142.677333 298.666667H270.677333A383.274667 383.274667 0 0 1 128 512c0-83.072 26.368-159.957333 71.210667-222.762667C213.12 271.445333 228.778667 256 256 256c28.8 0 44.629333 17.28 59.178667 36.266667l9.642666 12.8c14.506667 18.986667 30.378667 36.266667 59.178667 36.266666s44.629333-17.28 59.178667-36.266666l9.642666-12.8c14.506667-18.986667 30.378667-36.266667 59.178667-36.266667s44.629333 17.28 59.178667 36.266667l9.642666 12.8c14.506667 18.986667 30.378667 36.266667 59.178667 36.266666s44.629333-17.28 59.178667-36.266666l9.642666-12.8c14.506667-18.986667 30.378667-36.266667 59.178667-36.266667z" fill="#A3D3FF" p-id="2092"></path><path d="M640 469.333333c28.8 0 44.629333 17.28 59.178667 36.266667l9.642666 12.8c14.506667 18.986667 30.378667 36.266667 59.178667 36.266667 28.416 0 44.245333-16.853333 58.624-35.541334l9.514667-12.586666c14.293333-18.816 29.696-36.181333 57.386666-37.162667a384 384 0 1 1-763.221333 0.085333L128 469.333333c28.8 0 44.629333 17.28 59.178667 36.266667l9.642666 12.8c14.506667 18.986667 30.378667 36.266667 59.178667 36.266667 25.6 0 40.96-13.653333 54.272-30.037334L320 512c16-21.333333 32-42.666667 64-42.666667 25.6 0 40.96 13.653333 54.272 30.037334L448 512c16 21.333333 32 42.666667 64 42.666667 28.8 0 44.629333-17.28 59.178667-36.266667l9.642666-12.8c14.506667-18.986667 30.378667-36.266667 59.178667-36.266667z" fill="#1890FF" p-id="2093"></path></svg>