<?xml version="1.0" encoding="UTF-8"?>
<svg width="1024px" height="1024px" viewBox="0 0 1024 1024" version="1.1" xmlns="http://www.w3.org/2000/svg" xmlns:xlink="http://www.w3.org/1999/xlink">
    <defs>
        <linearGradient x1="50%" y1="0%" x2="50%" y2="100%" id="linearGradient-1">
            <stop stop-color="#E5E5E7" offset="0%"></stop>
            <stop stop-color="#C7C6CA" offset="100%"></stop>
        </linearGradient>
        <linearGradient x1="50%" y1="0%" x2="50%" y2="100%" id="linearGradient-2">
            <stop stop-color="#FEC08B" offset="0%"></stop>
            <stop stop-color="#FA8334" offset="100%"></stop>
        </linearGradient>
        <linearGradient x1="50%" y1="0%" x2="50%" y2="100%" id="linearGradient-3">
            <stop stop-color="#E5E5E7" offset="0%"></stop>
            <stop stop-color="#C7C6CA" offset="100%"></stop>
        </linearGradient>
        <linearGradient x1="50%" y1="0%" x2="50%" y2="100%" id="linearGradient-4">
            <stop stop-color="#FEC08B" offset="0%"></stop>
            <stop stop-color="#FA8334" offset="100%"></stop>
        </linearGradient>
    </defs>
    <g id="页面-1" stroke="none" stroke-width="1" fill="none" fill-rule="evenodd">
        <g id="编组-66">
            <rect id="矩形备份-177" x="0" y="0" width="1024" height="1024"></rect>
            <g id="编组-18备份-3" transform="translate(0.000000, 128.000000)" fill-rule="nonzero">
                <g id="编组-30">
                    <path d="M345.323307,233.504391 L299.733546,233.504391 L271.241685,120.036359 L270.671291,120.036359 L243.318826,233.504391 L197.165628,233.504391 L145.880277,64.5008259 L192.605261,64.5008259 L222.233736,179.158593 L222.804129,179.158593 L249.590374,64.5008259 L292.897168,64.5008259 L320.248242,179.158593 L320.818636,179.158593 L350.447112,64.5008259 L396.036872,64.5008259 L345.323307,233.504391 L345.323307,233.504391 Z M454.727603,149.298585 C454.727603,155.871285 455.299388,162.438155 456.440174,169.009398 C457.580961,175.576267 459.858362,180.953401 462.706158,186.329077 C465.559518,191.70038 469.5481,195.282706 474.671905,198.870864 C479.802666,201.855407 486.074214,203.642925 493.480986,203.642925 C500.887757,203.642925 507.15374,201.855407 512.283109,198.870864 C517.41387,195.880489 521.402453,191.70038 524.250248,186.329077 C527.098043,180.953401 529.381009,175.576266 530.516232,169.009398 C531.651247,162.506453 532.223964,155.909426 532.227413,149.298585 C532.227413,142.731715 531.657019,136.164847 530.516232,129.592145 C529.38101,123.025275 527.098044,117.051816 524.250248,112.272465 C521.402453,107.494572 517.41387,103.314462 512.283109,99.7321372 C507.15374,96.1498113 500.887756,94.9527854 493.480986,94.9527854 C486.074215,94.9527854 479.802666,96.7475936 474.671905,99.7321372 C469.5481,102.722512 465.559518,106.902621 462.706158,112.272465 C459.858363,117.051816 457.580961,123.025276 456.440174,129.592145 C455.299387,135.567062 454.727603,142.133932 454.727603,149.298585 L454.727603,149.298585 Z M410.280021,149.298585 C410.280021,135.567063 411.992593,123.62306 415.981175,112.272465 C419.969757,101.525486 425.670913,91.969701 433.077683,84.2058077 C440.484455,76.4433714 449.033404,70.468454 459.28797,66.2883436 C469.548101,62.1082343 480.943453,59.7214752 493.480986,59.7214752 C506.018518,59.7214752 517.413871,62.1082343 528.23883,66.2883436 C538.493396,70.4684529 547.612739,76.4433714 554.449117,84.2058077 C561.861452,91.969701 567.557042,101.525487 571.545624,112.272465 C575.534206,123.025276 577.24678,135.567062 577.24678,149.298585 C577.24678,163.035938 575.535599,174.978484 571.545624,185.731294 C567.557042,196.478273 561.861452,206.035516 554.449117,213.797952 C547.042345,221.560389 538.493396,227.535306 528.23883,231.715415 C517.984264,235.895525 506.583346,237.6845 493.480986,237.6845 C480.943453,237.6845 469.5481,235.895525 459.28797,231.715415 C449.033404,227.535306 440.484455,221.560388 433.077683,213.797952 C425.670912,206.035517 419.969757,196.478273 415.981175,185.731294 C411.992593,174.978483 410.280021,162.438155 410.280021,149.298585 Z M606.30347,64.5008259 L648.475041,64.5008259 L648.475041,96.1498102 L649.045435,96.1498102 C651.322836,90.7726762 654.176195,85.9947824 657.594385,81.8146731 C661.012573,77.6331058 665.001156,73.4529965 669.561523,70.468454 C674.120499,67.4853695 679.245696,65.092778 684.375065,63.3038011 C689.505826,61.510451 695.200025,60.9126676 700.901179,60.9126676 C703.748974,60.9126676 707.167163,61.510451 710.585352,62.7045596 L710.585352,105.704139 C708.307951,105.106355 706.03194,105.106355 703.17858,104.508572 C700.330786,103.910788 697.48299,103.910788 694.629631,103.910788 C686.652466,103.910788 679.816089,105.106355 674.120499,108.090898 C668.419345,111.081273 663.860368,114.663598 660.44218,119.441492 C657.023991,124.215012 654.741025,130.188471 653.035409,136.755339 C651.324228,143.32804 650.752443,150.492693 650.752443,158.255128 L650.752443,234.6985 L606.304861,234.6985 L606.304861,64.5008259 L606.30347,64.5008259 Z M842.222481,148.706634 C842.222481,141.536149 841.652087,134.96928 840.511299,128.396578 C839.370512,121.829708 837.093111,116.452574 834.245316,111.082731 C831.391957,106.304838 827.403375,102.12327 822.278178,99.1343539 C817.719202,96.1498113 811.447653,94.3608344 804.040883,94.3608344 C796.634112,94.3608344 790.362563,96.1498102 785.809152,99.1343539 C780.915241,101.985446 776.796305,106.097924 773.842014,111.082731 C770.988654,115.854792 768.711253,121.829709 767.000071,128.396578 C765.864849,134.969279 764.72267,141.536148 764.72267,148.706634 C764.72267,155.272045 765.293064,161.838913 767.000071,168.411614 C768.711252,174.978484 770.988653,180.954859 773.842014,185.731294 C777.260202,191.102597 781.248785,195.282706 785.809152,198.273081 C790.362564,201.257623 796.634112,203.050974 803.470489,203.050974 C810.87726,203.050974 816.578415,201.257623 821.707784,198.273081 C826.832981,195.282706 830.256734,191.102597 833.674923,185.731294 C836.522717,180.355618 838.800119,174.978483 839.940906,168.411614 C841.650696,162.438155 842.222481,155.272044 842.222481,148.706634 L842.222481,148.706634 Z M842.78731,212.004602 L842.222481,212.004602 C837.09172,220.962605 830.255342,227.535306 821.707784,231.715415 C813.158834,235.895525 803.470489,237.6845 793.215923,237.6845 C781.248784,237.6845 770.418261,235.297741 761.304482,230.519849 C752.185138,225.741956 744.778368,219.175086 738.50682,210.81341 C732.240835,202.45319 728.252253,192.895947 724.834065,181.551185 C721.98627,170.798373 720.275088,159.453612 720.275088,147.509609 C720.275088,136.164847 721.986269,125.412037 724.834065,114.665057 C727.68186,103.912245 732.240837,94.9527854 738.50682,86.5925669 C744.207974,78.2323472 751.614745,72.2632622 760.734088,66.886127 C769.853432,62.1082343 780.107997,59.721474 792.073744,59.7214752 C801.763482,59.7214752 810.877259,62.1082343 819.424818,66.2883436 C827.973768,70.4684529 834.810145,77.0411548 839.939514,85.4028314 L840.509908,85.4028314 L840.509908,0 L884.95749,0 L884.95749,233.504391 L842.785919,233.504391 L842.785919,212.004602 L842.78731,212.004602 Z M99.1511201,383.405133 C96.8737192,366.683237 87.1839817,357.725234 70.6578685,357.725234 C64.3918845,357.725234 59.262515,358.914968 55.2725417,361.905343 C51.2839597,364.889886 47.8657703,368.472213 45.0179756,373.250106 C42.1660071,378.029456 40.4589999,382.80735 39.3182114,388.776435 C38.1760327,394.152111 37.6112042,400.125572 37.6112042,405.498331 C37.6112042,410.874007 38.1760327,416.251143 39.3182114,421.620986 C40.4589988,426.99812 42.166006,432.373797 44.4475819,436.553907 C46.7249829,440.735474 50.1431723,444.915583 54.702148,447.300885 C58.6921213,450.29126 63.8214918,451.482453 70.0874748,451.482453 C79.2068187,451.482453 86.613589,448.49791 91.7429585,443.120776 C96.8737192,437.750931 99.7215138,430.580447 101.432696,421.030493 L139.038335,421.030493 C136.762325,440.736932 129.354163,455.66402 117.388417,465.819048 C105.421278,475.974076 90.0373425,481.342461 71.2282622,481.342461 C60.4033024,481.342461 50.713566,479.554944 42.1660071,475.972618 C33.0522284,472.384459 25.645458,467.0117 19.3739089,460.440456 C13.1079248,453.873586 8.54894906,445.514826 5.13076071,436.553907 C1.71118109,426.99812 0,416.848926 0,406.096115 C0,394.749894 1.71118109,383.997084 4.55897574,374.44713 C7.97716408,364.889886 12.5375311,355.930426 18.8035152,348.765774 C25.073672,341.601121 32.4818347,336.225445 41.5997862,332.045335 C50.7135649,327.863767 60.973695,326.070417 72.3704409,326.070417 C80.9179998,326.070417 88.8951638,327.265984 96.3033255,329.652743 C104.280491,332.045335 111.116867,335.627661 116.818023,340.405554 C123.084007,345.183447 127.642983,351.152533 131.631565,357.725234 C135.620147,364.889887 137.903113,373.250106 138.467941,382.209567 L99.1511201,382.209567 L99.1511201,383.405133 L99.1511201,383.405133 Z M160.695211,274.709162 L199.441637,274.709162 L199.441637,478.955702 L160.695211,478.955702 L160.695211,274.709162 L160.695211,274.709162 Z M264.405308,404.89909 C264.405308,410.874007 264.975702,416.848925 266.110924,422.21877 C267.253103,427.595904 268.964284,432.971581 271.812078,437.153148 C274.659873,441.931041 278.083626,445.513368 282.07221,447.900127 C286.625621,450.29126 291.756382,452.080236 298.592759,452.080236 C305.4347,452.080236 310.558506,450.883211 315.118873,447.900127 C319.677849,444.915584 323.096038,441.931041 325.949398,437.153148 C328.797192,432.373797 330.502809,427.595904 331.644987,422.21877 C332.785774,416.848925 333.356168,410.874007 333.356168,404.89909 C333.356168,398.931462 332.785774,392.956544 331.644987,387.585243 C330.502808,381.611783 328.797192,376.832431 325.949398,372.652322 C323.096038,368.472213 319.67785,364.889886 315.118873,361.905343 C310.558506,358.914968 304.864307,357.725234 298.592759,357.725234 C291.756381,357.725234 286.62562,358.914968 282.07221,361.905343 C277.513234,364.889886 274.095044,368.472213 271.812078,372.652322 C268.964284,376.832431 267.253103,382.209567 266.110924,387.585243 C264.975702,393.552871 264.405308,399.529246 264.405308,404.89909 Z M225.657489,404.89909 C225.657489,392.956544 227.364496,382.209566 230.782685,372.652322 C234.200873,363.096536 239.330244,354.734859 245.601792,348.167991 C251.867776,341.601121 259.84494,336.225445 268.39389,332.643118 C277.513234,329.060792 287.197405,327.265984 298.592759,327.265984 C309.993677,327.265984 319.677849,329.060792 328.797192,332.643118 C337.916536,336.225444 345.323307,341.601121 352.159683,348.167991 C358.99606,354.73486 363.555037,363.096537 366.973226,372.652322 C370.391415,382.209567 372.103987,392.956544 372.103987,404.89909 C372.103987,416.848925 370.391415,427.595904 366.973226,437.153148 C363.555038,446.703102 358.425667,455.064779 352.159683,461.636023 C345.893699,468.202892 337.916535,473.580026 328.797192,477.162352 C319.677849,480.744678 309.993677,482.538028 298.592759,482.538028 C287.197405,482.538028 277.513233,480.746136 268.39389,477.162352 C259.274546,473.580026 251.867776,468.201434 245.601792,461.636023 C239.330244,455.06478 234.200873,446.703102 230.782685,437.153148 C227.364496,427.595904 225.657489,416.848926 225.657489,404.89909 Z M529.951402,478.955702 L492.910592,478.955702 L492.910592,458.053697 L492.340198,458.053697 C487.209437,466.415373 480.943453,472.982243 472.966289,476.564569 C464.987734,480.152727 457.010569,482.538028 449.033404,482.538028 C438.773272,482.538028 430.224323,481.342461 423.387946,478.357919 C416.551568,475.373376 411.420807,471.193266 407.432225,466.416831 C403.443643,461.039697 401.166241,454.472828 399.455061,447.302344 C397.748054,439.539907 397.177659,431.179689 397.177659,422.220228 L397.177659,330.849768 L435.925478,330.849768 L435.925478,414.457792 C435.925478,426.401796 437.636659,435.957581 441.625241,441.933957 C445.043429,447.903043 451.879807,450.886128 460.999151,450.886128 C471.824111,450.886128 479.232272,447.303802 483.791248,440.73839 C488.350224,434.165689 490.627626,423.418711 490.627626,408.490164 L490.627626,330.849768 L529.379617,330.849768 L529.379617,478.958618 L529.951402,478.958618 L529.951402,478.955702 Z M659.300001,404.89909 C659.300001,398.931462 658.729607,392.956544 657.592994,386.987459 C656.452206,381.611783 654.739634,376.234648 651.891839,372.054539 C649.067836,367.899371 645.602057,364.267169 641.637273,361.30756 C637.648691,358.914968 631.947536,357.127451 625.681553,357.127451 C619.410004,357.127451 613.714414,358.323017 609.725832,361.30756 C605.166856,363.694319 601.748667,367.276646 599.465701,372.054539 C596.617906,376.234648 594.906725,381.611783 593.770112,386.987459 C592.629324,392.360219 592.05893,398.33368 592.05893,404.89909 C592.05893,410.874007 592.629324,416.251141 593.770112,422.21877 C594.905334,428.193687 597.1883,432.971581 600.036095,437.750931 C602.883889,442.521535 606.302079,446.109693 610.861054,448.49791 C615.42003,451.482453 620.550792,452.67802 626.251946,452.67802 C632.51793,452.67802 638.219085,451.482453 642.207667,448.49791 C646.761078,446.109693 650.184832,442.521535 652.462233,437.750931 C654.739634,432.971581 657.021209,428.19223 658.163387,422.21877 C658.729607,416.848925 659.300001,410.872549 659.300001,404.89909 L659.300001,404.89909 Z M659.870395,460.438998 C654.739634,468.201434 649.045435,474.176351 641.638664,477.758677 C634.231894,481.341003 625.682944,483.135811 616.564991,483.135811 C605.740032,483.135811 596.620689,480.74322 588.643524,476.563111 C580.666358,472.383001 573.829982,466.413915 568.699221,459.243431 C563.56846,452.078778 559.579877,443.717101 556.732083,434.161315 C553.884288,424.609903 552.743501,414.453418 552.743501,404.304223 C552.743501,394.149195 553.884288,384.59341 556.732083,375.63395 C559.579877,366.082538 563.56846,358.320102 568.699221,351.149617 C573.829982,343.984964 580.66636,338.609288 588.07313,333.829938 C596.050295,329.649828 605.169638,327.263068 615.424204,327.263068 C623.973154,327.263068 631.950318,329.057876 639.35709,332.640203 C646.763861,336.22253 653.035409,341.598206 657.023991,349.362099 L657.594385,349.362099 L657.594385,274.706246 L696.342204,274.706246 L696.342204,478.952786 L659.871786,478.952786 L659.871786,460.438998 L659.870395,460.438998 Z" id="形状" fill="url(#linearGradient-1)"></path>
                    <path d="M777.829205,314.127872 C777.258811,309.946304 775.546239,306.963219 773.270229,305.168412 C770.987263,303.380894 767.569075,302.183869 764.150885,302.183869 C762.439704,302.183869 760.732697,302.781653 758.449731,303.380893 C756.17233,303.978676 754.461149,305.168411 753.324535,306.96322 C751.613354,308.750738 750.471175,311.143329 749.335952,314.127872 C748.195165,317.110956 747.624771,321.292525 747.624771,326.070417 C747.624771,328.463009 748.195165,331.447551 748.765558,333.832854 C749.335952,336.225445 750.472566,338.612204 751.613353,341.003338 C752.75414,342.792314 754.461148,344.585664 756.744115,345.782689 C759.021516,346.972423 761.303091,347.570206 764.150885,347.570206 C768.139467,347.570206 771.557657,346.37464 773.840623,343.98788 C776.118024,341.601121 777.829205,338.012963 778.394033,333.240902 L791.501959,333.240902 C790.361172,341.601121 787.513377,347.570206 782.382616,352.3481 C777.829205,356.529667 771.557657,358.914968 763.5791,358.914968 C759.020124,358.914968 754.459756,358.323017 751.041569,356.529667 C747.623381,354.734859 744.205191,352.3481 741.92779,349.365014 C739.644824,346.37464 737.368815,342.792314 736.226636,339.209988 C735.085849,335.029879 734.515454,330.848311 734.515454,326.070417 C734.515454,321.292524 735.085848,317.110956 736.226636,312.930847 C737.367423,308.750738 739.074431,305.168411 741.92779,302.183869 C744.775585,299.199327 747.623381,296.808193 751.041569,295.019216 C755.030151,293.225866 759.018734,292.628083 764.149494,292.628083 C767.567682,292.628083 770.985872,293.225866 774.40406,293.82365 C777.827813,295.019216 780.105214,296.210409 782.95301,298.003759 C785.235976,299.797109 787.511986,302.183868 789.224558,305.168412 C790.931566,308.158787 791.501959,311.143329 792.072353,315.323439 L777.829205,315.323439 L777.829205,314.127872 L777.829205,314.127872 Z M802.333875,268.741534 L815.436236,268.741534 L815.436236,356.529667 L802.333875,356.529667 L802.333875,268.741534 Z M858.17681,358.323017 C853.617834,358.323017 849.057466,357.725234 845.068885,355.930426 C841.080303,354.142908 838.232507,351.750317 835.379147,348.765774 C832.531353,345.78269 830.820172,342.194531 829.683558,338.012963 C828.542771,333.832854 827.400592,329.652743 827.400592,324.281442 C827.400592,319.503549 827.970986,314.725655 829.683558,311.143329 C830.81878,306.96322 833.101746,303.380893 835.379147,300.390519 C838.232507,297.405977 841.080302,295.019216 845.068885,293.225866 C849.057467,291.436891 853.04605,290.839107 858.17681,290.839107 C862.730221,290.839107 867.290588,291.436891 871.279172,293.225866 C875.267754,295.019216 878.121113,297.405976 880.968908,300.390519 C883.816703,303.380894 885.527884,306.96322 886.664498,311.143329 C887.805286,315.323439 888.947464,319.503549 888.947464,324.281442 C888.947464,329.060792 888.377071,333.832854 886.664498,338.012963 C885.529276,342.19453 883.24631,345.782689 880.968908,348.765774 C878.121113,351.750317 875.267754,354.142908 871.279172,355.930426 C867.29059,357.127451 862.731613,358.323017 858.17681,358.323017 Z M858.17681,346.972423 C861.024604,346.972423 863.8724,346.37464 866.153975,345.183447 C868.384554,344.037711 870.187747,342.146392 871.279172,339.807771 C872.419959,337.421012 873.562138,335.029879 874.132531,332.643118 C874.69736,330.250527 875.267754,327.265984 875.267754,324.281442 C875.267754,321.292525 874.69736,318.905766 874.132531,315.921222 C873.639977,313.357867 872.670397,310.921315 871.279172,308.750738 C870.143949,306.96322 867.860983,305.168412 866.153975,303.380893 C863.871009,302.183868 861.594999,301.586086 858.17681,301.586086 C855.32345,301.586086 852.475655,302.183869 850.199646,303.380893 C847.91668,304.570627 846.211064,306.363977 845.068885,308.750738 C843.928098,310.545546 842.785919,313.52863 842.221089,315.921222 C841.650696,318.905764 841.080302,321.292525 841.080302,324.281442 C841.080302,327.265984 841.650696,329.652744 842.221089,332.643118 C842.785918,335.029877 843.928096,337.421011 845.068885,339.807771 C846.209672,342.19453 848.487073,343.390097 850.199646,345.183447 C852.477047,346.37464 854.753057,346.972423 858.17681,346.972423 L858.17681,346.972423 Z M952.767564,356.529667 L939.659638,356.529667 L939.659638,347.570206 C937.952631,350.554749 935.671056,353.545124 932.252868,355.332643 C928.834679,357.127451 925.986884,358.323017 922.56313,358.323017 C914.585965,358.323017 908.890376,356.529667 905.472187,352.3481 C902.053999,348.167991 900.341426,342.19453 900.341426,333.832854 L900.341426,293.82365 L913.449351,293.82365 L913.449351,332.045335 C913.449351,337.421011 914.584574,341.601121 916.297147,343.98788 C918.574548,346.37464 921.427908,347.570206 924.846096,347.570206 C927.693891,347.570206 929.976857,346.972423 931.682474,346.37464 C933.393655,345.183447 935.100662,343.98788 936.24145,342.792314 C937.382237,341.003338 938.518851,339.209988 938.518851,337.421012 C939.089244,335.029879 939.089244,333.240903 939.089244,330.250527 L939.089244,293.225866 L952.19717,293.225866 L952.19717,356.529667 L952.767564,356.529667 L952.767564,356.529667 Z M1023.99722,356.529667 L1011.45969,356.529667 L1011.45969,348.167991 C1009.75268,351.750317 1006.90071,354.73486 1003.48252,355.930426 C1000.06433,357.725234 996.646142,358.323017 992.657561,358.323017 C988.098586,358.323017 983.538218,357.725234 980.120029,355.930426 C976.701841,354.142908 973.854045,351.750317 971.000685,348.765774 C968.723284,345.78269 967.012103,342.194531 965.87549,338.012963 C964.734702,333.832854 964.164309,329.652743 964.164309,324.880683 C964.164309,318.905766 964.734702,314.127872 966.44171,309.946304 C968.152891,305.766195 969.865463,302.183868 972.142864,299.797109 C974.420265,296.808192 977.273625,295.019216 980.691814,293.82365 C984.110003,292.628083 986.957798,292.028842 990.381551,292.028842 C992.088558,292.028842 994.370133,292.028842 996.077141,292.628083 C997.788322,293.225866 1000.06572,293.82365 1001.7783,294.421433 C1003.4853,295.019216 1005.19648,296.210409 1006.90349,297.405976 C1008.61467,298.601542 1009.75685,300.390518 1010.89207,302.183869 L1010.89207,269.9371 L1024,269.9371 L1024,356.529667 L1023.99722,356.529667 Z M977.272235,325.472634 C977.272235,328.463009 977.842628,330.84831 978.407457,333.240902 C978.977851,335.627661 980.118638,338.012963 981.260817,340.405554 C982.401604,342.19453 984.108611,343.98788 986.391577,345.183447 C988.668978,346.37464 990.944989,346.972423 993.798349,346.972423 C996.646143,346.972423 999.493939,346.37464 1001.20512,345.183447 C1003.43609,344.036293 1005.24068,342.145563 1006.33588,339.807771 C1007.4711,337.421012 1008.61328,335.029879 1009.18368,332.643118 C1009.75407,330.250527 1010.32446,327.265984 1010.32446,324.281442 C1010.32446,317.110957 1008.61328,311.741113 1005.76549,307.561003 C1002.91213,303.380894 998.923544,301.586086 993.798349,301.586086 C990.944989,301.586086 988.097194,302.183869 985.821184,303.380893 C983.538218,304.570627 981.832602,306.363977 980.690423,308.750738 C979.549636,311.143329 978.407457,313.52863 977.842628,315.921222 C977.272235,318.307981 977.272235,322.488091 977.272235,325.472634 L977.272235,325.472634 Z M793.784925,462.833047 L793.214532,462.833047 L782.384008,415.651901 L768.711253,415.651901 L757.886293,462.833047 L757.3159,462.833047 L745.348761,415.651901 L731.100048,415.651901 L749.909128,478.955702 L764.152276,478.955702 L775.54763,431.776014 L786.942983,478.955702 L800.621303,478.955702 L819.424818,415.651901 L805.752064,415.651901 L793.784925,462.833047 L793.784925,462.833047 Z M927.693891,413.858551 C925.41649,413.858551 923.705309,414.454876 921.998302,415.05266 C920.28712,415.650443 918.00972,416.847468 916.867541,418.037202 C915.726753,419.232769 914.019746,421.029035 912.878958,422.815095 C911.73817,424.609903 911.167777,426.398879 910.595992,427.594447 L910.595992,415.650443 L898.064025,415.650443 L898.064025,478.954244 L911.166385,478.954244 L911.166385,448.496452 C911.166385,444.914126 911.736779,441.929583 912.307173,438.937751 C913.44796,435.953208 914.584574,434.161316 915.725362,432.370881 C917.436543,430.578989 919.143551,429.386339 920.856123,428.190772 C922.56313,426.996663 924.844705,426.996663 927.122106,426.996663 L929.975466,426.996663 C931.110688,426.996663 931.682473,426.996663 932.823261,427.594447 L932.823261,413.857093 L927.693891,413.857093 L927.693891,413.858551 Z M982.401604,391.167569 L982.401604,423.415794 C981.260817,421.620986 980.118638,420.431252 978.407457,418.636444 C976.70045,417.440877 974.989269,416.251143 973.28226,415.651901 C971.571079,415.054118 969.864072,414.456334 967.581106,413.860009 C965.874099,413.262226 963.592524,413.262226 961.885516,413.262226 C958.461763,413.262226 955.613968,413.860009 952.195779,415.054118 C948.777591,416.251143 946.494625,418.03866 943.64683,421.030493 C940.799035,424.015036 939.087854,426.999579 937.95124,431.179689 C936.240058,435.35834 935.668273,440.137692 935.668273,446.111151 C935.668273,450.883212 936.238667,455.066238 937.379455,459.246347 C938.514677,463.424998 940.227249,467.013157 942.504651,469.999157 C944.787617,472.9837 947.635412,475.374833 951.623994,477.16381 C955.042182,478.955702 959.601159,479.556402 964.161526,479.556402 C968.150108,479.556402 971.568298,478.95716 974.986486,477.16381 C978.404674,475.373376 981.258034,472.983701 982.96365,469.401374 L982.96365,477.760135 L995.501182,477.760135 L995.501182,389.972002 L982.398821,389.972002 L982.398821,391.167569 L982.401604,391.167569 Z M981.83121,455.662562 C981.260817,458.053696 980.120029,460.438997 978.977851,462.833047 C977.842628,465.219807 976.130056,466.415373 973.852654,468.202891 C971.569688,469.399916 969.293678,469.997699 966.440318,469.997699 C963.592524,469.997699 961.315122,469.399916 959.033547,468.202891 C956.957852,467.104316 955.191347,465.457517 953.908351,463.424998 C952.51741,461.256392 951.547823,458.821804 951.054992,456.260345 C950.484598,453.873586 949.919769,450.883211 949.919769,448.499368 C949.919769,445.514826 950.484598,443.122234 951.054992,440.137691 C951.547753,437.57621 952.517345,435.141609 953.908351,432.973039 C955.043574,430.581905 956.756146,428.79293 959.033547,427.597363 C961.316513,426.401796 963.592523,425.802555 967.010712,425.802555 C972.141473,425.802555 976.130056,427.597363 978.977851,431.777472 C981.83121,435.957581 983.536826,441.336174 983.536826,448.500826 C982.966433,450.29126 982.401604,452.67802 981.83121,455.662562 L981.83121,455.662562 Z M884.387096,434.162773 C883.246309,429.982664 880.968908,426.400337 878.685942,423.415794 C875.838147,420.431252 872.990352,418.03866 869.00177,416.251143 C865.013187,414.456334 861.024604,413.858551 855.893845,413.858551 C850.763085,413.858551 846.774501,414.454876 842.785919,416.251143 C838.797337,418.03866 835.949541,420.431252 833.101746,423.415794 C830.253952,426.400337 828.542771,429.982664 827.400592,434.162773 C826.26537,438.342882 825.12319,442.521535 825.12319,447.300885 C825.12319,452.080236 825.693584,456.85813 827.400592,461.038239 C828.541379,465.219807 830.81878,468.802132 833.101746,471.791049 C835.949541,474.775592 838.797337,477.163809 842.785919,478.955702 C846.774501,480.746136 850.763084,481.342461 855.893845,481.342461 C861.024605,481.342461 865.013189,480.746136 869.00177,478.955702 C872.990352,477.16381 875.838147,474.775593 878.685942,471.791049 C881.539302,468.802132 883.244918,465.219807 884.387096,461.038239 C885.527884,456.85813 886.664498,452.679478 886.664498,447.300885 C886.09967,442.521535 885.527885,437.750931 884.387096,434.162773 Z M871.849565,455.662562 C871.279172,458.053696 870.142558,460.438997 869.00177,462.833047 C867.860982,465.219807 865.583581,466.415373 863.871009,468.202891 C861.593608,469.399916 859.312033,469.997699 855.893845,469.997699 C852.475656,469.997699 850.198254,469.399916 847.91668,468.202891 C845.684915,467.059692 843.879765,465.170426 842.785919,462.833047 C841.650697,460.438998 840.508518,458.053697 839.938123,455.662562 C839.367729,453.274345 838.797336,450.289802 838.797336,447.300885 C838.797336,444.317801 839.367729,441.931041 839.938123,438.940666 C840.432171,436.380569 841.399627,433.946586 842.785919,431.776014 C843.926706,429.984122 846.209672,428.193688 847.91668,426.400338 C850.199646,425.209146 852.475655,424.611361 855.893845,424.611361 C859.312034,424.611361 861.594999,425.207686 863.871009,426.400338 C866.153975,427.595905 867.859591,429.389255 869.00177,431.776014 C870.142557,434.164231 871.27917,436.553907 871.849565,438.940666 C872.419959,441.334715 872.990355,444.3178 872.990355,447.300885 C872.991744,450.29126 872.42135,452.67802 871.849565,455.662562 L871.849565,455.662562 Z" id="形状" fill="url(#linearGradient-2)"></path>
                    <path d="M419.399364,680.811109 L438.201487,680.811109 L454.162773,744.11491 L454.727603,744.11491 L470.118494,680.811109 L488.350225,680.811109 L502.594764,744.11491 L503.165158,744.11491 L519.691272,680.811109 L537.928567,680.811109 L512.854894,765.608867 L494.617599,765.608867 L479.804057,702.901391 L479.233664,702.901391 L464.41873,765.608867 L445.616607,765.608867 L419.399364,680.811109 Z M585.223944,768 C578.952396,768 573.256806,766.804433 568.127436,764.417674 C562.996675,762.026541 559.008092,759.041998 555.589904,755.459672 C552.171716,751.279563 549.32392,747.099453 547.61274,741.124535 C545.905733,735.751775 544.764944,729.779773 544.764944,723.212903 C544.764944,716.640203 545.905732,710.669658 547.61274,705.29544 C549.323921,699.918306 552.171716,695.140413 555.589904,690.960304 C559.008092,686.778737 563.567069,683.795652 568.127436,681.999385 C573.258197,679.612626 578.952396,678.417059 585.223944,678.417059 C591.489928,678.417059 597.191082,679.612626 602.314887,681.999385 C607.445647,684.393435 611.434231,687.376519 614.852419,690.960304 C618.270607,694.54409 621.123967,699.319066 622.829584,705.29544 C624.540765,710.671116 625.682944,716.640203 625.682944,723.212903 C625.682944,729.779773 624.542156,735.753232 622.829584,741.124535 C621.122577,746.500211 618.270608,751.279563 614.852419,755.459672 C611.434231,759.638323 606.875254,762.622867 602.314887,764.417674 C597.761475,766.802975 592.060321,768 585.223944,768 Z M585.223944,753.067081 C589.212526,753.067081 592.630715,752.47513 595.47851,750.681778 C598.326305,748.88697 600.609271,746.500211 602.885282,743.517127 C604.596463,740.526752 606.30347,737.542209 606.873864,733.959882 C608.014651,730.377556 608.014651,726.795229 608.014651,723.212903 C608.014651,719.624745 607.444257,716.042419 606.873864,712.460093 C605.738641,708.877767 604.596463,705.893224 602.885282,702.901391 C601.178274,699.916848 598.8967,698.130787 595.47851,696.334522 C592.630715,694.54263 589.212526,693.947763 585.223944,693.947763 C581.235362,693.947763 577.817173,694.541172 574.963814,696.334522 C572.116019,698.129331 569.838617,700.514632 567.557042,702.901391 C565.279641,705.29544 564.138854,708.877766 563.56846,712.460093 C562.427673,716.042419 562.427673,719.624746 562.427673,723.212903 C562.427673,726.795229 562.998067,730.377556 563.56846,733.959882 C564.709248,737.542208 565.851426,740.526752 567.557042,743.517127 C569.268223,746.500211 571.545624,748.886971 574.963814,750.681778 C577.817174,752.47367 581.235362,753.067081 585.223944,753.067081 Z M641.068271,680.811109 L657.594385,680.811109 L657.594385,696.933764 L658.164779,696.933764 C658.729607,694.54263 659.871786,692.157329 661.012573,690.361063 C662.615227,688.084149 664.535184,686.07249 666.708164,684.393435 C668.99113,682.598627 671.267139,681.408892 673.550105,680.213326 C676.3979,679.016301 678.675302,678.418517 681.527271,678.418517 L686.086246,678.418517 C686.651075,678.418517 687.793254,678.418517 688.363647,679.016301 L688.363647,696.933764 C687.22286,696.933764 686.086246,696.33598 684.375065,696.33598 L680.386483,696.33598 C677.538689,696.33598 674.685329,696.933764 671.837533,698.130789 C668.989738,699.319065 666.706772,701.113873 665.001156,703.500632 C663.289975,705.894682 661.582968,708.877766 660.44218,712.461551 C659.301391,716.045337 658.730998,720.223988 658.730998,725.00188 L658.730998,765.018374 L641.069662,765.018374 L641.069662,680.811109 L641.068271,680.811109 Z M772.129442,765.608867 L755.032934,765.608867 L755.032934,754.264105 L754.46254,754.264105 C752.185139,759.041998 748.76695,762.622867 744.207974,765.016916 C739.648998,767.402217 734.518236,768 729.964826,768 C723.693278,768 717.997687,766.804433 713.438712,764.417674 C708.879736,762.026541 704.889761,759.041998 701.471573,754.861889 C698.618213,750.68178 695.770419,745.900971 694.629631,740.526752 C692.922624,735.153992 692.352229,729.180531 692.352229,722.61512 C692.352229,714.851227 693.493017,708.279983 695.200025,702.901391 C696.911206,697.530088 699.759001,692.752195 703.177189,689.169869 C706.595377,685.587544 710.019131,683.194952 714.572543,681.408892 C718.561125,679.614084 723.121493,679.014843 727.680468,679.014843 C729.963435,679.014843 732.811229,679.014843 735.087239,679.612626 C737.940599,680.211868 740.218,680.809651 742.49401,681.999385 C744.776976,683.194952 747.052986,684.393435 749.335952,686.179495 C751.613353,687.974303 753.324534,689.767653 754.461149,692.155871 L755.031542,692.155871 L755.031542,648.558509 L772.698444,648.558509 L772.698444,765.608867 L772.129442,765.608867 L772.129442,765.608867 Z M710.019131,724.401181 C710.019131,727.983507 710.583959,731.571665 711.154354,735.153991 C712.295142,738.736317 713.43732,741.72086 715.142936,744.706861 C716.854117,747.697236 719.131518,749.483296 721.984878,751.279562 C724.832673,753.06708 728.250862,753.664864 732.239444,753.664864 C736.228026,753.664864 739.646216,753.067081 742.49401,751.279562 C745.308204,749.525505 747.659974,747.06281 749.335952,744.11491 C751.042959,741.124535 752.75414,738.138535 753.324535,734.556207 C754.459757,730.97534 754.459757,727.393013 754.459757,723.803397 C754.459757,714.251985 752.182357,707.081501 748.193773,701.713114 C744.205191,696.33598 738.504036,693.949221 731.667659,693.949221 C727.679077,693.949221 724.260888,695.140414 720.842699,696.933764 C718.029229,698.686821 715.679057,701.149846 714.006323,704.098416 C712.295142,707.082958 711.152963,710.073333 710.017741,713.65566 L710.017741,724.401181 L710.019131,724.401181 Z" id="形状" fill="url(#linearGradient-3)"></path>
                    <path d="M205.713187,642.589423 L182.915523,642.589423 L168.672375,585.852491 L168.101981,585.852491 L154.423662,642.589423 L131.631565,642.589423 L105.993063,557.785833 L129.354163,557.785833 L144.169096,615.113258 L144.739489,615.113258 L158.412245,557.785833 L180.06912,557.785833 L193.747439,615.113258 L194.312268,615.113258 L209.131375,557.785833 L231.923472,557.785833 L205.713187,642.589423 L205.713187,642.589423 Z M260.416725,600.783954 C260.416725,604.366279 260.987119,607.35228 261.557512,610.934606 C262.122341,613.924981 263.263128,616.909523 264.975702,619.892609 C266.681318,622.285201 268.39389,624.67196 271.241685,625.867526 C273.523259,627.65796 276.941448,628.255744 280.359637,628.255744 C284.349611,628.255744 287.197405,627.65796 290.049374,625.867526 C292.326775,624.075634 294.604177,622.285201 296.315358,619.892609 C298.02793,617.507308 299.163152,614.516933 299.733546,610.934606 C300.30394,607.948605 300.875725,604.366279 300.875725,600.783954 C300.875725,597.203086 300.30394,594.211253 299.733546,590.628926 C299.163152,587.644383 298.02793,584.65984 296.315358,581.670924 C294.604177,578.686381 292.897169,576.891573 290.049374,575.701838 C287.767799,573.907029 284.349611,573.307788 280.359637,573.307788 C276.371055,573.307788 273.523259,573.905571 271.241685,575.701838 C268.964284,577.489355 266.681318,579.284164 264.975702,581.670924 C263.263129,584.062057 262.122342,587.0466 261.557512,590.628926 C260.416725,593.613468 260.416725,597.203085 260.416725,600.783954 Z M238.189456,600.783954 C238.189456,594.211253 239.330244,587.644383 241.042816,582.270165 C242.748432,576.893031 245.601792,572.12097 249.590374,567.940859 C253.008562,564.352701 257.568929,560.770375 262.692736,558.979941 C267.823496,556.58735 273.523261,555.989566 279.789244,555.989566 C286.060792,555.989566 291.756382,557.186591 296.885751,558.979941 C302.016512,561.368159 306.569924,564.352701 309.993677,567.940859 C313.411866,571.523185 316.259661,576.299621 318.537061,582.270165 C320.818636,588.243625 321.390421,594.211253 321.390421,600.783954 C321.390421,607.35228 320.248242,613.924982 318.537061,619.293368 C316.830054,624.670502 313.982258,629.448395 309.993677,633.030721 C306.005095,636.613047 302.016512,639.597591 296.885751,641.991639 C291.756382,643.779157 286.060792,644.976183 279.789244,644.976183 C273.523259,644.976183 267.823496,643.779158 262.692736,641.991639 C257.56893,640.196831 253.008563,637.212289 249.590374,633.030721 C246.16662,629.448395 243.318826,624.67196 241.042816,619.293368 C239.330244,613.327198 238.189456,607.35228 238.189456,600.783954 Z M336.203963,558.383616 L357.289054,558.383616 L357.289054,573.907029 L357.859448,573.907029 C358.996061,571.521728 360.136848,569.129137 361.849421,566.742378 C363.555037,564.351244 365.838003,562.562268 368.115405,560.768917 C370.391415,558.978483 372.674381,557.784375 375.522175,557.186591 C378.36997,556.58735 380.652936,555.989566 383.49934,555.989566 C385.211913,555.989566 386.347135,555.989566 388.059707,556.58735 L388.059707,578.088597 C386.917529,578.088597 385.782307,577.489355 384.069734,577.489355 L380.081151,577.489355 C376.092569,577.489355 372.67438,578.088597 369.826586,579.881947 C366.973226,581.071681 364.697217,583.464273 362.984643,585.852491 C361.279027,588.243625 360.136848,591.228167 359.566455,594.211252 C358.996061,597.203085 358.425667,600.783952 358.425667,604.964063 L358.425667,643.185748 L336.203963,643.185748 L336.203963,558.383616 L336.203963,558.383616 Z M454.162773,600.187628 C454.162773,596.605302 453.592379,593.613469 453.021986,590.031142 C452.451592,587.0466 451.309413,584.062056 449.603797,581.672382 C447.891225,579.285623 446.185609,577.490815 443.902643,575.703296 C441.625242,573.908488 438.201488,573.309246 434.783299,573.309246 C431.36511,573.309246 427.946921,573.907029 425.670912,575.703296 C423.387946,577.490813 421.110545,579.285622 419.399364,581.672382 C417.692356,584.063515 416.551569,587.048058 415.981175,590.031142 C415.410781,593.022975 414.840388,596.605301 414.840388,600.187628 C414.840388,603.172171 415.410781,606.754498 415.981175,609.744872 C416.551569,612.727956 417.692356,615.7125 419.399364,618.697042 C421.110545,621.091092 422.817552,623.474935 425.670912,624.673418 C427.946921,626.46531 430.794717,627.060177 434.212905,627.060177 C437.636659,627.060177 441.054847,626.466768 443.332249,624.673418 C445.615215,622.87861 447.891225,621.091092 449.033404,618.697042 C450.73902,616.310283 451.309413,613.327198 451.879807,609.744872 C453.592379,607.35228 454.162773,603.769954 454.162773,600.187628 L454.162773,600.187628 Z M454.727603,631.836613 C451.879808,636.613047 448.461619,639.597591 443.902643,641.991639 C439.914061,643.779157 434.783299,644.976183 429.659495,644.976183 C423.387947,644.976183 418.258576,643.779158 413.703774,641.393856 C409.144798,639.007097 405.156215,635.418939 402.302856,631.238829 C399.455061,627.05872 397.177659,622.283742 395.466478,616.909525 C393.759471,611.53239 393.189077,605.563304 393.189077,599.589845 C393.189077,593.613469 393.759471,588.243625 395.466478,582.867949 C397.177659,577.490815 399.45506,572.711464 402.302856,569.129137 C405.156215,564.950486 409.144797,561.964484 413.703774,559.577725 C418.258577,557.186591 423.387947,555.989566 429.089101,555.989566 C433.648077,555.989566 438.201488,557.186591 442.761855,558.979941 C447.320831,561.368159 450.739021,564.352701 453.021986,568.532812 L453.592379,568.532812 L453.592379,526.136848 L475.814084,526.136848 L475.814084,642.589423 L454.727603,642.589423 L454.727603,631.836613 L454.727603,631.836613 Z M590.919534,588.243625 C589.212527,578.687838 584.083157,573.908488 574.39342,573.908488 C570.975232,573.908488 568.127436,574.507729 565.279641,576.301079 C562.996675,578.091513 560.720666,579.883405 559.578487,582.869407 C557.87148,585.256166 556.730692,588.245083 556.160298,591.827409 C555.589904,594.811951 555.01951,598.394278 555.01951,601.384653 C555.01951,604.369196 555.589904,607.355196 556.160298,610.937522 C556.730691,613.927897 557.871479,616.91244 559.008093,619.296284 C560.148881,621.690333 562.426282,624.075634 564.709248,625.868985 C566.986649,627.659418 569.840008,628.257202 573.258197,628.257202 C578.383393,628.257202 582.371976,626.466768 585.795729,623.477851 C588.643524,620.494767 590.349141,616.313198 590.920926,610.937522 L612.575018,610.937522 C610.863837,622.286659 606.873864,630.648335 600.037486,636.615963 C593.201108,642.592339 584.081765,645.576881 573.827199,645.576881 C567.555651,645.576881 562.426281,644.379857 557.301085,642.592339 C552.170324,640.198289 548.181741,637.215205 544.193159,633.631421 C540.774971,630.049095 537.927175,625.272659 535.64421,619.894067 C533.937203,614.518391 532.796415,608.549305 532.796415,602.575846 C532.796415,596.008976 533.937203,590.0326 535.64421,584.064973 C537.355391,578.689297 540.203186,573.312162 543.621375,569.729836 C547.039564,565.549727 551.59854,562.565183 556.7293,560.17405 C561.860061,557.787291 567.55426,556.590266 574.390638,556.590266 C578.949613,556.590266 583.509981,557.189507 588.068957,558.385074 C592.627933,559.579183 596.617907,561.965942 600.036095,564.354159 C603.454283,566.745293 606.302079,570.327619 608.585045,574.509187 C610.862446,578.689296 612.003233,583.46719 612.573627,588.844324 L590.918143,588.844324 L590.918143,588.243625 L590.919534,588.243625 Z M625.682944,526.136848 L647.904647,526.136848 L647.904647,642.589423 L625.682944,642.589423 L625.682944,526.136848 Z M685.515853,600.783954 C685.515853,604.366279 686.086246,607.35228 686.651075,610.934606 C687.221469,613.924981 688.362256,616.909523 690.074828,619.892609 C691.781836,622.285201 693.493017,624.67196 696.340812,625.867526 C698.618213,627.65796 702.041967,628.255744 705.460155,628.255744 C709.448737,628.255744 712.296533,627.65796 715.144328,625.867526 C717.427294,624.075634 719.703303,622.285201 721.415876,619.892609 C723.122883,617.507308 724.26367,614.516933 724.834065,610.934606 C725.40446,607.352279 725.974852,604.366279 725.974852,600.783954 C725.974852,597.203086 725.404459,594.211253 724.834065,590.628926 C724.263671,587.046599 723.122884,584.65984 721.415876,581.670924 C719.704695,579.284165 717.997687,576.891573 715.144328,575.701838 C712.296533,574.506271 709.448737,573.307788 705.460155,573.307788 C701.471573,573.307788 698.618213,573.905571 696.340812,575.701838 C694.063411,577.489355 691.781837,579.284164 690.074828,581.670924 C688.363647,584.062057 687.221469,587.0466 686.651075,590.628926 C685.515853,593.613468 685.515853,597.203085 685.515853,600.783954 Z M663.288584,600.783954 C663.288584,594.211253 664.429371,587.644383 666.141944,582.270165 C667.848951,576.893031 670.695355,572.12097 674.685328,567.940859 C678.109081,564.352701 682.662493,560.770375 687.793254,558.979941 C692.924014,556.58735 698.618213,555.989566 704.889761,555.989566 C711.155746,555.989566 716.8569,557.186591 721.986269,558.979941 C727.111466,561.368159 731.670442,564.352701 735.08863,567.940859 C738.506818,571.523185 741.360178,576.299621 743.63758,582.270165 C745.920546,588.243625 746.485375,594.211253 746.485375,600.783954 C746.485375,607.35228 745.350153,613.924982 743.63758,619.293368 C741.930573,624.670502 739.078604,629.448395 735.08863,633.030721 C731.670442,636.613047 727.111465,639.597591 721.986269,641.991639 C716.855509,643.779157 711.155744,644.976183 704.889761,644.976183 C698.618213,644.976183 692.922623,643.779158 687.793254,641.991639 C682.662493,640.196831 678.109081,637.212289 674.685328,633.030721 C671.267139,629.448395 668.419344,624.67196 666.141944,619.293368 C663.858978,613.327198 663.288584,607.35228 663.288584,600.783954 Z M837.09172,642.589423 L816.00663,642.589423 L816.00663,630.64542 L815.436236,630.64542 C812.588442,635.41894 809.170252,639.007097 804.611276,641.393856 C800.052301,643.779157 795.491933,644.376942 790.932957,644.376942 C785.237366,644.376942 780.107997,643.779158 776.119415,641.991639 C772.130833,640.196831 769.283037,637.81153 767.000071,634.826988 C764.72267,631.836613 763.011489,628.254287 762.441095,624.074176 C761.876267,619.892609 761.305873,615.113258 761.305873,609.744872 L761.305873,557.785833 L783.527577,557.785833 L783.527577,605.563304 C783.527577,612.727957 784.668364,617.507308 786.375372,621.089634 C788.658338,624.67196 792.076527,626.46531 797.205896,626.46531 C803.47188,626.46531 807.460462,624.673418 810.313822,621.089634 C813.161617,617.507308 814.302404,610.934606 814.302404,602.574387 L814.302404,558.383616 L836.524109,558.383616 L836.524109,642.589423 L837.09172,642.589423 Z M911.167777,600.187628 C911.167777,596.605302 910.597383,593.613469 910.032554,590.031142 C909.462161,587.0466 908.321373,584.062056 906.608801,581.672382 C905.006559,579.394676 903.086555,577.382475 900.913211,575.703296 C898.630244,573.908488 895.212056,573.309246 891.793868,573.309246 C888.375679,573.309246 884.95749,573.907029 882.674524,575.703296 C880.397123,577.490813 878.121112,579.285622 876.408541,581.672382 C874.69736,584.063515 873.560746,587.048058 872.990353,590.031142 C872.419959,593.022975 871.849565,596.605301 871.849565,600.187628 C871.849565,603.172171 872.419959,606.754498 872.990353,609.744872 C873.560746,612.727956 874.69736,615.7125 876.408541,618.697042 C878.119722,621.091092 879.826729,623.474935 882.674524,624.673418 C884.95749,626.46531 887.805285,627.060177 891.223474,627.060177 C894.641664,627.060177 898.065416,626.466768 900.342817,624.673418 C902.620218,622.87861 904.901793,621.091092 906.043972,618.697042 C907.75098,616.310283 908.321373,613.327198 908.891767,609.744872 C910.597383,607.35228 911.167777,603.769954 911.167777,600.187628 Z M911.167777,631.836613 C908.319982,636.613047 904.901793,639.597591 900.342817,641.991639 C895.783841,644.37694 891.223473,644.976183 886.099669,644.976183 C879.828121,644.976183 874.69875,643.779158 870.143948,641.393856 C865.584972,639.007097 861.594998,635.418939 858.743031,631.238829 C855.895236,627.05872 853.617834,622.283742 851.906653,616.909525 C850.199646,611.53239 849.629252,605.563304 849.629252,599.589845 C849.629252,593.613469 850.199646,588.243625 851.906653,582.867949 C853.617834,577.490815 855.895235,572.711464 858.743031,569.129137 C861.59639,564.950486 865.584972,561.964484 870.143948,559.577725 C874.69736,557.186591 879.828121,555.989566 885.529275,555.989566 C890.088251,555.989566 894.643054,557.186591 899.202029,558.979941 C903.761005,561.368159 907.179195,564.352701 909.462161,568.532812 L910.032554,568.532812 L910.032554,526.136848 L932.254259,526.136848 L932.254259,642.589423 L911.169168,642.589423 L911.169168,631.836613 L911.167777,631.836613 Z" id="形状" fill="url(#linearGradient-4)"></path>
                </g>
            </g>
        </g>
    </g>
</svg>