<?xml version="1.0" encoding="UTF-8"?>
<svg width="1386px" height="1024px" viewBox="0 0 1386 1024" version="1.1" xmlns="http://www.w3.org/2000/svg" xmlns:xlink="http://www.w3.org/1999/xlink">
    <title>词云图</title>
    <defs>
        <linearGradient x1="50%" y1="0%" x2="50%" y2="100%" id="linearGradient-1">
            <stop stop-color="#E5E5E7" offset="0%"></stop>
            <stop stop-color="#C7C6CA" offset="100%"></stop>
        </linearGradient>
        <linearGradient x1="50%" y1="0%" x2="50%" y2="100%" id="linearGradient-2">
            <stop stop-color="#FEC08B" offset="0%"></stop>
            <stop stop-color="#FA8334" offset="100%"></stop>
        </linearGradient>
        <linearGradient x1="50%" y1="0%" x2="50%" y2="100%" id="linearGradient-3">
            <stop stop-color="#E5E5E7" offset="0%"></stop>
            <stop stop-color="#C7C6CA" offset="100%"></stop>
        </linearGradient>
        <linearGradient x1="50%" y1="0%" x2="50%" y2="100%" id="linearGradient-4">
            <stop stop-color="#FEC08B" offset="0%"></stop>
            <stop stop-color="#FA8334" offset="100%"></stop>
        </linearGradient>
    </defs>
    <g id="页面-1" stroke="none" stroke-width="1" fill="none" fill-rule="evenodd">
        <g id="词云图" fill-rule="nonzero">
            <path d="M467.202121,311.339189 L405.521856,311.339189 L366.974044,160.048479 L366.202335,160.048479 L329.196059,311.339189 L266.753496,311.339189 L197.367433,86.001101 L260.583588,86.001101 L300.669172,238.878124 L301.440881,238.878124 L337.681094,86.001101 L396.272639,86.001101 L433.277034,238.878124 L434.048743,238.878124 L474.134328,86.001101 L535.814591,86.001101 L467.202121,311.339189 L467.202121,311.339189 Z M615.2197,199.06478 C615.2197,207.828381 615.99329,216.584207 617.536705,225.345864 C619.080126,234.10169 622.161312,241.271202 626.014214,248.43877 C629.87464,255.600507 635.270957,260.376941 642.203166,265.161153 C649.144784,269.140542 657.629816,271.5239 667.650747,271.5239 C677.671671,271.5239 686.14918,269.140542 693.088913,265.161153 C700.03053,261.173986 705.426848,255.600507 709.27975,248.43877 C713.132646,241.271202 716.221362,234.101688 717.757253,225.345864 C719.292862,216.675271 720.067717,207.879235 720.072385,199.06478 C720.072385,190.308954 719.300674,181.553129 717.757253,172.789526 C716.221368,164.0337 713.132646,156.069088 709.27975,149.69662 C705.426848,143.326097 700.03053,137.752616 693.088913,132.976183 C686.14918,128.199749 677.671671,126.603714 667.650747,126.603714 C657.629822,126.603714 649.144784,128.996791 642.203166,132.976183 C635.270957,136.96335 629.87464,142.536829 626.014214,149.69662 C622.161318,156.069088 619.080126,164.033702 617.536705,172.789526 C615.99329,180.756083 615.2197,189.511909 615.2197,199.06478 L615.2197,199.06478 Z M555.084734,199.06478 C555.084734,180.756085 557.401744,164.830746 562.798061,149.69662 C568.194377,135.367315 575.907706,122.626268 585.92863,112.274411 C595.949556,101.924496 607.515781,93.9579385 621.389607,88.3844583 C635.270957,82.8109794 650.688199,79.6286339 667.650747,79.6286339 C684.613289,79.6286339 700.03053,82.8109794 714.676061,88.3844583 C728.549888,93.9579372 740.887823,101.924496 750.137043,112.274411 C760.165496,122.626268 767.871295,135.367317 773.267607,149.69662 C778.663924,164.033702 780.980935,180.756083 780.980935,199.06478 C780.980935,217.381252 778.665809,233.304646 773.267607,247.641725 C767.871295,261.971031 760.165496,274.714022 750.137043,285.063937 C740.116113,295.413852 728.549888,303.380408 714.676061,308.953887 C700.802241,314.527366 685.37747,316.912668 667.650747,316.912668 C650.688199,316.912668 635.270957,314.527366 621.389607,308.953887 C607.515781,303.380408 595.949556,295.41385 585.92863,285.063937 C575.907704,274.714023 568.194377,261.971031 562.798061,247.641725 C557.401744,233.304644 555.084734,216.584207 555.084734,199.06478 Z M820.292927,86.001101 L877.348587,86.001101 L877.348587,128.199747 L878.120291,128.199747 C881.201483,121.030235 885.061909,114.65971 889.686522,109.086231 C894.311129,103.510808 899.707446,97.9373287 905.877353,93.9579385 C912.045381,89.9804931 918.97947,86.7903709 925.919208,84.4050681 C932.860826,82.0139348 940.564739,81.2168901 948.278067,81.2168901 C952.130964,81.2168901 956.755576,82.0139348 961.380183,83.6060793 L961.380183,140.938852 C958.298991,140.141807 955.219685,140.141807 951.359253,139.344762 C947.506357,138.547718 943.653454,138.547718 939.793029,138.547718 C929.000394,138.547718 919.75118,140.141807 912.045381,144.121197 C904.332053,148.108363 898.164025,152.884798 893.539418,159.255323 C888.914811,165.620016 885.82609,173.584628 883.518494,182.340453 C881.203369,191.104054 880.429779,200.656925 880.429779,211.006838 L880.429779,312.931333 L820.294813,312.931333 L820.294813,86.001101 L820.292927,86.001101 Z M1139.47747,198.275512 C1139.47747,188.714866 1138.70576,179.95904 1137.16235,171.195437 C1135.61893,162.439611 1132.53774,155.270099 1128.68484,148.110307 C1124.82441,141.739784 1119.4281,136.16436 1112.49401,132.179139 C1106.32598,128.199749 1097.84094,125.814446 1087.82002,125.814446 C1077.79909,125.814446 1069.31405,128.199747 1063.15356,132.179139 C1056.53238,135.980594 1050.95971,141.463899 1046.96272,148.110307 C1043.1023,154.473056 1040.02111,162.439613 1037.70598,171.195437 C1036.17009,179.959038 1034.62479,188.714865 1034.62479,198.275512 C1034.62479,207.029394 1035.3965,215.785218 1037.70598,224.548819 C1040.02111,233.304646 1043.1023,241.273146 1046.96272,247.641725 C1051.58733,254.803462 1056.98365,260.376941 1063.15356,264.364108 C1069.31406,268.343498 1077.79909,270.734632 1087.04831,270.734632 C1097.06924,270.734632 1104.78256,268.343498 1111.7223,264.364108 C1118.65639,260.376941 1123.28852,254.803462 1127.91313,247.641725 C1131.76603,240.474157 1134.84722,233.304644 1136.39064,224.548819 C1138.70388,216.584207 1139.47747,207.029392 1139.47747,198.275512 L1139.47747,198.275512 Z M1140.24165,282.672804 L1139.47747,282.672804 C1132.53586,294.616807 1123.28664,303.380408 1111.7223,308.953887 C1100.15607,314.527366 1087.04831,316.912668 1073.17449,316.912668 C1056.98365,316.912668 1042.33059,313.730322 1030.00018,307.359799 C1017.66225,300.989275 1007.64132,292.233449 999.156284,281.084547 C990.678775,269.937587 985.282458,257.194596 980.657851,242.068247 C976.804954,227.731165 974.489823,212.604817 974.489823,196.679479 C974.489823,181.553129 976.804954,167.216049 980.657851,152.886742 C984.510753,138.549661 990.678781,126.603714 999.156284,115.456756 C1006.86961,104.309796 1016.89054,96.3510166 1029.22847,89.181503 C1041.56641,82.8109794 1055.44023,79.628632 1071.62919,79.6286339 C1084.73883,79.6286339 1097.06923,82.8109794 1108.63358,88.3844583 C1120.19981,93.9579372 1129.44902,102.72154 1136.38875,113.870442 L1137.16046,113.870442 L1137.16046,0 L1197.29543,0 L1197.29543,311.339189 L1140.23977,311.339189 L1140.23977,282.672804 L1140.24165,282.672804 Z M134.145633,511.206845 C131.064443,488.910983 117.954799,476.96698 95.5959398,476.96698 C87.1184318,476.96698 80.178697,478.553292 74.7804973,482.540458 C69.3841806,486.519849 64.7595713,491.296284 60.9066731,497.666808 C57.0481273,504.039275 54.7386469,510.409801 53.1952272,518.368581 C51.6499266,525.536149 50.8857468,533.500762 50.8857468,540.664442 C50.8857468,547.832011 51.6499266,555.001524 53.1952272,562.161316 C54.7386454,569.330827 57.0481259,576.498397 60.1349637,582.071876 C63.2161533,587.6473 67.8407626,593.220778 74.0087886,596.401181 C79.4069877,600.388348 86.3467243,601.976604 94.8242306,601.976604 C107.162166,601.976604 117.183091,597.997215 124.122826,590.827702 C131.064443,583.667909 134.917342,574.107264 137.232471,561.373992 L188.110688,561.373992 C185.031381,587.649243 175.008573,607.552028 158.819623,621.092064 C142.628788,634.632103 121.815228,641.78995 96.3676491,641.78995 C81.722115,641.78995 68.6124719,639.406589 57.0481273,634.630156 C44.7177208,629.845945 34.6967962,622.682268 26.211759,613.920608 C17.7342512,605.164782 11.5662252,594.019768 6.94161745,582.071876 C2.31512736,569.330827 0,555.798568 0,541.461487 C0,526.333193 2.31512736,511.996113 6.16802599,499.262841 C10.7926338,486.519849 16.962542,474.573902 25.4400499,465.021033 C33.9232033,455.468162 43.9460117,448.300594 56.2820637,442.727114 C68.6124701,437.151691 82.4938225,434.760557 97.9129495,434.760557 C109.477294,434.760557 120.269928,436.354646 130.292734,439.536991 C141.08537,442.727114 150.334585,447.503548 158.047913,453.874073 C166.525421,460.244597 172.693447,468.203378 178.089764,476.96698 C183.486081,486.51985 186.5748,497.666808 187.33898,509.612756 L134.145633,509.612756 L134.145633,511.206845 L134.145633,511.206845 Z M217.411168,366.278883 L269.832803,366.278883 L269.832803,638.607602 L217.411168,638.607602 L217.411168,366.278883 L217.411168,366.278883 Z M357.724829,539.865453 C357.724829,547.832011 358.496537,555.798567 360.032426,562.95836 C361.577727,570.127872 363.892855,577.295442 367.745753,582.870865 C371.598652,589.241388 376.230789,594.017824 381.627107,597.20017 C387.787606,600.388348 394.729223,602.773649 403.978438,602.773649 C413.235183,602.773649 420.16739,601.177616 426.337299,597.20017 C432.505325,593.22078 437.129934,589.241388 440.990362,582.870865 C444.84326,576.498397 447.15086,570.127872 448.696159,562.95836 C450.239577,555.798567 451.011286,547.832011 451.011286,539.865453 C451.011286,531.908617 450.239577,523.94206 448.696159,516.780324 C447.150858,508.815712 444.84326,502.443243 440.990362,496.869764 C437.129934,491.296284 432.505326,486.519849 426.337299,482.540458 C420.16739,478.553292 412.463474,476.96698 403.978438,476.96698 C394.729221,476.96698 387.787604,478.553292 381.627107,482.540458 C375.459081,486.519849 370.834472,491.296284 367.745753,496.869764 C363.892855,502.443243 361.577727,509.612756 360.032426,516.780324 C358.496537,524.737161 357.724829,532.705662 357.724829,539.865453 Z M305.301309,539.865453 C305.301309,523.94206 307.610789,509.612754 312.235397,496.869764 C316.860005,484.128715 323.799741,472.979813 332.284777,464.223988 C340.762285,455.468162 351.554918,448.300594 363.121145,443.524158 C375.459081,438.747723 388.561195,436.354646 403.978438,436.354646 C419.40321,436.354646 432.505325,438.747723 444.84326,443.524158 C457.181196,448.300592 467.202121,455.468162 476.451336,464.223988 C485.700552,472.979814 491.868579,484.128717 496.493189,496.869764 C501.117796,509.612756 503.434806,523.94206 503.434806,539.865453 C503.434806,555.798567 501.117796,570.127872 496.493189,582.870865 C491.86858,595.604137 484.928844,606.753039 476.451336,615.514697 C467.973828,624.270525 457.181195,631.440037 444.84326,636.216471 C432.505325,640.992904 419.40321,643.384036 403.978438,643.384036 C388.561195,643.384036 375.45908,640.994852 363.121145,636.216471 C350.78321,631.440037 340.762285,624.268577 332.284777,615.514697 C323.799741,606.75304 316.860005,595.604137 312.235397,582.870865 C307.610789,570.127872 305.301309,555.798568 305.301309,539.865453 Z M716.993072,638.607602 L666.879036,638.607602 L666.879036,610.738263 L666.107326,610.738263 C659.165708,621.887165 650.688199,630.642991 639.89557,635.419425 C629.10105,640.203635 618.308415,643.384036 607.515781,643.384036 C593.634427,643.384036 582.068202,641.78995 572.818985,637.810556 C563.569768,633.831169 556.628151,628.257689 551.231834,621.889109 C545.835517,614.719597 542.754326,605.963771 540.4392,596.403125 C538.12972,586.05321 537.358009,574.906252 537.358009,562.960304 L537.358009,441.133025 L589.781529,441.133025 L589.781529,552.610391 C589.781529,568.535729 592.096656,581.276776 597.492973,589.245277 C602.117581,597.204058 611.366798,601.181504 623.704733,601.181504 C638.35027,601.181504 648.373073,596.405069 654.541101,587.651187 C660.709129,578.887586 663.790315,564.558282 663.790315,544.653553 L663.790315,441.133025 L716.219482,441.133025 L716.219482,638.61149 L716.993072,638.61149 L716.993072,638.607602 Z M891.994118,539.865453 C891.994118,531.908617 891.222408,523.94206 889.684637,515.98328 C888.141222,508.815712 885.824211,501.646198 881.971314,496.072719 C878.150602,490.532495 873.461603,485.689559 868.097488,481.743414 C862.70117,478.553292 854.987842,476.169935 846.510333,476.169935 C838.0253,476.169935 830.319502,477.764024 824.923184,481.743414 C818.755156,484.925759 814.130549,489.702195 811.041828,496.072719 C807.188932,501.646198 804.873806,508.815712 803.336035,515.98328 C801.792614,523.146959 801.020904,531.111573 801.020904,539.865453 C801.020904,547.832011 801.792614,555.001522 803.336035,562.95836 C804.871921,570.924917 807.960642,577.295442 811.813539,583.667909 C815.666441,590.028713 820.291048,594.812925 826.459076,597.997215 C832.627098,601.976604 839.568721,603.570693 847.282043,603.570693 C855.759553,603.570693 863.472881,601.976604 868.869198,597.997215 C875.029697,594.812925 879.661833,590.028713 882.743019,583.667909 C885.824211,577.295442 888.911047,570.922974 890.456347,562.95836 C891.222408,555.798567 891.994118,547.830066 891.994118,539.865453 L891.994118,539.865453 Z M892.765829,613.918664 C885.824211,624.268577 878.120291,632.235136 868.099367,637.011569 C858.078443,641.788003 846.512218,644.181082 834.176163,644.181082 C819.530632,644.181082 807.192696,640.990963 796.400062,635.417484 C785.607427,629.844004 776.358213,621.885221 769.416596,612.324576 C762.474978,602.771705 757.078654,591.622803 753.225758,578.881754 C749.372862,566.146538 747.829441,552.604558 747.829441,539.072298 C747.829441,525.532261 749.372862,512.791213 753.225758,500.845267 C757.078654,488.110051 762.474978,477.760137 769.416596,468.19949 C776.358213,458.646619 785.607427,451.479052 795.628351,445.106584 C806.420986,439.533105 818.758921,436.350758 832.632748,436.350758 C844.198972,436.350758 854.991607,438.743835 865.012531,443.520271 C875.033461,448.296707 883.518494,455.464276 888.914811,465.816133 L889.686522,465.816133 L889.686522,366.274995 L942.110039,366.274995 L942.110039,638.603714 L892.767708,638.603714 L892.767708,613.918664 L892.765829,613.918664 Z" id="形状" fill="url(#linearGradient-1)"></path>
            <path d="M1052.35716,418.837163 C1051.58545,413.26174 1049.26844,409.284292 1046.18913,406.891216 C1043.10041,404.507859 1038.47581,402.911826 1033.8512,402.911826 C1031.53607,402.911826 1029.22659,403.70887 1026.13787,404.507858 C1023.05668,405.304902 1020.74155,406.891215 1019.20378,409.284294 C1016.88866,411.667651 1015.34336,414.857773 1013.80747,418.837163 C1012.26404,422.814609 1011.49234,428.390034 1011.49234,434.760557 C1011.49234,437.950679 1012.26404,441.930069 1013.03575,445.110472 C1013.80747,448.300594 1015.34524,451.48294 1016.88865,454.671117 C1018.43207,457.056419 1020.74155,459.447552 1023.83028,461.043585 C1026.91146,462.629898 1029.9983,463.426942 1033.8512,463.426942 C1039.24752,463.426942 1043.87212,461.832853 1046.96084,458.650508 C1050.04203,455.468162 1052.35716,450.683951 1053.12134,444.321202 L1070.85559,444.321202 C1069.31217,455.468162 1065.45927,463.426942 1058.51765,469.797467 C1052.35716,475.37289 1043.87212,478.553292 1033.0776,478.553292 C1026.90958,478.553292 1020.73967,477.764024 1016.11506,475.37289 C1011.49045,472.979813 1006.86585,469.797467 1003.78466,465.82002 C1000.69594,461.832853 997.616634,457.056419 996.071334,452.279984 C994.527913,446.706505 993.756202,441.131082 993.756202,434.760557 C993.756202,428.390032 994.527913,422.814609 996.071334,417.24113 C997.614749,411.667651 999.92423,406.891215 1003.78466,402.911826 C1007.63756,398.932436 1011.49045,395.744258 1016.11506,393.358955 C1021.51138,390.967822 1026.9077,390.170777 1033.84931,390.170777 C1038.47392,390.170777 1043.09853,390.967822 1047.72314,391.764867 C1052.35528,393.358955 1055.43647,394.947212 1059.28937,397.338346 C1062.37809,399.729479 1065.45739,402.911825 1067.7744,406.891216 C1070.08389,410.878383 1070.85559,414.857773 1071.6273,420.431252 L1052.35716,420.431252 L1052.35716,418.837163 L1052.35716,418.837163 Z M1085.51054,358.322045 L1103.23726,358.322045 L1103.23726,475.37289 L1085.51054,475.37289 L1085.51054,358.322045 Z M1161.06274,477.764024 C1154.89472,477.764024 1148.72481,476.96698 1143.32849,474.573902 C1137.93217,472.190545 1134.07928,469.000423 1130.21885,465.021033 C1126.36595,461.043587 1124.05082,456.259376 1122.51305,450.683951 C1120.96963,445.110472 1119.42433,439.536991 1119.42433,432.375256 C1119.42433,426.004732 1120.19604,419.634207 1122.51305,414.857773 C1124.04894,409.284294 1127.13766,404.507858 1130.21885,400.520692 C1134.07928,396.541303 1137.93217,393.358955 1143.32849,390.967822 C1148.72481,388.582521 1154.12113,387.785477 1161.06274,387.785477 C1167.22324,387.785477 1173.39315,388.582521 1178.78947,390.967822 C1184.18578,393.358955 1188.04621,396.541301 1191.89911,400.520692 C1195.75201,404.507859 1198.06714,409.284294 1199.60491,414.857773 C1201.14833,420.431252 1202.69363,426.004732 1202.69363,432.375256 C1202.69363,438.747723 1201.92192,445.110472 1199.60491,450.683951 C1198.06902,456.259374 1194.9803,461.043585 1191.89911,465.021033 C1188.04621,469.000423 1184.18578,472.190545 1178.78947,474.573902 C1173.39315,476.169935 1167.22512,477.764024 1161.06274,477.764024 Z M1161.06274,462.629898 C1164.91564,462.629898 1168.76854,461.832853 1171.85538,460.244597 C1174.87322,458.716948 1177.31283,456.19519 1178.78947,453.077029 C1180.33289,449.894683 1181.87819,446.706505 1182.6499,443.524158 C1183.41407,440.334036 1184.18578,436.354646 1184.18578,432.375256 C1184.18578,428.390034 1183.41407,425.207688 1182.6499,421.228297 C1181.9835,417.810489 1180.67171,414.561754 1178.78947,411.667651 C1177.25358,409.284294 1174.16486,406.891216 1171.85538,404.507858 C1168.76666,402.911825 1165.68735,402.114782 1161.06274,402.114782 C1157.20232,402.114782 1153.34942,402.911826 1150.27011,404.507858 C1147.18139,406.09417 1144.87379,408.485303 1143.32849,411.667651 C1141.78508,414.060728 1140.23977,418.038174 1139.47559,421.228297 C1138.70388,425.207686 1137.93217,428.390034 1137.93217,432.375256 C1137.93217,436.354646 1138.70388,439.536993 1139.47559,443.524158 C1140.23977,446.706504 1141.78507,449.894682 1143.32849,453.077029 C1144.87191,456.259374 1147.9531,457.853463 1150.27011,460.244597 C1153.3513,461.832853 1156.43061,462.629898 1161.06274,462.629898 L1161.06274,462.629898 Z M1289.03847,475.37289 L1271.30422,475.37289 L1271.30422,463.426942 C1268.99473,467.406332 1265.9079,471.393499 1261.28329,473.776857 C1256.65868,476.169935 1252.80578,477.764024 1248.17365,477.764024 C1237.38101,477.764024 1229.67521,475.37289 1225.05061,469.797467 C1220.426,464.223988 1218.10899,456.259374 1218.10899,445.110472 L1218.10899,391.764867 L1235.84324,391.764867 L1235.84324,442.727114 C1235.84324,449.894682 1237.37913,455.468162 1239.69614,458.650508 C1242.77733,461.832853 1246.63775,463.426942 1251.26237,463.426942 C1255.11526,463.426942 1258.20399,462.629898 1260.51158,461.832853 C1262.82671,460.244597 1265.13619,458.650508 1266.67961,457.056419 C1268.22302,454.671117 1269.7608,452.279984 1269.7608,449.894683 C1270.53251,446.706505 1270.53251,444.321204 1270.53251,440.334036 L1270.53251,390.967822 L1288.26676,390.967822 L1288.26676,475.37289 L1289.03847,475.37289 L1289.03847,475.37289 Z M1385.408,475.37289 L1368.44546,475.37289 L1368.44546,464.223988 C1366.13598,469.000423 1362.27743,472.979814 1357.65282,474.573902 C1353.02822,476.96698 1348.4036,477.764024 1343.00729,477.764024 C1336.83926,477.764024 1330.66935,476.96698 1326.04474,474.573902 C1321.42014,472.190545 1317.56724,469.000423 1313.70681,465.021033 C1310.62562,461.043587 1308.31049,456.259376 1306.77272,450.683951 C1305.22931,445.110472 1304.4576,439.536991 1304.4576,433.174244 C1304.4576,425.207688 1305.22931,418.837163 1307.53878,413.26174 C1309.85391,407.688261 1312.17092,402.911825 1315.25211,399.729479 C1318.3333,395.744257 1322.19373,393.358955 1326.81833,391.764867 C1331.44295,390.170777 1335.29584,389.371789 1339.92798,389.371789 C1342.23746,389.371789 1345.3243,389.371789 1347.63378,390.170777 C1349.9489,390.967822 1353.0301,391.764867 1355.34711,392.561911 C1357.65659,393.358955 1359.97171,394.947212 1362.28119,396.541301 C1364.59632,398.13539 1366.14162,400.520691 1367.67751,402.911826 L1367.67751,359.916134 L1385.41176,359.916134 L1385.41176,475.37289 L1385.408,475.37289 Z M1322.19185,433.963513 C1322.19185,437.950679 1322.96356,441.131081 1323.72773,444.321202 C1324.49944,447.503548 1326.04286,450.683951 1327.58817,453.874073 C1329.13158,456.259374 1331.44106,458.650508 1334.52978,460.244597 C1337.61097,461.832853 1340.69028,462.629898 1344.55071,462.629898 C1348.4036,462.629898 1352.25651,461.832853 1354.57163,460.244597 C1357.59001,458.715058 1360.03151,456.194085 1361.51325,453.077029 C1363.04914,449.894683 1364.59444,446.706505 1365.36615,443.524158 C1366.13786,440.334036 1366.90957,436.354646 1366.90957,432.375256 C1366.90957,422.814611 1364.59444,415.654817 1360.74154,410.081338 C1356.88111,404.507859 1351.4848,402.114782 1344.55071,402.114782 C1340.69028,402.114782 1336.83738,402.911826 1333.75807,404.507858 C1330.66935,406.09417 1328.36176,408.485303 1326.81645,411.667651 C1325.27303,414.857773 1323.72773,418.038174 1322.96356,421.228297 C1322.19185,424.410642 1322.19185,429.984122 1322.19185,433.963513 L1322.19185,433.963513 Z M1073.94431,617.110731 L1073.1726,617.110731 L1058.51954,554.202535 L1040.02111,554.202535 L1025.37558,617.110731 L1024.60386,617.110731 L1008.41303,554.202535 L989.13536,554.202535 L1014.58294,638.607602 L1033.85308,638.607602 L1049.27032,575.701353 L1064.68757,638.607602 L1083.19352,638.607602 L1108.63358,554.202535 L1090.13514,554.202535 L1073.94431,617.110731 L1073.94431,617.110731 Z M1255.11526,551.811402 C1252.03407,551.811402 1249.71895,552.606502 1247.40947,553.403547 C1245.09434,554.200591 1242.01315,555.796625 1240.46785,557.382937 C1238.92443,558.977026 1236.61495,561.372048 1235.07153,563.75346 C1233.52812,566.146538 1232.7564,568.531839 1231.98281,570.125929 L1231.98281,554.200591 L1215.0278,554.200591 L1215.0278,638.605661 L1232.75452,638.605661 L1232.75452,597.99527 C1232.75452,593.218836 1233.52623,589.239444 1234.29794,585.250335 C1235.84136,581.270945 1237.37913,578.881756 1238.92255,576.494509 C1241.23768,574.105319 1243.54715,572.515119 1245.86416,570.92103 C1248.17365,569.328885 1251.26048,569.328885 1254.34167,569.328885 L1258.2021,569.328885 C1259.73799,569.328885 1260.51158,569.328885 1262.055,570.125929 L1262.055,551.809458 L1255.11526,551.809458 L1255.11526,551.811402 Z M1329.13158,521.556759 L1329.13158,564.554393 C1327.58817,562.161316 1326.04286,560.575003 1323.72773,558.181926 C1321.41826,556.587836 1319.10313,555.001524 1316.79365,554.202535 C1314.47852,553.405491 1312.16904,552.608447 1309.08032,551.813346 C1306.77084,551.016301 1303.68401,551.016301 1301.37452,551.016301 C1296.74239,551.016301 1292.88949,551.813346 1288.26488,553.405491 C1283.64027,555.001524 1280.55155,557.384881 1276.69865,561.373992 C1272.84575,565.353381 1270.53063,569.332773 1268.99286,574.906252 C1266.67772,580.477787 1265.90413,586.850256 1265.90413,594.814869 C1265.90413,601.177617 1266.67584,606.754984 1268.21926,612.328463 C1269.75515,617.899999 1272.07216,622.68421 1275.15335,626.665545 C1278.24207,630.644932 1282.09497,633.83311 1287.49129,636.218412 C1292.1159,638.607602 1298.28392,639.408536 1304.45383,639.408536 C1309.85015,639.408536 1314.47476,638.609549 1319.09936,636.218412 C1323.72397,633.831169 1327.5844,630.644932 1329.892,625.868499 L1329.892,637.013517 L1346.85454,637.013517 L1346.85454,519.962669 L1329.12782,519.962669 L1329.12782,521.556759 L1329.13158,521.556759 Z M1328.35988,607.550084 C1327.58817,610.738261 1326.04474,613.918663 1324.49944,617.110731 C1322.96356,620.293076 1320.64655,621.887165 1317.56536,624.270525 C1314.47663,625.866558 1311.39733,626.663597 1307.5369,626.663597 C1303.68401,626.663597 1300.60281,625.866558 1297.51598,624.270525 C1294.70768,622.805755 1292.3177,620.610023 1290.58189,617.899999 C1288.70002,615.008523 1287.38823,611.762407 1286.72146,608.347128 C1285.94975,605.164782 1285.18557,601.177616 1285.18557,597.999159 C1285.18557,594.019768 1285.94975,590.829646 1286.72146,586.850255 C1287.38814,583.434947 1288.69994,580.188812 1290.58189,577.297386 C1292.11778,574.109208 1294.43479,571.723907 1297.51598,570.129818 C1300.60469,568.535729 1303.684,567.73674 1308.30861,567.73674 C1315.25023,567.73674 1320.64655,570.129818 1324.49944,575.703296 C1328.35988,581.276776 1330.66747,588.448232 1330.66747,598.001103 C1329.89576,600.388348 1329.13158,603.570693 1328.35988,607.550084 L1328.35988,607.550084 Z M1196.52372,578.883698 C1194.9803,573.310219 1191.89911,568.533783 1188.81039,564.554393 C1184.95749,560.575003 1181.10459,557.384881 1175.70827,555.001524 C1170.31196,552.608447 1164.91564,551.811402 1157.97403,551.811402 C1151.03241,551.811402 1145.63609,552.606502 1140.23977,555.001524 C1134.84346,557.384881 1130.99056,560.575003 1127.13766,564.554393 C1123.28476,568.533783 1120.96963,573.310219 1119.42433,578.883698 C1117.88844,584.457177 1116.34314,590.028713 1116.34314,596.401181 C1116.34314,602.773649 1117.11485,609.144174 1119.42433,614.717653 C1120.96775,620.293076 1124.04894,625.069512 1127.13766,629.054735 C1130.99056,633.034123 1134.84346,636.218412 1140.23977,638.607602 C1145.63609,640.994852 1151.03241,641.78995 1157.97403,641.78995 C1164.91564,641.78995 1170.31196,640.994852 1175.70827,638.607602 C1181.10459,636.218412 1184.95749,633.034123 1188.81039,629.054735 C1192.67082,625.069512 1194.97842,620.293076 1196.52372,614.717653 C1198.06714,609.144174 1199.60491,603.572638 1199.60491,596.401181 C1198.84073,590.028713 1198.06714,583.667909 1196.52372,578.883698 Z M1179.56118,607.550084 C1178.78947,610.738261 1177.2517,613.918663 1175.70827,617.110731 C1174.16486,620.293076 1171.08367,621.887165 1168.76666,624.270525 C1165.68547,625.866558 1162.59863,626.663597 1157.97403,626.663597 C1153.34942,626.663597 1150.26823,625.866558 1147.18139,624.270525 C1144.16194,622.746254 1141.71968,620.227235 1140.23977,617.110731 C1138.70388,613.918664 1137.15858,610.738263 1136.38687,607.550084 C1135.61516,604.365794 1134.84345,600.386404 1134.84345,596.401181 C1134.84345,592.423735 1135.61516,589.241388 1136.38687,585.254221 C1137.05529,581.840759 1138.3642,578.595448 1140.23977,575.701353 C1141.78319,573.312163 1144.87191,570.924918 1147.18139,568.533785 C1150.27011,566.945528 1153.34942,566.148482 1157.97403,566.148482 C1162.59863,566.148482 1165.68735,566.943582 1168.76666,568.533785 C1171.85538,570.127873 1174.16297,572.519007 1175.70827,575.701353 C1177.2517,578.885642 1178.78947,582.071876 1179.56118,585.254221 C1180.33289,588.446288 1181.1046,592.423734 1181.1046,596.401181 C1181.10648,600.388348 1180.33477,603.570693 1179.56118,607.550084 L1179.56118,607.550084 Z" id="形状" fill="url(#linearGradient-2)"></path>
            <path d="M567.422668,907.748147 L592.860836,907.748147 L614.455519,992.153215 L615.2197,992.153215 L636.042668,907.748147 L660.709129,907.748147 L679.981152,992.153215 L680.752863,992.153215 L703.111722,907.748147 L727.785707,907.748147 L693.862502,1020.81182 L669.188518,1020.81182 L649.146663,937.201853 L648.374959,937.201853 L628.331225,1020.81182 L602.893053,1020.81182 L567.422668,907.748147 Z M791.77357,1024 C783.288537,1024 775.582738,1022.40591 768.643,1019.22357 C761.701382,1016.03539 756.305065,1012.056 751.680458,1007.27956 C747.055851,1001.70608 743.202949,996.132602 740.887823,988.16605 C738.578342,981.002367 737.034927,973.039697 737.034927,964.28387 C737.034927,955.520272 738.578342,947.559543 740.887823,940.393919 C743.202955,933.224406 747.055851,926.853887 751.680458,921.280408 C756.305065,915.704981 762.473093,911.727534 768.643,909.332514 C775.584617,906.150166 783.288537,904.556081 791.77357,904.556081 C800.251079,904.556081 807.964407,906.150166 814.89661,909.332514 C821.838228,912.52458 827.234545,916.502027 831.859158,921.280408 C836.483765,926.058789 840.34419,932.42542 842.651793,940.393919 C844.966918,947.56149 846.512218,955.520272 846.512218,964.28387 C846.512218,973.039697 844.968797,981.004308 842.651793,988.16605 C840.342311,995.333615 836.483765,1001.70608 831.859158,1007.27956 C827.234545,1012.8511 821.066517,1016.83049 814.89661,1019.22357 C808.736111,1022.40397 801.022789,1024 791.77357,1024 Z M791.77357,1004.08944 C797.169887,1004.08944 801.7945,1003.30017 805.647396,1000.90904 C809.500293,998.515963 812.589014,995.333615 815.66832,991.356169 C817.983452,987.369004 820.292927,983.38961 821.064638,978.613177 C822.608059,973.836743 822.608059,969.06031 822.608059,964.28387 C822.608059,959.49966 821.836348,954.723226 821.064638,949.946792 C819.528752,945.170359 817.983452,941.190965 815.66832,937.201853 C813.358839,933.222465 810.272003,930.841052 805.647396,928.446032 C801.7945,926.056841 797.169887,925.263684 791.77357,925.263684 C786.377252,925.263684 781.752645,926.0549 777.892219,928.446032 C774.039317,930.839111 770.958131,934.019511 767.871295,937.201853 C764.790103,940.393919 763.246682,945.170359 762.474978,949.946792 C760.931557,954.723226 760.931557,959.499666 760.931557,964.28387 C760.931557,969.06031 761.703267,973.836743 762.474978,978.613177 C764.018393,983.38961 765.563693,987.369004 767.871295,991.356169 C770.186421,995.333615 773.267607,998.515963 777.892219,1000.90904 C781.752645,1003.29823 786.377252,1004.08944 791.77357,1004.08944 Z M867.327663,907.748147 L889.686522,907.748147 L889.686522,929.245019 L890.458232,929.245019 C891.222408,926.056841 892.767708,922.876441 894.311129,920.481421 C896.479425,917.445534 899.077012,914.763321 902.016928,912.52458 C905.105649,910.131501 908.184955,908.545192 911.273671,906.951101 C915.126573,905.355068 918.207759,904.558022 922.066306,904.558022 L928.234333,904.558022 C928.998514,904.558022 930.543815,904.558022 931.315525,905.355068 L931.315525,929.245019 C929.772104,929.245019 928.234333,928.447973 925.919208,928.447973 L920.522891,928.447973 C916.669988,928.447973 912.809562,929.245019 908.95666,930.841052 C905.103764,932.42542 902.015042,934.818498 899.707446,938.000846 C897.392321,941.192912 895.082839,945.170359 893.539418,949.948733 C891.995997,954.727114 891.224293,960.298653 891.224293,966.669172 L891.224293,1020.0245 L867.329542,1020.0245 L867.329542,907.748147 L867.327663,907.748147 Z M1044.64571,1020.81182 L1021.51514,1020.81182 L1021.51514,1005.68548 L1020.74344,1005.68548 C1017.66225,1012.056 1013.03764,1016.83049 1006.86961,1020.02255 C1000.70158,1023.20295 993.759967,1024 987.599468,1024 C979.114436,1024 971.408637,1022.40591 965.240609,1019.22357 C959.072581,1016.03539 953.674385,1012.056 949.049778,1006.48252 C945.189346,1000.90904 941.33645,994.534628 939.793029,987.369004 C937.483553,980.205321 936.711837,972.24071 936.711837,963.48683 C936.711837,953.13497 938.255258,944.373313 940.564739,937.201853 C942.879864,930.040117 946.732767,923.669592 951.357374,918.893158 C955.981981,914.116725 960.614117,910.926606 966.774615,908.545192 C972.170933,906.152114 978.340846,905.353127 984.508868,905.353127 C987.597589,905.353127 991.450485,905.353127 994.529792,906.150166 C998.390224,906.94916 1001.47141,907.746199 1004.55072,909.332514 C1007.63944,910.926606 1010.71874,912.52458 1013.80747,914.905994 C1016.88865,917.299073 1019.20378,919.690204 1020.74155,922.874493 L1021.51326,922.874493 L1021.51326,864.744678 L1045.41554,864.744678 L1045.41554,1020.81182 L1044.64571,1020.81182 L1044.64571,1020.81182 Z M960.614117,965.868244 C960.614117,970.644678 961.378298,975.428888 962.150008,980.205321 C963.693429,984.981755 965.23873,988.961149 967.546326,992.942484 C969.861451,996.929648 972.942643,999.311062 976.803069,1001.70608 C980.655971,1004.08944 985.280578,1004.88649 990.676896,1004.88649 C996.073213,1004.88649 1000.69782,1004.08944 1004.55072,1001.70608 C1008.35816,999.36734 1011.53996,996.083747 1013.80747,992.153215 C1016.11695,988.16605 1018.43207,984.184715 1019.20378,979.408275 C1020.73967,974.633789 1020.73967,969.857349 1020.73967,965.071198 C1020.73967,952.335983 1017.65848,942.775339 1012.26217,935.617485 C1006.86585,928.447973 999.15252,925.265631 989.903306,925.265631 C984.506988,925.265631 979.882376,926.853887 975.257769,929.245019 C971.451308,931.582429 968.271667,934.866464 966.008555,938.797886 C963.693429,942.77728 962.148129,946.764444 960.612238,951.540884 L960.612238,965.868244 L960.614117,965.868244 Z" id="形状" fill="url(#linearGradient-3)"></path>
            <path d="M278.317841,856.785897 L247.473943,856.785897 L228.203802,781.136656 L227.432093,781.136656 L208.926131,856.785897 L178.089764,856.785897 L143.402379,743.714444 L175.008573,743.714444 L195.052306,820.151013 L195.824015,820.151013 L214.322449,743.714444 L243.622927,743.714444 L262.128889,820.151013 L262.893069,820.151013 L282.942448,743.714444 L313.778815,743.714444 L278.317841,856.785897 L278.317841,856.785897 Z M352.32851,801.045272 C352.32851,805.821706 353.100219,809.803041 353.871929,814.579474 C354.636108,818.566645 356.179526,822.546032 358.496537,826.523479 C360.804136,829.713604 363.121145,832.895946 366.974044,834.490037 C370.060881,836.877281 374.685488,837.674327 379.310097,837.674327 C384.708297,837.674327 388.561195,836.877281 392.419741,834.490037 C395.50093,832.100847 398.582121,829.713604 400.897249,826.523479 C403.214258,823.343078 404.750147,819.355914 405.521856,814.579474 C406.293565,810.598139 407.067157,805.821706 407.067157,801.045272 C407.067157,796.270779 406.293565,792.281674 405.521856,787.505234 C404.750147,783.525846 403.214258,779.546453 400.897249,775.561235 C398.582121,771.581842 396.272641,769.188763 392.419741,767.602454 C389.332904,765.209375 384.708297,764.410382 379.310097,764.410382 C373.913781,764.410382 370.060881,765.207428 366.974044,767.602454 C363.892855,769.985809 360.804136,772.378887 358.496537,775.561235 C356.179528,778.749413 354.63611,782.728801 353.871929,787.505234 C352.32851,791.484628 352.32851,796.270779 352.32851,801.045272 Z M322.256323,801.045272 C322.256323,792.281674 323.799741,783.525846 326.116751,776.360222 C328.424349,769.19071 332.284777,762.827961 337.681094,757.254482 C342.305702,752.470271 348.47561,747.693832 355.407819,745.306588 C362.349436,742.11647 370.060882,741.319424 378.538388,741.319424 C387.023424,741.319424 394.729223,742.915457 401.668958,745.306588 C408.610575,748.490878 414.771074,752.470271 419.40321,757.254482 C424.027818,762.030915 427.880718,768.399493 430.961906,776.360222 C434.048743,784.324833 434.822334,792.281674 434.822334,801.045272 C434.822334,809.803041 433.277034,818.566645 430.961906,825.724492 C428.652426,832.894005 424.799526,839.26453 419.40321,844.040964 C414.006894,848.817397 408.610575,852.796791 401.668958,855.988851 C394.729223,858.372212 387.023424,859.968245 378.538388,859.968245 C370.060881,859.968245 362.349436,858.372212 355.407819,855.988851 C348.475611,853.595778 342.305703,849.616384 337.681094,844.040964 C333.048957,839.26453 329.196059,832.895946 326.116751,825.724492 C323.799741,817.769599 322.256323,809.803041 322.256323,801.045272 Z M454.864185,744.51149 L483.391073,744.51149 L483.391073,765.209375 L484.162782,765.209375 C485.700553,762.028974 487.243972,758.83885 489.560981,755.656502 C491.868579,752.468324 494.957298,750.083028 498.038489,747.691891 C501.117796,745.304647 504.206515,743.712503 508.059414,742.915457 C511.912312,742.11647 515.001031,741.319424 518.852049,741.319424 C521.169059,741.319424 522.704947,741.319424 525.021957,742.11647 L525.021957,770.784796 C523.476656,770.784796 521.940768,769.985809 519.623758,769.985809 L514.22744,769.985809 C508.831123,769.985809 504.206514,770.784796 500.353616,773.175927 C496.493189,774.762242 493.413881,777.952367 491.09687,781.136656 C488.789272,784.324833 487.243972,788.304221 486.472262,792.281668 C485.700553,796.270779 484.928844,801.045272 484.928844,806.618752 L484.928844,857.580995 L454.864185,857.580995 L454.864185,744.51149 L454.864185,744.51149 Z M614.455519,800.250173 C614.455519,795.47374 613.683808,791.484628 612.912098,786.708188 C612.140387,782.728801 610.595087,778.749407 608.287491,775.563176 C605.97048,772.380828 603.662884,769.987756 600.574164,767.604395 C597.492975,765.211316 592.860838,764.412329 588.236228,764.412329 C583.611619,764.412329 578.987011,765.209375 575.907704,767.604395 C572.818985,769.98775 569.737795,772.380828 567.422668,775.563176 C565.113188,778.751354 563.569769,782.730748 562.798061,786.708188 C562.026351,790.6973 561.254642,795.473733 561.254642,800.250173 C561.254642,804.229561 562.026351,809.006001 562.798061,812.993165 C563.569769,816.970612 565.113188,820.95 567.422668,824.929394 C569.737795,828.121459 572.047276,831.299913 575.907704,832.897893 C578.987011,835.287083 582.839911,836.080235 587.464519,836.080235 C592.096656,836.080235 596.721264,835.289024 599.802455,832.897893 C602.891174,830.504814 605.97048,828.121459 607.515781,824.929394 C609.823377,821.747046 610.595087,817.769599 611.366798,812.993165 C613.683808,809.803041 614.455519,805.026607 614.455519,800.250173 L614.455519,800.250173 Z M615.2197,842.448819 C611.366798,848.817397 606.742191,852.796791 600.574164,855.988851 C595.177847,858.372212 588.236228,859.968245 581.304022,859.968245 C572.818987,859.968245 565.87925,858.372212 559.716871,855.191811 C553.548845,852.009463 548.152527,847.225253 544.292099,841.651773 C540.4392,836.078294 537.358009,829.711657 535.042882,822.546032 C532.733401,815.37652 531.961692,807.417738 531.961692,799.453127 C531.961692,791.484628 532.733401,784.324833 535.042882,777.157268 C537.358009,769.987756 540.439198,763.615283 544.292099,758.83885 C548.152527,753.267317 553.548843,749.285982 559.716871,746.103634 C565.879251,742.915457 572.818987,741.319424 580.532313,741.319424 C586.700339,741.319424 592.860838,742.915457 599.030745,745.306588 C605.19877,748.490878 609.823383,752.470271 612.912098,758.043751 L613.683808,758.043751 L613.683808,701.515798 L643.748466,701.515798 L643.748466,856.785897 L615.2197,856.785897 L615.2197,842.448819 L615.2197,842.448819 Z M799.479368,784.324833 C797.169887,771.583783 790.230155,765.211316 777.120509,765.211316 C772.495902,765.211316 768.643,766.010309 764.790103,768.401441 C761.701382,770.788684 758.622075,773.177874 757.076775,777.159209 C754.767294,780.341557 753.223879,784.326781 752.452168,789.103214 C751.680458,793.082602 750.908747,797.859036 750.908747,801.846206 C750.908747,805.825594 751.680458,809.806929 752.452168,814.583363 C753.223879,818.570533 754.767294,822.549921 756.305065,825.728381 C757.848486,828.920446 760.929678,832.100847 764.018393,834.491978 C767.099585,836.879228 770.960011,837.676268 775.584617,837.676268 C782.518712,837.676268 787.915023,835.289024 792.547165,831.303801 C796.400062,827.326354 798.707664,821.750934 799.481254,814.583363 L828.777966,814.583363 C826.46284,829.715545 821.064638,840.864445 811.815424,848.821286 C802.566204,856.789785 790.228269,860.769179 776.354449,860.769179 C767.86941,860.769179 760.929672,859.173146 753.995583,856.789785 C747.053966,853.597719 741.657648,849.620273 736.261331,844.841898 C731.636724,840.065458 727.783828,833.69688 724.695106,826.525426 C722.385625,819.357855 720.84221,811.399073 720.84221,803.434462 C720.84221,794.678635 722.385625,786.710136 724.695106,778.753301 C727.010238,771.58573 730.863134,764.416217 735.487741,759.639784 C740.112348,754.066304 746.280376,750.08691 753.221993,746.898733 C760.163611,743.716391 767.867531,742.120358 777.116744,742.120358 C783.284772,742.120358 789.454679,742.919345 795.622707,744.513431 C801.790735,746.105575 807.188932,749.287923 811.813539,752.472212 C816.438146,755.66039 820.291048,760.436824 823.379769,766.01225 C826.460955,771.58573 828.004376,777.956255 828.776081,785.125768 L799.477489,785.125768 L799.477489,784.324833 L799.479368,784.324833 Z M846.512218,701.515798 L876.576876,701.515798 L876.576876,856.785897 L846.512218,856.785897 L846.512218,701.515798 Z M927.462623,801.045272 C927.462623,805.821706 928.234333,809.803041 928.998514,814.579474 C929.770225,818.566645 931.31364,822.546032 933.630651,826.523479 C935.940132,829.713604 938.255258,832.895946 942.10816,834.490037 C945.189346,836.877281 949.821482,837.674327 954.446095,837.674327 C959.842406,837.674327 963.695309,836.877281 967.548205,834.490037 C970.636926,832.100847 973.716233,829.713604 976.033244,826.523479 C978.342725,823.343078 979.88614,819.355914 980.657851,814.579474 C981.429561,809.803041 982.201272,805.821706 982.201272,801.045272 C982.201272,796.270779 981.429561,792.281674 980.657851,787.505234 C979.886146,782.728801 978.342725,779.546453 976.033244,775.561235 C973.718118,772.378887 971.408637,769.188763 967.548205,767.602454 C963.695309,766.008362 959.842406,764.410382 954.446095,764.410382 C949.049778,764.410382 945.189346,765.207428 942.10816,767.602454 C939.026968,769.985809 935.940132,772.378887 933.630651,775.561235 C931.315525,778.749413 929.770225,782.728801 928.998514,787.505234 C927.462623,791.484628 927.462623,796.270779 927.462623,801.045272 Z M897.390435,801.045272 C897.390435,792.281674 898.933856,783.525846 901.250867,776.360222 C903.560343,769.19071 907.411366,762.827961 912.809562,757.254482 C917.441699,752.470271 923.602197,747.693832 930.543815,745.306588 C937.485432,742.11647 945.189346,741.319424 953.674385,741.319424 C962.151894,741.319424 969.865216,742.915457 976.804954,745.306588 C983.739043,748.490878 989.90707,752.470271 994.531677,757.254482 C999.156284,762.030915 1003.01671,768.399493 1006.0979,776.360222 C1009.18662,784.324833 1009.9508,792.281674 1009.9508,801.045272 C1009.9508,809.803041 1008.41491,818.566645 1006.0979,825.724492 C1003.78842,832.894005 999.929874,839.26453 994.531677,844.040964 C989.90707,848.817397 983.739043,852.796791 976.804954,855.988851 C969.863337,858.372212 962.151888,859.968245 953.674385,859.968245 C945.189346,859.968245 937.483547,858.372212 930.543815,855.988851 C923.602197,853.595778 917.441699,849.616384 912.809562,844.040964 C908.184955,839.26453 904.332053,832.895946 901.250867,825.724492 C898.162146,817.769599 897.390435,809.803041 897.390435,801.045272 Z M1132.53586,856.785897 L1104.00897,856.785897 L1104.00897,840.860563 L1103.23726,840.860563 C1099.38436,847.225253 1094.75976,852.009463 1088.59173,855.191811 C1082.4237,858.372212 1076.25379,859.169258 1070.08576,859.169258 C1062.37997,859.169258 1055.44023,858.372212 1050.04392,855.988851 C1044.6476,853.595778 1040.7947,850.415377 1037.70598,846.435983 C1034.62479,842.448819 1032.30966,837.672385 1031.53795,832.0989 C1030.77377,826.523479 1030.00206,820.151013 1030.00206,812.993165 L1030.00206,743.714444 L1060.06672,743.714444 L1060.06672,807.417738 C1060.06672,816.970612 1061.61014,823.343078 1063.91962,828.119512 C1067.00834,832.895946 1071.63295,835.287083 1078.57268,835.287083 C1087.05019,835.287083 1092.44651,832.897893 1096.30693,828.119512 C1100.15983,823.343078 1101.70325,814.579474 1101.70325,803.432515 L1101.70325,744.51149 L1131.76791,744.51149 L1131.76791,856.785897 L1132.53586,856.785897 Z M1232.7564,800.250173 C1232.7564,795.47374 1231.98469,791.484628 1231.22051,786.708188 C1230.4488,782.728801 1228.90539,778.749407 1226.58838,775.563176 C1224.42064,772.526239 1221.82299,769.843304 1218.88258,767.604395 C1215.79386,765.211316 1211.16925,764.412329 1206.54464,764.412329 C1201.92004,764.412329 1197.29543,765.209375 1194.20671,767.604395 C1191.12552,769.98775 1188.04621,772.380828 1185.7292,775.563176 C1183.41407,778.751354 1181.8763,782.730748 1181.10459,786.708188 C1180.33289,790.6973 1179.56118,795.473733 1179.56118,800.250173 C1179.56118,804.229561 1180.33289,809.006001 1181.10459,812.993165 C1181.8763,816.970612 1183.41407,820.95 1185.7292,824.929394 C1188.04433,828.121459 1190.35381,831.299913 1194.20671,832.897893 C1197.29543,835.287083 1201.14833,836.080235 1205.77294,836.080235 C1210.39755,836.080235 1215.02968,835.289024 1218.11087,832.897893 C1221.19206,830.504814 1224.2789,828.121459 1225.8242,824.929394 C1228.13368,821.747046 1228.90539,817.769599 1229.6771,812.993165 C1231.98469,809.803041 1232.7564,805.026607 1232.7564,800.250173 Z M1232.7564,842.448819 C1228.9035,848.817397 1224.2789,852.796791 1218.11087,855.988851 C1211.94285,859.169258 1205.77293,859.968245 1198.84073,859.968245 C1190.35569,859.968245 1183.41596,858.372212 1177.25357,855.191811 C1171.08555,852.009463 1165.68735,847.225253 1161.8288,841.651773 C1157.97591,836.078294 1154.89472,829.711657 1152.57959,822.546032 C1150.27011,815.37652 1149.4984,807.417738 1149.4984,799.453127 C1149.4984,791.484628 1150.27011,784.324833 1152.57959,777.157268 C1154.89472,769.987756 1157.97591,763.615283 1161.8288,758.83885 C1165.68924,753.267317 1171.08555,749.285982 1177.25357,746.103634 C1183.41407,742.915457 1190.35569,741.319424 1198.06902,741.319424 C1204.23705,741.319424 1210.39942,742.915457 1216.56745,745.306588 C1222.73548,748.490878 1227.36009,752.470271 1230.4488,758.043751 L1231.22051,758.043751 L1231.22051,701.515798 L1261.28517,701.515798 L1261.28517,856.785897 L1232.75828,856.785897 L1232.75828,842.448819 L1232.7564,842.448819 Z" id="形状" fill="url(#linearGradient-4)"></path>
        </g>
    </g>
</svg>