<svg t="1649817596434" class="icon" viewBox="0 0 1024 1024" version="1.1" xmlns="http://www.w3.org/2000/svg" p-id="3404" width="64" height="64"><path d="M56.874667 455.125333a56.874667 56.874667 0 1 0 0 113.749334 56.874667 56.874667 0 0 0 0-113.749334zM170.666667 512a56.874667 56.874667 0 1 1 113.792 0A56.874667 56.874667 0 0 1 170.666667 512zM398.208 455.125333a56.874667 56.874667 0 1 0 0 113.749334 56.874667 56.874667 0 0 0 0-113.749334zM512 512a56.874667 56.874667 0 1 1 113.792 0A56.874667 56.874667 0 0 1 512 512zM739.541333 455.125333a56.874667 56.874667 0 1 0 0 113.749334 56.874667 56.874667 0 0 0 0-113.749334zM853.333333 512a56.874667 56.874667 0 1 1 113.792 0A56.874667 56.874667 0 0 1 853.333333 512z" p-id="3405"></path></svg>