<?xml version="1.0" encoding="UTF-8"?>
<svg width="1186px" height="1024px" viewBox="0 0 1186 1024" version="1.1" xmlns="http://www.w3.org/2000/svg" xmlns:xlink="http://www.w3.org/1999/xlink">
    <title>色彩地图</title>
    <defs>
        <linearGradient x1="50%" y1="0%" x2="50%" y2="100%" id="linearGradient-1">
            <stop stop-color="#FFB676" offset="0%"></stop>
            <stop stop-color="#FA8334" offset="100%"></stop>
        </linearGradient>
        <linearGradient x1="50%" y1="0%" x2="50%" y2="100%" id="linearGradient-2">
            <stop stop-color="#FFB676" offset="0%"></stop>
            <stop stop-color="#FA8334" offset="100%"></stop>
        </linearGradient>
    </defs>
    <g id="页面-1" stroke="none" stroke-width="1" fill="none" fill-rule="evenodd">
        <g id="色彩地图" fill-rule="nonzero">
            <path d="M1043.66542,793.616949 C1041.28534,793.616949 1038.23262,795.494222 1036.21473,795.494222 C1034.35206,798.0494 1031.97197,798.675156 1029.48841,799.248767 C1028.40185,804.046241 1023.22776,804.619852 1021.93424,807.800787 C1021.41684,810.773132 1021.41684,814.319094 1020.2268,815.570606 L1016.60493,817.552173 C1014.48356,820.628813 1015.05271,824.644092 1015.05271,827.14712 C1010.88056,834.271591 1008.22021,842.19088 1007.23983,850.404444 C1008.99902,851.708105 1008.99902,854.158989 1009.61991,856.036262 C1010.2408,860.729441 1007.23983,865.787648 1006.67068,869.907216 L1011.53433,874.861134 C1012.62089,876.738401 1012.15521,879.554313 1014.48356,879.554313 C1015.10445,882.109492 1016.50145,883.308859 1016.50145,885.186131 C1018.98501,886.385499 1021.36509,885.811887 1023.22776,887.063404 L1024.31432,888.262771 L1024.31432,890.505066 C1029.48841,892.486634 1026.177,898.118452 1030.1093,898.639919 C1032.48939,899.317819 1033.73116,897.440546 1035.5421,898.118452 C1038.85351,896.762646 1039.4744,894.259612 1040.04355,891.130828 C1040.66445,886.437643 1039.4744,881.431586 1041.33707,877.364163 C1047.85643,869.855071 1044.9072,858.800024 1049.40865,851.030199 C1050.08129,833.508989 1054.16882,814.319094 1050.08129,798.675156 C1046.0455,798.0494 1045.47635,795.494222 1043.66542,793.616949 L1043.66542,793.616949 Z" id="路径" fill="#C7C6CA"></path>
            <path d="M571.064164,394.540104 C536.759954,404.917249 529.930157,467.075827 553.937925,480.894639 C595.07193,511.973928 632.79104,563.80751 646.502373,612.199418 C653.383912,626.018233 687.636378,646.772523 701.347711,626.018233 C708.229249,615.641086 704.762611,598.380609 715.059049,594.938941 C756.193054,574.184652 824.749724,639.837043 835.046163,574.184652 C848.757496,511.973928 804.208597,446.321537 852.172396,401.423436 C865.883729,387.604625 896.7213,408.358915 910.432633,394.487957 C934.440405,377.227479 941.270205,332.277232 917.314172,311.575088 C903.602839,297.756277 879.595067,294.314611 855.587296,297.756277 C862.468834,263.183175 917.314172,225.220554 876.180167,214.843408 C873.961127,214.121234 871.717645,213.477699 869.453851,212.91399 C868.874294,213.390497 868.250522,213.809606 867.591179,214.165504 L861.899684,214.165504 C859.921818,214.688666 858.195968,215.909932 857.03604,217.60717 L856.415151,218.806539 C856.415151,224.438357 853.724623,227.514998 853.103735,232.312472 C850.407677,234.441699 847.152058,235.728777 843.738629,236.01487 L841.358552,238.570047 C837.788429,240.13444 835.356607,240.13444 831.941707,241.385956 C827.85418,246.339869 824.801469,248.895046 820.920902,252.336712 L817.299041,254.213984 L816.108997,256.195549 C813.728919,257.394918 813.159769,259.272191 810.417502,259.272191 C798.724058,262.766004 788.117181,255.517646 776.992887,257.394918 C773.42277,258.54214 771.663576,259.897948 769.800903,261.097317 C769.180014,264.538983 767.16212,264.538983 765.299448,265.216887 C764.626815,270.796558 765.299448,275.48974 764.626815,280.600092 C766.489487,286.492642 770.421798,290.247187 772.28447,293.949586 L775.233698,297.391252 L775.233698,299.372817 C774.512187,301.22946 772.987182,302.651149 771.094426,303.231655 C769.231753,305.630392 769.231753,309.124205 767.16212,310.949331 C764.678559,311.627235 763.540259,311.627235 761.729326,311.627235 C758.297379,314.347565 755.158453,317.423703 752.364226,320.805012 C751.070704,323.77736 750.605037,326.384683 748.690626,327.636198 C741.136454,329.200591 735.444954,329.878496 724.941555,329.200591 C719.508766,330.504253 713.248116,330.504253 708.487955,330.504253 C699.743744,333.007283 689.809494,333.685187 680.496133,336.761828 L677.443422,339.942762 C674.350619,340.778386 671.226524,341.491601 668.078323,342.080767 L665.698245,345.105261 C663.318162,345.731018 662.076378,346.408923 659.903262,346.408923 C656.190238,349.594216 652.021205,352.196112 647.53719,354.126599 C633.825857,377.592504 599.004241,386.040231 571.064164,394.540104 L571.064164,394.540104 Z" id="路径" fill="url(#linearGradient-1)"></path>
            <path d="M619.44189,858.069974 C613.802135,836.168462 648.10634,800.083112 644.277517,770.411776 C640.44869,740.740439 609.766346,794.920611 622.546346,735.630088 C635.32634,676.339565 651.986906,721.44625 675.0116,687.916079 C686.860266,670.655602 686.498078,650.370629 683.341883,634.674547 C668.388767,634.15308 650.95209,621.533638 646.295412,612.147274 C632.584073,563.75536 594.864969,511.921782 553.730964,480.842492 C529.723193,467.023681 536.604731,404.812956 570.857197,394.487957 C598.849019,386.040231 633.670634,377.540358 647.381967,354.074452 C645.655503,354.820333 643.894256,355.481627 642.104395,356.056018 C638.120351,355.43026 637.499457,352.979376 635.119379,352.405765 C626.996057,351.727861 620.321485,352.979376 612.870796,351.727861 C610.387235,347.712584 605.88578,345.835312 604.74748,342.080767 C599.314685,338.6391 594.81323,340.777105 589.949586,338.6391 C589.432174,336.083924 588.242136,334.884555 588.242136,333.007283 C585.758574,331.025718 583.119786,329.826349 580.584486,327.636198 L573.133797,327.636198 C569.563675,327.062586 568.994525,324.559557 566.510964,323.881653 C551.506109,323.881653 538.519144,320.805012 523.824732,321.482916 L520.513316,318.927739 C512.091126,316.485803 503.401803,315.102128 494.642872,314.808169 C491.072751,314.234558 491.072751,311.053624 487.761335,311.627235 C484.708622,310.532159 482.897691,308.550594 481.138501,307.976983 C480.51761,304.48317 478.085789,304.48317 478.085789,302.605898 L478.085789,298.694913 C475.964412,296.817641 475.343522,294.679636 474.256963,293.375975 C474.774372,289.621429 471.773401,288.317768 472.394291,285.866884 L468.668947,280.600092 C468.048057,276.167643 468.668947,270.170801 466.547571,267.094159 C465.461012,265.216887 462.873968,265.216887 461.21826,264.538983 L459.407329,264.538983 C455.526762,262.713857 455.526762,257.290625 451.801418,256.717014 C451.284009,254.161838 450.09397,251.085197 450.09397,248.842899 C443.781581,246.339869 440.728869,240.708052 435.296076,239.40439 L431.415509,239.40439 C425.361826,234.189744 416.721098,233.511841 409.063447,231.634568 L406.114216,229.079392 C400.76561,229.072928 395.540766,227.456872 391.109359,224.438357 C389.9985,219.388353 389.788258,214.179403 390.488468,209.055151 C395.610816,204.36197 396.283448,198.000102 397.939156,192.785456 C394.265553,185.849977 397.318265,177.402251 393.178994,171.405409 L391.109359,170.0496 C389.298428,164.469929 389.867578,157.899476 389.298428,152.945562 C387.435756,151.641901 387.435756,148.878139 386.866606,147.52233 C383.296485,147.000866 382.727336,143.246321 379.881587,141.890513 C377.604988,141.264756 376.311466,143.246321 374.604016,142.568417 C371.869888,141.734537 369.284967,140.467151 366.946365,138.813872 C365.808065,135.320059 363.945394,133.494934 361.617054,132.921322 C360.079994,130.197221 357.892482,127.902941 355.252925,126.246576 C352.200212,118.111728 355.873816,108.412487 352.872844,101.842033 C344.128634,97.9831954 333.625235,102.415644 324.881025,104.553649 C322.397462,106.430921 322.397462,108.412487 320.690013,110.237613 L320.120863,112.219178 C318.258191,114.670062 316.136815,115.347966 313.084102,116.234456 C310.704022,116.91236 307.754791,116.234456 305.892119,116.91236 C305.892119,119.989001 301.494144,119.311097 300.821513,120.614758 C297.19965,125.620818 297.7688,132.921322 298.389691,137.875236 C296.00961,139.43963 296.630501,144.44569 294.509124,144.967154 C291.054553,146.695928 287.241517,147.571757 283.384834,147.52233 L276.710259,145.645058 L274.951069,145.645058 C271.018762,144.967154 269.880463,141.264756 267.500382,140.691145 C261.187994,139.387483 258.135281,134.694302 253.37512,134.694302 C250.011962,135.997963 249.391072,138.813872 246.441841,139.491776 C243.958278,141.890513 245.251801,145.645058 242.199089,146.322962 C240.077712,149.764628 238.887672,153.519173 237.697631,156.07435 C235.890751,157.22623 234.425146,158.84743 233.454879,160.767531 L232.36832,164.417783 L228.953422,167.025106 C227.090749,172.344045 227.763381,176.202883 227.090749,180.478892 L225.383301,183.294801 L210.585407,183.294801 C203.134719,175.524979 191.906947,180.478892 183.162737,179.175231 C179.696098,179.853135 179.696098,183.972705 176.643386,183.972705 C174.522009,187.153639 177.212535,190.23028 173.901119,191.429648 C173.331969,205.97851 173.331969,220.683812 172.711078,234.189744 L171.572779,235.336966 L169.761848,235.336966 C167.381767,237.109946 167.381767,239.925855 165.26039,239.925855 L161.586788,243.211082 C162.776828,251.085197 158.016667,257.238479 155.636586,262.609564 L152.273428,264.486836 C146.323226,263.913226 140.579988,266.989867 135.819826,268.867139 C124.022904,267.563478 113.467763,263.913226 102.343473,267.563478 C99.0320565,271.422316 93.5992633,270.744412 89.7186967,270.744412 C87.3386162,271.995927 84.8550535,271.995927 84.2859035,273.56032 L82.4749724,277.419158 C77.9735153,278.72282 76.7834753,281.06941 73.1098721,282.99883 C69.48801,282.373072 66.849225,283.57244 63.7965129,282.373072 C62.6064724,279.870042 60.1746507,277.419158 57.5358653,277.419158 C52.1030724,277.992769 47.8603198,275.437593 42.737972,275.437593 L39.2195918,277.419158 C33.5280943,277.992769 29.2853416,276.741254 24.2147347,278.72282 C20.5411318,283.050976 16.9710107,284.615369 13.5561122,286.492642 L12.9352216,288.369914 C10.6068817,289.621429 9.98599103,291.498702 7.55416937,291.498702 C5.54239833,296.480597 5.32275526,302.014717 6.93327877,307.142639 C5.07060685,310.37572 3.05271229,311.522942 1.19004038,313.504507 L0,317.15476 L1.08655861,321.170037 C3.51838026,322.421552 4.44971621,324.976729 5.5880157,326.176097 C10.5033999,328.992006 13.9700393,326.854001 18.5749782,328.992006 C20.3859092,330.295667 20.3859092,332.850844 21.0585407,334.728116 C21.0585407,337.231146 21.6276905,340.620666 21.6276905,342.497938 C20.4376501,346.982534 18.5749782,348.859806 17.3849378,352.249326 L17.3849378,359.967002 L16.1948974,361.16637 C11.6934403,363.408668 8.01983736,363.982279 5.5880157,366.537456 C4.96676576,369.124821 4.96676576,371.824206 5.5880157,374.411571 C9.83076837,377.488212 11.6934403,379.991242 15.5222658,381.868514 C18.5749782,384.423691 19.1441279,389.064726 22.2485811,390.420533 C25.1978116,400.067628 22.2485811,410.444774 25.1978116,419.518257 L26.6465564,420.821919 C30.2684184,422.021288 30.8893091,424.002853 33.8385396,424.576464 C39.0126282,430.469013 43.1518991,437.508785 48.9468784,440.585426 L52.6722222,440.585426 C54.3796714,444.704996 59.4502785,439.959669 59.4502785,444.704996 C59.1915741,455.499313 61.6751363,466.189338 66.6422617,475.784286 C64.8830712,480.164588 63.0203996,482.615472 61.2094685,485.796406 C62.399509,494.244132 64.8830712,503.317616 64.8830712,514.268372 L63.0203996,516.927841 C59.4502785,516.249937 58.7776469,513.694761 56.6562703,511.765342 L55.000562,511.765342 C51.3787,513.069004 50.1369188,514.841983 47.8085789,516.197791 C46.2563523,518.596528 47.8085789,522.090341 46.2563523,523.967613 C47.8085789,536.222031 45.0663119,547.172788 47.8085789,558.801447 C51.3787,560.105109 52.6722222,563.859654 54.3279303,565.99766 L58.3119786,566.67556 C61.6233957,571.42089 65.3487395,575.905485 69.3327877,580.129348 C71.7128682,582.684526 72.3854999,587.377705 74.2481715,589.880734 C78.2322198,595.09538 81.6988591,600.675054 84.6998307,606.567605 C87.1833934,608.340584 90.49481,608.340584 91.6848505,610.009268 C95.3067127,608.96634 96.4450121,605.8897 98.8768337,604.012427 C101.515619,603.386671 102.860882,603.386671 104.568331,603.386671 C116.21003,613.450935 125.782095,625.653206 132.818855,639.419871 C135.612863,641.922905 139.803874,641.922905 142.183955,643.43515 L146.064522,645.990328 L149.220716,649.066968 C149.738125,652.300047 149.220716,657.045376 150.928165,658.71406 L154.550027,660.747771 L156.567922,664.450172 C159.620634,666.066712 162.569864,666.692468 165.053427,667.89184 C165.881281,670.447013 165.881281,671.646386 165.881281,673.523658 C167.071321,676.078831 167.58873,676.600298 168.830512,678.216838 C172.400633,679.416205 174.780713,681.293477 178.195612,681.971383 C179.385653,685.725929 180.575693,687.603201 181.765733,689.845497 C186.008486,691.722769 191.079093,691.722769 194.752696,691.722769 C197.029295,692.922136 197.960631,694.903704 200.444193,694.903704 C206.497877,696.103071 213.327674,699.596883 218.760467,700.900544 L224.555446,704.081479 L233.868806,704.081479 C236.818036,705.280851 237.438927,709.035397 239.819007,709.661152 C243.699574,710.286908 246.183137,707.888174 249.184108,707.158124 C254.254715,713.154964 249.184108,722.906351 253.685565,727.860263 C256.065646,728.486024 259.118358,729.84183 260.929289,729.84183 C263.619815,728.486024 265.999896,728.486024 266.620787,727.286652 C267.810827,723.532112 269.673499,721.289811 269.673499,718.056733 C271.432689,715.084382 275.364997,713.154964 277.9003,710.339058 L288.921108,710.339058 L292.594712,713.83287 C297.096169,715.032237 302.528962,715.657993 305.736897,717.587416 L307.599569,721.289811 L311.273172,723.532112 L312.980621,727.182363 C315.771097,728.643398 318.007359,730.988803 319.34475,733.857109 C323.328798,736.099405 326.898919,739.071755 329.899891,742.565567 C330.46904,746.685135 329.279,749.136019 330.46904,752.316954 L334.711793,757.010133 C341.963445,759.075158 349.613446,759.27239 356.960374,757.583744 C360.271791,757.062283 360.840941,754.872132 362.755353,754.142082 L366.325474,754.142082 C369.378187,753.516321 369.947336,751.639048 372.120454,750.961148 L373.310494,749.083875 C379.260696,746.580846 386.193975,747.258747 389.194946,742.565567 C393.178994,740.584 396.179966,738.133116 398.560047,736.307993 L402.23365,734.952182 L404.355026,734.952182 C407.925147,734.326426 409.011706,732.24057 411.59875,732.24057 L416.100207,729.059636 L423.395672,729.059636 C429.190651,732.814181 433.22644,738.706728 440.21146,741.314051 C445.075104,740.63615 451.335751,742.617712 454.957613,739.436778 C456.251135,736.360138 460.07996,732.24057 461.321741,730.363297 C463.598341,730.989053 464.891863,730.363297 466.651053,730.989053 C469.289838,738.028827 472.239068,744.964302 475.395263,751.795492 L479.275829,752.994859 L481.65591,756.436527 C481.65591,760.191067 483.518582,762.694101 481.65591,769.264553 C481.035019,773.644854 479.94846,776.773644 480.465869,780.788923 C479.68853,783.530285 478.368487,786.084632 476.585303,788.298009 C476.585303,791.791821 476.585303,794.972755 474.774372,796.172128 C471.204251,798.0494 468.772429,801.491063 466.651053,804.046241 C461.21826,805.923514 458.838179,811.816066 456.147653,814.997 L456.147653,818.699395 C454.957613,822.401796 450.71486,821.88033 450.197451,825.269847 C449.369597,833.613283 449.783524,842.061008 451.284009,850.352294 L453.767572,852.229566 C460.752592,854.211134 468.772429,850.352294 474.308704,853.533228 L476.016153,857.652801 C476.016153,861.928808 476.637044,865.109742 476.637044,869.177166 C478.189271,873.609617 481.138501,874.808984 482.432023,877.885624 C485.381254,879.502169 487.864816,880.127924 489.417043,882.057342 C487.295666,885.133982 489.934452,888.210627 486.674776,889.566433 C486.674776,894.259612 486.002144,897.336257 486.002144,901.090797 C486.674776,904.532465 488.485707,905.210371 489.417043,907.087643 C491.176233,908.860622 492.883682,909.486378 494.177205,910.842189 C496.286488,910.90951 498.318289,911.659125 499.972184,912.98019 C500.593074,916.056835 502.352264,916.734735 503.542305,917.412641 C505.301495,918.612008 505.301495,922.366554 506.491535,923.044459 C508.405948,924.556704 510.113397,926.329688 511.613883,928.259105 C514.666595,930.240672 518.340198,929.562767 520.668538,929.562767 C524.549104,928.259105 523.307323,923.930948 526.929185,923.930948 L528.222708,925.23461 C529.51623,928.989155 530.602788,931.492184 531.171938,934.620974 C535.673395,935.559607 534.483355,939.314153 537.536067,941.191426 C539.916148,941.712892 541.106187,942.390793 543.227564,942.390793 C546.90117,941.712892 547.47032,938.636247 550.419548,939.314153 C556.111047,930.762134 551.040437,919.81138 552.178737,910.842189 C554.300114,908.287011 557.352825,908.860622 559.732908,908.287011 C562.682136,908.860622 566.614447,908.860622 569.046269,908.860622 L570.857197,905.158226 C572.447793,903.81437 574.474224,903.108844 576.548697,903.176659 C585.913797,906.931205 595.589341,903.802415 604.230069,906.931205 C607.541485,906.305443 608.110635,904.428171 610.025046,903.75027 C613.439946,903.75027 617.682701,904.48032 620.838896,903.437392 C620.631929,882.42237 621.252824,865.161892 619.44189,858.069974 L619.44189,858.069974 Z M1185.28022,89.6919085 L1181.60662,86.4588281 L1179.89917,86.4588281 L1176.48427,89.0140044 L1172.91415,89.0140044 C1168.6714,92.6642566 1162.9799,96.2102154 1160.03067,100.538372 C1155.42573,101.842033 1152.4765,102.415644 1150.09642,105.85731 C1150.71731,109.716148 1147.61286,110.915517 1147.61286,113.3664 C1143.1114,114.670062 1143.1114,118.685339 1140.16217,121.240516 C1133.17715,123.117788 1128.36524,126.194429 1122.05286,126.194429 C1119.67278,124.317156 1117.29269,121.240516 1114.86088,120.562611 L1112.7395,119.936854 L1112.11861,116.182309 C1111.46405,113.659821 1110.47187,111.238863 1109.16938,108.986098 C1107.36649,108.140347 1106.04988,106.505722 1105.59926,104.553649 C1102.31921,102.648539 1099.53504,99.9855193 1097.47594,96.7838267 C1094.42322,94.9065539 1090.49092,95.584458 1088.11084,95.584458 C1085.16161,92.6642566 1082.00541,91.4127412 1078.74573,89.0140044 C1070.36371,88.3361003 1060.42946,89.5876151 1052.8753,87.0324388 L1049.9778,83.8515051 C1049.35691,81.7135001 1047.85643,79.2104704 1046.66639,79.2104704 C1045.37286,73.4743599 1043.61367,68.8333252 1042.99279,63.8272648 C1040.6127,63.2015074 1040.6127,59.968427 1040.04355,58.4561799 C1037.35303,57.9347153 1036.16299,56.6831999 1034.24857,56.6831999 C1032.48939,54.1801702 1030.67845,51.7292867 1029.38493,49.1741102 C1028.69018,45.3828191 1026.409,42.0767264 1023.12429,40.1006265 C1020.7442,38.223354 1021.36509,33.4258798 1019.55416,32.2265113 L1017.69185,30.9228498 C1015.00096,29.0455773 1015.57011,25.6039111 1015.00096,23.0487346 C1010.2408,19.9720935 1009.05076,16.2175485 1006.10153,13.4016398 C1003.98016,12.2022712 1003.98016,8.34343333 1002.68664,7.76982228 C1000.92744,5.26679229 996.684692,5.89254978 995.494653,3.07664104 C991.614087,4.01527729 989.234004,2.39873708 986.129548,4.01527729 C984.422104,5.89254978 982.921615,7.19621127 981.058943,7.19621127 C977.701177,4.27136952 973.688072,2.2132972 969.365504,1.19936854 C965.226232,0.57361104 961.811332,1.8772725 958.137732,0 C954.671093,1.8772725 950.169632,1.19936854 947.116921,1.19936854 C943.546799,1.8772725 942.35676,4.01527729 939.562755,4.01527729 C935.992633,4.64103479 935.423483,7.76982228 932.370772,7.76982228 C928.614109,7.71025038 924.878535,8.34656374 921.349961,9.64709477 L920.056439,10.9507563 L919.228583,12.8280288 L915.658461,13.4537863 C913.795794,15.0703265 913.795794,17.5733565 913.1749,18.8248715 C911.46745,20.702144 910.225672,21.9015125 908.104294,21.9015125 L903.24065,22.5794164 C901.429722,25.0824465 900.291422,27.7940623 898.480489,29.7756277 L898.480489,33.3737333 L902.619761,38.7448185 C906.241622,38.7448185 908.983889,39.4227225 911.984861,39.4227225 L913.278383,40.622091 C914.468422,45.05454 912.657494,48.4962063 913.899272,52.2507512 L912.0366,56.0052964 C910.950044,57.3089579 908.207778,60.0205737 907.535144,60.6984772 C907.535144,63.7751187 907.535144,66.9560524 905.775956,68.2075678 L903.913283,69.5112287 C900.96405,74.8823142 899.774011,81.1398893 897.031745,85.1551666 C895.841706,90.7869838 897.031745,95.5323119 894.651661,100.538372 C890.408911,105.231553 885.907456,108.933951 882.958223,113.3664 C881.664701,115.347966 879.284623,115.347966 877.421951,116.182309 C869.350373,116.182309 862.41709,115.347966 855.276851,116.182309 L853.672885,117.485971 C851.292801,123.065642 847.153529,127.133066 846.53264,133.494934 L844.669968,134.798595 C843.11774,140.691145 840.789402,144.44569 840.168513,150.442532 L838.305841,152.215512 C837.115796,159.150991 835.356607,167.025106 835.356607,173.59556 C835.925757,176.776494 837.736691,177.245812 838.305841,179.175231 L839.495879,180.478892 L843.11774,183.294801 C846.366079,183.2588 849.565518,182.492755 852.48284,181.052504 L857.60519,177.297958 L864.797173,177.297958 L868.10859,179.853135 C870.592151,181.730407 872.868751,181.052504 874.731423,181.730407 C878.04284,179.853135 879.336362,176.776494 882.906484,176.776494 L885.286562,172.917656 C887.977089,170.779651 892.219845,170.101747 894.599923,171.353262 L896.462595,175.472833 L900.291422,177.245812 C902.774983,180.426746 904.534172,183.816266 907.586883,184.49417 C909.604778,186.371442 909.604778,188.770179 911.984861,188.770179 C913.278383,191.325355 915.141055,192.00326 915.141055,194.767022 L912.60575,197.426491 C905.568989,196.85288 899.618789,198.730153 893.927289,198.730153 L889.684539,201.806794 L880.371178,201.806794 C875.404056,205.352753 872.92049,210.045934 869.24689,212.91399 C871.52349,213.539747 873.748345,214.113358 875.973206,214.843408 C917.107211,225.220554 862.261868,263.235322 855.380329,297.756277 C879.388101,294.314611 903.395872,297.756277 917.107211,311.575088 C941.114977,332.329379 934.233444,377.227479 910.225672,394.487957 C896.514334,408.306768 865.676768,387.552479 851.965435,401.423436 C803.949891,446.321537 848.550535,511.973928 834.839202,574.184652 L834.011346,578.408514 C845.446079,584.874677 854.035068,589.463567 857.915635,586.126194 C866.866807,578.408514 888.597978,556.454857 889.32235,564.224676 C889.994984,571.942356 911.674417,611.93869 923.160894,560.365842 C928.955872,534.396905 944.840321,527.044254 960.621293,525.062689 C961.604371,522.716098 963.674004,521.881755 965.226232,520.317361 C968.278943,512.547539 973.866959,509.366605 978.782343,505.247035 C979.708168,502.624901 980.904777,500.108056 982.352465,497.737945 L984.473843,496.382137 C986.853926,493.82696 986.233031,489.446658 987.42307,486.943628 L988.613115,485.379234 C991.665826,483.501962 996.167281,484.70133 997.92647,482.824058 L998.599103,480.946785 C1006.5672,476.983654 1013.55222,471.29969 1019.03675,464.259918 L1017.74323,460.244641 C1015.10445,458.94098 1014.43181,457.063707 1012.05174,457.063707 C1009.67165,457.741611 1008.37813,457.063707 1006.72243,457.741611 C1002.11749,457.741611 1000.25481,454.560677 997.357325,454.560677 L995.494653,455.760046 C991.614087,453.987066 989.13052,452.31838 986.129548,452.31838 L982.248982,447.364466 C972.935626,446.738709 965.019271,453.361309 959.896921,458.888833 L956.326799,459.566737 C953.843238,464.937822 949.341782,468.640221 945.77166,471.821155 C943.288099,471.821155 942.201538,470.517493 940.08016,470.517493 L938.217488,466.762948 L941.528905,464.885676 L941.528905,455.7079 C938.439949,451.074991 933.694286,447.824138 928.283238,446.634416 C924.143966,446.008658 918.969883,447.208027 915.296278,446.008658 C913.019678,442.827724 910.536117,440.637573 909.346078,436.830881 C910.536117,433.75424 907.2247,430.573307 910.536117,429.061059 C911.622672,427.757398 914.209717,427.183787 915.865428,427.183787 C918.348989,427.809544 919.849477,428.383155 921.660405,428.383155 C925.334011,427.757398 926.52405,425.984418 928.852388,425.984418 C931.594655,422.803484 934.026477,420.926212 936.40656,418.73606 C935.733927,415.555126 938.165749,415.555126 937.596599,413.156389 C940.289067,407.648645 943.624063,402.484398 947.530849,397.773184 C953.222349,395.47874 956.84421,392.97571 960.414332,391.20273 C961.035221,388.647554 962.535704,387.343892 962.535704,385.46662 C964.294899,382.650711 966.20931,382.024954 966.77846,380.095535 C968.537649,376.393136 969.05506,373.003616 972.107771,370.44844 C974.798298,369.822682 976.09182,369.249071 977.79927,369.249071 C981.47287,368.571167 982.04202,365.494527 985.45692,366.068137 C986.541719,369.169151 987.118409,372.427459 987.16437,375.715232 C984.784287,377.696798 985.353437,381.972807 983.283804,383.224322 L980.33457,385.362327 C976.764448,395.530886 982.818132,407.1074 977.954493,416.180884 L975.470926,418.683914 C975.520601,420.819004 974.905398,422.916141 973.711737,424.680757 C974.901776,428.435302 976.66097,429.061059 977.333598,431.876968 C982.766393,431.876968 985.405176,428.435302 990.217081,427.235933 C991.97627,425.358661 992.597159,423.481388 993.838942,422.177726 L995.856837,422.177726 C997.616026,420.874065 997.616026,418.058156 998.23692,416.806642 L1001.85878,413.104243 C1002.47967,410.549066 1003.66971,409.245405 1003.66971,407.1074 C1006.46372,404.60437 1006.98113,403.352855 1008.17117,401.475583 C1008.8438,398.972552 1010.03384,397.721038 1010.03384,395.583033 C1012.41392,392.349953 1014.794,391.828488 1017.48453,390.524827 C1026.77107,390.951086 1035.85377,387.693873 1042.78582,381.451343 L1042.78582,379.57407 C1044.38939,375.834512 1047.2721,372.799667 1050.90914,371.022051 C1052.72007,368.519021 1050.90914,364.764476 1056.34194,361.948567 L1057.53197,358.194022 C1058.20461,353.761573 1063.32695,352.562205 1063.32695,348.442634 L1063.32695,346.565362 C1063.8961,343.488721 1065.70703,342.810817 1066.27618,340.933544 L1069.22541,337.491878 L1069.22541,335.614606 C1070.7259,331.860061 1071.91594,329.982788 1073.20946,327.74049 C1074.3995,325.863218 1076.77958,325.863218 1078.64226,325.237461 C1087.90387,327.114733 1096.0272,329.252738 1104.7714,327.114733 L1108.44501,324.611703 C1109.53156,321.430769 1111.39423,320.752865 1111.39423,317.363345 C1110.2042,314.860316 1108.34152,314.286704 1108.34152,311.731528 C1112.58428,305.734685 1117.70662,301.302236 1121.94938,297.026226 C1125.26079,291.707288 1126.45083,286.596935 1129.50354,283.155269 C1131.56804,283.365903 1133.53613,284.141278 1135.19504,285.397566 L1136.38508,289.152111 C1138.76517,289.830015 1140.05869,289.830015 1141.81788,289.152111 L1143.00792,287.84845 C1146.31933,282.477365 1144.76711,277.575597 1146.31933,272.204513 C1149.26857,269.023578 1151.18298,265.269033 1153.51132,262.766004 C1151.13124,253.640373 1152.89043,243.941132 1147.97504,237.266386 C1147.97504,230.435199 1142.90444,226.993533 1141.61092,221.88318 C1141.61092,219.484443 1139.85172,215.99063 1139.85172,214.113358 C1141.61092,210.358813 1146.11237,209.733055 1147.97504,207.282172 L1148.59593,203.266895 C1155.78792,199.408057 1163.34209,200.033814 1170.84452,200.711718 C1172.03455,197.530784 1172.70719,196.331416 1174.41464,195.653512 C1176.27731,193.411214 1176.94994,189.656669 1177.82953,187.779397 C1180.20962,167.755156 1175.70816,146.479401 1180.20962,127.863116 L1182.07229,126.298722 C1184.29728,121.356731 1184.04736,115.641095 1181.39965,110.915517 C1182.58969,107.213118 1181.39965,104.657942 1181.39965,101.268422 C1182.08529,99.0855709 1183.35671,97.1364191 1185.07326,95.6366047 C1185.84937,92.7685494 1185.84937,91.4648879 1185.28022,89.6919085 L1185.28022,89.6919085 Z" id="形状" fill="#C7C6CA"></path>
            <path d="M923.10915,560.313697 C911.622672,611.88654 889.943245,571.890206 889.270612,564.172532 C888.597978,556.454857 866.815068,578.356369 857.863896,586.074044 C853.983329,589.411417 845.39434,584.822532 833.959602,578.356369 C821.33483,636.760403 755.003009,574.601824 714.800344,594.834652 C704.503905,598.276314 707.918805,615.588941 701.089011,625.913939 C697.18825,631.885229 690.35838,635.226882 683.290144,634.622397 C686.446339,650.266335 686.808522,670.603452 674.959861,687.863929 C651.935167,721.394106 635.32634,676.28742 622.494601,735.577943 C609.714602,794.868466 640.396951,740.740439 644.225773,770.359631 C648.054601,799.978818 613.750391,836.116312 619.390151,858.017824 C621.201079,865.057598 620.58019,882.37022 620.631929,903.593831 C621.387625,903.381522 622.10408,903.046906 622.753307,902.603048 C624.615979,898.587769 629.220918,897.284107 630.928368,894.885373 C632.22189,891.026533 636.930312,889.514288 637.654684,886.333354 C644.122295,890.296483 650.900351,893.529562 658.040589,896.08474 C660.420673,896.08474 663.835573,895.458984 665.491278,895.458984 L667.35395,896.658352 C668.440511,901.977292 666.163911,907.035494 666.733061,911.36365 C667.9231,914.179562 667.9231,916.682591 669.113139,917.360496 C672.424556,921.740798 676.563828,924.556704 678.943911,928.31125 C681.996622,930.188522 685.980672,929.614911 688.309011,929.614911 C693.4831,932.17009 696.535811,933.995213 701.295972,935.611757 C705.693949,935.611757 708.74666,935.611757 712.523744,934.673118 C716.352571,933.369457 715.162527,929.614911 719.301799,929.614911 C723.699518,929.58351 728.077086,930.216289 732.288765,931.492184 C733.478804,934.047362 735.962365,934.673118 737.359371,936.185369 C741.032971,936.863269 743.413054,936.863269 746.465765,937.48903 L747.293621,938.844836 C747.862771,941.24357 747.862771,944.320215 748.483659,946.562511 L750.346332,948.544078 C750.863743,953.49799 753.916454,956.001019 753.916454,960.068442 C755.106493,962.571476 757.590054,963.822988 758.987059,965.700261 C761.47062,967.003922 764.419853,967.577533 766.230787,968.203289 L767.420826,969.767684 L765.661637,973.000768 L761.988031,973.626524 C759.038804,973.000768 759.038804,971.071346 756.296532,971.071346 C752.157265,973.052913 749.673698,974.25228 745.172243,974.25228 C737.876776,978.684731 732.185282,983.899377 726.855971,988.383973 C727.47686,991.877785 724.113704,993.077152 723.544554,994.954425 C722.92366,999.386876 724.734593,1002.72425 724.734593,1006.58308 L726.286821,1007.88675 C728.04601,1010.38978 727.47686,1012.84066 728.04601,1014.97866 L729.908682,1016.96023 C732.288765,1018.8375 735.237993,1018.26389 737.359371,1018.8375 L738.652893,1020.71478 C741.602121,1021.91414 744.603093,1022.59205 745.689654,1023.89571 L745.793132,1024 L758.417909,1024 C759.50447,1022.12273 763.17807,1022.69634 763.74722,1020.24545 C767.592809,1019.67716 771.237813,1018.15398 774.354103,1015.81301 L776.113292,1011.79773 L780.045603,1009.92046 C783.098314,1005.48801 780.666492,998.969704 781.235642,994.537252 C784.18487,991.095585 786.099286,987.9668 788.427625,986.089528 L792.308192,984.785866 C793.498231,982.282838 793.498231,978.893315 793.498231,977.016042 L791.118153,973.939402 C783.04657,971.227785 776.009814,974.513013 768.86957,971.227785 L768.86957,969.506951 C770.059609,966.58675 774.198881,967.264656 774.81977,965.387383 C774.81977,961.632837 777.872481,959.077664 777.872481,955.635997 C776.682442,951.985745 775.38892,950.004178 774.302364,948.126905 L772.336209,946.927538 L774.302364,943.485871 C776.682442,942.807965 777.872481,942.130065 779.993859,942.130065 C782.943092,941.608598 783.563981,939.731325 785.530136,939.05342 L787.237586,937.176147 C790.675515,936.353355 794.227001,936.124137 797.740986,936.498247 C801.621553,934.36024 803.535964,930.605695 807.106086,929.927789 C809.195946,929.896269 811.229987,929.243175 812.952802,928.050516 L814.660252,924.973877 C820.19653,923.409482 826.974585,924.973877 831.217335,921.532209 C831.786485,918.35128 833.907863,918.35128 833.907863,915.796102 C835.467097,913.205736 838.116621,911.476771 841.099846,911.102922 L846.791346,911.102922 L849.844057,908.704183 C851.034096,906.722616 851.034096,904.271732 852.224135,903.593831 L855.535551,904.897493 C856.208185,907.400521 855.535551,908.652038 856.208185,910.529311 L857.915635,911.207211 C861.58924,910.581456 862.779279,908.704183 865.211101,908.026277 L867.228995,909.22565 C873.282679,907.452666 877.163245,901.455825 882.026889,900.152164 L883.889562,898.327035 C888.287534,895.771862 891.340245,897.649135 894.910367,896.971229 L900.032717,892.695223 C907.328183,893.216684 914.778867,891.339411 919.073361,886.020476 L921.091255,886.020476 C924.661377,883.517442 928.904133,880.388658 928.904133,874.965423 C931.128988,871.210877 936.458299,871.210877 937.648338,867.195604 L943.443321,867.195604 L944.63336,865.996231 C943.960727,862.815297 940.131905,864.118959 940.752794,861.563786 L942.305021,860.260124 C944.685099,859.634363 945.875143,858.382851 947.634332,858.382851 C952.808421,854.367573 953.894977,848.735754 958.137732,846.128431 L961.190443,843.886136 C961.190443,841.383108 960.000404,838.306462 961.190443,836.429189 L963.880971,832.987527 C967.554571,832.361766 969.934654,833.561139 972.883882,832.361766 L976.195298,829.806593 C979.144532,827.251415 979.144532,820.733107 982.197243,818.855834 L985.508659,816.300661 C986.698698,813.745483 985.508659,812.546116 986.698698,810.303815 L987.888742,809.104448 L989.647931,808.478692 L990.941453,807.175031 C992.131492,802.116824 994.511576,799.300912 996.063803,795.546366 C996.063803,789.914548 993.942426,785.169224 995.442909,780.163162 C997.719509,779.537406 997.719509,776.147888 997.719509,774.948516 C999.013031,773.071243 1001.39311,773.071243 1002.58315,772.393343 C1003.87668,769.890309 1003.87668,766.500791 1003.87668,764.519224 C1004.44583,760.816828 1006.5672,759.565311 1006.5672,757.062283 C1007.08461,752.264809 1009.61991,751.065437 1009.61991,747.310897 C1011.99999,741.314051 1015.57011,736.360138 1016.39797,729.685392 C1020.07157,726.608752 1020.64072,722.332739 1023.12429,719.412539 C1026.07351,718.056733 1028.81578,716.90951 1030.57497,715.657993 L1031.76501,713.78072 C1031.76501,707.78388 1028.81578,700.952694 1031.76501,696.155221 L1033.62769,690.575547 C1034.24857,682.023528 1031.76501,674.82732 1030.57497,667.318229 C1025.98864,664.782539 1021.99987,661.278353 1018.88153,657.045376 C1014.38008,656.36747 1009.51643,658.244743 1005.89457,657.045376 L1004.44583,655.741714 L1006.5672,652.300047 L1011.99999,652.300047 C1014.94923,651.622141 1015.57011,649.744868 1017.69149,649.066968 C1021.26161,645.416717 1026.07351,643.487294 1028.24663,639.419871 L1026.12526,634.987425 C1022.78491,633.068665 1019.9192,630.412255 1017.74323,627.2176 C1017.74323,622.837299 1015.05271,618.769876 1013.86266,615.641086 L1010.2408,611.88654 C1008.89225,607.777564 1006.97627,603.880463 1004.54931,600.310026 C1001.49659,594.938941 996.684692,594.938941 994.045909,591.758007 L993.425015,589.880734 C994.615053,580.129348 990.372303,571.629479 989.803154,562.608137 L985.560404,557.54993 C984.991254,554.47329 985.560404,549.780111 983.439026,547.902838 L979.868904,546.025565 C978.109715,541.905995 974.436109,544.148293 971.745582,540.706626 C968.278943,540.028723 963.36356,541.280237 960.621293,538.829354 C959.431254,535.64842 955.861132,536.274178 955.861132,532.519633 C957.620321,529.703723 958.241215,527.200694 960.103887,526.627083 C960.205317,526.084422 960.379376,525.558152 960.621293,525.062689 C944.736843,527.044254 928.904133,534.344759 923.10915,560.313697 L923.10915,560.313697 Z" id="路径" fill="url(#linearGradient-2)"></path>
        </g>
    </g>
</svg>