<?xml version="1.0" encoding="UTF-8"?>
<svg width="1326px" height="1024px" viewBox="0 0 1326 1024" version="1.1" xmlns="http://www.w3.org/2000/svg" xmlns:xlink="http://www.w3.org/1999/xlink">
    <title>编组</title>
    <defs>
        <linearGradient x1="50%" y1="0%" x2="50%" y2="100%" id="linearGradient-1">
            <stop stop-color="#E4E4E6" offset="0%"></stop>
            <stop stop-color="#C9C8CB" offset="100%"></stop>
        </linearGradient>
        <linearGradient x1="50%" y1="0%" x2="50%" y2="100%" id="linearGradient-2">
            <stop stop-color="#E4E4E6" offset="0%"></stop>
            <stop stop-color="#C9C8CB" offset="100%"></stop>
        </linearGradient>
        <linearGradient x1="50%" y1="0%" x2="50%" y2="100%" id="linearGradient-3">
            <stop stop-color="#FEC08B" offset="0%"></stop>
            <stop stop-color="#FA8435" offset="100%"></stop>
        </linearGradient>
        <linearGradient x1="50%" y1="0%" x2="50%" y2="100%" id="linearGradient-4">
            <stop stop-color="#E5E4E6" offset="0%"></stop>
            <stop stop-color="#C7C6CA" offset="100%"></stop>
        </linearGradient>
        <linearGradient x1="50%" y1="0%" x2="50%" y2="100%" id="linearGradient-5">
            <stop stop-color="#FEC08B" offset="0%"></stop>
            <stop stop-color="#F98436" offset="100%"></stop>
        </linearGradient>
    </defs>
    <g id="页面-1" stroke="none" stroke-width="1" fill="none" fill-rule="evenodd">
        <g id="编组" fill-rule="nonzero">
            <polygon id="形状-path" fill="url(#linearGradient-1)" points="0 0 1325.17647 0 1325.17647 255.999999 0 255.999999"></polygon>
            <polygon id="形状-path" fill="url(#linearGradient-2)" points="0 319.999999 265.035295 319.999999 265.035295 1024 0 1024"></polygon>
            <polygon id="路径" fill="url(#linearGradient-3)" points="331.294118 319.999999 1325.17647 319.999999 1325.17647 511.999999 331.294118 511.999999"></polygon>
            <path d="M331.294118,575.999999 L795.105882,575.999999 L795.105882,767.999999 L331.294118,767.999999 L331.294118,575.999999 Z M861.364706,575.999999 L1325.17647,575.999999 L1325.17647,767.999999 L861.364706,767.999999 L861.364706,575.999999 Z" id="形状" fill="url(#linearGradient-4)"></path>
            <path d="M331.294118,832 L795.105882,832 L795.105882,1024 L331.294118,1024 L331.294118,832 Z M861.364706,832 L1325.17647,832 L1325.17647,1024 L861.364706,1024 L861.364706,832 Z" id="形状" fill="url(#linearGradient-5)"></path>
        </g>
    </g>
</svg>