<?xml version="1.0" encoding="UTF-8"?>
<svg width="1252px" height="1024px" viewBox="0 0 1252 1024" version="1.1" xmlns="http://www.w3.org/2000/svg" xmlns:xlink="http://www.w3.org/1999/xlink">
    <title>时间轴</title>
    <defs>
        <linearGradient x1="50%" y1="0%" x2="50%" y2="100%" id="linearGradient-1">
            <stop stop-color="#E5E5E7" offset="0%"></stop>
            <stop stop-color="#C7C6CA" offset="100%"></stop>
        </linearGradient>
        <linearGradient x1="50%" y1="0%" x2="50%" y2="100%" id="linearGradient-2">
            <stop stop-color="#E5E5E7" offset="0%"></stop>
            <stop stop-color="#C7C6CA" offset="100%"></stop>
        </linearGradient>
        <linearGradient x1="50%" y1="0%" x2="50%" y2="100%" id="linearGradient-3">
            <stop stop-color="#FEC08B" offset="0%"></stop>
            <stop stop-color="#FA8334" offset="100%"></stop>
        </linearGradient>
        <linearGradient x1="50%" y1="0%" x2="50%" y2="100%" id="linearGradient-4">
            <stop stop-color="#FEC08B" offset="0%"></stop>
            <stop stop-color="#FA8334" offset="100%"></stop>
        </linearGradient>
    </defs>
    <g id="页面-1" stroke="none" stroke-width="1" fill="none" fill-rule="evenodd">
        <g id="时间轴" fill-rule="nonzero">
            <path d="M625.777778,402.640777 C575.779692,402.640777 533.50726,436.55968 520.679763,482.759566 L363.688692,482.759566 C350.861195,436.55968 308.588762,402.640777 258.590677,402.640777 C208.592593,402.640777 166.320159,436.55968 153.492663,482.759566 L49.9980847,482.759566 C33.9637135,482.759566 20.8446826,495.771559 20.8446826,512.000001 C20.8446826,528.082239 33.9637135,541.240434 49.9980847,541.240434 L153.492663,541.240434 C166.320159,587.440318 208.592593,621.359222 258.590677,621.359222 C308.588762,621.359222 350.861195,587.440318 363.688692,541.240434 L520.679763,541.240434 C533.50726,587.440318 575.779692,621.359222 625.777778,621.359222 C675.775863,621.359222 718.048296,587.440318 730.87579,541.240434 L887.866863,541.240434 C900.694363,587.440318 942.966795,621.359222 992.964881,621.359222 C1042.96296,621.359222 1085.23539,587.440318 1098.06289,541.240434 L1201.55747,541.240434 C1217.59184,541.240434 1230.71088,528.082239 1230.71088,512.000001 C1230.71088,495.771559 1217.59184,482.759566 1201.55747,482.759566 L1098.06289,482.759566 C1085.23539,436.55968 1042.96296,402.640777 992.964881,402.640777 C942.966795,402.640777 900.694363,436.55968 887.866863,482.759566 L730.87579,482.759566 C718.048296,436.55968 675.775863,402.640777 625.777778,402.640777 Z M258.590677,562.878355 C241.39017,562.878355 226.230401,554.252428 217.047079,541.240434 C211.216399,532.906911 207.863757,522.818961 207.863757,512.000001 C207.863757,501.18104 211.216399,491.09309 217.047079,482.759566 C226.230401,469.747573 241.39017,461.121645 258.590677,461.121645 C275.791185,461.121645 290.950954,469.747573 300.134275,482.759566 C305.964956,491.09309 309.317597,501.18104 309.317597,512.000001 C309.317597,522.818961 305.964956,532.906911 300.134275,541.240434 C290.950954,554.252428 275.645418,562.878355 258.590677,562.878355 Z M992.964881,461.121645 C1010.16538,461.121645 1025.32515,469.747573 1034.50848,482.759566 C1040.33915,491.09309 1043.6918,501.18104 1043.6918,512.000001 C1043.6918,522.818961 1040.33915,532.906911 1034.50848,541.240434 C1025.32515,554.252428 1010.16538,562.878355 992.964881,562.878355 C975.764372,562.878355 960.604604,554.252428 951.421281,541.240434 C945.590602,532.906911 942.237958,522.818961 942.237958,512.000001 C942.237958,501.18104 945.590602,491.09309 951.421281,482.759566 C960.604604,469.747573 975.910138,461.121645 992.964881,461.121645 L992.964881,461.121645 Z M676.504695,512.000001 C676.504695,522.818961 673.152057,532.906911 667.321378,541.240434 C658.138055,554.252428 642.978287,562.878355 625.777778,562.878355 C608.577269,562.878355 593.4175,554.252428 584.234177,541.240434 C578.403499,532.906911 575.05086,522.818961 575.05086,512.000001 C575.05086,501.18104 578.403499,491.09309 584.234177,482.759566 C593.4175,469.747573 608.577269,461.121645 625.777778,461.121645 C642.978287,461.121645 658.138055,469.747573 667.321378,482.759566 C673.152057,491.09309 676.504695,501.18104 676.504695,512.000001 Z" id="形状" fill="url(#linearGradient-1)"></path>
            <path d="M244.451277,687.150202 C251.448094,677.354658 265.879028,677.354658 272.875844,687.150202 L272.875844,687.150202 L314.273675,744.753855 L499.689313,744.753855 C509.309936,744.753855 517.181355,752.648774 517.181355,762.298116 L517.181355,762.298116 L517.181355,1006.45574 C517.181355,1016.10508 509.309936,1024 499.543546,1024 L499.543546,1024 L17.4920413,1024 C7.8714186,1024 0,1016.10508 0,1006.45574 L0,1006.45574 L0,762.298116 C0,752.648774 7.8714186,744.753855 17.4920413,744.753855 L17.4920413,744.753855 L203.053446,744.753855 L244.451277,687.150202 Z M337.159096,911.862937 L77.8395836,911.862937 L77.8395836,964.495715 L337.159096,964.495715 L337.159096,911.862937 Z M439.487538,800.749286 L77.8395836,800.749286 L77.8395836,853.382069 L439.487538,853.382069 L439.487538,800.749286 Z" id="形状结合" fill="url(#linearGradient-2)"></path>
            <path d="M978.825478,687.150202 C985.822293,677.354658 1000.25323,677.354658 1007.25005,687.150202 L1007.25005,687.150202 L1048.64788,744.753855 L1234.06351,744.753855 C1243.68414,744.753855 1251.55556,752.648774 1251.55556,762.298116 L1251.55556,762.298116 L1251.55556,1006.45574 C1251.55556,1016.10508 1243.68414,1024 1234.06351,1024 L1234.06351,1024 L752.012009,1024 C742.391387,1024 734.519967,1016.10508 734.519967,1006.45574 L734.519967,1006.45574 L734.519967,762.298116 C734.519967,752.648774 742.391387,744.753855 752.012009,744.753855 L752.012009,744.753855 L937.427649,744.753855 L978.825478,687.150202 Z M1071.53329,911.862937 L812.213783,911.862937 L812.213783,964.495715 L1071.53329,964.495715 L1071.53329,911.862937 Z M1173.86174,800.749286 L812.213783,800.749286 L812.213783,853.382069 L1173.86174,853.382069 L1173.86174,800.749286 Z" id="形状结合" fill="url(#linearGradient-3)"></path>
            <path d="M866.876416,0 C876.497038,0 884.368452,7.8949172 884.226621,17.5442605 L884.226621,17.5442605 L884.226621,261.701885 C884.226621,271.351228 876.351272,279.246145 866.73065,279.246145 L866.73065,279.246145 L681.315009,279.246145 L639.917175,336.8498 C632.92036,346.645346 618.489429,346.645346 611.492608,336.8498 L611.492608,336.8498 L570.09478,279.246145 L384.679142,279.246145 C375.058519,279.246145 367.1871,271.351228 367.1871,261.701885 L367.1871,261.701885 L367.1871,17.5442605 C367.1871,7.8949172 375.058519,0 384.679142,0 L384.679142,0 L866.876416,0 Z M806.674637,170.617933 L445.026684,170.617933 L445.026684,223.250714 L806.674637,223.250714 L806.674637,170.617933 Z M704.346197,59.3580811 L445.026684,59.3580811 L445.026684,111.990863 L704.346197,111.990863 L704.346197,59.3580811 Z" id="形状结合" fill="url(#linearGradient-4)"></path>
        </g>
    </g>
</svg>