<?xml version="1.0" encoding="UTF-8"?>
<svg width="13px" height="13px" viewBox="0 0 13 13" version="1.1" xmlns="http://www.w3.org/2000/svg" xmlns:xlink="http://www.w3.org/1999/xlink">
    <g id="页面-1" stroke="none" stroke-width="1" fill="none" fill-rule="evenodd">
        <g id="上传文件" transform="translate(-223.000000, -493.000000)" fill="#000000" fill-rule="nonzero">
            <g id="send-to-back" transform="translate(223.000000, 493.000000)">
                <rect id="矩形" opacity="0" x="0" y="0" width="13" height="13"></rect>
                <g id="运行异常" transform="translate(0.812500, 0.812500)" fill-opacity="0.6">
                    <path d="M5.6875,0 C8.82861951,0 11.375,2.54638049 11.375,5.6875 C11.375,8.82861951 8.82861951,11.375 5.6875,11.375 C2.54638049,11.375 0,8.82861951 0,5.6875 C0,2.54638049 2.54638049,0 5.6875,0 Z M5.6875,0.965453125 C3.11152588,1.01015476 1.04668525,3.11113805 1.04668525,5.6875 C1.04668525,8.26386195 3.11152588,10.3648452 5.6875,10.4095469 C8.26347412,10.3648452 10.3283147,8.26386195 10.3283147,5.6875 C10.3283147,3.11113805 8.26347412,1.01015476 5.6875,0.965453125 Z M5.6875,7.31270312 C5.90517244,7.31270312 6.10631007,7.42882997 6.2151463,7.61733984 C6.32398252,7.8058497 6.32398252,8.03810343 6.2151463,8.22661329 C6.10631007,8.41512315 5.90517244,8.53125 5.6875,8.53125 C5.35100757,8.53125 5.07822656,8.25846899 5.07822656,7.92197656 C5.07822656,7.58548413 5.35100757,7.31270312 5.6875,7.31270312 L5.6875,7.31270312 Z M5.99249219,2.84375 C6.04794531,2.84375 6.09344531,2.88925 6.09344531,2.94541406 L6.09344531,6.3984375 C6.09344531,6.45430854 6.04836186,6.49971086 5.99249219,6.50010156 L5.38179688,6.50010156 C5.32648402,6.4989409 5.28225345,6.45376253 5.28226562,6.3984375 L5.28226562,2.94541406 C5.28226562,2.88925 5.32776563,2.84375 5.38321875,2.84375 L5.99320313,2.84375 L5.99249219,2.84375 Z" id="形状"></path>
                </g>
            </g>
        </g>
    </g>
</svg>