<?xml version="1.0" encoding="UTF-8"?>
<svg width="12px" height="12px" viewBox="0 0 12 12" version="1.1" xmlns="http://www.w3.org/2000/svg" xmlns:xlink="http://www.w3.org/1999/xlink">
    <g id="页面-1" stroke="none" stroke-width="1" fill="none" fill-rule="evenodd">
        <g id="数据集管理/参数设置/弹窗" transform="translate(-1052.000000, -536.000000)" fill="#0A95FC" fill-rule="nonzero">
            <g id="编组" transform="translate(1037.000000, 457.000000)">
                <path d="M15.8572771,83.2859518 L15.8572771,90.143012 L26.143012,90.143012 L26.143012,80.7144096 L24.4286024,80.7144096 L24.4286024,81.1430482 C24.4286024,81.2680979 24.388413,81.3707398 24.3080343,81.4511186 C24.2276555,81.5314973 24.1250136,81.5716867 24.0001084,81.5716867 C23.8750587,81.5716867 23.7724168,81.5314973 23.692038,81.4511186 C23.6116593,81.3707398 23.5714699,81.2680979 23.5714699,81.1430482 L23.5714699,80.7144096 L18.4286747,80.7144096 L18.4286747,81.1430482 C18.4286747,81.2680979 18.3884853,81.3707398 18.3081065,81.4511186 C18.2277278,81.5314973 18.1250858,81.5716867 18.0000361,81.5716867 C17.8749864,81.5716867 17.7723445,81.5314973 17.6919657,81.4511186 C17.611587,81.3707398 17.5713976,81.2680979 17.5713976,81.1430482 L17.5713976,80.7144096 L15.8572771,80.7144096 L15.8572771,82.4286747 L26.143012,82.4286747 L26.143012,83.2858072 L15.8572771,83.2859518 Z M23.5714699,79.8574217 L23.5714699,79.4287831 C23.5714699,79.3037334 23.6116593,79.2010915 23.692038,79.1207127 C23.7724168,79.0403339 23.8750587,79.0001446 24.0001084,79.0001446 C24.1251581,79.0001446 24.2278001,79.0403339 24.3081788,79.1207127 C24.3885576,79.2010915 24.4286024,79.3037334 24.4286024,79.4287831 L24.4286024,79.8574217 L26.571506,79.8574217 C26.6965557,79.8574217 26.7991977,79.897611 26.8795764,79.9779898 C26.9599552,80.0583686 27,80.1610105 27,80.2860602 L27,90.5717951 C27,90.6968448 26.9598106,90.7994868 26.8795764,90.8798656 C26.7991977,90.9602443 26.6965557,91.0002891 26.571506,91.0002891 L15.4286385,91.0002891 C15.3035889,91.0002891 15.2009469,90.9600998 15.1205681,90.8798656 C15.0401894,90.7994868 15,90.6968448 15,90.5717951 L15,80.2859156 C15,80.160866 15.0401894,80.058224 15.1205681,79.9778452 C15.2009469,79.8974665 15.3035889,79.8572771 15.4286385,79.8572771 L17.5715422,79.8572771 L17.5715422,79.4286385 C17.5715422,79.3035889 17.6117315,79.2009469 17.6921103,79.1205681 C17.7724891,79.0401894 17.875131,79 18.0001807,79 C18.1252304,79 18.2278723,79.0401894 18.3082511,79.1205681 C18.3886299,79.2009469 18.4288193,79.3035889 18.4288193,79.4286385 L18.4288193,79.8574217 L23.5714699,79.8574217 Z M18.0000361,85.0002168 L18.8571687,85.0002168 C18.9822184,85.0002168 19.0848603,85.0404062 19.1652391,85.1206404 C19.2456178,85.2010192 19.2858072,85.3036611 19.2858072,85.4287108 C19.2858072,85.5537605 19.2456178,85.6564025 19.1652391,85.7367812 C19.0848603,85.81716 18.9822184,85.8572048 18.8571687,85.8572048 L18.0000361,85.8572048 C17.8749864,85.8572048 17.7723445,85.8170154 17.6919657,85.7367812 C17.611587,85.6564025 17.5713976,85.5537605 17.5713976,85.4287108 C17.5713976,85.3036611 17.611587,85.2010192 17.6919657,85.1206404 C17.7723445,85.0404062 17.875131,85.0002168 18.0000361,85.0002168 Z M18.0000361,87.5716144 L18.8571687,87.5716144 C18.9822184,87.5716144 19.0848603,87.6118038 19.1652391,87.692038 C19.2456178,87.7724168 19.2858072,87.8750587 19.2858072,88.0001084 C19.2858072,88.1251581 19.2456178,88.2278001 19.1652391,88.3081788 C19.0848603,88.3885576 18.9822184,88.4286024 18.8571687,88.4286024 L18.0000361,88.4286024 C17.8749864,88.4286024 17.7723445,88.388413 17.6919657,88.3081788 C17.611587,88.2278001 17.5713976,88.1251581 17.5713976,88.0001084 C17.5713976,87.8750587 17.611587,87.7724168 17.6919657,87.692038 C17.7723445,87.6118038 17.875131,87.5716144 18.0000361,87.5716144 Z M20.5715783,85.0002168 L21.4287108,85.0002168 C21.5537605,85.0002168 21.6564025,85.0404062 21.7367812,85.1206404 C21.81716,85.2010192 21.8573494,85.3036611 21.8573494,85.4287108 C21.8573494,85.5537605 21.81716,85.6564025 21.7367812,85.7367812 C21.6564025,85.81716 21.5537605,85.8572048 21.4287108,85.8572048 L20.5715783,85.8572048 C20.4465286,85.8572048 20.3438867,85.8170154 20.2635079,85.7367812 C20.1831291,85.6564025 20.1429398,85.5537605 20.1429398,85.4287108 C20.1429398,85.3036611 20.1831291,85.2010192 20.2635079,85.1206404 C20.3438867,85.0404062 20.4465286,85.0002168 20.5715783,85.0002168 L20.5715783,85.0002168 Z M20.5715783,87.5716144 L21.4287108,87.5716144 C21.5537605,87.5716144 21.6564025,87.6118038 21.7367812,87.692038 C21.81716,87.7724168 21.8573494,87.8750587 21.8573494,88.0001084 C21.8573494,88.1251581 21.81716,88.2278001 21.7367812,88.3081788 C21.6564025,88.3885576 21.5537605,88.4286024 21.4287108,88.4286024 L20.5715783,88.4286024 C20.4465286,88.4286024 20.3438867,88.388413 20.2635079,88.3081788 C20.1831291,88.2278001 20.1429398,88.1251581 20.1429398,88.0001084 C20.1429398,87.8750587 20.1831291,87.7724168 20.2635079,87.692038 C20.3438867,87.6118038 20.4465286,87.5716144 20.5715783,87.5716144 L20.5715783,87.5716144 Z M23.1429759,85.0002168 L24.0001084,85.0002168 C24.1251581,85.0002168 24.2278001,85.0404062 24.3080343,85.1206404 C24.388413,85.2010192 24.4286024,85.3036611 24.4286024,85.4287108 C24.4286024,85.5537605 24.388413,85.6564025 24.3080343,85.7367812 C24.2276555,85.81716 24.1250136,85.8572048 24.0001084,85.8572048 L23.1429759,85.8572048 C23.0179262,85.8572048 22.9152843,85.8170154 22.8349055,85.7367812 C22.7545267,85.6564025 22.7143373,85.5537605 22.7143373,85.4287108 C22.7143373,85.3036611 22.7545267,85.2010192 22.8349055,85.1206404 C22.9152843,85.0404062 23.0179262,85.0002168 23.1429759,85.0002168 Z M23.1429759,87.5716144 L24.0001084,87.5716144 C24.1251581,87.5716144 24.2278001,87.6118038 24.3080343,87.692038 C24.388413,87.7724168 24.4286024,87.8750587 24.4286024,88.0001084 C24.4286024,88.1251581 24.388413,88.2278001 24.3080343,88.3081788 C24.2276555,88.3885576 24.1250136,88.4286024 24.0001084,88.4286024 L23.1429759,88.4286024 C23.0179262,88.4286024 22.9152843,88.388413 22.8349055,88.3081788 C22.7545267,88.2278001 22.7143373,88.1251581 22.7143373,88.0001084 C22.7143373,87.8750587 22.7545267,87.7724168 22.8349055,87.692038 C22.9152843,87.6118038 23.0179262,87.5716144 23.1429759,87.5716144 Z" id="形状备份"></path>
            </g>
        </g>
    </g>
</svg>