<?xml version="1.0" encoding="UTF-8"?>
<svg width="16px" height="16px" viewBox="0 0 16 16" version="1.1" xmlns="http://www.w3.org/2000/svg" xmlns:xlink="http://www.w3.org/1999/xlink">
    <g id="页面-1" stroke="none" stroke-width="1" fill="none" fill-rule="evenodd">
        <g id="数据集管理/参数设置/弹窗" transform="translate(-1379.000000, -207.000000)">
            <g id="编组-61备份-2" transform="translate(880.000000, 50.000000)">
                <g id="编组备份-2" transform="translate(499.000000, 157.000000)">
                    <rect id="矩形" x="0" y="0" width="16" height="16"></rect>
                    <path d="M11.168335,1.1953125 C11.4137948,1.1953125 11.6179433,1.37218766 11.6602793,1.60543687 L11.668335,1.6953125 L11.6682383,3.6883125 L14.0438232,3.68859863 C14.3199656,3.68859863 14.5438232,3.91245626 14.5438232,4.18859863 C14.5438232,4.43405852 14.3669481,4.638207 14.1336989,4.68054296 L14.0438232,4.68859863 L13.3202383,4.6883125 L12.6644831,14.4217213 C12.6487406,14.6550374 12.4746828,14.8420357 12.25143,14.8807104 L12.1656173,14.8880615 L3.59216309,14.8880615 C3.35484305,14.8880615 3.1547394,14.7223269 3.10436869,14.498193 L3.09271816,14.411615 L2.63323828,4.6883125 L1.71923828,4.68859863 C1.44309591,4.68859863 1.21923828,4.46474101 1.21923828,4.18859863 C1.21923828,3.94313874 1.39611344,3.73899026 1.62936265,3.6966543 L1.71923828,3.68859863 L4.23723828,3.6883125 L4.23779297,1.6953125 C4.23779297,1.44985261 4.41466813,1.24570413 4.64791734,1.20336817 L4.73779297,1.1953125 L11.168335,1.1953125 Z M12.3182383,4.6883125 L3.63423828,4.6883125 L4.069,13.888 L11.697,13.888 L12.3182383,4.6883125 Z M5.81462363,5.69885254 C6.06008352,5.69885254 6.264232,5.8757277 6.30656796,6.10897691 L6.31462363,6.19885254 L6.31462363,11.7283936 C6.31462363,12.0045359 6.090766,12.2283936 5.81462363,12.2283936 C5.56916374,12.2283936 5.36501526,12.0515184 5.3226793,11.8182692 L5.31462363,11.7283936 L5.31462363,6.19885254 C5.31462363,5.92271016 5.53848125,5.69885254 5.81462363,5.69885254 Z M8,5.69885254 C8.24545989,5.69885254 8.44960837,5.8757277 8.49194433,6.10897691 L8.5,6.19885254 L8.5,11.7283936 C8.5,12.0045359 8.27614237,12.2283936 8,12.2283936 C7.75454011,12.2283936 7.55039163,12.0515184 7.50805567,11.8182692 L7.5,11.7283936 L7.5,6.19885254 C7.5,5.92271016 7.72385763,5.69885254 8,5.69885254 Z M10,5.69885254 C10.2454599,5.69885254 10.4496084,5.8757277 10.4919443,6.10897691 L10.5,6.19885254 L10.5,11.7283936 C10.5,12.0045359 10.2761424,12.2283936 10,12.2283936 C9.75454011,12.2283936 9.55039163,12.0515184 9.50805567,11.8182692 L9.5,11.7283936 L9.5,6.19885254 C9.5,5.92271016 9.72385763,5.69885254 10,5.69885254 Z M10.668,2.196 L5.237,2.196 L5.23723828,3.6883125 L10.6682383,3.6883125 L10.668,2.196 Z" id="形状" fill="#656766" fill-rule="nonzero"></path>
                </g>
            </g>
        </g>
    </g>
</svg>