<?xml version="1.0" encoding="UTF-8"?>
<svg width="20px" height="20px" viewBox="0 0 20 20" version="1.1" xmlns="http://www.w3.org/2000/svg" xmlns:xlink="http://www.w3.org/1999/xlink">
    <title>添加字段</title>
    <g id="页面-1" stroke="none" stroke-width="1" fill="none" fill-rule="evenodd">
        <g id="数据集管理/关闭气泡" transform="translate(-16.000000, -337.000000)">
            <g id="添加字段" transform="translate(16.000000, 337.000000)">
                <rect id="矩形" x="0" y="0" width="20" height="20"></rect>
                <g id="编组-8" transform="translate(1.000000, 1.000000)">
                    <circle id="椭圆形" fill="#B6C2D7" cx="9" cy="9" r="9"></circle>
                    <g id="总表数" transform="translate(3.000000, 3.000000)" fill-rule="nonzero">
                        <rect id="矩形" opacity="0" x="0" y="0" width="12" height="12"></rect>
                        <path d="M9.85714286,1.38 C10.7092393,1.38 11.4,2.07076067 11.4,2.92285714 L11.4,9.09428571 C11.4,9.94638219 10.7092393,10.6371429 9.85714286,10.6371429 L2.14285714,10.6371429 C1.29076067,10.6371429 0.6,9.94638219 0.6,9.09428571 L0.6,2.92285714 C0.6,2.07076067 1.29076067,1.38 2.14285714,1.38 L9.85714286,1.38 Z M3.68571429,8.32285714 L1.37142857,8.32285714 L1.37142857,9.09428571 C1.37148016,9.48538058 1.6641912,9.81455619 2.0526,9.86031429 L2.14285714,9.86571429 L3.68571429,9.86571429 L3.68571429,8.32285714 Z M7.15714286,8.32285714 L4.45714286,8.32285714 L4.45714286,9.86571429 L7.15714286,9.86571429 L7.15714286,8.32285714 Z M10.6285714,8.32285714 L7.92857143,8.32285714 L7.92857143,9.86571429 L9.85714286,9.86571429 C10.2482377,9.86566269 10.5774133,9.57295166 10.6231714,9.18454286 L10.6285714,9.09428571 L10.6285714,8.32285714 Z M3.68571429,6.00857143 L1.37142857,6.00857143 L1.37142857,7.55142857 L3.68571429,7.55142857 L3.68571429,6.00857143 Z M7.15714286,6.00857143 L4.45714286,6.00857143 L4.45714286,7.55142857 L7.15714286,7.55142857 L7.15714286,6.00857143 Z M10.6285714,6.00857143 L7.92857143,6.00857143 L7.92857143,7.55142857 L10.6285714,7.55142857 L10.6285714,6.00857143 Z M9.85714286,2.15142857 L2.14285714,2.15142857 C1.75176227,2.15148016 1.42258667,2.4441912 1.37682857,2.8326 L1.37142857,2.92285714 L1.37142857,5.23714286 L10.6285714,5.23714286 L10.6285714,2.92285714 C10.6285714,2.53176227 10.3358088,2.20258667 9.9474,2.15682857 L9.85714286,2.15142857 Z" id="形状" fill="#FFFFFF"></path>
                    </g>
                </g>
            </g>
        </g>
    </g>
</svg>