<?xml version="1.0" encoding="UTF-8"?>
<svg width="14px" height="12px" viewBox="0 0 14 12" version="1.1" xmlns="http://www.w3.org/2000/svg" xmlns:xlink="http://www.w3.org/1999/xlink">
    <g id="页面-1" stroke="none" stroke-width="1" fill="none" fill-rule="evenodd">
        <g id="配置/字段选项/选择数据集" transform="translate(-1134.000000, -264.000000)" fill="#DEE1E7" fill-rule="nonzero">
            <g id="编组-163" transform="translate(1103.000000, 108.000000)">
                <g id="编组-2" transform="translate(16.000000, 152.000000)">
                    <g id="编组-5备份" transform="translate(15.000000, 0.000000)">
                        <g id="文件夹-(1)" transform="translate(0.000000, 4.000000)">
                            <path d="M6.68571428,1 L11.3142857,1 C11.6914286,1 12,1.27692307 12,1.61538461 L12,2.38461539 C12,2.72307693 11.6914286,3 11.3142857,3 L6.68571428,3 C6.30857142,3 6,2.72307693 6,2.38461539 L6,1.61538461 C6,1.27692307 6.30857142,1 6.68571428,1 Z" id="路径"></path>
                            <path d="M12.6,12 L1.4,12 C0.629999992,12 0,11.3647059 0,10.5882353 L0,1.4117647 C0,0.635294109 0.630000004,0 1.4,0 L5.425,0 C6.38749999,0.264705879 6.195,0.758823527 6.82500001,1.4117647 L7.2625,2.11764705 L12.6,2.11764705 C13.37,2.11764705 14,2.75294118 14,3.52941177 L14,10.5882353 C14,11.3647059 13.37,12 12.6,12 Z" id="路径"></path>
                        </g>
                    </g>
                </g>
            </g>
        </g>
    </g>
</svg>