<?xml version="1.0" encoding="UTF-8"?>
<svg width="22px" height="18px" viewBox="0 0 22 18" version="1.1" xmlns="http://www.w3.org/2000/svg" xmlns:xlink="http://www.w3.org/1999/xlink">
    <title>编组 98</title>
    <defs>
        <linearGradient x1="50%" y1="0%" x2="50%" y2="100%" id="linearGradient-1">
            <stop stop-color="#E4E3E7" offset="0%"></stop>
            <stop stop-color="#C7C6CA" offset="100%"></stop>
        </linearGradient>
        <linearGradient x1="50%" y1="0%" x2="50%" y2="100%" id="linearGradient-2">
            <stop stop-color="#FEBF8A" offset="0%"></stop>
            <stop stop-color="#FA8435" offset="100%"></stop>
        </linearGradient>
        <linearGradient x1="50%" y1="0%" x2="50%" y2="100%" id="linearGradient-3">
            <stop stop-color="#FEBE89" stop-opacity="0.989319274" offset="0%"></stop>
            <stop stop-color="#FA8536" offset="100%"></stop>
        </linearGradient>
    </defs>
    <g id="页面-1" stroke="none" stroke-width="1" fill="none" fill-rule="evenodd">
        <g id="页面设置/主题" transform="translate(-16.000000, -67.000000)">
            <g id="编组-3" transform="translate(16.000000, 67.000000)">
                <g id="编组-130备份-6" stroke="url(#linearGradient-1)">
                    <rect id="矩形" x="0.5" y="0.5" width="21" height="16.6"></rect>
                </g>
                <g id="编组" transform="translate(4.000000, 3.000000)" fill-rule="nonzero">
                    <path d="M10.4,1.20421053 L12.35,1.20421053 C12.7089851,1.20421053 13,1.47378224 13,1.80631579 L13,5.72 L11.7,5.72 L11.7,4.21473684 L1.3,4.21473684 L1.3,10.8378947 L6.5,10.8378947 L6.5,12.0421053 L0.64999999,12.0421053 C0.291014906,12.0421053 0,11.7725335 0,11.44 L0,1.80631579 C0,1.47378224 0.291014912,1.20421054 0.64999999,1.20421053 L2.59999999,1.20421053 L2.59999999,0 L4.54999999,0 L4.54999999,1.20421053 L8.44999999,1.20421053 L8.44999999,0 L10.4,0 L10.4,1.20421053 Z M2.59999999,7.22526315 L2.59999999,5.41894736 L4.54999999,5.41894736 L4.54999999,7.22526315 L2.59999999,7.22526315 Z M5.85,7.22526315 L5.85,5.41894736 L7.8,5.41894736 L7.8,7.22526315 L5.85,7.22526315 L5.85,7.22526315 Z M2.59999999,9.63368421 L2.59999999,7.82736842 L4.54999999,7.82736842 L4.54999999,9.63368421 L2.59999999,9.63368421 Z" id="形状" fill="url(#linearGradient-2)"></path>
                    <path d="M9.00000001,9.26315789 L13,9.26315789 L13,7.41052632 L9.00000001,7.41052632 L9.00000001,9.26315789 Z M8.5,6.48421053 L13.5,6.48421053 C13.7761424,6.48421053 14,6.69157338 14,6.94736842 L14,10.1894737 C14,10.4452687 13.7761424,10.6526316 13.5,10.6526316 L8.5,10.6526316 C8.22385763,10.6526316 8,10.4452687 8,10.1894737 L8,6.94736842 C8,6.69157338 8.22385763,6.48421053 8.5,6.48421053 L8.5,6.48421053 Z M9.5,12.0421053 L9.5,11.1157895 L12.75,11.1157895 L12.75,12.0421053 L9.5,12.0421053 L9.5,12.0421053 Z" id="形状备份-3" fill="url(#linearGradient-3)"></path>
                </g>
            </g>
        </g>
    </g>
</svg>