<?xml version="1.0" encoding="UTF-8"?>
<svg width="17px" height="17px" viewBox="0 0 17 17" version="1.1" xmlns="http://www.w3.org/2000/svg" xmlns:xlink="http://www.w3.org/1999/xlink">
    <title>形状结合</title>
    <g id="页面-1" stroke="none" stroke-width="1" fill="none" fill-rule="evenodd">
        <g id="页面设置/主题" transform="translate(-127.000000, -65.000000)" fill="#CFD6E5">
            <path d="M144,65 L144,82 L127,82 L127,65 L144,65 Z M140.086207,76.5193868 L139.378883,76.8633595 L139.945711,78.0309286 C140.01093,78.1670462 140.148438,78.2536948 140.299373,78.2537841 C140.358009,78.2530853 140.41582,78.2398714 140.468937,78.2150266 C140.56362,78.1710239 140.636545,78.0906815 140.671198,77.992192 C140.705852,77.8937025 140.699303,77.7853972 140.653035,77.6918006 L140.653035,77.6918006 L140.086207,76.5193868 Z M134.776432,77.0329235 L131.49658,77.0329235 C131.222327,77.0329235 131,77.25525 131,77.5295037 C131,77.8037574 131.222327,78.0260839 131.49658,78.0260839 L131.49658,78.0260839 L134.776432,78.0260839 L134.776432,77.0329235 Z M139.094351,71.3006036 C138.121607,70.8982115 137.002235,71.1216824 136.258566,71.8667385 C135.514898,72.6117945 135.293514,73.731581 135.697718,74.703574 C136.101923,75.6755669 137.052045,76.308181 138.104731,76.3062252 C139.53966,76.3035486 140.701482,75.1395567 140.701482,73.7046248 C140.701482,72.651937 140.067096,71.7029957 139.094351,71.3006036 Z M138.104731,71.7861295 C139.174989,71.7861295 140.042605,72.6537453 140.042605,73.7240035 C140.042605,74.7942618 139.174989,75.6618776 138.104731,75.6618776 C137.034472,75.6618776 136.166857,74.7942618 136.166857,73.7240035 C136.166857,72.6537453 137.034472,71.7861295 138.104731,71.7861295 Z M134.776432,74.0146846 L131.49658,74.0146846 C131.222327,74.0146846 131,74.2370112 131,74.5112649 C131,74.7855185 131.222327,75.0078451 131.49658,75.0078451 L131.49658,75.0078451 L134.776432,75.0078451 L134.776432,74.0146846 Z M134.776432,71.0012905 L131.49658,71.0012905 C131.222327,71.0012905 131,71.2236171 131,71.4978707 C131,71.7721244 131.222327,71.994451 131.49658,71.994451 L131.49658,71.994451 L134.776432,71.994451 L134.776432,71.0012905 Z M140.232392,68.001218 L140.144343,68.0024304 L131.545027,68.0024304 C131.263858,68.0289688 131.04902,68.2650384 131.04902,68.5474575 C131.04902,68.8298767 131.263858,69.0659462 131.545027,69.0924846 L131.545027,69.0924846 L140.144343,69.0924846 C140.351331,69.1120213 140.551523,69.0126222 140.661073,68.8359173 C140.770623,68.6592125 140.770623,68.4357025 140.661073,68.2589977 C140.551523,68.0822929 140.351331,67.9828937 140.144343,68.0024304 Z" id="形状结合"></path>
        </g>
    </g>
</svg>