<svg t="1653551740713" class="icon" viewBox="0 0 1024 1024" version="1.1" xmlns="http://www.w3.org/2000/svg" p-id="4009" width="200" height="200"><path d="M931.413333 578.133333a389.632 389.632 0 0 0 0-132.096l79.104-64a35.328 35.328 0 0 0 11.178667-40.277333l-1.024-2.901333a501.333333 501.333333 0 0 0-96.256-157.610667l-2.218667-2.474667a40.192 40.192 0 0 0-42.325333-10.837333l-98.133333 33.024a431.786667 431.786667 0 0 0-120.32-65.792L642.304 37.973333a37.717333 37.717333 0 0 0-31.146667-29.354666L608 8.021333a575.658667 575.658667 0 0 0-192 0l-3.242667 0.597334a37.717333 37.717333 0 0 0-31.146666 29.354666L362.496 135.68c-43.264 15.530667-83.541333 37.546667-119.466667 65.621333l-98.901333-33.28a40.106667 40.106667 0 0 0-42.325333 10.837334l-2.218667 2.474666A503.978667 503.978667 0 0 0 3.413333 338.773333l-1.024 2.901334a35.413333 35.413333 0 0 0 11.178667 40.277333l80.042667 64.682667a381.184 381.184 0 0 0 0 130.56l-80.042667 64.682666a35.328 35.328 0 0 0-11.178667 40.192l1.024 2.986667a502.613333 502.613333 0 0 0 96.256 157.610667l2.218667 2.389333a40.192 40.192 0 0 0 42.325333 10.837333l98.901334-33.28c35.925333 28.074667 76.202667 50.176 119.466666 65.706667l19.114667 97.536c2.901333 14.933333 15.36 26.624 31.146667 29.354667l3.242666 0.597333a572.245333 572.245333 0 0 0 192 0l3.242667-0.597333a37.717333 37.717333 0 0 0 31.146667-29.354667l18.944-97.109333c43.690667-15.616 84.138667-37.632 120.32-65.877334l98.133333 33.024a40.106667 40.106667 0 0 0 42.410667-10.837333l2.218666-2.389333a503.978667 503.978667 0 0 0 96.256-157.610667l1.024-2.986667a35.242667 35.242667 0 0 0-11.178666-40.021333l-79.104-64zM845.653333 459.52a306.602667 306.602667 0 0 1 0 105.386667l-7.936 45.824 90.197334 73.045333c-13.653333 29.866667-30.890667 57.941333-51.456 84.053333l-112.042667-37.546666-37.888 29.44a342.442667 342.442667 0 0 1-95.744 52.394666l-45.994667 16.298667-21.589333 110.933333a481.28 481.28 0 0 1-102.656 0l-21.589333-111.104-45.653334-16.64A342.784 342.784 0 0 1 298.325333 759.466667l-37.888-29.610667-112.810666 37.973333a426.922667 426.922667 0 0 1-51.456-84.138666l91.221333-73.728-7.850667-45.653334a311.893333 311.893333 0 0 1 0-104.106666l7.850667-45.653334-91.221333-73.728c13.653333-29.866667 30.976-57.941333 51.456-84.053333l112.810666 37.888 37.888-29.610667c28.586667-22.186667 60.586667-39.850667 94.976-52.224l45.738667-16.298666L460.8 85.333333A481.28 481.28 0 0 1 563.2 85.333333l21.674667 110.848 45.994666 16.384c34.645333 12.288 66.816 29.866667 95.658667 52.309334l37.973333 29.525333 112.042667-37.632c20.48 26.197333 37.632 54.357333 51.370667 84.138667L837.973333 413.866667l7.765334 45.653333zM512.085333 299.52c-117.333333 0-212.48 90.112-212.48 201.130667 0 111.104 95.146667 201.216 212.48 201.216 117.418667 0 212.48-90.112 212.48-201.216 0-111.018667-95.061333-201.130667-212.48-201.130667z m95.573334 291.669333c-25.514667 24.149333-59.477333 37.546667-95.573334 37.546667-36.096 0-69.973333-13.397333-95.573333-37.546667a124.245333 124.245333 0 0 1-39.594667-90.453333c0-34.218667 14.08-66.304 39.594667-90.538667 25.6-24.234667 59.477333-37.546667 95.573333-37.546666 36.096 0 70.058667 13.312 95.573334 37.546666 25.6 24.234667 39.68 56.32 39.68 90.453334s-14.165333 66.304-39.594667 90.538666z" fill="#9599A1" p-id="4010"></path></svg>