<?xml version="1.0" encoding="UTF-8"?>
<svg width="21px" height="20px" viewBox="0 0 21 20" version="1.1" xmlns="http://www.w3.org/2000/svg" xmlns:xlink="http://www.w3.org/1999/xlink">
    <title>形状@2x</title>
    <g id="页面-1" stroke="none" stroke-width="1" fill="none" fill-rule="evenodd">
        <g id="页面设置/主题" transform="translate(-676.000000, -64.000000)" fill="#C7C6CA" fill-rule="nonzero">
            <path d="M681.003475,68.9971429 L681.003475,64 L676,64 L676,69 L681.003475,68.9971429 Z M683.505212,83.9971429 L688.508687,83.9971429 L688.508687,79 L683.505212,79 L683.505212,84 L683.505212,83.9971429 Z M676,83.9971429 L681.003475,83.9971429 L681.003475,79 L676,79 L676,84 L676,83.9971429 Z M676,76.4971429 L681.003475,76.4971429 L681.003475,71.4971429 L676,71.4971429 L676,76.4971429 Z M683.505212,76.4971429 L688.508687,76.4971429 L688.508687,71.4971429 L683.505212,71.4971429 L683.505212,76.4971429 Z M691.010424,68.9971429 L696.013899,68.9971429 L696.013899,64 L691.010424,64 L691.010424,68.9971429 L691.010424,68.9971429 Z M688.508687,68.9971429 L688.508687,64 L683.505212,64 L683.505212,69 L688.508687,68.9971429 L688.508687,68.9971429 Z M696.013899,76.4971429 L696.013899,71.4971429 L691.010424,71.4971429 L691.010424,76.4971429 L696.013899,76.4971429 Z M696.013899,83.9971429 L696.013899,79 L691.010424,79 L691.010424,84 L696.013899,84 L696.013899,83.9971429 Z" id="形状"></path>
        </g>
    </g>
</svg>