<?xml version="1.0" encoding="UTF-8"?>
<svg width="12px" height="12px" viewBox="0 0 12 12" version="1.1" xmlns="http://www.w3.org/2000/svg" xmlns:xlink="http://www.w3.org/1999/xlink">
    <g id="页面-1" stroke="none" stroke-width="1" fill="none" fill-rule="evenodd">
        <g id="页面设置/主题" transform="translate(-1136.000000, -530.000000)" fill-rule="nonzero">
            <g id="info-circle备份-3" transform="translate(1136.000000, 530.000000)">
                <rect id="矩形" fill="#000000" opacity="0" x="0" y="0" width="12" height="12"></rect>
                <g id="编组-41" transform="translate(0.750000, 0.750000)" fill="#FFFFFF" fill-opacity="0.65">
                    <path d="M5.25,0 C2.35078125,0 0,2.35078125 0,5.25 C0,8.14921875 2.35078125,10.5 5.25,10.5 C8.14921875,10.5 10.5,8.14921875 10.5,5.25 C10.5,2.35078125 8.14921875,0 5.25,0 Z M5.25,9.609375 C2.84296875,9.609375 0.890625,7.65703125 0.890625,5.25 C0.890625,2.84296875 2.84296875,0.890625 5.25,0.890625 C7.65703125,0.890625 9.609375,2.84296875 9.609375,5.25 C9.609375,7.65703125 7.65703125,9.609375 5.25,9.609375 Z" id="形状"></path>
                    <path d="M4.6875,3.1875 C4.6875,3.49816017 4.93933983,3.75 5.25,3.75 C5.56066017,3.75 5.8125,3.49816017 5.8125,3.1875 C5.8125,2.87683983 5.56066017,2.625 5.25,2.625 C4.93933983,2.625 4.6875,2.87683983 4.6875,3.1875 Z" id="路径"></path>
                    <path d="M5.53125,4.5 L4.96875,4.5 C4.9171875,4.5 4.875,4.5421875 4.875,4.59375 L4.875,7.78125 C4.875,7.8328125 4.9171875,7.875 4.96875,7.875 L5.53125,7.875 C5.5828125,7.875 5.625,7.8328125 5.625,7.78125 L5.625,4.59375 C5.625,4.5421875 5.5828125,4.5 5.53125,4.5 Z" id="路径"></path>
                </g>
            </g>
        </g>
    </g>
</svg>