<?xml version="1.0" encoding="UTF-8"?>
<svg width="22px" height="18px" viewBox="0 0 22 18" version="1.1" xmlns="http://www.w3.org/2000/svg" xmlns:xlink="http://www.w3.org/1999/xlink">
    <title>形状</title>
    <defs>
        <linearGradient x1="50%" y1="0%" x2="50%" y2="100%" id="linearGradient-1">
            <stop stop-color="#E5E5E7" offset="0.0737543706%"></stop>
            <stop stop-color="#C5C4C8" offset="100%"></stop>
        </linearGradient>
        <linearGradient x1="50%" y1="0%" x2="50%" y2="100%" id="linearGradient-2">
            <stop stop-color="#FEBF8A" offset="0%"></stop>
            <stop stop-color="#FA8334" offset="100%"></stop>
        </linearGradient>
        <linearGradient x1="50%" y1="0%" x2="50%" y2="100%" id="linearGradient-3">
            <stop stop-color="#FEBF8A" offset="0%"></stop>
            <stop stop-color="#FA8334" offset="100%"></stop>
        </linearGradient>
    </defs>
    <g id="页面-1" stroke="none" stroke-width="1" fill="none" fill-rule="evenodd">
        <g id="页面设置/主题" transform="translate(-98.000000, -137.000000)" fill-rule="nonzero">
            <g id="编组-106" transform="translate(0.000000, 92.000000)">
                <g id="翻牌器备份-4" transform="translate(98.000000, 45.000000)">
                    <path d="M0,1.8189894e-12 L0,17.6 L22,17.6 L22,1.8189894e-12 L0,1.8189894e-12 Z M19.8,15.4 L2.20000002,15.4 L2.20000002,2.19999999 L19.8,2.19999999 L19.8,15.4 L19.8,15.4 Z" id="形状" fill="url(#linearGradient-1)"></path>
                    <path d="M10.285,6.70999998 C10.285,6.32499999 10.34,6.10499997 10.395,5.94 C10.505,5.82999999 10.56,5.775 10.725,5.775 C10.89,5.775 11,5.82999999 11.055,5.94 C11.11,5.99499999 11.165,6.215 11.165,6.43499999 C11.165,6.76499999 11.055,7.09499999 10.835,7.69999998 C10.78,7.86499998 10.67,8.02999998 10.56,8.24999999 L12.54,8.24999999 C12.76,7.7 12.87,7.205 12.87,6.70999998 C12.87,6.04999998 12.705,5.55499998 12.32,5.115 C11.935,4.67500001 11.385,4.50999999 10.67,4.50999999 C10.285,4.50999999 9.95500001,4.56499998 9.68,4.67499999 C9.40499999,4.785 9.23999999,5.05999998 9.02,5.28 C8.855,5.555 8.74499999,5.82999999 8.69,6.105 C8.63500001,6.38 8.63500001,6.71 8.63500001,7.20499998 L8.63500001,7.53499998 L10.285,7.53499998 L10.285,6.70999998 L10.285,6.70999998 Z M11.99,9.34999998 L9.95500001,9.34999998 C9.62500001,10.01 9.13000001,10.835 8.57999999,11.88 L8.57999999,13.145 L12.705,13.145 L12.705,11.715 L10.56,11.715 C11.22,10.725 11.66,9.95499998 11.99,9.34999998 Z M4.40000001,6.98499999 C4.51000001,7.03999998 4.62,7.14999999 4.62,7.31499999 C4.67499999,7.47999999 4.67499999,7.80999999 4.67500001,8.30499998 L6.49000001,8.30499998 L6.49000001,4.50999999 L5.39,4.50999999 C4.95,5.16999999 4.29,5.66499999 3.41000001,5.88499998 L3.41000001,6.87499998 L3.57500001,6.87499998 C4.01500001,6.81999999 4.29,6.87499998 4.40000001,6.98499999 L4.40000001,6.98499999 Z M4.67500001,9.34999998 L6.49000001,9.34999998 L6.49000001,13.145 L4.67500001,13.145 L4.67500001,9.34999998 Z" id="形状" fill="url(#linearGradient-2)"></path>
                    <path d="M16.445,6.48999999 C16.445,6.15999999 16.445,5.99499999 16.5,5.88499998 C16.555,5.82999999 16.61,5.77499997 16.72,5.775 C16.83,5.77500002 16.885,5.82999999 16.94,5.88499998 C16.995,5.93999997 17.05,6.15999999 17.05,6.43499999 L17.05,6.87499998 C17.05,7.20499998 17.05,7.36999998 16.995,7.47999999 C16.94,7.58999999 16.885,7.64499999 16.83,7.75499999 C16.775,7.865 16.445,7.80999999 16.115,7.80999999 L16.115,8.24999999 L18.04,8.24999999 C18.26,8.08499999 18.48,7.80999999 18.59,7.64499999 C18.7,7.47999999 18.7,7.14999999 18.7,6.65499999 C18.7,5.99499999 18.59,5.38999998 18.315,5.05999998 C18.04,4.67499999 17.49,4.50999999 16.72,4.50999999 C16.115,4.50999999 15.62,4.62 15.345,4.95 C15.07,5.225 14.96,5.775 14.96,6.54499998 L14.96,7.20499998 L16.5,7.20499998 L16.5,6.48999999 L16.445,6.48999999 Z M16.885,9.34999998 L16.94,9.40499999 C16.995,9.515 17.05,9.78999998 17.05,10.065 L17.05,10.615 C17.05,11.165 17.05,11.495 16.995,11.605 C16.995,11.715 16.885,11.77 16.775,11.77 C16.665,11.77 16.61,11.77 16.555,11.66 C16.5,11.66 16.5,11.385 16.5,11.055 L16.5,9.67999998 L14.85,9.67999998 L14.85,10.34 C14.85,11.165 14.905,11.715 14.96,11.99 C15.07,12.32 15.29,12.54 15.565,12.815 C15.895,12.98 16.28,13.145 16.775,13.145 C17.215,13.145 17.6,13.035 17.875,12.815 C18.15,12.65 18.315,12.375 18.48,11.99 C18.59,11.605 18.645,11.11 18.645,10.45 C18.645,10.01 18.645,9.62499998 18.59,9.34999998 L16.885,9.34999998 Z" id="形状" fill="url(#linearGradient-3)"></path>
                </g>
            </g>
        </g>
    </g>
</svg>